<svg class="bgsvg" viewBox="0 0 1080 1350" preserveAspectRatio="xMidYMid slice" xmlns="http://www.w3.org/2000/svg"><rect width="1080" height="1350" fill="#0A0B10"/><defs><radialGradient id="g9001_tl" cx="0" cy="0" r="1" gradientUnits="userSpaceOnUse" gradientTransform="translate(160 200) scale(720)"><stop offset="0" stop-color="#F7B041" stop-opacity="0.4"/><stop offset="0.5" stop-color="#F7B041" stop-opacity="0.1"/><stop offset="1" stop-color="#F7B041" stop-opacity="0"/></radialGradient><radialGradient id="g9001_vig" cx="0" cy="0" r="1" gradientUnits="userSpaceOnUse" gradientTransform="translate(540 675) scale(760)"><stop offset="0" stop-color="#000000" stop-opacity="0"/><stop offset="0.68" stop-color="#000000" stop-opacity="0"/><stop offset="1" stop-color="#000000" stop-opacity="0.55"/></radialGradient></defs><rect width="1080" height="1350" fill="#0A0B10"/><rect width="1080" height="1350" fill="url(#g9001_tl)"/><g><path d="M-20.0 129.6 H222.5 V206.0 H513.7 V129.1 H647.4 V325.5 H873.7 V184.3 H1114.7 V355.7 H1274.7" fill="none" stroke="#F7B041" stroke-opacity="0.14" stroke-width="2"/><path d="M-20.0 269.0 H172.5 V187.0 H442.3 V303.6 H598.1 V389.4 H809.0 V305.4 H951.9 V475.9 H1111.9" fill="none" stroke="#F7B041" stroke-opacity="0.11" stroke-width="2"/><path d="M-20.0 404.2 H153.1 V520.1 H335.7 V682.6 H517.6 V499.0 H762.8 V299.4 H979.7 V196.5 H1139.7" fill="none" stroke="#F7B041" stroke-opacity="0.19" stroke-width="2"/><path d="M-20.0 533.5 H135.0 V440.3 H255.4 V609.1 H404.3 V775.6 H700.9 V652.7 H860.9" fill="none" stroke="#F7B041" stroke-opacity="0.16" stroke-width="2"/><path d="M-20.0 673.1 H196.4 V867.6 H381.3 V964.5 H556.7 V1127.4 H718.5 V1019.2 H878.5" fill="none" stroke="#F7B041" stroke-opacity="0.18" stroke-width="2"/><path d="M-20.0 800.4 H201.9 V924.7 H387.8 V827.9 H682.0 V669.7 H842.0" fill="none" stroke="#F7B041" stroke-opacity="0.17" stroke-width="2"/><path d="M-20.0 917.6 H204.8 V834.5 H402.0 V667.0 H694.3 V767.1 H854.3" fill="none" stroke="#F7B041" stroke-opacity="0.17" stroke-width="2"/><path d="M-20.0 1053.4 H248.5 V1196.6 H538.9 V1029.5 H746.1 V1217.9 H906.1" fill="none" stroke="#F7B041" stroke-opacity="0.12" stroke-width="2"/><path d="M-20.0 1171.3 H262.4 V1365.1 H388.3 V1466.0 H704.4 V1275.9 H991.2 V1419.0 H1185.6 V1345.5 H1345.6" fill="none" stroke="#F7B041" stroke-opacity="0.10" stroke-width="2"/></g><g><circle cx="222.5" cy="206.0" r="4.5" fill="#F7B041" opacity="0.9"/><circle cx="513.7" cy="129.1" r="4.5" fill="#F7B041" opacity="0.9"/><circle cx="647.4" cy="325.5" r="4.5" fill="#F7B041" opacity="0.9"/><circle cx="873.7" cy="184.3" r="4.5" fill="#F7B041" opacity="0.9"/><circle cx="1114.7" cy="355.7" r="4.5" fill="#F7B041" opacity="0.9"/><circle cx="172.5" cy="187.0" r="4.5" fill="#F7B041" opacity="0.9"/><circle cx="442.3" cy="303.6" r="4.5" fill="#F7B041" opacity="0.9"/><circle cx="598.1" cy="389.4" r="4.5" fill="#F7B041" opacity="0.9"/><circle cx="809.0" cy="305.4" r="4.5" fill="#F7B041" opacity="0.9"/><circle cx="951.9" cy="475.9" r="4.5" fill="#F7B041" opacity="0.9"/><circle cx="153.1" cy="520.1" r="4.5" fill="#F7B041" opacity="0.9"/><circle cx="335.7" cy="682.6" r="4.5" fill="#F7B041" opacity="0.9"/><circle cx="517.6" cy="499.0" r="4.5" fill="#F7B041" opacity="0.9"/><circle cx="762.8" cy="299.4" r="4.5" fill="#F7B041" opacity="0.9"/><circle cx="979.7" cy="196.5" r="4.5" fill="#F7B041" opacity="0.9"/><circle cx="135.0" cy="440.3" r="4.5" fill="#F7B041" opacity="0.9"/><circle cx="255.4" cy="609.1" r="4.5" fill="#F7B041" opacity="0.9"/><circle cx="404.3" cy="775.6" r="4.5" fill="#F7B041" opacity="0.9"/><circle cx="700.9" cy="652.7" r="4.5" fill="#F7B041" opacity="0.9"/><circle cx="196.4" cy="867.6" r="4.5" fill="#F7B041" opacity="0.9"/><circle cx="381.3" cy="964.5" r="4.5" fill="#F7B041" opacity="0.9"/><circle cx="556.7" cy="1127.4" r="4.5" fill="#F7B041" opacity="0.9"/><circle cx="718.5" cy="1019.2" r="4.5" fill="#F7B041" opacity="0.9"/><circle cx="201.9" cy="924.7" r="4.5" fill="#F7B041" opacity="0.9"/><circle cx="387.8" cy="827.9" r="4.5" fill="#F7B041" opacity="0.9"/><circle cx="682.0" cy="669.7" r="4.5" fill="#F7B041" opacity="0.9"/><circle cx="204.8" cy="834.5" r="4.5" fill="#F7B041" opacity="0.9"/><circle cx="402.0" cy="667.0" r="4.5" fill="#F7B041" opacity="0.9"/><circle cx="694.3" cy="767.1" r="4.5" fill="#F7B041" opacity="0.9"/><circle cx="248.5" cy="1196.6" r="4.5" fill="#F7B041" opacity="0.9"/><circle cx="538.9" cy="1029.5" r="4.5" fill="#F7B041" opacity="0.9"/><circle cx="746.1" cy="1217.9" r="4.5" fill="#F7B041" opacity="0.9"/><circle cx="262.4" cy="1365.1" r="4.5" fill="#F7B041" opacity="0.9"/><circle cx="388.3" cy="1466.0" r="4.5" fill="#F7B041" opacity="0.9"/><circle cx="704.4" cy="1275.9" r="4.5" fill="#F7B041" opacity="0.9"/><circle cx="991.2" cy="1419.0" r="4.5" fill="#F7B041" opacity="0.9"/><circle cx="1185.6" cy="1345.5" r="4.5" fill="#F7B041" opacity="0.9"/></g><rect width="1080" height="1350" fill="url(#g9001_vig)"/></svg>