<svg class="bgsvg" viewBox="0 0 1080 1350" preserveAspectRatio="xMidYMid slice" xmlns="http://www.w3.org/2000/svg"><rect width="1080" height="1350" fill="#0A0B10"/><defs><radialGradient id="g9008_ga" cx="0" cy="0" r="1" gradientUnits="userSpaceOnUse" gradientTransform="translate(0 0) scale(1)"><stop offset="0" stop-color="#FFCB6B" stop-opacity="1"/><stop offset="1" stop-color="#FFCB6B" stop-opacity="0"/></radialGradient><radialGradient id="g9008_gc" cx="0" cy="0" r="1" gradientUnits="userSpaceOnUse" gradientTransform="translate(0 0) scale(1)"><stop offset="0" stop-color="#3BABFF" stop-opacity="1"/><stop offset="1" stop-color="#3BABFF" stop-opacity="0"/></radialGradient><radialGradient id="g9008_vig" cx="0" cy="0" r="1" gradientUnits="userSpaceOnUse" gradientTransform="translate(540 675) scale(760)"><stop offset="0" stop-color="#000000" stop-opacity="0"/><stop offset="0.68" stop-color="#000000" stop-opacity="0"/><stop offset="1" stop-color="#000000" stop-opacity="0.5"/></radialGradient></defs><rect width="1080" height="1350" fill="#0A0F1A"/><rect width="1080" height="1350" fill="#0A0F1A"/><g><circle cx="90.0" cy="28.1" r="3" fill="#2b3340" opacity="0.5"/><circle cx="150.0" cy="28.1" r="3" fill="#2b3340" opacity="0.5"/><circle cx="210.0" cy="28.1" r="3" fill="#2b3340" opacity="0.5"/><circle cx="330.0" cy="28.1" r="3" fill="#2b3340" opacity="0.5"/><circle cx="690.0" cy="28.1" r="3" fill="#2b3340" opacity="0.5"/><circle cx="810.0" cy="28.1" r="3" fill="#2b3340" opacity="0.5"/><circle cx="930.0" cy="28.1" r="3" fill="#2b3340" opacity="0.5"/><circle cx="90.0" cy="84.4" r="3" fill="#2b3340" opacity="0.5"/><circle cx="210.0" cy="84.4" r="3" fill="#2b3340" opacity="0.5"/><circle cx="450.0" cy="84.4" r="3" fill="#2b3340" opacity="0.5"/><circle cx="570.0" cy="84.4" r="3" fill="#2b3340" opacity="0.5"/><circle cx="690.0" cy="84.4" r="3" fill="#2b3340" opacity="0.5"/><circle cx="750.0" cy="84.4" r="3" fill="#2b3340" opacity="0.5"/><circle cx="810.0" cy="84.4" r="3" fill="#2b3340" opacity="0.5"/><circle cx="270.0" cy="140.6" r="3" fill="#2b3340" opacity="0.5"/><circle cx="390.0" cy="140.6" r="3" fill="#2b3340" opacity="0.5"/><circle cx="510.0" cy="140.6" r="3" fill="#2b3340" opacity="0.5"/><circle cx="630.0" cy="140.6" r="3" fill="#2b3340" opacity="0.5"/><circle cx="690.0" cy="140.6" r="3" fill="#2b3340" opacity="0.5"/><circle cx="810.0" cy="140.6" r="3" fill="#2b3340" opacity="0.5"/><circle cx="930.0" cy="140.6" r="3" fill="#2b3340" opacity="0.5"/><circle cx="990.0" cy="140.6" r="3" fill="#2b3340" opacity="0.5"/><circle cx="1050.0" cy="140.6" r="3" fill="#2b3340" opacity="0.5"/><circle cx="90.0" cy="196.9" r="3" fill="#2b3340" opacity="0.5"/><circle cx="150.0" cy="196.9" r="3" fill="#2b3340" opacity="0.5"/><circle cx="630.0" cy="196.9" r="3" fill="#2b3340" opacity="0.5"/><circle cx="690.0" cy="196.9" r="3" fill="#2b3340" opacity="0.5"/><circle cx="930.0" cy="196.9" r="3" fill="#2b3340" opacity="0.5"/><circle cx="1050.0" cy="196.9" r="3" fill="#2b3340" opacity="0.5"/><circle cx="30.0" cy="253.1" r="3" fill="#2b3340" opacity="0.5"/><circle cx="90.0" cy="253.1" r="3" fill="#2b3340" opacity="0.5"/><circle cx="150.0" cy="253.1" r="3" fill="#2b3340" opacity="0.5"/><circle cx="390.0" cy="253.1" r="3" fill="#2b3340" opacity="0.5"/><circle cx="570.0" cy="253.1" r="3" fill="#2b3340" opacity="0.5"/><circle cx="630.0" cy="253.1" r="3" fill="#2b3340" opacity="0.5"/><circle cx="690.0" cy="253.1" r="3" fill="#2b3340" opacity="0.5"/><circle cx="870.0" cy="253.1" r="3" fill="#2b3340" opacity="0.5"/><circle cx="1050.0" cy="253.1" r="3" fill="#2b3340" opacity="0.5"/><circle cx="270.0" cy="309.4" r="3" fill="#2b3340" opacity="0.5"/><circle cx="390.0" cy="309.4" r="3" fill="#2b3340" opacity="0.5"/><circle cx="570.0" cy="309.4" r="3" fill="#2b3340" opacity="0.5"/><circle cx="690.0" cy="309.4" r="3" fill="#2b3340" opacity="0.5"/><circle cx="750.0" cy="309.4" r="3" fill="#2b3340" opacity="0.5"/><circle cx="810.0" cy="309.4" r="3" fill="#2b3340" opacity="0.5"/><circle cx="990.0" cy="309.4" r="3" fill="#2b3340" opacity="0.5"/><circle cx="1050.0" cy="309.4" r="3" fill="#2b3340" opacity="0.5"/><circle cx="30.0" cy="365.6" r="3" fill="#2b3340" opacity="0.5"/><circle cx="90.0" cy="365.6" r="3" fill="#2b3340" opacity="0.5"/><circle cx="210.0" cy="365.6" r="3" fill="#2b3340" opacity="0.5"/><circle cx="330.0" cy="365.6" r="3" fill="#2b3340" opacity="0.5"/><circle cx="390.0" cy="365.6" r="3" fill="#2b3340" opacity="0.5"/><circle cx="810.0" cy="365.6" r="3" fill="#2b3340" opacity="0.5"/><circle cx="930.0" cy="365.6" r="3" fill="#2b3340" opacity="0.5"/><circle cx="30.0" cy="421.9" r="3" fill="#2b3340" opacity="0.5"/><circle cx="90.0" cy="421.9" r="3" fill="#2b3340" opacity="0.5"/><circle cx="450.0" cy="421.9" r="3" fill="#2b3340" opacity="0.5"/><circle cx="510.0" cy="421.9" r="3" fill="#2b3340" opacity="0.5"/><circle cx="570.0" cy="421.9" r="3" fill="#2b3340" opacity="0.5"/><circle cx="690.0" cy="421.9" r="3" fill="#2b3340" opacity="0.5"/><circle cx="750.0" cy="421.9" r="3" fill="#2b3340" opacity="0.5"/><circle cx="990.0" cy="421.9" r="3" fill="#2b3340" opacity="0.5"/><circle cx="30.0" cy="478.1" r="3" fill="#2b3340" opacity="0.5"/><circle cx="270.0" cy="478.1" r="3" fill="#2b3340" opacity="0.5"/><circle cx="330.0" cy="478.1" r="3" fill="#2b3340" opacity="0.5"/><circle cx="390.0" cy="478.1" r="3" fill="#2b3340" opacity="0.5"/><circle cx="450.0" cy="478.1" r="3" fill="#2b3340" opacity="0.5"/><circle cx="510.0" cy="478.1" r="3" fill="#2b3340" opacity="0.5"/><circle cx="870.0" cy="478.1" r="3" fill="#2b3340" opacity="0.5"/><circle cx="930.0" cy="478.1" r="3" fill="#2b3340" opacity="0.5"/><circle cx="1050.0" cy="478.1" r="3" fill="#2b3340" opacity="0.5"/><circle cx="30.0" cy="534.4" r="3" fill="#2b3340" opacity="0.5"/><circle cx="150.0" cy="534.4" r="3" fill="#2b3340" opacity="0.5"/><circle cx="210.0" cy="534.4" r="3" fill="#2b3340" opacity="0.5"/><circle cx="330.0" cy="534.4" r="3" fill="#2b3340" opacity="0.5"/><circle cx="390.0" cy="534.4" r="3" fill="#2b3340" opacity="0.5"/><circle cx="510.0" cy="534.4" r="3" fill="#2b3340" opacity="0.5"/><circle cx="570.0" cy="534.4" r="3" fill="#2b3340" opacity="0.5"/><circle cx="630.0" cy="534.4" r="3" fill="#2b3340" opacity="0.5"/><circle cx="690.0" cy="534.4" r="3" fill="#2b3340" opacity="0.5"/><circle cx="30.0" cy="590.6" r="3" fill="#2b3340" opacity="0.5"/><circle cx="90.0" cy="590.6" r="3" fill="#2b3340" opacity="0.5"/><circle cx="390.0" cy="590.6" r="3" fill="#2b3340" opacity="0.5"/><circle cx="450.0" cy="590.6" r="3" fill="#2b3340" opacity="0.5"/><circle cx="510.0" cy="590.6" r="3" fill="#2b3340" opacity="0.5"/><circle cx="570.0" cy="590.6" r="3" fill="#2b3340" opacity="0.5"/><circle cx="870.0" cy="590.6" r="3" fill="#2b3340" opacity="0.5"/><circle cx="930.0" cy="590.6" r="3" fill="#2b3340" opacity="0.5"/><circle cx="1050.0" cy="590.6" r="3" fill="#2b3340" opacity="0.5"/><circle cx="90.0" cy="646.9" r="3" fill="#2b3340" opacity="0.5"/><circle cx="210.0" cy="646.9" r="3" fill="#2b3340" opacity="0.5"/><circle cx="270.0" cy="646.9" r="3" fill="#2b3340" opacity="0.5"/><circle cx="330.0" cy="646.9" r="3" fill="#2b3340" opacity="0.5"/><circle cx="750.0" cy="646.9" r="3" fill="#2b3340" opacity="0.5"/><circle cx="930.0" cy="646.9" r="3" fill="#2b3340" opacity="0.5"/><circle cx="90.0" cy="703.1" r="3" fill="#2b3340" opacity="0.5"/><circle cx="270.0" cy="703.1" r="3" fill="#2b3340" opacity="0.5"/><circle cx="390.0" cy="703.1" r="3" fill="#2b3340" opacity="0.5"/><circle cx="450.0" cy="703.1" r="3" fill="#2b3340" opacity="0.5"/><circle cx="510.0" cy="703.1" r="3" fill="#2b3340" opacity="0.5"/><circle cx="630.0" cy="703.1" r="3" fill="#2b3340" opacity="0.5"/><circle cx="690.0" cy="703.1" r="3" fill="#2b3340" opacity="0.5"/><circle cx="810.0" cy="703.1" r="3" fill="#2b3340" opacity="0.5"/><circle cx="1050.0" cy="703.1" r="3" fill="#2b3340" opacity="0.5"/><circle cx="210.0" cy="759.4" r="3" fill="#2b3340" opacity="0.5"/><circle cx="330.0" cy="759.4" r="3" fill="#2b3340" opacity="0.5"/><circle cx="390.0" cy="759.4" r="3" fill="#2b3340" opacity="0.5"/><circle cx="570.0" cy="759.4" r="3" fill="#2b3340" opacity="0.5"/><circle cx="810.0" cy="759.4" r="3" fill="#2b3340" opacity="0.5"/><circle cx="90.0" cy="815.6" r="3" fill="#2b3340" opacity="0.5"/><circle cx="150.0" cy="815.6" r="3" fill="#2b3340" opacity="0.5"/><circle cx="210.0" cy="815.6" r="3" fill="#2b3340" opacity="0.5"/><circle cx="390.0" cy="815.6" r="3" fill="#2b3340" opacity="0.5"/><circle cx="510.0" cy="815.6" r="3" fill="#2b3340" opacity="0.5"/><circle cx="690.0" cy="815.6" r="3" fill="#2b3340" opacity="0.5"/><circle cx="810.0" cy="815.6" r="3" fill="#2b3340" opacity="0.5"/><circle cx="870.0" cy="815.6" r="3" fill="#2b3340" opacity="0.5"/><circle cx="930.0" cy="815.6" r="3" fill="#2b3340" opacity="0.5"/><circle cx="990.0" cy="815.6" r="3" fill="#2b3340" opacity="0.5"/><circle cx="1050.0" cy="815.6" r="3" fill="#2b3340" opacity="0.5"/><circle cx="210.0" cy="871.9" r="3" fill="#2b3340" opacity="0.5"/><circle cx="270.0" cy="871.9" r="3" fill="#2b3340" opacity="0.5"/><circle cx="690.0" cy="871.9" r="3" fill="#2b3340" opacity="0.5"/><circle cx="750.0" cy="871.9" r="3" fill="#2b3340" opacity="0.5"/><circle cx="810.0" cy="871.9" r="3" fill="#2b3340" opacity="0.5"/><circle cx="150.0" cy="928.1" r="3" fill="#2b3340" opacity="0.5"/><circle cx="210.0" cy="928.1" r="3" fill="#2b3340" opacity="0.5"/><circle cx="270.0" cy="928.1" r="3" fill="#2b3340" opacity="0.5"/><circle cx="570.0" cy="928.1" r="3" fill="#2b3340" opacity="0.5"/><circle cx="750.0" cy="928.1" r="3" fill="#2b3340" opacity="0.5"/><circle cx="30.0" cy="984.4" r="3" fill="#2b3340" opacity="0.5"/><circle cx="90.0" cy="984.4" r="3" fill="#2b3340" opacity="0.5"/><circle cx="390.0" cy="984.4" r="3" fill="#2b3340" opacity="0.5"/><circle cx="450.0" cy="984.4" r="3" fill="#2b3340" opacity="0.5"/><circle cx="570.0" cy="984.4" r="3" fill="#2b3340" opacity="0.5"/><circle cx="630.0" cy="984.4" r="3" fill="#2b3340" opacity="0.5"/><circle cx="990.0" cy="984.4" r="3" fill="#2b3340" opacity="0.5"/><circle cx="1050.0" cy="984.4" r="3" fill="#2b3340" opacity="0.5"/><circle cx="30.0" cy="1040.6" r="3" fill="#2b3340" opacity="0.5"/><circle cx="270.0" cy="1040.6" r="3" fill="#2b3340" opacity="0.5"/><circle cx="510.0" cy="1040.6" r="3" fill="#2b3340" opacity="0.5"/><circle cx="630.0" cy="1040.6" r="3" fill="#2b3340" opacity="0.5"/><circle cx="810.0" cy="1040.6" r="3" fill="#2b3340" opacity="0.5"/><circle cx="930.0" cy="1040.6" r="3" fill="#2b3340" opacity="0.5"/><circle cx="150.0" cy="1096.9" r="3" fill="#2b3340" opacity="0.5"/><circle cx="270.0" cy="1096.9" r="3" fill="#2b3340" opacity="0.5"/><circle cx="330.0" cy="1096.9" r="3" fill="#2b3340" opacity="0.5"/><circle cx="450.0" cy="1096.9" r="3" fill="#2b3340" opacity="0.5"/><circle cx="510.0" cy="1096.9" r="3" fill="#2b3340" opacity="0.5"/><circle cx="570.0" cy="1096.9" r="3" fill="#2b3340" opacity="0.5"/><circle cx="630.0" cy="1096.9" r="3" fill="#2b3340" opacity="0.5"/><circle cx="150.0" cy="1153.1" r="3" fill="#2b3340" opacity="0.5"/><circle cx="330.0" cy="1153.1" r="3" fill="#2b3340" opacity="0.5"/><circle cx="390.0" cy="1153.1" r="3" fill="#2b3340" opacity="0.5"/><circle cx="570.0" cy="1153.1" r="3" fill="#2b3340" opacity="0.5"/><circle cx="630.0" cy="1153.1" r="3" fill="#2b3340" opacity="0.5"/><circle cx="690.0" cy="1153.1" r="3" fill="#2b3340" opacity="0.5"/><circle cx="810.0" cy="1153.1" r="3" fill="#2b3340" opacity="0.5"/><circle cx="930.0" cy="1153.1" r="3" fill="#2b3340" opacity="0.5"/><circle cx="150.0" cy="1209.4" r="3" fill="#2b3340" opacity="0.5"/><circle cx="330.0" cy="1209.4" r="3" fill="#2b3340" opacity="0.5"/><circle cx="510.0" cy="1209.4" r="3" fill="#2b3340" opacity="0.5"/><circle cx="690.0" cy="1209.4" r="3" fill="#2b3340" opacity="0.5"/><circle cx="1050.0" cy="1209.4" r="3" fill="#2b3340" opacity="0.5"/><circle cx="90.0" cy="1265.6" r="3" fill="#2b3340" opacity="0.5"/><circle cx="210.0" cy="1265.6" r="3" fill="#2b3340" opacity="0.5"/><circle cx="390.0" cy="1265.6" r="3" fill="#2b3340" opacity="0.5"/><circle cx="630.0" cy="1265.6" r="3" fill="#2b3340" opacity="0.5"/><circle cx="750.0" cy="1265.6" r="3" fill="#2b3340" opacity="0.5"/><circle cx="990.0" cy="1265.6" r="3" fill="#2b3340" opacity="0.5"/><circle cx="1050.0" cy="1265.6" r="3" fill="#2b3340" opacity="0.5"/><circle cx="30.0" cy="1321.9" r="3" fill="#2b3340" opacity="0.5"/><circle cx="150.0" cy="1321.9" r="3" fill="#2b3340" opacity="0.5"/><circle cx="210.0" cy="1321.9" r="3" fill="#2b3340" opacity="0.5"/><circle cx="390.0" cy="1321.9" r="3" fill="#2b3340" opacity="0.5"/><circle cx="510.0" cy="1321.9" r="3" fill="#2b3340" opacity="0.5"/><circle cx="570.0" cy="1321.9" r="3" fill="#2b3340" opacity="0.5"/><circle cx="630.0" cy="1321.9" r="3" fill="#2b3340" opacity="0.5"/><circle cx="750.0" cy="1321.9" r="3" fill="#2b3340" opacity="0.5"/><circle cx="870.0" cy="1321.9" r="3" fill="#2b3340" opacity="0.5"/><circle cx="930.0" cy="1321.9" r="3" fill="#2b3340" opacity="0.5"/><circle cx="1050.0" cy="1321.9" r="3" fill="#2b3340" opacity="0.5"/></g><g><circle cx="30.0" cy="28.1" r="15" fill="url(#g9008_gc)" opacity="0.17"/><circle cx="270.0" cy="28.1" r="15" fill="url(#g9008_gc)" opacity="0.28"/><circle cx="390.0" cy="28.1" r="15" fill="url(#g9008_ga)" opacity="0.23"/><circle cx="450.0" cy="28.1" r="15" fill="url(#g9008_ga)" opacity="0.28"/><circle cx="510.0" cy="28.1" r="15" fill="url(#g9008_ga)" opacity="0.25"/><circle cx="570.0" cy="28.1" r="15" fill="url(#g9008_gc)" opacity="0.28"/><circle cx="630.0" cy="28.1" r="26" fill="url(#g9008_ga)" opacity="0.34"/><circle cx="750.0" cy="28.1" r="15" fill="url(#g9008_ga)" opacity="0.21"/><circle cx="870.0" cy="28.1" r="15" fill="url(#g9008_gc)" opacity="0.14"/><circle cx="990.0" cy="28.1" r="15" fill="url(#g9008_ga)" opacity="0.20"/><circle cx="1050.0" cy="28.1" r="15" fill="url(#g9008_ga)" opacity="0.20"/><circle cx="30.0" cy="84.4" r="15" fill="url(#g9008_gc)" opacity="0.31"/><circle cx="150.0" cy="84.4" r="15" fill="url(#g9008_gc)" opacity="0.27"/><circle cx="270.0" cy="84.4" r="15" fill="url(#g9008_gc)" opacity="0.25"/><circle cx="330.0" cy="84.4" r="15" fill="url(#g9008_gc)" opacity="0.18"/><circle cx="390.0" cy="84.4" r="15" fill="url(#g9008_ga)" opacity="0.14"/><circle cx="510.0" cy="84.4" r="15" fill="url(#g9008_gc)" opacity="0.29"/><circle cx="630.0" cy="84.4" r="15" fill="url(#g9008_gc)" opacity="0.19"/><circle cx="870.0" cy="84.4" r="26" fill="url(#g9008_ga)" opacity="0.40"/><circle cx="930.0" cy="84.4" r="15" fill="url(#g9008_gc)" opacity="0.29"/><circle cx="990.0" cy="84.4" r="15" fill="url(#g9008_gc)" opacity="0.20"/><circle cx="1050.0" cy="84.4" r="15" fill="url(#g9008_gc)" opacity="0.29"/><circle cx="30.0" cy="140.6" r="15" fill="url(#g9008_ga)" opacity="0.26"/><circle cx="90.0" cy="140.6" r="15" fill="url(#g9008_gc)" opacity="0.14"/><circle cx="150.0" cy="140.6" r="15" fill="url(#g9008_ga)" opacity="0.18"/><circle cx="210.0" cy="140.6" r="15" fill="url(#g9008_gc)" opacity="0.30"/><circle cx="330.0" cy="140.6" r="15" fill="url(#g9008_ga)" opacity="0.29"/><circle cx="450.0" cy="140.6" r="15" fill="url(#g9008_ga)" opacity="0.29"/><circle cx="570.0" cy="140.6" r="15" fill="url(#g9008_gc)" opacity="0.14"/><circle cx="750.0" cy="140.6" r="15" fill="url(#g9008_ga)" opacity="0.19"/><circle cx="870.0" cy="140.6" r="15" fill="url(#g9008_gc)" opacity="0.27"/><circle cx="30.0" cy="196.9" r="15" fill="url(#g9008_gc)" opacity="0.29"/><circle cx="210.0" cy="196.9" r="15" fill="url(#g9008_ga)" opacity="0.14"/><circle cx="270.0" cy="196.9" r="15" fill="url(#g9008_gc)" opacity="0.22"/><circle cx="330.0" cy="196.9" r="15" fill="url(#g9008_gc)" opacity="0.25"/><circle cx="390.0" cy="196.9" r="15" fill="url(#g9008_ga)" opacity="0.14"/><circle cx="450.0" cy="196.9" r="15" fill="url(#g9008_ga)" opacity="0.29"/><circle cx="510.0" cy="196.9" r="15" fill="url(#g9008_gc)" opacity="0.28"/><circle cx="570.0" cy="196.9" r="15" fill="url(#g9008_gc)" opacity="0.30"/><circle cx="750.0" cy="196.9" r="15" fill="url(#g9008_ga)" opacity="0.28"/><circle cx="810.0" cy="196.9" r="15" fill="url(#g9008_gc)" opacity="0.27"/><circle cx="870.0" cy="196.9" r="15" fill="url(#g9008_gc)" opacity="0.23"/><circle cx="990.0" cy="196.9" r="26" fill="url(#g9008_ga)" opacity="0.28"/><circle cx="210.0" cy="253.1" r="15" fill="url(#g9008_gc)" opacity="0.24"/><circle cx="270.0" cy="253.1" r="15" fill="url(#g9008_ga)" opacity="0.30"/><circle cx="330.0" cy="253.1" r="15" fill="url(#g9008_ga)" opacity="0.18"/><circle cx="450.0" cy="253.1" r="15" fill="url(#g9008_ga)" opacity="0.24"/><circle cx="510.0" cy="253.1" r="15" fill="url(#g9008_ga)" opacity="0.14"/><circle cx="750.0" cy="253.1" r="15" fill="url(#g9008_gc)" opacity="0.25"/><circle cx="810.0" cy="253.1" r="15" fill="url(#g9008_ga)" opacity="0.16"/><circle cx="930.0" cy="253.1" r="15" fill="url(#g9008_ga)" opacity="0.24"/><circle cx="990.0" cy="253.1" r="15" fill="url(#g9008_gc)" opacity="0.27"/><circle cx="30.0" cy="309.4" r="15" fill="url(#g9008_ga)" opacity="0.20"/><circle cx="90.0" cy="309.4" r="15" fill="url(#g9008_ga)" opacity="0.14"/><circle cx="150.0" cy="309.4" r="15" fill="url(#g9008_ga)" opacity="0.28"/><circle cx="210.0" cy="309.4" r="15" fill="url(#g9008_gc)" opacity="0.22"/><circle cx="330.0" cy="309.4" r="15" fill="url(#g9008_ga)" opacity="0.20"/><circle cx="450.0" cy="309.4" r="15" fill="url(#g9008_ga)" opacity="0.18"/><circle cx="510.0" cy="309.4" r="15" fill="url(#g9008_gc)" opacity="0.21"/><circle cx="630.0" cy="309.4" r="26" fill="url(#g9008_gc)" opacity="0.37"/><circle cx="870.0" cy="309.4" r="15" fill="url(#g9008_gc)" opacity="0.17"/><circle cx="930.0" cy="309.4" r="15" fill="url(#g9008_gc)" opacity="0.20"/><circle cx="150.0" cy="365.6" r="15" fill="url(#g9008_ga)" opacity="0.24"/><circle cx="270.0" cy="365.6" r="15" fill="url(#g9008_ga)" opacity="0.20"/><circle cx="450.0" cy="365.6" r="15" fill="url(#g9008_ga)" opacity="0.26"/><circle cx="510.0" cy="365.6" r="15" fill="url(#g9008_gc)" opacity="0.23"/><circle cx="570.0" cy="365.6" r="15" fill="url(#g9008_gc)" opacity="0.31"/><circle cx="630.0" cy="365.6" r="15" fill="url(#g9008_gc)" opacity="0.15"/><circle cx="690.0" cy="365.6" r="15" fill="url(#g9008_gc)" opacity="0.15"/><circle cx="750.0" cy="365.6" r="15" fill="url(#g9008_ga)" opacity="0.17"/><circle cx="870.0" cy="365.6" r="15" fill="url(#g9008_gc)" opacity="0.19"/><circle cx="990.0" cy="365.6" r="15" fill="url(#g9008_ga)" opacity="0.17"/><circle cx="1050.0" cy="365.6" r="15" fill="url(#g9008_gc)" opacity="0.28"/><circle cx="150.0" cy="421.9" r="15" fill="url(#g9008_ga)" opacity="0.25"/><circle cx="210.0" cy="421.9" r="15" fill="url(#g9008_gc)" opacity="0.21"/><circle cx="270.0" cy="421.9" r="15" fill="url(#g9008_ga)" opacity="0.31"/><circle cx="330.0" cy="421.9" r="15" fill="url(#g9008_ga)" opacity="0.28"/><circle cx="390.0" cy="421.9" r="15" fill="url(#g9008_gc)" opacity="0.19"/><circle cx="630.0" cy="421.9" r="15" fill="url(#g9008_ga)" opacity="0.29"/><circle cx="810.0" cy="421.9" r="15" fill="url(#g9008_gc)" opacity="0.29"/><circle cx="870.0" cy="421.9" r="15" fill="url(#g9008_gc)" opacity="0.18"/><circle cx="930.0" cy="421.9" r="15" fill="url(#g9008_ga)" opacity="0.31"/><circle cx="1050.0" cy="421.9" r="15" fill="url(#g9008_gc)" opacity="0.20"/><circle cx="90.0" cy="478.1" r="15" fill="url(#g9008_ga)" opacity="0.19"/><circle cx="150.0" cy="478.1" r="15" fill="url(#g9008_ga)" opacity="0.18"/><circle cx="210.0" cy="478.1" r="15" fill="url(#g9008_gc)" opacity="0.18"/><circle cx="570.0" cy="478.1" r="15" fill="url(#g9008_ga)" opacity="0.30"/><circle cx="630.0" cy="478.1" r="15" fill="url(#g9008_gc)" opacity="0.15"/><circle cx="690.0" cy="478.1" r="15" fill="url(#g9008_ga)" opacity="0.28"/><circle cx="750.0" cy="478.1" r="15" fill="url(#g9008_gc)" opacity="0.26"/><circle cx="810.0" cy="478.1" r="26" fill="url(#g9008_gc)" opacity="0.32"/><circle cx="990.0" cy="478.1" r="15" fill="url(#g9008_ga)" opacity="0.25"/><circle cx="90.0" cy="534.4" r="15" fill="url(#g9008_gc)" opacity="0.21"/><circle cx="270.0" cy="534.4" r="15" fill="url(#g9008_ga)" opacity="0.16"/><circle cx="450.0" cy="534.4" r="15" fill="url(#g9008_ga)" opacity="0.29"/><circle cx="750.0" cy="534.4" r="26" fill="url(#g9008_gc)" opacity="0.37"/><circle cx="810.0" cy="534.4" r="15" fill="url(#g9008_gc)" opacity="0.18"/><circle cx="870.0" cy="534.4" r="15" fill="url(#g9008_ga)" opacity="0.19"/><circle cx="930.0" cy="534.4" r="15" fill="url(#g9008_ga)" opacity="0.22"/><circle cx="990.0" cy="534.4" r="15" fill="url(#g9008_ga)" opacity="0.15"/><circle cx="1050.0" cy="534.4" r="26" fill="url(#g9008_gc)" opacity="0.30"/><circle cx="150.0" cy="590.6" r="26" fill="url(#g9008_gc)" opacity="0.24"/><circle cx="210.0" cy="590.6" r="15" fill="url(#g9008_gc)" opacity="0.15"/><circle cx="270.0" cy="590.6" r="15" fill="url(#g9008_ga)" opacity="0.26"/><circle cx="330.0" cy="590.6" r="15" fill="url(#g9008_gc)" opacity="0.29"/><circle cx="630.0" cy="590.6" r="15" fill="url(#g9008_ga)" opacity="0.18"/><circle cx="690.0" cy="590.6" r="15" fill="url(#g9008_gc)" opacity="0.28"/><circle cx="750.0" cy="590.6" r="15" fill="url(#g9008_gc)" opacity="0.27"/><circle cx="810.0" cy="590.6" r="15" fill="url(#g9008_gc)" opacity="0.13"/><circle cx="990.0" cy="590.6" r="15" fill="url(#g9008_gc)" opacity="0.24"/><circle cx="30.0" cy="646.9" r="15" fill="url(#g9008_gc)" opacity="0.17"/><circle cx="150.0" cy="646.9" r="15" fill="url(#g9008_ga)" opacity="0.23"/><circle cx="390.0" cy="646.9" r="26" fill="url(#g9008_ga)" opacity="0.30"/><circle cx="450.0" cy="646.9" r="15" fill="url(#g9008_ga)" opacity="0.14"/><circle cx="510.0" cy="646.9" r="15" fill="url(#g9008_ga)" opacity="0.28"/><circle cx="570.0" cy="646.9" r="15" fill="url(#g9008_ga)" opacity="0.18"/><circle cx="630.0" cy="646.9" r="15" fill="url(#g9008_gc)" opacity="0.13"/><circle cx="690.0" cy="646.9" r="15" fill="url(#g9008_gc)" opacity="0.27"/><circle cx="810.0" cy="646.9" r="15" fill="url(#g9008_gc)" opacity="0.26"/><circle cx="870.0" cy="646.9" r="15" fill="url(#g9008_gc)" opacity="0.21"/><circle cx="990.0" cy="646.9" r="15" fill="url(#g9008_gc)" opacity="0.16"/><circle cx="1050.0" cy="646.9" r="15" fill="url(#g9008_gc)" opacity="0.30"/><circle cx="30.0" cy="703.1" r="15" fill="url(#g9008_gc)" opacity="0.27"/><circle cx="150.0" cy="703.1" r="15" fill="url(#g9008_gc)" opacity="0.30"/><circle cx="210.0" cy="703.1" r="15" fill="url(#g9008_ga)" opacity="0.25"/><circle cx="330.0" cy="703.1" r="15" fill="url(#g9008_ga)" opacity="0.21"/><circle cx="570.0" cy="703.1" r="15" fill="url(#g9008_gc)" opacity="0.28"/><circle cx="750.0" cy="703.1" r="15" fill="url(#g9008_ga)" opacity="0.31"/><circle cx="870.0" cy="703.1" r="15" fill="url(#g9008_gc)" opacity="0.30"/><circle cx="930.0" cy="703.1" r="15" fill="url(#g9008_gc)" opacity="0.31"/><circle cx="990.0" cy="703.1" r="15" fill="url(#g9008_gc)" opacity="0.24"/><circle cx="30.0" cy="759.4" r="15" fill="url(#g9008_ga)" opacity="0.19"/><circle cx="90.0" cy="759.4" r="15" fill="url(#g9008_gc)" opacity="0.14"/><circle cx="150.0" cy="759.4" r="15" fill="url(#g9008_gc)" opacity="0.28"/><circle cx="270.0" cy="759.4" r="15" fill="url(#g9008_ga)" opacity="0.21"/><circle cx="450.0" cy="759.4" r="26" fill="url(#g9008_gc)" opacity="0.27"/><circle cx="510.0" cy="759.4" r="15" fill="url(#g9008_gc)" opacity="0.15"/><circle cx="630.0" cy="759.4" r="15" fill="url(#g9008_ga)" opacity="0.23"/><circle cx="690.0" cy="759.4" r="15" fill="url(#g9008_gc)" opacity="0.27"/><circle cx="750.0" cy="759.4" r="15" fill="url(#g9008_gc)" opacity="0.18"/><circle cx="870.0" cy="759.4" r="15" fill="url(#g9008_gc)" opacity="0.17"/><circle cx="930.0" cy="759.4" r="15" fill="url(#g9008_ga)" opacity="0.24"/><circle cx="990.0" cy="759.4" r="26" fill="url(#g9008_gc)" opacity="0.32"/><circle cx="1050.0" cy="759.4" r="15" fill="url(#g9008_ga)" opacity="0.29"/><circle cx="30.0" cy="815.6" r="15" fill="url(#g9008_ga)" opacity="0.29"/><circle cx="270.0" cy="815.6" r="15" fill="url(#g9008_ga)" opacity="0.18"/><circle cx="330.0" cy="815.6" r="26" fill="url(#g9008_gc)" opacity="0.34"/><circle cx="450.0" cy="815.6" r="26" fill="url(#g9008_gc)" opacity="0.25"/><circle cx="570.0" cy="815.6" r="26" fill="url(#g9008_gc)" opacity="0.23"/><circle cx="630.0" cy="815.6" r="15" fill="url(#g9008_ga)" opacity="0.25"/><circle cx="750.0" cy="815.6" r="15" fill="url(#g9008_gc)" opacity="0.13"/><circle cx="30.0" cy="871.9" r="15" fill="url(#g9008_ga)" opacity="0.20"/><circle cx="90.0" cy="871.9" r="15" fill="url(#g9008_ga)" opacity="0.13"/><circle cx="150.0" cy="871.9" r="15" fill="url(#g9008_gc)" opacity="0.18"/><circle cx="330.0" cy="871.9" r="26" fill="url(#g9008_gc)" opacity="0.32"/><circle cx="390.0" cy="871.9" r="15" fill="url(#g9008_gc)" opacity="0.13"/><circle cx="450.0" cy="871.9" r="26" fill="url(#g9008_ga)" opacity="0.24"/><circle cx="510.0" cy="871.9" r="15" fill="url(#g9008_ga)" opacity="0.14"/><circle cx="570.0" cy="871.9" r="15" fill="url(#g9008_gc)" opacity="0.17"/><circle cx="630.0" cy="871.9" r="15" fill="url(#g9008_ga)" opacity="0.19"/><circle cx="870.0" cy="871.9" r="15" fill="url(#g9008_gc)" opacity="0.30"/><circle cx="930.0" cy="871.9" r="15" fill="url(#g9008_gc)" opacity="0.25"/><circle cx="990.0" cy="871.9" r="15" fill="url(#g9008_ga)" opacity="0.30"/><circle cx="1050.0" cy="871.9" r="15" fill="url(#g9008_gc)" opacity="0.21"/><circle cx="30.0" cy="928.1" r="15" fill="url(#g9008_ga)" opacity="0.24"/><circle cx="90.0" cy="928.1" r="15" fill="url(#g9008_ga)" opacity="0.14"/><circle cx="330.0" cy="928.1" r="15" fill="url(#g9008_ga)" opacity="0.20"/><circle cx="390.0" cy="928.1" r="15" fill="url(#g9008_ga)" opacity="0.21"/><circle cx="450.0" cy="928.1" r="26" fill="url(#g9008_gc)" opacity="0.26"/><circle cx="510.0" cy="928.1" r="15" fill="url(#g9008_ga)" opacity="0.15"/><circle cx="630.0" cy="928.1" r="15" fill="url(#g9008_gc)" opacity="0.15"/><circle cx="690.0" cy="928.1" r="15" fill="url(#g9008_gc)" opacity="0.18"/><circle cx="810.0" cy="928.1" r="15" fill="url(#g9008_gc)" opacity="0.23"/><circle cx="870.0" cy="928.1" r="15" fill="url(#g9008_gc)" opacity="0.20"/><circle cx="930.0" cy="928.1" r="15" fill="url(#g9008_gc)" opacity="0.14"/><circle cx="990.0" cy="928.1" r="15" fill="url(#g9008_ga)" opacity="0.23"/><circle cx="1050.0" cy="928.1" r="15" fill="url(#g9008_gc)" opacity="0.22"/><circle cx="150.0" cy="984.4" r="15" fill="url(#g9008_gc)" opacity="0.22"/><circle cx="210.0" cy="984.4" r="15" fill="url(#g9008_ga)" opacity="0.30"/><circle cx="270.0" cy="984.4" r="15" fill="url(#g9008_gc)" opacity="0.25"/><circle cx="330.0" cy="984.4" r="15" fill="url(#g9008_ga)" opacity="0.18"/><circle cx="510.0" cy="984.4" r="15" fill="url(#g9008_gc)" opacity="0.13"/><circle cx="690.0" cy="984.4" r="15" fill="url(#g9008_ga)" opacity="0.28"/><circle cx="750.0" cy="984.4" r="26" fill="url(#g9008_gc)" opacity="0.37"/><circle cx="810.0" cy="984.4" r="15" fill="url(#g9008_gc)" opacity="0.13"/><circle cx="870.0" cy="984.4" r="15" fill="url(#g9008_ga)" opacity="0.30"/><circle cx="930.0" cy="984.4" r="15" fill="url(#g9008_gc)" opacity="0.20"/><circle cx="90.0" cy="1040.6" r="15" fill="url(#g9008_gc)" opacity="0.26"/><circle cx="150.0" cy="1040.6" r="15" fill="url(#g9008_ga)" opacity="0.24"/><circle cx="210.0" cy="1040.6" r="15" fill="url(#g9008_gc)" opacity="0.15"/><circle cx="330.0" cy="1040.6" r="26" fill="url(#g9008_gc)" opacity="0.41"/><circle cx="390.0" cy="1040.6" r="15" fill="url(#g9008_ga)" opacity="0.21"/><circle cx="450.0" cy="1040.6" r="15" fill="url(#g9008_gc)" opacity="0.24"/><circle cx="570.0" cy="1040.6" r="26" fill="url(#g9008_ga)" opacity="0.30"/><circle cx="690.0" cy="1040.6" r="15" fill="url(#g9008_gc)" opacity="0.13"/><circle cx="750.0" cy="1040.6" r="15" fill="url(#g9008_gc)" opacity="0.30"/><circle cx="870.0" cy="1040.6" r="15" fill="url(#g9008_ga)" opacity="0.27"/><circle cx="990.0" cy="1040.6" r="15" fill="url(#g9008_gc)" opacity="0.32"/><circle cx="1050.0" cy="1040.6" r="26" fill="url(#g9008_ga)" opacity="0.45"/><circle cx="30.0" cy="1096.9" r="26" fill="url(#g9008_gc)" opacity="0.40"/><circle cx="90.0" cy="1096.9" r="15" fill="url(#g9008_gc)" opacity="0.21"/><circle cx="210.0" cy="1096.9" r="15" fill="url(#g9008_gc)" opacity="0.26"/><circle cx="390.0" cy="1096.9" r="15" fill="url(#g9008_ga)" opacity="0.27"/><circle cx="690.0" cy="1096.9" r="15" fill="url(#g9008_gc)" opacity="0.29"/><circle cx="750.0" cy="1096.9" r="26" fill="url(#g9008_gc)" opacity="0.33"/><circle cx="810.0" cy="1096.9" r="15" fill="url(#g9008_ga)" opacity="0.15"/><circle cx="870.0" cy="1096.9" r="15" fill="url(#g9008_ga)" opacity="0.30"/><circle cx="930.0" cy="1096.9" r="15" fill="url(#g9008_gc)" opacity="0.29"/><circle cx="990.0" cy="1096.9" r="26" fill="url(#g9008_gc)" opacity="0.23"/><circle cx="1050.0" cy="1096.9" r="15" fill="url(#g9008_gc)" opacity="0.26"/><circle cx="30.0" cy="1153.1" r="15" fill="url(#g9008_gc)" opacity="0.15"/><circle cx="90.0" cy="1153.1" r="15" fill="url(#g9008_ga)" opacity="0.17"/><circle cx="210.0" cy="1153.1" r="15" fill="url(#g9008_ga)" opacity="0.25"/><circle cx="270.0" cy="1153.1" r="15" fill="url(#g9008_gc)" opacity="0.30"/><circle cx="450.0" cy="1153.1" r="15" fill="url(#g9008_gc)" opacity="0.20"/><circle cx="510.0" cy="1153.1" r="15" fill="url(#g9008_ga)" opacity="0.14"/><circle cx="750.0" cy="1153.1" r="15" fill="url(#g9008_gc)" opacity="0.24"/><circle cx="870.0" cy="1153.1" r="15" fill="url(#g9008_ga)" opacity="0.29"/><circle cx="990.0" cy="1153.1" r="26" fill="url(#g9008_ga)" opacity="0.46"/><circle cx="1050.0" cy="1153.1" r="15" fill="url(#g9008_ga)" opacity="0.32"/><circle cx="30.0" cy="1209.4" r="15" fill="url(#g9008_ga)" opacity="0.14"/><circle cx="90.0" cy="1209.4" r="15" fill="url(#g9008_gc)" opacity="0.26"/><circle cx="210.0" cy="1209.4" r="15" fill="url(#g9008_gc)" opacity="0.16"/><circle cx="270.0" cy="1209.4" r="15" fill="url(#g9008_ga)" opacity="0.31"/><circle cx="390.0" cy="1209.4" r="15" fill="url(#g9008_ga)" opacity="0.15"/><circle cx="450.0" cy="1209.4" r="15" fill="url(#g9008_ga)" opacity="0.21"/><circle cx="570.0" cy="1209.4" r="26" fill="url(#g9008_gc)" opacity="0.34"/><circle cx="630.0" cy="1209.4" r="15" fill="url(#g9008_gc)" opacity="0.26"/><circle cx="750.0" cy="1209.4" r="26" fill="url(#g9008_gc)" opacity="0.22"/><circle cx="810.0" cy="1209.4" r="26" fill="url(#g9008_ga)" opacity="0.37"/><circle cx="870.0" cy="1209.4" r="15" fill="url(#g9008_ga)" opacity="0.16"/><circle cx="930.0" cy="1209.4" r="15" fill="url(#g9008_ga)" opacity="0.21"/><circle cx="990.0" cy="1209.4" r="15" fill="url(#g9008_gc)" opacity="0.20"/><circle cx="30.0" cy="1265.6" r="15" fill="url(#g9008_ga)" opacity="0.26"/><circle cx="150.0" cy="1265.6" r="15" fill="url(#g9008_gc)" opacity="0.18"/><circle cx="270.0" cy="1265.6" r="15" fill="url(#g9008_ga)" opacity="0.15"/><circle cx="330.0" cy="1265.6" r="26" fill="url(#g9008_ga)" opacity="0.43"/><circle cx="450.0" cy="1265.6" r="26" fill="url(#g9008_ga)" opacity="0.29"/><circle cx="510.0" cy="1265.6" r="15" fill="url(#g9008_gc)" opacity="0.31"/><circle cx="570.0" cy="1265.6" r="15" fill="url(#g9008_gc)" opacity="0.18"/><circle cx="690.0" cy="1265.6" r="15" fill="url(#g9008_gc)" opacity="0.22"/><circle cx="810.0" cy="1265.6" r="15" fill="url(#g9008_gc)" opacity="0.30"/><circle cx="870.0" cy="1265.6" r="15" fill="url(#g9008_gc)" opacity="0.27"/><circle cx="930.0" cy="1265.6" r="15" fill="url(#g9008_gc)" opacity="0.31"/><circle cx="90.0" cy="1321.9" r="26" fill="url(#g9008_gc)" opacity="0.21"/><circle cx="270.0" cy="1321.9" r="15" fill="url(#g9008_ga)" opacity="0.16"/><circle cx="330.0" cy="1321.9" r="15" fill="url(#g9008_gc)" opacity="0.22"/><circle cx="450.0" cy="1321.9" r="15" fill="url(#g9008_gc)" opacity="0.14"/><circle cx="690.0" cy="1321.9" r="26" fill="url(#g9008_gc)" opacity="0.41"/><circle cx="810.0" cy="1321.9" r="15" fill="url(#g9008_ga)" opacity="0.22"/><circle cx="990.0" cy="1321.9" r="15" fill="url(#g9008_gc)" opacity="0.18"/></g><g><circle cx="30.0" cy="28.1" r="4" fill="#3BABFF" opacity="0.53"/><circle cx="270.0" cy="28.1" r="4" fill="#3BABFF" opacity="0.88"/><circle cx="390.0" cy="28.1" r="4" fill="#F7B041" opacity="0.73"/><circle cx="450.0" cy="28.1" r="4" fill="#F7B041" opacity="0.88"/><circle cx="510.0" cy="28.1" r="4" fill="#F7B041" opacity="0.79"/><circle cx="570.0" cy="28.1" r="4" fill="#3BABFF" opacity="0.86"/><circle cx="630.0" cy="28.1" r="5.5" fill="#F7B041" opacity="0.68"/><circle cx="750.0" cy="28.1" r="4" fill="#F7B041" opacity="0.64"/><circle cx="870.0" cy="28.1" r="4" fill="#3BABFF" opacity="0.44"/><circle cx="990.0" cy="28.1" r="4" fill="#F7B041" opacity="0.61"/><circle cx="1050.0" cy="28.1" r="4" fill="#F7B041" opacity="0.63"/><circle cx="30.0" cy="84.4" r="4" fill="#3BABFF" opacity="0.97"/><circle cx="150.0" cy="84.4" r="4" fill="#3BABFF" opacity="0.85"/><circle cx="270.0" cy="84.4" r="4" fill="#3BABFF" opacity="0.80"/><circle cx="330.0" cy="84.4" r="4" fill="#3BABFF" opacity="0.55"/><circle cx="390.0" cy="84.4" r="4" fill="#F7B041" opacity="0.44"/><circle cx="510.0" cy="84.4" r="4" fill="#3BABFF" opacity="0.91"/><circle cx="630.0" cy="84.4" r="4" fill="#3BABFF" opacity="0.58"/><circle cx="870.0" cy="84.4" r="5.5" fill="#F7B041" opacity="0.79"/><circle cx="930.0" cy="84.4" r="4" fill="#3BABFF" opacity="0.90"/><circle cx="990.0" cy="84.4" r="4" fill="#3BABFF" opacity="0.64"/><circle cx="1050.0" cy="84.4" r="4" fill="#3BABFF" opacity="0.90"/><circle cx="30.0" cy="140.6" r="4" fill="#F7B041" opacity="0.80"/><circle cx="90.0" cy="140.6" r="4" fill="#3BABFF" opacity="0.45"/><circle cx="150.0" cy="140.6" r="4" fill="#F7B041" opacity="0.57"/><circle cx="210.0" cy="140.6" r="4" fill="#3BABFF" opacity="0.93"/><circle cx="330.0" cy="140.6" r="4" fill="#F7B041" opacity="0.90"/><circle cx="450.0" cy="140.6" r="4" fill="#F7B041" opacity="0.92"/><circle cx="570.0" cy="140.6" r="4" fill="#3BABFF" opacity="0.43"/><circle cx="750.0" cy="140.6" r="4" fill="#F7B041" opacity="0.59"/><circle cx="870.0" cy="140.6" r="4" fill="#3BABFF" opacity="0.83"/><circle cx="30.0" cy="196.9" r="4" fill="#3BABFF" opacity="0.92"/><circle cx="210.0" cy="196.9" r="4" fill="#F7B041" opacity="0.43"/><circle cx="270.0" cy="196.9" r="4" fill="#3BABFF" opacity="0.67"/><circle cx="330.0" cy="196.9" r="4" fill="#3BABFF" opacity="0.77"/><circle cx="390.0" cy="196.9" r="4" fill="#F7B041" opacity="0.43"/><circle cx="450.0" cy="196.9" r="4" fill="#F7B041" opacity="0.92"/><circle cx="510.0" cy="196.9" r="4" fill="#3BABFF" opacity="0.87"/><circle cx="570.0" cy="196.9" r="4" fill="#3BABFF" opacity="0.93"/><circle cx="750.0" cy="196.9" r="4" fill="#F7B041" opacity="0.88"/><circle cx="810.0" cy="196.9" r="4" fill="#3BABFF" opacity="0.85"/><circle cx="870.0" cy="196.9" r="4" fill="#3BABFF" opacity="0.71"/><circle cx="990.0" cy="196.9" r="5.5" fill="#F7B041" opacity="0.56"/><circle cx="210.0" cy="253.1" r="4" fill="#3BABFF" opacity="0.76"/><circle cx="270.0" cy="253.1" r="4" fill="#F7B041" opacity="0.95"/><circle cx="330.0" cy="253.1" r="4" fill="#F7B041" opacity="0.58"/><circle cx="450.0" cy="253.1" r="4" fill="#F7B041" opacity="0.74"/><circle cx="510.0" cy="253.1" r="4" fill="#F7B041" opacity="0.43"/><circle cx="750.0" cy="253.1" r="4" fill="#3BABFF" opacity="0.78"/><circle cx="810.0" cy="253.1" r="4" fill="#F7B041" opacity="0.51"/><circle cx="930.0" cy="253.1" r="4" fill="#F7B041" opacity="0.74"/><circle cx="990.0" cy="253.1" r="4" fill="#3BABFF" opacity="0.85"/><circle cx="30.0" cy="309.4" r="4" fill="#F7B041" opacity="0.63"/><circle cx="90.0" cy="309.4" r="4" fill="#F7B041" opacity="0.44"/><circle cx="150.0" cy="309.4" r="4" fill="#F7B041" opacity="0.86"/><circle cx="210.0" cy="309.4" r="4" fill="#3BABFF" opacity="0.68"/><circle cx="330.0" cy="309.4" r="4" fill="#F7B041" opacity="0.63"/><circle cx="450.0" cy="309.4" r="4" fill="#F7B041" opacity="0.55"/><circle cx="510.0" cy="309.4" r="4" fill="#3BABFF" opacity="0.65"/><circle cx="630.0" cy="309.4" r="5.5" fill="#3BABFF" opacity="0.75"/><circle cx="870.0" cy="309.4" r="4" fill="#3BABFF" opacity="0.54"/><circle cx="930.0" cy="309.4" r="4" fill="#3BABFF" opacity="0.63"/><circle cx="150.0" cy="365.6" r="4" fill="#F7B041" opacity="0.74"/><circle cx="270.0" cy="365.6" r="4" fill="#F7B041" opacity="0.64"/><circle cx="450.0" cy="365.6" r="4" fill="#F7B041" opacity="0.81"/><circle cx="510.0" cy="365.6" r="4" fill="#3BABFF" opacity="0.73"/><circle cx="570.0" cy="365.6" r="4" fill="#3BABFF" opacity="0.96"/><circle cx="630.0" cy="365.6" r="4" fill="#3BABFF" opacity="0.48"/><circle cx="690.0" cy="365.6" r="4" fill="#3BABFF" opacity="0.47"/><circle cx="750.0" cy="365.6" r="4" fill="#F7B041" opacity="0.53"/><circle cx="870.0" cy="365.6" r="4" fill="#3BABFF" opacity="0.61"/><circle cx="990.0" cy="365.6" r="4" fill="#F7B041" opacity="0.54"/><circle cx="1050.0" cy="365.6" r="4" fill="#3BABFF" opacity="0.88"/><circle cx="150.0" cy="421.9" r="4" fill="#F7B041" opacity="0.77"/><circle cx="210.0" cy="421.9" r="4" fill="#3BABFF" opacity="0.65"/><circle cx="270.0" cy="421.9" r="4" fill="#F7B041" opacity="0.97"/><circle cx="330.0" cy="421.9" r="4" fill="#F7B041" opacity="0.89"/><circle cx="390.0" cy="421.9" r="4" fill="#3BABFF" opacity="0.59"/><circle cx="630.0" cy="421.9" r="4" fill="#F7B041" opacity="0.92"/><circle cx="810.0" cy="421.9" r="4" fill="#3BABFF" opacity="0.92"/><circle cx="870.0" cy="421.9" r="4" fill="#3BABFF" opacity="0.57"/><circle cx="930.0" cy="421.9" r="4" fill="#F7B041" opacity="0.96"/><circle cx="1050.0" cy="421.9" r="4" fill="#3BABFF" opacity="0.63"/><circle cx="90.0" cy="478.1" r="4" fill="#F7B041" opacity="0.60"/><circle cx="150.0" cy="478.1" r="4" fill="#F7B041" opacity="0.55"/><circle cx="210.0" cy="478.1" r="4" fill="#3BABFF" opacity="0.57"/><circle cx="570.0" cy="478.1" r="4" fill="#F7B041" opacity="0.94"/><circle cx="630.0" cy="478.1" r="4" fill="#3BABFF" opacity="0.46"/><circle cx="690.0" cy="478.1" r="4" fill="#F7B041" opacity="0.88"/><circle cx="750.0" cy="478.1" r="4" fill="#3BABFF" opacity="0.81"/><circle cx="810.0" cy="478.1" r="5.5" fill="#3BABFF" opacity="0.64"/><circle cx="990.0" cy="478.1" r="4" fill="#F7B041" opacity="0.79"/><circle cx="90.0" cy="534.4" r="4" fill="#3BABFF" opacity="0.65"/><circle cx="270.0" cy="534.4" r="4" fill="#F7B041" opacity="0.50"/><circle cx="450.0" cy="534.4" r="4" fill="#F7B041" opacity="0.90"/><circle cx="750.0" cy="534.4" r="5.5" fill="#3BABFF" opacity="0.74"/><circle cx="810.0" cy="534.4" r="4" fill="#3BABFF" opacity="0.55"/><circle cx="870.0" cy="534.4" r="4" fill="#F7B041" opacity="0.60"/><circle cx="930.0" cy="534.4" r="4" fill="#F7B041" opacity="0.69"/><circle cx="990.0" cy="534.4" r="4" fill="#F7B041" opacity="0.46"/><circle cx="1050.0" cy="534.4" r="5.5" fill="#3BABFF" opacity="0.60"/><circle cx="150.0" cy="590.6" r="5.5" fill="#3BABFF" opacity="0.48"/><circle cx="210.0" cy="590.6" r="4" fill="#3BABFF" opacity="0.45"/><circle cx="270.0" cy="590.6" r="4" fill="#F7B041" opacity="0.82"/><circle cx="330.0" cy="590.6" r="4" fill="#3BABFF" opacity="0.92"/><circle cx="630.0" cy="590.6" r="4" fill="#F7B041" opacity="0.55"/><circle cx="690.0" cy="590.6" r="4" fill="#3BABFF" opacity="0.87"/><circle cx="750.0" cy="590.6" r="4" fill="#3BABFF" opacity="0.85"/><circle cx="810.0" cy="590.6" r="4" fill="#3BABFF" opacity="0.42"/><circle cx="990.0" cy="590.6" r="4" fill="#3BABFF" opacity="0.76"/><circle cx="30.0" cy="646.9" r="4" fill="#3BABFF" opacity="0.53"/><circle cx="150.0" cy="646.9" r="4" fill="#F7B041" opacity="0.70"/><circle cx="390.0" cy="646.9" r="5.5" fill="#F7B041" opacity="0.61"/><circle cx="450.0" cy="646.9" r="4" fill="#F7B041" opacity="0.43"/><circle cx="510.0" cy="646.9" r="4" fill="#F7B041" opacity="0.86"/><circle cx="570.0" cy="646.9" r="4" fill="#F7B041" opacity="0.55"/><circle cx="630.0" cy="646.9" r="4" fill="#3BABFF" opacity="0.42"/><circle cx="690.0" cy="646.9" r="4" fill="#3BABFF" opacity="0.83"/><circle cx="810.0" cy="646.9" r="4" fill="#3BABFF" opacity="0.82"/><circle cx="870.0" cy="646.9" r="4" fill="#3BABFF" opacity="0.65"/><circle cx="990.0" cy="646.9" r="4" fill="#3BABFF" opacity="0.51"/><circle cx="1050.0" cy="646.9" r="4" fill="#3BABFF" opacity="0.95"/><circle cx="30.0" cy="703.1" r="4" fill="#3BABFF" opacity="0.84"/><circle cx="150.0" cy="703.1" r="4" fill="#3BABFF" opacity="0.94"/><circle cx="210.0" cy="703.1" r="4" fill="#F7B041" opacity="0.79"/><circle cx="330.0" cy="703.1" r="4" fill="#F7B041" opacity="0.66"/><circle cx="570.0" cy="703.1" r="4" fill="#3BABFF" opacity="0.87"/><circle cx="750.0" cy="703.1" r="4" fill="#F7B041" opacity="0.96"/><circle cx="870.0" cy="703.1" r="4" fill="#3BABFF" opacity="0.93"/><circle cx="930.0" cy="703.1" r="4" fill="#3BABFF" opacity="0.97"/><circle cx="990.0" cy="703.1" r="4" fill="#3BABFF" opacity="0.75"/><circle cx="30.0" cy="759.4" r="4" fill="#F7B041" opacity="0.59"/><circle cx="90.0" cy="759.4" r="4" fill="#3BABFF" opacity="0.43"/><circle cx="150.0" cy="759.4" r="4" fill="#3BABFF" opacity="0.88"/><circle cx="270.0" cy="759.4" r="4" fill="#F7B041" opacity="0.65"/><circle cx="450.0" cy="759.4" r="5.5" fill="#3BABFF" opacity="0.54"/><circle cx="510.0" cy="759.4" r="4" fill="#3BABFF" opacity="0.47"/><circle cx="630.0" cy="759.4" r="4" fill="#F7B041" opacity="0.73"/><circle cx="690.0" cy="759.4" r="4" fill="#3BABFF" opacity="0.83"/><circle cx="750.0" cy="759.4" r="4" fill="#3BABFF" opacity="0.57"/><circle cx="870.0" cy="759.4" r="4" fill="#3BABFF" opacity="0.54"/><circle cx="930.0" cy="759.4" r="4" fill="#F7B041" opacity="0.75"/><circle cx="990.0" cy="759.4" r="5.5" fill="#3BABFF" opacity="0.65"/><circle cx="1050.0" cy="759.4" r="4" fill="#F7B041" opacity="0.91"/><circle cx="30.0" cy="815.6" r="4" fill="#F7B041" opacity="0.92"/><circle cx="270.0" cy="815.6" r="4" fill="#F7B041" opacity="0.56"/><circle cx="330.0" cy="815.6" r="5.5" fill="#3BABFF" opacity="0.69"/><circle cx="450.0" cy="815.6" r="5.5" fill="#3BABFF" opacity="0.51"/><circle cx="570.0" cy="815.6" r="5.5" fill="#3BABFF" opacity="0.47"/><circle cx="630.0" cy="815.6" r="4" fill="#F7B041" opacity="0.78"/><circle cx="750.0" cy="815.6" r="4" fill="#3BABFF" opacity="0.42"/><circle cx="30.0" cy="871.9" r="4" fill="#F7B041" opacity="0.61"/><circle cx="90.0" cy="871.9" r="4" fill="#F7B041" opacity="0.41"/><circle cx="150.0" cy="871.9" r="4" fill="#3BABFF" opacity="0.57"/><circle cx="330.0" cy="871.9" r="5.5" fill="#3BABFF" opacity="0.64"/><circle cx="390.0" cy="871.9" r="4" fill="#3BABFF" opacity="0.42"/><circle cx="450.0" cy="871.9" r="5.5" fill="#F7B041" opacity="0.48"/><circle cx="510.0" cy="871.9" r="4" fill="#F7B041" opacity="0.44"/><circle cx="570.0" cy="871.9" r="4" fill="#3BABFF" opacity="0.54"/><circle cx="630.0" cy="871.9" r="4" fill="#F7B041" opacity="0.60"/><circle cx="870.0" cy="871.9" r="4" fill="#3BABFF" opacity="0.94"/><circle cx="930.0" cy="871.9" r="4" fill="#3BABFF" opacity="0.77"/><circle cx="990.0" cy="871.9" r="4" fill="#F7B041" opacity="0.94"/><circle cx="1050.0" cy="871.9" r="4" fill="#3BABFF" opacity="0.66"/><circle cx="30.0" cy="928.1" r="4" fill="#F7B041" opacity="0.74"/><circle cx="90.0" cy="928.1" r="4" fill="#F7B041" opacity="0.42"/><circle cx="330.0" cy="928.1" r="4" fill="#F7B041" opacity="0.61"/><circle cx="390.0" cy="928.1" r="4" fill="#F7B041" opacity="0.67"/><circle cx="450.0" cy="928.1" r="5.5" fill="#3BABFF" opacity="0.53"/><circle cx="510.0" cy="928.1" r="4" fill="#F7B041" opacity="0.47"/><circle cx="630.0" cy="928.1" r="4" fill="#3BABFF" opacity="0.46"/><circle cx="690.0" cy="928.1" r="4" fill="#3BABFF" opacity="0.57"/><circle cx="810.0" cy="928.1" r="4" fill="#3BABFF" opacity="0.73"/><circle cx="870.0" cy="928.1" r="4" fill="#3BABFF" opacity="0.64"/><circle cx="930.0" cy="928.1" r="4" fill="#3BABFF" opacity="0.45"/><circle cx="990.0" cy="928.1" r="4" fill="#F7B041" opacity="0.71"/><circle cx="1050.0" cy="928.1" r="4" fill="#3BABFF" opacity="0.68"/><circle cx="150.0" cy="984.4" r="4" fill="#3BABFF" opacity="0.67"/><circle cx="210.0" cy="984.4" r="4" fill="#F7B041" opacity="0.95"/><circle cx="270.0" cy="984.4" r="4" fill="#3BABFF" opacity="0.78"/><circle cx="330.0" cy="984.4" r="4" fill="#F7B041" opacity="0.57"/><circle cx="510.0" cy="984.4" r="4" fill="#3BABFF" opacity="0.40"/><circle cx="690.0" cy="984.4" r="4" fill="#F7B041" opacity="0.87"/><circle cx="750.0" cy="984.4" r="5.5" fill="#3BABFF" opacity="0.74"/><circle cx="810.0" cy="984.4" r="4" fill="#3BABFF" opacity="0.41"/><circle cx="870.0" cy="984.4" r="4" fill="#F7B041" opacity="0.94"/><circle cx="930.0" cy="984.4" r="4" fill="#3BABFF" opacity="0.61"/><circle cx="90.0" cy="1040.6" r="4" fill="#3BABFF" opacity="0.82"/><circle cx="150.0" cy="1040.6" r="4" fill="#F7B041" opacity="0.75"/><circle cx="210.0" cy="1040.6" r="4" fill="#3BABFF" opacity="0.46"/><circle cx="330.0" cy="1040.6" r="5.5" fill="#3BABFF" opacity="0.83"/><circle cx="390.0" cy="1040.6" r="4" fill="#F7B041" opacity="0.66"/><circle cx="450.0" cy="1040.6" r="4" fill="#3BABFF" opacity="0.75"/><circle cx="570.0" cy="1040.6" r="5.5" fill="#F7B041" opacity="0.60"/><circle cx="690.0" cy="1040.6" r="4" fill="#3BABFF" opacity="0.41"/><circle cx="750.0" cy="1040.6" r="4" fill="#3BABFF" opacity="0.92"/><circle cx="870.0" cy="1040.6" r="4" fill="#F7B041" opacity="0.83"/><circle cx="990.0" cy="1040.6" r="4" fill="#3BABFF" opacity="0.99"/><circle cx="1050.0" cy="1040.6" r="5.5" fill="#F7B041" opacity="0.89"/><circle cx="30.0" cy="1096.9" r="5.5" fill="#3BABFF" opacity="0.80"/><circle cx="90.0" cy="1096.9" r="4" fill="#3BABFF" opacity="0.66"/><circle cx="210.0" cy="1096.9" r="4" fill="#3BABFF" opacity="0.81"/><circle cx="390.0" cy="1096.9" r="4" fill="#F7B041" opacity="0.85"/><circle cx="690.0" cy="1096.9" r="4" fill="#3BABFF" opacity="0.92"/><circle cx="750.0" cy="1096.9" r="5.5" fill="#3BABFF" opacity="0.66"/><circle cx="810.0" cy="1096.9" r="4" fill="#F7B041" opacity="0.47"/><circle cx="870.0" cy="1096.9" r="4" fill="#F7B041" opacity="0.95"/><circle cx="930.0" cy="1096.9" r="4" fill="#3BABFF" opacity="0.91"/><circle cx="990.0" cy="1096.9" r="5.5" fill="#3BABFF" opacity="0.46"/><circle cx="1050.0" cy="1096.9" r="4" fill="#3BABFF" opacity="0.81"/><circle cx="30.0" cy="1153.1" r="4" fill="#3BABFF" opacity="0.46"/><circle cx="90.0" cy="1153.1" r="4" fill="#F7B041" opacity="0.52"/><circle cx="210.0" cy="1153.1" r="4" fill="#F7B041" opacity="0.77"/><circle cx="270.0" cy="1153.1" r="4" fill="#3BABFF" opacity="0.94"/><circle cx="450.0" cy="1153.1" r="4" fill="#3BABFF" opacity="0.64"/><circle cx="510.0" cy="1153.1" r="4" fill="#F7B041" opacity="0.45"/><circle cx="750.0" cy="1153.1" r="4" fill="#3BABFF" opacity="0.75"/><circle cx="870.0" cy="1153.1" r="4" fill="#F7B041" opacity="0.90"/><circle cx="990.0" cy="1153.1" r="5.5" fill="#F7B041" opacity="0.92"/><circle cx="1050.0" cy="1153.1" r="4" fill="#F7B041" opacity="0.99"/><circle cx="30.0" cy="1209.4" r="4" fill="#F7B041" opacity="0.45"/><circle cx="90.0" cy="1209.4" r="4" fill="#3BABFF" opacity="0.81"/><circle cx="210.0" cy="1209.4" r="4" fill="#3BABFF" opacity="0.50"/><circle cx="270.0" cy="1209.4" r="4" fill="#F7B041" opacity="0.98"/><circle cx="390.0" cy="1209.4" r="4" fill="#F7B041" opacity="0.48"/><circle cx="450.0" cy="1209.4" r="4" fill="#F7B041" opacity="0.67"/><circle cx="570.0" cy="1209.4" r="5.5" fill="#3BABFF" opacity="0.67"/><circle cx="630.0" cy="1209.4" r="4" fill="#3BABFF" opacity="0.81"/><circle cx="750.0" cy="1209.4" r="5.5" fill="#3BABFF" opacity="0.43"/><circle cx="810.0" cy="1209.4" r="5.5" fill="#F7B041" opacity="0.74"/><circle cx="870.0" cy="1209.4" r="4" fill="#F7B041" opacity="0.49"/><circle cx="930.0" cy="1209.4" r="4" fill="#F7B041" opacity="0.65"/><circle cx="990.0" cy="1209.4" r="4" fill="#3BABFF" opacity="0.64"/><circle cx="30.0" cy="1265.6" r="4" fill="#F7B041" opacity="0.80"/><circle cx="150.0" cy="1265.6" r="4" fill="#3BABFF" opacity="0.58"/><circle cx="270.0" cy="1265.6" r="4" fill="#F7B041" opacity="0.47"/><circle cx="330.0" cy="1265.6" r="5.5" fill="#F7B041" opacity="0.85"/><circle cx="450.0" cy="1265.6" r="5.5" fill="#F7B041" opacity="0.59"/><circle cx="510.0" cy="1265.6" r="4" fill="#3BABFF" opacity="0.96"/><circle cx="570.0" cy="1265.6" r="4" fill="#3BABFF" opacity="0.55"/><circle cx="690.0" cy="1265.6" r="4" fill="#3BABFF" opacity="0.69"/><circle cx="810.0" cy="1265.6" r="4" fill="#3BABFF" opacity="0.95"/><circle cx="870.0" cy="1265.6" r="4" fill="#3BABFF" opacity="0.85"/><circle cx="930.0" cy="1265.6" r="4" fill="#3BABFF" opacity="0.96"/><circle cx="90.0" cy="1321.9" r="5.5" fill="#3BABFF" opacity="0.42"/><circle cx="270.0" cy="1321.9" r="4" fill="#F7B041" opacity="0.50"/><circle cx="330.0" cy="1321.9" r="4" fill="#3BABFF" opacity="0.67"/><circle cx="450.0" cy="1321.9" r="4" fill="#3BABFF" opacity="0.43"/><circle cx="690.0" cy="1321.9" r="5.5" fill="#3BABFF" opacity="0.83"/><circle cx="810.0" cy="1321.9" r="4" fill="#F7B041" opacity="0.68"/><circle cx="990.0" cy="1321.9" r="4" fill="#3BABFF" opacity="0.56"/></g><rect width="1080" height="1350" fill="url(#g9008_vig)"/></svg>