<svg class="bgsvg" viewBox="0 0 1080 1350" preserveAspectRatio="xMidYMid slice" xmlns="http://www.w3.org/2000/svg"><rect width="1080" height="1350" fill="#0A0B10"/><defs><radialGradient id="g9005_g" cx="0" cy="0" r="1" gradientUnits="userSpaceOnUse" gradientTransform="translate(220 240) scale(760)"><stop offset="0" stop-color="#0A6AA6" stop-opacity="0.3"/><stop offset="0.6" stop-color="#0A6AA6" stop-opacity="0.07"/><stop offset="1" stop-color="#0A6AA6" stop-opacity="0"/></radialGradient><filter id="g9005_b" x="-60%" y="-60%" width="220%" height="220%"><feGaussianBlur stdDeviation="3.5"/></filter><radialGradient id="g9005_vig" cx="0" cy="0" r="1" gradientUnits="userSpaceOnUse" gradientTransform="translate(540 675) scale(760)"><stop offset="0" stop-color="#000000" stop-opacity="0"/><stop offset="0.68" stop-color="#000000" stop-opacity="0"/><stop offset="1" stop-color="#000000" stop-opacity="0.55"/></radialGradient></defs><rect width="1080" height="1350" fill="#0A0F1A"/><rect width="1080" height="1350" fill="url(#g9005_g)"/><g filter="url(#g9005_b)"><line x1="0" y1="70" x2="1080" y2="70" stroke="#0A6AA6" stroke-opacity="0.1" stroke-width="2.4"/><line x1="0" y1="116" x2="1080" y2="116" stroke="#0A6AA6" stroke-opacity="0.1" stroke-width="2.4"/><line x1="0" y1="162" x2="1080" y2="162" stroke="#0A6AA6" stroke-opacity="0.1" stroke-width="2.4"/><line x1="0" y1="208" x2="1080" y2="208" stroke="#0A6AA6" stroke-opacity="0.1" stroke-width="2.4"/><line x1="0" y1="254" x2="1080" y2="254" stroke="#0A6AA6" stroke-opacity="0.1" stroke-width="2.4"/><line x1="0" y1="300" x2="1080" y2="300" stroke="#0A6AA6" stroke-opacity="0.1" stroke-width="2.4"/><line x1="0" y1="346" x2="1080" y2="346" stroke="#0A6AA6" stroke-opacity="0.1" stroke-width="2.4"/><line x1="0" y1="392" x2="1080" y2="392" stroke="#0A6AA6" stroke-opacity="0.1" stroke-width="2.4"/><line x1="0" y1="438" x2="1080" y2="438" stroke="#0A6AA6" stroke-opacity="0.1" stroke-width="2.4"/><line x1="0" y1="484" x2="1080" y2="484" stroke="#0A6AA6" stroke-opacity="0.1" stroke-width="2.4"/><line x1="0" y1="530" x2="1080" y2="530" stroke="#0A6AA6" stroke-opacity="0.1" stroke-width="2.4"/><line x1="0" y1="576" x2="1080" y2="576" stroke="#0A6AA6" stroke-opacity="0.1" stroke-width="2.4"/><line x1="0" y1="622" x2="1080" y2="622" stroke="#0A6AA6" stroke-opacity="0.1" stroke-width="2.4"/><line x1="0" y1="668" x2="1080" y2="668" stroke="#0A6AA6" stroke-opacity="0.1" stroke-width="2.4"/><line x1="0" y1="714" x2="1080" y2="714" stroke="#0A6AA6" stroke-opacity="0.1" stroke-width="2.4"/><line x1="0" y1="760" x2="1080" y2="760" stroke="#0A6AA6" stroke-opacity="0.1" stroke-width="2.4"/><line x1="0" y1="806" x2="1080" y2="806" stroke="#0A6AA6" stroke-opacity="0.1" stroke-width="2.4"/><line x1="0" y1="852" x2="1080" y2="852" stroke="#0A6AA6" stroke-opacity="0.1" stroke-width="2.4"/><line x1="0" y1="898" x2="1080" y2="898" stroke="#0A6AA6" stroke-opacity="0.1" stroke-width="2.4"/><line x1="0" y1="944" x2="1080" y2="944" stroke="#0A6AA6" stroke-opacity="0.1" stroke-width="2.4"/><line x1="0" y1="990" x2="1080" y2="990" stroke="#0A6AA6" stroke-opacity="0.1" stroke-width="2.4"/><line x1="0" y1="1036" x2="1080" y2="1036" stroke="#0A6AA6" stroke-opacity="0.1" stroke-width="2.4"/><line x1="0" y1="1082" x2="1080" y2="1082" stroke="#0A6AA6" stroke-opacity="0.1" stroke-width="2.4"/><line x1="0" y1="1128" x2="1080" y2="1128" stroke="#0A6AA6" stroke-opacity="0.1" stroke-width="2.4"/><line x1="0" y1="1174" x2="1080" y2="1174" stroke="#0A6AA6" stroke-opacity="0.1" stroke-width="2.4"/><line x1="0" y1="1220" x2="1080" y2="1220" stroke="#0A6AA6" stroke-opacity="0.1" stroke-width="2.4"/><line x1="0" y1="1266" x2="1080" y2="1266" stroke="#0A6AA6" stroke-opacity="0.1" stroke-width="2.4"/><line x1="0" y1="1312" x2="1080" y2="1312" stroke="#0A6AA6" stroke-opacity="0.1" stroke-width="2.4"/></g><g><line x1="60" y1="0" x2="60" y2="1350" stroke="#0092FF" stroke-opacity="0.13" stroke-width="2"/><line x1="106" y1="0" x2="106" y2="1350" stroke="#0092FF" stroke-opacity="0.13" stroke-width="2"/><line x1="152" y1="0" x2="152" y2="1350" stroke="#0092FF" stroke-opacity="0.13" stroke-width="2"/><line x1="198" y1="0" x2="198" y2="1350" stroke="#0092FF" stroke-opacity="0.13" stroke-width="2"/><line x1="244" y1="0" x2="244" y2="1350" stroke="#0092FF" stroke-opacity="0.13" stroke-width="2"/><line x1="290" y1="0" x2="290" y2="1350" stroke="#0092FF" stroke-opacity="0.13" stroke-width="2"/><line x1="336" y1="0" x2="336" y2="1350" stroke="#0092FF" stroke-opacity="0.13" stroke-width="2"/><line x1="382" y1="0" x2="382" y2="1350" stroke="#0092FF" stroke-opacity="0.13" stroke-width="2"/><line x1="428" y1="0" x2="428" y2="1350" stroke="#0092FF" stroke-opacity="0.13" stroke-width="2"/><line x1="474" y1="0" x2="474" y2="1350" stroke="#0092FF" stroke-opacity="0.13" stroke-width="2"/><line x1="520" y1="0" x2="520" y2="1350" stroke="#0092FF" stroke-opacity="0.13" stroke-width="2"/><line x1="566" y1="0" x2="566" y2="1350" stroke="#0092FF" stroke-opacity="0.13" stroke-width="2"/><line x1="612" y1="0" x2="612" y2="1350" stroke="#0092FF" stroke-opacity="0.13" stroke-width="2"/><line x1="658" y1="0" x2="658" y2="1350" stroke="#0092FF" stroke-opacity="0.13" stroke-width="2"/><line x1="704" y1="0" x2="704" y2="1350" stroke="#0092FF" stroke-opacity="0.13" stroke-width="2"/><line x1="750" y1="0" x2="750" y2="1350" stroke="#0092FF" stroke-opacity="0.13" stroke-width="2"/><line x1="796" y1="0" x2="796" y2="1350" stroke="#0092FF" stroke-opacity="0.13" stroke-width="2"/><line x1="842" y1="0" x2="842" y2="1350" stroke="#0092FF" stroke-opacity="0.13" stroke-width="2"/><line x1="888" y1="0" x2="888" y2="1350" stroke="#0092FF" stroke-opacity="0.13" stroke-width="2"/><line x1="934" y1="0" x2="934" y2="1350" stroke="#0092FF" stroke-opacity="0.13" stroke-width="2"/><line x1="980" y1="0" x2="980" y2="1350" stroke="#0092FF" stroke-opacity="0.13" stroke-width="2"/><line x1="1026" y1="0" x2="1026" y2="1350" stroke="#0092FF" stroke-opacity="0.13" stroke-width="2"/><line x1="1072" y1="0" x2="1072" y2="1350" stroke="#0092FF" stroke-opacity="0.13" stroke-width="2"/></g><g><line x1="-800" y1="0" x2="550" y2="1350" stroke="#3BABFF" stroke-opacity="0.05" stroke-width="1.4"/><line x1="-720" y1="0" x2="630" y2="1350" stroke="#3BABFF" stroke-opacity="0.05" stroke-width="1.4"/><line x1="-640" y1="0" x2="710" y2="1350" stroke="#3BABFF" stroke-opacity="0.05" stroke-width="1.4"/><line x1="-560" y1="0" x2="790" y2="1350" stroke="#3BABFF" stroke-opacity="0.05" stroke-width="1.4"/><line x1="-480" y1="0" x2="870" y2="1350" stroke="#3BABFF" stroke-opacity="0.05" stroke-width="1.4"/><line x1="-400" y1="0" x2="950" y2="1350" stroke="#3BABFF" stroke-opacity="0.05" stroke-width="1.4"/><line x1="-320" y1="0" x2="1030" y2="1350" stroke="#3BABFF" stroke-opacity="0.05" stroke-width="1.4"/><line x1="-240" y1="0" x2="1110" y2="1350" stroke="#3BABFF" stroke-opacity="0.05" stroke-width="1.4"/><line x1="-160" y1="0" x2="1190" y2="1350" stroke="#3BABFF" stroke-opacity="0.05" stroke-width="1.4"/><line x1="-80" y1="0" x2="1270" y2="1350" stroke="#3BABFF" stroke-opacity="0.05" stroke-width="1.4"/><line x1="0" y1="0" x2="1350" y2="1350" stroke="#3BABFF" stroke-opacity="0.05" stroke-width="1.4"/><line x1="80" y1="0" x2="1430" y2="1350" stroke="#3BABFF" stroke-opacity="0.05" stroke-width="1.4"/><line x1="160" y1="0" x2="1510" y2="1350" stroke="#3BABFF" stroke-opacity="0.05" stroke-width="1.4"/><line x1="240" y1="0" x2="1590" y2="1350" stroke="#3BABFF" stroke-opacity="0.05" stroke-width="1.4"/><line x1="320" y1="0" x2="1670" y2="1350" stroke="#3BABFF" stroke-opacity="0.05" stroke-width="1.4"/><line x1="400" y1="0" x2="1750" y2="1350" stroke="#3BABFF" stroke-opacity="0.05" stroke-width="1.4"/><line x1="480" y1="0" x2="1830" y2="1350" stroke="#3BABFF" stroke-opacity="0.05" stroke-width="1.4"/><line x1="560" y1="0" x2="1910" y2="1350" stroke="#3BABFF" stroke-opacity="0.05" stroke-width="1.4"/><line x1="640" y1="0" x2="1990" y2="1350" stroke="#3BABFF" stroke-opacity="0.05" stroke-width="1.4"/><line x1="720" y1="0" x2="2070" y2="1350" stroke="#3BABFF" stroke-opacity="0.05" stroke-width="1.4"/><line x1="800" y1="0" x2="2150" y2="1350" stroke="#3BABFF" stroke-opacity="0.05" stroke-width="1.4"/><line x1="880" y1="0" x2="2230" y2="1350" stroke="#3BABFF" stroke-opacity="0.05" stroke-width="1.4"/><line x1="960" y1="0" x2="2310" y2="1350" stroke="#3BABFF" stroke-opacity="0.05" stroke-width="1.4"/><line x1="1040" y1="0" x2="2390" y2="1350" stroke="#3BABFF" stroke-opacity="0.05" stroke-width="1.4"/><line x1="1120" y1="0" x2="2470" y2="1350" stroke="#3BABFF" stroke-opacity="0.05" stroke-width="1.4"/><line x1="1200" y1="0" x2="2550" y2="1350" stroke="#3BABFF" stroke-opacity="0.05" stroke-width="1.4"/><line x1="1280" y1="0" x2="2630" y2="1350" stroke="#3BABFF" stroke-opacity="0.05" stroke-width="1.4"/><line x1="1360" y1="0" x2="2710" y2="1350" stroke="#3BABFF" stroke-opacity="0.05" stroke-width="1.4"/><line x1="1440" y1="0" x2="2790" y2="1350" stroke="#3BABFF" stroke-opacity="0.05" stroke-width="1.4"/><line x1="1520" y1="0" x2="2870" y2="1350" stroke="#3BABFF" stroke-opacity="0.05" stroke-width="1.4"/><line x1="1600" y1="0" x2="2950" y2="1350" stroke="#3BABFF" stroke-opacity="0.05" stroke-width="1.4"/><line x1="1680" y1="0" x2="3030" y2="1350" stroke="#3BABFF" stroke-opacity="0.05" stroke-width="1.4"/><line x1="1760" y1="0" x2="3110" y2="1350" stroke="#3BABFF" stroke-opacity="0.05" stroke-width="1.4"/><line x1="1840" y1="0" x2="3190" y2="1350" stroke="#3BABFF" stroke-opacity="0.05" stroke-width="1.4"/><line x1="1920" y1="0" x2="3270" y2="1350" stroke="#3BABFF" stroke-opacity="0.05" stroke-width="1.4"/><line x1="2000" y1="0" x2="3350" y2="1350" stroke="#3BABFF" stroke-opacity="0.05" stroke-width="1.4"/></g><g><rect x="194.5" y="66.5" width="7" height="7" fill="#3BABFF" fill-opacity="0.8"/><rect x="516.5" y="66.5" width="7" height="7" fill="#3BABFF" fill-opacity="0.8"/><rect x="838.5" y="112.5" width="7" height="7" fill="#3BABFF" fill-opacity="0.8"/><rect x="1022.5" y="112.5" width="7" height="7" fill="#3BABFF" fill-opacity="0.8"/><rect x="56.5" y="158.5" width="7" height="7" fill="#3BABFF" fill-opacity="0.8"/><rect x="148.5" y="158.5" width="7" height="7" fill="#3BABFF" fill-opacity="0.8"/><rect x="654.5" y="158.5" width="7" height="7" fill="#3BABFF" fill-opacity="0.8"/><rect x="746.5" y="158.5" width="7" height="7" fill="#3BABFF" fill-opacity="0.8"/><rect x="930.5" y="158.5" width="7" height="7" fill="#3BABFF" fill-opacity="0.8"/><rect x="148.5" y="204.5" width="7" height="7" fill="#3BABFF" fill-opacity="0.8"/><rect x="424.5" y="204.5" width="7" height="7" fill="#3BABFF" fill-opacity="0.8"/><rect x="102.5" y="250.5" width="7" height="7" fill="#3BABFF" fill-opacity="0.8"/><rect x="332.5" y="250.5" width="7" height="7" fill="#3BABFF" fill-opacity="0.8"/><rect x="378.5" y="250.5" width="7" height="7" fill="#3BABFF" fill-opacity="0.8"/><rect x="654.5" y="250.5" width="7" height="7" fill="#3BABFF" fill-opacity="0.8"/><rect x="700.5" y="250.5" width="7" height="7" fill="#3BABFF" fill-opacity="0.8"/><rect x="976.5" y="250.5" width="7" height="7" fill="#3BABFF" fill-opacity="0.8"/><rect x="148.5" y="296.5" width="7" height="7" fill="#3BABFF" fill-opacity="0.8"/><rect x="240.5" y="296.5" width="7" height="7" fill="#3BABFF" fill-opacity="0.8"/><rect x="470.5" y="296.5" width="7" height="7" fill="#3BABFF" fill-opacity="0.8"/><rect x="516.5" y="296.5" width="7" height="7" fill="#3BABFF" fill-opacity="0.8"/><rect x="654.5" y="296.5" width="7" height="7" fill="#3BABFF" fill-opacity="0.8"/><rect x="838.5" y="296.5" width="7" height="7" fill="#3BABFF" fill-opacity="0.8"/><rect x="884.5" y="296.5" width="7" height="7" fill="#3BABFF" fill-opacity="0.8"/><rect x="56.5" y="342.5" width="7" height="7" fill="#3BABFF" fill-opacity="0.8"/><rect x="240.5" y="342.5" width="7" height="7" fill="#3BABFF" fill-opacity="0.8"/><rect x="516.5" y="342.5" width="7" height="7" fill="#3BABFF" fill-opacity="0.8"/><rect x="976.5" y="342.5" width="7" height="7" fill="#3BABFF" fill-opacity="0.8"/><rect x="470.5" y="388.5" width="7" height="7" fill="#3BABFF" fill-opacity="0.8"/><rect x="516.5" y="388.5" width="7" height="7" fill="#3BABFF" fill-opacity="0.8"/><rect x="562.5" y="388.5" width="7" height="7" fill="#3BABFF" fill-opacity="0.8"/><rect x="746.5" y="388.5" width="7" height="7" fill="#3BABFF" fill-opacity="0.8"/><rect x="838.5" y="388.5" width="7" height="7" fill="#3BABFF" fill-opacity="0.8"/><rect x="976.5" y="388.5" width="7" height="7" fill="#3BABFF" fill-opacity="0.8"/><rect x="930.5" y="434.5" width="7" height="7" fill="#3BABFF" fill-opacity="0.8"/><rect x="194.5" y="480.5" width="7" height="7" fill="#3BABFF" fill-opacity="0.8"/><rect x="332.5" y="480.5" width="7" height="7" fill="#3BABFF" fill-opacity="0.8"/><rect x="516.5" y="480.5" width="7" height="7" fill="#3BABFF" fill-opacity="0.8"/><rect x="562.5" y="480.5" width="7" height="7" fill="#3BABFF" fill-opacity="0.8"/><rect x="608.5" y="480.5" width="7" height="7" fill="#3BABFF" fill-opacity="0.8"/><rect x="148.5" y="526.5" width="7" height="7" fill="#3BABFF" fill-opacity="0.8"/><rect x="608.5" y="526.5" width="7" height="7" fill="#3BABFF" fill-opacity="0.8"/><rect x="1068.5" y="526.5" width="7" height="7" fill="#3BABFF" fill-opacity="0.8"/><rect x="56.5" y="572.5" width="7" height="7" fill="#3BABFF" fill-opacity="0.8"/><rect x="102.5" y="572.5" width="7" height="7" fill="#3BABFF" fill-opacity="0.8"/><rect x="332.5" y="572.5" width="7" height="7" fill="#3BABFF" fill-opacity="0.8"/><rect x="608.5" y="572.5" width="7" height="7" fill="#3BABFF" fill-opacity="0.8"/><rect x="378.5" y="618.5" width="7" height="7" fill="#3BABFF" fill-opacity="0.8"/><rect x="470.5" y="618.5" width="7" height="7" fill="#3BABFF" fill-opacity="0.8"/><rect x="746.5" y="618.5" width="7" height="7" fill="#3BABFF" fill-opacity="0.8"/><rect x="976.5" y="618.5" width="7" height="7" fill="#3BABFF" fill-opacity="0.8"/><rect x="562.5" y="664.5" width="7" height="7" fill="#3BABFF" fill-opacity="0.8"/><rect x="838.5" y="664.5" width="7" height="7" fill="#3BABFF" fill-opacity="0.8"/><rect x="286.5" y="710.5" width="7" height="7" fill="#3BABFF" fill-opacity="0.8"/><rect x="746.5" y="710.5" width="7" height="7" fill="#3BABFF" fill-opacity="0.8"/><rect x="930.5" y="710.5" width="7" height="7" fill="#3BABFF" fill-opacity="0.8"/><rect x="1068.5" y="710.5" width="7" height="7" fill="#3BABFF" fill-opacity="0.8"/><rect x="56.5" y="756.5" width="7" height="7" fill="#3BABFF" fill-opacity="0.8"/><rect x="148.5" y="756.5" width="7" height="7" fill="#3BABFF" fill-opacity="0.8"/><rect x="838.5" y="756.5" width="7" height="7" fill="#3BABFF" fill-opacity="0.8"/><rect x="930.5" y="756.5" width="7" height="7" fill="#3BABFF" fill-opacity="0.8"/><rect x="194.5" y="802.5" width="7" height="7" fill="#3BABFF" fill-opacity="0.8"/><rect x="286.5" y="802.5" width="7" height="7" fill="#3BABFF" fill-opacity="0.8"/><rect x="792.5" y="802.5" width="7" height="7" fill="#3BABFF" fill-opacity="0.8"/><rect x="930.5" y="802.5" width="7" height="7" fill="#3BABFF" fill-opacity="0.8"/><rect x="976.5" y="802.5" width="7" height="7" fill="#3BABFF" fill-opacity="0.8"/><rect x="240.5" y="848.5" width="7" height="7" fill="#3BABFF" fill-opacity="0.8"/><rect x="194.5" y="894.5" width="7" height="7" fill="#3BABFF" fill-opacity="0.8"/><rect x="240.5" y="894.5" width="7" height="7" fill="#3BABFF" fill-opacity="0.8"/><rect x="378.5" y="894.5" width="7" height="7" fill="#3BABFF" fill-opacity="0.8"/><rect x="470.5" y="894.5" width="7" height="7" fill="#3BABFF" fill-opacity="0.8"/><rect x="930.5" y="894.5" width="7" height="7" fill="#3BABFF" fill-opacity="0.8"/><rect x="516.5" y="940.5" width="7" height="7" fill="#3BABFF" fill-opacity="0.8"/><rect x="194.5" y="986.5" width="7" height="7" fill="#3BABFF" fill-opacity="0.8"/><rect x="286.5" y="986.5" width="7" height="7" fill="#3BABFF" fill-opacity="0.8"/><rect x="470.5" y="986.5" width="7" height="7" fill="#3BABFF" fill-opacity="0.8"/><rect x="746.5" y="986.5" width="7" height="7" fill="#3BABFF" fill-opacity="0.8"/><rect x="930.5" y="986.5" width="7" height="7" fill="#3BABFF" fill-opacity="0.8"/><rect x="1068.5" y="986.5" width="7" height="7" fill="#3BABFF" fill-opacity="0.8"/><rect x="56.5" y="1032.5" width="7" height="7" fill="#3BABFF" fill-opacity="0.8"/><rect x="516.5" y="1032.5" width="7" height="7" fill="#3BABFF" fill-opacity="0.8"/><rect x="700.5" y="1032.5" width="7" height="7" fill="#3BABFF" fill-opacity="0.8"/><rect x="746.5" y="1032.5" width="7" height="7" fill="#3BABFF" fill-opacity="0.8"/><rect x="562.5" y="1078.5" width="7" height="7" fill="#3BABFF" fill-opacity="0.8"/><rect x="884.5" y="1078.5" width="7" height="7" fill="#3BABFF" fill-opacity="0.8"/><rect x="102.5" y="1124.5" width="7" height="7" fill="#3BABFF" fill-opacity="0.8"/><rect x="194.5" y="1124.5" width="7" height="7" fill="#3BABFF" fill-opacity="0.8"/><rect x="424.5" y="1124.5" width="7" height="7" fill="#3BABFF" fill-opacity="0.8"/><rect x="700.5" y="1124.5" width="7" height="7" fill="#3BABFF" fill-opacity="0.8"/><rect x="838.5" y="1124.5" width="7" height="7" fill="#3BABFF" fill-opacity="0.8"/><rect x="102.5" y="1170.5" width="7" height="7" fill="#3BABFF" fill-opacity="0.8"/><rect x="286.5" y="1170.5" width="7" height="7" fill="#3BABFF" fill-opacity="0.8"/><rect x="424.5" y="1170.5" width="7" height="7" fill="#3BABFF" fill-opacity="0.8"/><rect x="976.5" y="1170.5" width="7" height="7" fill="#3BABFF" fill-opacity="0.8"/><rect x="1022.5" y="1170.5" width="7" height="7" fill="#3BABFF" fill-opacity="0.8"/><rect x="332.5" y="1216.5" width="7" height="7" fill="#3BABFF" fill-opacity="0.8"/><rect x="378.5" y="1216.5" width="7" height="7" fill="#3BABFF" fill-opacity="0.8"/><rect x="884.5" y="1216.5" width="7" height="7" fill="#3BABFF" fill-opacity="0.8"/><rect x="1022.5" y="1216.5" width="7" height="7" fill="#3BABFF" fill-opacity="0.8"/><rect x="332.5" y="1262.5" width="7" height="7" fill="#3BABFF" fill-opacity="0.8"/><rect x="838.5" y="1262.5" width="7" height="7" fill="#3BABFF" fill-opacity="0.8"/><rect x="470.5" y="1308.5" width="7" height="7" fill="#3BABFF" fill-opacity="0.8"/><rect x="608.5" y="1308.5" width="7" height="7" fill="#3BABFF" fill-opacity="0.8"/><rect x="700.5" y="1308.5" width="7" height="7" fill="#3BABFF" fill-opacity="0.8"/></g><rect width="1080" height="1350" fill="url(#g9005_vig)"/></svg>