<svg class="bgsvg" viewBox="0 0 1080 1350" preserveAspectRatio="xMidYMid slice" xmlns="http://www.w3.org/2000/svg"><rect width="1080" height="1350" fill="#0A0B10"/><defs><radialGradient id="g9006_a" cx="0" cy="0" r="1" gradientUnits="userSpaceOnUse" gradientTransform="translate(120 160) scale(720)"><stop offset="0" stop-color="#F7B041" stop-opacity="0.5"/><stop offset="0.5" stop-color="#F7B041" stop-opacity="0.12"/><stop offset="1" stop-color="#F7B041" stop-opacity="0"/></radialGradient><radialGradient id="g9006_c" cx="0" cy="0" r="1" gradientUnits="userSpaceOnUse" gradientTransform="translate(980 1200) scale(720)"><stop offset="0" stop-color="#0092FF" stop-opacity="0.5"/><stop offset="0.5" stop-color="#0092FF" stop-opacity="0.12"/><stop offset="1" stop-color="#0092FF" stop-opacity="0"/></radialGradient><filter id="g9006_b" x="-60%" y="-60%" width="220%" height="220%"><feGaussianBlur stdDeviation="16"/></filter><radialGradient id="g9006_vig" cx="0" cy="0" r="1" gradientUnits="userSpaceOnUse" gradientTransform="translate(540 675) scale(760)"><stop offset="0" stop-color="#000000" stop-opacity="0"/><stop offset="0.68" stop-color="#000000" stop-opacity="0"/><stop offset="1" stop-color="#000000" stop-opacity="0.55"/></radialGradient></defs><rect width="1080" height="1350" fill="#0A0B10"/><rect width="1080" height="1350" fill="url(#g9006_a)"/><rect width="1080" height="1350" fill="url(#g9006_c)"/><g filter="url(#g9006_b)"><path d="M-40 120 L1120 980 L1120 1010 L-40 150 Z" fill="#F7B041" opacity="0.1"/><path d="M-40 156 L1120 1020 L1120 1050 L-40 186 Z" fill="#F6C25A" opacity="0.1"/><path d="M-40 192 L1120 1060 L1120 1090 L-40 222 Z" fill="#E8E8E8" opacity="0.1"/><path d="M-40 228 L1120 1100 L1120 1130 L-40 258 Z" fill="#7FC4F0" opacity="0.1"/><path d="M-40 264 L1120 1140 L1120 1170 L-40 294 Z" fill="#0092FF" opacity="0.1"/></g><line x1="0" y1="1350" x2="1080" y2="0" stroke="#ffffff" stroke-opacity="0.12" stroke-width="1.5"/><rect width="1080" height="1350" fill="url(#g9006_vig)"/></svg>