<svg class="bgsvg" viewBox="0 0 1080 1350" preserveAspectRatio="xMidYMid slice" xmlns="http://www.w3.org/2000/svg"><rect width="1080" height="1350" fill="#0A0B10"/><defs><filter id="g9007_ca" x="0" y="0" width="100%" height="100%"><feTurbulence type="fractalNoise" baseFrequency="0.011" numOctaves="4" seed="7" stitchTiles="stitch" result="n"/><feColorMatrix in="n" type="matrix" values="0 0 0 0 0 0 0 0 0 0 0 0 0 0 0 1 0 0 0 -0.32" result="a"/><feFlood flood-color="#F7B041" result="c"/><feComposite in="c" in2="a" operator="in"/></filter><filter id="g9007_cc" x="0" y="0" width="100%" height="100%"><feTurbulence type="fractalNoise" baseFrequency="0.009" numOctaves="4" seed="19" stitchTiles="stitch" result="n"/><feColorMatrix in="n" type="matrix" values="0 0 0 0 0 0 0 0 0 0 0 0 0 0 0 1 0 0 0 -0.3" result="a"/><feFlood flood-color="#0092FF" result="c"/><feComposite in="c" in2="a" operator="in"/></filter><radialGradient id="g9007_star" cx="0" cy="0" r="1" gradientUnits="userSpaceOnUse" gradientTransform="translate(0 0) scale(1)"><stop offset="0" stop-color="#ffffff" stop-opacity="1"/><stop offset="1" stop-color="#ffffff" stop-opacity="0"/></radialGradient><radialGradient id="g9007_haze" cx="0" cy="0" r="1" gradientUnits="userSpaceOnUse" gradientTransform="translate(320 380) scale(820)"><stop offset="0" stop-color="#0A6AA6" stop-opacity="0.18"/><stop offset="0.6" stop-color="#0A6AA6" stop-opacity="0.04"/><stop offset="1" stop-color="#0A6AA6" stop-opacity="0"/></radialGradient><linearGradient id="g9007_fadeg" x1="0" y1="0" x2="1080" y2="1350" gradientUnits="userSpaceOnUse"><stop offset="0" stop-color="#fff" stop-opacity="1"/><stop offset="0.5" stop-color="#fff" stop-opacity="0.45"/><stop offset="0.85" stop-color="#000" stop-opacity="0"/></linearGradient><mask id="g9007_fade"><rect width="1080" height="1350" fill="url(#g9007_fadeg)"/></mask><radialGradient id="g9007_vig" cx="0" cy="0" r="1" gradientUnits="userSpaceOnUse" gradientTransform="translate(540 675) scale(760)"><stop offset="0" stop-color="#000000" stop-opacity="0"/><stop offset="0.68" stop-color="#000000" stop-opacity="0"/><stop offset="1" stop-color="#000000" stop-opacity="0.62"/></radialGradient></defs><rect width="1080" height="1350" fill="#070A12"/><rect width="1080" height="1350" fill="url(#g9007_haze)"/><g mask="url(#g9007_fade)"><g filter="url(#g9007_cc)" opacity="0.32"><rect width="1080" height="1350"/></g><g filter="url(#g9007_ca)" opacity="0.2"><rect width="1080" height="1350"/></g></g><g opacity="0.8"><circle cx="762.2" cy="285.6" r="1.7" fill="#fff" opacity="0.73"/><circle cx="821.5" cy="23.5" r="0.5" fill="#fff" opacity="0.30"/><circle cx="289.5" cy="570.9" r="0.5" fill="#fff" opacity="0.34"/><circle cx="745.5" cy="975.2" r="0.6" fill="#fff" opacity="0.36"/><circle cx="322.3" cy="999.6" r="0.9" fill="#fff" opacity="0.51"/><circle cx="331.9" cy="1343.2" r="0.8" fill="#fff" opacity="0.47"/><circle cx="155.4" cy="22.8" r="0.8" fill="#fff" opacity="0.47"/><circle cx="876.9" cy="509.0" r="0.5" fill="#fff" opacity="0.28"/><circle cx="90.9" cy="332.6" r="1.7" fill="#fff" opacity="0.72"/><circle cx="333.2" cy="906.6" r="0.6" fill="#fff" opacity="0.41"/><circle cx="909.9" cy="1246.2" r="0.6" fill="#fff" opacity="0.39"/><circle cx="755.1" cy="424.2" r="0.9" fill="#fff" opacity="0.54"/><circle cx="354.2" cy="1331.4" r="1.5" fill="#fff" opacity="0.68"/><circle cx="787.5" cy="1198.4" r="0.5" fill="#fff" opacity="0.30"/><circle cx="44.5" cy="1000.1" r="1.7" fill="#fff" opacity="0.72"/><circle cx="155.8" cy="720.1" r="0.6" fill="#fff" opacity="0.35"/><circle cx="548.2" cy="586.8" r="1.2" fill="#fff" opacity="0.62"/><circle cx="791.3" cy="726.0" r="0.6" fill="#fff" opacity="0.38"/><circle cx="744.7" cy="169.5" r="0.6" fill="#fff" opacity="0.36"/><circle cx="672.5" cy="1297.3" r="1.7" fill="#fff" opacity="0.73"/><circle cx="409.1" cy="1076.7" r="0.7" fill="#fff" opacity="0.45"/><circle cx="477.4" cy="297.7" r="0.5" fill="#fff" opacity="0.27"/><circle cx="839.1" cy="227.2" r="1.5" fill="#fff" opacity="0.69"/><circle cx="265.8" cy="402.4" r="0.5" fill="#fff" opacity="0.28"/><circle cx="132.1" cy="233.1" r="0.9" fill="#fff" opacity="0.53"/><circle cx="224.1" cy="987.8" r="1.3" fill="#fff" opacity="0.63"/><circle cx="928.6" cy="332.3" r="0.8" fill="#fff" opacity="0.48"/><circle cx="549.7" cy="954.0" r="1.2" fill="#fff" opacity="0.61"/><circle cx="215.5" cy="171.2" r="0.5" fill="#fff" opacity="0.28"/><circle cx="147.0" cy="841.8" r="1.4" fill="#fff" opacity="0.65"/><circle cx="386.4" cy="98.2" r="0.9" fill="#fff" opacity="0.54"/><circle cx="386.8" cy="538.4" r="1.7" fill="#fff" opacity="0.73"/><circle cx="830.3" cy="203.8" r="0.5" fill="#fff" opacity="0.33"/><circle cx="618.3" cy="647.3" r="0.8" fill="#fff" opacity="0.50"/><circle cx="915.0" cy="597.2" r="1.6" fill="#fff" opacity="0.71"/><circle cx="8.3" cy="1176.6" r="1.3" fill="#fff" opacity="0.63"/><circle cx="365.4" cy="7.7" r="0.5" fill="#fff" opacity="0.34"/><circle cx="400.7" cy="1257.3" r="1.5" fill="#fff" opacity="0.68"/><circle cx="1069.6" cy="902.9" r="0.5" fill="#fff" opacity="0.31"/><circle cx="846.7" cy="189.4" r="0.5" fill="#fff" opacity="0.29"/><circle cx="793.6" cy="666.8" r="1.1" fill="#fff" opacity="0.59"/><circle cx="641.3" cy="1007.3" r="1.4" fill="#fff" opacity="0.65"/><circle cx="129.7" cy="519.0" r="0.8" fill="#fff" opacity="0.48"/><circle cx="128.7" cy="1025.7" r="1.7" fill="#fff" opacity="0.72"/><circle cx="15.4" cy="1115.6" r="0.8" fill="#fff" opacity="0.47"/><circle cx="936.2" cy="927.8" r="0.5" fill="#fff" opacity="0.27"/><circle cx="383.0" cy="28.2" r="1.6" fill="#fff" opacity="0.71"/><circle cx="450.9" cy="634.9" r="0.7" fill="#fff" opacity="0.42"/><circle cx="301.9" cy="662.4" r="0.8" fill="#fff" opacity="0.50"/><circle cx="238.7" cy="1317.8" r="0.5" fill="#fff" opacity="0.30"/><circle cx="61.3" cy="954.1" r="1.1" fill="#fff" opacity="0.60"/><circle cx="766.7" cy="1208.2" r="0.5" fill="#fff" opacity="0.26"/><circle cx="147.3" cy="211.7" r="1.2" fill="#fff" opacity="0.61"/><circle cx="290.1" cy="1001.0" r="0.6" fill="#fff" opacity="0.40"/><circle cx="396.7" cy="787.0" r="1.7" fill="#fff" opacity="0.72"/><circle cx="439.4" cy="1265.6" r="1.2" fill="#fff" opacity="0.62"/><circle cx="971.2" cy="152.9" r="0.8" fill="#fff" opacity="0.50"/><circle cx="463.0" cy="745.6" r="0.6" fill="#fff" opacity="0.38"/><circle cx="316.5" cy="377.6" r="0.8" fill="#fff" opacity="0.48"/><circle cx="1028.4" cy="256.8" r="0.7" fill="#fff" opacity="0.43"/><circle cx="466.2" cy="253.8" r="0.9" fill="#fff" opacity="0.53"/><circle cx="485.2" cy="997.5" r="1.0" fill="#fff" opacity="0.55"/><circle cx="418.5" cy="269.8" r="0.7" fill="#fff" opacity="0.45"/><circle cx="454.5" cy="398.4" r="0.8" fill="#fff" opacity="0.49"/><circle cx="172.3" cy="22.0" r="1.6" fill="#fff" opacity="0.71"/><circle cx="1040.8" cy="1084.2" r="0.7" fill="#fff" opacity="0.45"/><circle cx="829.8" cy="97.2" r="0.5" fill="#fff" opacity="0.33"/><circle cx="344.6" cy="972.9" r="0.7" fill="#fff" opacity="0.44"/><circle cx="233.3" cy="1088.0" r="1.4" fill="#fff" opacity="0.66"/><circle cx="271.4" cy="1217.7" r="1.3" fill="#fff" opacity="0.64"/><circle cx="413.0" cy="544.0" r="1.1" fill="#fff" opacity="0.58"/><circle cx="920.7" cy="813.5" r="0.8" fill="#fff" opacity="0.48"/><circle cx="992.1" cy="1268.4" r="1.6" fill="#fff" opacity="0.71"/><circle cx="886.6" cy="722.6" r="1.0" fill="#fff" opacity="0.56"/><circle cx="463.6" cy="494.1" r="0.6" fill="#fff" opacity="0.39"/><circle cx="952.3" cy="22.1" r="0.7" fill="#fff" opacity="0.44"/><circle cx="480.2" cy="1334.3" r="1.1" fill="#fff" opacity="0.58"/><circle cx="953.7" cy="710.7" r="0.5" fill="#fff" opacity="0.30"/><circle cx="371.5" cy="525.3" r="0.7" fill="#fff" opacity="0.42"/><circle cx="902.6" cy="321.3" r="0.6" fill="#fff" opacity="0.38"/><circle cx="862.6" cy="683.5" r="1.6" fill="#fff" opacity="0.70"/></g><g><line x1="574.2" y1="190.6" x2="598.5" y2="266.0" stroke="#9fd4ff" stroke-opacity="0.22" stroke-width="1"/><line x1="560.4" y1="41.0" x2="633.8" y2="65.4" stroke="#9fd4ff" stroke-opacity="0.22" stroke-width="1"/><line x1="350.5" y1="821.4" x2="368.5" y2="821.1" stroke="#9fd4ff" stroke-opacity="0.22" stroke-width="1"/><line x1="839.4" y1="591.4" x2="827.1" y2="516.7" stroke="#9fd4ff" stroke-opacity="0.22" stroke-width="1"/><line x1="455.8" y1="505.7" x2="497.9" y2="374.8" stroke="#9fd4ff" stroke-opacity="0.22" stroke-width="1"/><line x1="497.9" y1="374.8" x2="455.8" y2="505.7" stroke="#9fd4ff" stroke-opacity="0.22" stroke-width="1"/><line x1="633.8" y1="65.4" x2="560.4" y2="41.0" stroke="#9fd4ff" stroke-opacity="0.22" stroke-width="1"/><line x1="1065.1" y1="122.4" x2="900.1" y2="225.3" stroke="#9fd4ff" stroke-opacity="0.22" stroke-width="1"/><line x1="622.1" y1="1170.3" x2="857.6" y2="1095.8" stroke="#9fd4ff" stroke-opacity="0.22" stroke-width="1"/><line x1="836.5" y1="515.1" x2="827.1" y2="516.7" stroke="#9fd4ff" stroke-opacity="0.22" stroke-width="1"/><line x1="827.1" y1="516.7" x2="836.5" y2="515.1" stroke="#9fd4ff" stroke-opacity="0.22" stroke-width="1"/><line x1="598.5" y1="266.0" x2="574.2" y2="190.6" stroke="#9fd4ff" stroke-opacity="0.22" stroke-width="1"/><line x1="994.8" y1="599.9" x2="839.4" y2="591.4" stroke="#9fd4ff" stroke-opacity="0.22" stroke-width="1"/><line x1="656.7" y1="418.4" x2="598.5" y2="266.0" stroke="#9fd4ff" stroke-opacity="0.22" stroke-width="1"/><line x1="833.6" y1="136.9" x2="900.1" y2="225.3" stroke="#9fd4ff" stroke-opacity="0.22" stroke-width="1"/><line x1="368.5" y1="821.1" x2="350.5" y2="821.4" stroke="#9fd4ff" stroke-opacity="0.22" stroke-width="1"/><line x1="900.1" y1="225.3" x2="833.6" y2="136.9" stroke="#9fd4ff" stroke-opacity="0.22" stroke-width="1"/><line x1="857.6" y1="1095.8" x2="622.1" y2="1170.3" stroke="#9fd4ff" stroke-opacity="0.22" stroke-width="1"/><line x1="723.5" y1="613.1" x2="839.4" y2="591.4" stroke="#9fd4ff" stroke-opacity="0.22" stroke-width="1"/><line x1="297.5" y1="828.6" x2="350.5" y2="821.4" stroke="#9fd4ff" stroke-opacity="0.22" stroke-width="1"/><line x1="560.1" y1="800.0" x2="368.5" y2="821.1" stroke="#9fd4ff" stroke-opacity="0.22" stroke-width="1"/></g><g><circle cx="574.2" cy="190.6" r="11.8" fill="url(#g9007_star)" opacity="0.5"/><circle cx="574.2" cy="190.6" r="2.4" fill="#fff" opacity="0.84"/><circle cx="226.1" cy="961.5" r="9.4" fill="url(#g9007_star)" opacity="0.5"/><circle cx="226.1" cy="961.5" r="1.9" fill="#fff" opacity="0.76"/><circle cx="615.2" cy="658.9" r="9.6" fill="url(#g9007_star)" opacity="0.5"/><circle cx="615.2" cy="658.9" r="1.9" fill="#fff" opacity="0.77"/><circle cx="455.9" cy="446.4" r="9.5" fill="url(#g9007_star)" opacity="0.5"/><circle cx="455.9" cy="446.4" r="1.9" fill="#fff" opacity="0.76"/><circle cx="560.4" cy="41.0" r="13.2" fill="url(#g9007_star)" opacity="0.5"/><circle cx="560.4" cy="41.0" r="2.6" fill="#fff" opacity="0.88"/><circle cx="350.5" cy="821.4" r="15.4" fill="url(#g9007_star)" opacity="0.5"/><circle cx="350.5" cy="821.4" r="3.1" fill="#fff" opacity="0.95"/><circle cx="839.4" cy="591.4" r="12.9" fill="url(#g9007_star)" opacity="0.5"/><circle cx="839.4" cy="591.4" r="2.6" fill="#fff" opacity="0.88"/><circle cx="290.1" cy="44.9" r="10.7" fill="url(#g9007_star)" opacity="0.5"/><circle cx="290.1" cy="44.9" r="2.1" fill="#fff" opacity="0.81"/><circle cx="375.2" cy="907.9" r="11.0" fill="url(#g9007_star)" opacity="0.5"/><circle cx="375.2" cy="907.9" r="2.2" fill="#fff" opacity="0.82"/><circle cx="19.3" cy="1115.9" r="11.0" fill="url(#g9007_star)" opacity="0.5"/><circle cx="19.3" cy="1115.9" r="2.2" fill="#fff" opacity="0.81"/><circle cx="260.4" cy="1206.9" r="9.2" fill="url(#g9007_star)" opacity="0.5"/><circle cx="260.4" cy="1206.9" r="1.8" fill="#fff" opacity="0.75"/><circle cx="455.8" cy="505.7" r="12.9" fill="url(#g9007_star)" opacity="0.5"/><circle cx="455.8" cy="505.7" r="2.6" fill="#fff" opacity="0.88"/><circle cx="478.4" cy="655.2" r="11.7" fill="url(#g9007_star)" opacity="0.5"/><circle cx="478.4" cy="655.2" r="2.3" fill="#fff" opacity="0.84"/><circle cx="497.9" cy="374.8" r="15.2" fill="url(#g9007_star)" opacity="0.5"/><circle cx="497.9" cy="374.8" r="3.0" fill="#fff" opacity="0.94"/><circle cx="901.5" cy="701.0" r="9.2" fill="url(#g9007_star)" opacity="0.5"/><circle cx="901.5" cy="701.0" r="1.8" fill="#fff" opacity="0.75"/><circle cx="402.2" cy="708.4" r="10.8" fill="url(#g9007_star)" opacity="0.5"/><circle cx="402.2" cy="708.4" r="2.2" fill="#fff" opacity="0.81"/><circle cx="633.8" cy="65.4" r="12.2" fill="url(#g9007_star)" opacity="0.5"/><circle cx="633.8" cy="65.4" r="2.4" fill="#fff" opacity="0.85"/><circle cx="1065.1" cy="122.4" r="15.1" fill="url(#g9007_star)" opacity="0.5"/><circle cx="1065.1" cy="122.4" r="3.0" fill="#fff" opacity="0.94"/><circle cx="986.4" cy="454.8" r="11.2" fill="url(#g9007_star)" opacity="0.5"/><circle cx="986.4" cy="454.8" r="2.2" fill="#fff" opacity="0.82"/><circle cx="622.1" cy="1170.3" r="14.5" fill="url(#g9007_star)" opacity="0.5"/><circle cx="622.1" cy="1170.3" r="2.9" fill="#fff" opacity="0.92"/><circle cx="836.5" cy="515.1" r="14.7" fill="url(#g9007_star)" opacity="0.5"/><circle cx="836.5" cy="515.1" r="2.9" fill="#fff" opacity="0.93"/><circle cx="170.6" cy="88.2" r="11.0" fill="url(#g9007_star)" opacity="0.5"/><circle cx="170.6" cy="88.2" r="2.2" fill="#fff" opacity="0.82"/><circle cx="827.1" cy="516.7" r="11.9" fill="url(#g9007_star)" opacity="0.5"/><circle cx="827.1" cy="516.7" r="2.4" fill="#fff" opacity="0.85"/><circle cx="598.5" cy="266.0" r="12.2" fill="url(#g9007_star)" opacity="0.5"/><circle cx="598.5" cy="266.0" r="2.4" fill="#fff" opacity="0.86"/><circle cx="994.8" cy="599.9" r="12.7" fill="url(#g9007_star)" opacity="0.5"/><circle cx="994.8" cy="599.9" r="2.5" fill="#fff" opacity="0.87"/><circle cx="474.9" cy="847.8" r="9.2" fill="url(#g9007_star)" opacity="0.5"/><circle cx="474.9" cy="847.8" r="1.8" fill="#fff" opacity="0.75"/><circle cx="656.7" cy="418.4" r="14.1" fill="url(#g9007_star)" opacity="0.5"/><circle cx="656.7" cy="418.4" r="2.8" fill="#fff" opacity="0.91"/><circle cx="833.6" cy="136.9" r="12.9" fill="url(#g9007_star)" opacity="0.5"/><circle cx="833.6" cy="136.9" r="2.6" fill="#fff" opacity="0.88"/><circle cx="177.6" cy="528.4" r="9.0" fill="url(#g9007_star)" opacity="0.5"/><circle cx="177.6" cy="528.4" r="1.8" fill="#fff" opacity="0.74"/><circle cx="597.2" cy="233.9" r="11.0" fill="url(#g9007_star)" opacity="0.5"/><circle cx="597.2" cy="233.9" r="2.2" fill="#fff" opacity="0.81"/><circle cx="368.5" cy="821.1" r="13.9" fill="url(#g9007_star)" opacity="0.5"/><circle cx="368.5" cy="821.1" r="2.8" fill="#fff" opacity="0.91"/><circle cx="900.1" cy="225.3" r="15.5" fill="url(#g9007_star)" opacity="0.5"/><circle cx="900.1" cy="225.3" r="3.1" fill="#fff" opacity="0.95"/><circle cx="857.6" cy="1095.8" r="12.2" fill="url(#g9007_star)" opacity="0.5"/><circle cx="857.6" cy="1095.8" r="2.4" fill="#fff" opacity="0.86"/><circle cx="723.5" cy="613.1" r="14.6" fill="url(#g9007_star)" opacity="0.5"/><circle cx="723.5" cy="613.1" r="2.9" fill="#fff" opacity="0.93"/><circle cx="143.2" cy="612.6" r="11.0" fill="url(#g9007_star)" opacity="0.5"/><circle cx="143.2" cy="612.6" r="2.2" fill="#fff" opacity="0.82"/><circle cx="297.5" cy="828.6" r="13.6" fill="url(#g9007_star)" opacity="0.5"/><circle cx="297.5" cy="828.6" r="2.7" fill="#fff" opacity="0.90"/><circle cx="406.2" cy="1213.4" r="9.7" fill="url(#g9007_star)" opacity="0.5"/><circle cx="406.2" cy="1213.4" r="1.9" fill="#fff" opacity="0.77"/><circle cx="560.1" cy="800.0" r="15.3" fill="url(#g9007_star)" opacity="0.5"/><circle cx="560.1" cy="800.0" r="3.1" fill="#fff" opacity="0.94"/><circle cx="943.0" cy="178.7" r="9.1" fill="url(#g9007_star)" opacity="0.5"/><circle cx="943.0" cy="178.7" r="1.8" fill="#fff" opacity="0.75"/></g><rect width="1080" height="1350" fill="url(#g9007_vig)"/></svg>