<svg class="bgsvg" viewBox="0 0 1080 1350" preserveAspectRatio="xMidYMid slice" xmlns="http://www.w3.org/2000/svg"><rect width="1080" height="1350" fill="#0A0B10"/><defs><radialGradient id="g9003_tl" cx="0" cy="0" r="1" gradientUnits="userSpaceOnUse" gradientTransform="translate(160 180) scale(800)"><stop offset="0" stop-color="#F7B041" stop-opacity="0.36"/><stop offset="0.55" stop-color="#F7B041" stop-opacity="0.08"/><stop offset="1" stop-color="#F7B041" stop-opacity="0"/></radialGradient><radialGradient id="g9003_vig" cx="0" cy="0" r="1" gradientUnits="userSpaceOnUse" gradientTransform="translate(540 675) scale(760)"><stop offset="0" stop-color="#000000" stop-opacity="0"/><stop offset="0.68" stop-color="#000000" stop-opacity="0"/><stop offset="1" stop-color="#000000" stop-opacity="0.55"/></radialGradient></defs><rect width="1080" height="1350" fill="#0A0B10"/><rect width="1080" height="1350" fill="url(#g9003_tl)"/><g><rect x="-12.0" y="-18.0" width="41" height="76.0" fill="#F7B041" fill-opacity="0.080" stroke="#F7B041" stroke-opacity="0.14" stroke-width="0.8"/><rect x="38.5" y="-18.0" width="55" height="76.0" fill="#F7B041" fill-opacity="0.103" stroke="#F7B041" stroke-opacity="0.14" stroke-width="0.8"/><rect x="101.4" y="-18.0" width="46" height="76.0" fill="#F7B041" fill-opacity="0.043" stroke="#F7B041" stroke-opacity="0.14" stroke-width="0.8"/><rect x="156.0" y="-18.0" width="65" height="76.0" fill="#F7B041" fill-opacity="0.076" stroke="#F7B041" stroke-opacity="0.14" stroke-width="0.8"/><rect x="225.6" y="-18.0" width="33" height="76.0" fill="#F7B041" fill-opacity="0.063" stroke="#F7B041" stroke-opacity="0.14" stroke-width="0.8"/><rect x="265.1" y="-18.0" width="67" height="76.0" fill="#F7B041" fill-opacity="0.081" stroke="#F7B041" stroke-opacity="0.14" stroke-width="0.8"/><rect x="339.6" y="-18.0" width="18" height="76.0" fill="#F7B041" fill-opacity="0.105" stroke="#F7B041" stroke-opacity="0.14" stroke-width="0.8"/><rect x="367.0" y="-18.0" width="73" height="76.0" fill="#F7B041" fill-opacity="0.060" stroke="#F7B041" stroke-opacity="0.14" stroke-width="0.8"/><rect x="445.0" y="-18.0" width="44" height="76.0" fill="#F7B041" fill-opacity="0.050" stroke="#F7B041" stroke-opacity="0.14" stroke-width="0.8"/><rect x="497.6" y="-18.0" width="48" height="76.0" fill="#F7B041" fill-opacity="0.087" stroke="#F7B041" stroke-opacity="0.14" stroke-width="0.8"/><rect x="553.4" y="-18.0" width="62" height="76.0" fill="#F7B041" fill-opacity="0.089" stroke="#F7B041" stroke-opacity="0.14" stroke-width="0.8"/><rect x="623.5" y="-18.0" width="39" height="76.0" fill="#F7B041" fill-opacity="0.077" stroke="#F7B041" stroke-opacity="0.14" stroke-width="0.8"/><rect x="669.7" y="-18.0" width="57" height="76.0" fill="#F7B041" fill-opacity="0.125" stroke="#F7B041" stroke-opacity="0.14" stroke-width="0.8"/><rect x="732.3" y="-18.0" width="63" height="76.0" fill="#F7B041" fill-opacity="0.085" stroke="#F7B041" stroke-opacity="0.14" stroke-width="0.8"/><rect x="800.2" y="-18.0" width="58" height="76.0" fill="#F7B041" fill-opacity="0.046" stroke="#F7B041" stroke-opacity="0.14" stroke-width="0.8"/><rect x="866.2" y="-18.0" width="66" height="76.0" fill="#F7B041" fill-opacity="0.056" stroke="#F7B041" stroke-opacity="0.14" stroke-width="0.8"/><rect x="939.1" y="-18.0" width="55" height="76.0" fill="#F7B041" fill-opacity="0.115" stroke="#F7B041" stroke-opacity="0.14" stroke-width="0.8"/><rect x="1001.5" y="-18.0" width="49" height="76.0" fill="#F7B041" fill-opacity="0.061" stroke="#F7B041" stroke-opacity="0.14" stroke-width="0.8"/><rect x="1056.2" y="-18.0" width="36" height="76.0" fill="#F7B041" fill-opacity="0.071" stroke="#F7B041" stroke-opacity="0.14" stroke-width="0.8"/><rect x="-12.0" y="82.0" width="51" height="76.0" fill="#F7B041" fill-opacity="0.051" stroke="#F7B041" stroke-opacity="0.14" stroke-width="0.8"/><rect x="45.8" y="82.0" width="51" height="76.0" fill="#F7B041" fill-opacity="0.127" stroke="#F7B041" stroke-opacity="0.14" stroke-width="0.8"/><rect x="104.2" y="82.0" width="30" height="76.0" fill="#F7B041" fill-opacity="0.059" stroke="#F7B041" stroke-opacity="0.14" stroke-width="0.8"/><rect x="141.8" y="82.0" width="70" height="76.0" fill="#F7B041" fill-opacity="0.104" stroke="#F7B041" stroke-opacity="0.14" stroke-width="0.8"/><rect x="218.5" y="82.0" width="26" height="76.0" fill="#F7B041" fill-opacity="0.127" stroke="#F7B041" stroke-opacity="0.14" stroke-width="0.8"/><rect x="250.7" y="82.0" width="57" height="76.0" fill="#F7B041" fill-opacity="0.092" stroke="#F7B041" stroke-opacity="0.14" stroke-width="0.8"/><rect x="312.2" y="82.0" width="55" height="76.0" fill="#F7B041" fill-opacity="0.112" stroke="#F7B041" stroke-opacity="0.14" stroke-width="0.8"/><rect x="376.7" y="82.0" width="23" height="76.0" fill="#F7B041" fill-opacity="0.108" stroke="#F7B041" stroke-opacity="0.14" stroke-width="0.8"/><rect x="406.2" y="82.0" width="42" height="76.0" fill="#F7B041" fill-opacity="0.087" stroke="#F7B041" stroke-opacity="0.14" stroke-width="0.8"/><rect x="453.7" y="82.0" width="47" height="76.0" fill="#F7B041" fill-opacity="0.078" stroke="#F7B041" stroke-opacity="0.14" stroke-width="0.8"/><rect x="509.9" y="82.0" width="30" height="76.0" fill="#F7B041" fill-opacity="0.101" stroke="#F7B041" stroke-opacity="0.14" stroke-width="0.8"/><rect x="545.6" y="82.0" width="20" height="76.0" fill="#F7B041" fill-opacity="0.121" stroke="#F7B041" stroke-opacity="0.14" stroke-width="0.8"/><rect x="573.7" y="82.0" width="18" height="76.0" fill="#F7B041" fill-opacity="0.080" stroke="#F7B041" stroke-opacity="0.14" stroke-width="0.8"/><rect x="600.0" y="82.0" width="73" height="76.0" fill="#F7B041" fill-opacity="0.110" stroke="#F7B041" stroke-opacity="0.14" stroke-width="0.8"/><rect x="677.9" y="82.0" width="51" height="76.0" fill="#F7B041" fill-opacity="0.106" stroke="#F7B041" stroke-opacity="0.14" stroke-width="0.8"/><rect x="736.7" y="82.0" width="49" height="76.0" fill="#F7B041" fill-opacity="0.126" stroke="#F7B041" stroke-opacity="0.14" stroke-width="0.8"/><rect x="791.7" y="82.0" width="25" height="76.0" fill="#F7B041" fill-opacity="0.129" stroke="#F7B041" stroke-opacity="0.14" stroke-width="0.8"/><rect x="823.1" y="82.0" width="34" height="76.0" fill="#F7B041" fill-opacity="0.057" stroke="#F7B041" stroke-opacity="0.14" stroke-width="0.8"/><rect x="866.9" y="82.0" width="31" height="76.0" fill="#F7B041" fill-opacity="0.042" stroke="#F7B041" stroke-opacity="0.14" stroke-width="0.8"/><rect x="905.3" y="82.0" width="24" height="76.0" fill="#F7B041" fill-opacity="0.096" stroke="#F7B041" stroke-opacity="0.14" stroke-width="0.8"/><rect x="934.1" y="82.0" width="32" height="76.0" fill="#F7B041" fill-opacity="0.104" stroke="#F7B041" stroke-opacity="0.14" stroke-width="0.8"/><rect x="970.2" y="82.0" width="26" height="76.0" fill="#F7B041" fill-opacity="0.059" stroke="#F7B041" stroke-opacity="0.14" stroke-width="0.8"/><rect x="1001.8" y="82.0" width="54" height="76.0" fill="#F7B041" fill-opacity="0.100" stroke="#F7B041" stroke-opacity="0.14" stroke-width="0.8"/><rect x="1064.7" y="82.0" width="76" height="76.0" fill="#F7B041" fill-opacity="0.115" stroke="#F7B041" stroke-opacity="0.14" stroke-width="0.8"/><rect x="-12.0" y="182.0" width="22" height="76.0" fill="#F7B041" fill-opacity="0.123" stroke="#F7B041" stroke-opacity="0.14" stroke-width="0.8"/><rect x="15.3" y="182.0" width="51" height="76.0" fill="#F7B041" fill-opacity="0.049" stroke="#F7B041" stroke-opacity="0.14" stroke-width="0.8"/><rect x="75.9" y="182.0" width="44" height="76.0" fill="#F7B041" fill-opacity="0.116" stroke="#F7B041" stroke-opacity="0.14" stroke-width="0.8"/><rect x="129.7" y="182.0" width="64" height="76.0" fill="#F7B041" fill-opacity="0.078" stroke="#F7B041" stroke-opacity="0.14" stroke-width="0.8"/><rect x="199.8" y="182.0" width="72" height="76.0" fill="#F7B041" fill-opacity="0.068" stroke="#F7B041" stroke-opacity="0.14" stroke-width="0.8"/><rect x="277.0" y="182.0" width="57" height="76.0" fill="#F7B041" fill-opacity="0.129" stroke="#F7B041" stroke-opacity="0.14" stroke-width="0.8"/><rect x="341.8" y="182.0" width="75" height="76.0" fill="#F7B041" fill-opacity="0.056" stroke="#F7B041" stroke-opacity="0.14" stroke-width="0.8"/><rect x="421.8" y="182.0" width="44" height="76.0" fill="#F7B041" fill-opacity="0.075" stroke="#F7B041" stroke-opacity="0.14" stroke-width="0.8"/><rect x="474.4" y="182.0" width="30" height="76.0" fill="#F7B041" fill-opacity="0.048" stroke="#F7B041" stroke-opacity="0.14" stroke-width="0.8"/><rect x="511.3" y="182.0" width="28" height="76.0" fill="#F7B041" fill-opacity="0.057" stroke="#F7B041" stroke-opacity="0.14" stroke-width="0.8"/><rect x="545.1" y="182.0" width="73" height="76.0" fill="#F7B041" fill-opacity="0.046" stroke="#F7B041" stroke-opacity="0.14" stroke-width="0.8"/><rect x="626.6" y="182.0" width="65" height="76.0" fill="#F7B041" fill-opacity="0.120" stroke="#F7B041" stroke-opacity="0.14" stroke-width="0.8"/><rect x="695.7" y="182.0" width="19" height="76.0" fill="#F7B041" fill-opacity="0.072" stroke="#F7B041" stroke-opacity="0.14" stroke-width="0.8"/><rect x="722.7" y="182.0" width="27" height="76.0" fill="#F7B041" fill-opacity="0.089" stroke="#F7B041" stroke-opacity="0.14" stroke-width="0.8"/><rect x="755.0" y="182.0" width="21" height="76.0" fill="#F7B041" fill-opacity="0.045" stroke="#F7B041" stroke-opacity="0.14" stroke-width="0.8"/><rect x="782.2" y="182.0" width="18" height="76.0" fill="#F7B041" fill-opacity="0.102" stroke="#F7B041" stroke-opacity="0.14" stroke-width="0.8"/><rect x="807.4" y="182.0" width="58" height="76.0" fill="#F7B041" fill-opacity="0.120" stroke="#F7B041" stroke-opacity="0.14" stroke-width="0.8"/><rect x="869.6" y="182.0" width="72" height="76.0" fill="#F7B041" fill-opacity="0.128" stroke="#F7B041" stroke-opacity="0.14" stroke-width="0.8"/><rect x="951.4" y="182.0" width="51" height="76.0" fill="#F7B041" fill-opacity="0.041" stroke="#F7B041" stroke-opacity="0.14" stroke-width="0.8"/><rect x="1012.2" y="182.0" width="46" height="76.0" fill="#F7B041" fill-opacity="0.097" stroke="#F7B041" stroke-opacity="0.14" stroke-width="0.8"/><rect x="1063.3" y="182.0" width="58" height="76.0" fill="#F7B041" fill-opacity="0.070" stroke="#F7B041" stroke-opacity="0.14" stroke-width="0.8"/><rect x="-12.0" y="282.0" width="20" height="76.0" fill="#F7B041" fill-opacity="0.106" stroke="#F7B041" stroke-opacity="0.14" stroke-width="0.8"/><rect x="14.6" y="282.0" width="59" height="76.0" fill="#F7B041" fill-opacity="0.111" stroke="#F7B041" stroke-opacity="0.14" stroke-width="0.8"/><rect x="79.2" y="282.0" width="59" height="76.0" fill="#F7B041" fill-opacity="0.081" stroke="#F7B041" stroke-opacity="0.14" stroke-width="0.8"/><rect x="147.0" y="282.0" width="69" height="76.0" fill="#F7B041" fill-opacity="0.074" stroke="#F7B041" stroke-opacity="0.14" stroke-width="0.8"/><rect x="224.1" y="282.0" width="73" height="76.0" fill="#F7B041" fill-opacity="0.117" stroke="#F7B041" stroke-opacity="0.14" stroke-width="0.8"/><rect x="306.4" y="282.0" width="63" height="76.0" fill="#F7B041" fill-opacity="0.113" stroke="#F7B041" stroke-opacity="0.14" stroke-width="0.8"/><rect x="375.2" y="282.0" width="22" height="76.0" fill="#F7B041" fill-opacity="0.121" stroke="#F7B041" stroke-opacity="0.14" stroke-width="0.8"/><rect x="402.3" y="282.0" width="40" height="76.0" fill="#F7B041" fill-opacity="0.113" stroke="#F7B041" stroke-opacity="0.14" stroke-width="0.8"/><rect x="451.0" y="282.0" width="37" height="76.0" fill="#F7B041" fill-opacity="0.040" stroke="#F7B041" stroke-opacity="0.14" stroke-width="0.8"/><rect x="497.7" y="282.0" width="67" height="76.0" fill="#F7B041" fill-opacity="0.076" stroke="#F7B041" stroke-opacity="0.14" stroke-width="0.8"/><rect x="572.5" y="282.0" width="18" height="76.0" fill="#F7B041" fill-opacity="0.050" stroke="#F7B041" stroke-opacity="0.14" stroke-width="0.8"/><rect x="598.9" y="282.0" width="56" height="76.0" fill="#F7B041" fill-opacity="0.048" stroke="#F7B041" stroke-opacity="0.14" stroke-width="0.8"/><rect x="664.5" y="282.0" width="57" height="76.0" fill="#F7B041" fill-opacity="0.086" stroke="#F7B041" stroke-opacity="0.14" stroke-width="0.8"/><rect x="728.3" y="282.0" width="19" height="76.0" fill="#F7B041" fill-opacity="0.056" stroke="#F7B041" stroke-opacity="0.14" stroke-width="0.8"/><rect x="753.4" y="282.0" width="35" height="76.0" fill="#F7B041" fill-opacity="0.097" stroke="#F7B041" stroke-opacity="0.14" stroke-width="0.8"/><rect x="794.5" y="282.0" width="64" height="76.0" fill="#F7B041" fill-opacity="0.129" stroke="#F7B041" stroke-opacity="0.14" stroke-width="0.8"/><rect x="864.7" y="282.0" width="28" height="76.0" fill="#F7B041" fill-opacity="0.088" stroke="#F7B041" stroke-opacity="0.14" stroke-width="0.8"/><rect x="902.0" y="282.0" width="41" height="76.0" fill="#F7B041" fill-opacity="0.092" stroke="#F7B041" stroke-opacity="0.14" stroke-width="0.8"/><rect x="949.6" y="282.0" width="72" height="76.0" fill="#F7B041" fill-opacity="0.083" stroke="#F7B041" stroke-opacity="0.14" stroke-width="0.8"/><rect x="1030.6" y="282.0" width="77" height="76.0" fill="#F7B041" fill-opacity="0.101" stroke="#F7B041" stroke-opacity="0.14" stroke-width="0.8"/><rect x="-12.0" y="382.0" width="38" height="76.0" fill="#F7B041" fill-opacity="0.075" stroke="#F7B041" stroke-opacity="0.14" stroke-width="0.8"/><rect x="30.9" y="382.0" width="41" height="76.0" fill="#F7B041" fill-opacity="0.077" stroke="#F7B041" stroke-opacity="0.14" stroke-width="0.8"/><rect x="78.3" y="382.0" width="72" height="76.0" fill="#F7B041" fill-opacity="0.059" stroke="#F7B041" stroke-opacity="0.14" stroke-width="0.8"/><rect x="158.4" y="382.0" width="61" height="76.0" fill="#F7B041" fill-opacity="0.122" stroke="#F7B041" stroke-opacity="0.14" stroke-width="0.8"/><rect x="225.8" y="382.0" width="68" height="76.0" fill="#F7B041" fill-opacity="0.094" stroke="#F7B041" stroke-opacity="0.14" stroke-width="0.8"/><rect x="299.0" y="382.0" width="66" height="76.0" fill="#F7B041" fill-opacity="0.050" stroke="#F7B041" stroke-opacity="0.14" stroke-width="0.8"/><rect x="373.8" y="382.0" width="54" height="76.0" fill="#F7B041" fill-opacity="0.127" stroke="#F7B041" stroke-opacity="0.14" stroke-width="0.8"/><rect x="433.4" y="382.0" width="73" height="76.0" fill="#F7B041" fill-opacity="0.078" stroke="#F7B041" stroke-opacity="0.14" stroke-width="0.8"/><rect x="513.6" y="382.0" width="23" height="76.0" fill="#F7B041" fill-opacity="0.066" stroke="#F7B041" stroke-opacity="0.14" stroke-width="0.8"/><rect x="542.1" y="382.0" width="49" height="76.0" fill="#F7B041" fill-opacity="0.112" stroke="#F7B041" stroke-opacity="0.14" stroke-width="0.8"/><rect x="600.5" y="382.0" width="44" height="76.0" fill="#F7B041" fill-opacity="0.105" stroke="#F7B041" stroke-opacity="0.14" stroke-width="0.8"/><rect x="650.2" y="382.0" width="47" height="76.0" fill="#F7B041" fill-opacity="0.101" stroke="#F7B041" stroke-opacity="0.14" stroke-width="0.8"/><rect x="702.8" y="382.0" width="38" height="76.0" fill="#F7B041" fill-opacity="0.115" stroke="#F7B041" stroke-opacity="0.14" stroke-width="0.8"/><rect x="748.7" y="382.0" width="35" height="76.0" fill="#F7B041" fill-opacity="0.101" stroke="#F7B041" stroke-opacity="0.14" stroke-width="0.8"/><rect x="790.2" y="382.0" width="44" height="76.0" fill="#F7B041" fill-opacity="0.078" stroke="#F7B041" stroke-opacity="0.14" stroke-width="0.8"/><rect x="843.3" y="382.0" width="61" height="76.0" fill="#F7B041" fill-opacity="0.085" stroke="#F7B041" stroke-opacity="0.14" stroke-width="0.8"/><rect x="908.4" y="382.0" width="50" height="76.0" fill="#F7B041" fill-opacity="0.125" stroke="#F7B041" stroke-opacity="0.14" stroke-width="0.8"/><rect x="963.4" y="382.0" width="62" height="76.0" fill="#F7B041" fill-opacity="0.059" stroke="#F7B041" stroke-opacity="0.14" stroke-width="0.8"/><rect x="1031.8" y="382.0" width="65" height="76.0" fill="#F7B041" fill-opacity="0.105" stroke="#F7B041" stroke-opacity="0.14" stroke-width="0.8"/><rect x="-12.0" y="482.0" width="47" height="76.0" fill="#F7B041" fill-opacity="0.070" stroke="#F7B041" stroke-opacity="0.14" stroke-width="0.8"/><rect x="43.5" y="482.0" width="54" height="76.0" fill="#F7B041" fill-opacity="0.098" stroke="#F7B041" stroke-opacity="0.14" stroke-width="0.8"/><rect x="105.9" y="482.0" width="19" height="76.0" fill="#F7B041" fill-opacity="0.125" stroke="#F7B041" stroke-opacity="0.14" stroke-width="0.8"/><rect x="131.8" y="482.0" width="18" height="76.0" fill="#F7B041" fill-opacity="0.076" stroke="#F7B041" stroke-opacity="0.14" stroke-width="0.8"/><rect x="159.8" y="482.0" width="44" height="76.0" fill="#F7B041" fill-opacity="0.045" stroke="#F7B041" stroke-opacity="0.14" stroke-width="0.8"/><rect x="210.8" y="482.0" width="75" height="76.0" fill="#F7B041" fill-opacity="0.105" stroke="#F7B041" stroke-opacity="0.14" stroke-width="0.8"/><rect x="295.4" y="482.0" width="71" height="76.0" fill="#F7B041" fill-opacity="0.056" stroke="#F7B041" stroke-opacity="0.14" stroke-width="0.8"/><rect x="371.1" y="482.0" width="21" height="76.0" fill="#F7B041" fill-opacity="0.101" stroke="#F7B041" stroke-opacity="0.14" stroke-width="0.8"/><rect x="401.7" y="482.0" width="31" height="76.0" fill="#F7B041" fill-opacity="0.097" stroke="#F7B041" stroke-opacity="0.14" stroke-width="0.8"/><rect x="438.0" y="482.0" width="27" height="76.0" fill="#F7B041" fill-opacity="0.102" stroke="#F7B041" stroke-opacity="0.14" stroke-width="0.8"/><rect x="470.2" y="482.0" width="27" height="76.0" fill="#F7B041" fill-opacity="0.118" stroke="#F7B041" stroke-opacity="0.14" stroke-width="0.8"/><rect x="503.7" y="482.0" width="19" height="76.0" fill="#F7B041" fill-opacity="0.052" stroke="#F7B041" stroke-opacity="0.14" stroke-width="0.8"/><rect x="528.6" y="482.0" width="69" height="76.0" fill="#F7B041" fill-opacity="0.049" stroke="#F7B041" stroke-opacity="0.14" stroke-width="0.8"/><rect x="607.0" y="482.0" width="25" height="76.0" fill="#F7B041" fill-opacity="0.071" stroke="#F7B041" stroke-opacity="0.14" stroke-width="0.8"/><rect x="636.0" y="482.0" width="69" height="76.0" fill="#F7B041" fill-opacity="0.051" stroke="#F7B041" stroke-opacity="0.14" stroke-width="0.8"/><rect x="709.2" y="482.0" width="38" height="76.0" fill="#F7B041" fill-opacity="0.117" stroke="#F7B041" stroke-opacity="0.14" stroke-width="0.8"/><rect x="753.7" y="482.0" width="49" height="76.0" fill="#F7B041" fill-opacity="0.092" stroke="#F7B041" stroke-opacity="0.14" stroke-width="0.8"/><rect x="807.4" y="482.0" width="45" height="76.0" fill="#F7B041" fill-opacity="0.074" stroke="#F7B041" stroke-opacity="0.14" stroke-width="0.8"/><rect x="861.0" y="482.0" width="47" height="76.0" fill="#F7B041" fill-opacity="0.085" stroke="#F7B041" stroke-opacity="0.14" stroke-width="0.8"/><rect x="917.1" y="482.0" width="55" height="76.0" fill="#F7B041" fill-opacity="0.129" stroke="#F7B041" stroke-opacity="0.14" stroke-width="0.8"/><rect x="977.3" y="482.0" width="49" height="76.0" fill="#F7B041" fill-opacity="0.065" stroke="#F7B041" stroke-opacity="0.14" stroke-width="0.8"/><rect x="1031.7" y="482.0" width="51" height="76.0" fill="#F7B041" fill-opacity="0.104" stroke="#F7B041" stroke-opacity="0.14" stroke-width="0.8"/><rect x="-12.0" y="582.0" width="24" height="76.0" fill="#F7B041" fill-opacity="0.127" stroke="#F7B041" stroke-opacity="0.14" stroke-width="0.8"/><rect x="19.1" y="582.0" width="60" height="76.0" fill="#F7B041" fill-opacity="0.120" stroke="#F7B041" stroke-opacity="0.14" stroke-width="0.8"/><rect x="86.3" y="582.0" width="24" height="76.0" fill="#F7B041" fill-opacity="0.115" stroke="#F7B041" stroke-opacity="0.14" stroke-width="0.8"/><rect x="116.9" y="582.0" width="61" height="76.0" fill="#F7B041" fill-opacity="0.082" stroke="#F7B041" stroke-opacity="0.14" stroke-width="0.8"/><rect x="183.0" y="582.0" width="30" height="76.0" fill="#F7B041" fill-opacity="0.124" stroke="#F7B041" stroke-opacity="0.14" stroke-width="0.8"/><rect x="219.1" y="582.0" width="43" height="76.0" fill="#F7B041" fill-opacity="0.085" stroke="#F7B041" stroke-opacity="0.14" stroke-width="0.8"/><rect x="266.7" y="582.0" width="39" height="76.0" fill="#F7B041" fill-opacity="0.071" stroke="#F7B041" stroke-opacity="0.14" stroke-width="0.8"/><rect x="314.5" y="582.0" width="43" height="76.0" fill="#F7B041" fill-opacity="0.108" stroke="#F7B041" stroke-opacity="0.14" stroke-width="0.8"/><rect x="362.3" y="582.0" width="69" height="76.0" fill="#F7B041" fill-opacity="0.047" stroke="#F7B041" stroke-opacity="0.14" stroke-width="0.8"/><rect x="439.1" y="582.0" width="23" height="76.0" fill="#F7B041" fill-opacity="0.109" stroke="#F7B041" stroke-opacity="0.14" stroke-width="0.8"/><rect x="466.7" y="582.0" width="48" height="76.0" fill="#F7B041" fill-opacity="0.119" stroke="#F7B041" stroke-opacity="0.14" stroke-width="0.8"/><rect x="520.6" y="582.0" width="38" height="76.0" fill="#F7B041" fill-opacity="0.104" stroke="#F7B041" stroke-opacity="0.14" stroke-width="0.8"/><rect x="565.6" y="582.0" width="27" height="76.0" fill="#F7B041" fill-opacity="0.099" stroke="#F7B041" stroke-opacity="0.14" stroke-width="0.8"/><rect x="601.3" y="582.0" width="67" height="76.0" fill="#F7B041" fill-opacity="0.128" stroke="#F7B041" stroke-opacity="0.14" stroke-width="0.8"/><rect x="675.9" y="582.0" width="37" height="76.0" fill="#F7B041" fill-opacity="0.087" stroke="#F7B041" stroke-opacity="0.14" stroke-width="0.8"/><rect x="720.5" y="582.0" width="76" height="76.0" fill="#F7B041" fill-opacity="0.074" stroke="#F7B041" stroke-opacity="0.14" stroke-width="0.8"/><rect x="801.1" y="582.0" width="28" height="76.0" fill="#F7B041" fill-opacity="0.086" stroke="#F7B041" stroke-opacity="0.14" stroke-width="0.8"/><rect x="838.1" y="582.0" width="34" height="76.0" fill="#F7B041" fill-opacity="0.090" stroke="#F7B041" stroke-opacity="0.14" stroke-width="0.8"/><rect x="879.1" y="582.0" width="34" height="76.0" fill="#F7B041" fill-opacity="0.041" stroke="#F7B041" stroke-opacity="0.14" stroke-width="0.8"/><rect x="920.7" y="582.0" width="69" height="76.0" fill="#F7B041" fill-opacity="0.089" stroke="#F7B041" stroke-opacity="0.14" stroke-width="0.8"/><rect x="999.2" y="582.0" width="24" height="76.0" fill="#F7B041" fill-opacity="0.055" stroke="#F7B041" stroke-opacity="0.14" stroke-width="0.8"/><rect x="1032.9" y="582.0" width="31" height="76.0" fill="#F7B041" fill-opacity="0.099" stroke="#F7B041" stroke-opacity="0.14" stroke-width="0.8"/><rect x="1070.6" y="582.0" width="59" height="76.0" fill="#F7B041" fill-opacity="0.100" stroke="#F7B041" stroke-opacity="0.14" stroke-width="0.8"/><rect x="-12.0" y="682.0" width="54" height="76.0" fill="#F7B041" fill-opacity="0.077" stroke="#F7B041" stroke-opacity="0.14" stroke-width="0.8"/><rect x="51.9" y="682.0" width="70" height="76.0" fill="#F7B041" fill-opacity="0.085" stroke="#F7B041" stroke-opacity="0.14" stroke-width="0.8"/><rect x="127.8" y="682.0" width="22" height="76.0" fill="#F7B041" fill-opacity="0.086" stroke="#F7B041" stroke-opacity="0.14" stroke-width="0.8"/><rect x="158.7" y="682.0" width="43" height="76.0" fill="#F7B041" fill-opacity="0.054" stroke="#F7B041" stroke-opacity="0.14" stroke-width="0.8"/><rect x="208.9" y="682.0" width="48" height="76.0" fill="#F7B041" fill-opacity="0.119" stroke="#F7B041" stroke-opacity="0.14" stroke-width="0.8"/><rect x="264.1" y="682.0" width="68" height="76.0" fill="#F7B041" fill-opacity="0.127" stroke="#F7B041" stroke-opacity="0.14" stroke-width="0.8"/><rect x="337.0" y="682.0" width="48" height="76.0" fill="#F7B041" fill-opacity="0.079" stroke="#F7B041" stroke-opacity="0.14" stroke-width="0.8"/><rect x="390.3" y="682.0" width="35" height="76.0" fill="#F7B041" fill-opacity="0.059" stroke="#F7B041" stroke-opacity="0.14" stroke-width="0.8"/><rect x="432.5" y="682.0" width="36" height="76.0" fill="#F7B041" fill-opacity="0.105" stroke="#F7B041" stroke-opacity="0.14" stroke-width="0.8"/><rect x="476.8" y="682.0" width="26" height="76.0" fill="#F7B041" fill-opacity="0.074" stroke="#F7B041" stroke-opacity="0.14" stroke-width="0.8"/><rect x="507.2" y="682.0" width="44" height="76.0" fill="#F7B041" fill-opacity="0.120" stroke="#F7B041" stroke-opacity="0.14" stroke-width="0.8"/><rect x="558.6" y="682.0" width="41" height="76.0" fill="#F7B041" fill-opacity="0.084" stroke="#F7B041" stroke-opacity="0.14" stroke-width="0.8"/><rect x="606.9" y="682.0" width="35" height="76.0" fill="#F7B041" fill-opacity="0.125" stroke="#F7B041" stroke-opacity="0.14" stroke-width="0.8"/><rect x="650.8" y="682.0" width="69" height="76.0" fill="#F7B041" fill-opacity="0.109" stroke="#F7B041" stroke-opacity="0.14" stroke-width="0.8"/><rect x="729.8" y="682.0" width="41" height="76.0" fill="#F7B041" fill-opacity="0.053" stroke="#F7B041" stroke-opacity="0.14" stroke-width="0.8"/><rect x="780.2" y="682.0" width="40" height="76.0" fill="#F7B041" fill-opacity="0.129" stroke="#F7B041" stroke-opacity="0.14" stroke-width="0.8"/><rect x="829.3" y="682.0" width="73" height="76.0" fill="#F7B041" fill-opacity="0.063" stroke="#F7B041" stroke-opacity="0.14" stroke-width="0.8"/><rect x="907.8" y="682.0" width="21" height="76.0" fill="#F7B041" fill-opacity="0.103" stroke="#F7B041" stroke-opacity="0.14" stroke-width="0.8"/><rect x="933.6" y="682.0" width="56" height="76.0" fill="#F7B041" fill-opacity="0.061" stroke="#F7B041" stroke-opacity="0.14" stroke-width="0.8"/><rect x="997.1" y="682.0" width="18" height="76.0" fill="#F7B041" fill-opacity="0.122" stroke="#F7B041" stroke-opacity="0.14" stroke-width="0.8"/><rect x="1025.0" y="682.0" width="58" height="76.0" fill="#F7B041" fill-opacity="0.054" stroke="#F7B041" stroke-opacity="0.14" stroke-width="0.8"/><rect x="-12.0" y="782.0" width="29" height="76.0" fill="#F7B041" fill-opacity="0.052" stroke="#F7B041" stroke-opacity="0.14" stroke-width="0.8"/><rect x="26.7" y="782.0" width="73" height="76.0" fill="#F7B041" fill-opacity="0.078" stroke="#F7B041" stroke-opacity="0.14" stroke-width="0.8"/><rect x="105.7" y="782.0" width="52" height="76.0" fill="#F7B041" fill-opacity="0.110" stroke="#F7B041" stroke-opacity="0.14" stroke-width="0.8"/><rect x="166.7" y="782.0" width="63" height="76.0" fill="#F7B041" fill-opacity="0.067" stroke="#F7B041" stroke-opacity="0.14" stroke-width="0.8"/><rect x="236.2" y="782.0" width="72" height="76.0" fill="#F7B041" fill-opacity="0.108" stroke="#F7B041" stroke-opacity="0.14" stroke-width="0.8"/><rect x="317.2" y="782.0" width="51" height="76.0" fill="#F7B041" fill-opacity="0.065" stroke="#F7B041" stroke-opacity="0.14" stroke-width="0.8"/><rect x="375.1" y="782.0" width="23" height="76.0" fill="#F7B041" fill-opacity="0.060" stroke="#F7B041" stroke-opacity="0.14" stroke-width="0.8"/><rect x="402.2" y="782.0" width="66" height="76.0" fill="#F7B041" fill-opacity="0.048" stroke="#F7B041" stroke-opacity="0.14" stroke-width="0.8"/><rect x="477.0" y="782.0" width="62" height="76.0" fill="#F7B041" fill-opacity="0.067" stroke="#F7B041" stroke-opacity="0.14" stroke-width="0.8"/><rect x="545.7" y="782.0" width="22" height="76.0" fill="#F7B041" fill-opacity="0.050" stroke="#F7B041" stroke-opacity="0.14" stroke-width="0.8"/><rect x="573.3" y="782.0" width="37" height="76.0" fill="#F7B041" fill-opacity="0.105" stroke="#F7B041" stroke-opacity="0.14" stroke-width="0.8"/><rect x="620.0" y="782.0" width="70" height="76.0" fill="#F7B041" fill-opacity="0.098" stroke="#F7B041" stroke-opacity="0.14" stroke-width="0.8"/><rect x="696.5" y="782.0" width="39" height="76.0" fill="#F7B041" fill-opacity="0.070" stroke="#F7B041" stroke-opacity="0.14" stroke-width="0.8"/><rect x="741.2" y="782.0" width="19" height="76.0" fill="#F7B041" fill-opacity="0.073" stroke="#F7B041" stroke-opacity="0.14" stroke-width="0.8"/><rect x="770.2" y="782.0" width="25" height="76.0" fill="#F7B041" fill-opacity="0.061" stroke="#F7B041" stroke-opacity="0.14" stroke-width="0.8"/><rect x="802.3" y="782.0" width="33" height="76.0" fill="#F7B041" fill-opacity="0.086" stroke="#F7B041" stroke-opacity="0.14" stroke-width="0.8"/><rect x="839.6" y="782.0" width="56" height="76.0" fill="#F7B041" fill-opacity="0.079" stroke="#F7B041" stroke-opacity="0.14" stroke-width="0.8"/><rect x="902.3" y="782.0" width="34" height="76.0" fill="#F7B041" fill-opacity="0.061" stroke="#F7B041" stroke-opacity="0.14" stroke-width="0.8"/><rect x="943.1" y="782.0" width="47" height="76.0" fill="#F7B041" fill-opacity="0.089" stroke="#F7B041" stroke-opacity="0.14" stroke-width="0.8"/><rect x="998.5" y="782.0" width="71" height="76.0" fill="#F7B041" fill-opacity="0.124" stroke="#F7B041" stroke-opacity="0.14" stroke-width="0.8"/><rect x="1075.5" y="782.0" width="36" height="76.0" fill="#F7B041" fill-opacity="0.119" stroke="#F7B041" stroke-opacity="0.14" stroke-width="0.8"/><rect x="-12.0" y="882.0" width="29" height="76.0" fill="#F7B041" fill-opacity="0.085" stroke="#F7B041" stroke-opacity="0.14" stroke-width="0.8"/><rect x="21.8" y="882.0" width="41" height="76.0" fill="#F7B041" fill-opacity="0.098" stroke="#F7B041" stroke-opacity="0.14" stroke-width="0.8"/><rect x="67.9" y="882.0" width="45" height="76.0" fill="#F7B041" fill-opacity="0.080" stroke="#F7B041" stroke-opacity="0.14" stroke-width="0.8"/><rect x="121.8" y="882.0" width="34" height="76.0" fill="#F7B041" fill-opacity="0.051" stroke="#F7B041" stroke-opacity="0.14" stroke-width="0.8"/><rect x="164.0" y="882.0" width="30" height="76.0" fill="#F7B041" fill-opacity="0.087" stroke="#F7B041" stroke-opacity="0.14" stroke-width="0.8"/><rect x="201.0" y="882.0" width="39" height="76.0" fill="#F7B041" fill-opacity="0.095" stroke="#F7B041" stroke-opacity="0.14" stroke-width="0.8"/><rect x="246.2" y="882.0" width="41" height="76.0" fill="#F7B041" fill-opacity="0.043" stroke="#F7B041" stroke-opacity="0.14" stroke-width="0.8"/><rect x="292.2" y="882.0" width="57" height="76.0" fill="#F7B041" fill-opacity="0.115" stroke="#F7B041" stroke-opacity="0.14" stroke-width="0.8"/><rect x="354.8" y="882.0" width="21" height="76.0" fill="#F7B041" fill-opacity="0.114" stroke="#F7B041" stroke-opacity="0.14" stroke-width="0.8"/><rect x="380.8" y="882.0" width="35" height="76.0" fill="#F7B041" fill-opacity="0.103" stroke="#F7B041" stroke-opacity="0.14" stroke-width="0.8"/><rect x="422.3" y="882.0" width="48" height="76.0" fill="#F7B041" fill-opacity="0.070" stroke="#F7B041" stroke-opacity="0.14" stroke-width="0.8"/><rect x="477.3" y="882.0" width="33" height="76.0" fill="#F7B041" fill-opacity="0.056" stroke="#F7B041" stroke-opacity="0.14" stroke-width="0.8"/><rect x="516.9" y="882.0" width="44" height="76.0" fill="#F7B041" fill-opacity="0.088" stroke="#F7B041" stroke-opacity="0.14" stroke-width="0.8"/><rect x="566.7" y="882.0" width="74" height="76.0" fill="#F7B041" fill-opacity="0.103" stroke="#F7B041" stroke-opacity="0.14" stroke-width="0.8"/><rect x="648.8" y="882.0" width="67" height="76.0" fill="#F7B041" fill-opacity="0.077" stroke="#F7B041" stroke-opacity="0.14" stroke-width="0.8"/><rect x="720.0" y="882.0" width="73" height="76.0" fill="#F7B041" fill-opacity="0.083" stroke="#F7B041" stroke-opacity="0.14" stroke-width="0.8"/><rect x="798.8" y="882.0" width="72" height="76.0" fill="#F7B041" fill-opacity="0.119" stroke="#F7B041" stroke-opacity="0.14" stroke-width="0.8"/><rect x="877.1" y="882.0" width="24" height="76.0" fill="#F7B041" fill-opacity="0.101" stroke="#F7B041" stroke-opacity="0.14" stroke-width="0.8"/><rect x="908.6" y="882.0" width="63" height="76.0" fill="#F7B041" fill-opacity="0.060" stroke="#F7B041" stroke-opacity="0.14" stroke-width="0.8"/><rect x="976.3" y="882.0" width="23" height="76.0" fill="#F7B041" fill-opacity="0.113" stroke="#F7B041" stroke-opacity="0.14" stroke-width="0.8"/><rect x="1007.7" y="882.0" width="35" height="76.0" fill="#F7B041" fill-opacity="0.068" stroke="#F7B041" stroke-opacity="0.14" stroke-width="0.8"/><rect x="1050.8" y="882.0" width="52" height="76.0" fill="#F7B041" fill-opacity="0.105" stroke="#F7B041" stroke-opacity="0.14" stroke-width="0.8"/><rect x="-12.0" y="982.0" width="20" height="76.0" fill="#F7B041" fill-opacity="0.102" stroke="#F7B041" stroke-opacity="0.14" stroke-width="0.8"/><rect x="17.0" y="982.0" width="50" height="76.0" fill="#F7B041" fill-opacity="0.117" stroke="#F7B041" stroke-opacity="0.14" stroke-width="0.8"/><rect x="71.8" y="982.0" width="74" height="76.0" fill="#F7B041" fill-opacity="0.054" stroke="#F7B041" stroke-opacity="0.14" stroke-width="0.8"/><rect x="153.9" y="982.0" width="19" height="76.0" fill="#F7B041" fill-opacity="0.065" stroke="#F7B041" stroke-opacity="0.14" stroke-width="0.8"/><rect x="177.2" y="982.0" width="63" height="76.0" fill="#F7B041" fill-opacity="0.046" stroke="#F7B041" stroke-opacity="0.14" stroke-width="0.8"/><rect x="249.6" y="982.0" width="64" height="76.0" fill="#F7B041" fill-opacity="0.047" stroke="#F7B041" stroke-opacity="0.14" stroke-width="0.8"/><rect x="319.9" y="982.0" width="56" height="76.0" fill="#F7B041" fill-opacity="0.093" stroke="#F7B041" stroke-opacity="0.14" stroke-width="0.8"/><rect x="383.2" y="982.0" width="68" height="76.0" fill="#F7B041" fill-opacity="0.057" stroke="#F7B041" stroke-opacity="0.14" stroke-width="0.8"/><rect x="461.2" y="982.0" width="40" height="76.0" fill="#F7B041" fill-opacity="0.052" stroke="#F7B041" stroke-opacity="0.14" stroke-width="0.8"/><rect x="511.1" y="982.0" width="23" height="76.0" fill="#F7B041" fill-opacity="0.060" stroke="#F7B041" stroke-opacity="0.14" stroke-width="0.8"/><rect x="541.6" y="982.0" width="71" height="76.0" fill="#F7B041" fill-opacity="0.084" stroke="#F7B041" stroke-opacity="0.14" stroke-width="0.8"/><rect x="616.8" y="982.0" width="40" height="76.0" fill="#F7B041" fill-opacity="0.097" stroke="#F7B041" stroke-opacity="0.14" stroke-width="0.8"/><rect x="664.2" y="982.0" width="70" height="76.0" fill="#F7B041" fill-opacity="0.045" stroke="#F7B041" stroke-opacity="0.14" stroke-width="0.8"/><rect x="743.6" y="982.0" width="18" height="76.0" fill="#F7B041" fill-opacity="0.096" stroke="#F7B041" stroke-opacity="0.14" stroke-width="0.8"/><rect x="767.6" y="982.0" width="74" height="76.0" fill="#F7B041" fill-opacity="0.094" stroke="#F7B041" stroke-opacity="0.14" stroke-width="0.8"/><rect x="851.2" y="982.0" width="67" height="76.0" fill="#F7B041" fill-opacity="0.078" stroke="#F7B041" stroke-opacity="0.14" stroke-width="0.8"/><rect x="927.8" y="982.0" width="30" height="76.0" fill="#F7B041" fill-opacity="0.069" stroke="#F7B041" stroke-opacity="0.14" stroke-width="0.8"/><rect x="966.5" y="982.0" width="36" height="76.0" fill="#F7B041" fill-opacity="0.102" stroke="#F7B041" stroke-opacity="0.14" stroke-width="0.8"/><rect x="1010.3" y="982.0" width="66" height="76.0" fill="#F7B041" fill-opacity="0.110" stroke="#F7B041" stroke-opacity="0.14" stroke-width="0.8"/><rect x="-12.0" y="1082.0" width="39" height="76.0" fill="#F7B041" fill-opacity="0.071" stroke="#F7B041" stroke-opacity="0.14" stroke-width="0.8"/><rect x="33.9" y="1082.0" width="49" height="76.0" fill="#F7B041" fill-opacity="0.128" stroke="#F7B041" stroke-opacity="0.14" stroke-width="0.8"/><rect x="88.4" y="1082.0" width="46" height="76.0" fill="#F7B041" fill-opacity="0.109" stroke="#F7B041" stroke-opacity="0.14" stroke-width="0.8"/><rect x="142.4" y="1082.0" width="26" height="76.0" fill="#F7B041" fill-opacity="0.078" stroke="#F7B041" stroke-opacity="0.14" stroke-width="0.8"/><rect x="178.2" y="1082.0" width="54" height="76.0" fill="#F7B041" fill-opacity="0.104" stroke="#F7B041" stroke-opacity="0.14" stroke-width="0.8"/><rect x="239.4" y="1082.0" width="33" height="76.0" fill="#F7B041" fill-opacity="0.114" stroke="#F7B041" stroke-opacity="0.14" stroke-width="0.8"/><rect x="281.5" y="1082.0" width="69" height="76.0" fill="#F7B041" fill-opacity="0.056" stroke="#F7B041" stroke-opacity="0.14" stroke-width="0.8"/><rect x="354.8" y="1082.0" width="60" height="76.0" fill="#F7B041" fill-opacity="0.074" stroke="#F7B041" stroke-opacity="0.14" stroke-width="0.8"/><rect x="423.5" y="1082.0" width="75" height="76.0" fill="#F7B041" fill-opacity="0.053" stroke="#F7B041" stroke-opacity="0.14" stroke-width="0.8"/><rect x="503.3" y="1082.0" width="65" height="76.0" fill="#F7B041" fill-opacity="0.104" stroke="#F7B041" stroke-opacity="0.14" stroke-width="0.8"/><rect x="575.6" y="1082.0" width="65" height="76.0" fill="#F7B041" fill-opacity="0.122" stroke="#F7B041" stroke-opacity="0.14" stroke-width="0.8"/><rect x="646.0" y="1082.0" width="62" height="76.0" fill="#F7B041" fill-opacity="0.118" stroke="#F7B041" stroke-opacity="0.14" stroke-width="0.8"/><rect x="714.4" y="1082.0" width="27" height="76.0" fill="#F7B041" fill-opacity="0.058" stroke="#F7B041" stroke-opacity="0.14" stroke-width="0.8"/><rect x="746.9" y="1082.0" width="33" height="76.0" fill="#F7B041" fill-opacity="0.117" stroke="#F7B041" stroke-opacity="0.14" stroke-width="0.8"/><rect x="789.6" y="1082.0" width="74" height="76.0" fill="#F7B041" fill-opacity="0.106" stroke="#F7B041" stroke-opacity="0.14" stroke-width="0.8"/><rect x="870.0" y="1082.0" width="48" height="76.0" fill="#F7B041" fill-opacity="0.050" stroke="#F7B041" stroke-opacity="0.14" stroke-width="0.8"/><rect x="923.2" y="1082.0" width="30" height="76.0" fill="#F7B041" fill-opacity="0.089" stroke="#F7B041" stroke-opacity="0.14" stroke-width="0.8"/><rect x="958.8" y="1082.0" width="65" height="76.0" fill="#F7B041" fill-opacity="0.106" stroke="#F7B041" stroke-opacity="0.14" stroke-width="0.8"/><rect x="1031.0" y="1082.0" width="29" height="76.0" fill="#F7B041" fill-opacity="0.059" stroke="#F7B041" stroke-opacity="0.14" stroke-width="0.8"/><rect x="1068.3" y="1082.0" width="73" height="76.0" fill="#F7B041" fill-opacity="0.129" stroke="#F7B041" stroke-opacity="0.14" stroke-width="0.8"/><rect x="-12.0" y="1182.0" width="49" height="76.0" fill="#F7B041" fill-opacity="0.095" stroke="#F7B041" stroke-opacity="0.14" stroke-width="0.8"/><rect x="43.4" y="1182.0" width="36" height="76.0" fill="#F7B041" fill-opacity="0.059" stroke="#F7B041" stroke-opacity="0.14" stroke-width="0.8"/><rect x="84.2" y="1182.0" width="67" height="76.0" fill="#F7B041" fill-opacity="0.055" stroke="#F7B041" stroke-opacity="0.14" stroke-width="0.8"/><rect x="160.1" y="1182.0" width="71" height="76.0" fill="#F7B041" fill-opacity="0.102" stroke="#F7B041" stroke-opacity="0.14" stroke-width="0.8"/><rect x="236.1" y="1182.0" width="65" height="76.0" fill="#F7B041" fill-opacity="0.051" stroke="#F7B041" stroke-opacity="0.14" stroke-width="0.8"/><rect x="308.3" y="1182.0" width="48" height="76.0" fill="#F7B041" fill-opacity="0.106" stroke="#F7B041" stroke-opacity="0.14" stroke-width="0.8"/><rect x="361.6" y="1182.0" width="31" height="76.0" fill="#F7B041" fill-opacity="0.094" stroke="#F7B041" stroke-opacity="0.14" stroke-width="0.8"/><rect x="398.6" y="1182.0" width="64" height="76.0" fill="#F7B041" fill-opacity="0.050" stroke="#F7B041" stroke-opacity="0.14" stroke-width="0.8"/><rect x="467.2" y="1182.0" width="33" height="76.0" fill="#F7B041" fill-opacity="0.107" stroke="#F7B041" stroke-opacity="0.14" stroke-width="0.8"/><rect x="507.4" y="1182.0" width="63" height="76.0" fill="#F7B041" fill-opacity="0.041" stroke="#F7B041" stroke-opacity="0.14" stroke-width="0.8"/><rect x="575.5" y="1182.0" width="76" height="76.0" fill="#F7B041" fill-opacity="0.122" stroke="#F7B041" stroke-opacity="0.14" stroke-width="0.8"/><rect x="656.4" y="1182.0" width="32" height="76.0" fill="#F7B041" fill-opacity="0.114" stroke="#F7B041" stroke-opacity="0.14" stroke-width="0.8"/><rect x="693.5" y="1182.0" width="71" height="76.0" fill="#F7B041" fill-opacity="0.110" stroke="#F7B041" stroke-opacity="0.14" stroke-width="0.8"/><rect x="769.0" y="1182.0" width="26" height="76.0" fill="#F7B041" fill-opacity="0.059" stroke="#F7B041" stroke-opacity="0.14" stroke-width="0.8"/><rect x="800.0" y="1182.0" width="25" height="76.0" fill="#F7B041" fill-opacity="0.051" stroke="#F7B041" stroke-opacity="0.14" stroke-width="0.8"/><rect x="830.0" y="1182.0" width="42" height="76.0" fill="#F7B041" fill-opacity="0.078" stroke="#F7B041" stroke-opacity="0.14" stroke-width="0.8"/><rect x="876.4" y="1182.0" width="32" height="76.0" fill="#F7B041" fill-opacity="0.115" stroke="#F7B041" stroke-opacity="0.14" stroke-width="0.8"/><rect x="916.3" y="1182.0" width="55" height="76.0" fill="#F7B041" fill-opacity="0.106" stroke="#F7B041" stroke-opacity="0.14" stroke-width="0.8"/><rect x="977.8" y="1182.0" width="30" height="76.0" fill="#F7B041" fill-opacity="0.068" stroke="#F7B041" stroke-opacity="0.14" stroke-width="0.8"/><rect x="1016.3" y="1182.0" width="61" height="76.0" fill="#F7B041" fill-opacity="0.118" stroke="#F7B041" stroke-opacity="0.14" stroke-width="0.8"/><rect x="-12.0" y="1282.0" width="42" height="76.0" fill="#F7B041" fill-opacity="0.101" stroke="#F7B041" stroke-opacity="0.14" stroke-width="0.8"/><rect x="34.3" y="1282.0" width="30" height="76.0" fill="#F7B041" fill-opacity="0.059" stroke="#F7B041" stroke-opacity="0.14" stroke-width="0.8"/><rect x="69.6" y="1282.0" width="19" height="76.0" fill="#F7B041" fill-opacity="0.091" stroke="#F7B041" stroke-opacity="0.14" stroke-width="0.8"/><rect x="97.8" y="1282.0" width="42" height="76.0" fill="#F7B041" fill-opacity="0.050" stroke="#F7B041" stroke-opacity="0.14" stroke-width="0.8"/><rect x="149.5" y="1282.0" width="66" height="76.0" fill="#F7B041" fill-opacity="0.108" stroke="#F7B041" stroke-opacity="0.14" stroke-width="0.8"/><rect x="223.6" y="1282.0" width="56" height="76.0" fill="#F7B041" fill-opacity="0.049" stroke="#F7B041" stroke-opacity="0.14" stroke-width="0.8"/><rect x="288.0" y="1282.0" width="46" height="76.0" fill="#F7B041" fill-opacity="0.050" stroke="#F7B041" stroke-opacity="0.14" stroke-width="0.8"/><rect x="343.1" y="1282.0" width="35" height="76.0" fill="#F7B041" fill-opacity="0.127" stroke="#F7B041" stroke-opacity="0.14" stroke-width="0.8"/><rect x="384.6" y="1282.0" width="47" height="76.0" fill="#F7B041" fill-opacity="0.051" stroke="#F7B041" stroke-opacity="0.14" stroke-width="0.8"/><rect x="438.1" y="1282.0" width="75" height="76.0" fill="#F7B041" fill-opacity="0.048" stroke="#F7B041" stroke-opacity="0.14" stroke-width="0.8"/><rect x="519.7" y="1282.0" width="73" height="76.0" fill="#F7B041" fill-opacity="0.077" stroke="#F7B041" stroke-opacity="0.14" stroke-width="0.8"/><rect x="597.5" y="1282.0" width="24" height="76.0" fill="#F7B041" fill-opacity="0.054" stroke="#F7B041" stroke-opacity="0.14" stroke-width="0.8"/><rect x="630.4" y="1282.0" width="27" height="76.0" fill="#F7B041" fill-opacity="0.119" stroke="#F7B041" stroke-opacity="0.14" stroke-width="0.8"/><rect x="667.0" y="1282.0" width="65" height="76.0" fill="#F7B041" fill-opacity="0.058" stroke="#F7B041" stroke-opacity="0.14" stroke-width="0.8"/><rect x="741.7" y="1282.0" width="57" height="76.0" fill="#F7B041" fill-opacity="0.074" stroke="#F7B041" stroke-opacity="0.14" stroke-width="0.8"/><rect x="805.6" y="1282.0" width="71" height="76.0" fill="#F7B041" fill-opacity="0.119" stroke="#F7B041" stroke-opacity="0.14" stroke-width="0.8"/><rect x="883.4" y="1282.0" width="37" height="76.0" fill="#F7B041" fill-opacity="0.049" stroke="#F7B041" stroke-opacity="0.14" stroke-width="0.8"/><rect x="927.9" y="1282.0" width="48" height="76.0" fill="#F7B041" fill-opacity="0.072" stroke="#F7B041" stroke-opacity="0.14" stroke-width="0.8"/><rect x="982.4" y="1282.0" width="59" height="76.0" fill="#F7B041" fill-opacity="0.050" stroke="#F7B041" stroke-opacity="0.14" stroke-width="0.8"/><rect x="1049.1" y="1282.0" width="77" height="76.0" fill="#F7B041" fill-opacity="0.088" stroke="#F7B041" stroke-opacity="0.14" stroke-width="0.8"/><rect x="-12.0" y="1382.0" width="21" height="76.0" fill="#F7B041" fill-opacity="0.127" stroke="#F7B041" stroke-opacity="0.14" stroke-width="0.8"/><rect x="16.2" y="1382.0" width="43" height="76.0" fill="#F7B041" fill-opacity="0.095" stroke="#F7B041" stroke-opacity="0.14" stroke-width="0.8"/><rect x="67.1" y="1382.0" width="75" height="76.0" fill="#F7B041" fill-opacity="0.096" stroke="#F7B041" stroke-opacity="0.14" stroke-width="0.8"/><rect x="151.8" y="1382.0" width="56" height="76.0" fill="#F7B041" fill-opacity="0.060" stroke="#F7B041" stroke-opacity="0.14" stroke-width="0.8"/><rect x="217.2" y="1382.0" width="37" height="76.0" fill="#F7B041" fill-opacity="0.109" stroke="#F7B041" stroke-opacity="0.14" stroke-width="0.8"/><rect x="260.0" y="1382.0" width="52" height="76.0" fill="#F7B041" fill-opacity="0.091" stroke="#F7B041" stroke-opacity="0.14" stroke-width="0.8"/><rect x="321.6" y="1382.0" width="49" height="76.0" fill="#F7B041" fill-opacity="0.097" stroke="#F7B041" stroke-opacity="0.14" stroke-width="0.8"/><rect x="376.8" y="1382.0" width="35" height="76.0" fill="#F7B041" fill-opacity="0.054" stroke="#F7B041" stroke-opacity="0.14" stroke-width="0.8"/><rect x="420.2" y="1382.0" width="73" height="76.0" fill="#F7B041" fill-opacity="0.102" stroke="#F7B041" stroke-opacity="0.14" stroke-width="0.8"/><rect x="498.3" y="1382.0" width="19" height="76.0" fill="#F7B041" fill-opacity="0.087" stroke="#F7B041" stroke-opacity="0.14" stroke-width="0.8"/><rect x="521.4" y="1382.0" width="35" height="76.0" fill="#F7B041" fill-opacity="0.066" stroke="#F7B041" stroke-opacity="0.14" stroke-width="0.8"/><rect x="565.2" y="1382.0" width="26" height="76.0" fill="#F7B041" fill-opacity="0.075" stroke="#F7B041" stroke-opacity="0.14" stroke-width="0.8"/><rect x="600.8" y="1382.0" width="49" height="76.0" fill="#F7B041" fill-opacity="0.103" stroke="#F7B041" stroke-opacity="0.14" stroke-width="0.8"/><rect x="656.3" y="1382.0" width="53" height="76.0" fill="#F7B041" fill-opacity="0.066" stroke="#F7B041" stroke-opacity="0.14" stroke-width="0.8"/><rect x="717.8" y="1382.0" width="51" height="76.0" fill="#F7B041" fill-opacity="0.076" stroke="#F7B041" stroke-opacity="0.14" stroke-width="0.8"/><rect x="773.0" y="1382.0" width="45" height="76.0" fill="#F7B041" fill-opacity="0.057" stroke="#F7B041" stroke-opacity="0.14" stroke-width="0.8"/><rect x="826.4" y="1382.0" width="27" height="76.0" fill="#F7B041" fill-opacity="0.045" stroke="#F7B041" stroke-opacity="0.14" stroke-width="0.8"/><rect x="861.0" y="1382.0" width="39" height="76.0" fill="#F7B041" fill-opacity="0.130" stroke="#F7B041" stroke-opacity="0.14" stroke-width="0.8"/><rect x="905.7" y="1382.0" width="38" height="76.0" fill="#F7B041" fill-opacity="0.092" stroke="#F7B041" stroke-opacity="0.14" stroke-width="0.8"/><rect x="950.8" y="1382.0" width="62" height="76.0" fill="#F7B041" fill-opacity="0.040" stroke="#F7B041" stroke-opacity="0.14" stroke-width="0.8"/><rect x="1021.5" y="1382.0" width="40" height="76.0" fill="#F7B041" fill-opacity="0.125" stroke="#F7B041" stroke-opacity="0.14" stroke-width="0.8"/><rect x="1071.1" y="1382.0" width="51" height="76.0" fill="#F7B041" fill-opacity="0.048" stroke="#F7B041" stroke-opacity="0.14" stroke-width="0.8"/></g><g><line x1="0" y1="-30.0" x2="1080" y2="-30.0" stroke="#F7B041" stroke-opacity="0.16" stroke-width="1.4"/><line x1="0" y1="70.0" x2="1080" y2="70.0" stroke="#F7B041" stroke-opacity="0.16" stroke-width="1.4"/><line x1="0" y1="170.0" x2="1080" y2="170.0" stroke="#F7B041" stroke-opacity="0.16" stroke-width="1.4"/><line x1="0" y1="270.0" x2="1080" y2="270.0" stroke="#F7B041" stroke-opacity="0.16" stroke-width="1.4"/><line x1="0" y1="370.0" x2="1080" y2="370.0" stroke="#F7B041" stroke-opacity="0.16" stroke-width="1.4"/><line x1="0" y1="470.0" x2="1080" y2="470.0" stroke="#F7B041" stroke-opacity="0.16" stroke-width="1.4"/><line x1="0" y1="570.0" x2="1080" y2="570.0" stroke="#F7B041" stroke-opacity="0.16" stroke-width="1.4"/><line x1="0" y1="670.0" x2="1080" y2="670.0" stroke="#F7B041" stroke-opacity="0.16" stroke-width="1.4"/><line x1="0" y1="770.0" x2="1080" y2="770.0" stroke="#F7B041" stroke-opacity="0.16" stroke-width="1.4"/><line x1="0" y1="870.0" x2="1080" y2="870.0" stroke="#F7B041" stroke-opacity="0.16" stroke-width="1.4"/><line x1="0" y1="970.0" x2="1080" y2="970.0" stroke="#F7B041" stroke-opacity="0.16" stroke-width="1.4"/><line x1="0" y1="1070.0" x2="1080" y2="1070.0" stroke="#F7B041" stroke-opacity="0.16" stroke-width="1.4"/><line x1="0" y1="1170.0" x2="1080" y2="1170.0" stroke="#F7B041" stroke-opacity="0.16" stroke-width="1.4"/><line x1="0" y1="1270.0" x2="1080" y2="1270.0" stroke="#F7B041" stroke-opacity="0.16" stroke-width="1.4"/><line x1="0" y1="1370.0" x2="1080" y2="1370.0" stroke="#F7B041" stroke-opacity="0.16" stroke-width="1.4"/></g><rect width="1080" height="1350" fill="url(#g9003_vig)"/></svg>