<svg class="bgsvg" viewBox="0 0 1080 1350" preserveAspectRatio="xMidYMid slice" xmlns="http://www.w3.org/2000/svg"><rect width="1080" height="1350" fill="#0A0B10"/><defs><radialGradient id="g9011_g" cx="0" cy="0" r="1" gradientUnits="userSpaceOnUse" gradientTransform="translate(540 700) scale(760)"><stop offset="0" stop-color="#0B86D1" stop-opacity="0.22"/><stop offset="0.6" stop-color="#0B86D1" stop-opacity="0.05"/><stop offset="1" stop-color="#0B86D1" stop-opacity="0"/></radialGradient><linearGradient id="g9011_sweep" x1="540" y1="700" x2="1020" y2="360" gradientUnits="userSpaceOnUse"><stop offset="0" stop-color="#0B86D1" stop-opacity="0.32"/><stop offset="1" stop-color="#0B86D1" stop-opacity="0"/></linearGradient><radialGradient id="g9011_blip" cx="0" cy="0" r="1" gradientUnits="userSpaceOnUse" gradientTransform="translate(0 0) scale(1)"><stop offset="0" stop-color="#3BABFF" stop-opacity="1"/><stop offset="1" stop-color="#3BABFF" stop-opacity="0"/></radialGradient><radialGradient id="g9011_vig" cx="0" cy="0" r="1" gradientUnits="userSpaceOnUse" gradientTransform="translate(540 675) scale(760)"><stop offset="0" stop-color="#000000" stop-opacity="0"/><stop offset="0.68" stop-color="#000000" stop-opacity="0"/><stop offset="1" stop-color="#000000" stop-opacity="0.55"/></radialGradient></defs><rect width="1080" height="1350" fill="#08120F"/><rect width="1080" height="1350" fill="url(#g9011_g)"/><g><line x1="540" y1="700" x2="1340.0" y2="700.0" stroke="#0092FF" stroke-opacity="0.1" stroke-width="1"/><line x1="540" y1="700" x2="1232.8" y2="1100.0" stroke="#0092FF" stroke-opacity="0.1" stroke-width="1"/><line x1="540" y1="700" x2="940.0" y2="1392.8" stroke="#0092FF" stroke-opacity="0.1" stroke-width="1"/><line x1="540" y1="700" x2="540.0" y2="1500.0" stroke="#0092FF" stroke-opacity="0.1" stroke-width="1"/><line x1="540" y1="700" x2="140.0" y2="1392.8" stroke="#0092FF" stroke-opacity="0.1" stroke-width="1"/><line x1="540" y1="700" x2="-152.8" y2="1100.0" stroke="#0092FF" stroke-opacity="0.1" stroke-width="1"/><line x1="540" y1="700" x2="-260.0" y2="700.0" stroke="#0092FF" stroke-opacity="0.1" stroke-width="1"/><line x1="540" y1="700" x2="-152.8" y2="300.0" stroke="#0092FF" stroke-opacity="0.1" stroke-width="1"/><line x1="540" y1="700" x2="140.0" y2="7.2" stroke="#0092FF" stroke-opacity="0.1" stroke-width="1"/><line x1="540" y1="700" x2="540.0" y2="-100.0" stroke="#0092FF" stroke-opacity="0.1" stroke-width="1"/><line x1="540" y1="700" x2="940.0" y2="7.2" stroke="#0092FF" stroke-opacity="0.1" stroke-width="1"/><line x1="540" y1="700" x2="1232.8" y2="300.0" stroke="#0092FF" stroke-opacity="0.1" stroke-width="1"/></g><g><circle cx="540" cy="700" r="130" fill="none" stroke="#0092FF" stroke-opacity="0.255" stroke-width="1.2"/><circle cx="540" cy="700" r="260" fill="none" stroke="#0092FF" stroke-opacity="0.230" stroke-width="1.2"/><circle cx="540" cy="700" r="390" fill="none" stroke="#0092FF" stroke-opacity="0.205" stroke-width="1.2"/><circle cx="540" cy="700" r="520" fill="none" stroke="#0092FF" stroke-opacity="0.180" stroke-width="1.2"/><circle cx="540" cy="700" r="650" fill="none" stroke="#0092FF" stroke-opacity="0.155" stroke-width="1.2"/><circle cx="540" cy="700" r="780" fill="none" stroke="#0092FF" stroke-opacity="0.130" stroke-width="1.2"/></g><path d="M540 700 L1340 580 A 810 810 0 0 0 1300 420 Z" fill="url(#g9011_sweep)"/><g><circle cx="874.2" cy="656.3" r="14" fill="url(#g9011_blip)" opacity="0.6"/><circle cx="874.2" cy="656.3" r="3" fill="#3BABFF"/><circle cx="626.7" cy="137.2" r="14" fill="url(#g9011_blip)" opacity="0.6"/><circle cx="626.7" cy="137.2" r="3" fill="#3BABFF"/><circle cx="328.3" cy="1070.3" r="14" fill="url(#g9011_blip)" opacity="0.6"/><circle cx="328.3" cy="1070.3" r="3" fill="#3BABFF"/><circle cx="-51.9" cy="686.8" r="14" fill="url(#g9011_blip)" opacity="0.6"/><circle cx="-51.9" cy="686.8" r="3" fill="#3BABFF"/><circle cx="465.8" cy="56.0" r="14" fill="url(#g9011_blip)" opacity="0.6"/><circle cx="465.8" cy="56.0" r="3" fill="#3BABFF"/><circle cx="-150.7" cy="717.4" r="14" fill="url(#g9011_blip)" opacity="0.6"/><circle cx="-150.7" cy="717.4" r="3" fill="#3BABFF"/></g><rect width="1080" height="1350" fill="url(#g9011_vig)"/></svg>