<svg class="bgsvg" viewBox="0 0 1080 1350" preserveAspectRatio="xMidYMid slice" xmlns="http://www.w3.org/2000/svg"><rect width="1080" height="1350" fill="#0A0B10"/><defs><radialGradient id="g9010_tl" cx="0" cy="0" r="1" gradientUnits="userSpaceOnUse" gradientTransform="translate(220 240) scale(800)"><stop offset="0" stop-color="#0B86D1" stop-opacity="0.26"/><stop offset="0.6" stop-color="#0B86D1" stop-opacity="0.06"/><stop offset="1" stop-color="#0B86D1" stop-opacity="0"/></radialGradient><radialGradient id="g9010_vig" cx="0" cy="0" r="1" gradientUnits="userSpaceOnUse" gradientTransform="translate(540 675) scale(760)"><stop offset="0" stop-color="#000000" stop-opacity="0"/><stop offset="0.68" stop-color="#000000" stop-opacity="0"/><stop offset="1" stop-color="#000000" stop-opacity="0.55"/></radialGradient></defs><rect width="1080" height="1350" fill="#08120F"/><rect width="1080" height="1350" fill="url(#g9010_tl)"/><g><polyline points="428.1,760.0 429.8,762.1 431.1,764.3 431.9,766.7 431.9,769.1 431.3,771.4 430.0,773.4 428.3,775.1 426.3,776.6 424.2,777.9 422.1,779.0 420.2,780.1 418.3,781.3 416.5,782.4 414.6,783.5 412.7,784.4 410.6,785.1 408.5,785.4 406.2,785.2 404.0,784.7 401.9,783.9 400.0,782.9 398.2,781.9 396.6,781.1 394.9,780.7 393.1,780.6 391.2,780.8 389.0,781.2 386.6,781.5 384.0,781.7 381.5,781.5 379.1,780.8 377.1,779.7 375.5,778.1 374.5,776.1 373.8,774.0 373.5,771.8 373.4,769.7 373.2,767.6 373.0,765.7 372.7,763.8 372.3,761.9 371.9,760.0 371.7,758.0 371.8,756.1 372.2,754.1 373.1,752.3 374.4,750.7 375.9,749.3 377.5,748.0 379.1,746.8 380.6,745.6 381.7,744.3 382.7,742.7 383.5,740.9 384.3,738.7 385.4,736.5 386.6,734.3 388.3,732.4 390.3,730.9 392.6,730.0 395.1,729.7 397.6,730.1 400.0,730.9 402.3,732.0 404.3,733.3 406.3,734.6 408.1,735.7 409.9,736.7 411.7,737.6 413.4,738.5 415.1,739.4 416.7,740.6 418.0,742.0 419.0,743.6 419.7,745.4 420.1,747.3 420.3,749.1 420.6,750.8 421.0,752.4 421.7,753.8 422.9,755.2 424.4,756.6 426.2,758.2 428.1,760.0" fill="none" stroke="#0092FF" stroke-opacity="0.34" stroke-width="1.8"/><polyline points="457.8,760.0 461.0,764.2 464.1,768.9 466.7,774.1 468.2,779.5 468.3,784.8 466.9,789.8 464.0,794.2 459.8,797.7 454.7,800.4 449.2,802.3 443.7,803.6 438.5,804.7 433.7,805.8 429.3,807.0 425.2,808.5 421.3,810.2 417.2,811.7 413.0,812.9 408.7,813.6 404.3,813.5 400.0,812.6 395.9,811.2 392.0,809.4 388.3,807.5 384.7,806.0 381.0,804.9 376.9,804.3 372.4,804.2 367.4,804.3 362.0,804.2 356.4,803.5 351.1,802.0 346.5,799.5 342.9,796.0 340.6,791.8 339.5,787.0 339.5,782.0 340.3,777.0 341.5,772.4 342.7,768.0 343.6,763.9 344.0,760.0 343.9,756.1 343.6,752.1 343.4,748.0 343.6,743.9 344.4,739.8 346.1,736.0 348.5,732.5 351.5,729.4 354.9,726.7 358.2,724.1 361.5,721.5 364.4,718.7 367.1,715.4 369.8,711.6 372.6,707.4 375.9,703.1 379.7,699.1 384.2,695.9 389.2,693.8 394.6,693.2 400.0,694.0 405.2,696.2 409.9,699.4 414.0,703.3 417.6,707.3 420.7,711.1 423.7,714.4 426.7,717.2 429.9,719.5 433.2,721.5 436.5,723.5 439.8,725.8 442.7,728.4 445.2,731.5 447.0,734.9 448.2,738.5 449.1,742.2 449.9,745.7 451.0,749.2 452.6,752.7 454.9,756.2 457.8,760.0" fill="none" stroke="#0092FF" stroke-opacity="0.16" stroke-width="1"/><polyline points="826.0,480.0 826.2,483.2 826.3,486.5 826.0,489.7 825.1,492.9 823.5,495.8 821.1,498.3 818.2,500.4 814.7,501.9 811.2,503.0 807.7,503.8 804.6,504.6 801.9,505.5 799.7,506.8 797.8,508.6 796.0,510.8 794.2,513.4 792.0,516.1 789.5,518.6 786.6,520.5 783.4,521.8 780.0,522.3 776.6,522.0 773.3,521.1 770.2,519.7 767.3,518.2 764.5,516.6 761.7,515.2 758.9,513.9 755.9,512.7 753.0,511.3 750.2,509.7 747.7,507.8 745.7,505.4 744.3,502.6 743.6,499.5 743.5,496.3 743.8,493.2 744.3,490.2 744.6,487.5 744.6,484.9 743.9,482.5 742.7,480.0 741.0,477.3 739.1,474.3 737.4,471.0 736.1,467.5 735.6,463.9 735.9,460.4 737.3,457.1 739.4,454.4 742.1,452.0 745.3,450.2 748.5,448.6 751.8,447.2 754.9,445.9 757.9,444.5 760.8,443.1 763.8,441.9 767.0,440.8 770.2,440.3 773.6,440.4 776.9,441.2 780.0,442.6 782.9,444.5 785.4,446.7 787.7,448.9 789.7,450.7 791.8,452.1 794.1,452.8 796.8,453.0 800.0,452.9 803.5,452.7 807.4,452.6 811.4,453.0 815.1,454.1 818.4,455.8 821.0,458.1 822.9,460.9 824.2,464.0 824.8,467.2 825.2,470.4 825.4,473.7 825.7,476.8 826.0,480.0" fill="none" stroke="#0092FF" stroke-opacity="0.16" stroke-width="1"/><polyline points="489.6,760.0 491.8,766.4 494.5,773.2 497.3,780.6 499.7,788.5 501.0,796.7 500.7,804.9 498.4,812.6 493.9,819.3 487.4,824.6 479.4,828.2 470.4,830.3 461.2,831.1 452.3,831.1 444.2,830.8 436.9,830.9 430.4,831.7 424.4,833.2 418.6,835.3 412.7,837.7 406.5,839.9 400.0,841.4 393.4,841.9 386.8,841.2 380.4,839.4 374.4,836.9 368.6,834.0 363.0,831.1 357.2,828.6 351.0,826.6 344.1,824.9 336.7,823.2 328.9,821.1 321.2,818.2 314.2,814.2 308.6,808.9 304.8,802.5 303.1,795.2 303.5,787.6 305.6,780.0 308.8,772.7 312.4,766.1 315.7,760.0 318.1,754.3 319.5,748.8 319.9,743.1 319.7,737.1 319.3,730.7 319.3,724.0 320.3,717.4 322.5,711.1 326.0,705.4 330.6,700.4 336.0,696.1 341.7,692.3 347.5,688.7 353.2,684.9 358.8,680.7 364.4,676.1 370.4,671.2 376.9,666.4 384.1,662.3 391.9,659.5 400.0,658.5 408.1,659.7 415.8,663.0 422.6,668.3 428.4,674.8 433.0,682.0 436.8,689.2 440.1,695.6 443.4,701.0 447.1,705.4 451.3,708.8 456.3,711.6 461.8,714.4 467.4,717.5 472.7,721.1 477.3,725.5 480.9,730.6 483.5,736.1 485.3,742.0 486.7,747.9 488.0,753.9 489.6,760.0" fill="none" stroke="#0092FF" stroke-opacity="0.16" stroke-width="1"/><polyline points="849.7,480.0 848.1,484.7 846.7,489.3 845.6,493.9 844.4,498.4 842.9,502.9 840.9,507.2 838.2,511.1 834.6,514.5 830.3,517.2 825.6,519.1 820.6,520.5 815.8,521.6 811.4,522.6 807.5,524.0 804.0,526.1 800.7,528.9 797.5,532.4 793.9,536.3 789.8,540.2 785.1,543.6 780.0,546.0 774.6,547.1 769.1,546.8 763.9,545.1 759.2,542.4 755.0,538.9 751.3,535.1 747.9,531.4 744.7,528.0 741.3,524.9 737.8,522.1 734.1,519.4 730.5,516.5 727.2,513.3 724.4,509.7 722.5,505.6 721.5,501.3 721.3,496.8 721.7,492.3 722.3,488.1 722.7,484.0 722.5,480.0 721.6,475.9 720.0,471.6 717.9,466.9 715.7,461.6 713.9,456.0 713.0,450.1 713.4,444.4 715.3,439.2 718.7,434.7 723.3,431.3 728.8,428.9 734.7,427.4 740.7,426.6 746.4,426.2 751.8,425.8 756.8,425.2 761.5,424.5 766.1,423.7 770.7,422.9 775.4,422.6 780.0,423.0 784.5,424.1 788.8,426.0 792.7,428.6 796.2,431.4 799.4,434.2 802.6,436.6 805.9,438.4 809.8,439.5 814.4,440.0 819.8,440.3 825.8,440.6 832.2,441.5 838.4,443.2 843.9,445.8 848.5,449.5 851.6,454.0 853.2,459.1 853.6,464.5 852.8,469.8 851.4,475.0 849.7,480.0" fill="none" stroke="#0092FF" stroke-opacity="0.16" stroke-width="1"/><polyline points="529.3,760.0 529.3,769.0 529.0,778.0 528.9,787.2 528.9,796.8 528.9,806.9 528.3,817.2 526.5,827.6 522.7,837.5 516.7,846.2 508.5,853.2 498.2,858.0 486.5,860.4 474.2,860.8 462.1,859.6 450.8,857.6 440.6,855.8 431.6,854.8 423.5,855.2 415.8,857.2 408.1,860.3 400.0,864.1 391.3,867.7 382.0,870.4 372.5,871.6 363.1,870.9 354.1,868.3 345.7,864.3 338.0,859.4 330.8,854.0 323.6,848.7 316.2,843.6 308.3,838.8 299.8,834.0 291.2,828.7 282.9,822.6 275.8,815.4 270.6,807.0 268.0,797.7 268.0,787.9 270.7,778.0 275.4,768.6 281.3,760.0 287.3,752.2 292.5,745.0 296.3,738.1 298.4,731.0 299.0,723.3 298.5,714.8 297.9,705.4 298.0,695.6 299.5,685.8 302.8,676.5 308.1,668.3 315.2,661.5 323.5,656.1 332.6,651.9 342.0,648.6 351.5,645.5 360.8,642.3 370.2,638.9 379.7,635.4 389.7,632.2 400.0,629.8 410.6,629.1 421.1,630.6 430.9,634.5 439.7,640.9 446.9,649.4 452.5,659.1 456.7,669.1 459.9,678.7 462.8,687.1 466.2,693.9 470.8,699.2 476.8,703.3 484.2,706.8 492.7,710.5 501.6,714.7 510.0,720.0 517.3,726.5 523.0,734.0 526.7,742.3 528.7,751.1 529.3,760.0" fill="none" stroke="#0092FF" stroke-opacity="0.16" stroke-width="1"/><polyline points="877.9,480.0 873.6,486.5 869.1,492.4 864.9,497.9 861.3,503.2 858.5,508.5 856.0,513.9 853.6,519.3 850.8,524.7 847.4,529.7 843.0,534.2 837.9,537.7 832.0,540.4 825.9,542.4 819.8,543.8 814.0,545.3 808.5,547.1 803.2,549.7 798.0,553.0 792.5,557.1 786.6,561.4 780.0,565.5 772.8,568.7 765.3,570.4 757.8,570.2 750.7,568.0 744.4,564.0 739.1,558.7 734.8,552.4 731.4,546.0 728.4,539.9 725.5,534.4 722.3,529.5 718.6,525.3 714.4,521.4 710.0,517.4 705.6,513.2 701.7,508.5 698.7,503.2 696.9,497.6 696.1,491.7 696.3,485.8 696.9,480.0 697.5,474.3 697.7,468.5 697.3,462.5 696.3,456.1 695.0,449.1 693.8,441.6 693.5,433.7 694.4,426.0 697.1,418.8 701.6,412.7 707.9,408.1 715.6,405.2 724.1,404.0 732.8,404.3 741.2,405.4 749.0,407.0 756.1,408.3 762.5,409.2 768.5,409.4 774.3,409.0 780.0,408.3 785.8,407.8 791.7,407.8 797.6,408.7 803.2,410.5 808.4,413.1 813.2,416.2 817.8,419.4 822.3,422.5 827.3,425.1 832.9,427.2 839.4,428.9 846.9,430.6 854.9,432.7 863.0,435.6 870.5,439.6 876.8,444.8 881.3,451.1 883.5,458.1 883.5,465.6 881.5,473.0 877.9,480.0" fill="none" stroke="#0092FF" stroke-opacity="0.16" stroke-width="1"/><polyline points="574.8,760.0 575.0,772.1 572.8,784.1 568.9,795.7 564.2,806.9 559.3,817.9 554.5,828.9 549.8,840.1 544.6,851.3 538.5,862.3 530.8,872.3 521.1,880.9 509.5,887.1 496.3,890.7 482.1,891.6 467.7,890.1 453.9,887.1 441.2,883.6 429.7,880.6 419.4,879.2 409.7,879.9 400.0,882.7 389.7,887.1 378.5,892.3 366.2,897.0 353.3,900.2 340.2,901.1 327.6,899.3 316.0,894.7 305.9,887.8 297.3,879.2 289.9,869.9 283.1,860.4 276.4,851.2 269.5,842.4 262.1,833.7 254.5,824.9 247.3,815.5 241.3,805.3 237.4,794.4 236.2,782.9 238.1,771.2 242.7,760.0 249.4,749.6 257.2,740.1 264.8,731.4 271.3,723.2 275.9,714.9 278.5,705.8 279.3,695.5 279.2,683.7 279.2,670.8 280.5,657.3 283.8,644.1 289.8,632.0 298.3,621.9 309.2,614.4 321.7,609.4 335.1,606.8 348.6,605.8 362.0,605.8 375.0,606.1 387.6,606.3 400.0,606.2 412.4,606.2 424.9,607.0 437.2,609.1 448.9,613.3 459.4,619.9 468.3,628.7 475.2,639.3 480.3,651.0 483.8,662.7 486.6,673.6 489.7,682.9 494.0,690.6 500.3,696.7 508.9,701.8 519.6,706.7 531.6,712.2 544.0,718.9 555.5,727.1 564.9,737.0 571.5,748.1 574.8,760.0" fill="none" stroke="#0092FF" stroke-opacity="0.16" stroke-width="1"/><polyline points="909.0,480.0 903.8,488.6 896.9,496.3 889.3,503.1 881.8,509.1 875.3,514.6 869.9,520.1 865.7,525.8 862.4,532.0 859.5,538.7 856.3,545.5 852.3,552.2 847.3,558.2 841.2,563.1 834.2,566.9 826.5,569.5 818.7,571.3 810.9,572.7 803.2,574.2 795.7,576.2 788.0,578.9 780.0,582.2 771.5,585.5 762.4,588.3 752.9,589.9 743.5,589.7 734.6,587.2 726.7,582.5 720.3,575.8 715.4,567.7 712.1,558.9 709.8,550.1 707.8,542.0 705.7,534.9 702.8,528.7 698.8,523.4 693.6,518.5 687.7,513.5 681.7,508.1 676.1,502.0 671.6,495.1 668.6,487.7 667.3,480.0 667.4,472.2 668.7,464.5 670.4,456.8 672.2,449.2 673.8,441.4 675.0,433.2 676.2,424.5 677.7,415.4 680.3,406.4 684.3,397.8 690.1,390.3 697.9,384.7 707.2,381.2 717.7,380.1 728.6,381.1 739.3,383.9 749.2,387.6 758.2,391.4 766.1,394.5 773.2,396.5 780.0,397.2 786.7,396.7 793.8,395.4 801.2,394.0 808.9,393.1 816.8,393.2 824.4,394.6 831.6,397.3 838.2,400.9 844.4,405.2 850.5,409.7 856.7,414.1 863.5,418.3 871.1,422.5 879.3,426.9 888.0,431.8 896.4,437.7 903.7,444.7 909.1,452.7 911.9,461.6 911.9,470.8 909.0,480.0" fill="none" stroke="#0092FF" stroke-opacity="0.16" stroke-width="1"/><polyline points="615.7,760.0 620.8,775.3 621.1,790.9 617.0,805.8 609.3,819.8 599.3,832.4 588.2,843.9 577.0,854.6 566.3,865.0 556.2,875.4 546.4,885.8 536.3,896.0 525.3,905.4 512.9,913.3 499.1,918.9 484.1,921.8 468.6,921.8 453.1,919.4 438.3,915.5 424.6,911.4 412.0,908.1 400.0,906.8 388.0,907.8 375.4,911.1 361.6,915.9 346.3,921.2 329.8,925.5 312.8,927.6 296.3,926.4 281.1,921.5 268.1,913.1 257.9,901.8 250.3,888.6 244.9,874.5 240.9,860.5 237.3,847.0 233.3,834.3 228.6,822.3 223.3,810.5 217.9,798.5 213.3,786.1 210.4,773.2 210.0,760.0 212.6,747.0 218.0,734.6 225.6,723.1 234.2,712.6 242.7,702.8 250.0,693.1 255.6,682.8 259.3,671.2 261.6,657.8 263.4,642.6 266.0,626.3 270.4,609.6 277.7,593.9 288.0,580.4 301.3,570.3 317.0,564.2 334.0,562.0 351.5,563.4 368.6,567.3 384.8,572.7 400.0,578.4 414.3,583.6 428.0,588.1 441.4,592.0 454.7,595.8 467.7,600.4 479.9,606.4 490.9,614.3 500.1,624.1 507.2,635.5 512.4,647.8 516.3,660.1 519.8,671.5 524.1,681.7 530.1,690.4 538.8,698.1 550.2,705.4 563.9,713.2 578.8,722.2 593.5,733.0 606.3,745.7 615.7,760.0" fill="none" stroke="#0092FF" stroke-opacity="0.34" stroke-width="1.8"/><polyline points="935.8,480.0 932.9,490.6 926.9,500.5 918.6,509.3 908.7,516.8 898.5,523.1 889.0,528.6 880.8,533.9 874.3,539.5 869.3,546.0 865.5,553.5 862.1,561.9 858.2,570.8 853.3,579.6 847.0,587.5 839.3,593.9 830.3,598.6 820.4,601.3 810.2,602.5 800.0,602.7 789.9,602.5 780.0,602.4 770.1,602.8 759.9,603.5 749.4,604.3 738.5,604.6 727.6,603.6 717.2,600.7 707.8,595.7 700.1,588.5 694.3,579.5 690.5,569.3 688.4,558.7 687.3,548.4 686.3,539.1 684.6,531.0 681.5,523.9 676.5,517.6 669.9,511.5 662.0,504.9 653.9,497.6 646.5,489.3 640.6,480.0 637.1,470.1 636.0,459.9 637.4,449.9 640.6,440.2 645.2,431.0 650.3,422.2 655.5,413.5 660.7,404.7 665.8,395.7 671.3,386.6 677.6,377.8 685.1,369.8 694.2,363.5 704.7,359.3 716.4,357.7 728.7,358.9 740.8,362.4 752.3,367.5 762.6,373.3 771.8,378.8 780.0,382.9 787.7,385.2 795.4,385.6 803.6,384.3 812.7,381.9 822.6,379.4 833.2,377.7 843.9,377.5 854.3,379.1 863.8,382.7 872.3,387.9 879.7,394.3 886.4,401.5 892.7,408.9 899.1,416.3 905.9,423.9 913.1,431.6 920.4,439.9 927.1,448.9 932.5,458.7 935.6,469.2 935.8,480.0" fill="none" stroke="#0092FF" stroke-opacity="0.34" stroke-width="1.8"/><polyline points="644.4,760.0 655.5,777.7 661.8,796.5 662.4,815.5 657.1,833.4 646.4,849.6 631.8,863.3 614.6,874.7 596.7,884.2 579.3,892.4 563.3,900.3 548.8,908.5 535.4,917.2 522.6,926.4 509.4,935.5 495.4,943.5 480.3,949.5 464.3,952.9 447.7,953.4 431.2,951.4 415.2,947.6 400.0,943.4 385.4,939.8 371.0,937.9 356.1,938.2 339.9,940.4 322.2,943.7 302.8,946.8 282.6,948.3 262.5,946.8 243.7,941.4 227.8,931.9 215.5,918.5 207.4,902.2 203.2,884.2 202.1,865.8 202.7,848.0 203.6,831.4 203.7,816.1 202.3,801.8 199.2,788.0 195.0,774.2 190.8,760.0 187.7,745.3 186.8,730.2 188.9,715.4 193.9,701.1 201.4,687.8 210.6,675.5 220.1,663.8 229.2,652.1 237.0,639.6 243.6,625.7 249.5,609.9 255.7,592.4 263.1,574.1 273.0,556.3 285.8,540.4 301.7,528.1 320.2,520.6 340.5,518.4 361.2,521.5 381.3,529.0 400.0,539.4 416.9,551.3 432.1,562.9 446.0,573.3 459.4,581.8 472.6,588.7 486.1,594.4 499.8,600.0 513.2,606.3 525.6,614.2 536.5,623.8 545.4,635.1 552.4,647.5 558.0,660.3 563.2,672.8 569.1,684.6 576.9,695.7 587.2,706.5 600.1,717.7 614.9,730.0 630.3,744.0 644.4,760.0" fill="none" stroke="#0092FF" stroke-opacity="0.16" stroke-width="1"/><polyline points="953.0,480.0 953.3,492.0 950.9,503.8 945.4,515.0 937.2,524.9 926.7,533.3 915.1,540.3 903.5,546.0 892.7,551.2 883.6,556.5 876.4,562.8 870.7,570.5 865.9,579.8 861.2,590.3 855.8,601.5 848.8,612.3 840.1,621.7 829.6,628.8 817.8,633.2 805.2,634.8 792.5,633.8 780.0,631.1 768.1,627.4 756.6,623.6 745.5,620.1 734.3,617.2 723.0,614.5 711.5,611.7 700.2,607.9 689.7,602.7 680.4,595.6 673.0,586.8 667.8,576.4 664.8,565.1 663.4,553.6 662.9,542.6 662.0,532.6 660.0,523.6 656.0,515.4 649.7,507.5 641.4,499.3 631.9,490.3 622.3,480.0 614.0,468.5 608.1,456.0 605.5,443.1 606.5,430.4 610.8,418.5 618.0,407.8 627.0,398.2 637.0,389.7 647.2,381.9 657.1,374.4 666.7,367.0 676.3,359.6 686.1,352.5 696.6,346.2 708.0,341.6 720.3,339.2 733.2,339.4 746.0,342.2 758.4,347.3 769.8,353.7 780.0,360.5 789.2,366.4 797.8,370.6 806.5,372.6 815.9,372.2 826.6,370.1 838.7,367.1 852.1,364.4 866.2,362.9 880.2,363.6 893.3,366.9 904.7,372.9 914.0,381.0 921.2,390.8 926.7,401.6 931.0,412.7 934.8,423.8 938.6,434.7 942.7,445.6 946.9,456.7 950.6,468.2 953.0,480.0" fill="none" stroke="#0092FF" stroke-opacity="0.16" stroke-width="1"/><polyline points="665.9,760.0 678.0,779.3 688.0,800.2 693.9,822.1 694.3,844.0 688.2,864.7 675.9,883.0 658.1,898.0 636.6,909.3 613.1,917.4 589.7,923.0 567.9,927.5 548.3,932.2 531.1,938.0 515.7,945.6 501.3,954.7 486.7,964.6 471.3,974.1 454.7,982.0 437.0,987.2 418.5,989.2 400.0,988.0 381.9,984.3 364.3,979.2 347.2,974.0 330.1,969.7 312.3,966.9 293.2,965.4 272.6,964.4 250.7,962.8 228.5,959.1 207.4,952.2 188.8,941.4 174.4,926.6 165.0,908.3 161.0,887.8 161.7,866.3 165.9,845.1 171.7,825.2 177.2,807.1 180.8,790.6 181.7,775.1 179.6,760.0 175.3,744.4 170.1,727.9 165.6,710.5 163.4,692.4 164.4,674.4 169.1,657.0 177.2,640.9 188.0,626.1 200.2,612.4 212.8,599.2 225.2,585.6 237.2,571.0 249.0,555.0 261.5,537.9 275.5,520.7 291.8,504.8 310.7,491.8 331.8,483.5 354.6,481.0 377.7,484.7 400.0,494.2 420.4,508.4 438.2,525.2 453.5,542.8 466.9,559.2 479.2,573.2 491.5,584.1 504.7,592.1 519.2,598.2 534.9,603.4 551.1,609.2 566.9,616.6 581.4,626.1 593.7,637.7 603.6,651.1 611.6,665.7 618.3,680.7 625.0,695.7 632.7,710.8 642.2,726.2 653.5,742.4 665.9,760.0" fill="none" stroke="#0092FF" stroke-opacity="0.16" stroke-width="1"/><polyline points="964.1,480.0 964.4,492.8 964.0,505.7 962.2,518.5 958.0,530.9 951.3,542.2 942.0,552.2 930.8,560.6 918.5,567.4 906.2,573.2 894.7,578.6 884.7,584.5 876.2,591.7 869.0,600.8 862.1,611.7 854.9,623.9 846.3,636.5 836.0,648.2 823.8,657.6 809.9,663.8 795.1,666.2 780.0,664.8 765.4,660.0 751.9,652.8 739.5,644.4 728.1,635.9 717.2,628.0 706.6,621.2 695.7,615.2 684.5,609.7 673.3,603.9 662.6,597.2 653.1,589.1 645.4,579.4 639.8,568.5 636.5,556.7 634.7,544.8 633.7,533.2 632.3,522.2 629.5,511.8 624.7,501.7 617.6,491.3 608.6,480.0 598.9,467.4 589.8,453.4 582.7,438.3 579.0,422.6 579.6,407.2 584.6,392.9 593.8,380.5 606.2,370.3 620.7,362.4 636.0,356.3 651.2,351.5 665.5,347.1 678.9,342.7 691.5,338.1 703.7,333.3 716.0,328.9 728.6,325.6 741.6,324.1 754.7,324.8 767.7,328.0 780.0,333.1 791.4,339.4 801.8,346.0 811.7,351.6 821.5,355.4 832.1,357.1 844.1,356.8 858.0,355.0 873.6,352.8 890.6,351.6 908.0,352.3 924.6,355.8 939.1,362.5 950.8,372.2 959.0,384.3 963.8,398.1 965.8,412.5 965.9,426.9 965.0,440.9 964.2,454.3 963.9,467.2 964.1,480.0" fill="none" stroke="#0092FF" stroke-opacity="0.16" stroke-width="1"/><polyline points="695.6,760.0 701.3,780.9 707.4,802.9 712.6,826.1 715.4,850.1 713.9,874.1 707.0,896.9 693.9,917.1 675.0,933.6 651.4,945.6 624.9,953.2 597.4,957.0 571.0,958.6 546.9,959.6 525.8,961.7 507.3,966.4 490.7,974.0 474.8,984.5 458.3,996.5 440.5,1008.6 421.0,1019.0 400.0,1026.1 378.2,1029.0 356.5,1027.5 335.4,1022.2 315.3,1014.3 296.1,1005.0 277.4,995.7 258.4,987.1 238.5,979.3 217.6,971.8 195.9,963.7 174.5,953.7 154.9,941.0 138.8,924.9 127.6,905.6 122.3,883.8 122.8,860.7 128.3,837.6 137.0,815.6 146.8,795.3 155.3,777.0 160.9,760.0 162.4,743.5 159.9,726.5 154.5,708.1 147.8,688.0 142.1,666.3 139.1,643.7 140.3,621.2 146.5,599.9 157.3,580.8 172.0,564.1 189.3,549.7 207.9,537.0 227.0,525.0 246.0,513.0 265.0,500.3 284.4,487.3 304.9,474.7 327.0,463.8 350.6,456.3 375.2,453.8 400.0,457.3 423.7,467.0 445.2,482.3 463.7,501.7 479.0,523.0 491.5,544.1 502.5,562.9 513.4,578.2 525.5,589.6 540.0,597.4 557.3,603.0 577.0,607.9 598.1,613.8 619.0,621.8 638.1,632.7 654.3,646.6 666.8,663.0 675.8,681.2 682.0,700.4 686.6,720.0 690.8,739.8 695.6,760.0" fill="none" stroke="#0092FF" stroke-opacity="0.16" stroke-width="1"/><polyline points="980.0,480.0 975.3,493.5 972.0,506.8 969.7,520.1 967.7,533.6 964.9,547.2 960.3,560.4 953.4,572.7 944.1,583.6 932.7,592.7 920.0,600.3 906.9,606.6 894.2,612.6 882.5,619.1 871.6,627.0 861.4,636.6 851.1,647.8 840.0,660.0 827.3,672.1 813.0,682.5 797.0,689.9 780.0,693.2 762.9,691.9 746.5,686.0 731.6,676.3 718.6,664.2 707.5,651.0 697.8,638.0 688.7,626.4 679.5,616.5 669.5,608.3 658.5,601.2 646.9,594.4 635.1,587.0 624.2,578.4 614.8,568.3 607.5,556.9 602.6,544.5 599.5,531.5 597.6,518.5 595.8,505.7 593.1,493.0 588.7,480.0 582.7,466.3 575.4,451.5 568.1,435.2 562.0,417.7 558.9,399.6 559.8,381.8 565.5,365.3 576.1,351.3 590.9,340.4 608.8,332.9 628.3,328.6 648.0,326.8 666.8,326.3 684.0,326.0 699.5,325.2 713.5,323.2 726.7,320.1 739.7,316.5 752.8,313.2 766.3,311.0 780.0,310.7 793.5,312.6 806.6,316.6 818.9,322.1 830.6,328.0 842.1,333.6 853.9,337.9 866.9,340.6 881.7,341.9 898.5,342.5 916.9,343.3 936.3,345.7 955.3,350.5 972.5,358.5 986.4,369.7 995.9,383.7 1000.8,399.8 1001.1,416.8 997.9,434.0 992.3,450.4 985.9,465.7 980.0,480.0" fill="none" stroke="#0092FF" stroke-opacity="0.16" stroke-width="1"/><polyline points="744.3,760.0 741.0,783.7 737.2,807.1 733.8,830.5 730.7,854.5 727.0,878.8 721.5,903.3 712.5,927.0 698.9,948.7 680.3,967.0 657.0,980.8 630.1,989.6 601.3,993.7 572.5,994.2 545.2,992.9 520.6,991.9 498.8,993.2 479.3,998.0 460.9,1006.9 442.2,1019.3 422.1,1033.6 400.0,1047.8 375.8,1059.5 350.1,1066.8 324.0,1068.4 298.7,1064.1 275.2,1054.5 253.9,1040.9 234.8,1025.0 217.1,1008.4 200.0,992.2 182.7,976.9 164.6,962.3 146.0,947.6 127.8,931.8 111.5,914.2 98.7,894.4 90.8,872.3 88.8,848.9 92.5,825.0 100.9,801.7 111.9,780.0 123.4,760.0 132.9,741.5 138.6,723.5 139.7,705.0 136.6,684.8 130.6,662.1 123.9,636.9 118.8,609.7 117.7,581.8 122.2,554.9 132.8,530.4 149.3,509.8 170.5,493.5 194.9,481.5 220.9,472.8 247.3,466.3 273.2,460.8 298.5,455.2 323.4,449.4 348.6,444.0 374.1,439.9 400.0,438.7 425.7,441.9 450.4,450.3 472.9,464.2 492.4,482.8 508.3,504.6 520.9,527.5 531.4,549.3 541.2,568.3 552.2,583.3 566.0,594.3 583.8,602.1 605.6,608.2 630.6,614.4 657.2,622.5 683.1,633.8 706.2,648.7 724.5,667.3 737.1,688.8 743.9,712.0 745.8,736.0 744.3,760.0" fill="none" stroke="#0092FF" stroke-opacity="0.16" stroke-width="1"/><polyline points="1008.4,480.0 997.0,495.1 986.9,508.9 979.0,522.1 973.6,535.3 970.1,549.1 967.6,563.7 964.8,578.8 960.4,593.9 953.6,608.2 944.1,621.0 932.1,631.8 918.2,640.4 903.2,647.4 888.1,653.4 873.3,659.3 858.9,666.1 844.7,674.2 830.1,683.4 814.7,693.2 798.0,702.3 780.0,709.3 761.2,712.7 742.3,711.7 724.4,705.7 708.4,695.1 694.9,680.8 684.1,664.5 675.5,647.6 668.3,631.7 661.2,617.9 653.3,606.4 643.6,597.2 631.9,589.3 618.5,581.9 604.3,573.9 590.4,564.5 578.1,553.4 568.3,540.5 561.5,526.2 557.5,511.1 555.6,495.6 554.9,480.0 554.3,464.3 553.1,448.3 550.9,431.6 548.4,413.8 546.3,395.1 546.0,375.6 548.8,356.4 555.8,338.5 567.5,323.1 583.7,311.3 603.4,303.8 625.5,300.6 648.2,301.0 670.2,304.0 690.5,307.9 708.5,311.4 724.4,313.1 738.7,312.5 752.3,309.7 765.9,305.3 780.0,300.4 794.9,296.2 810.3,293.8 825.8,294.0 841.0,296.8 855.5,301.8 869.4,308.2 882.9,315.0 896.6,321.6 911.4,327.4 927.7,332.6 945.6,337.7 964.7,343.6 984.1,351.2 1002.1,361.2 1017.3,374.2 1028.2,389.8 1033.7,407.5 1033.6,426.4 1028.4,445.3 1019.5,463.4 1008.4,480.0" fill="none" stroke="#0092FF" stroke-opacity="0.16" stroke-width="1"/><polyline points="804.9,760.0 798.5,787.7 787.2,814.0 773.3,838.9 758.7,862.4 744.8,885.3 732.0,908.0 719.8,930.9 707.0,953.8 692.2,975.8 674.3,995.7 652.7,1012.2 627.5,1024.2 599.7,1031.2 570.7,1033.7 541.9,1032.9 514.8,1030.8 489.7,1029.4 466.8,1030.9 445.0,1036.4 423.2,1046.2 400.0,1059.4 374.6,1074.1 346.6,1087.8 316.7,1097.8 286.1,1102.0 256.2,1099.1 228.9,1089.0 205.2,1072.4 185.6,1051.2 169.8,1027.3 156.7,1002.8 145.0,979.1 133.2,957.0 120.5,936.5 106.6,916.8 92.4,897.1 79.2,876.6 68.6,854.6 62.3,831.4 61.2,807.3 65.4,783.2 73.9,760.0 84.9,738.1 96.1,717.6 105.4,697.7 111.1,677.5 112.7,655.6 110.7,631.0 106.8,603.2 103.2,572.6 102.6,540.4 107.2,508.5 118.4,479.0 136.5,454.1 160.9,435.2 189.9,423.1 221.8,417.3 254.5,416.6 286.5,419.2 317.0,423.2 345.8,427.1 373.3,430.1 400.0,432.2 426.3,434.5 452.4,438.3 477.7,444.9 501.4,455.6 522.7,470.6 540.7,489.4 555.4,510.7 567.3,532.8 577.7,553.7 588.4,572.0 601.5,586.9 618.5,598.6 640.4,608.2 666.8,617.4 696.5,627.8 726.9,641.2 755.4,658.5 779.1,679.9 795.8,704.8 804.4,731.9 804.9,760.0" fill="none" stroke="#0092FF" stroke-opacity="0.34" stroke-width="1.8"/><polyline points="1044.5,480.0 1030.9,497.4 1015.8,512.9 1001.2,526.8 988.7,539.6 979.3,552.4 973.0,566.1 969.2,581.2 966.6,597.8 963.6,615.6 958.8,633.6 951.0,650.7 940.0,665.7 925.7,677.9 909.1,687.0 890.9,693.2 872.2,697.4 853.5,700.6 835.2,703.8 817.1,707.7 798.8,712.3 780.0,717.2 760.5,721.4 740.4,723.5 720.3,722.2 701.2,716.6 684.0,706.5 669.6,692.2 658.4,675.0 650.2,656.3 644.2,637.7 639.0,620.7 633.2,606.1 625.4,594.2 614.6,584.4 600.8,575.8 584.4,567.2 566.7,557.5 549.4,545.9 534.3,531.9 522.6,515.9 515.2,498.4 512.1,480.0 512.6,461.4 515.8,443.1 520.3,425.1 525.1,407.2 529.8,389.1 534.4,370.5 539.6,351.5 546.4,332.6 555.9,314.6 569.0,298.7 585.8,286.2 606.0,278.0 628.8,274.6 652.7,275.8 676.3,280.5 698.3,287.3 718.1,294.3 735.6,299.8 751.1,302.4 765.6,301.5 780.0,297.4 795.3,291.1 811.9,283.9 829.9,277.6 848.8,273.6 867.8,272.9 886.1,275.9 903.3,282.2 919.1,291.1 933.7,301.5 947.8,312.5 962.2,323.5 977.4,334.3 993.6,345.2 1010.4,356.8 1026.8,369.9 1041.4,385.0 1052.6,402.1 1059.0,421.0 1059.7,441.0 1054.6,460.9 1044.5,480.0" fill="none" stroke="#0092FF" stroke-opacity="0.34" stroke-width="1.8"/><polyline points="856.1,760.0 856.5,791.7 847.2,822.4 830.0,850.9 807.3,876.3 782.2,898.9 757.2,919.3 734.0,938.5 713.4,957.8 695.0,977.8 677.6,998.5 659.6,1019.1 639.8,1038.4 617.2,1055.0 591.7,1067.4 563.9,1075.1 534.9,1078.2 505.9,1077.9 477.9,1076.1 451.2,1074.7 425.6,1075.8 400.0,1080.5 373.4,1088.8 344.7,1099.7 313.5,1111.1 279.9,1120.4 245.3,1124.9 211.4,1122.6 180.3,1112.4 153.8,1094.3 133.2,1069.7 118.8,1040.7 109.5,1009.6 103.9,978.7 99.7,949.6 94.8,923.1 87.9,899.2 78.4,876.9 66.9,855.1 54.7,833.0 43.8,809.7 36.2,785.2 33.3,760.0 35.5,734.7 42.3,710.1 52.1,686.5 63.0,663.8 73.1,641.2 80.9,617.7 85.8,592.1 88.6,563.4 90.8,531.7 94.7,497.7 102.5,463.2 116.2,430.5 136.6,402.3 163.6,380.9 196.1,368.0 232.1,363.8 269.3,367.6 305.7,377.5 339.9,390.9 371.3,405.2 400.0,418.3 426.8,429.0 452.6,436.9 478.1,443.0 503.7,448.8 528.9,455.9 553.0,465.8 575.0,479.3 594.2,496.2 610.3,515.8 624.0,536.5 636.5,556.8 649.7,575.6 665.5,592.4 685.3,607.5 709.9,621.8 738.5,637.0 769.3,654.5 799.5,675.6 826.0,700.5 845.6,729.1 856.1,760.0" fill="none" stroke="#0092FF" stroke-opacity="0.16" stroke-width="1"/><polyline points="1073.6,480.0 1065.0,499.8 1051.9,517.9 1035.9,534.1 1018.9,548.2 1003.0,561.0 989.6,573.5 979.6,586.7 972.8,601.7 968.3,619.0 964.5,638.5 959.8,659.4 952.6,680.4 941.8,699.7 927.2,716.0 909.1,728.1 888.3,735.6 866.2,738.8 843.7,738.5 821.7,736.3 800.5,733.3 780.0,730.7 759.9,728.9 739.7,727.7 719.3,726.2 698.9,723.4 679.1,718.1 660.8,709.3 644.9,696.7 632.1,680.9 622.6,662.7 616.1,643.6 611.3,625.0 606.6,608.0 600.5,593.3 591.3,580.9 578.4,569.9 561.7,559.3 542.2,547.9 521.7,534.6 502.3,518.8 486.1,500.4 475.0,480.0 469.8,458.5 470.6,436.8 476.7,415.9 486.7,396.2 499.0,377.9 512.2,360.6 525.4,343.9 538.1,327.3 550.9,310.8 564.3,294.7 579.4,279.8 596.7,267.2 616.5,258.0 638.6,253.2 661.9,253.0 685.5,257.1 708.1,264.2 728.9,272.8 747.6,280.7 764.3,286.3 780.0,288.2 795.7,286.0 812.5,280.2 831.2,272.2 852.1,263.7 874.6,256.8 897.9,253.2 920.9,254.1 942.2,259.7 961.0,269.9 977.0,283.4 990.4,299.2 1002.0,316.0 1012.9,333.0 1023.7,349.7 1035.2,366.2 1047.0,383.0 1058.5,400.5 1068.2,419.1 1074.8,438.9 1076.8,459.4 1073.6,480.0" fill="none" stroke="#0092FF" stroke-opacity="0.16" stroke-width="1"/><polyline points="882.1,760.0 893.2,794.2 894.0,828.9 883.8,862.2 863.6,892.4 835.6,918.3 802.9,939.6 768.8,957.1 736.1,972.2 706.9,986.6 681.7,1002.1 660.1,1019.6 640.6,1039.3 621.3,1060.5 600.5,1081.5 577.1,1100.5 550.7,1115.6 521.8,1125.7 491.3,1130.5 460.4,1130.9 429.8,1128.6 400.0,1125.5 370.6,1123.5 340.8,1123.8 309.6,1126.7 276.4,1131.0 241.1,1135.0 204.4,1136.2 168.0,1132.1 134.1,1121.2 105.0,1102.5 82.7,1076.6 68.2,1045.1 61.1,1010.2 60.0,974.6 62.5,940.4 65.6,909.1 66.7,881.1 63.8,856.0 56.2,832.6 44.6,809.6 30.7,785.6 17.1,760.0 6.1,732.7 -0.0,704.2 -0.3,675.4 5.2,647.3 15.4,620.2 28.5,594.3 42.5,568.9 56.1,542.9 68.6,515.3 80.4,485.4 92.7,453.3 107.2,420.1 125.9,387.7 149.9,358.9 179.7,336.4 214.6,322.5 252.9,318.5 292.6,324.5 331.5,338.9 367.6,359.3 400.0,382.5 428.7,405.2 454.6,424.8 478.9,440.0 503.1,450.4 528.4,457.2 554.9,462.1 582.4,467.4 609.8,475.1 635.7,486.3 659.0,501.6 679.0,520.3 696.0,541.4 711.2,563.5 726.2,585.6 742.8,607.1 762.4,628.3 785.5,649.9 811.4,673.0 838.2,698.9 862.8,727.9 882.1,760.0" fill="none" stroke="#0092FF" stroke-opacity="0.16" stroke-width="1"/><polyline points="1084.8,480.0 1084.1,501.1 1079.0,521.7 1069.2,541.1 1055.4,558.7 1039.0,574.1 1021.7,587.8 1005.5,600.5 991.5,613.5 980.3,627.9 971.8,644.8 964.7,664.3 957.6,686.2 948.8,709.2 936.9,731.6 921.1,751.3 901.4,766.4 878.5,775.8 853.7,778.9 828.2,776.3 803.4,769.4 780.0,759.7 758.2,749.1 737.8,739.2 718.2,730.8 698.7,723.9 679.1,717.9 659.5,711.8 640.2,704.1 622.3,694.1 606.7,681.2 594.1,665.5 584.5,647.9 577.6,629.5 572.1,611.3 566.4,594.2 558.7,578.7 547.8,564.4 533.0,550.6 514.6,536.1 493.9,519.9 473.1,501.3 454.7,480.0 441.0,456.5 433.9,431.7 434.4,407.0 442.3,383.6 456.6,362.5 475.3,344.1 496.6,328.5 518.4,314.9 539.5,302.4 559.3,290.4 577.8,278.3 595.8,266.2 614.1,254.7 633.4,244.9 654.1,237.9 676.0,234.6 698.5,235.4 720.8,239.9 742.1,247.1 761.8,255.1 780.0,262.3 797.2,266.9 814.5,267.8 833.0,264.8 853.7,258.8 877.0,251.1 902.8,243.9 930.1,239.4 957.4,239.1 983.0,244.4 1005.3,255.2 1023.2,271.0 1036.5,290.6 1045.6,312.3 1051.6,334.8 1056.0,356.9 1060.0,378.2 1064.8,398.7 1070.4,418.6 1076.5,438.6 1081.7,459.1 1084.8,480.0" fill="none" stroke="#0092FF" stroke-opacity="0.16" stroke-width="1"/><polyline points="890.0,760.0 904.4,795.0 913.0,831.6 913.2,868.5 903.4,903.8 883.1,935.6 853.8,962.4 817.9,983.4 778.7,999.0 739.5,1010.7 703.2,1020.5 671.5,1030.9 644.6,1044.0 621.7,1061.0 600.8,1082.0 579.9,1105.9 557.0,1130.5 531.0,1153.1 501.4,1171.4 468.9,1183.5 434.7,1188.8 400.0,1187.7 365.9,1181.9 332.7,1173.3 300.4,1164.2 268.1,1156.1 235.0,1149.4 200.5,1143.6 164.7,1137.3 128.7,1128.4 94.3,1114.9 63.8,1095.5 39.6,1069.7 23.3,1038.2 15.6,1002.7 15.8,965.4 21.8,928.7 30.4,894.3 38.2,863.3 42.2,835.6 40.3,810.2 31.8,785.5 17.8,760.0 0.7,732.3 -16.4,701.9 -30.3,669.1 -38.3,634.8 -38.6,600.6 -31.2,567.7 -16.9,537.1 2.5,509.0 24.7,482.9 48.2,457.7 71.7,432.4 95.1,406.0 119.3,378.8 145.3,351.5 174.4,326.2 207.3,305.4 244.0,291.7 283.4,287.1 323.9,292.7 363.4,308.0 400.0,331.2 432.4,359.2 460.5,388.5 484.9,415.6 507.3,437.9 529.7,453.9 554.0,463.8 581.4,469.2 611.9,472.2 644.8,475.8 678.4,482.2 710.5,493.2 739.3,509.4 763.6,530.5 783.2,555.2 798.8,582.2 812.2,610.2 825.1,638.6 839.3,667.2 855.3,696.5 872.7,727.2 890.0,760.0" fill="none" stroke="#0092FF" stroke-opacity="0.16" stroke-width="1"/><polyline points="1083.1,480.0 1085.7,501.2 1087.2,522.9 1086.2,544.7 1081.2,566.0 1072.0,586.1 1058.7,604.3 1042.6,620.4 1025.1,634.8 1007.9,648.3 992.0,662.1 977.9,677.5 965.4,695.2 953.4,715.5 940.7,737.7 925.7,760.2 907.6,781.0 885.9,797.9 861.1,808.9 834.2,812.8 806.7,809.4 780.0,799.4 755.3,784.7 733.2,767.4 713.5,749.8 695.5,733.7 678.2,720.3 660.5,709.7 642.0,701.3 622.6,693.8 602.7,685.8 583.5,676.1 565.9,663.9 551.1,649.0 539.2,632.0 530.1,613.6 522.7,594.7 515.5,576.1 506.9,558.0 495.6,540.1 481.3,521.7 464.3,501.9 446.2,480.0 429.2,455.7 415.8,429.2 408.5,401.5 409.0,374.0 417.8,348.4 434.5,326.0 457.7,307.7 484.9,293.7 514.0,283.5 542.5,276.0 569.2,269.6 593.2,263.1 614.8,255.6 634.7,246.9 653.9,237.6 673.4,228.6 693.8,221.4 715.2,217.1 737.1,216.3 758.9,219.0 780.0,224.4 800.1,231.1 819.5,237.3 838.8,241.6 858.9,243.1 881.0,241.7 905.8,238.2 933.3,234.1 962.9,231.6 993.2,232.5 1022.1,238.4 1047.6,250.1 1067.9,267.4 1082.0,289.4 1089.6,314.5 1091.7,341.0 1090.0,367.4 1086.4,392.5 1082.9,416.0 1081.0,438.0 1081.2,459.1 1083.1,480.0" fill="none" stroke="#0092FF" stroke-opacity="0.16" stroke-width="1"/><polyline points="905.7,760.0 910.4,795.4 914.8,831.8 916.9,869.2 914.2,906.9 904.3,943.3 885.8,976.6 858.7,1005.2 824.1,1027.7 784.5,1043.9 743.0,1054.7 702.6,1062.0 665.8,1068.6 633.5,1077.2 605.8,1090.1 581.3,1108.5 557.8,1132.2 533.0,1159.3 505.3,1187.1 473.6,1212.3 438.2,1231.6 400.0,1242.8 360.8,1244.9 322.1,1238.3 285.4,1224.8 251.1,1206.9 219.0,1187.0 188.2,1167.3 157.6,1148.8 126.3,1131.6 94.5,1114.7 62.8,1096.5 33.1,1075.2 7.6,1049.7 -11.5,1019.8 -22.6,985.9 -25.3,949.6 -20.7,912.9 -11.2,877.4 -0.2,844.6 8.8,814.6 12.5,786.9 9.2,760.0 -1.4,732.1 -17.8,701.7 -37.0,667.7 -55.1,630.0 -68.5,589.8 -73.9,548.7 -69.6,509.0 -55.4,472.5 -32.3,440.8 -2.7,414.0 30.9,391.7 66.3,372.5 101.8,355.0 136.7,337.7 171.3,320.3 206.4,303.3 242.8,288.1 281.0,277.1 320.6,272.5 360.8,276.2 400.0,288.9 436.4,310.1 468.7,337.7 496.4,368.7 520.1,399.6 541.2,427.0 562.0,448.5 585.0,463.3 612.1,471.9 644.4,476.3 681.4,479.2 721.6,483.7 762.3,492.5 800.5,507.2 833.5,528.3 859.4,555.2 877.7,586.4 889.1,620.3 895.4,655.3 899.0,690.4 902.0,725.2 905.7,760.0" fill="none" stroke="#0092FF" stroke-opacity="0.16" stroke-width="1"/><polyline points="1087.2,480.0 1084.1,501.1 1084.2,522.4 1086.1,544.7 1088.0,568.0 1087.7,591.8 1083.7,615.4 1075.1,637.8 1062.0,658.0 1045.0,675.7 1025.7,691.1 1005.4,704.9 985.4,718.5 966.2,732.8 947.7,748.9 929.1,766.8 909.6,785.7 888.0,804.2 863.8,820.1 837.2,831.3 808.8,835.9 780.0,832.9 752.3,822.3 727.0,805.3 705.1,784.0 686.4,760.8 670.4,738.5 655.8,718.8 641.0,703.0 624.6,691.1 605.8,682.2 584.7,674.9 562.0,667.3 539.0,658.0 517.4,645.8 498.5,630.5 483.3,612.3 471.8,592.0 463.1,570.5 456.1,548.4 449.2,526.2 441.1,503.5 431.3,480.0 420.2,455.0 409.1,428.2 400.0,399.7 395.4,370.2 397.3,340.9 406.9,313.6 424.7,290.1 449.7,271.5 480.1,258.6 513.5,251.0 547.2,247.7 579.1,246.8 607.9,246.3 633.1,244.4 655.1,239.9 675.1,232.5 694.3,222.8 714.0,212.3 734.8,202.5 756.9,195.2 780.0,191.5 803.3,191.7 826.3,195.5 848.6,201.7 870.4,208.8 892.2,215.3 915.0,220.4 939.8,223.8 966.9,226.2 996.3,228.9 1026.8,233.7 1056.8,242.2 1084.0,255.5 1106.2,274.1 1121.6,297.4 1129.4,324.2 1129.8,352.9 1124.0,381.7 1114.5,409.3 1103.7,434.8 1094.0,458.2 1087.2,480.0" fill="none" stroke="#0092FF" stroke-opacity="0.16" stroke-width="1"/><polyline points="950.8,760.0 938.9,797.4 927.8,833.7 918.3,869.5 909.9,905.6 901.0,942.1 889.3,978.2 872.6,1012.7 849.4,1043.7 819.4,1069.7 783.5,1089.5 743.8,1103.1 702.8,1111.6 663.1,1117.3 626.4,1123.1 593.4,1131.9 563.5,1145.8 535.1,1165.6 506.2,1190.9 474.7,1219.1 439.4,1247.0 400.0,1270.6 357.4,1286.5 313.4,1292.1 270.2,1286.5 230.0,1270.3 194.1,1245.8 162.9,1215.9 135.8,1183.8 111.2,1152.2 87.6,1122.8 63.4,1095.9 38.2,1070.8 12.5,1046.2 -12.4,1020.3 -34.1,992.0 -50.4,960.8 -59.7,927.1 -61.6,891.8 -56.9,856.6 -48.0,822.5 -38.1,790.4 -30.6,760.0 -28.3,730.3 -32.8,699.6 -43.7,666.2 -59.3,628.8 -76.0,587.0 -89.9,541.6 -96.9,494.4 -94.1,448.1 -79.9,405.7 -54.5,369.5 -19.6,341.3 22.1,321.2 67.4,308.3 113.5,300.5 158.5,295.6 201.4,291.4 242.3,286.7 282.0,281.3 321.3,276.3 360.6,273.6 400.0,275.3 438.6,283.4 475.1,298.8 508.2,320.9 537.2,348.3 561.9,378.0 583.6,407.1 604.2,432.6 626.3,452.6 652.5,466.8 684.6,476.0 722.9,482.6 766.5,489.4 812.8,499.4 858.3,515.0 899.1,537.4 931.8,566.8 954.1,601.7 965.5,640.5 967.1,680.9 961.1,721.1 950.8,760.0" fill="none" stroke="#0092FF" stroke-opacity="0.34" stroke-width="1.8"/><polyline points="1112.2,480.0 1099.0,502.1 1089.9,523.2 1085.6,544.6 1085.5,567.2 1087.7,591.8 1090.1,618.3 1090.1,645.8 1085.8,673.0 1076.0,698.5 1060.6,721.1 1040.4,739.8 1016.7,754.9 991.3,766.9 965.4,777.3 939.8,787.3 914.7,797.9 889.8,809.6 864.2,821.8 837.5,833.2 809.3,841.9 780.0,846.0 750.6,843.7 722.3,834.3 696.7,818.1 674.6,796.3 656.5,771.2 641.9,745.5 629.5,721.4 617.3,701.0 603.4,685.0 586.3,673.3 565.1,664.6 540.2,657.1 512.6,648.8 484.5,638.0 458.1,623.6 435.4,605.2 417.9,583.4 406.0,559.0 399.1,533.2 396.0,506.6 395.0,480.0 394.5,453.3 393.7,426.1 392.6,398.1 392.0,369.2 393.6,339.6 399.3,310.3 410.7,282.6 428.9,258.4 453.8,239.2 484.4,226.1 518.8,219.3 554.5,218.1 589.2,220.8 621.0,225.1 649.1,228.4 673.5,228.7 694.9,224.7 715.0,216.2 735.1,204.2 756.6,190.4 780.0,177.3 805.3,166.9 831.9,161.0 858.8,160.4 885.0,164.8 910.0,173.3 933.8,184.2 957.0,196.2 980.3,208.0 1004.7,219.1 1030.8,229.8 1058.2,241.0 1085.9,254.1 1112.1,270.3 1134.7,290.4 1151.4,314.4 1160.6,341.7 1161.7,371.0 1155.3,400.7 1143.1,429.3 1127.8,455.9 1112.2,480.0" fill="none" stroke="#0092FF" stroke-opacity="0.34" stroke-width="1.8"/><polyline points="1019.1,760.0 998.0,801.5 972.1,839.8 945.2,875.2 920.4,908.6 899.0,941.3 881.0,974.5 864.8,1008.5 848.1,1042.9 828.4,1076.3 803.9,1107.0 773.9,1133.1 738.8,1153.4 700.1,1167.5 659.8,1176.6 619.9,1182.8 581.8,1188.8 545.7,1197.5 511.1,1210.7 476.4,1229.2 439.8,1252.0 400.0,1276.6 356.4,1299.2 309.5,1315.9 261.2,1323.2 213.9,1318.7 170.3,1301.9 132.7,1273.9 102.3,1237.5 78.8,1196.2 60.9,1153.7 46.2,1113.1 32.0,1076.1 16.2,1043.4 -2.4,1014.0 -23.8,986.6 -46.4,959.1 -68.0,930.1 -85.8,898.8 -97.8,865.2 -103.0,830.2 -101.8,794.8 -95.9,760.0 -88.1,726.1 -81.5,692.8 -78.6,658.9 -80.5,622.8 -86.9,583.1 -95.7,539.0 -103.7,490.8 -106.9,440.0 -101.8,389.5 -86.0,342.5 -58.5,302.5 -20.2,272.2 26.6,252.9 78.6,244.6 132.3,245.3 184.8,252.3 234.1,262.0 279.6,271.6 321.7,278.8 361.4,283.0 400.0,285.0 438.3,286.5 476.5,290.1 513.9,297.9 549.5,311.3 582.0,330.6 610.8,354.7 636.1,381.3 659.1,408.1 682.0,432.6 707.3,453.4 737.3,470.2 773.6,484.2 815.9,497.4 862.7,512.7 910.6,532.3 955.4,558.2 992.8,590.7 1019.0,629.2 1032.0,671.8 1031.5,716.2 1019.1,760.0" fill="none" stroke="#0092FF" stroke-opacity="0.16" stroke-width="1"/><polyline points="1154.1,480.0 1136.1,504.7 1118.7,527.3 1104.3,548.5 1094.7,569.9 1090.1,592.7 1089.5,618.0 1091.0,646.3 1091.9,676.9 1089.6,708.6 1081.9,739.4 1067.8,767.2 1047.3,790.4 1021.4,807.8 991.7,819.5 960.1,826.3 928.2,829.7 897.1,831.6 867.1,833.4 837.9,836.0 809.1,839.3 780.0,842.4 750.6,843.8 721.2,841.5 692.7,834.1 666.4,820.9 643.5,802.1 624.5,778.9 609.5,753.5 597.4,728.0 586.5,704.7 574.5,685.1 559.3,669.6 539.4,657.7 514.2,647.8 484.5,638.0 452.1,626.2 419.7,610.9 390.3,591.3 366.5,567.4 350.3,540.0 342.1,510.4 341.4,480.0 346.7,449.9 355.9,420.8 366.8,392.7 378.1,365.2 389.1,337.9 400.1,310.6 412.4,283.5 427.3,257.3 446.2,233.5 470.1,213.7 498.7,199.3 531.2,191.1 565.8,189.1 600.5,192.2 633.5,198.3 663.3,204.8 689.7,209.1 713.2,209.0 735.0,203.6 756.8,192.8 780.0,178.1 805.7,161.8 834.2,146.8 864.9,135.7 896.4,130.5 927.4,132.3 956.4,140.8 982.7,154.9 1006.2,172.8 1027.4,192.7 1047.5,213.0 1067.6,232.9 1088.5,252.2 1110.3,271.5 1132.1,291.8 1152.4,313.9 1169.1,338.6 1180.2,365.7 1184.1,394.6 1180.3,424.1 1169.7,453.0 1154.1,480.0" fill="none" stroke="#0092FF" stroke-opacity="0.16" stroke-width="1"/><polyline points="1079.8,760.0 1065.0,806.1 1038.0,849.0 1002.6,887.4 963.5,920.9 925.1,950.8 890.8,978.8 862.1,1007.0 838.9,1037.0 819.3,1069.6 800.8,1104.3 780.4,1139.6 755.8,1173.1 725.8,1202.5 690.5,1225.8 650.9,1242.5 609.0,1253.0 566.3,1259.1 524.1,1263.6 482.8,1268.9 441.9,1277.2 400.0,1289.0 356.0,1303.6 309.1,1318.5 259.4,1330.3 208.4,1335.2 158.3,1330.3 112.1,1313.6 72.6,1285.0 41.9,1246.3 20.7,1200.5 7.8,1151.4 0.8,1103.0 -3.6,1058.0 -9.1,1018.3 -18.7,983.8 -33.9,953.5 -54.7,925.2 -79.3,896.9 -104.9,866.7 -127.9,833.7 -145.6,797.9 -155.9,760.0 -158.5,721.2 -154.5,682.6 -146.3,644.5 -136.6,606.7 -127.8,568.2 -121.1,527.6 -116.5,483.9 -112.2,436.6 -105.6,386.7 -93.4,336.1 -72.9,288.1 -42.4,246.3 -1.7,214.4 47.6,194.8 102.7,188.4 160.2,194.3 216.7,209.8 269.6,231.0 317.6,253.7 360.7,273.9 400.0,289.2 437.4,298.4 474.5,302.6 512.4,303.8 551.5,305.1 591.0,309.4 629.4,318.9 665.4,334.4 697.9,355.5 726.7,380.6 753.0,407.8 778.6,434.8 805.8,460.3 836.9,484.2 873.1,507.1 913.9,530.8 957.4,557.4 1000.1,588.6 1037.5,625.3 1065.3,667.2 1080.0,712.8 1079.8,760.0" fill="none" stroke="#0092FF" stroke-opacity="0.16" stroke-width="1"/><polyline points="1191.5,480.0 1179.9,507.8 1163.9,533.6 1145.8,557.3 1128.2,579.5 1113.5,601.2 1103.0,624.0 1096.7,649.3 1093.5,677.9 1091.2,709.8 1087.1,743.9 1078.9,778.2 1064.5,810.3 1043.3,837.6 1015.7,858.1 983.1,870.5 947.5,875.2 911.0,873.2 875.3,866.7 841.5,858.0 809.9,849.4 780.0,842.2 751.1,837.0 722.5,833.0 694.0,829.0 665.7,823.1 638.5,813.8 613.5,800.0 591.8,781.9 573.7,760.1 559.1,736.4 546.8,712.7 534.8,690.7 520.9,671.3 503.0,654.9 479.7,640.5 451.1,626.7 418.3,611.5 383.7,593.2 350.7,570.7 322.6,543.8 302.6,513.1 292.4,480.0 292.6,446.2 302.3,413.3 319.4,382.7 341.2,354.7 365.0,329.2 388.6,305.5 410.9,282.7 431.7,260.1 452.0,237.8 472.9,216.2 495.9,196.5 521.8,180.3 550.8,168.8 582.3,162.9 614.9,162.6 647.1,166.6 677.7,172.9 705.8,178.9 731.5,182.2 755.8,180.8 780.0,173.9 805.7,161.9 834.3,146.7 866.0,130.9 900.7,117.7 936.9,109.8 972.8,109.3 1006.3,117.1 1035.6,132.8 1060.0,154.9 1079.4,181.3 1094.7,209.6 1107.6,238.1 1119.8,265.5 1132.7,291.4 1146.8,316.4 1161.8,341.3 1176.2,366.8 1188.1,393.7 1195.6,422.0 1196.9,451.1 1191.5,480.0" fill="none" stroke="#0092FF" stroke-opacity="0.16" stroke-width="1"/><polyline points="1104.4,760.0 1105.5,809.0 1091.9,856.6 1064.4,900.4 1025.9,938.8 980.7,971.0 933.7,998.0 889.2,1021.5 850.5,1044.4 818.9,1069.3 793.8,1098.3 772.9,1132.1 753.1,1170.0 731.2,1209.8 704.4,1248.3 671.6,1282.2 632.7,1309.0 588.9,1327.1 542.1,1336.6 494.3,1339.2 446.7,1337.4 400.0,1334.0 353.8,1331.4 307.1,1330.7 259.1,1331.6 209.4,1332.2 158.5,1329.8 108.2,1321.1 61.0,1303.6 20.1,1276.0 -12.0,1238.4 -33.8,1192.9 -45.2,1142.5 -48.2,1091.0 -46.1,1041.6 -43.3,997.0 -44.1,958.0 -51.6,924.1 -67.7,893.6 -91.9,864.0 -121.7,832.8 -153.3,798.4 -182.4,760.0 -205.0,718.0 -218.2,673.7 -221.0,628.8 -214.2,584.6 -199.8,542.0 -180.8,501.0 -159.8,460.8 -138.6,420.0 -117.7,377.7 -96.2,333.7 -72.4,288.6 -43.7,244.8 -8.4,205.4 34.6,173.9 84.7,153.7 140.1,146.8 198.0,153.5 255.1,172.3 308.8,199.6 357.2,231.0 400.0,261.5 438.3,287.1 474.1,305.0 509.8,314.6 547.5,317.1 588.4,315.4 632.4,313.2 678.0,314.2 723.2,321.1 765.6,335.5 803.5,357.3 836.2,385.2 864.3,417.2 889.4,451.1 913.9,485.3 940.1,519.2 969.3,553.1 1001.3,588.3 1034.4,625.9 1065.3,667.1 1090.0,712.1 1104.4,760.0" fill="none" stroke="#0092FF" stroke-opacity="0.16" stroke-width="1"/><polyline points="1204.7,480.0 1206.5,509.6 1202.2,538.9 1191.9,567.0 1176.8,593.3 1159.0,617.7 1140.8,640.9 1124.2,664.0 1110.4,688.6 1099.3,715.8 1089.8,746.2 1080.1,779.4 1067.7,814.0 1050.6,847.5 1027.6,877.0 998.3,899.8 963.8,913.7 925.8,917.8 886.7,912.7 848.4,900.1 812.6,882.7 780.0,863.6 750.4,845.7 722.9,830.8 696.3,819.6 669.5,811.7 642.0,805.6 614.0,799.3 586.2,790.9 559.9,779.0 536.2,763.1 515.9,743.6 498.7,721.6 483.8,698.7 469.3,676.1 453.1,654.7 433.4,634.5 409.1,614.8 380.4,594.1 348.9,571.1 317.3,544.6 289.1,514.1 267.9,480.0 256.6,443.7 256.8,407.0 268.8,372.0 290.9,340.3 320.5,313.0 354.3,290.2 389.1,271.0 422.3,254.2 452.4,238.1 479.2,221.6 503.6,204.1 526.8,186.1 550.6,168.5 576.2,153.1 603.9,141.3 633.5,134.4 664.2,132.4 694.9,134.6 724.5,139.1 752.8,143.8 780.0,146.2 807.1,144.8 835.5,139.0 866.5,129.2 900.7,117.6 938.2,106.7 977.8,99.6 1017.5,99.0 1054.9,106.6 1087.5,123.0 1113.5,147.2 1132.1,177.5 1143.8,211.4 1150.2,246.3 1153.5,280.3 1156.4,312.2 1160.8,341.6 1167.8,369.3 1177.2,396.1 1188.0,423.1 1197.9,451.0 1204.7,480.0" fill="none" stroke="#0092FF" stroke-opacity="0.16" stroke-width="1"/><polyline points="1095.5,760.0 1105.7,809.0 1106.8,858.6 1096.1,907.1 1072.7,952.1 1037.4,991.6 993.1,1024.5 943.9,1050.7 894.3,1072.1 848.5,1091.2 809.0,1111.4 776.6,1135.8 750.0,1166.4 726.7,1203.6 703.1,1246.1 676.0,1290.7 643.0,1333.4 603.2,1369.9 557.0,1396.7 506.1,1412.0 453.0,1415.5 400.0,1408.8 348.6,1395.0 299.5,1377.4 252.3,1359.1 206.1,1342.0 159.8,1326.6 113.0,1311.8 66.2,1295.4 20.9,1274.8 -20.2,1247.9 -54.3,1213.4 -79.2,1171.7 -93.7,1124.5 -98.3,1074.6 -95.6,1024.9 -89.4,978.2 -84.4,936.0 -85.2,898.6 -94.9,864.6 -114.7,831.8 -143.6,797.7 -178.3,760.0 -214.0,717.4 -245.5,669.9 -267.9,618.8 -278.0,566.4 -274.4,514.9 -257.9,466.6 -231.0,422.7 -196.9,383.2 -159.2,347.1 -120.3,313.0 -81.6,279.4 -43.1,245.5 -3.7,211.8 38.3,179.9 84.1,152.6 134.3,133.2 188.3,124.5 244.3,128.3 299.8,144.4 352.3,171.0 400.0,204.3 442.1,239.6 479.4,272.2 513.9,297.9 548.4,314.6 585.6,322.0 627.7,322.2 675.2,318.6 727.3,315.5 781.5,317.0 834.7,326.2 883.3,344.8 924.8,372.5 957.8,407.9 982.7,448.5 1001.3,491.9 1016.2,536.1 1030.2,580.0 1045.4,623.6 1062.3,667.6 1079.9,712.8 1095.5,760.0" fill="none" stroke="#0092FF" stroke-opacity="0.16" stroke-width="1"/><polyline points="1195.7,480.0 1206.3,509.6 1214.7,540.7 1218.5,572.7 1216.0,604.5 1206.7,635.1 1191.5,663.5 1172.0,689.6 1150.5,713.9 1128.8,737.5 1108.2,761.9 1088.9,788.2 1070.1,816.8 1050.4,847.2 1028.0,877.7 1001.5,905.8 970.1,928.6 934.3,943.3 895.4,948.1 855.3,942.5 816.2,927.3 780.0,905.0 747.7,878.8 719.4,852.2 694.1,828.4 670.2,809.4 646.0,796.0 620.1,787.5 591.6,782.1 561.0,777.4 529.4,770.9 498.5,760.9 469.9,746.4 445.0,727.4 423.9,704.8 406.2,679.8 390.4,653.7 374.5,627.4 356.8,600.9 336.2,573.8 313.1,545.2 288.8,514.1 266.1,480.0 248.2,443.1 238.3,404.4 239.1,365.7 251.7,329.1 275.7,296.7 309.0,270.0 348.7,249.5 391.1,234.5 432.6,223.5 470.7,214.3 504.1,204.7 532.8,193.0 557.8,178.3 581.1,161.0 604.4,142.4 629.4,124.6 656.6,109.6 686.1,99.1 717.2,93.9 748.7,93.7 780.0,97.0 810.6,101.8 840.9,106.1 871.6,108.3 904.0,107.6 939.1,104.7 977.1,101.0 1017.5,99.2 1058.6,101.7 1098.0,110.8 1132.9,127.8 1160.9,152.7 1180.3,184.4 1190.6,220.8 1193.0,259.2 1189.7,297.3 1183.9,333.2 1178.6,366.2 1176.5,396.2 1178.9,424.3 1185.8,451.8 1195.7,480.0" fill="none" stroke="#0092FF" stroke-opacity="0.16" stroke-width="1"/><polyline points="1087.7,760.0 1088.8,807.8 1089.8,856.3 1087.8,905.4 1079.4,954.0 1061.8,1000.5 1034.0,1042.7 996.5,1078.9 951.6,1108.2 902.9,1131.3 854.2,1150.2 808.9,1168.1 768.9,1188.3 734.3,1214.1 703.7,1247.0 674.1,1287.1 642.5,1332.2 606.0,1378.3 562.8,1420.6 513.0,1454.2 457.9,1475.2 400.0,1481.4 342.3,1472.9 287.4,1451.8 236.9,1421.8 191.1,1387.1 149.2,1351.6 109.7,1318.2 70.8,1288.0 31.5,1260.5 -8.2,1233.9 -47.0,1206.0 -82.5,1174.5 -112.1,1138.2 -133.6,1096.8 -145.8,1051.8 -149.3,1004.9 -146.7,958.7 -141.7,914.7 -139.0,873.9 -142.6,835.7 -155.4,798.5 -178.1,760.0 -208.7,717.8 -243.5,670.2 -277.0,616.9 -303.5,559.1 -317.9,499.1 -317.1,440.2 -300.1,385.7 -268.1,338.2 -224.3,299.0 -172.9,267.8 -117.9,243.1 -62.8,222.6 -9.5,203.8 41.5,185.1 91.0,166.0 140.4,147.5 190.8,131.9 242.8,122.2 296.0,121.0 349.0,130.0 400.0,149.4 447.2,177.3 489.5,210.4 527.1,244.3 561.7,274.7 595.7,298.3 632.4,313.2 674.4,319.9 723.3,320.9 779.0,320.0 839.4,321.5 901.0,329.6 959.2,347.1 1009.8,375.0 1049.4,412.9 1076.4,458.4 1091.3,508.8 1096.4,561.1 1095.2,613.1 1091.6,663.5 1088.5,712.2 1087.7,760.0" fill="none" stroke="#0092FF" stroke-opacity="0.34" stroke-width="1.8"/><polyline points="1188.9,480.0 1195.7,508.8 1206.7,539.5 1218.8,572.7 1228.6,608.1 1233.2,644.7 1230.2,680.8 1219.1,714.8 1200.4,745.4 1175.7,772.2 1147.3,795.6 1117.4,816.6 1087.4,836.9 1058.0,857.6 1029.1,879.5 999.6,902.1 968.3,924.2 934.3,943.3 897.5,956.7 858.5,962.1 818.7,957.9 780.0,943.9 744.3,921.4 712.8,893.0 685.8,862.1 662.6,832.4 641.4,807.0 619.9,787.8 596.0,775.0 568.1,767.7 535.7,763.6 499.5,759.9 461.4,753.7 423.9,742.9 389.4,726.6 360.0,704.5 336.7,677.7 319.1,647.5 305.9,615.4 295.4,582.4 285.4,549.0 274.7,515.1 263.0,480.0 251.4,443.3 242.0,404.9 237.6,365.4 240.9,326.0 253.9,288.8 277.4,255.9 310.6,229.1 351.3,209.4 396.3,196.7 442.1,189.7 485.3,185.9 523.9,182.7 556.9,177.1 585.0,167.2 609.5,152.2 632.8,132.8 657.0,110.8 683.6,88.7 713.2,69.6 745.7,55.7 780.0,48.4 815.0,47.8 849.5,52.9 883.1,61.7 915.9,72.1 948.7,82.1 982.4,90.8 1018.0,98.3 1055.6,105.7 1094.4,114.9 1132.7,128.0 1168.0,146.7 1197.4,171.8 1218.6,203.1 1230.2,239.3 1232.3,278.3 1226.6,317.7 1215.7,355.5 1203.5,390.5 1193.3,422.3 1188.0,451.7 1188.9,480.0" fill="none" stroke="#0092FF" stroke-opacity="0.34" stroke-width="1.8"/><polyline points="1116.5,760.0 1095.5,808.3 1078.8,854.7 1066.6,900.9 1057.5,947.8 1048.3,995.6 1035.6,1043.4 1016.2,1089.4 988.5,1131.5 952.3,1167.8 909.2,1197.5 862.0,1221.0 813.9,1240.5 767.4,1259.0 724.1,1279.7 683.8,1305.7 645.1,1338.2 605.5,1376.8 562.4,1418.8 513.9,1459.8 459.5,1494.7 400.0,1518.4 337.9,1527.1 276.5,1518.9 218.9,1494.6 167.9,1456.8 124.4,1410.2 88.1,1359.7 57.1,1309.9 28.6,1264.3 0.1,1224.4 -30.6,1189.7 -63.8,1158.5 -98.6,1128.2 -132.7,1096.3 -163.1,1061.0 -187.0,1021.8 -203.0,979.1 -210.9,934.5 -212.8,889.5 -211.9,845.4 -212.2,802.5 -217.5,760.0 -229.9,716.3 -249.9,669.3 -275.2,617.3 -301.7,559.6 -324.2,496.8 -337.1,431.3 -335.9,366.6 -318.0,306.7 -283.2,255.5 -233.7,215.6 -173.3,187.9 -106.9,171.5 -39.1,163.7 26.4,160.9 87.6,159.4 144.2,156.6 197.1,151.0 247.9,143.1 298.2,134.9 349.0,129.4 400.0,129.6 450.4,137.7 498.6,154.4 543.3,178.7 583.9,207.9 621.1,238.4 656.7,266.5 693.4,289.5 734.3,306.0 781.7,316.8 836.6,324.4 897.8,332.3 962.4,344.7 1025.8,364.9 1082.8,395.0 1128.3,435.2 1158.9,484.2 1173.2,539.2 1172.3,596.8 1159.4,654.0 1139.2,708.7 1116.5,760.0" fill="none" stroke="#0092FF" stroke-opacity="0.16" stroke-width="1"/><polyline points="1209.3,480.0 1203.5,509.4 1204.5,539.2 1211.7,571.2 1222.7,606.5 1234.3,645.1 1242.4,686.2 1243.9,728.0 1236.4,768.1 1219.2,804.3 1193.0,834.8 1159.8,859.0 1122.2,877.3 1082.7,891.0 1043.2,902.2 1005.0,912.5 967.9,923.3 931.5,934.8 894.9,946.0 857.3,955.0 818.8,959.5 780.0,957.3 742.2,947.0 707.0,928.6 675.7,903.2 648.9,873.4 626.3,842.5 606.4,813.8 586.8,789.9 564.8,772.2 538.3,760.7 505.7,753.7 467.2,748.8 424.1,742.8 379.3,732.9 336.2,717.2 298.2,694.9 267.8,666.1 246.6,632.3 234.5,595.3 229.8,556.8 230.5,518.1 233.8,480.0 237.9,442.4 241.7,404.9 245.4,367.0 250.6,328.8 259.5,290.8 274.2,254.4 296.4,221.5 326.8,193.9 364.4,173.1 407.4,159.9 452.7,153.4 497.3,151.8 538.6,152.2 575.2,151.5 606.7,146.7 634.2,135.9 659.6,118.6 685.3,95.8 713.3,70.2 744.8,45.0 780.0,23.8 818.1,9.4 857.5,3.8 896.6,7.1 933.8,18.3 968.5,35.3 1000.8,55.4 1031.6,76.4 1062.2,96.8 1093.5,116.0 1126.1,134.7 1159.3,154.2 1191.5,176.1 1220.5,201.9 1243.5,232.2 1258.4,266.7 1264.1,304.1 1260.8,342.7 1250.3,380.6 1235.8,416.4 1221.0,449.4 1209.3,480.0" fill="none" stroke="#0092FF" stroke-opacity="0.16" stroke-width="1"/></g><g><circle cx="400" cy="760" r="3" fill="#3BABFF"/><line x1="392" y1="760" x2="408" y2="760" stroke="#3BABFF" stroke-opacity="0.5" stroke-width="1"/><line x1="400" y1="752" x2="400" y2="768" stroke="#3BABFF" stroke-opacity="0.5" stroke-width="1"/><circle cx="780" cy="480" r="3" fill="#3BABFF"/><line x1="772" y1="480" x2="788" y2="480" stroke="#3BABFF" stroke-opacity="0.5" stroke-width="1"/><line x1="780" y1="472" x2="780" y2="488" stroke="#3BABFF" stroke-opacity="0.5" stroke-width="1"/></g><rect width="1080" height="1350" fill="url(#g9010_vig)"/></svg>