<svg class="bgsvg" viewBox="0 0 1080 1350" preserveAspectRatio="xMidYMid slice" xmlns="http://www.w3.org/2000/svg"><rect width="1080" height="1350" fill="#0A0B10"/><defs><radialGradient id="g9014_a" cx="0" cy="0" r="1" gradientUnits="userSpaceOnUse" gradientTransform="translate(760 1080) scale(720)"><stop offset="0" stop-color="#F7B041" stop-opacity="0.3"/><stop offset="0.5" stop-color="#F7B041" stop-opacity="0.09"/><stop offset="1" stop-color="#F7B041" stop-opacity="0"/></radialGradient><radialGradient id="g9014_c" cx="0" cy="0" r="1" gradientUnits="userSpaceOnUse" gradientTransform="translate(300 1180) scale(720)"><stop offset="0" stop-color="#0092FF" stop-opacity="0.3"/><stop offset="0.5" stop-color="#0092FF" stop-opacity="0.09"/><stop offset="1" stop-color="#0092FF" stop-opacity="0"/></radialGradient><linearGradient id="g9014_cob" x1="0" y1="0" x2="1080" y2="1350" gradientUnits="userSpaceOnUse"><stop offset="0" stop-color="#0A6AA6" stop-opacity="0.35"/><stop offset="0.1" stop-color="#0092FF" stop-opacity="0.85"/><stop offset="0.5" stop-color="#3BABFF" stop-opacity="1"/><stop offset="0.9" stop-color="#0092FF" stop-opacity="0.85"/><stop offset="1" stop-color="#0A6AA6" stop-opacity="0.35"/></linearGradient><linearGradient id="g9014_amb" x1="0" y1="0" x2="1080" y2="1350" gradientUnits="userSpaceOnUse"><stop offset="0" stop-color="#E8A830" stop-opacity="0.35"/><stop offset="0.1" stop-color="#F7B041" stop-opacity="0.85"/><stop offset="0.5" stop-color="#FFCB6B" stop-opacity="1"/><stop offset="0.9" stop-color="#F7B041" stop-opacity="0.85"/><stop offset="1" stop-color="#E8A830" stop-opacity="0.35"/></linearGradient><linearGradient id="g9014_cobT" x1="0" y1="240" x2="1080" y2="460" gradientUnits="userSpaceOnUse"><stop offset="0" stop-color="#0A6AA6" stop-opacity="0"/><stop offset="0.5" stop-color="#0092FF" stop-opacity="0.5"/><stop offset="1" stop-color="#0A6AA6" stop-opacity="0"/></linearGradient><linearGradient id="g9014_ambT" x1="0" y1="300" x2="1080" y2="540" gradientUnits="userSpaceOnUse"><stop offset="0" stop-color="#E8A830" stop-opacity="0"/><stop offset="0.5" stop-color="#F7B041" stop-opacity="0.5"/><stop offset="1" stop-color="#E8A830" stop-opacity="0"/></linearGradient><filter id="g9014_warp" x="-20%" y="-20%" width="140%" height="140%" color-interpolation-filters="sRGB"><feTurbulence type="turbulence" baseFrequency="0.004 0.018" numOctaves="3" seed="137" stitchTiles="stitch" result="t"/><feColorMatrix in="t" type="matrix" values="0.7 0 0 0 0  0 0.7 0 0 0  0 0 0.7 0 0  0 0 0 1 0" result="tm"/><feDisplacementMap in="SourceGraphic" in2="tm" scale="58" xChannelSelector="R" yChannelSelector="G" result="d"/><feColorMatrix in="d" type="matrix" values="0.82 0 0 0 0  0 0.82 0 0 0  0 0 0.82 0 0  0 0 0 0.92 0"/></filter><filter id="g9014_warpT" x="-20%" y="-20%" width="140%" height="140%" color-interpolation-filters="sRGB"><feTurbulence type="turbulence" baseFrequency="0.004 0.018" numOctaves="3" seed="194" stitchTiles="stitch" result="t"/><feDisplacementMap in="SourceGraphic" in2="t" scale="40" xChannelSelector="R" yChannelSelector="G" result="d"/><feColorMatrix in="d" type="matrix" values="0.7 0 0 0 0  0 0.7 0 0 0  0 0 0.7 0 0  0 0 0 0.5 0"/></filter><filter id="g9014_b" x="-60%" y="-60%" width="220%" height="220%"><feGaussianBlur stdDeviation="10"/></filter><filter id="g9014_haze" x="0" y="0" width="100%" height="100%"><feTurbulence type="fractalNoise" baseFrequency="0.012 0.02" numOctaves="4" seed="647" stitchTiles="stitch" result="n"/><feColorMatrix in="n" type="matrix" values="0 0 0 0 0 0 0 0 0 0 0 0 0 0 0 0.8 0 0 0 -0.1" result="a"/><feFlood flood-color="#0A6AA6" result="c"/><feComposite in="c" in2="a" operator="in"/></filter><filter id="g9014_grain" x="0" y="0" width="100%" height="100%"><feTurbulence type="fractalNoise" baseFrequency="0.9" numOctaves="2" stitchTiles="stitch" result="n"/><feColorMatrix in="n" type="saturate" values="0" result="d"/><feComponentTransfer in="d"><feFuncA type="linear" slope="0.06" intercept="0"/></feComponentTransfer></filter><radialGradient id="g9014_vig" cx="0" cy="0" r="1" gradientUnits="userSpaceOnUse" gradientTransform="translate(540 675) scale(760)"><stop offset="0" stop-color="#000000" stop-opacity="0"/><stop offset="0.68" stop-color="#000000" stop-opacity="0"/><stop offset="1" stop-color="#000000" stop-opacity="0.55"/></radialGradient></defs><rect width="1080" height="1350" fill="#0A0F1A"/><rect width="1080" height="1350" fill="url(#g9014_a)"/><rect width="1080" height="1350" fill="url(#g9014_c)"/><rect width="1080" height="1350" fill="url(#g9014_haze)" opacity="0.22"/><g style="mix-blend-mode:screen"><g filter="url(#g9014_warp)" fill="url(#g9014_cob)" opacity="0.30"><g filter="url(#g9014_b)"><path d="M -120.0 161.5 L -91.3 169.8 L -62.6 162.9 L -33.9 160.1 L -5.2 151.6 L 23.5 136.7 L 52.2 129.9 L 80.9 120.2 L 109.6 115.1 L 138.3 117.4 L 167.0 114.6 L 195.7 116.3 L 224.3 110.4 L 253.0 107.0 L 281.7 95.5 L 310.4 93.4 L 339.1 78.8 L 367.8 76.1 L 396.5 75.9 L 425.2 78.8 L 453.9 88.6 L 482.6 103.4 L 511.3 120.4 L 540.0 140.5 L 568.7 155.5 L 597.4 168.9 L 626.1 161.4 L 654.8 156.8 L 683.5 150.0 L 712.2 147.3 L 740.9 135.8 L 769.6 124.0 L 798.3 120.2 L 827.0 120.5 L 855.7 124.2 L 884.3 121.2 L 913.0 120.3 L 941.7 118.6 L 970.4 103.2 L 999.1 94.1 L 1027.8 78.1 L 1056.5 78.1 L 1085.2 66.4 L 1113.9 70.1 L 1142.6 90.5 L 1171.3 97.1 L 1200.0 114.1 L 1200.0 118.7 L 1171.3 101.4 L 1142.6 94.5 L 1113.9 73.8 L 1085.2 69.7 L 1056.5 81.1 L 1027.8 80.8 L 999.1 96.5 L 970.4 105.2 L 941.7 120.4 L 913.0 121.8 L 884.3 122.4 L 855.7 125.2 L 827.0 121.3 L 798.3 120.9 L 769.6 124.6 L 740.9 136.3 L 712.2 147.9 L 683.5 150.6 L 654.8 157.5 L 626.1 162.2 L 597.4 169.9 L 568.7 156.7 L 540.0 141.9 L 511.3 122.1 L 482.6 105.4 L 453.9 91.0 L 425.2 81.4 L 396.5 78.9 L 367.8 79.5 L 339.1 82.5 L 310.4 97.4 L 281.7 99.8 L 253.0 111.6 L 224.3 115.2 L 195.7 121.3 L 167.0 119.9 L 138.3 122.7 L 109.6 120.5 L 80.9 125.7 L 52.2 135.4 L 23.5 142.2 L -5.2 156.9 L -33.9 165.3 L -62.6 168.0 L -91.3 174.6 L -120.0 166.1 Z"/><path d="M -120.0 262.5 L -91.3 253.3 L -62.6 247.1 L -33.9 243.0 L -5.2 243.6 L 23.5 245.2 L 52.2 240.4 L 80.9 237.5 L 109.6 233.9 L 138.3 226.1 L 167.0 230.9 L 195.7 237.0 L 224.3 244.7 L 253.0 261.6 L 281.7 278.2 L 310.4 289.9 L 339.1 297.2 L 367.8 297.6 L 396.5 281.7 L 425.2 264.1 L 453.9 248.6 L 482.6 238.8 L 511.3 232.8 L 540.0 226.7 L 568.7 233.6 L 597.4 232.1 L 626.1 238.9 L 654.8 244.3 L 683.5 240.5 L 712.2 240.8 L 740.9 241.1 L 769.6 247.5 L 798.3 260.1 L 827.0 280.0 L 855.7 287.7 L 884.3 295.1 L 913.0 296.0 L 941.7 282.8 L 970.4 266.9 L 999.1 247.0 L 1027.8 230.1 L 1056.5 213.6 L 1085.2 215.4 L 1113.9 218.8 L 1142.6 232.0 L 1171.3 241.7 L 1200.0 251.8 L 1200.0 257.1 L 1171.3 247.2 L 1142.6 237.7 L 1113.9 224.6 L 1085.2 221.4 L 1056.5 219.6 L 1027.8 236.1 L 999.1 252.9 L 970.4 272.7 L 941.7 288.4 L 913.0 301.4 L 884.3 300.3 L 855.7 292.6 L 827.0 284.6 L 798.3 264.4 L 769.6 251.5 L 740.9 244.7 L 712.2 244.0 L 683.5 243.4 L 654.8 246.8 L 626.1 241.1 L 597.4 233.9 L 568.7 235.1 L 540.0 227.9 L 511.3 233.9 L 482.6 239.7 L 453.9 249.3 L 425.2 264.7 L 396.5 282.3 L 367.8 298.2 L 339.1 297.9 L 310.4 290.7 L 281.7 279.1 L 253.0 262.7 L 224.3 246.1 L 195.7 238.7 L 167.0 232.8 L 138.3 228.4 L 109.6 236.5 L 80.9 240.4 L 52.2 243.8 L 23.5 248.9 L -5.2 247.6 L -33.9 247.5 L -62.6 251.9 L -91.3 258.3 L -120.0 267.8 Z"/><path d="M -120.0 357.6 L -91.3 354.4 L -62.6 356.7 L -33.9 346.6 L -5.2 351.4 L 23.5 363.7 L 52.2 390.1 L 80.9 415.9 L 109.6 440.5 L 138.3 435.3 L 167.0 410.1 L 195.7 376.5 L 224.3 352.0 L 253.0 331.5 L 281.7 326.1 L 310.4 340.6 L 339.1 350.3 L 367.8 380.0 L 396.5 384.6 L 425.2 386.3 L 453.9 395.9 L 482.6 391.4 L 511.3 396.5 L 540.0 403.1 L 568.7 408.3 L 597.4 394.9 L 626.1 377.7 L 654.8 352.0 L 683.5 326.4 L 712.2 310.9 L 740.9 325.2 L 769.6 356.8 L 798.3 382.4 L 827.0 411.0 L 855.7 423.2 L 884.3 418.1 L 913.0 406.0 L 941.7 394.3 L 970.4 382.9 L 999.1 375.5 L 1027.8 366.8 L 1056.5 365.0 L 1085.2 357.6 L 1113.9 350.5 L 1142.6 336.1 L 1171.3 338.0 L 1200.0 359.3 L 1200.0 360.3 L 1171.3 339.2 L 1142.6 337.5 L 1113.9 352.3 L 1085.2 359.8 L 1056.5 367.6 L 1027.8 369.8 L 999.1 378.9 L 970.4 386.8 L 941.7 398.6 L 913.0 410.7 L 884.3 423.2 L 855.7 428.7 L 827.0 416.9 L 798.3 388.7 L 769.6 363.4 L 740.9 332.0 L 712.2 318.0 L 683.5 333.6 L 654.8 359.3 L 626.1 385.0 L 597.4 402.2 L 568.7 415.5 L 540.0 410.2 L 511.3 403.3 L 482.6 398.0 L 453.9 402.2 L 425.2 392.3 L 396.5 390.2 L 367.8 385.1 L 339.1 354.9 L 310.4 344.9 L 281.7 329.9 L 253.0 334.8 L 224.3 354.9 L 195.7 379.0 L 167.0 412.2 L 138.3 437.1 L 109.6 441.9 L 80.9 417.1 L 52.2 391.1 L 23.5 364.6 L -5.2 352.1 L -33.9 347.4 L -62.6 357.5 L -91.3 355.3 L -120.0 358.6 Z"/><path d="M -120.0 492.5 L -91.3 499.7 L -62.6 522.2 L -33.9 559.1 L -5.2 576.2 L 23.5 576.6 L 52.2 546.4 L 80.9 510.6 L 109.6 472.6 L 138.3 455.4 L 167.0 477.6 L 195.7 498.0 L 224.3 526.7 L 253.0 537.6 L 281.7 542.5 L 310.4 541.2 L 339.1 542.2 L 367.8 539.0 L 396.5 530.8 L 425.2 527.5 L 453.9 505.0 L 482.6 473.3 L 511.3 463.6 L 540.0 471.0 L 568.7 493.4 L 597.4 532.5 L 626.1 571.3 L 654.8 571.8 L 683.5 564.1 L 712.2 527.1 L 740.9 507.4 L 769.6 488.0 L 798.3 487.3 L 827.0 499.1 L 855.7 497.2 L 884.3 506.3 L 913.0 514.2 L 941.7 524.7 L 970.4 536.6 L 999.1 562.1 L 1027.8 576.3 L 1056.5 554.8 L 1085.2 525.1 L 1113.9 488.0 L 1142.6 466.5 L 1171.3 458.1 L 1200.0 477.5 L 1200.0 480.6 L 1171.3 460.7 L 1142.6 468.6 L 1113.9 489.7 L 1085.2 526.6 L 1056.5 556.0 L 1027.8 577.3 L 999.1 563.0 L 970.4 537.5 L 941.7 525.6 L 913.0 515.2 L 884.3 507.5 L 855.7 498.6 L 827.0 500.9 L 798.3 489.5 L 769.6 490.5 L 740.9 510.5 L 712.2 530.7 L 683.5 568.2 L 654.8 576.4 L 626.1 576.4 L 597.4 538.2 L 568.7 499.5 L 540.0 477.7 L 511.3 470.7 L 482.6 480.8 L 453.9 512.9 L 425.2 535.7 L 396.5 539.3 L 367.8 547.7 L 339.1 550.9 L 310.4 550.0 L 281.7 551.3 L 253.0 546.3 L 224.3 535.2 L 195.7 506.2 L 167.0 485.6 L 138.3 463.0 L 109.6 479.7 L 80.9 517.3 L 52.2 552.5 L 23.5 582.2 L -5.2 581.4 L -33.9 563.7 L -62.6 526.3 L -91.3 503.2 L -120.0 495.5 Z"/><path d="M -120.0 619.6 L -91.3 625.0 L -62.6 642.2 L -33.9 660.3 L -5.2 676.4 L 23.5 676.6 L 52.2 656.8 L 80.9 623.8 L 109.6 605.1 L 138.3 591.9 L 167.0 597.0 L 195.7 622.3 L 224.3 642.7 L 253.0 652.6 L 281.7 658.8 L 310.4 648.7 L 339.1 651.7 L 367.8 646.9 L 396.5 653.5 L 425.2 646.0 L 453.9 628.9 L 482.6 609.0 L 511.3 597.7 L 540.0 597.1 L 568.7 623.5 L 597.4 645.2 L 626.1 669.2 L 654.8 678.8 L 683.5 667.4 L 712.2 652.3 L 740.9 624.3 L 769.6 613.3 L 798.3 615.8 L 827.0 615.8 L 855.7 619.4 L 884.3 627.7 L 913.0 627.7 L 941.7 639.6 L 970.4 648.3 L 999.1 664.0 L 1027.8 677.6 L 1056.5 671.4 L 1085.2 644.4 L 1113.9 621.9 L 1142.6 596.4 L 1171.3 594.9 L 1200.0 602.7 L 1200.0 604.6 L 1171.3 596.6 L 1142.6 597.8 L 1113.9 623.0 L 1085.2 645.4 L 1056.5 672.2 L 1027.8 678.2 L 999.1 664.6 L 970.4 648.9 L 941.7 640.2 L 913.0 628.4 L 884.3 628.6 L 855.7 620.4 L 827.0 617.1 L 798.3 617.3 L 769.6 615.1 L 740.9 626.4 L 712.2 654.7 L 683.5 670.2 L 654.8 681.9 L 626.1 672.7 L 597.4 649.1 L 568.7 627.7 L 540.0 601.6 L 511.3 602.5 L 482.6 614.1 L 453.9 634.3 L 425.2 651.5 L 396.5 659.2 L 367.8 652.8 L 339.1 657.6 L 310.4 654.6 L 281.7 664.7 L 253.0 658.4 L 224.3 648.4 L 195.7 627.8 L 167.0 602.3 L 138.3 596.9 L 109.6 609.9 L 80.9 628.2 L 52.2 660.9 L 23.5 680.3 L -5.2 679.8 L -33.9 663.3 L -62.6 644.9 L -91.3 627.4 L -120.0 621.6 Z"/><path d="M -120.0 766.3 L -91.3 798.0 L -62.6 792.6 L -33.9 765.0 L -5.2 719.0 L 23.5 698.3 L 52.2 693.1 L 80.9 707.0 L 109.6 749.4 L 138.3 762.5 L 167.0 775.8 L 195.7 767.6 L 224.3 760.4 L 253.0 756.4 L 281.7 754.4 L 310.4 738.0 L 339.1 712.7 L 367.8 698.3 L 396.5 704.9 L 425.2 735.5 L 453.9 780.0 L 482.6 799.7 L 511.3 800.9 L 540.0 772.8 L 568.7 732.8 L 597.4 710.6 L 626.1 703.7 L 654.8 724.7 L 683.5 745.2 L 712.2 745.5 L 740.9 752.5 L 769.6 765.4 L 798.3 772.6 L 827.0 784.5 L 855.7 778.9 L 884.3 742.1 L 913.0 709.5 L 941.7 692.9 L 970.4 696.7 L 999.1 728.3 L 1027.8 777.3 L 1056.5 794.8 L 1085.2 786.5 L 1113.9 769.3 L 1142.6 742.6 L 1171.3 722.6 L 1200.0 722.4 L 1200.0 730.8 L 1171.3 730.7 L 1142.6 750.3 L 1113.9 776.5 L 1085.2 793.2 L 1056.5 800.9 L 1027.8 782.9 L 999.1 733.3 L 970.4 701.2 L 941.7 696.9 L 913.0 712.9 L 884.3 745.0 L 855.7 781.3 L 827.0 786.5 L 798.3 774.3 L 769.6 766.8 L 740.9 753.7 L 712.2 746.5 L 683.5 746.1 L 654.8 725.6 L 626.1 704.7 L 597.4 711.8 L 568.7 734.3 L 540.0 774.5 L 511.3 803.0 L 482.6 802.2 L 453.9 783.0 L 425.2 739.0 L 396.5 708.9 L 367.8 702.9 L 339.1 717.9 L 310.4 743.8 L 281.7 760.7 L 253.0 763.3 L 224.3 767.7 L 195.7 775.4 L 167.0 784.0 L 138.3 771.1 L 109.6 758.2 L 80.9 716.1 L 52.2 702.3 L 23.5 707.6 L -5.2 728.2 L -33.9 774.2 L -62.6 801.6 L -91.3 806.8 L -120.0 774.8 Z"/><path d="M -120.0 915.4 L -91.3 898.5 L -62.6 870.7 L -33.9 836.9 L -5.2 825.3 L 23.5 839.7 L 52.2 868.2 L 80.9 891.9 L 109.6 893.4 L 138.3 891.9 L 167.0 886.1 L 195.7 879.5 L 224.3 873.1 L 253.0 861.6 L 281.7 846.7 L 310.4 841.4 L 339.1 854.4 L 367.8 882.8 L 396.5 914.4 L 425.2 917.0 L 453.9 894.8 L 482.6 862.5 L 511.3 840.1 L 540.0 840.7 L 568.7 852.7 L 597.4 877.1 L 626.1 879.0 L 654.8 885.3 L 683.5 886.8 L 712.2 896.2 L 740.9 896.2 L 769.6 874.4 L 798.3 854.1 L 827.0 833.4 L 855.7 833.6 L 884.3 862.0 L 913.0 896.9 L 941.7 918.8 L 970.4 906.5 L 999.1 877.4 L 1027.8 857.2 L 1056.5 842.2 L 1085.2 849.1 L 1113.9 857.0 L 1142.6 863.9 L 1171.3 870.2 L 1200.0 874.3 L 1200.0 883.1 L 1171.3 879.2 L 1142.6 872.9 L 1113.9 866.0 L 1085.2 857.9 L 1056.5 850.8 L 1027.8 865.6 L 999.1 885.4 L 970.4 914.2 L 941.7 926.0 L 913.0 903.6 L 884.3 868.2 L 855.7 839.3 L 827.0 838.5 L 798.3 858.7 L 769.6 878.4 L 740.9 899.7 L 712.2 899.2 L 683.5 889.4 L 654.8 887.4 L 626.1 880.7 L 597.4 878.5 L 568.7 853.9 L 540.0 841.7 L 511.3 841.0 L 482.6 863.4 L 453.9 895.8 L 425.2 918.1 L 396.5 915.7 L 367.8 884.4 L 339.1 856.3 L 310.4 843.7 L 281.7 849.4 L 253.0 864.7 L 224.3 876.8 L 195.7 883.8 L 167.0 890.9 L 138.3 897.3 L 109.6 899.3 L 80.9 898.3 L 52.2 875.1 L 23.5 847.1 L -5.2 833.0 L -33.9 845.1 L -62.6 879.2 L -91.3 907.2 L -120.0 924.2 Z"/><path d="M -120.0 968.3 L -91.3 959.7 L -62.6 993.9 L -33.9 1026.7 L -5.2 1034.1 L 23.5 1031.8 L 52.2 1022.8 L 80.9 1024.7 L 109.6 1003.8 L 138.3 980.5 L 167.0 961.8 L 195.7 987.6 L 224.3 1039.1 L 253.0 1070.4 L 281.7 1049.2 L 310.4 1008.9 L 339.1 972.6 L 367.8 957.6 L 396.5 990.1 L 425.2 1020.7 L 453.9 1026.8 L 482.6 1034.1 L 511.3 1025.4 L 540.0 1027.2 L 568.7 1011.0 L 597.4 972.9 L 626.1 963.4 L 654.8 976.9 L 683.5 1025.8 L 712.2 1063.5 L 740.9 1059.2 L 769.6 1010.5 L 798.3 975.5 L 827.0 967.4 L 855.7 982.4 L 884.3 1008.2 L 913.0 1020.2 L 941.7 1025.6 L 970.4 1032.9 L 999.1 1028.4 L 1027.8 1014.5 L 1056.5 977.3 L 1085.2 958.4 L 1113.9 972.5 L 1142.6 1017.4 L 1171.3 1064.9 L 1200.0 1063.1 L 1200.0 1064.6 L 1171.3 1066.7 L 1142.6 1019.6 L 1113.9 975.0 L 1085.2 961.3 L 1056.5 980.6 L 1027.8 1018.2 L 999.1 1032.5 L 970.4 1037.4 L 941.7 1030.5 L 913.0 1025.4 L 884.3 1013.7 L 855.7 988.2 L 827.0 973.5 L 798.3 981.7 L 769.6 1016.9 L 740.9 1065.7 L 712.2 1070.0 L 683.5 1032.2 L 654.8 983.3 L 626.1 969.7 L 597.4 979.0 L 568.7 1016.8 L 540.0 1032.8 L 511.3 1030.6 L 482.6 1039.0 L 453.9 1031.4 L 425.2 1024.9 L 396.5 993.9 L 367.8 961.0 L 339.1 975.6 L 310.4 1011.5 L 281.7 1051.4 L 253.0 1072.3 L 224.3 1040.7 L 195.7 989.0 L 167.0 962.9 L 138.3 981.4 L 109.6 1004.6 L 80.9 1025.4 L 52.2 1023.4 L 23.5 1032.5 L -5.2 1034.9 L -33.9 1027.5 L -62.6 994.9 L -91.3 960.9 L -120.0 969.8 Z"/><path d="M -120.0 1131.8 L -91.3 1144.7 L -62.6 1144.3 L -33.9 1143.6 L -5.2 1139.1 L 23.5 1111.2 L 52.2 1095.9 L 80.9 1102.6 L 109.6 1135.5 L 138.3 1168.9 L 167.0 1159.8 L 195.7 1118.1 L 224.3 1086.7 L 253.0 1099.9 L 281.7 1125.3 L 310.4 1139.8 L 339.1 1145.3 L 367.8 1139.0 L 396.5 1136.7 L 425.2 1119.7 L 453.9 1093.9 L 482.6 1098.5 L 511.3 1127.2 L 540.0 1167.0 L 568.7 1166.3 L 597.4 1124.4 L 626.1 1088.7 L 654.8 1096.7 L 683.5 1123.6 L 712.2 1148.7 L 740.9 1145.2 L 769.6 1139.7 L 798.3 1134.0 L 827.0 1125.1 L 855.7 1104.5 L 884.3 1099.3 L 913.0 1124.5 L 941.7 1160.5 L 970.4 1174.6 L 999.1 1143.4 L 1027.8 1093.6 L 1056.5 1088.2 L 1085.2 1116.8 L 1113.9 1149.8 L 1142.6 1153.7 L 1171.3 1137.9 L 1200.0 1136.2 L 1200.0 1139.2 L 1171.3 1140.4 L 1142.6 1155.9 L 1113.9 1151.7 L 1085.2 1118.3 L 1056.5 1089.4 L 1027.8 1094.6 L 999.1 1144.3 L 970.4 1175.4 L 941.7 1161.2 L 913.0 1125.2 L 884.3 1100.1 L 855.7 1105.5 L 827.0 1126.2 L 798.3 1135.4 L 769.6 1141.4 L 740.9 1147.3 L 712.2 1151.1 L 683.5 1126.4 L 654.8 1099.9 L 626.1 1092.4 L 597.4 1128.5 L 568.7 1170.9 L 540.0 1172.0 L 511.3 1132.6 L 482.6 1104.3 L 453.9 1100.1 L 425.2 1126.2 L 396.5 1143.5 L 367.8 1145.9 L 339.1 1152.5 L 310.4 1147.0 L 281.7 1132.6 L 253.0 1107.2 L 224.3 1093.9 L 195.7 1125.2 L 167.0 1166.6 L 138.3 1175.4 L 109.6 1141.8 L 80.9 1108.6 L 52.2 1101.5 L 23.5 1116.4 L -5.2 1143.9 L -33.9 1147.9 L -62.6 1148.1 L -91.3 1148.1 L -120.0 1134.8 Z"/><path d="M -120.0 1289.6 L -91.3 1292.3 L -62.6 1297.7 L -33.9 1266.3 L -5.2 1242.8 L 23.5 1242.8 L 52.2 1285.6 L 80.9 1327.1 L 109.6 1308.9 L 138.3 1255.7 L 167.0 1240.0 L 195.7 1262.0 L 224.3 1284.6 L 253.0 1293.9 L 281.7 1295.3 L 310.4 1290.3 L 339.1 1279.3 L 367.8 1249.2 L 396.5 1249.8 L 425.2 1276.6 L 453.9 1320.4 L 482.6 1319.3 L 511.3 1271.1 L 540.0 1242.0 L 568.7 1253.0 L 597.4 1290.7 L 626.1 1305.1 L 654.8 1294.3 L 683.5 1288.8 L 712.2 1273.9 L 740.9 1264.8 L 769.6 1248.6 L 798.3 1271.9 L 827.0 1316.6 L 855.7 1320.3 L 884.3 1283.3 L 913.0 1235.9 L 941.7 1242.2 L 970.4 1284.0 L 999.1 1312.9 L 1027.8 1304.7 L 1056.5 1281.6 L 1085.2 1270.8 L 1113.9 1264.2 L 1142.6 1252.7 L 1171.3 1261.8 L 1200.0 1301.6 L 1200.0 1309.7 L 1171.3 1269.5 L 1142.6 1260.1 L 1113.9 1271.2 L 1085.2 1277.2 L 1056.5 1287.6 L 1027.8 1310.1 L 999.1 1317.8 L 970.4 1288.3 L 941.7 1246.0 L 913.0 1239.2 L 884.3 1286.2 L 855.7 1322.7 L 827.0 1318.6 L 798.3 1273.5 L 769.6 1249.9 L 740.9 1265.9 L 712.2 1274.8 L 683.5 1289.6 L 654.8 1295.2 L 626.1 1306.0 L 597.4 1291.8 L 568.7 1254.3 L 540.0 1243.5 L 511.3 1273.0 L 482.6 1321.6 L 453.9 1323.1 L 425.2 1279.8 L 396.5 1253.5 L 367.8 1253.4 L 339.1 1284.0 L 310.4 1295.6 L 281.7 1301.2 L 253.0 1300.3 L 224.3 1291.4 L 195.7 1269.3 L 167.0 1247.6 L 138.3 1263.7 L 109.6 1317.2 L 80.9 1335.6 L 52.2 1294.3 L 23.5 1251.6 L -5.2 1251.6 L -33.9 1275.0 L -62.6 1306.3 L -91.3 1300.6 L -120.0 1297.7 Z"/></g></g><g filter="url(#g9014_warp)" fill="url(#g9014_amb)" opacity="0.28"><g filter="url(#g9014_b)"><path d="M -120.0 207.6 L -91.3 194.4 L -62.6 184.1 L -33.9 172.6 L -5.2 173.2 L 23.5 167.6 L 52.2 174.0 L 80.9 168.1 L 109.6 167.2 L 138.3 163.0 L 167.0 157.2 L 195.7 155.9 L 224.3 158.4 L 253.0 171.6 L 281.7 187.6 L 310.4 207.1 L 339.1 225.7 L 367.8 232.4 L 396.5 228.0 L 425.2 218.5 L 453.9 203.6 L 482.6 183.3 L 511.3 172.7 L 540.0 160.2 L 568.7 161.6 L 597.4 160.4 L 626.1 165.1 L 654.8 163.9 L 683.5 164.8 L 712.2 169.3 L 740.9 162.5 L 769.6 165.5 L 798.3 173.8 L 827.0 180.6 L 855.7 188.8 L 884.3 205.5 L 913.0 223.1 L 941.7 227.9 L 970.4 226.6 L 999.1 215.4 L 1027.8 193.0 L 1056.5 181.0 L 1085.2 163.0 L 1113.9 152.1 L 1142.6 149.1 L 1171.3 150.7 L 1200.0 156.1 L 1200.0 161.6 L 1171.3 156.4 L 1142.6 154.9 L 1113.9 157.9 L 1085.2 168.8 L 1056.5 186.7 L 1027.8 198.7 L 999.1 221.0 L 970.4 232.0 L 941.7 233.0 L 913.0 227.9 L 884.3 210.0 L 855.7 193.1 L 827.0 184.5 L 798.3 177.3 L 769.6 168.6 L 740.9 165.3 L 712.2 171.8 L 683.5 167.0 L 654.8 165.8 L 626.1 166.6 L 597.4 161.7 L 568.7 162.7 L 540.0 161.0 L 511.3 173.4 L 482.6 183.9 L 453.9 204.2 L 425.2 219.0 L 396.5 228.7 L 367.8 233.2 L 339.1 226.6 L 310.4 208.2 L 281.7 188.9 L 253.0 173.2 L 224.3 160.2 L 195.7 158.1 L 167.0 159.7 L 138.3 165.9 L 109.6 170.4 L 80.9 171.7 L 52.2 178.0 L 23.5 171.9 L -5.2 177.7 L -33.9 177.4 L -62.6 189.2 L -91.3 199.7 L -120.0 213.1 Z"/><path d="M -120.0 357.6 L -91.3 334.8 L -62.6 325.0 L -33.9 304.5 L -5.2 311.0 L 23.5 309.1 L 52.2 299.9 L 80.9 300.4 L 109.6 302.6 L 138.3 289.2 L 167.0 289.3 L 195.7 284.8 L 224.3 287.4 L 253.0 295.6 L 281.7 313.4 L 310.4 342.3 L 339.1 366.3 L 367.8 374.7 L 396.5 377.8 L 425.2 374.9 L 453.9 360.1 L 482.6 342.5 L 511.3 315.6 L 540.0 300.5 L 568.7 295.6 L 597.4 296.5 L 626.1 295.2 L 654.8 302.6 L 683.5 299.9 L 712.2 298.2 L 740.9 294.4 L 769.6 292.0 L 798.3 299.4 L 827.0 299.1 L 855.7 312.0 L 884.3 341.4 L 913.0 350.1 L 941.7 370.2 L 970.4 377.7 L 999.1 375.9 L 1027.8 359.2 L 1056.5 342.2 L 1085.2 309.9 L 1113.9 297.4 L 1142.6 277.4 L 1171.3 278.6 L 1200.0 281.7 L 1200.0 288.9 L 1171.3 285.9 L 1142.6 284.7 L 1113.9 304.8 L 1085.2 317.2 L 1056.5 349.4 L 1027.8 366.3 L 999.1 382.8 L 970.4 384.3 L 941.7 376.4 L 913.0 356.0 L 884.3 346.9 L 855.7 317.1 L 827.0 303.6 L 798.3 303.5 L 769.6 295.7 L 740.9 297.6 L 712.2 301.0 L 683.5 302.3 L 654.8 304.6 L 626.1 296.9 L 597.4 297.9 L 568.7 296.7 L 540.0 301.5 L 511.3 316.4 L 482.6 343.2 L 453.9 360.9 L 425.2 375.7 L 396.5 378.8 L 367.8 375.8 L 339.1 367.6 L 310.4 343.9 L 281.7 315.3 L 253.0 297.9 L 224.3 290.1 L 195.7 287.9 L 167.0 292.8 L 138.3 293.2 L 109.6 307.1 L 80.9 305.3 L 52.2 305.2 L 23.5 314.8 L -5.2 317.2 L -33.9 311.0 L -62.6 331.7 L -91.3 341.8 L -120.0 364.8 Z"/><path d="M -120.0 405.8 L -91.3 408.7 L -62.6 406.5 L -33.9 396.9 L -5.2 401.1 L 23.5 405.4 L 52.2 417.8 L 80.9 438.8 L 109.6 455.7 L 138.3 469.0 L 167.0 465.9 L 195.7 453.7 L 224.3 417.4 L 253.0 399.6 L 281.7 382.0 L 310.4 371.0 L 339.1 387.0 L 367.8 398.5 L 396.5 412.5 L 425.2 427.2 L 453.9 430.4 L 482.6 432.0 L 511.3 431.2 L 540.0 441.7 L 568.7 448.4 L 597.4 451.2 L 626.1 440.6 L 654.8 425.7 L 683.5 400.4 L 712.2 383.4 L 740.9 368.8 L 769.6 366.7 L 798.3 383.3 L 827.0 411.6 L 855.7 440.7 L 884.3 454.6 L 913.0 452.1 L 941.7 454.1 L 970.4 439.2 L 999.1 428.2 L 1027.8 426.3 L 1056.5 414.3 L 1085.2 412.2 L 1113.9 406.7 L 1142.6 396.3 L 1171.3 390.0 L 1200.0 386.8 L 1200.0 388.1 L 1171.3 391.7 L 1142.6 398.3 L 1113.9 409.0 L 1085.2 414.9 L 1056.5 417.4 L 1027.8 429.8 L 999.1 432.1 L 970.4 443.5 L 941.7 458.9 L 913.0 457.2 L 884.3 460.1 L 855.7 446.5 L 827.0 417.7 L 798.3 389.6 L 769.6 373.2 L 740.9 375.5 L 712.2 390.1 L 683.5 407.2 L 654.8 432.4 L 626.1 447.3 L 597.4 457.7 L 568.7 454.7 L 540.0 447.8 L 511.3 437.0 L 482.6 437.5 L 453.9 435.6 L 425.2 431.9 L 396.5 416.8 L 367.8 402.4 L 339.1 390.5 L 310.4 374.1 L 281.7 384.7 L 253.0 402.0 L 224.3 419.3 L 195.7 455.3 L 167.0 467.2 L 138.3 470.1 L 109.6 456.7 L 80.9 439.5 L 52.2 418.5 L 23.5 406.1 L -5.2 401.8 L -33.9 397.7 L -62.6 407.5 L -91.3 409.8 L -120.0 407.1 Z"/><path d="M -120.0 547.6 L -91.3 550.4 L -62.6 551.4 L -33.9 545.6 L -5.2 539.9 L 23.5 544.6 L 52.2 548.9 L 80.9 563.9 L 109.6 581.5 L 138.3 602.2 L 167.0 606.4 L 195.7 596.6 L 224.3 577.4 L 253.0 555.0 L 281.7 537.7 L 310.4 524.5 L 339.1 528.1 L 367.8 536.9 L 396.5 550.0 L 425.2 560.6 L 453.9 565.6 L 482.6 569.8 L 511.3 566.0 L 540.0 574.9 L 568.7 578.6 L 597.4 587.2 L 626.1 590.0 L 654.8 586.7 L 683.5 566.4 L 712.2 551.8 L 740.9 526.3 L 769.6 515.7 L 798.3 517.0 L 827.0 526.4 L 855.7 552.5 L 884.3 570.8 L 913.0 584.8 L 941.7 589.6 L 970.4 592.2 L 999.1 576.2 L 1027.8 570.7 L 1056.5 564.8 L 1085.2 562.9 L 1113.9 564.7 L 1142.6 556.4 L 1171.3 547.9 L 1200.0 538.9 L 1200.0 541.3 L 1171.3 550.7 L 1142.6 559.7 L 1113.9 568.5 L 1085.2 567.2 L 1056.5 569.7 L 1027.8 576.1 L 999.1 582.1 L 970.4 598.7 L 941.7 596.6 L 913.0 592.1 L 884.3 578.5 L 855.7 560.6 L 827.0 534.8 L 798.3 525.6 L 769.6 524.5 L 740.9 535.1 L 712.2 560.7 L 683.5 575.1 L 654.8 595.2 L 626.1 598.4 L 597.4 595.3 L 568.7 586.3 L 540.0 582.2 L 511.3 572.9 L 482.6 576.2 L 453.9 571.5 L 425.2 566.0 L 396.5 554.8 L 367.8 541.2 L 339.1 531.8 L 310.4 527.8 L 281.7 540.4 L 253.0 557.3 L 224.3 579.4 L 195.7 598.2 L 167.0 607.8 L 138.3 603.3 L 109.6 582.5 L 80.9 564.8 L 52.2 549.8 L 23.5 545.6 L -5.2 541.0 L -33.9 546.9 L -62.6 553.1 L -91.3 552.4 L -120.0 550.0 Z"/><path d="M -120.0 649.8 L -91.3 654.1 L -62.6 654.1 L -33.9 661.0 L -5.2 679.7 L 23.5 697.6 L 52.2 714.1 L 80.9 723.6 L 109.6 696.5 L 138.3 671.6 L 167.0 643.7 L 195.7 627.7 L 224.3 631.2 L 253.0 638.7 L 281.7 666.0 L 310.4 675.9 L 339.1 689.0 L 367.8 684.1 L 396.5 686.3 L 425.2 686.1 L 453.9 690.5 L 482.6 696.7 L 511.3 688.9 L 540.0 668.3 L 568.7 644.2 L 597.4 629.6 L 626.1 622.2 L 654.8 636.6 L 683.5 665.5 L 712.2 690.0 L 740.9 708.0 L 769.6 714.8 L 798.3 705.1 L 827.0 683.4 L 855.7 672.8 L 884.3 662.8 L 913.0 651.6 L 941.7 660.3 L 970.4 654.1 L 999.1 656.4 L 1027.8 644.4 L 1056.5 657.9 L 1085.2 671.2 L 1113.9 692.3 L 1142.6 712.9 L 1171.3 720.1 L 1200.0 717.3 L 1200.0 718.0 L 1171.3 720.7 L 1142.6 713.5 L 1113.9 693.0 L 1085.2 671.9 L 1056.5 658.8 L 1027.8 645.5 L 999.1 657.7 L 970.4 655.6 L 941.7 662.2 L 913.0 653.8 L 884.3 665.3 L 855.7 675.7 L 827.0 686.7 L 798.3 708.8 L 769.6 718.8 L 740.9 712.4 L 712.2 694.7 L 683.5 670.6 L 654.8 641.9 L 626.1 627.8 L 597.4 635.4 L 568.7 650.2 L 540.0 674.3 L 511.3 695.1 L 482.6 702.8 L 453.9 696.6 L 425.2 692.2 L 396.5 692.2 L 367.8 689.8 L 339.1 694.5 L 310.4 681.1 L 281.7 670.9 L 253.0 643.3 L 224.3 635.4 L 195.7 631.5 L 167.0 647.2 L 138.3 674.7 L 109.6 699.3 L 80.9 726.0 L 52.2 716.1 L 23.5 699.3 L -5.2 681.1 L -33.9 662.2 L -62.6 655.1 L -91.3 654.9 L -120.0 650.5 Z"/><path d="M -120.0 805.5 L -91.3 817.7 L -62.6 846.1 L -33.9 866.6 L -5.2 868.4 L 23.5 848.7 L 52.2 826.5 L 80.9 798.1 L 109.6 779.1 L 138.3 789.2 L 167.0 805.1 L 195.7 822.2 L 224.3 844.0 L 253.0 839.7 L 281.7 844.8 L 310.4 839.3 L 339.1 836.0 L 367.8 832.7 L 396.5 828.2 L 425.2 815.1 L 453.9 793.6 L 482.6 784.8 L 511.3 791.2 L 540.0 816.1 L 568.7 842.6 L 597.4 867.9 L 626.1 872.2 L 654.8 851.4 L 683.5 820.7 L 712.2 807.1 L 740.9 799.3 L 769.6 800.4 L 798.3 807.3 L 827.0 818.5 L 855.7 818.5 L 884.3 823.1 L 913.0 830.0 L 941.7 851.3 L 970.4 863.5 L 999.1 861.2 L 1027.8 835.2 L 1056.5 810.5 L 1085.2 790.1 L 1113.9 775.7 L 1142.6 789.6 L 1171.3 814.3 L 1200.0 839.1 L 1200.0 841.8 L 1171.3 816.7 L 1142.6 791.6 L 1113.9 777.5 L 1085.2 791.5 L 1056.5 811.7 L 1027.8 836.2 L 999.1 862.0 L 970.4 864.2 L 941.7 851.9 L 913.0 830.6 L 884.3 823.7 L 855.7 819.1 L 827.0 819.2 L 798.3 808.2 L 769.6 801.5 L 740.9 800.6 L 712.2 808.7 L 683.5 822.6 L 654.8 853.7 L 626.1 874.7 L 597.4 870.7 L 568.7 845.9 L 540.0 819.7 L 511.3 795.2 L 482.6 789.1 L 453.9 798.1 L 425.2 820.0 L 396.5 833.3 L 367.8 838.0 L 339.1 841.4 L 310.4 844.9 L 281.7 850.5 L 253.0 845.4 L 224.3 849.7 L 195.7 827.8 L 167.0 810.6 L 138.3 794.6 L 109.6 784.3 L 80.9 803.1 L 52.2 831.2 L 23.5 853.1 L -5.2 872.4 L -33.9 870.4 L -62.6 849.5 L -91.3 820.7 L -120.0 808.2 Z"/><path d="M -120.0 996.6 L -91.3 947.3 L -62.6 907.5 L -33.9 887.8 L -5.2 901.1 L 23.5 942.3 L 52.2 970.4 L 80.9 975.4 L 109.6 966.5 L 138.3 956.1 L 167.0 954.2 L 195.7 940.7 L 224.3 925.7 L 253.0 896.9 L 281.7 893.2 L 310.4 930.4 L 339.1 979.2 L 367.8 1009.9 L 396.5 1001.9 L 425.2 959.4 L 453.9 915.7 L 482.6 896.7 L 511.3 910.3 L 540.0 934.3 L 568.7 958.5 L 597.4 961.9 L 626.1 967.3 L 654.8 971.1 L 683.5 975.2 L 712.2 959.6 L 740.9 925.4 L 769.6 894.9 L 798.3 885.2 L 827.0 916.8 L 855.7 973.8 L 884.3 998.6 L 913.0 997.9 L 941.7 961.8 L 970.4 913.4 L 999.1 907.1 L 1027.8 912.7 L 1056.5 931.7 L 1085.2 941.4 L 1113.9 944.7 L 1142.6 957.0 L 1171.3 969.8 L 1200.0 983.9 L 1200.0 988.5 L 1171.3 974.6 L 1142.6 962.0 L 1113.9 949.8 L 1085.2 946.6 L 1056.5 936.8 L 1027.8 917.8 L 999.1 912.2 L 970.4 918.4 L 941.7 966.6 L 913.0 1002.6 L 884.3 1003.0 L 855.7 978.1 L 827.0 920.8 L 798.3 888.9 L 769.6 898.2 L 740.9 928.4 L 712.2 962.4 L 683.5 977.7 L 654.8 973.3 L 626.1 969.1 L 597.4 963.4 L 568.7 959.8 L 540.0 935.4 L 511.3 911.1 L 482.6 897.4 L 453.9 916.3 L 425.2 960.0 L 396.5 1002.4 L 367.8 1010.5 L 339.1 979.8 L 310.4 931.1 L 281.7 894.0 L 253.0 897.9 L 224.3 926.9 L 195.7 942.2 L 167.0 956.0 L 138.3 958.2 L 109.6 968.8 L 80.9 978.0 L 52.2 973.4 L 23.5 945.6 L -5.2 904.7 L -33.9 891.7 L -62.6 911.6 L -91.3 951.7 L -120.0 1001.2 Z"/><path d="M -120.0 1087.3 L -91.3 1056.7 L -62.6 1035.6 L -33.9 1030.0 L -5.2 1046.7 L 23.5 1069.0 L 52.2 1082.6 L 80.9 1079.1 L 109.6 1071.8 L 138.3 1070.2 L 167.0 1070.6 L 195.7 1060.2 L 224.3 1043.5 L 253.0 1038.7 L 281.7 1044.2 L 310.4 1071.3 L 339.1 1095.6 L 367.8 1102.1 L 396.5 1082.4 L 425.2 1058.3 L 453.9 1038.1 L 482.6 1036.4 L 511.3 1050.8 L 540.0 1066.3 L 568.7 1074.3 L 597.4 1076.5 L 626.1 1074.0 L 654.8 1076.3 L 683.5 1070.7 L 712.2 1061.5 L 740.9 1035.3 L 769.6 1028.6 L 798.3 1040.2 L 827.0 1071.0 L 855.7 1093.3 L 884.3 1094.5 L 913.0 1075.9 L 941.7 1053.8 L 970.4 1036.1 L 999.1 1040.3 L 1027.8 1049.4 L 1056.5 1059.4 L 1085.2 1067.4 L 1113.9 1072.8 L 1142.6 1077.1 L 1171.3 1080.8 L 1200.0 1078.2 L 1200.0 1082.9 L 1171.3 1085.7 L 1142.6 1082.2 L 1113.9 1078.2 L 1085.2 1072.9 L 1056.5 1065.0 L 1027.8 1055.0 L 999.1 1045.9 L 970.4 1041.7 L 941.7 1059.3 L 913.0 1081.2 L 884.3 1099.7 L 855.7 1098.3 L 827.0 1075.7 L 798.3 1044.6 L 769.6 1032.7 L 740.9 1039.1 L 712.2 1064.9 L 683.5 1073.8 L 654.8 1079.0 L 626.1 1076.4 L 597.4 1078.6 L 568.7 1076.1 L 540.0 1067.8 L 511.3 1052.0 L 482.6 1037.5 L 453.9 1039.0 L 425.2 1059.0 L 396.5 1083.0 L 367.8 1102.7 L 339.1 1096.1 L 310.4 1071.9 L 281.7 1044.9 L 253.0 1039.6 L 224.3 1044.5 L 195.7 1061.5 L 167.0 1072.0 L 138.3 1072.0 L 109.6 1073.9 L 80.9 1081.4 L 52.2 1085.4 L 23.5 1072.0 L -5.2 1050.1 L -33.9 1033.8 L -62.6 1039.7 L -91.3 1061.0 L -120.0 1091.9 Z"/><path d="M -120.0 1161.6 L -91.3 1157.0 L -62.6 1186.7 L -33.9 1206.2 L -5.2 1212.9 L 23.5 1212.3 L 52.2 1207.7 L 80.9 1204.7 L 109.6 1190.7 L 138.3 1177.2 L 167.0 1163.3 L 195.7 1173.9 L 224.3 1210.0 L 253.0 1240.0 L 281.7 1228.8 L 310.4 1198.3 L 339.1 1162.5 L 367.8 1159.6 L 396.5 1176.9 L 425.2 1201.7 L 453.9 1207.2 L 482.6 1206.8 L 511.3 1210.7 L 540.0 1205.1 L 568.7 1196.9 L 597.4 1174.3 L 626.1 1160.7 L 654.8 1172.5 L 683.5 1202.4 L 712.2 1229.4 L 740.9 1229.7 L 769.6 1206.1 L 798.3 1167.7 L 827.0 1161.1 L 855.7 1171.5 L 884.3 1192.2 L 913.0 1210.5 L 941.7 1205.9 L 970.4 1212.2 L 999.1 1208.0 L 1027.8 1203.2 L 1056.5 1177.3 L 1085.2 1164.1 L 1113.9 1163.7 L 1142.6 1194.5 L 1171.3 1231.7 L 1200.0 1233.9 L 1200.0 1234.9 L 1171.3 1233.0 L 1142.6 1195.9 L 1113.9 1165.4 L 1085.2 1166.1 L 1056.5 1179.5 L 1027.8 1205.6 L 999.1 1210.7 L 970.4 1215.2 L 941.7 1209.1 L 913.0 1213.8 L 884.3 1195.7 L 855.7 1175.2 L 827.0 1165.0 L 798.3 1171.7 L 769.6 1210.2 L 740.9 1233.7 L 712.2 1233.5 L 683.5 1206.4 L 654.8 1176.6 L 626.1 1164.6 L 597.4 1178.2 L 568.7 1200.5 L 540.0 1208.6 L 511.3 1214.0 L 482.6 1209.9 L 453.9 1210.0 L 425.2 1204.3 L 396.5 1179.2 L 367.8 1161.7 L 339.1 1164.4 L 310.4 1199.9 L 281.7 1230.2 L 253.0 1241.2 L 224.3 1211.0 L 195.7 1174.7 L 167.0 1164.0 L 138.3 1177.7 L 109.6 1191.2 L 80.9 1205.1 L 52.2 1208.1 L 23.5 1212.7 L -5.2 1213.4 L -33.9 1206.7 L -62.6 1187.4 L -91.3 1157.9 L -120.0 1162.6 Z"/><path d="M -120.0 1343.2 L -91.3 1359.2 L -62.6 1365.2 L -33.9 1368.0 L -5.2 1364.9 L 23.5 1356.7 L 52.2 1345.6 L 80.9 1327.0 L 109.6 1333.2 L 138.3 1356.3 L 167.0 1383.7 L 195.7 1378.2 L 224.3 1353.1 L 253.0 1322.3 L 281.7 1329.3 L 310.4 1345.9 L 339.1 1366.1 L 367.8 1364.4 L 396.5 1362.9 L 425.2 1357.9 L 453.9 1355.8 L 482.6 1340.0 L 511.3 1322.7 L 540.0 1338.1 L 568.7 1363.6 L 597.4 1387.1 L 626.1 1374.6 L 654.8 1343.2 L 683.5 1319.6 L 712.2 1327.8 L 740.9 1349.8 L 769.6 1370.6 L 798.3 1370.5 L 827.0 1362.8 L 855.7 1362.9 L 884.3 1351.9 L 913.0 1338.0 L 941.7 1326.2 L 970.4 1340.7 L 999.1 1375.9 L 1027.8 1386.7 L 1056.5 1375.1 L 1085.2 1336.4 L 1113.9 1323.7 L 1142.6 1332.5 L 1171.3 1355.8 L 1200.0 1368.6 L 1200.0 1369.5 L 1171.3 1356.5 L 1142.6 1333.1 L 1113.9 1324.2 L 1085.2 1336.8 L 1056.5 1375.6 L 1027.8 1387.3 L 999.1 1376.4 L 970.4 1341.4 L 941.7 1327.0 L 913.0 1339.0 L 884.3 1353.1 L 855.7 1364.4 L 827.0 1364.5 L 798.3 1372.5 L 769.6 1372.9 L 740.9 1352.4 L 712.2 1330.6 L 683.5 1322.7 L 654.8 1346.6 L 626.1 1378.3 L 597.4 1391.0 L 568.7 1367.7 L 540.0 1342.4 L 511.3 1327.2 L 482.6 1344.5 L 453.9 1360.5 L 425.2 1362.5 L 396.5 1367.5 L 367.8 1369.0 L 339.1 1370.6 L 310.4 1350.4 L 281.7 1333.6 L 253.0 1326.4 L 224.3 1357.0 L 195.7 1381.8 L 167.0 1387.1 L 138.3 1359.4 L 109.6 1336.1 L 80.9 1329.5 L 52.2 1347.9 L 23.5 1358.6 L -5.2 1366.6 L -33.9 1369.4 L -62.6 1366.4 L -91.3 1360.2 L -120.0 1344.0 Z"/></g></g><g filter="url(#g9014_warp)" fill="url(#g9014_cob)" opacity="0.78"><path d="M -120.0 161.5 L -91.3 169.8 L -62.6 162.9 L -33.9 160.1 L -5.2 151.6 L 23.5 136.7 L 52.2 129.9 L 80.9 120.2 L 109.6 115.1 L 138.3 117.4 L 167.0 114.6 L 195.7 116.3 L 224.3 110.4 L 253.0 107.0 L 281.7 95.5 L 310.4 93.4 L 339.1 78.8 L 367.8 76.1 L 396.5 75.9 L 425.2 78.8 L 453.9 88.6 L 482.6 103.4 L 511.3 120.4 L 540.0 140.5 L 568.7 155.5 L 597.4 168.9 L 626.1 161.4 L 654.8 156.8 L 683.5 150.0 L 712.2 147.3 L 740.9 135.8 L 769.6 124.0 L 798.3 120.2 L 827.0 120.5 L 855.7 124.2 L 884.3 121.2 L 913.0 120.3 L 941.7 118.6 L 970.4 103.2 L 999.1 94.1 L 1027.8 78.1 L 1056.5 78.1 L 1085.2 66.4 L 1113.9 70.1 L 1142.6 90.5 L 1171.3 97.1 L 1200.0 114.1 L 1200.0 118.7 L 1171.3 101.4 L 1142.6 94.5 L 1113.9 73.8 L 1085.2 69.7 L 1056.5 81.1 L 1027.8 80.8 L 999.1 96.5 L 970.4 105.2 L 941.7 120.4 L 913.0 121.8 L 884.3 122.4 L 855.7 125.2 L 827.0 121.3 L 798.3 120.9 L 769.6 124.6 L 740.9 136.3 L 712.2 147.9 L 683.5 150.6 L 654.8 157.5 L 626.1 162.2 L 597.4 169.9 L 568.7 156.7 L 540.0 141.9 L 511.3 122.1 L 482.6 105.4 L 453.9 91.0 L 425.2 81.4 L 396.5 78.9 L 367.8 79.5 L 339.1 82.5 L 310.4 97.4 L 281.7 99.8 L 253.0 111.6 L 224.3 115.2 L 195.7 121.3 L 167.0 119.9 L 138.3 122.7 L 109.6 120.5 L 80.9 125.7 L 52.2 135.4 L 23.5 142.2 L -5.2 156.9 L -33.9 165.3 L -62.6 168.0 L -91.3 174.6 L -120.0 166.1 Z"/><path d="M -120.0 262.5 L -91.3 253.3 L -62.6 247.1 L -33.9 243.0 L -5.2 243.6 L 23.5 245.2 L 52.2 240.4 L 80.9 237.5 L 109.6 233.9 L 138.3 226.1 L 167.0 230.9 L 195.7 237.0 L 224.3 244.7 L 253.0 261.6 L 281.7 278.2 L 310.4 289.9 L 339.1 297.2 L 367.8 297.6 L 396.5 281.7 L 425.2 264.1 L 453.9 248.6 L 482.6 238.8 L 511.3 232.8 L 540.0 226.7 L 568.7 233.6 L 597.4 232.1 L 626.1 238.9 L 654.8 244.3 L 683.5 240.5 L 712.2 240.8 L 740.9 241.1 L 769.6 247.5 L 798.3 260.1 L 827.0 280.0 L 855.7 287.7 L 884.3 295.1 L 913.0 296.0 L 941.7 282.8 L 970.4 266.9 L 999.1 247.0 L 1027.8 230.1 L 1056.5 213.6 L 1085.2 215.4 L 1113.9 218.8 L 1142.6 232.0 L 1171.3 241.7 L 1200.0 251.8 L 1200.0 257.1 L 1171.3 247.2 L 1142.6 237.7 L 1113.9 224.6 L 1085.2 221.4 L 1056.5 219.6 L 1027.8 236.1 L 999.1 252.9 L 970.4 272.7 L 941.7 288.4 L 913.0 301.4 L 884.3 300.3 L 855.7 292.6 L 827.0 284.6 L 798.3 264.4 L 769.6 251.5 L 740.9 244.7 L 712.2 244.0 L 683.5 243.4 L 654.8 246.8 L 626.1 241.1 L 597.4 233.9 L 568.7 235.1 L 540.0 227.9 L 511.3 233.9 L 482.6 239.7 L 453.9 249.3 L 425.2 264.7 L 396.5 282.3 L 367.8 298.2 L 339.1 297.9 L 310.4 290.7 L 281.7 279.1 L 253.0 262.7 L 224.3 246.1 L 195.7 238.7 L 167.0 232.8 L 138.3 228.4 L 109.6 236.5 L 80.9 240.4 L 52.2 243.8 L 23.5 248.9 L -5.2 247.6 L -33.9 247.5 L -62.6 251.9 L -91.3 258.3 L -120.0 267.8 Z"/><path d="M -120.0 357.6 L -91.3 354.4 L -62.6 356.7 L -33.9 346.6 L -5.2 351.4 L 23.5 363.7 L 52.2 390.1 L 80.9 415.9 L 109.6 440.5 L 138.3 435.3 L 167.0 410.1 L 195.7 376.5 L 224.3 352.0 L 253.0 331.5 L 281.7 326.1 L 310.4 340.6 L 339.1 350.3 L 367.8 380.0 L 396.5 384.6 L 425.2 386.3 L 453.9 395.9 L 482.6 391.4 L 511.3 396.5 L 540.0 403.1 L 568.7 408.3 L 597.4 394.9 L 626.1 377.7 L 654.8 352.0 L 683.5 326.4 L 712.2 310.9 L 740.9 325.2 L 769.6 356.8 L 798.3 382.4 L 827.0 411.0 L 855.7 423.2 L 884.3 418.1 L 913.0 406.0 L 941.7 394.3 L 970.4 382.9 L 999.1 375.5 L 1027.8 366.8 L 1056.5 365.0 L 1085.2 357.6 L 1113.9 350.5 L 1142.6 336.1 L 1171.3 338.0 L 1200.0 359.3 L 1200.0 360.3 L 1171.3 339.2 L 1142.6 337.5 L 1113.9 352.3 L 1085.2 359.8 L 1056.5 367.6 L 1027.8 369.8 L 999.1 378.9 L 970.4 386.8 L 941.7 398.6 L 913.0 410.7 L 884.3 423.2 L 855.7 428.7 L 827.0 416.9 L 798.3 388.7 L 769.6 363.4 L 740.9 332.0 L 712.2 318.0 L 683.5 333.6 L 654.8 359.3 L 626.1 385.0 L 597.4 402.2 L 568.7 415.5 L 540.0 410.2 L 511.3 403.3 L 482.6 398.0 L 453.9 402.2 L 425.2 392.3 L 396.5 390.2 L 367.8 385.1 L 339.1 354.9 L 310.4 344.9 L 281.7 329.9 L 253.0 334.8 L 224.3 354.9 L 195.7 379.0 L 167.0 412.2 L 138.3 437.1 L 109.6 441.9 L 80.9 417.1 L 52.2 391.1 L 23.5 364.6 L -5.2 352.1 L -33.9 347.4 L -62.6 357.5 L -91.3 355.3 L -120.0 358.6 Z"/><path d="M -120.0 492.5 L -91.3 499.7 L -62.6 522.2 L -33.9 559.1 L -5.2 576.2 L 23.5 576.6 L 52.2 546.4 L 80.9 510.6 L 109.6 472.6 L 138.3 455.4 L 167.0 477.6 L 195.7 498.0 L 224.3 526.7 L 253.0 537.6 L 281.7 542.5 L 310.4 541.2 L 339.1 542.2 L 367.8 539.0 L 396.5 530.8 L 425.2 527.5 L 453.9 505.0 L 482.6 473.3 L 511.3 463.6 L 540.0 471.0 L 568.7 493.4 L 597.4 532.5 L 626.1 571.3 L 654.8 571.8 L 683.5 564.1 L 712.2 527.1 L 740.9 507.4 L 769.6 488.0 L 798.3 487.3 L 827.0 499.1 L 855.7 497.2 L 884.3 506.3 L 913.0 514.2 L 941.7 524.7 L 970.4 536.6 L 999.1 562.1 L 1027.8 576.3 L 1056.5 554.8 L 1085.2 525.1 L 1113.9 488.0 L 1142.6 466.5 L 1171.3 458.1 L 1200.0 477.5 L 1200.0 480.6 L 1171.3 460.7 L 1142.6 468.6 L 1113.9 489.7 L 1085.2 526.6 L 1056.5 556.0 L 1027.8 577.3 L 999.1 563.0 L 970.4 537.5 L 941.7 525.6 L 913.0 515.2 L 884.3 507.5 L 855.7 498.6 L 827.0 500.9 L 798.3 489.5 L 769.6 490.5 L 740.9 510.5 L 712.2 530.7 L 683.5 568.2 L 654.8 576.4 L 626.1 576.4 L 597.4 538.2 L 568.7 499.5 L 540.0 477.7 L 511.3 470.7 L 482.6 480.8 L 453.9 512.9 L 425.2 535.7 L 396.5 539.3 L 367.8 547.7 L 339.1 550.9 L 310.4 550.0 L 281.7 551.3 L 253.0 546.3 L 224.3 535.2 L 195.7 506.2 L 167.0 485.6 L 138.3 463.0 L 109.6 479.7 L 80.9 517.3 L 52.2 552.5 L 23.5 582.2 L -5.2 581.4 L -33.9 563.7 L -62.6 526.3 L -91.3 503.2 L -120.0 495.5 Z"/><path d="M -120.0 619.6 L -91.3 625.0 L -62.6 642.2 L -33.9 660.3 L -5.2 676.4 L 23.5 676.6 L 52.2 656.8 L 80.9 623.8 L 109.6 605.1 L 138.3 591.9 L 167.0 597.0 L 195.7 622.3 L 224.3 642.7 L 253.0 652.6 L 281.7 658.8 L 310.4 648.7 L 339.1 651.7 L 367.8 646.9 L 396.5 653.5 L 425.2 646.0 L 453.9 628.9 L 482.6 609.0 L 511.3 597.7 L 540.0 597.1 L 568.7 623.5 L 597.4 645.2 L 626.1 669.2 L 654.8 678.8 L 683.5 667.4 L 712.2 652.3 L 740.9 624.3 L 769.6 613.3 L 798.3 615.8 L 827.0 615.8 L 855.7 619.4 L 884.3 627.7 L 913.0 627.7 L 941.7 639.6 L 970.4 648.3 L 999.1 664.0 L 1027.8 677.6 L 1056.5 671.4 L 1085.2 644.4 L 1113.9 621.9 L 1142.6 596.4 L 1171.3 594.9 L 1200.0 602.7 L 1200.0 604.6 L 1171.3 596.6 L 1142.6 597.8 L 1113.9 623.0 L 1085.2 645.4 L 1056.5 672.2 L 1027.8 678.2 L 999.1 664.6 L 970.4 648.9 L 941.7 640.2 L 913.0 628.4 L 884.3 628.6 L 855.7 620.4 L 827.0 617.1 L 798.3 617.3 L 769.6 615.1 L 740.9 626.4 L 712.2 654.7 L 683.5 670.2 L 654.8 681.9 L 626.1 672.7 L 597.4 649.1 L 568.7 627.7 L 540.0 601.6 L 511.3 602.5 L 482.6 614.1 L 453.9 634.3 L 425.2 651.5 L 396.5 659.2 L 367.8 652.8 L 339.1 657.6 L 310.4 654.6 L 281.7 664.7 L 253.0 658.4 L 224.3 648.4 L 195.7 627.8 L 167.0 602.3 L 138.3 596.9 L 109.6 609.9 L 80.9 628.2 L 52.2 660.9 L 23.5 680.3 L -5.2 679.8 L -33.9 663.3 L -62.6 644.9 L -91.3 627.4 L -120.0 621.6 Z"/><path d="M -120.0 766.3 L -91.3 798.0 L -62.6 792.6 L -33.9 765.0 L -5.2 719.0 L 23.5 698.3 L 52.2 693.1 L 80.9 707.0 L 109.6 749.4 L 138.3 762.5 L 167.0 775.8 L 195.7 767.6 L 224.3 760.4 L 253.0 756.4 L 281.7 754.4 L 310.4 738.0 L 339.1 712.7 L 367.8 698.3 L 396.5 704.9 L 425.2 735.5 L 453.9 780.0 L 482.6 799.7 L 511.3 800.9 L 540.0 772.8 L 568.7 732.8 L 597.4 710.6 L 626.1 703.7 L 654.8 724.7 L 683.5 745.2 L 712.2 745.5 L 740.9 752.5 L 769.6 765.4 L 798.3 772.6 L 827.0 784.5 L 855.7 778.9 L 884.3 742.1 L 913.0 709.5 L 941.7 692.9 L 970.4 696.7 L 999.1 728.3 L 1027.8 777.3 L 1056.5 794.8 L 1085.2 786.5 L 1113.9 769.3 L 1142.6 742.6 L 1171.3 722.6 L 1200.0 722.4 L 1200.0 730.8 L 1171.3 730.7 L 1142.6 750.3 L 1113.9 776.5 L 1085.2 793.2 L 1056.5 800.9 L 1027.8 782.9 L 999.1 733.3 L 970.4 701.2 L 941.7 696.9 L 913.0 712.9 L 884.3 745.0 L 855.7 781.3 L 827.0 786.5 L 798.3 774.3 L 769.6 766.8 L 740.9 753.7 L 712.2 746.5 L 683.5 746.1 L 654.8 725.6 L 626.1 704.7 L 597.4 711.8 L 568.7 734.3 L 540.0 774.5 L 511.3 803.0 L 482.6 802.2 L 453.9 783.0 L 425.2 739.0 L 396.5 708.9 L 367.8 702.9 L 339.1 717.9 L 310.4 743.8 L 281.7 760.7 L 253.0 763.3 L 224.3 767.7 L 195.7 775.4 L 167.0 784.0 L 138.3 771.1 L 109.6 758.2 L 80.9 716.1 L 52.2 702.3 L 23.5 707.6 L -5.2 728.2 L -33.9 774.2 L -62.6 801.6 L -91.3 806.8 L -120.0 774.8 Z"/><path d="M -120.0 915.4 L -91.3 898.5 L -62.6 870.7 L -33.9 836.9 L -5.2 825.3 L 23.5 839.7 L 52.2 868.2 L 80.9 891.9 L 109.6 893.4 L 138.3 891.9 L 167.0 886.1 L 195.7 879.5 L 224.3 873.1 L 253.0 861.6 L 281.7 846.7 L 310.4 841.4 L 339.1 854.4 L 367.8 882.8 L 396.5 914.4 L 425.2 917.0 L 453.9 894.8 L 482.6 862.5 L 511.3 840.1 L 540.0 840.7 L 568.7 852.7 L 597.4 877.1 L 626.1 879.0 L 654.8 885.3 L 683.5 886.8 L 712.2 896.2 L 740.9 896.2 L 769.6 874.4 L 798.3 854.1 L 827.0 833.4 L 855.7 833.6 L 884.3 862.0 L 913.0 896.9 L 941.7 918.8 L 970.4 906.5 L 999.1 877.4 L 1027.8 857.2 L 1056.5 842.2 L 1085.2 849.1 L 1113.9 857.0 L 1142.6 863.9 L 1171.3 870.2 L 1200.0 874.3 L 1200.0 883.1 L 1171.3 879.2 L 1142.6 872.9 L 1113.9 866.0 L 1085.2 857.9 L 1056.5 850.8 L 1027.8 865.6 L 999.1 885.4 L 970.4 914.2 L 941.7 926.0 L 913.0 903.6 L 884.3 868.2 L 855.7 839.3 L 827.0 838.5 L 798.3 858.7 L 769.6 878.4 L 740.9 899.7 L 712.2 899.2 L 683.5 889.4 L 654.8 887.4 L 626.1 880.7 L 597.4 878.5 L 568.7 853.9 L 540.0 841.7 L 511.3 841.0 L 482.6 863.4 L 453.9 895.8 L 425.2 918.1 L 396.5 915.7 L 367.8 884.4 L 339.1 856.3 L 310.4 843.7 L 281.7 849.4 L 253.0 864.7 L 224.3 876.8 L 195.7 883.8 L 167.0 890.9 L 138.3 897.3 L 109.6 899.3 L 80.9 898.3 L 52.2 875.1 L 23.5 847.1 L -5.2 833.0 L -33.9 845.1 L -62.6 879.2 L -91.3 907.2 L -120.0 924.2 Z"/><path d="M -120.0 968.3 L -91.3 959.7 L -62.6 993.9 L -33.9 1026.7 L -5.2 1034.1 L 23.5 1031.8 L 52.2 1022.8 L 80.9 1024.7 L 109.6 1003.8 L 138.3 980.5 L 167.0 961.8 L 195.7 987.6 L 224.3 1039.1 L 253.0 1070.4 L 281.7 1049.2 L 310.4 1008.9 L 339.1 972.6 L 367.8 957.6 L 396.5 990.1 L 425.2 1020.7 L 453.9 1026.8 L 482.6 1034.1 L 511.3 1025.4 L 540.0 1027.2 L 568.7 1011.0 L 597.4 972.9 L 626.1 963.4 L 654.8 976.9 L 683.5 1025.8 L 712.2 1063.5 L 740.9 1059.2 L 769.6 1010.5 L 798.3 975.5 L 827.0 967.4 L 855.7 982.4 L 884.3 1008.2 L 913.0 1020.2 L 941.7 1025.6 L 970.4 1032.9 L 999.1 1028.4 L 1027.8 1014.5 L 1056.5 977.3 L 1085.2 958.4 L 1113.9 972.5 L 1142.6 1017.4 L 1171.3 1064.9 L 1200.0 1063.1 L 1200.0 1064.6 L 1171.3 1066.7 L 1142.6 1019.6 L 1113.9 975.0 L 1085.2 961.3 L 1056.5 980.6 L 1027.8 1018.2 L 999.1 1032.5 L 970.4 1037.4 L 941.7 1030.5 L 913.0 1025.4 L 884.3 1013.7 L 855.7 988.2 L 827.0 973.5 L 798.3 981.7 L 769.6 1016.9 L 740.9 1065.7 L 712.2 1070.0 L 683.5 1032.2 L 654.8 983.3 L 626.1 969.7 L 597.4 979.0 L 568.7 1016.8 L 540.0 1032.8 L 511.3 1030.6 L 482.6 1039.0 L 453.9 1031.4 L 425.2 1024.9 L 396.5 993.9 L 367.8 961.0 L 339.1 975.6 L 310.4 1011.5 L 281.7 1051.4 L 253.0 1072.3 L 224.3 1040.7 L 195.7 989.0 L 167.0 962.9 L 138.3 981.4 L 109.6 1004.6 L 80.9 1025.4 L 52.2 1023.4 L 23.5 1032.5 L -5.2 1034.9 L -33.9 1027.5 L -62.6 994.9 L -91.3 960.9 L -120.0 969.8 Z"/><path d="M -120.0 1131.8 L -91.3 1144.7 L -62.6 1144.3 L -33.9 1143.6 L -5.2 1139.1 L 23.5 1111.2 L 52.2 1095.9 L 80.9 1102.6 L 109.6 1135.5 L 138.3 1168.9 L 167.0 1159.8 L 195.7 1118.1 L 224.3 1086.7 L 253.0 1099.9 L 281.7 1125.3 L 310.4 1139.8 L 339.1 1145.3 L 367.8 1139.0 L 396.5 1136.7 L 425.2 1119.7 L 453.9 1093.9 L 482.6 1098.5 L 511.3 1127.2 L 540.0 1167.0 L 568.7 1166.3 L 597.4 1124.4 L 626.1 1088.7 L 654.8 1096.7 L 683.5 1123.6 L 712.2 1148.7 L 740.9 1145.2 L 769.6 1139.7 L 798.3 1134.0 L 827.0 1125.1 L 855.7 1104.5 L 884.3 1099.3 L 913.0 1124.5 L 941.7 1160.5 L 970.4 1174.6 L 999.1 1143.4 L 1027.8 1093.6 L 1056.5 1088.2 L 1085.2 1116.8 L 1113.9 1149.8 L 1142.6 1153.7 L 1171.3 1137.9 L 1200.0 1136.2 L 1200.0 1139.2 L 1171.3 1140.4 L 1142.6 1155.9 L 1113.9 1151.7 L 1085.2 1118.3 L 1056.5 1089.4 L 1027.8 1094.6 L 999.1 1144.3 L 970.4 1175.4 L 941.7 1161.2 L 913.0 1125.2 L 884.3 1100.1 L 855.7 1105.5 L 827.0 1126.2 L 798.3 1135.4 L 769.6 1141.4 L 740.9 1147.3 L 712.2 1151.1 L 683.5 1126.4 L 654.8 1099.9 L 626.1 1092.4 L 597.4 1128.5 L 568.7 1170.9 L 540.0 1172.0 L 511.3 1132.6 L 482.6 1104.3 L 453.9 1100.1 L 425.2 1126.2 L 396.5 1143.5 L 367.8 1145.9 L 339.1 1152.5 L 310.4 1147.0 L 281.7 1132.6 L 253.0 1107.2 L 224.3 1093.9 L 195.7 1125.2 L 167.0 1166.6 L 138.3 1175.4 L 109.6 1141.8 L 80.9 1108.6 L 52.2 1101.5 L 23.5 1116.4 L -5.2 1143.9 L -33.9 1147.9 L -62.6 1148.1 L -91.3 1148.1 L -120.0 1134.8 Z"/><path d="M -120.0 1289.6 L -91.3 1292.3 L -62.6 1297.7 L -33.9 1266.3 L -5.2 1242.8 L 23.5 1242.8 L 52.2 1285.6 L 80.9 1327.1 L 109.6 1308.9 L 138.3 1255.7 L 167.0 1240.0 L 195.7 1262.0 L 224.3 1284.6 L 253.0 1293.9 L 281.7 1295.3 L 310.4 1290.3 L 339.1 1279.3 L 367.8 1249.2 L 396.5 1249.8 L 425.2 1276.6 L 453.9 1320.4 L 482.6 1319.3 L 511.3 1271.1 L 540.0 1242.0 L 568.7 1253.0 L 597.4 1290.7 L 626.1 1305.1 L 654.8 1294.3 L 683.5 1288.8 L 712.2 1273.9 L 740.9 1264.8 L 769.6 1248.6 L 798.3 1271.9 L 827.0 1316.6 L 855.7 1320.3 L 884.3 1283.3 L 913.0 1235.9 L 941.7 1242.2 L 970.4 1284.0 L 999.1 1312.9 L 1027.8 1304.7 L 1056.5 1281.6 L 1085.2 1270.8 L 1113.9 1264.2 L 1142.6 1252.7 L 1171.3 1261.8 L 1200.0 1301.6 L 1200.0 1309.7 L 1171.3 1269.5 L 1142.6 1260.1 L 1113.9 1271.2 L 1085.2 1277.2 L 1056.5 1287.6 L 1027.8 1310.1 L 999.1 1317.8 L 970.4 1288.3 L 941.7 1246.0 L 913.0 1239.2 L 884.3 1286.2 L 855.7 1322.7 L 827.0 1318.6 L 798.3 1273.5 L 769.6 1249.9 L 740.9 1265.9 L 712.2 1274.8 L 683.5 1289.6 L 654.8 1295.2 L 626.1 1306.0 L 597.4 1291.8 L 568.7 1254.3 L 540.0 1243.5 L 511.3 1273.0 L 482.6 1321.6 L 453.9 1323.1 L 425.2 1279.8 L 396.5 1253.5 L 367.8 1253.4 L 339.1 1284.0 L 310.4 1295.6 L 281.7 1301.2 L 253.0 1300.3 L 224.3 1291.4 L 195.7 1269.3 L 167.0 1247.6 L 138.3 1263.7 L 109.6 1317.2 L 80.9 1335.6 L 52.2 1294.3 L 23.5 1251.6 L -5.2 1251.6 L -33.9 1275.0 L -62.6 1306.3 L -91.3 1300.6 L -120.0 1297.7 Z"/></g><g filter="url(#g9014_warp)" fill="url(#g9014_amb)" opacity="0.72"><path d="M -120.0 207.6 L -91.3 194.4 L -62.6 184.1 L -33.9 172.6 L -5.2 173.2 L 23.5 167.6 L 52.2 174.0 L 80.9 168.1 L 109.6 167.2 L 138.3 163.0 L 167.0 157.2 L 195.7 155.9 L 224.3 158.4 L 253.0 171.6 L 281.7 187.6 L 310.4 207.1 L 339.1 225.7 L 367.8 232.4 L 396.5 228.0 L 425.2 218.5 L 453.9 203.6 L 482.6 183.3 L 511.3 172.7 L 540.0 160.2 L 568.7 161.6 L 597.4 160.4 L 626.1 165.1 L 654.8 163.9 L 683.5 164.8 L 712.2 169.3 L 740.9 162.5 L 769.6 165.5 L 798.3 173.8 L 827.0 180.6 L 855.7 188.8 L 884.3 205.5 L 913.0 223.1 L 941.7 227.9 L 970.4 226.6 L 999.1 215.4 L 1027.8 193.0 L 1056.5 181.0 L 1085.2 163.0 L 1113.9 152.1 L 1142.6 149.1 L 1171.3 150.7 L 1200.0 156.1 L 1200.0 161.6 L 1171.3 156.4 L 1142.6 154.9 L 1113.9 157.9 L 1085.2 168.8 L 1056.5 186.7 L 1027.8 198.7 L 999.1 221.0 L 970.4 232.0 L 941.7 233.0 L 913.0 227.9 L 884.3 210.0 L 855.7 193.1 L 827.0 184.5 L 798.3 177.3 L 769.6 168.6 L 740.9 165.3 L 712.2 171.8 L 683.5 167.0 L 654.8 165.8 L 626.1 166.6 L 597.4 161.7 L 568.7 162.7 L 540.0 161.0 L 511.3 173.4 L 482.6 183.9 L 453.9 204.2 L 425.2 219.0 L 396.5 228.7 L 367.8 233.2 L 339.1 226.6 L 310.4 208.2 L 281.7 188.9 L 253.0 173.2 L 224.3 160.2 L 195.7 158.1 L 167.0 159.7 L 138.3 165.9 L 109.6 170.4 L 80.9 171.7 L 52.2 178.0 L 23.5 171.9 L -5.2 177.7 L -33.9 177.4 L -62.6 189.2 L -91.3 199.7 L -120.0 213.1 Z"/><path d="M -120.0 357.6 L -91.3 334.8 L -62.6 325.0 L -33.9 304.5 L -5.2 311.0 L 23.5 309.1 L 52.2 299.9 L 80.9 300.4 L 109.6 302.6 L 138.3 289.2 L 167.0 289.3 L 195.7 284.8 L 224.3 287.4 L 253.0 295.6 L 281.7 313.4 L 310.4 342.3 L 339.1 366.3 L 367.8 374.7 L 396.5 377.8 L 425.2 374.9 L 453.9 360.1 L 482.6 342.5 L 511.3 315.6 L 540.0 300.5 L 568.7 295.6 L 597.4 296.5 L 626.1 295.2 L 654.8 302.6 L 683.5 299.9 L 712.2 298.2 L 740.9 294.4 L 769.6 292.0 L 798.3 299.4 L 827.0 299.1 L 855.7 312.0 L 884.3 341.4 L 913.0 350.1 L 941.7 370.2 L 970.4 377.7 L 999.1 375.9 L 1027.8 359.2 L 1056.5 342.2 L 1085.2 309.9 L 1113.9 297.4 L 1142.6 277.4 L 1171.3 278.6 L 1200.0 281.7 L 1200.0 288.9 L 1171.3 285.9 L 1142.6 284.7 L 1113.9 304.8 L 1085.2 317.2 L 1056.5 349.4 L 1027.8 366.3 L 999.1 382.8 L 970.4 384.3 L 941.7 376.4 L 913.0 356.0 L 884.3 346.9 L 855.7 317.1 L 827.0 303.6 L 798.3 303.5 L 769.6 295.7 L 740.9 297.6 L 712.2 301.0 L 683.5 302.3 L 654.8 304.6 L 626.1 296.9 L 597.4 297.9 L 568.7 296.7 L 540.0 301.5 L 511.3 316.4 L 482.6 343.2 L 453.9 360.9 L 425.2 375.7 L 396.5 378.8 L 367.8 375.8 L 339.1 367.6 L 310.4 343.9 L 281.7 315.3 L 253.0 297.9 L 224.3 290.1 L 195.7 287.9 L 167.0 292.8 L 138.3 293.2 L 109.6 307.1 L 80.9 305.3 L 52.2 305.2 L 23.5 314.8 L -5.2 317.2 L -33.9 311.0 L -62.6 331.7 L -91.3 341.8 L -120.0 364.8 Z"/><path d="M -120.0 405.8 L -91.3 408.7 L -62.6 406.5 L -33.9 396.9 L -5.2 401.1 L 23.5 405.4 L 52.2 417.8 L 80.9 438.8 L 109.6 455.7 L 138.3 469.0 L 167.0 465.9 L 195.7 453.7 L 224.3 417.4 L 253.0 399.6 L 281.7 382.0 L 310.4 371.0 L 339.1 387.0 L 367.8 398.5 L 396.5 412.5 L 425.2 427.2 L 453.9 430.4 L 482.6 432.0 L 511.3 431.2 L 540.0 441.7 L 568.7 448.4 L 597.4 451.2 L 626.1 440.6 L 654.8 425.7 L 683.5 400.4 L 712.2 383.4 L 740.9 368.8 L 769.6 366.7 L 798.3 383.3 L 827.0 411.6 L 855.7 440.7 L 884.3 454.6 L 913.0 452.1 L 941.7 454.1 L 970.4 439.2 L 999.1 428.2 L 1027.8 426.3 L 1056.5 414.3 L 1085.2 412.2 L 1113.9 406.7 L 1142.6 396.3 L 1171.3 390.0 L 1200.0 386.8 L 1200.0 388.1 L 1171.3 391.7 L 1142.6 398.3 L 1113.9 409.0 L 1085.2 414.9 L 1056.5 417.4 L 1027.8 429.8 L 999.1 432.1 L 970.4 443.5 L 941.7 458.9 L 913.0 457.2 L 884.3 460.1 L 855.7 446.5 L 827.0 417.7 L 798.3 389.6 L 769.6 373.2 L 740.9 375.5 L 712.2 390.1 L 683.5 407.2 L 654.8 432.4 L 626.1 447.3 L 597.4 457.7 L 568.7 454.7 L 540.0 447.8 L 511.3 437.0 L 482.6 437.5 L 453.9 435.6 L 425.2 431.9 L 396.5 416.8 L 367.8 402.4 L 339.1 390.5 L 310.4 374.1 L 281.7 384.7 L 253.0 402.0 L 224.3 419.3 L 195.7 455.3 L 167.0 467.2 L 138.3 470.1 L 109.6 456.7 L 80.9 439.5 L 52.2 418.5 L 23.5 406.1 L -5.2 401.8 L -33.9 397.7 L -62.6 407.5 L -91.3 409.8 L -120.0 407.1 Z"/><path d="M -120.0 547.6 L -91.3 550.4 L -62.6 551.4 L -33.9 545.6 L -5.2 539.9 L 23.5 544.6 L 52.2 548.9 L 80.9 563.9 L 109.6 581.5 L 138.3 602.2 L 167.0 606.4 L 195.7 596.6 L 224.3 577.4 L 253.0 555.0 L 281.7 537.7 L 310.4 524.5 L 339.1 528.1 L 367.8 536.9 L 396.5 550.0 L 425.2 560.6 L 453.9 565.6 L 482.6 569.8 L 511.3 566.0 L 540.0 574.9 L 568.7 578.6 L 597.4 587.2 L 626.1 590.0 L 654.8 586.7 L 683.5 566.4 L 712.2 551.8 L 740.9 526.3 L 769.6 515.7 L 798.3 517.0 L 827.0 526.4 L 855.7 552.5 L 884.3 570.8 L 913.0 584.8 L 941.7 589.6 L 970.4 592.2 L 999.1 576.2 L 1027.8 570.7 L 1056.5 564.8 L 1085.2 562.9 L 1113.9 564.7 L 1142.6 556.4 L 1171.3 547.9 L 1200.0 538.9 L 1200.0 541.3 L 1171.3 550.7 L 1142.6 559.7 L 1113.9 568.5 L 1085.2 567.2 L 1056.5 569.7 L 1027.8 576.1 L 999.1 582.1 L 970.4 598.7 L 941.7 596.6 L 913.0 592.1 L 884.3 578.5 L 855.7 560.6 L 827.0 534.8 L 798.3 525.6 L 769.6 524.5 L 740.9 535.1 L 712.2 560.7 L 683.5 575.1 L 654.8 595.2 L 626.1 598.4 L 597.4 595.3 L 568.7 586.3 L 540.0 582.2 L 511.3 572.9 L 482.6 576.2 L 453.9 571.5 L 425.2 566.0 L 396.5 554.8 L 367.8 541.2 L 339.1 531.8 L 310.4 527.8 L 281.7 540.4 L 253.0 557.3 L 224.3 579.4 L 195.7 598.2 L 167.0 607.8 L 138.3 603.3 L 109.6 582.5 L 80.9 564.8 L 52.2 549.8 L 23.5 545.6 L -5.2 541.0 L -33.9 546.9 L -62.6 553.1 L -91.3 552.4 L -120.0 550.0 Z"/><path d="M -120.0 649.8 L -91.3 654.1 L -62.6 654.1 L -33.9 661.0 L -5.2 679.7 L 23.5 697.6 L 52.2 714.1 L 80.9 723.6 L 109.6 696.5 L 138.3 671.6 L 167.0 643.7 L 195.7 627.7 L 224.3 631.2 L 253.0 638.7 L 281.7 666.0 L 310.4 675.9 L 339.1 689.0 L 367.8 684.1 L 396.5 686.3 L 425.2 686.1 L 453.9 690.5 L 482.6 696.7 L 511.3 688.9 L 540.0 668.3 L 568.7 644.2 L 597.4 629.6 L 626.1 622.2 L 654.8 636.6 L 683.5 665.5 L 712.2 690.0 L 740.9 708.0 L 769.6 714.8 L 798.3 705.1 L 827.0 683.4 L 855.7 672.8 L 884.3 662.8 L 913.0 651.6 L 941.7 660.3 L 970.4 654.1 L 999.1 656.4 L 1027.8 644.4 L 1056.5 657.9 L 1085.2 671.2 L 1113.9 692.3 L 1142.6 712.9 L 1171.3 720.1 L 1200.0 717.3 L 1200.0 718.0 L 1171.3 720.7 L 1142.6 713.5 L 1113.9 693.0 L 1085.2 671.9 L 1056.5 658.8 L 1027.8 645.5 L 999.1 657.7 L 970.4 655.6 L 941.7 662.2 L 913.0 653.8 L 884.3 665.3 L 855.7 675.7 L 827.0 686.7 L 798.3 708.8 L 769.6 718.8 L 740.9 712.4 L 712.2 694.7 L 683.5 670.6 L 654.8 641.9 L 626.1 627.8 L 597.4 635.4 L 568.7 650.2 L 540.0 674.3 L 511.3 695.1 L 482.6 702.8 L 453.9 696.6 L 425.2 692.2 L 396.5 692.2 L 367.8 689.8 L 339.1 694.5 L 310.4 681.1 L 281.7 670.9 L 253.0 643.3 L 224.3 635.4 L 195.7 631.5 L 167.0 647.2 L 138.3 674.7 L 109.6 699.3 L 80.9 726.0 L 52.2 716.1 L 23.5 699.3 L -5.2 681.1 L -33.9 662.2 L -62.6 655.1 L -91.3 654.9 L -120.0 650.5 Z"/><path d="M -120.0 805.5 L -91.3 817.7 L -62.6 846.1 L -33.9 866.6 L -5.2 868.4 L 23.5 848.7 L 52.2 826.5 L 80.9 798.1 L 109.6 779.1 L 138.3 789.2 L 167.0 805.1 L 195.7 822.2 L 224.3 844.0 L 253.0 839.7 L 281.7 844.8 L 310.4 839.3 L 339.1 836.0 L 367.8 832.7 L 396.5 828.2 L 425.2 815.1 L 453.9 793.6 L 482.6 784.8 L 511.3 791.2 L 540.0 816.1 L 568.7 842.6 L 597.4 867.9 L 626.1 872.2 L 654.8 851.4 L 683.5 820.7 L 712.2 807.1 L 740.9 799.3 L 769.6 800.4 L 798.3 807.3 L 827.0 818.5 L 855.7 818.5 L 884.3 823.1 L 913.0 830.0 L 941.7 851.3 L 970.4 863.5 L 999.1 861.2 L 1027.8 835.2 L 1056.5 810.5 L 1085.2 790.1 L 1113.9 775.7 L 1142.6 789.6 L 1171.3 814.3 L 1200.0 839.1 L 1200.0 841.8 L 1171.3 816.7 L 1142.6 791.6 L 1113.9 777.5 L 1085.2 791.5 L 1056.5 811.7 L 1027.8 836.2 L 999.1 862.0 L 970.4 864.2 L 941.7 851.9 L 913.0 830.6 L 884.3 823.7 L 855.7 819.1 L 827.0 819.2 L 798.3 808.2 L 769.6 801.5 L 740.9 800.6 L 712.2 808.7 L 683.5 822.6 L 654.8 853.7 L 626.1 874.7 L 597.4 870.7 L 568.7 845.9 L 540.0 819.7 L 511.3 795.2 L 482.6 789.1 L 453.9 798.1 L 425.2 820.0 L 396.5 833.3 L 367.8 838.0 L 339.1 841.4 L 310.4 844.9 L 281.7 850.5 L 253.0 845.4 L 224.3 849.7 L 195.7 827.8 L 167.0 810.6 L 138.3 794.6 L 109.6 784.3 L 80.9 803.1 L 52.2 831.2 L 23.5 853.1 L -5.2 872.4 L -33.9 870.4 L -62.6 849.5 L -91.3 820.7 L -120.0 808.2 Z"/><path d="M -120.0 996.6 L -91.3 947.3 L -62.6 907.5 L -33.9 887.8 L -5.2 901.1 L 23.5 942.3 L 52.2 970.4 L 80.9 975.4 L 109.6 966.5 L 138.3 956.1 L 167.0 954.2 L 195.7 940.7 L 224.3 925.7 L 253.0 896.9 L 281.7 893.2 L 310.4 930.4 L 339.1 979.2 L 367.8 1009.9 L 396.5 1001.9 L 425.2 959.4 L 453.9 915.7 L 482.6 896.7 L 511.3 910.3 L 540.0 934.3 L 568.7 958.5 L 597.4 961.9 L 626.1 967.3 L 654.8 971.1 L 683.5 975.2 L 712.2 959.6 L 740.9 925.4 L 769.6 894.9 L 798.3 885.2 L 827.0 916.8 L 855.7 973.8 L 884.3 998.6 L 913.0 997.9 L 941.7 961.8 L 970.4 913.4 L 999.1 907.1 L 1027.8 912.7 L 1056.5 931.7 L 1085.2 941.4 L 1113.9 944.7 L 1142.6 957.0 L 1171.3 969.8 L 1200.0 983.9 L 1200.0 988.5 L 1171.3 974.6 L 1142.6 962.0 L 1113.9 949.8 L 1085.2 946.6 L 1056.5 936.8 L 1027.8 917.8 L 999.1 912.2 L 970.4 918.4 L 941.7 966.6 L 913.0 1002.6 L 884.3 1003.0 L 855.7 978.1 L 827.0 920.8 L 798.3 888.9 L 769.6 898.2 L 740.9 928.4 L 712.2 962.4 L 683.5 977.7 L 654.8 973.3 L 626.1 969.1 L 597.4 963.4 L 568.7 959.8 L 540.0 935.4 L 511.3 911.1 L 482.6 897.4 L 453.9 916.3 L 425.2 960.0 L 396.5 1002.4 L 367.8 1010.5 L 339.1 979.8 L 310.4 931.1 L 281.7 894.0 L 253.0 897.9 L 224.3 926.9 L 195.7 942.2 L 167.0 956.0 L 138.3 958.2 L 109.6 968.8 L 80.9 978.0 L 52.2 973.4 L 23.5 945.6 L -5.2 904.7 L -33.9 891.7 L -62.6 911.6 L -91.3 951.7 L -120.0 1001.2 Z"/><path d="M -120.0 1087.3 L -91.3 1056.7 L -62.6 1035.6 L -33.9 1030.0 L -5.2 1046.7 L 23.5 1069.0 L 52.2 1082.6 L 80.9 1079.1 L 109.6 1071.8 L 138.3 1070.2 L 167.0 1070.6 L 195.7 1060.2 L 224.3 1043.5 L 253.0 1038.7 L 281.7 1044.2 L 310.4 1071.3 L 339.1 1095.6 L 367.8 1102.1 L 396.5 1082.4 L 425.2 1058.3 L 453.9 1038.1 L 482.6 1036.4 L 511.3 1050.8 L 540.0 1066.3 L 568.7 1074.3 L 597.4 1076.5 L 626.1 1074.0 L 654.8 1076.3 L 683.5 1070.7 L 712.2 1061.5 L 740.9 1035.3 L 769.6 1028.6 L 798.3 1040.2 L 827.0 1071.0 L 855.7 1093.3 L 884.3 1094.5 L 913.0 1075.9 L 941.7 1053.8 L 970.4 1036.1 L 999.1 1040.3 L 1027.8 1049.4 L 1056.5 1059.4 L 1085.2 1067.4 L 1113.9 1072.8 L 1142.6 1077.1 L 1171.3 1080.8 L 1200.0 1078.2 L 1200.0 1082.9 L 1171.3 1085.7 L 1142.6 1082.2 L 1113.9 1078.2 L 1085.2 1072.9 L 1056.5 1065.0 L 1027.8 1055.0 L 999.1 1045.9 L 970.4 1041.7 L 941.7 1059.3 L 913.0 1081.2 L 884.3 1099.7 L 855.7 1098.3 L 827.0 1075.7 L 798.3 1044.6 L 769.6 1032.7 L 740.9 1039.1 L 712.2 1064.9 L 683.5 1073.8 L 654.8 1079.0 L 626.1 1076.4 L 597.4 1078.6 L 568.7 1076.1 L 540.0 1067.8 L 511.3 1052.0 L 482.6 1037.5 L 453.9 1039.0 L 425.2 1059.0 L 396.5 1083.0 L 367.8 1102.7 L 339.1 1096.1 L 310.4 1071.9 L 281.7 1044.9 L 253.0 1039.6 L 224.3 1044.5 L 195.7 1061.5 L 167.0 1072.0 L 138.3 1072.0 L 109.6 1073.9 L 80.9 1081.4 L 52.2 1085.4 L 23.5 1072.0 L -5.2 1050.1 L -33.9 1033.8 L -62.6 1039.7 L -91.3 1061.0 L -120.0 1091.9 Z"/><path d="M -120.0 1161.6 L -91.3 1157.0 L -62.6 1186.7 L -33.9 1206.2 L -5.2 1212.9 L 23.5 1212.3 L 52.2 1207.7 L 80.9 1204.7 L 109.6 1190.7 L 138.3 1177.2 L 167.0 1163.3 L 195.7 1173.9 L 224.3 1210.0 L 253.0 1240.0 L 281.7 1228.8 L 310.4 1198.3 L 339.1 1162.5 L 367.8 1159.6 L 396.5 1176.9 L 425.2 1201.7 L 453.9 1207.2 L 482.6 1206.8 L 511.3 1210.7 L 540.0 1205.1 L 568.7 1196.9 L 597.4 1174.3 L 626.1 1160.7 L 654.8 1172.5 L 683.5 1202.4 L 712.2 1229.4 L 740.9 1229.7 L 769.6 1206.1 L 798.3 1167.7 L 827.0 1161.1 L 855.7 1171.5 L 884.3 1192.2 L 913.0 1210.5 L 941.7 1205.9 L 970.4 1212.2 L 999.1 1208.0 L 1027.8 1203.2 L 1056.5 1177.3 L 1085.2 1164.1 L 1113.9 1163.7 L 1142.6 1194.5 L 1171.3 1231.7 L 1200.0 1233.9 L 1200.0 1234.9 L 1171.3 1233.0 L 1142.6 1195.9 L 1113.9 1165.4 L 1085.2 1166.1 L 1056.5 1179.5 L 1027.8 1205.6 L 999.1 1210.7 L 970.4 1215.2 L 941.7 1209.1 L 913.0 1213.8 L 884.3 1195.7 L 855.7 1175.2 L 827.0 1165.0 L 798.3 1171.7 L 769.6 1210.2 L 740.9 1233.7 L 712.2 1233.5 L 683.5 1206.4 L 654.8 1176.6 L 626.1 1164.6 L 597.4 1178.2 L 568.7 1200.5 L 540.0 1208.6 L 511.3 1214.0 L 482.6 1209.9 L 453.9 1210.0 L 425.2 1204.3 L 396.5 1179.2 L 367.8 1161.7 L 339.1 1164.4 L 310.4 1199.9 L 281.7 1230.2 L 253.0 1241.2 L 224.3 1211.0 L 195.7 1174.7 L 167.0 1164.0 L 138.3 1177.7 L 109.6 1191.2 L 80.9 1205.1 L 52.2 1208.1 L 23.5 1212.7 L -5.2 1213.4 L -33.9 1206.7 L -62.6 1187.4 L -91.3 1157.9 L -120.0 1162.6 Z"/><path d="M -120.0 1343.2 L -91.3 1359.2 L -62.6 1365.2 L -33.9 1368.0 L -5.2 1364.9 L 23.5 1356.7 L 52.2 1345.6 L 80.9 1327.0 L 109.6 1333.2 L 138.3 1356.3 L 167.0 1383.7 L 195.7 1378.2 L 224.3 1353.1 L 253.0 1322.3 L 281.7 1329.3 L 310.4 1345.9 L 339.1 1366.1 L 367.8 1364.4 L 396.5 1362.9 L 425.2 1357.9 L 453.9 1355.8 L 482.6 1340.0 L 511.3 1322.7 L 540.0 1338.1 L 568.7 1363.6 L 597.4 1387.1 L 626.1 1374.6 L 654.8 1343.2 L 683.5 1319.6 L 712.2 1327.8 L 740.9 1349.8 L 769.6 1370.6 L 798.3 1370.5 L 827.0 1362.8 L 855.7 1362.9 L 884.3 1351.9 L 913.0 1338.0 L 941.7 1326.2 L 970.4 1340.7 L 999.1 1375.9 L 1027.8 1386.7 L 1056.5 1375.1 L 1085.2 1336.4 L 1113.9 1323.7 L 1142.6 1332.5 L 1171.3 1355.8 L 1200.0 1368.6 L 1200.0 1369.5 L 1171.3 1356.5 L 1142.6 1333.1 L 1113.9 1324.2 L 1085.2 1336.8 L 1056.5 1375.6 L 1027.8 1387.3 L 999.1 1376.4 L 970.4 1341.4 L 941.7 1327.0 L 913.0 1339.0 L 884.3 1353.1 L 855.7 1364.4 L 827.0 1364.5 L 798.3 1372.5 L 769.6 1372.9 L 740.9 1352.4 L 712.2 1330.6 L 683.5 1322.7 L 654.8 1346.6 L 626.1 1378.3 L 597.4 1391.0 L 568.7 1367.7 L 540.0 1342.4 L 511.3 1327.2 L 482.6 1344.5 L 453.9 1360.5 L 425.2 1362.5 L 396.5 1367.5 L 367.8 1369.0 L 339.1 1370.6 L 310.4 1350.4 L 281.7 1333.6 L 253.0 1326.4 L 224.3 1357.0 L 195.7 1381.8 L 167.0 1387.1 L 138.3 1359.4 L 109.6 1336.1 L 80.9 1329.5 L 52.2 1347.9 L 23.5 1358.6 L -5.2 1366.6 L -33.9 1369.4 L -62.6 1366.4 L -91.3 1360.2 L -120.0 1344.0 Z"/></g><g filter="url(#g9014_warpT)" opacity="0.5"><g fill="url(#g9014_cobT)" opacity="0.6"><path d="M -120.0 347.6 L -90.0 352.4 L -60.0 356.9 L -30.0 351.9 L 0.0 344.5 L 30.0 339.8 L 60.0 328.9 L 90.0 324.3 L 120.0 326.1 L 150.0 323.2 L 180.0 321.6 L 210.0 323.7 L 240.0 323.5 L 270.0 318.3 L 300.0 312.0 L 330.0 301.0 L 360.0 297.2 L 390.0 299.7 L 420.0 300.6 L 450.0 303.4 L 480.0 313.1 L 510.0 327.5 L 540.0 341.9 L 570.0 351.2 L 600.0 355.0 L 630.0 351.9 L 660.0 353.4 L 690.0 347.4 L 720.0 340.5 L 750.0 332.7 L 780.0 332.9 L 810.0 330.3 L 840.0 330.8 L 870.0 329.5 L 900.0 325.6 L 930.0 326.8 L 960.0 318.8 L 990.0 313.4 L 1020.0 304.6 L 1050.0 299.9 L 1080.0 293.1 L 1110.0 300.4 L 1140.0 305.7 L 1170.0 311.0 L 1200.0 326.6 L 1200.0 329.3 L 1170.0 313.5 L 1140.0 308.0 L 1110.0 302.6 L 1080.0 295.1 L 1050.0 301.6 L 1020.0 306.1 L 990.0 314.8 L 960.0 320.0 L 930.0 327.7 L 900.0 326.4 L 870.0 330.1 L 840.0 331.4 L 810.0 330.7 L 780.0 333.3 L 750.0 333.0 L 720.0 340.8 L 690.0 347.7 L 660.0 353.8 L 630.0 352.4 L 600.0 355.6 L 570.0 351.9 L 540.0 342.7 L 510.0 328.6 L 480.0 314.3 L 450.0 304.8 L 420.0 302.2 L 390.0 301.5 L 360.0 299.2 L 330.0 303.2 L 300.0 314.4 L 270.0 320.9 L 240.0 326.2 L 210.0 326.6 L 180.0 324.6 L 150.0 326.3 L 120.0 329.2 L 90.0 327.5 L 60.0 332.1 L 30.0 343.0 L 0.0 347.6 L -30.0 355.0 L -60.0 359.9 L -90.0 355.2 L -120.0 350.2 Z"/><path d="M -120.0 452.7 L -90.0 449.5 L -60.0 450.8 L -30.0 449.5 L 0.0 450.4 L 30.0 447.0 L 60.0 445.6 L 90.0 445.5 L 120.0 450.9 L 150.0 463.6 L 180.0 477.8 L 210.0 489.5 L 240.0 494.0 L 270.0 488.7 L 300.0 473.1 L 330.0 463.0 L 360.0 446.1 L 390.0 434.2 L 420.0 435.6 L 450.0 443.2 L 480.0 450.0 L 510.0 451.7 L 540.0 458.8 L 570.0 455.7 L 600.0 458.7 L 630.0 462.0 L 660.0 470.6 L 690.0 480.7 L 720.0 482.3 L 750.0 484.8 L 780.0 477.1 L 810.0 461.2 L 840.0 445.0 L 870.0 433.4 L 900.0 428.1 L 930.0 427.7 L 960.0 436.3 L 990.0 449.4 L 1020.0 464.2 L 1050.0 468.7 L 1080.0 474.9 L 1110.0 470.0 L 1140.0 471.0 L 1170.0 467.2 L 1200.0 474.2 L 1200.0 476.0 L 1170.0 469.2 L 1140.0 473.2 L 1110.0 472.4 L 1080.0 477.4 L 1050.0 471.4 L 1020.0 467.0 L 990.0 452.4 L 960.0 439.4 L 930.0 430.8 L 900.0 431.3 L 870.0 436.6 L 840.0 448.2 L 810.0 464.3 L 780.0 480.2 L 750.0 487.8 L 720.0 485.1 L 690.0 483.4 L 660.0 473.1 L 630.0 464.3 L 600.0 460.8 L 570.0 457.6 L 540.0 460.5 L 510.0 453.3 L 480.0 451.3 L 450.0 444.3 L 420.0 436.6 L 390.0 435.0 L 360.0 446.7 L 330.0 463.5 L 300.0 473.6 L 270.0 489.1 L 240.0 494.3 L 210.0 489.8 L 180.0 478.2 L 150.0 464.0 L 120.0 451.3 L 90.0 446.1 L 60.0 446.3 L 30.0 447.9 L 0.0 451.4 L -30.0 450.7 L -60.0 452.2 L -90.0 451.1 L -120.0 454.5 Z"/></g><g fill="url(#g9014_ambT)" opacity="0.55"><path d="M -120.0 389.5 L -90.0 386.1 L -60.0 380.7 L -30.0 378.3 L 0.0 367.5 L 30.0 359.5 L 60.0 357.1 L 90.0 358.6 L 120.0 354.5 L 150.0 354.3 L 180.0 356.0 L 210.0 352.2 L 240.0 348.5 L 270.0 341.9 L 300.0 340.1 L 330.0 339.2 L 360.0 340.5 L 390.0 344.9 L 420.0 355.3 L 450.0 368.4 L 480.0 378.2 L 510.0 387.5 L 540.0 387.4 L 570.0 389.8 L 600.0 382.7 L 630.0 375.0 L 660.0 369.0 L 690.0 363.1 L 720.0 360.5 L 750.0 359.5 L 780.0 356.4 L 810.0 357.1 L 840.0 355.7 L 870.0 353.0 L 900.0 347.6 L 930.0 345.0 L 960.0 339.9 L 990.0 333.8 L 1020.0 339.0 L 1050.0 343.1 L 1080.0 355.5 L 1110.0 369.7 L 1140.0 377.8 L 1170.0 386.9 L 1200.0 387.6 L 1200.0 390.4 L 1170.0 389.6 L 1140.0 380.3 L 1110.0 372.1 L 1080.0 357.8 L 1050.0 345.1 L 1020.0 340.9 L 990.0 335.5 L 960.0 341.4 L 930.0 346.3 L 900.0 348.7 L 870.0 354.0 L 840.0 356.5 L 810.0 357.8 L 780.0 357.0 L 750.0 360.0 L 720.0 360.9 L 690.0 363.4 L 660.0 369.3 L 630.0 375.4 L 600.0 383.0 L 570.0 390.2 L 540.0 387.9 L 510.0 388.1 L 480.0 378.9 L 450.0 369.3 L 420.0 356.3 L 390.0 346.1 L 360.0 341.9 L 330.0 340.8 L 300.0 341.9 L 270.0 343.9 L 240.0 350.7 L 210.0 354.5 L 180.0 358.5 L 150.0 357.0 L 120.0 357.3 L 90.0 361.5 L 60.0 360.0 L 30.0 362.5 L 0.0 370.5 L -30.0 381.3 L -60.0 383.6 L -90.0 389.0 L -120.0 392.3 Z"/><path d="M -120.0 509.4 L -90.0 513.2 L -60.0 513.6 L -30.0 507.3 L 0.0 508.6 L 30.0 508.5 L 60.0 515.1 L 90.0 526.1 L 120.0 538.7 L 150.0 550.0 L 180.0 550.0 L 210.0 545.5 L 240.0 530.6 L 270.0 510.7 L 300.0 502.5 L 330.0 495.7 L 360.0 499.1 L 390.0 507.6 L 420.0 518.5 L 450.0 519.7 L 480.0 524.5 L 510.0 528.1 L 540.0 527.4 L 570.0 530.1 L 600.0 535.3 L 630.0 541.0 L 660.0 535.7 L 690.0 531.4 L 720.0 513.1 L 750.0 498.8 L 780.0 489.3 L 810.0 494.4 L 840.0 500.2 L 870.0 514.1 L 900.0 528.5 L 930.0 542.0 L 960.0 539.4 L 990.0 537.8 L 1020.0 529.6 L 1050.0 527.9 L 1080.0 524.3 L 1110.0 522.7 L 1140.0 521.7 L 1170.0 516.0 L 1200.0 509.5 L 1200.0 510.4 L 1170.0 517.1 L 1140.0 522.9 L 1110.0 524.1 L 1080.0 525.9 L 1050.0 529.7 L 1020.0 531.6 L 990.0 540.0 L 960.0 541.7 L 930.0 544.4 L 900.0 531.2 L 870.0 516.9 L 840.0 503.1 L 810.0 497.3 L 780.0 492.2 L 750.0 501.8 L 720.0 516.1 L 690.0 534.4 L 660.0 538.6 L 630.0 543.8 L 600.0 538.0 L 570.0 532.7 L 540.0 529.8 L 510.0 530.3 L 480.0 526.6 L 450.0 521.6 L 420.0 520.2 L 390.0 509.1 L 360.0 500.4 L 330.0 496.9 L 300.0 503.5 L 270.0 511.6 L 240.0 531.3 L 210.0 546.1 L 180.0 550.4 L 150.0 550.4 L 120.0 539.0 L 90.0 526.4 L 60.0 515.4 L 30.0 508.8 L 0.0 509.0 L -30.0 507.8 L -60.0 514.2 L -90.0 513.9 L -120.0 510.3 Z"/></g></g></g><rect width="1080" height="1350" filter="url(#g9014_grain)"/><rect width="1080" height="1350" fill="url(#g9014_vig)"/></svg>