<svg class="bgsvg" viewBox="0 0 1080 1350" preserveAspectRatio="xMidYMid slice" xmlns="http://www.w3.org/2000/svg"><rect width="1080" height="1350" fill="#0A0B10"/><defs><linearGradient id="g9015_field" x1="120" y1="80" x2="960" y2="1270" gradientUnits="userSpaceOnUse"><stop offset="0" stop-color="#0A6AA6" stop-opacity="0.3"/><stop offset="0.34" stop-color="#0092FF" stop-opacity="0.16"/><stop offset="0.5" stop-color="#3BABFF" stop-opacity="0.1"/><stop offset="0.66" stop-color="#E8A830" stop-opacity="0.16"/><stop offset="1" stop-color="#F7B041" stop-opacity="0.3"/></linearGradient><radialGradient id="g9015_c" cx="0" cy="0" r="1" gradientUnits="userSpaceOnUse" gradientTransform="translate(150 250) scale(820)"><stop offset="0" stop-color="#0092FF" stop-opacity="0.4"/><stop offset="0.45" stop-color="#0092FF" stop-opacity="0.12"/><stop offset="1" stop-color="#0092FF" stop-opacity="0"/></radialGradient><radialGradient id="g9015_a" cx="0" cy="0" r="1" gradientUnits="userSpaceOnUse" gradientTransform="translate(940 1120) scale(820)"><stop offset="0" stop-color="#F7B041" stop-opacity="0.38"/><stop offset="0.45" stop-color="#F7B041" stop-opacity="0.11"/><stop offset="1" stop-color="#F7B041" stop-opacity="0"/></radialGradient><radialGradient id="g9015_teal" cx="0" cy="0" r="1" gradientUnits="userSpaceOnUse" gradientTransform="translate(540 690) scale(520)"><stop offset="0" stop-color="#3BABFF" stop-opacity="0.18"/><stop offset="0.5" stop-color="#3BABFF" stop-opacity="0.06"/><stop offset="1" stop-color="#3BABFF" stop-opacity="0"/></radialGradient><filter id="g9015_b" x="-60%" y="-60%" width="220%" height="220%"><feGaussianBlur stdDeviation="26"/></filter><filter id="g9015_grain" x="0" y="0" width="100%" height="100%"><feTurbulence type="fractalNoise" baseFrequency="0.9" numOctaves="2" stitchTiles="stitch" result="n"/><feColorMatrix in="n" type="saturate" values="0" result="d"/><feComponentTransfer in="d"><feFuncA type="linear" slope="0.06" intercept="0"/></feComponentTransfer></filter><radialGradient id="g9015_vig" cx="0" cy="0" r="1" gradientUnits="userSpaceOnUse" gradientTransform="translate(540 675) scale(760)"><stop offset="0" stop-color="#000000" stop-opacity="0"/><stop offset="0.68" stop-color="#000000" stop-opacity="0"/><stop offset="1" stop-color="#000000" stop-opacity="0.55"/></radialGradient></defs><rect width="1080" height="1350" fill="#080a0d"/><rect width="1080" height="1350" fill="url(#g9015_field)"/><g><polygon points="0.0,0.0 180.0,0.0 206.7,210.9" fill="#10141c" fill-opacity="0.250"/><polygon points="0.0,0.0 206.7,210.9 0.0,168.8" fill="#10141c" fill-opacity="0.269"/><polygon points="180.0,0.0 360.0,0.0 206.7,210.9" fill="#10141c" fill-opacity="0.231"/><polygon points="360.0,0.0 403.9,168.1 206.7,210.9" fill="#05070a" fill-opacity="0.147"/><polygon points="360.0,0.0 540.0,0.0 536.5,193.7" fill="#05070a" fill-opacity="0.179"/><polygon points="360.0,0.0 536.5,193.7 403.9,168.1" fill="#05070a" fill-opacity="0.146"/><polygon points="540.0,0.0 720.0,0.0 536.5,193.7" fill="#05070a" fill-opacity="0.165"/><polygon points="720.0,0.0 737.3,149.5 536.5,193.7" fill="#10141c" fill-opacity="0.200"/><polygon points="720.0,0.0 900.0,0.0 900.1,165.3" fill="#10141c" fill-opacity="0.148"/><polygon points="720.0,0.0 900.1,165.3 737.3,149.5" fill="#10141c" fill-opacity="0.142"/><polygon points="900.0,0.0 1080.0,0.0 900.1,165.3" fill="#05070a" fill-opacity="0.072"/><polygon points="1080.0,0.0 1080.0,168.8 900.1,165.3" fill="#05070a" fill-opacity="0.095"/><polygon points="0.0,168.8 206.7,210.9 0.0,337.5" fill="#10141c" fill-opacity="0.237"/><polygon points="206.7,210.9 155.8,290.5 0.0,337.5" fill="#05070a" fill-opacity="0.179"/><polygon points="206.7,210.9 403.9,168.1 326.6,324.6" fill="#05070a" fill-opacity="0.140"/><polygon points="206.7,210.9 326.6,324.6 155.8,290.5" fill="#05070a" fill-opacity="0.144"/><polygon points="403.9,168.1 536.5,193.7 326.6,324.6" fill="#05070a" fill-opacity="0.183"/><polygon points="536.5,193.7 522.6,327.3 326.6,324.6" fill="#05070a" fill-opacity="0.160"/><polygon points="536.5,193.7 737.3,149.5 726.2,333.8" fill="#05070a" fill-opacity="0.126"/><polygon points="536.5,193.7 726.2,333.8 522.6,327.3" fill="#10141c" fill-opacity="0.138"/><polygon points="737.3,149.5 900.1,165.3 726.2,333.8" fill="#10141c" fill-opacity="0.109"/><polygon points="900.1,165.3 892.0,332.4 726.2,333.8" fill="#10141c" fill-opacity="0.115"/><polygon points="900.1,165.3 1080.0,168.8 1080.0,337.5" fill="#10141c" fill-opacity="0.133"/><polygon points="900.1,165.3 1080.0,337.5 892.0,332.4" fill="#05070a" fill-opacity="0.090"/><polygon points="0.0,337.5 155.8,290.5 142.0,540.4" fill="#05070a" fill-opacity="0.144"/><polygon points="0.0,337.5 142.0,540.4 0.0,506.3" fill="#05070a" fill-opacity="0.149"/><polygon points="155.8,290.5 326.6,324.6 142.0,540.4" fill="#10141c" fill-opacity="0.230"/><polygon points="326.6,324.6 356.2,525.1 142.0,540.4" fill="#10141c" fill-opacity="0.228"/><polygon points="326.6,324.6 522.6,327.3 551.8,491.4" fill="#10141c" fill-opacity="0.186"/><polygon points="326.6,324.6 551.8,491.4 356.2,525.1" fill="#10141c" fill-opacity="0.151"/><polygon points="522.6,327.3 726.2,333.8 551.8,491.4" fill="#05070a" fill-opacity="0.095"/><polygon points="726.2,333.8 719.9,503.5 551.8,491.4" fill="#10141c" fill-opacity="0.127"/><polygon points="726.2,333.8 892.0,332.4 906.8,500.7" fill="#10141c" fill-opacity="0.124"/><polygon points="726.2,333.8 906.8,500.7 719.9,503.5" fill="#05070a" fill-opacity="0.089"/><polygon points="892.0,332.4 1080.0,337.5 906.8,500.7" fill="#05070a" fill-opacity="0.116"/><polygon points="1080.0,337.5 1080.0,506.3 906.8,500.7" fill="#10141c" fill-opacity="0.155"/><polygon points="0.0,506.3 142.0,540.4 0.0,675.0" fill="#05070a" fill-opacity="0.193"/><polygon points="142.0,540.4 172.7,683.2 0.0,675.0" fill="#10141c" fill-opacity="0.213"/><polygon points="142.0,540.4 356.2,525.1 378.4,664.5" fill="#10141c" fill-opacity="0.180"/><polygon points="142.0,540.4 378.4,664.5 172.7,683.2" fill="#10141c" fill-opacity="0.180"/><polygon points="356.2,525.1 551.8,491.4 378.4,664.5" fill="#05070a" fill-opacity="0.097"/><polygon points="551.8,491.4 530.9,680.3 378.4,664.5" fill="#10141c" fill-opacity="0.134"/><polygon points="551.8,491.4 719.9,503.5 717.3,671.1" fill="#05070a" fill-opacity="0.084"/><polygon points="551.8,491.4 717.3,671.1 530.9,680.3" fill="#10141c" fill-opacity="0.105"/><polygon points="719.9,503.5 906.8,500.7 717.3,671.1" fill="#10141c" fill-opacity="0.121"/><polygon points="906.8,500.7 867.8,695.5 717.3,671.1" fill="#05070a" fill-opacity="0.118"/><polygon points="906.8,500.7 1080.0,506.3 1080.0,675.0" fill="#10141c" fill-opacity="0.200"/><polygon points="906.8,500.7 1080.0,675.0 867.8,695.5" fill="#10141c" fill-opacity="0.173"/><polygon points="0.0,675.0 172.7,683.2 175.2,844.0" fill="#05070a" fill-opacity="0.123"/><polygon points="0.0,675.0 175.2,844.0 0.0,843.8" fill="#05070a" fill-opacity="0.156"/><polygon points="172.7,683.2 378.4,664.5 175.2,844.0" fill="#05070a" fill-opacity="0.127"/><polygon points="378.4,664.5 364.8,854.0 175.2,844.0" fill="#05070a" fill-opacity="0.085"/><polygon points="378.4,664.5 530.9,680.3 545.5,858.7" fill="#10141c" fill-opacity="0.128"/><polygon points="378.4,664.5 545.5,858.7 364.8,854.0" fill="#05070a" fill-opacity="0.070"/><polygon points="530.9,680.3 717.3,671.1 545.5,858.7" fill="#10141c" fill-opacity="0.137"/><polygon points="717.3,671.1 733.6,818.8 545.5,858.7" fill="#10141c" fill-opacity="0.146"/><polygon points="717.3,671.1 867.8,695.5 871.8,848.6" fill="#05070a" fill-opacity="0.112"/><polygon points="717.3,671.1 871.8,848.6 733.6,818.8" fill="#10141c" fill-opacity="0.188"/><polygon points="867.8,695.5 1080.0,675.0 871.8,848.6" fill="#10141c" fill-opacity="0.224"/><polygon points="1080.0,675.0 1080.0,843.8 871.8,848.6" fill="#10141c" fill-opacity="0.236"/><polygon points="0.0,843.8 175.2,844.0 0.0,1012.5" fill="#05070a" fill-opacity="0.107"/><polygon points="175.2,844.0 188.7,1006.4 0.0,1012.5" fill="#10141c" fill-opacity="0.131"/><polygon points="175.2,844.0 364.8,854.0 358.0,1010.6" fill="#05070a" fill-opacity="0.076"/><polygon points="175.2,844.0 358.0,1010.6 188.7,1006.4" fill="#10141c" fill-opacity="0.103"/><polygon points="364.8,854.0 545.5,858.7 358.0,1010.6" fill="#05070a" fill-opacity="0.100"/><polygon points="545.5,858.7 548.7,1033.0 358.0,1010.6" fill="#10141c" fill-opacity="0.125"/><polygon points="545.5,858.7 733.6,818.8 718.3,982.0" fill="#05070a" fill-opacity="0.103"/><polygon points="545.5,858.7 718.3,982.0 548.7,1033.0" fill="#05070a" fill-opacity="0.139"/><polygon points="733.6,818.8 871.8,848.6 718.3,982.0" fill="#05070a" fill-opacity="0.120"/><polygon points="871.8,848.6 849.7,1006.8 718.3,982.0" fill="#10141c" fill-opacity="0.211"/><polygon points="871.8,848.6 1080.0,843.8 1080.0,1012.5" fill="#05070a" fill-opacity="0.207"/><polygon points="871.8,848.6 1080.0,1012.5 849.7,1006.8" fill="#10141c" fill-opacity="0.225"/><polygon points="0.0,1012.5 188.7,1006.4 181.5,1187.6" fill="#10141c" fill-opacity="0.115"/><polygon points="0.0,1012.5 181.5,1187.6 0.0,1181.3" fill="#10141c" fill-opacity="0.118"/><polygon points="188.7,1006.4 358.0,1010.6 181.5,1187.6" fill="#10141c" fill-opacity="0.118"/><polygon points="358.0,1010.6 363.2,1174.9 181.5,1187.6" fill="#10141c" fill-opacity="0.115"/><polygon points="358.0,1010.6 548.7,1033.0 549.1,1181.6" fill="#10141c" fill-opacity="0.143"/><polygon points="358.0,1010.6 549.1,1181.6 363.2,1174.9" fill="#05070a" fill-opacity="0.117"/><polygon points="548.7,1033.0 718.3,982.0 549.1,1181.6" fill="#10141c" fill-opacity="0.208"/><polygon points="718.3,982.0 749.1,1161.0 549.1,1181.6" fill="#10141c" fill-opacity="0.212"/><polygon points="718.3,982.0 849.7,1006.8 893.5,1223.7" fill="#05070a" fill-opacity="0.144"/><polygon points="718.3,982.0 893.5,1223.7 749.1,1161.0" fill="#10141c" fill-opacity="0.254"/><polygon points="849.7,1006.8 1080.0,1012.5 893.5,1223.7" fill="#05070a" fill-opacity="0.203"/><polygon points="1080.0,1012.5 1080.0,1181.3 893.5,1223.7" fill="#10141c" fill-opacity="0.221"/><polygon points="0.0,1181.3 181.5,1187.6 0.0,1350.0" fill="#10141c" fill-opacity="0.110"/><polygon points="181.5,1187.6 180.0,1350.0 0.0,1350.0" fill="#10141c" fill-opacity="0.107"/><polygon points="181.5,1187.6 363.2,1174.9 360.0,1350.0" fill="#10141c" fill-opacity="0.151"/><polygon points="181.5,1187.6 360.0,1350.0 180.0,1350.0" fill="#10141c" fill-opacity="0.155"/><polygon points="363.2,1174.9 549.1,1181.6 360.0,1350.0" fill="#05070a" fill-opacity="0.120"/><polygon points="549.1,1181.6 540.0,1350.0 360.0,1350.0" fill="#10141c" fill-opacity="0.229"/><polygon points="549.1,1181.6 749.1,1161.0 720.0,1350.0" fill="#05070a" fill-opacity="0.182"/><polygon points="549.1,1181.6 720.0,1350.0 540.0,1350.0" fill="#05070a" fill-opacity="0.142"/><polygon points="749.1,1161.0 893.5,1223.7 720.0,1350.0" fill="#10141c" fill-opacity="0.272"/><polygon points="893.5,1223.7 900.0,1350.0 720.0,1350.0" fill="#10141c" fill-opacity="0.284"/><polygon points="893.5,1223.7 1080.0,1181.3 1080.0,1350.0" fill="#05070a" fill-opacity="0.204"/><polygon points="893.5,1223.7 1080.0,1350.0 900.0,1350.0" fill="#05070a" fill-opacity="0.157"/></g><g style="mix-blend-mode:screen"><rect width="1080" height="1350" fill="url(#g9015_c)"/><rect width="1080" height="1350" fill="url(#g9015_a)"/><rect width="1080" height="1350" fill="url(#g9015_teal)" filter="url(#g9015_b)"/><polygon points="0.0,0.0 180.0,0.0 206.7,210.9" fill="#0A6AA6" fill-opacity="0.061"/><polygon points="0.0,0.0 206.7,210.9 0.0,168.8" fill="#0A6AA6" fill-opacity="0.064"/><polygon points="180.0,0.0 360.0,0.0 206.7,210.9" fill="#0A6AA6" fill-opacity="0.048"/><polygon points="360.0,0.0 403.9,168.1 206.7,210.9" fill="#0A6AA6" fill-opacity="0.032"/><polygon points="360.0,0.0 540.0,0.0 536.5,193.7" fill="#0A6AA6" fill-opacity="0.019"/><polygon points="360.0,0.0 536.5,193.7 403.9,168.1" fill="#0A6AA6" fill-opacity="0.024"/><polygon points="540.0,0.0 720.0,0.0 536.5,193.7" fill="#3BABFF" fill-opacity="0.015"/><polygon points="720.0,0.0 737.3,149.5 536.5,193.7" fill="#3BABFF" fill-opacity="0.016"/><polygon points="720.0,0.0 900.0,0.0 900.1,165.3" fill="#0092FF" fill-opacity="0.010"/><polygon points="720.0,0.0 900.0,0.0 900.1,165.3" fill="#3BABFF" fill-opacity="0.025"/><polygon points="720.0,0.0 900.1,165.3 737.3,149.5" fill="#0092FF" fill-opacity="0.009"/><polygon points="720.0,0.0 900.1,165.3 737.3,149.5" fill="#3BABFF" fill-opacity="0.014"/><polygon points="900.0,0.0 1080.0,0.0 900.1,165.3" fill="#3BABFF" fill-opacity="0.006"/><polygon points="900.0,0.0 1080.0,0.0 900.1,165.3" fill="#3BABFF" fill-opacity="0.036"/><polygon points="1080.0,0.0 1080.0,168.8 900.1,165.3" fill="#3BABFF" fill-opacity="0.037"/><polygon points="0.0,168.8 206.7,210.9 0.0,337.5" fill="#0A6AA6" fill-opacity="0.070"/><polygon points="206.7,210.9 155.8,290.5 0.0,337.5" fill="#0A6AA6" fill-opacity="0.069"/><polygon points="206.7,210.9 403.9,168.1 326.6,324.6" fill="#0A6AA6" fill-opacity="0.032"/><polygon points="206.7,210.9 326.6,324.6 155.8,290.5" fill="#0A6AA6" fill-opacity="0.033"/><polygon points="403.9,168.1 536.5,193.7 326.6,324.6" fill="#0A6AA6" fill-opacity="0.019"/><polygon points="536.5,193.7 522.6,327.3 326.6,324.6" fill="#0092FF" fill-opacity="0.013"/><polygon points="536.5,193.7 737.3,149.5 726.2,333.8" fill="#0092FF" fill-opacity="0.012"/><polygon points="536.5,193.7 737.3,149.5 726.2,333.8" fill="#FFCB6B" fill-opacity="0.018"/><polygon points="536.5,193.7 726.2,333.8 522.6,327.3" fill="#3BABFF" fill-opacity="0.008"/><polygon points="536.5,193.7 726.2,333.8 522.6,327.3" fill="#3BABFF" fill-opacity="0.010"/><polygon points="737.3,149.5 900.1,165.3 726.2,333.8" fill="#3BABFF" fill-opacity="0.022"/><polygon points="900.1,165.3 892.0,332.4 726.2,333.8" fill="#FFCB6B" fill-opacity="0.044"/><polygon points="900.1,165.3 1080.0,168.8 1080.0,337.5" fill="#E8A830" fill-opacity="0.010"/><polygon points="900.1,165.3 1080.0,168.8 1080.0,337.5" fill="#FFCB6B" fill-opacity="0.031"/><polygon points="900.1,165.3 1080.0,337.5 892.0,332.4" fill="#FFCB6B" fill-opacity="0.008"/><polygon points="900.1,165.3 1080.0,337.5 892.0,332.4" fill="#3BABFF" fill-opacity="0.020"/><polygon points="0.0,337.5 155.8,290.5 142.0,540.4" fill="#0A6AA6" fill-opacity="0.057"/><polygon points="0.0,337.5 142.0,540.4 0.0,506.3" fill="#0A6AA6" fill-opacity="0.065"/><polygon points="155.8,290.5 326.6,324.6 142.0,540.4" fill="#3BABFF" fill-opacity="0.032"/><polygon points="326.6,324.6 356.2,525.1 142.0,540.4" fill="#0092FF" fill-opacity="0.020"/><polygon points="326.6,324.6 522.6,327.3 551.8,491.4" fill="#0092FF" fill-opacity="0.009"/><polygon points="326.6,324.6 551.8,491.4 356.2,525.1" fill="#0092FF" fill-opacity="0.014"/><polygon points="522.6,327.3 726.2,333.8 551.8,491.4" fill="#0092FF" fill-opacity="0.007"/><polygon points="522.6,327.3 726.2,333.8 551.8,491.4" fill="#FFCB6B" fill-opacity="0.026"/><polygon points="726.2,333.8 719.9,503.5 551.8,491.4" fill="#3BABFF" fill-opacity="0.042"/><polygon points="726.2,333.8 892.0,332.4 906.8,500.7" fill="#FFCB6B" fill-opacity="0.007"/><polygon points="726.2,333.8 892.0,332.4 906.8,500.7" fill="#FFCB6B" fill-opacity="0.039"/><polygon points="726.2,333.8 906.8,500.7 719.9,503.5" fill="#FFCB6B" fill-opacity="0.032"/><polygon points="892.0,332.4 1080.0,337.5 906.8,500.7" fill="#FFCB6B" fill-opacity="0.012"/><polygon points="892.0,332.4 1080.0,337.5 906.8,500.7" fill="#FFCB6B" fill-opacity="0.015"/><polygon points="1080.0,337.5 1080.0,506.3 906.8,500.7" fill="#E8A830" fill-opacity="0.024"/><polygon points="0.0,506.3 142.0,540.4 0.0,675.0" fill="#3BABFF" fill-opacity="0.045"/><polygon points="142.0,540.4 172.7,683.2 0.0,675.0" fill="#0092FF" fill-opacity="0.032"/><polygon points="142.0,540.4 356.2,525.1 378.4,664.5" fill="#3BABFF" fill-opacity="0.013"/><polygon points="142.0,540.4 378.4,664.5 172.7,683.2" fill="#0092FF" fill-opacity="0.018"/><polygon points="356.2,525.1 551.8,491.4 378.4,664.5" fill="#0092FF" fill-opacity="0.007"/><polygon points="356.2,525.1 551.8,491.4 378.4,664.5" fill="#3BABFF" fill-opacity="0.012"/><polygon points="551.8,491.4 530.9,680.3 378.4,664.5" fill="#3BABFF" fill-opacity="0.018"/><polygon points="551.8,491.4 719.9,503.5 717.3,671.1" fill="#3BABFF" fill-opacity="0.041"/><polygon points="551.8,491.4 717.3,671.1 530.9,680.3" fill="#3BABFF" fill-opacity="0.043"/><polygon points="719.9,503.5 906.8,500.7 717.3,671.1" fill="#E8A830" fill-opacity="0.008"/><polygon points="719.9,503.5 906.8,500.7 717.3,671.1" fill="#3BABFF" fill-opacity="0.023"/><polygon points="906.8,500.7 867.8,695.5 717.3,671.1" fill="#FFCB6B" fill-opacity="0.013"/><polygon points="906.8,500.7 867.8,695.5 717.3,671.1" fill="#3BABFF" fill-opacity="0.008"/><polygon points="906.8,500.7 1080.0,506.3 1080.0,675.0" fill="#FFCB6B" fill-opacity="0.024"/><polygon points="906.8,500.7 1080.0,675.0 867.8,695.5" fill="#FFCB6B" fill-opacity="0.024"/><polygon points="0.0,675.0 172.7,683.2 175.2,844.0" fill="#3BABFF" fill-opacity="0.028"/><polygon points="0.0,675.0 175.2,844.0 0.0,843.8" fill="#0092FF" fill-opacity="0.031"/><polygon points="172.7,683.2 378.4,664.5 175.2,844.0" fill="#0092FF" fill-opacity="0.014"/><polygon points="172.7,683.2 378.4,664.5 175.2,844.0" fill="#FFCB6B" fill-opacity="0.013"/><polygon points="378.4,664.5 364.8,854.0 175.2,844.0" fill="#0092FF" fill-opacity="0.009"/><polygon points="378.4,664.5 364.8,854.0 175.2,844.0" fill="#FFCB6B" fill-opacity="0.017"/><polygon points="378.4,664.5 530.9,680.3 545.5,858.7" fill="#3BABFF" fill-opacity="0.028"/><polygon points="378.4,664.5 545.5,858.7 364.8,854.0" fill="#3BABFF" fill-opacity="0.040"/><polygon points="530.9,680.3 717.3,671.1 545.5,858.7" fill="#3BABFF" fill-opacity="0.021"/><polygon points="717.3,671.1 733.6,818.8 545.5,858.7" fill="#E8A830" fill-opacity="0.009"/><polygon points="717.3,671.1 733.6,818.8 545.5,858.7" fill="#3BABFF" fill-opacity="0.015"/><polygon points="717.3,671.1 867.8,695.5 871.8,848.6" fill="#E8A830" fill-opacity="0.020"/><polygon points="717.3,671.1 871.8,848.6 733.6,818.8" fill="#FFCB6B" fill-opacity="0.017"/><polygon points="867.8,695.5 1080.0,675.0 871.8,848.6" fill="#E8A830" fill-opacity="0.025"/><polygon points="1080.0,675.0 1080.0,843.8 871.8,848.6" fill="#FFCB6B" fill-opacity="0.051"/><polygon points="0.0,843.8 175.2,844.0 0.0,1012.5" fill="#3BABFF" fill-opacity="0.023"/><polygon points="175.2,844.0 188.7,1006.4 0.0,1012.5" fill="#0092FF" fill-opacity="0.012"/><polygon points="175.2,844.0 188.7,1006.4 0.0,1012.5" fill="#FFCB6B" fill-opacity="0.024"/><polygon points="175.2,844.0 364.8,854.0 358.0,1010.6" fill="#FFCB6B" fill-opacity="0.033"/><polygon points="175.2,844.0 358.0,1010.6 188.7,1006.4" fill="#3BABFF" fill-opacity="0.018"/><polygon points="364.8,854.0 545.5,858.7 358.0,1010.6" fill="#3BABFF" fill-opacity="0.044"/><polygon points="545.5,858.7 548.7,1033.0 358.0,1010.6" fill="#3BABFF" fill-opacity="0.030"/><polygon points="545.5,858.7 733.6,818.8 718.3,982.0" fill="#E8A830" fill-opacity="0.011"/><polygon points="545.5,858.7 718.3,982.0 548.7,1033.0" fill="#E8A830" fill-opacity="0.011"/><polygon points="733.6,818.8 871.8,848.6 718.3,982.0" fill="#E8A830" fill-opacity="0.021"/><polygon points="871.8,848.6 849.7,1006.8 718.3,982.0" fill="#F7B041" fill-opacity="0.034"/><polygon points="871.8,848.6 1080.0,843.8 1080.0,1012.5" fill="#F7B041" fill-opacity="0.053"/><polygon points="871.8,848.6 1080.0,1012.5 849.7,1006.8" fill="#F7B041" fill-opacity="0.053"/><polygon points="0.0,1012.5 188.7,1006.4 181.5,1187.6" fill="#0092FF" fill-opacity="0.009"/><polygon points="0.0,1012.5 188.7,1006.4 181.5,1187.6" fill="#FFCB6B" fill-opacity="0.033"/><polygon points="0.0,1012.5 181.5,1187.6 0.0,1181.3" fill="#0092FF" fill-opacity="0.007"/><polygon points="0.0,1012.5 181.5,1187.6 0.0,1181.3" fill="#FFCB6B" fill-opacity="0.019"/><polygon points="188.7,1006.4 358.0,1010.6 181.5,1187.6" fill="#FFCB6B" fill-opacity="0.042"/><polygon points="358.0,1010.6 363.2,1174.9 181.5,1187.6" fill="#E8A830" fill-opacity="0.007"/><polygon points="358.0,1010.6 363.2,1174.9 181.5,1187.6" fill="#3BABFF" fill-opacity="0.017"/><polygon points="358.0,1010.6 548.7,1033.0 549.1,1181.6" fill="#E8A830" fill-opacity="0.007"/><polygon points="358.0,1010.6 548.7,1033.0 549.1,1181.6" fill="#FFCB6B" fill-opacity="0.015"/><polygon points="358.0,1010.6 549.1,1181.6 363.2,1174.9" fill="#FFCB6B" fill-opacity="0.010"/><polygon points="358.0,1010.6 549.1,1181.6 363.2,1174.9" fill="#3BABFF" fill-opacity="0.018"/><polygon points="548.7,1033.0 718.3,982.0 549.1,1181.6" fill="#E8A830" fill-opacity="0.014"/><polygon points="718.3,982.0 749.1,1161.0 549.1,1181.6" fill="#FFCB6B" fill-opacity="0.026"/><polygon points="718.3,982.0 849.7,1006.8 893.5,1223.7" fill="#F7B041" fill-opacity="0.031"/><polygon points="718.3,982.0 893.5,1223.7 749.1,1161.0" fill="#F7B041" fill-opacity="0.040"/><polygon points="849.7,1006.8 1080.0,1012.5 893.5,1223.7" fill="#F7B041" fill-opacity="0.050"/><polygon points="1080.0,1012.5 1080.0,1181.3 893.5,1223.7" fill="#F7B041" fill-opacity="0.059"/><polygon points="0.0,1181.3 181.5,1187.6 0.0,1350.0" fill="#0092FF" fill-opacity="0.007"/><polygon points="0.0,1181.3 181.5,1187.6 0.0,1350.0" fill="#FFCB6B" fill-opacity="0.043"/><polygon points="181.5,1187.6 180.0,1350.0 0.0,1350.0" fill="#FFCB6B" fill-opacity="0.007"/><polygon points="181.5,1187.6 180.0,1350.0 0.0,1350.0" fill="#3BABFF" fill-opacity="0.025"/><polygon points="181.5,1187.6 363.2,1174.9 360.0,1350.0" fill="#E8A830" fill-opacity="0.011"/><polygon points="181.5,1187.6 363.2,1174.9 360.0,1350.0" fill="#3BABFF" fill-opacity="0.015"/><polygon points="181.5,1187.6 360.0,1350.0 180.0,1350.0" fill="#E8A830" fill-opacity="0.010"/><polygon points="181.5,1187.6 360.0,1350.0 180.0,1350.0" fill="#FFCB6B" fill-opacity="0.018"/><polygon points="363.2,1174.9 549.1,1181.6 360.0,1350.0" fill="#E8A830" fill-opacity="0.012"/><polygon points="549.1,1181.6 540.0,1350.0 360.0,1350.0" fill="#E8A830" fill-opacity="0.014"/><polygon points="549.1,1181.6 749.1,1161.0 720.0,1350.0" fill="#F7B041" fill-opacity="0.028"/><polygon points="549.1,1181.6 720.0,1350.0 540.0,1350.0" fill="#F7B041" fill-opacity="0.029"/><polygon points="749.1,1161.0 893.5,1223.7 720.0,1350.0" fill="#F7B041" fill-opacity="0.043"/><polygon points="893.5,1223.7 900.0,1350.0 720.0,1350.0" fill="#F7B041" fill-opacity="0.060"/><polygon points="893.5,1223.7 1080.0,1181.3 1080.0,1350.0" fill="#F7B041" fill-opacity="0.083"/><polygon points="893.5,1223.7 1080.0,1350.0 900.0,1350.0" fill="#F7B041" fill-opacity="0.078"/><line x1="180.0" y1="0.0" x2="360.0" y2="0.0" stroke="#3BABFF" stroke-opacity="0.032" stroke-width="1"/><line x1="540.0" y1="0.0" x2="720.0" y2="0.0" stroke="#3BABFF" stroke-opacity="0.015" stroke-width="1"/><line x1="720.0" y1="0.0" x2="900.0" y2="0.0" stroke="#3BABFF" stroke-opacity="0.014" stroke-width="1"/><line x1="0.0" y1="168.8" x2="206.7" y2="210.9" stroke="#3BABFF" stroke-opacity="0.043" stroke-width="1"/><line x1="206.7" y1="210.9" x2="403.9" y2="168.1" stroke="#3BABFF" stroke-opacity="0.028" stroke-width="1"/><line x1="403.9" y1="168.1" x2="536.5" y2="193.7" stroke="#3BABFF" stroke-opacity="0.015" stroke-width="1"/><line x1="0.0" y1="337.5" x2="155.8" y2="290.5" stroke="#3BABFF" stroke-opacity="0.043" stroke-width="1"/><line x1="155.8" y1="290.5" x2="326.6" y2="324.6" stroke="#3BABFF" stroke-opacity="0.028" stroke-width="1"/><line x1="326.6" y1="324.6" x2="522.6" y2="327.3" stroke="#3BABFF" stroke-opacity="0.013" stroke-width="1"/><line x1="892.0" y1="332.4" x2="1080.0" y2="337.5" stroke="#FFCB6B" stroke-opacity="0.013" stroke-width="1"/><line x1="0.0" y1="506.3" x2="142.0" y2="540.4" stroke="#3BABFF" stroke-opacity="0.039" stroke-width="1"/><line x1="142.0" y1="540.4" x2="356.2" y2="525.1" stroke="#3BABFF" stroke-opacity="0.022" stroke-width="1"/><line x1="0.0" y1="675.0" x2="172.7" y2="683.2" stroke="#3BABFF" stroke-opacity="0.032" stroke-width="1"/><line x1="717.3" y1="671.1" x2="867.8" y2="695.5" stroke="#FFCB6B" stroke-opacity="0.013" stroke-width="1"/><line x1="867.8" y1="695.5" x2="1080.0" y2="675.0" stroke="#FFCB6B" stroke-opacity="0.031" stroke-width="1"/><line x1="0.0" y1="843.8" x2="175.2" y2="844.0" stroke="#3BABFF" stroke-opacity="0.022" stroke-width="1"/><line x1="733.6" y1="818.8" x2="871.8" y2="848.6" stroke="#FFCB6B" stroke-opacity="0.021" stroke-width="1"/><line x1="871.8" y1="848.6" x2="1080.0" y2="843.8" stroke="#FFCB6B" stroke-opacity="0.037" stroke-width="1"/><line x1="0.0" y1="1012.5" x2="188.7" y2="1006.4" stroke="#3BABFF" stroke-opacity="0.013" stroke-width="1"/><line x1="849.7" y1="1006.8" x2="1080.0" y2="1012.5" stroke="#FFCB6B" stroke-opacity="0.040" stroke-width="1"/><line x1="749.1" y1="1161.0" x2="893.5" y2="1223.7" stroke="#FFCB6B" stroke-opacity="0.031" stroke-width="1"/><line x1="180.0" y1="1350.0" x2="360.0" y2="1350.0" stroke="#FFCB6B" stroke-opacity="0.014" stroke-width="1"/></g><rect width="1080" height="1350" filter="url(#g9015_grain)"/><rect width="1080" height="1350" fill="url(#g9015_vig)"/></svg>