<svg class="bgsvg" viewBox="0 0 1080 1350" preserveAspectRatio="xMidYMid slice" xmlns="http://www.w3.org/2000/svg"><rect width="1080" height="1350" fill="#0A0B10"/><defs><radialGradient id="g9013_c" cx="0" cy="0" r="1" gradientUnits="userSpaceOnUse" gradientTransform="translate(40 1300) scale(980)"><stop offset="0" stop-color="#0092FF" stop-opacity="0.3"/><stop offset="0.45" stop-color="#0092FF" stop-opacity="0.09"/><stop offset="1" stop-color="#0092FF" stop-opacity="0"/></radialGradient><radialGradient id="g9013_a" cx="0" cy="0" r="1" gradientUnits="userSpaceOnUse" gradientTransform="translate(1040 60) scale(980)"><stop offset="0" stop-color="#F7B041" stop-opacity="0.26"/><stop offset="0.45" stop-color="#F7B041" stop-opacity="0.08"/><stop offset="1" stop-color="#F7B041" stop-opacity="0"/></radialGradient><radialGradient id="g9013_calm" cx="0" cy="0" r="1" gradientUnits="userSpaceOnUse" gradientTransform="translate(540 675) scale(520)"><stop offset="0" stop-color="#0A0F1A" stop-opacity="0"/><stop offset="0.6" stop-color="#0A0F1A" stop-opacity="0.22"/><stop offset="1" stop-color="#0A0F1A" stop-opacity="0.42"/></radialGradient><filter id="g9013_soft" x="-60%" y="-60%" width="220%" height="220%"><feGaussianBlur stdDeviation="0.6"/></filter><filter id="g9013_grain" x="0" y="0" width="100%" height="100%"><feTurbulence type="fractalNoise" baseFrequency="0.9" numOctaves="2" stitchTiles="stitch" result="n"/><feColorMatrix in="n" type="saturate" values="0" result="d"/><feComponentTransfer in="d"><feFuncA type="linear" slope="0.06" intercept="0"/></feComponentTransfer></filter><radialGradient id="g9013_vig" cx="0" cy="0" r="1" gradientUnits="userSpaceOnUse" gradientTransform="translate(540 675) scale(760)"><stop offset="0" stop-color="#000000" stop-opacity="0"/><stop offset="0.68" stop-color="#000000" stop-opacity="0"/><stop offset="1" stop-color="#000000" stop-opacity="0.55"/></radialGradient></defs><rect width="1080" height="1350" fill="#0A0B10"/><rect width="1080" height="1350" fill="url(#g9013_c)"/><rect width="1080" height="1350" fill="url(#g9013_a)"/><g style="mix-blend-mode:screen"><g filter="url(#g9013_soft)"><g transform="rotate(2.4 -160.0 1560.0)"><circle cx="-160.0" cy="1560.0" r="92.6" fill="none" stroke="#0092FF" stroke-width="1" stroke-opacity="0.111"/><circle cx="-160.0" cy="1560.0" r="127.2" fill="none" stroke="#0092FF" stroke-width="1" stroke-opacity="0.120"/><circle cx="-160.0" cy="1560.0" r="154.3" fill="none" stroke="#0092FF" stroke-width="1" stroke-opacity="0.129"/><circle cx="-160.0" cy="1560.0" r="183.0" fill="none" stroke="#0092FF" stroke-width="1" stroke-opacity="0.138"/><circle cx="-160.0" cy="1560.0" r="217.0" fill="none" stroke="#0092FF" stroke-width="1" stroke-opacity="0.148"/><circle cx="-160.0" cy="1560.0" r="247.1" fill="none" stroke="#0092FF" stroke-width="1" stroke-opacity="0.157"/><circle cx="-160.0" cy="1560.0" r="279.5" fill="none" stroke="#0092FF" stroke-width="1" stroke-opacity="0.166"/><circle cx="-160.0" cy="1560.0" r="306.9" fill="none" stroke="#0092FF" stroke-width="1" stroke-opacity="0.175"/><circle cx="-160.0" cy="1560.0" r="336.3" fill="none" stroke="#0092FF" stroke-width="1" stroke-opacity="0.184"/><circle cx="-160.0" cy="1560.0" r="366.6" fill="none" stroke="#0092FF" stroke-width="1" stroke-opacity="0.193"/><circle cx="-160.0" cy="1560.0" r="390.1" fill="none" stroke="#0092FF" stroke-width="1" stroke-opacity="0.202"/><circle cx="-160.0" cy="1560.0" r="423.6" fill="none" stroke="#0092FF" stroke-width="1" stroke-opacity="0.211"/><circle cx="-160.0" cy="1560.0" r="459.7" fill="none" stroke="#0092FF" stroke-width="1" stroke-opacity="0.221"/><circle cx="-160.0" cy="1560.0" r="484.6" fill="none" stroke="#0092FF" stroke-width="1" stroke-opacity="0.230"/><circle cx="-160.0" cy="1560.0" r="512.2" fill="none" stroke="#0092FF" stroke-width="1" stroke-opacity="0.239"/><circle cx="-160.0" cy="1560.0" r="546.1" fill="none" stroke="#0092FF" stroke-width="1" stroke-opacity="0.187"/><circle cx="-160.0" cy="1560.0" r="575.8" fill="none" stroke="#0092FF" stroke-width="1" stroke-opacity="0.165"/><circle cx="-160.0" cy="1560.0" r="603.9" fill="none" stroke="#0092FF" stroke-width="1" stroke-opacity="0.143"/><circle cx="-160.0" cy="1560.0" r="635.8" fill="none" stroke="#0092FF" stroke-width="1" stroke-opacity="0.115"/><circle cx="-160.0" cy="1560.0" r="666.1" fill="none" stroke="#0092FF" stroke-width="1" stroke-opacity="0.087"/><circle cx="-160.0" cy="1560.0" r="695.9" fill="none" stroke="#0092FF" stroke-width="1" stroke-opacity="0.057"/><circle cx="-160.0" cy="1560.0" r="725.0" fill="none" stroke="#0092FF" stroke-width="1" stroke-opacity="0.083"/><circle cx="-160.0" cy="1560.0" r="759.9" fill="none" stroke="#0092FF" stroke-width="1" stroke-opacity="0.126"/><circle cx="-160.0" cy="1560.0" r="783.4" fill="none" stroke="#0092FF" stroke-width="1" stroke-opacity="0.158"/><circle cx="-160.0" cy="1560.0" r="813.5" fill="none" stroke="#0092FF" stroke-width="1" stroke-opacity="0.199"/><circle cx="-160.0" cy="1560.0" r="846.3" fill="none" stroke="#0092FF" stroke-width="1" stroke-opacity="0.246"/><circle cx="-160.0" cy="1560.0" r="875.4" fill="none" stroke="#0092FF" stroke-width="1" stroke-opacity="0.283"/><circle cx="-160.0" cy="1560.0" r="900.7" fill="none" stroke="#0092FF" stroke-width="1" stroke-opacity="0.316"/><circle cx="-160.0" cy="1560.0" r="939.5" fill="none" stroke="#0092FF" stroke-width="1" stroke-opacity="0.340"/><circle cx="-160.0" cy="1560.0" r="969.6" fill="none" stroke="#0092FF" stroke-width="1" stroke-opacity="0.340"/></g><g transform="rotate(-2.0 -160.0 1560.0)"><circle cx="-160.0" cy="1560.0" r="94.0" fill="none" stroke="#3BABFF" stroke-width="1" stroke-opacity="0.072"/><circle cx="-160.0" cy="1560.0" r="130.9" fill="none" stroke="#3BABFF" stroke-width="1" stroke-opacity="0.078"/><circle cx="-160.0" cy="1560.0" r="155.4" fill="none" stroke="#3BABFF" stroke-width="1" stroke-opacity="0.084"/><circle cx="-160.0" cy="1560.0" r="188.9" fill="none" stroke="#3BABFF" stroke-width="1" stroke-opacity="0.090"/><circle cx="-160.0" cy="1560.0" r="220.7" fill="none" stroke="#3BABFF" stroke-width="1" stroke-opacity="0.096"/><circle cx="-160.0" cy="1560.0" r="253.0" fill="none" stroke="#3BABFF" stroke-width="1" stroke-opacity="0.101"/><circle cx="-160.0" cy="1560.0" r="283.6" fill="none" stroke="#3BABFF" stroke-width="1" stroke-opacity="0.107"/><circle cx="-160.0" cy="1560.0" r="317.2" fill="none" stroke="#3BABFF" stroke-width="1" stroke-opacity="0.113"/><circle cx="-160.0" cy="1560.0" r="344.0" fill="none" stroke="#3BABFF" stroke-width="1" stroke-opacity="0.119"/><circle cx="-160.0" cy="1560.0" r="381.2" fill="none" stroke="#3BABFF" stroke-width="1" stroke-opacity="0.125"/><circle cx="-160.0" cy="1560.0" r="410.0" fill="none" stroke="#3BABFF" stroke-width="1" stroke-opacity="0.131"/><circle cx="-160.0" cy="1560.0" r="437.2" fill="none" stroke="#3BABFF" stroke-width="1" stroke-opacity="0.137"/><circle cx="-160.0" cy="1560.0" r="477.7" fill="none" stroke="#3BABFF" stroke-width="1" stroke-opacity="0.143"/><circle cx="-160.0" cy="1560.0" r="503.8" fill="none" stroke="#3BABFF" stroke-width="1" stroke-opacity="0.149"/><circle cx="-160.0" cy="1560.0" r="535.5" fill="none" stroke="#3BABFF" stroke-width="1" stroke-opacity="0.123"/><circle cx="-160.0" cy="1560.0" r="563.1" fill="none" stroke="#3BABFF" stroke-width="1" stroke-opacity="0.111"/><circle cx="-160.0" cy="1560.0" r="601.1" fill="none" stroke="#3BABFF" stroke-width="1" stroke-opacity="0.091"/><circle cx="-160.0" cy="1560.0" r="629.3" fill="none" stroke="#3BABFF" stroke-width="1" stroke-opacity="0.076"/><circle cx="-160.0" cy="1560.0" r="665.4" fill="none" stroke="#3BABFF" stroke-width="1" stroke-opacity="0.055"/><circle cx="-160.0" cy="1560.0" r="692.9" fill="none" stroke="#3BABFF" stroke-width="1" stroke-opacity="0.038"/><circle cx="-160.0" cy="1560.0" r="722.2" fill="none" stroke="#3BABFF" stroke-width="1" stroke-opacity="0.050"/><circle cx="-160.0" cy="1560.0" r="751.5" fill="none" stroke="#3BABFF" stroke-width="1" stroke-opacity="0.073"/><circle cx="-160.0" cy="1560.0" r="788.8" fill="none" stroke="#3BABFF" stroke-width="1" stroke-opacity="0.103"/><circle cx="-160.0" cy="1560.0" r="817.7" fill="none" stroke="#3BABFF" stroke-width="1" stroke-opacity="0.128"/><circle cx="-160.0" cy="1560.0" r="849.7" fill="none" stroke="#3BABFF" stroke-width="1" stroke-opacity="0.158"/><circle cx="-160.0" cy="1560.0" r="877.2" fill="none" stroke="#3BABFF" stroke-width="1" stroke-opacity="0.184"/><circle cx="-160.0" cy="1560.0" r="909.2" fill="none" stroke="#3BABFF" stroke-width="1" stroke-opacity="0.211"/><circle cx="-160.0" cy="1560.0" r="947.6" fill="none" stroke="#3BABFF" stroke-width="1" stroke-opacity="0.220"/><circle cx="-160.0" cy="1560.0" r="978.2" fill="none" stroke="#3BABFF" stroke-width="1" stroke-opacity="0.220"/><circle cx="-160.0" cy="1560.0" r="1007.8" fill="none" stroke="#3BABFF" stroke-width="1" stroke-opacity="0.220"/></g><g transform="rotate(-2.6 1260.0 -220.0)"><circle cx="1260.0" cy="-220.0" r="92.6" fill="none" stroke="#F7B041" stroke-width="1" stroke-opacity="0.105"/><circle cx="1260.0" cy="-220.0" r="129.0" fill="none" stroke="#F7B041" stroke-width="1" stroke-opacity="0.113"/><circle cx="1260.0" cy="-220.0" r="158.0" fill="none" stroke="#F7B041" stroke-width="1" stroke-opacity="0.122"/><circle cx="1260.0" cy="-220.0" r="183.7" fill="none" stroke="#F7B041" stroke-width="1" stroke-opacity="0.130"/><circle cx="1260.0" cy="-220.0" r="210.4" fill="none" stroke="#F7B041" stroke-width="1" stroke-opacity="0.139"/><circle cx="1260.0" cy="-220.0" r="242.0" fill="none" stroke="#F7B041" stroke-width="1" stroke-opacity="0.148"/><circle cx="1260.0" cy="-220.0" r="278.1" fill="none" stroke="#F7B041" stroke-width="1" stroke-opacity="0.156"/><circle cx="1260.0" cy="-220.0" r="305.2" fill="none" stroke="#F7B041" stroke-width="1" stroke-opacity="0.165"/><circle cx="1260.0" cy="-220.0" r="336.4" fill="none" stroke="#F7B041" stroke-width="1" stroke-opacity="0.173"/><circle cx="1260.0" cy="-220.0" r="367.8" fill="none" stroke="#F7B041" stroke-width="1" stroke-opacity="0.182"/><circle cx="1260.0" cy="-220.0" r="399.2" fill="none" stroke="#F7B041" stroke-width="1" stroke-opacity="0.190"/><circle cx="1260.0" cy="-220.0" r="427.3" fill="none" stroke="#F7B041" stroke-width="1" stroke-opacity="0.199"/><circle cx="1260.0" cy="-220.0" r="459.2" fill="none" stroke="#F7B041" stroke-width="1" stroke-opacity="0.208"/><circle cx="1260.0" cy="-220.0" r="483.7" fill="none" stroke="#F7B041" stroke-width="1" stroke-opacity="0.216"/><circle cx="1260.0" cy="-220.0" r="516.7" fill="none" stroke="#F7B041" stroke-width="1" stroke-opacity="0.225"/><circle cx="1260.0" cy="-220.0" r="545.4" fill="none" stroke="#F7B041" stroke-width="1" stroke-opacity="0.233"/><circle cx="1260.0" cy="-220.0" r="578.9" fill="none" stroke="#F7B041" stroke-width="1" stroke-opacity="0.171"/><circle cx="1260.0" cy="-220.0" r="604.2" fill="none" stroke="#F7B041" stroke-width="1" stroke-opacity="0.153"/><circle cx="1260.0" cy="-220.0" r="631.8" fill="none" stroke="#F7B041" stroke-width="1" stroke-opacity="0.132"/><circle cx="1260.0" cy="-220.0" r="663.8" fill="none" stroke="#F7B041" stroke-width="1" stroke-opacity="0.104"/><circle cx="1260.0" cy="-220.0" r="699.7" fill="none" stroke="#F7B041" stroke-width="1" stroke-opacity="0.071"/><circle cx="1260.0" cy="-220.0" r="726.3" fill="none" stroke="#F7B041" stroke-width="1" stroke-opacity="0.058"/><circle cx="1260.0" cy="-220.0" r="753.3" fill="none" stroke="#F7B041" stroke-width="1" stroke-opacity="0.089"/><circle cx="1260.0" cy="-220.0" r="784.8" fill="none" stroke="#F7B041" stroke-width="1" stroke-opacity="0.127"/><circle cx="1260.0" cy="-220.0" r="815.8" fill="none" stroke="#F7B041" stroke-width="1" stroke-opacity="0.167"/><circle cx="1260.0" cy="-220.0" r="845.2" fill="none" stroke="#F7B041" stroke-width="1" stroke-opacity="0.206"/><circle cx="1260.0" cy="-220.0" r="877.3" fill="none" stroke="#F7B041" stroke-width="1" stroke-opacity="0.245"/><circle cx="1260.0" cy="-220.0" r="906.1" fill="none" stroke="#F7B041" stroke-width="1" stroke-opacity="0.280"/><circle cx="1260.0" cy="-220.0" r="935.7" fill="none" stroke="#F7B041" stroke-width="1" stroke-opacity="0.315"/><circle cx="1260.0" cy="-220.0" r="962.0" fill="none" stroke="#F7B041" stroke-width="1" stroke-opacity="0.320"/></g><g transform="rotate(2.2 1260.0 -220.0)"><circle cx="1260.0" cy="-220.0" r="94.2" fill="none" stroke="#FFCB6B" stroke-width="1" stroke-opacity="0.065"/><circle cx="1260.0" cy="-220.0" r="133.1" fill="none" stroke="#FFCB6B" stroke-width="1" stroke-opacity="0.071"/><circle cx="1260.0" cy="-220.0" r="159.7" fill="none" stroke="#FFCB6B" stroke-width="1" stroke-opacity="0.076"/><circle cx="1260.0" cy="-220.0" r="190.5" fill="none" stroke="#FFCB6B" stroke-width="1" stroke-opacity="0.081"/><circle cx="1260.0" cy="-220.0" r="225.0" fill="none" stroke="#FFCB6B" stroke-width="1" stroke-opacity="0.087"/><circle cx="1260.0" cy="-220.0" r="259.1" fill="none" stroke="#FFCB6B" stroke-width="1" stroke-opacity="0.092"/><circle cx="1260.0" cy="-220.0" r="283.6" fill="none" stroke="#FFCB6B" stroke-width="1" stroke-opacity="0.098"/><circle cx="1260.0" cy="-220.0" r="317.2" fill="none" stroke="#FFCB6B" stroke-width="1" stroke-opacity="0.103"/><circle cx="1260.0" cy="-220.0" r="345.9" fill="none" stroke="#FFCB6B" stroke-width="1" stroke-opacity="0.108"/><circle cx="1260.0" cy="-220.0" r="384.3" fill="none" stroke="#FFCB6B" stroke-width="1" stroke-opacity="0.114"/><circle cx="1260.0" cy="-220.0" r="411.3" fill="none" stroke="#FFCB6B" stroke-width="1" stroke-opacity="0.119"/><circle cx="1260.0" cy="-220.0" r="443.3" fill="none" stroke="#FFCB6B" stroke-width="1" stroke-opacity="0.124"/><circle cx="1260.0" cy="-220.0" r="479.8" fill="none" stroke="#FFCB6B" stroke-width="1" stroke-opacity="0.130"/><circle cx="1260.0" cy="-220.0" r="505.6" fill="none" stroke="#FFCB6B" stroke-width="1" stroke-opacity="0.135"/><circle cx="1260.0" cy="-220.0" r="543.0" fill="none" stroke="#FFCB6B" stroke-width="1" stroke-opacity="0.140"/><circle cx="1260.0" cy="-220.0" r="565.7" fill="none" stroke="#FFCB6B" stroke-width="1" stroke-opacity="0.110"/><circle cx="1260.0" cy="-220.0" r="597.6" fill="none" stroke="#FFCB6B" stroke-width="1" stroke-opacity="0.096"/><circle cx="1260.0" cy="-220.0" r="633.2" fill="none" stroke="#FFCB6B" stroke-width="1" stroke-opacity="0.079"/><circle cx="1260.0" cy="-220.0" r="665.2" fill="none" stroke="#FFCB6B" stroke-width="1" stroke-opacity="0.062"/><circle cx="1260.0" cy="-220.0" r="694.7" fill="none" stroke="#FFCB6B" stroke-width="1" stroke-opacity="0.046"/><circle cx="1260.0" cy="-220.0" r="730.3" fill="none" stroke="#FFCB6B" stroke-width="1" stroke-opacity="0.038"/><circle cx="1260.0" cy="-220.0" r="757.1" fill="none" stroke="#FFCB6B" stroke-width="1" stroke-opacity="0.057"/><circle cx="1260.0" cy="-220.0" r="796.8" fill="none" stroke="#FFCB6B" stroke-width="1" stroke-opacity="0.086"/><circle cx="1260.0" cy="-220.0" r="823.9" fill="none" stroke="#FFCB6B" stroke-width="1" stroke-opacity="0.107"/><circle cx="1260.0" cy="-220.0" r="857.0" fill="none" stroke="#FFCB6B" stroke-width="1" stroke-opacity="0.134"/><circle cx="1260.0" cy="-220.0" r="891.2" fill="none" stroke="#FFCB6B" stroke-width="1" stroke-opacity="0.163"/><circle cx="1260.0" cy="-220.0" r="916.5" fill="none" stroke="#FFCB6B" stroke-width="1" stroke-opacity="0.183"/><circle cx="1260.0" cy="-220.0" r="948.6" fill="none" stroke="#FFCB6B" stroke-width="1" stroke-opacity="0.200"/><circle cx="1260.0" cy="-220.0" r="980.2" fill="none" stroke="#FFCB6B" stroke-width="1" stroke-opacity="0.200"/><circle cx="1260.0" cy="-220.0" r="1016.1" fill="none" stroke="#FFCB6B" stroke-width="1" stroke-opacity="0.200"/></g></g></g><g style="mix-blend-mode:screen"><circle cx="146.0" cy="1059.2" r="1.59" fill="#3BABFF" fill-opacity="0.186"/><circle cx="186.5" cy="1211.1" r="1.93" fill="#3BABFF" fill-opacity="0.230"/><circle cx="184.3" cy="1172.0" r="2.39" fill="#3BABFF" fill-opacity="0.263"/><circle cx="189.2" cy="1315.7" r="0.75" fill="#3BABFF" fill-opacity="0.370"/><circle cx="241.3" cy="1154.7" r="1.93" fill="#3BABFF" fill-opacity="0.345"/><circle cx="115.5" cy="1153.3" r="0.85" fill="#3BABFF" fill-opacity="0.233"/><circle cx="121.5" cy="1356.0" r="1.55" fill="#3BABFF" fill-opacity="0.254"/><circle cx="73.3" cy="1129.9" r="1.47" fill="#3BABFF" fill-opacity="0.339"/><circle cx="185.4" cy="1232.6" r="0.94" fill="#3BABFF" fill-opacity="0.133"/><circle cx="206.8" cy="1248.4" r="1.61" fill="#3BABFF" fill-opacity="0.125"/><circle cx="146.5" cy="1152.3" r="2.21" fill="#3BABFF" fill-opacity="0.141"/><circle cx="14.2" cy="1014.1" r="1.96" fill="#3BABFF" fill-opacity="0.198"/><circle cx="79.4" cy="1016.7" r="2.14" fill="#3BABFF" fill-opacity="0.372"/><circle cx="213.6" cy="1297.9" r="1.89" fill="#3BABFF" fill-opacity="0.341"/><circle cx="96.1" cy="1109.9" r="1.51" fill="#3BABFF" fill-opacity="0.160"/><circle cx="51.2" cy="1362.6" r="1.67" fill="#3BABFF" fill-opacity="0.261"/><circle cx="228.0" cy="1178.7" r="0.98" fill="#3BABFF" fill-opacity="0.137"/><circle cx="11.4" cy="1118.7" r="1.30" fill="#3BABFF" fill-opacity="0.290"/><circle cx="117.2" cy="1310.4" r="2.15" fill="#3BABFF" fill-opacity="0.312"/><circle cx="145.4" cy="1200.6" r="1.24" fill="#3BABFF" fill-opacity="0.349"/><circle cx="146.4" cy="1268.8" r="1.94" fill="#3BABFF" fill-opacity="0.344"/><circle cx="201.2" cy="1274.2" r="1.49" fill="#3BABFF" fill-opacity="0.263"/><circle cx="18.6" cy="1308.7" r="2.33" fill="#3BABFF" fill-opacity="0.316"/><circle cx="315.2" cy="1250.2" r="2.26" fill="#3BABFF" fill-opacity="0.369"/><circle cx="836.4" cy="280.1" r="1.16" fill="#FFCB6B" fill-opacity="0.264"/><circle cx="904.6" cy="131.5" r="0.95" fill="#FFCB6B" fill-opacity="0.109"/><circle cx="833.3" cy="163.4" r="1.94" fill="#FFCB6B" fill-opacity="0.202"/><circle cx="919.8" cy="325.2" r="0.81" fill="#FFCB6B" fill-opacity="0.362"/><circle cx="913.8" cy="175.1" r="1.29" fill="#FFCB6B" fill-opacity="0.234"/><circle cx="873.9" cy="69.3" r="1.09" fill="#FFCB6B" fill-opacity="0.362"/><circle cx="934.4" cy="30.3" r="0.78" fill="#FFCB6B" fill-opacity="0.324"/><circle cx="938.2" cy="405.3" r="1.02" fill="#FFCB6B" fill-opacity="0.296"/><circle cx="827.4" cy="82.1" r="2.30" fill="#FFCB6B" fill-opacity="0.216"/><circle cx="838.7" cy="172.7" r="0.86" fill="#FFCB6B" fill-opacity="0.184"/><circle cx="895.4" cy="75.1" r="1.91" fill="#FFCB6B" fill-opacity="0.132"/><circle cx="776.1" cy="112.6" r="1.27" fill="#FFCB6B" fill-opacity="0.178"/><circle cx="755.4" cy="109.4" r="2.04" fill="#FFCB6B" fill-opacity="0.234"/><circle cx="981.3" cy="218.8" r="0.97" fill="#FFCB6B" fill-opacity="0.166"/><circle cx="862.9" cy="258.2" r="1.78" fill="#FFCB6B" fill-opacity="0.243"/><circle cx="936.3" cy="318.1" r="1.16" fill="#FFCB6B" fill-opacity="0.236"/><circle cx="959.2" cy="217.3" r="2.19" fill="#FFCB6B" fill-opacity="0.374"/><circle cx="834.1" cy="305.0" r="1.72" fill="#FFCB6B" fill-opacity="0.167"/><circle cx="930.9" cy="190.5" r="0.71" fill="#FFCB6B" fill-opacity="0.101"/><circle cx="890.2" cy="194.3" r="1.86" fill="#FFCB6B" fill-opacity="0.205"/><circle cx="882.3" cy="10.3" r="2.00" fill="#FFCB6B" fill-opacity="0.235"/><circle cx="888.7" cy="34.8" r="1.87" fill="#FFCB6B" fill-opacity="0.258"/><circle cx="912.8" cy="77.9" r="1.61" fill="#FFCB6B" fill-opacity="0.197"/><circle cx="846.0" cy="185.0" r="1.56" fill="#FFCB6B" fill-opacity="0.273"/></g><rect width="1080" height="1350" fill="url(#g9013_calm)"/><rect width="1080" height="1350" filter="url(#g9013_grain)"/><rect width="1080" height="1350" fill="url(#g9013_vig)"/></svg>