<svg class="bgsvg" viewBox="0 0 1080 1350" preserveAspectRatio="xMidYMid slice" xmlns="http://www.w3.org/2000/svg"><rect width="1080" height="1350" fill="#0A0B10"/><defs>
  <radialGradient id="glowTL_g9017" cx="6%" cy="4%" r="78%"><stop offset="0%" stop-color="rgba(247,176,65,0.56)"/><stop offset="32%" stop-color="rgba(247,176,65,0.18)"/><stop offset="72%" stop-color="rgba(247,176,65,0)"/></radialGradient>
  <radialGradient id="glowBR_g9017" cx="97%" cy="98%" r="58%"><stop offset="0%" stop-color="rgba(11,134,209,0.43)"/><stop offset="40%" stop-color="rgba(11,134,209,0.13)"/><stop offset="78%" stop-color="rgba(11,134,209,0)"/></radialGradient>
  <radialGradient id="center_g9017" cx="50%" cy="48%" r="66%"><stop offset="0%" stop-color="rgba(11,134,209,0.16)"/><stop offset="62%" stop-color="rgba(247,176,65,0.04)"/><stop offset="100%" stop-color="rgba(0,0,0,0)"/></radialGradient>
  <linearGradient id="diag_g9017" x1="0" y1="0" x2="1" y2="1"><stop offset="0%" stop-color="#F7B041"/><stop offset="100%" stop-color="#0B86D1"/></linearGradient>
  <filter id="soft_g9017"><feGaussianBlur stdDeviation="24"/></filter>
  <filter id="blur_g9017"><feGaussianBlur stdDeviation="54"/></filter>
  <pattern id="tinygrid_g9017" width="54" height="54" patternUnits="userSpaceOnUse"><path d="M54 0H0V54" fill="none" stroke="rgba(255,255,255,.06)" stroke-width="1"/></pattern>
  <pattern id="dots_g9017" width="34" height="34" patternUnits="userSpaceOnUse"><circle cx="2" cy="2" r="1.6" fill="#F7B041" opacity=".26"/></pattern>
</defs><rect width="1080" height="1350" fill="#0A0B10"/><rect width="1080" height="1350" fill="url(#glowBR_g9017)"/><line x1="284" y1="388" x2="520" y2="725" stroke="#0B86D1" stroke-width="1.5" opacity="0.23"/><circle cx="520" cy="725" r="3" fill="#0B86D1" opacity="0.6"/><line x1="368" y1="261" x2="465" y2="400" stroke="#F7B041" stroke-width="1.5" opacity="0.13"/><circle cx="465" cy="400" r="3" fill="#F7B041" opacity="0.6"/><line x1="243" y1="1041" x2="348" y2="1191" stroke="#F7B041" stroke-width="1.5" opacity="0.21"/><circle cx="348" cy="1191" r="3" fill="#F7B041" opacity="0.6"/><line x1="927" y1="595" x2="1167" y2="939" stroke="#0B86D1" stroke-width="1.5" opacity="0.22"/><circle cx="1167" cy="939" r="3" fill="#0B86D1" opacity="0.6"/><line x1="1017" y1="1318" x2="1205" y2="1587" stroke="#F7B041" stroke-width="1.5" opacity="0.23"/><circle cx="1205" cy="1587" r="3" fill="#F7B041" opacity="0.6"/><line x1="334" y1="471" x2="520" y2="737" stroke="#F7B041" stroke-width="1.5" opacity="0.11"/><circle cx="520" cy="737" r="3" fill="#F7B041" opacity="0.6"/><line x1="69" y1="365" x2="185" y2="531" stroke="#0B86D1" stroke-width="1.5" opacity="0.15"/><circle cx="185" cy="531" r="3" fill="#0B86D1" opacity="0.6"/><line x1="106" y1="796" x2="292" y2="1061" stroke="#F7B041" stroke-width="1.5" opacity="0.10"/><circle cx="292" cy="1061" r="3" fill="#F7B041" opacity="0.6"/><line x1="969" y1="567" x2="1080" y2="725" stroke="#F7B041" stroke-width="1.5" opacity="0.13"/><circle cx="1080" cy="725" r="3" fill="#F7B041" opacity="0.6"/><line x1="508" y1="1243" x2="642" y2="1435" stroke="#0B86D1" stroke-width="1.5" opacity="0.13"/><circle cx="642" cy="1435" r="3" fill="#0B86D1" opacity="0.6"/><line x1="972" y1="1049" x2="1138" y2="1285" stroke="#F7B041" stroke-width="1.5" opacity="0.24"/><circle cx="1138" cy="1285" r="3" fill="#F7B041" opacity="0.6"/><line x1="525" y1="1280" x2="611" y2="1403" stroke="#F7B041" stroke-width="1.5" opacity="0.17"/><circle cx="611" cy="1403" r="3" fill="#F7B041" opacity="0.6"/><line x1="460" y1="1329" x2="625" y2="1564" stroke="#0B86D1" stroke-width="1.5" opacity="0.24"/><circle cx="625" cy="1564" r="3" fill="#0B86D1" opacity="0.6"/><line x1="138" y1="303" x2="386" y2="658" stroke="#F7B041" stroke-width="1.5" opacity="0.23"/><circle cx="386" cy="658" r="3" fill="#F7B041" opacity="0.6"/><line x1="426" y1="757" x2="580" y2="976" stroke="#F7B041" stroke-width="1.5" opacity="0.20"/><circle cx="580" cy="976" r="3" fill="#F7B041" opacity="0.6"/><line x1="927" y1="1252" x2="1184" y2="1620" stroke="#0B86D1" stroke-width="1.5" opacity="0.12"/><circle cx="1184" cy="1620" r="3" fill="#0B86D1" opacity="0.6"/><g stroke="#FFFFFF" stroke-width="1" opacity="0.035"><line x1="216" y1="0" x2="216" y2="1350"/><line x1="432" y1="0" x2="432" y2="1350"/><line x1="648" y1="0" x2="648" y2="1350"/><line x1="864" y1="0" x2="864" y2="1350"/><line x1="0" y1="225" x2="1080" y2="225"/><line x1="0" y1="450" x2="1080" y2="450"/><line x1="0" y1="675" x2="1080" y2="675"/><line x1="0" y1="900" x2="1080" y2="900"/><line x1="0" y1="1125" x2="1080" y2="1125"/></g></svg>