<svg class="bgsvg" viewBox="0 0 1080 1350" preserveAspectRatio="xMidYMid slice" xmlns="http://www.w3.org/2000/svg"><rect width="1080" height="1350" fill="#0A0B10"/><defs>
  <radialGradient id="glowTL_g9016" cx="6%" cy="4%" r="78%"><stop offset="0%" stop-color="rgba(247,176,65,0.56)"/><stop offset="32%" stop-color="rgba(247,176,65,0.18)"/><stop offset="72%" stop-color="rgba(247,176,65,0)"/></radialGradient>
  <radialGradient id="glowBR_g9016" cx="97%" cy="98%" r="58%"><stop offset="0%" stop-color="rgba(11,134,209,0.43)"/><stop offset="40%" stop-color="rgba(11,134,209,0.13)"/><stop offset="78%" stop-color="rgba(11,134,209,0)"/></radialGradient>
  <radialGradient id="center_g9016" cx="50%" cy="48%" r="66%"><stop offset="0%" stop-color="rgba(11,134,209,0.16)"/><stop offset="62%" stop-color="rgba(247,176,65,0.04)"/><stop offset="100%" stop-color="rgba(0,0,0,0)"/></radialGradient>
  <linearGradient id="diag_g9016" x1="0" y1="0" x2="1" y2="1"><stop offset="0%" stop-color="#F7B041"/><stop offset="100%" stop-color="#0B86D1"/></linearGradient>
  <filter id="soft_g9016"><feGaussianBlur stdDeviation="24"/></filter>
  <filter id="blur_g9016"><feGaussianBlur stdDeviation="54"/></filter>
  <pattern id="tinygrid_g9016" width="54" height="54" patternUnits="userSpaceOnUse"><path d="M54 0H0V54" fill="none" stroke="rgba(255,255,255,.06)" stroke-width="1"/></pattern>
  <pattern id="dots_g9016" width="34" height="34" patternUnits="userSpaceOnUse"><circle cx="2" cy="2" r="1.6" fill="#F7B041" opacity=".26"/></pattern>
</defs><rect width="1080" height="1350" fill="#0A0B10"/><g><rect x="3" y="3" width="114" height="106.5" fill="#0B86D1" opacity="0.041"/><rect x="123" y="3" width="114" height="106.5" fill="#0B86D1" opacity="0.086"/><rect x="243" y="3" width="114" height="106.5" fill="#0B86D1" opacity="0.033"/><rect x="363" y="3" width="114" height="106.5" fill="#0B86D1" opacity="0.088"/><rect x="483" y="3" width="114" height="106.5" fill="#0B86D1" opacity="0.040"/><rect x="603" y="3" width="114" height="106.5" fill="#0B86D1" opacity="0.039"/><rect x="723" y="3" width="114" height="106.5" fill="#F7B041" opacity="0.094"/><rect x="843" y="3" width="114" height="106.5" fill="#0B86D1" opacity="0.025"/><rect x="963" y="3" width="114" height="106.5" fill="#0B86D1" opacity="0.063"/><rect x="3" y="115.5" width="114" height="106.5" fill="#0B86D1" opacity="0.006"/><rect x="123" y="115.5" width="114" height="106.5" fill="#F7B041" opacity="0.140"/><rect x="243" y="115.5" width="114" height="106.5" fill="#0B86D1" opacity="0.045"/><rect x="363" y="115.5" width="114" height="106.5" fill="#0B86D1" opacity="0.077"/><rect x="483" y="115.5" width="114" height="106.5" fill="#0B86D1" opacity="0.036"/><rect x="603" y="115.5" width="114" height="106.5" fill="#0B86D1" opacity="0.078"/><rect x="723" y="115.5" width="114" height="106.5" fill="#0B86D1" opacity="0.082"/><rect x="843" y="115.5" width="114" height="106.5" fill="#0B86D1" opacity="0.005"/><rect x="963" y="115.5" width="114" height="106.5" fill="#0B86D1" opacity="0.014"/><rect x="3" y="228" width="114" height="106.5" fill="#0B86D1" opacity="0.020"/><rect x="123" y="228" width="114" height="106.5" fill="#F7B041" opacity="0.161"/><rect x="243" y="228" width="114" height="106.5" fill="#0B86D1" opacity="0.037"/><rect x="363" y="228" width="114" height="106.5" fill="#0B86D1" opacity="0.003"/><rect x="483" y="228" width="114" height="106.5" fill="#0B86D1" opacity="0.073"/><rect x="603" y="228" width="114" height="106.5" fill="#0B86D1" opacity="0.059"/><rect x="723" y="228" width="114" height="106.5" fill="#0B86D1" opacity="0.022"/><rect x="843" y="228" width="114" height="106.5" fill="#0B86D1" opacity="0.039"/><rect x="963" y="228" width="114" height="106.5" fill="#0B86D1" opacity="0.022"/><rect x="3" y="340.5" width="114" height="106.5" fill="#0B86D1" opacity="0.024"/><rect x="123" y="340.5" width="114" height="106.5" fill="#0B86D1" opacity="0.003"/><rect x="243" y="340.5" width="114" height="106.5" fill="#F7B041" opacity="0.103"/><rect x="363" y="340.5" width="114" height="106.5" fill="#F7B041" opacity="0.094"/><rect x="483" y="340.5" width="114" height="106.5" fill="#0B86D1" opacity="0.063"/><rect x="603" y="340.5" width="114" height="106.5" fill="#0B86D1" opacity="0.024"/><rect x="723" y="340.5" width="114" height="106.5" fill="#0B86D1" opacity="0.052"/><rect x="843" y="340.5" width="114" height="106.5" fill="#0B86D1" opacity="0.072"/><rect x="963" y="340.5" width="114" height="106.5" fill="#0B86D1" opacity="0.039"/><rect x="3" y="453" width="114" height="106.5" fill="#0B86D1" opacity="0.020"/><rect x="123" y="453" width="114" height="106.5" fill="#F7B041" opacity="0.121"/><rect x="243" y="453" width="114" height="106.5" fill="#0B86D1" opacity="0.040"/><rect x="363" y="453" width="114" height="106.5" fill="#F7B041" opacity="0.116"/><rect x="483" y="453" width="114" height="106.5" fill="#0B86D1" opacity="0.035"/><rect x="603" y="453" width="114" height="106.5" fill="#0B86D1" opacity="0.031"/><rect x="723" y="453" width="114" height="106.5" fill="#0B86D1" opacity="0.019"/><rect x="843" y="453" width="114" height="106.5" fill="#0B86D1" opacity="0.036"/><rect x="963" y="453" width="114" height="106.5" fill="#0B86D1" opacity="0.007"/><rect x="3" y="565.5" width="114" height="106.5" fill="#F7B041" opacity="0.105"/><rect x="123" y="565.5" width="114" height="106.5" fill="#F7B041" opacity="0.097"/><rect x="243" y="565.5" width="114" height="106.5" fill="#0B86D1" opacity="0.089"/><rect x="363" y="565.5" width="114" height="106.5" fill="#F7B041" opacity="0.094"/><rect x="483" y="565.5" width="114" height="106.5" fill="#0B86D1" opacity="0.017"/><rect x="603" y="565.5" width="114" height="106.5" fill="#0B86D1" opacity="0.055"/><rect x="723" y="565.5" width="114" height="106.5" fill="#0B86D1" opacity="0.022"/><rect x="843" y="565.5" width="114" height="106.5" fill="#0B86D1" opacity="0.025"/><rect x="963" y="565.5" width="114" height="106.5" fill="#0B86D1" opacity="0.026"/><rect x="3" y="678" width="114" height="106.5" fill="#0B86D1" opacity="0.079"/><rect x="123" y="678" width="114" height="106.5" fill="#0B86D1" opacity="0.046"/><rect x="243" y="678" width="114" height="106.5" fill="#0B86D1" opacity="0.054"/><rect x="363" y="678" width="114" height="106.5" fill="#0B86D1" opacity="0.049"/><rect x="483" y="678" width="114" height="106.5" fill="#0B86D1" opacity="0.046"/><rect x="603" y="678" width="114" height="106.5" fill="#0B86D1" opacity="0.013"/><rect x="723" y="678" width="114" height="106.5" fill="#0B86D1" opacity="0.006"/><rect x="843" y="678" width="114" height="106.5" fill="#0B86D1" opacity="0.009"/><rect x="963" y="678" width="114" height="106.5" fill="#0B86D1" opacity="0.043"/><rect x="3" y="790.5" width="114" height="106.5" fill="#0B86D1" opacity="0.087"/><rect x="123" y="790.5" width="114" height="106.5" fill="#0B86D1" opacity="0.005"/><rect x="243" y="790.5" width="114" height="106.5" fill="#0B86D1" opacity="0.053"/><rect x="363" y="790.5" width="114" height="106.5" fill="#0B86D1" opacity="0.030"/><rect x="483" y="790.5" width="114" height="106.5" fill="#0B86D1" opacity="0.059"/><rect x="603" y="790.5" width="114" height="106.5" fill="#0B86D1" opacity="0.028"/><rect x="723" y="790.5" width="114" height="106.5" fill="#0B86D1" opacity="0.023"/><rect x="843" y="790.5" width="114" height="106.5" fill="#0B86D1" opacity="0.013"/><rect x="963" y="790.5" width="114" height="106.5" fill="#0B86D1" opacity="0.019"/><rect x="3" y="903" width="114" height="106.5" fill="#0B86D1" opacity="0.076"/><rect x="123" y="903" width="114" height="106.5" fill="#0B86D1" opacity="0.055"/><rect x="243" y="903" width="114" height="106.5" fill="#0B86D1" opacity="0.008"/><rect x="363" y="903" width="114" height="106.5" fill="#0B86D1" opacity="0.013"/><rect x="483" y="903" width="114" height="106.5" fill="#0B86D1" opacity="0.058"/><rect x="603" y="903" width="114" height="106.5" fill="#0B86D1" opacity="0.062"/><rect x="723" y="903" width="114" height="106.5" fill="#0B86D1" opacity="0.034"/><rect x="843" y="903" width="114" height="106.5" fill="#0B86D1" opacity="0.028"/><rect x="963" y="903" width="114" height="106.5" fill="#0B86D1" opacity="0.033"/><rect x="3" y="1015.5" width="114" height="106.5" fill="#0B86D1" opacity="0.054"/><rect x="123" y="1015.5" width="114" height="106.5" fill="#0B86D1" opacity="0.030"/><rect x="243" y="1015.5" width="114" height="106.5" fill="#0B86D1" opacity="0.015"/><rect x="363" y="1015.5" width="114" height="106.5" fill="#0B86D1" opacity="0.020"/><rect x="483" y="1015.5" width="114" height="106.5" fill="#0B86D1" opacity="0.020"/><rect x="603" y="1015.5" width="114" height="106.5" fill="#0B86D1" opacity="0.015"/><rect x="723" y="1015.5" width="114" height="106.5" fill="#0B86D1" opacity="0.030"/><rect x="843" y="1015.5" width="114" height="106.5" fill="#0B86D1" opacity="0.005"/><rect x="963" y="1015.5" width="114" height="106.5" fill="#0B86D1" opacity="0.013"/><rect x="3" y="1128" width="114" height="106.5" fill="#0B86D1" opacity="0.023"/><rect x="123" y="1128" width="114" height="106.5" fill="#0B86D1" opacity="0.046"/><rect x="243" y="1128" width="114" height="106.5" fill="#0B86D1" opacity="0.037"/><rect x="363" y="1128" width="114" height="106.5" fill="#0B86D1" opacity="0.026"/><rect x="483" y="1128" width="114" height="106.5" fill="#0B86D1" opacity="0.005"/><rect x="603" y="1128" width="114" height="106.5" fill="#0B86D1" opacity="0.038"/><rect x="723" y="1128" width="114" height="106.5" fill="#0B86D1" opacity="0.001"/><rect x="843" y="1128" width="114" height="106.5" fill="#0B86D1" opacity="0.001"/><rect x="963" y="1128" width="114" height="106.5" fill="#0B86D1" opacity="0.012"/><rect x="3" y="1240.5" width="114" height="106.5" fill="#0B86D1" opacity="0.029"/><rect x="123" y="1240.5" width="114" height="106.5" fill="#0B86D1" opacity="0.019"/><rect x="243" y="1240.5" width="114" height="106.5" fill="#0B86D1" opacity="0.032"/><rect x="363" y="1240.5" width="114" height="106.5" fill="#0B86D1" opacity="0.024"/><rect x="483" y="1240.5" width="114" height="106.5" fill="#0B86D1" opacity="0.012"/><rect x="603" y="1240.5" width="114" height="106.5" fill="#0B86D1" opacity="0.022"/><rect x="723" y="1240.5" width="114" height="106.5" fill="#0B86D1" opacity="0.013"/><rect x="843" y="1240.5" width="114" height="106.5" fill="#0B86D1" opacity="0.004"/><rect x="963" y="1240.5" width="114" height="106.5" fill="#0B86D1" opacity="0.002"/></g><g stroke="#FFFFFF" stroke-width="1" opacity="0.04"><line x1="216" y1="0" x2="216" y2="1350"/><line x1="432" y1="0" x2="432" y2="1350"/><line x1="648" y1="0" x2="648" y2="1350"/><line x1="864" y1="0" x2="864" y2="1350"/><line x1="0" y1="225" x2="1080" y2="225"/><line x1="0" y1="450" x2="1080" y2="450"/><line x1="0" y1="675" x2="1080" y2="675"/><line x1="0" y1="900" x2="1080" y2="900"/><line x1="0" y1="1125" x2="1080" y2="1125"/></g></svg>