<svg class="bgsvg" viewBox="0 0 1080 1350" preserveAspectRatio="xMidYMid slice" xmlns="http://www.w3.org/2000/svg"><rect width="1080" height="1350" fill="#0A0B10"/><defs>
  <radialGradient id="glowTL_g9018" cx="6%" cy="4%" r="78%"><stop offset="0%" stop-color="rgba(247,176,65,0.56)"/><stop offset="32%" stop-color="rgba(247,176,65,0.18)"/><stop offset="72%" stop-color="rgba(247,176,65,0)"/></radialGradient>
  <radialGradient id="glowBR_g9018" cx="97%" cy="98%" r="58%"><stop offset="0%" stop-color="rgba(11,134,209,0.43)"/><stop offset="40%" stop-color="rgba(11,134,209,0.13)"/><stop offset="78%" stop-color="rgba(11,134,209,0)"/></radialGradient>
  <radialGradient id="center_g9018" cx="50%" cy="48%" r="66%"><stop offset="0%" stop-color="rgba(11,134,209,0.16)"/><stop offset="62%" stop-color="rgba(247,176,65,0.04)"/><stop offset="100%" stop-color="rgba(0,0,0,0)"/></radialGradient>
  <linearGradient id="diag_g9018" x1="0" y1="0" x2="1" y2="1"><stop offset="0%" stop-color="#F7B041"/><stop offset="100%" stop-color="#0B86D1"/></linearGradient>
  <filter id="soft_g9018"><feGaussianBlur stdDeviation="24"/></filter>
  <filter id="blur_g9018"><feGaussianBlur stdDeviation="54"/></filter>
  <pattern id="tinygrid_g9018" width="54" height="54" patternUnits="userSpaceOnUse"><path d="M54 0H0V54" fill="none" stroke="rgba(255,255,255,.06)" stroke-width="1"/></pattern>
  <pattern id="dots_g9018" width="34" height="34" patternUnits="userSpaceOnUse"><circle cx="2" cy="2" r="1.6" fill="#F7B041" opacity=".26"/></pattern>
</defs><rect width="1080" height="1350" fill="#0A0B10"/><rect width="1080" height="1350" fill="url(#glowTL_g9018)"/><g fill="none" stroke-width="1.6"><path d="M0 200 L0 222.0 L20 228.1 L40 233.1 L60 236.9 L80 239.7 L100 241.4 L120 242.3 L140 242.4 L160 242.1 L180 241.3 L200 240.4 L220 239.5 L240 238.8 L260 238.2 L280 238.0 L300 238.1 L320 238.6 L340 239.3 L360 240.2 L380 241.1 L400 241.9 L420 242.4 L440 242.4 L460 241.7 L480 240.2 L500 237.8 L520 234.3 L540 229.6 L560 223.8 L580 216.9 L600 209.0 L620 200.2 L640 190.7 L660 180.9 L680 170.8 L700 160.9 L720 151.4 L740 142.6 L760 134.8 L780 128.3 L800 123.2 L820 119.8 L840 118.2 L860 118.3 L880 120.3 L900 124.0 L920 129.3 L940 136.1 L960 144.1 L980 153.0 L1000 162.6 L1020 172.6 L1040 182.6 L1060 192.5 L1080 201.8" stroke="#0B86D1" opacity="0.160"/><path d="M0 300 L0 372.5 L20 375.2 L40 376.3 L60 375.6 L80 373.4 L100 369.8 L120 364.9 L140 359.1 L160 352.5 L180 345.4 L200 338.1 L220 330.8 L240 323.8 L260 317.2 L280 311.2 L300 305.8 L320 301.2 L340 297.3 L360 294.1 L380 291.5 L400 289.3 L420 287.6 L440 286.0 L460 284.4 L480 282.7 L500 280.8 L520 278.5 L540 275.7 L560 272.5 L580 268.8 L600 264.7 L620 260.2 L640 255.6 L660 251.0 L680 246.6 L700 242.6 L720 239.3 L740 236.8 L760 235.4 L780 235.2 L800 236.5 L820 239.2 L840 243.4 L860 249.1 L880 256.3 L900 264.8 L920 274.4 L940 284.8 L960 295.9 L980 307.3 L1000 318.7 L1020 329.7 L1040 340.2 L1060 349.7 L1080 358.0" stroke="#F7B041" opacity="0.152"/><path d="M0 400 L0 476.6 L20 472.9 L40 467.6 L60 460.7 L80 452.4 L100 442.9 L120 432.6 L140 421.7 L160 410.5 L180 399.3 L200 388.5 L220 378.3 L240 369.0 L260 360.8 L280 353.9 L300 348.3 L320 344.2 L340 341.5 L360 340.2 L380 340.2 L400 341.2 L420 343.3 L440 346.0 L460 349.3 L480 352.9 L500 356.6 L520 360.2 L540 363.6 L560 366.7 L580 369.3 L600 371.6 L620 373.5 L640 375.0 L660 376.3 L680 377.4 L700 378.6 L720 380.0 L740 381.8 L760 384.1 L780 387.0 L800 390.7 L820 395.2 L840 400.5 L860 406.7 L880 413.5 L900 421.0 L920 428.8 L940 436.9 L960 444.9 L980 452.7 L1000 459.9 L1020 466.2 L1040 471.5 L1060 475.5 L1080 477.9" stroke="#F7B041" opacity="0.144"/><path d="M0 500 L0 530.5 L20 523.3 L40 515.0 L60 505.9 L80 496.0 L100 485.6 L120 475.1 L140 464.7 L160 454.7 L180 445.4 L200 437.2 L220 430.2 L240 424.7 L260 420.8 L280 418.7 L300 418.5 L320 420.0 L340 423.2 L360 428.1 L380 434.3 L400 441.8 L420 450.2 L440 459.2 L460 468.6 L480 478.1 L500 487.4 L520 496.2 L540 504.4 L560 511.7 L580 518.1 L600 523.4 L620 527.7 L640 531.0 L660 533.4 L680 534.9 L700 535.8 L720 536.2 L740 536.3 L760 536.2 L780 536.1 L800 536.1 L820 536.4 L840 537.0 L860 538.0 L880 539.3 L900 540.9 L920 542.7 L940 544.5 L960 546.1 L980 547.5 L1000 548.4 L1020 548.5 L1040 547.9 L1060 546.1 L1080 543.3" stroke="#0B86D1" opacity="0.136"/><path d="M0 600 L0 576.6 L20 572.0 L40 566.9 L60 561.5 L80 556.0 L100 550.5 L120 545.2 L140 540.5 L160 536.4 L180 533.3 L200 531.4 L220 530.8 L240 531.6 L260 534.1 L280 538.1 L300 543.7 L320 550.8 L340 559.3 L360 568.9 L380 579.4 L400 590.5 L420 602.0 L440 613.5 L460 624.7 L480 635.2 L500 644.9 L520 653.4 L540 660.5 L560 666.2 L580 670.1 L600 672.5 L620 673.1 L640 672.2 L660 669.9 L680 666.3 L700 661.6 L720 656.2 L740 650.1 L760 643.7 L780 637.3 L800 630.9 L820 624.9 L840 619.3 L860 614.4 L880 610.0 L900 606.3 L920 603.1 L940 600.6 L960 598.4 L980 596.5 L1000 594.7 L1020 592.9 L1040 590.9 L1060 588.6 L1080 585.9" stroke="#F7B041" opacity="0.128"/><path d="M0 700 L0 664.5 L20 666.2 L40 667.5 L60 668.5 L80 669.2 L100 669.9 L120 670.5 L140 671.3 L160 672.4 L180 674.1 L200 676.4 L220 679.5 L240 683.4 L260 688.3 L280 694.2 L300 700.9 L320 708.3 L340 716.5 L360 725.0 L380 733.8 L400 742.6 L420 751.0 L440 758.9 L460 765.9 L480 771.8 L500 776.3 L520 779.2 L540 780.5 L560 780.0 L580 777.7 L600 773.6 L620 767.9 L640 760.7 L660 752.2 L680 742.6 L700 732.3 L720 721.5 L740 710.6 L760 699.8 L780 689.5 L800 679.9 L820 671.2 L840 663.7 L860 657.4 L880 652.5 L900 648.9 L920 646.6 L940 645.5 L960 645.6 L980 646.5 L1000 648.3 L1020 650.5 L1040 653.1 L1060 655.8 L1080 658.6" stroke="#F7B041" opacity="0.120"/><path d="M0 800 L0 805.2 L20 811.2 L40 816.2 L60 820.3 L80 823.5 L100 825.9 L120 827.6 L140 828.8 L160 829.6 L180 830.3 L200 830.9 L220 831.6 L240 832.5 L260 833.7 L280 835.4 L300 837.4 L320 839.7 L340 842.3 L360 845.0 L380 847.7 L400 850.2 L420 852.2 L440 853.7 L460 854.4 L480 854.1 L500 852.6 L520 849.9 L540 845.9 L560 840.5 L580 833.8 L600 825.9 L620 816.9 L640 807.1 L660 796.6 L680 785.7 L700 774.8 L720 764.2 L740 754.1 L760 744.8 L780 736.7 L800 730.0 L820 724.8 L840 721.3 L860 719.6 L880 719.7 L900 721.5 L920 725.0 L940 730.0 L960 736.3 L980 743.6 L1000 751.7 L1020 760.3 L1040 769.1 L1060 777.9 L1080 786.4" stroke="#0B86D1" opacity="0.112"/><path d="M0 900 L0 961.4 L20 965.7 L40 968.3 L60 969.3 L80 968.9 L100 967.1 L120 964.1 L140 960.2 L160 955.4 L180 950.2 L200 944.7 L220 939.1 L240 933.7 L260 928.5 L280 923.8 L300 919.7 L320 916.0 L340 912.9 L360 910.3 L380 908.2 L400 906.2 L420 904.5 L440 902.7 L460 900.7 L480 898.4 L500 895.7 L520 892.4 L540 888.5 L560 883.9 L580 878.8 L600 873.1 L620 867.0 L640 860.6 L660 854.2 L680 847.9 L700 842.0 L720 836.8 L740 832.5 L760 829.3 L780 827.4 L800 827.0 L820 828.2 L840 831.1 L860 835.6 L880 841.7 L900 849.3 L920 858.3 L940 868.2 L960 879.0 L980 890.4 L1000 901.9 L1020 913.3 L1040 924.3 L1060 934.5 L1080 943.8" stroke="#F7B041" opacity="0.104"/><path d="M0 1000 L0 1081.4 L20 1079.5 L40 1075.8 L60 1070.5 L80 1063.7 L100 1055.6 L120 1046.4 L140 1036.5 L160 1026.1 L180 1015.6 L200 1005.2 L220 995.2 L240 985.9 L260 977.5 L280 970.2 L300 964.0 L320 959.1 L340 955.4 L360 953.0 L380 951.6 L400 951.2 L420 951.7 L440 952.7 L460 954.3 L480 956.0 L500 957.8 L520 959.6 L540 961.1 L560 962.4 L580 963.2 L600 963.8 L620 964.0 L640 964.0 L660 964.0 L680 963.9 L700 964.1 L720 964.6 L740 965.7 L760 967.5 L780 970.2 L800 973.8 L820 978.4 L840 984.1 L860 990.8 L880 998.4 L900 1006.8 L920 1015.7 L940 1025.1 L960 1034.5 L980 1043.8 L1000 1052.7 L1020 1060.8 L1040 1067.9 L1060 1073.7 L1080 1078.0" stroke="#F7B041" opacity="0.096"/><path d="M0 1100 L0 1146.7 L20 1140.0 L40 1131.9 L60 1122.8 L80 1112.7 L100 1101.9 L120 1090.8 L140 1079.6 L160 1068.6 L180 1058.2 L200 1048.6 L220 1040.2 L240 1033.1 L260 1027.6 L280 1023.7 L300 1021.6 L320 1021.3 L340 1022.6 L360 1025.6 L380 1030.0 L400 1035.7 L420 1042.4 L440 1049.8 L460 1057.7 L480 1065.8 L500 1073.9 L520 1081.6 L540 1088.9 L560 1095.6 L580 1101.5 L600 1106.5 L620 1110.8 L640 1114.2 L660 1117.0 L680 1119.1 L700 1120.7 L720 1122.0 L740 1123.2 L760 1124.3 L780 1125.7 L800 1127.3 L820 1129.2 L840 1131.6 L860 1134.4 L880 1137.5 L900 1141.0 L920 1144.6 L940 1148.3 L960 1151.7 L980 1154.8 L1000 1157.4 L1020 1159.1 L1040 1159.8 L1060 1159.3 L1080 1157.6" stroke="#0B86D1" opacity="0.088"/><path d="M0 1200 L0 1189.4 L20 1183.4 L40 1176.9 L60 1170.0 L80 1162.8 L100 1155.5 L120 1148.4 L140 1141.8 L160 1135.8 L180 1130.8 L200 1127.1 L220 1124.7 L240 1123.8 L260 1124.6 L280 1127.2 L300 1131.4 L320 1137.3 L340 1144.7 L360 1153.4 L380 1163.3 L400 1173.9 L420 1185.1 L440 1196.6 L460 1207.9 L480 1218.8 L500 1229.0 L520 1238.3 L540 1246.3 L560 1253.1 L580 1258.3 L600 1262.0 L620 1264.3 L640 1265.0 L660 1264.4 L680 1262.6 L700 1259.8 L720 1256.2 L740 1252.1 L760 1247.5 L780 1242.9 L800 1238.3 L820 1233.9 L840 1229.9 L860 1226.3 L880 1223.2 L900 1220.6 L920 1218.4 L940 1216.5 L960 1214.8 L980 1213.3 L1000 1211.6 L1020 1209.8 L1040 1207.5 L1060 1204.7 L1080 1201.3" stroke="#F7B041" opacity="0.080"/><path d="M0 1300 L0 1262.0 L20 1261.9 L40 1261.4 L60 1260.7 L80 1259.8 L100 1258.9 L120 1258.2 L140 1257.8 L160 1257.9 L180 1258.7 L200 1260.3 L220 1262.9 L240 1266.6 L260 1271.4 L280 1277.4 L300 1284.4 L320 1292.4 L340 1301.3 L360 1310.8 L380 1320.7 L400 1330.8 L420 1340.6 L440 1350.0 L460 1358.7 L480 1366.3 L500 1372.6 L520 1377.4 L540 1380.6 L560 1381.9 L580 1381.5 L600 1379.3 L620 1375.3 L640 1369.7 L660 1362.7 L680 1354.6 L700 1345.5 L720 1335.8 L740 1325.8 L760 1315.8 L780 1306.0 L800 1296.7 L820 1288.2 L840 1280.6 L860 1274.0 L880 1268.6 L900 1264.3 L920 1261.1 L940 1259.0 L960 1257.8 L980 1257.4 L1000 1257.6 L1020 1258.2 L1040 1259.1 L1060 1260.0 L1080 1260.9" stroke="#F7B041" opacity="0.072"/></g></svg>