<svg class="bgsvg" viewBox="0 0 1080 1350" preserveAspectRatio="xMidYMid slice" xmlns="http://www.w3.org/2000/svg"><rect width="1080" height="1350" fill="#0A0B10"/><defs>
  <radialGradient id="glowTL_g9020" cx="6%" cy="4%" r="78%"><stop offset="0%" stop-color="rgba(247,176,65,0.56)"/><stop offset="32%" stop-color="rgba(247,176,65,0.18)"/><stop offset="72%" stop-color="rgba(247,176,65,0)"/></radialGradient>
  <radialGradient id="glowBR_g9020" cx="97%" cy="98%" r="58%"><stop offset="0%" stop-color="rgba(11,134,209,0.43)"/><stop offset="40%" stop-color="rgba(11,134,209,0.13)"/><stop offset="78%" stop-color="rgba(11,134,209,0)"/></radialGradient>
  <radialGradient id="center_g9020" cx="50%" cy="48%" r="66%"><stop offset="0%" stop-color="rgba(11,134,209,0.16)"/><stop offset="62%" stop-color="rgba(247,176,65,0.04)"/><stop offset="100%" stop-color="rgba(0,0,0,0)"/></radialGradient>
  <linearGradient id="diag_g9020" x1="0" y1="0" x2="1" y2="1"><stop offset="0%" stop-color="#F7B041"/><stop offset="100%" stop-color="#0B86D1"/></linearGradient>
  <filter id="soft_g9020"><feGaussianBlur stdDeviation="24"/></filter>
  <filter id="blur_g9020"><feGaussianBlur stdDeviation="54"/></filter>
  <pattern id="tinygrid_g9020" width="54" height="54" patternUnits="userSpaceOnUse"><path d="M54 0H0V54" fill="none" stroke="rgba(255,255,255,.06)" stroke-width="1"/></pattern>
  <pattern id="dots_g9020" width="34" height="34" patternUnits="userSpaceOnUse"><circle cx="2" cy="2" r="1.6" fill="#F7B041" opacity=".26"/></pattern>
</defs><rect width="1080" height="1350" fill="#0A0B10"/><g><rect x="76" y="4" width="64" height="64" fill="#0B86D1" opacity="0.102" rx="3"/><rect x="148" y="4" width="64" height="64" fill="#F7B041" opacity="0.033" rx="3"/><rect x="220" y="4" width="64" height="64" fill="#F7B041" opacity="0.041" rx="3"/><rect x="292" y="4" width="64" height="64" fill="#0B86D1" opacity="0.157" rx="3"/><rect x="364" y="4" width="64" height="64" fill="#0B86D1" opacity="0.129" rx="3"/><rect x="436" y="4" width="64" height="64" fill="#0B86D1" opacity="0.155" rx="3"/><rect x="508" y="4" width="64" height="64" fill="#F7B041" opacity="0.158" rx="3"/><rect x="580" y="4" width="64" height="64" fill="#0B86D1" opacity="0.086" rx="3"/><rect x="652" y="4" width="64" height="64" fill="#0B86D1" opacity="0.135" rx="3"/><rect x="724" y="4" width="64" height="64" fill="#F7B041" opacity="0.009" rx="3"/><rect x="796" y="4" width="64" height="64" fill="#0B86D1" opacity="0.015" rx="3"/><rect x="868" y="4" width="64" height="64" fill="#0B86D1" opacity="0.006" rx="3"/><rect x="940" y="4" width="64" height="64" fill="#0B86D1" opacity="0.010" rx="3"/><rect x="1012" y="4" width="64" height="64" fill="#0B86D1" opacity="0.052" rx="3"/><rect x="4" y="76" width="64" height="64" fill="#0B86D1" opacity="0.157" rx="3"/><rect x="76" y="76" width="64" height="64" fill="#F7B041" opacity="0.103" rx="3"/><rect x="148" y="76" width="64" height="64" fill="#F7B041" opacity="0.094" rx="3"/><rect x="220" y="76" width="64" height="64" fill="#F7B041" opacity="0.012" rx="3"/><rect x="292" y="76" width="64" height="64" fill="#0B86D1" opacity="0.142" rx="3"/><rect x="436" y="76" width="64" height="64" fill="#F7B041" opacity="0.132" rx="3"/><rect x="580" y="76" width="64" height="64" fill="#F7B041" opacity="0.133" rx="3"/><rect x="652" y="76" width="64" height="64" fill="#0B86D1" opacity="0.017" rx="3"/><rect x="724" y="76" width="64" height="64" fill="#0B86D1" opacity="0.081" rx="3"/><rect x="796" y="76" width="64" height="64" fill="#0B86D1" opacity="0.116" rx="3"/><rect x="868" y="76" width="64" height="64" fill="#F7B041" opacity="0.050" rx="3"/><rect x="940" y="76" width="64" height="64" fill="#F7B041" opacity="0.036" rx="3"/><rect x="1012" y="76" width="64" height="64" fill="#F7B041" opacity="0.008" rx="3"/><rect x="4" y="148" width="64" height="64" fill="#F7B041" opacity="0.021" rx="3"/><rect x="76" y="148" width="64" height="64" fill="#F7B041" opacity="0.041" rx="3"/><rect x="148" y="148" width="64" height="64" fill="#F7B041" opacity="0.016" rx="3"/><rect x="220" y="148" width="64" height="64" fill="#F7B041" opacity="0.126" rx="3"/><rect x="292" y="148" width="64" height="64" fill="#F7B041" opacity="0.072" rx="3"/><rect x="436" y="148" width="64" height="64" fill="#0B86D1" opacity="0.091" rx="3"/><rect x="508" y="148" width="64" height="64" fill="#0B86D1" opacity="0.050" rx="3"/><rect x="580" y="148" width="64" height="64" fill="#F7B041" opacity="0.049" rx="3"/><rect x="652" y="148" width="64" height="64" fill="#F7B041" opacity="0.079" rx="3"/><rect x="724" y="148" width="64" height="64" fill="#F7B041" opacity="0.048" rx="3"/><rect x="796" y="148" width="64" height="64" fill="#F7B041" opacity="0.024" rx="3"/><rect x="4" y="220" width="64" height="64" fill="#F7B041" opacity="0.048" rx="3"/><rect x="76" y="220" width="64" height="64" fill="#F7B041" opacity="0.109" rx="3"/><rect x="148" y="220" width="64" height="64" fill="#F7B041" opacity="0.025" rx="3"/><rect x="220" y="220" width="64" height="64" fill="#F7B041" opacity="0.157" rx="3"/><rect x="292" y="220" width="64" height="64" fill="#0B86D1" opacity="0.034" rx="3"/><rect x="364" y="220" width="64" height="64" fill="#0B86D1" opacity="0.007" rx="3"/><rect x="436" y="220" width="64" height="64" fill="#F7B041" opacity="0.067" rx="3"/><rect x="508" y="220" width="64" height="64" fill="#F7B041" opacity="0.106" rx="3"/><rect x="652" y="220" width="64" height="64" fill="#0B86D1" opacity="0.135" rx="3"/><rect x="724" y="220" width="64" height="64" fill="#F7B041" opacity="0.094" rx="3"/><rect x="796" y="220" width="64" height="64" fill="#0B86D1" opacity="0.064" rx="3"/><rect x="868" y="220" width="64" height="64" fill="#0B86D1" opacity="0.021" rx="3"/><rect x="940" y="220" width="64" height="64" fill="#F7B041" opacity="0.092" rx="3"/><rect x="1012" y="220" width="64" height="64" fill="#0B86D1" opacity="0.048" rx="3"/><rect x="4" y="292" width="64" height="64" fill="#F7B041" opacity="0.023" rx="3"/><rect x="76" y="292" width="64" height="64" fill="#0B86D1" opacity="0.126" rx="3"/><rect x="148" y="292" width="64" height="64" fill="#F7B041" opacity="0.036" rx="3"/><rect x="220" y="292" width="64" height="64" fill="#0B86D1" opacity="0.090" rx="3"/><rect x="292" y="292" width="64" height="64" fill="#0B86D1" opacity="0.022" rx="3"/><rect x="436" y="292" width="64" height="64" fill="#0B86D1" opacity="0.061" rx="3"/><rect x="508" y="292" width="64" height="64" fill="#F7B041" opacity="0.152" rx="3"/><rect x="724" y="292" width="64" height="64" fill="#0B86D1" opacity="0.068" rx="3"/><rect x="796" y="292" width="64" height="64" fill="#F7B041" opacity="0.105" rx="3"/><rect x="940" y="292" width="64" height="64" fill="#0B86D1" opacity="0.043" rx="3"/><rect x="4" y="364" width="64" height="64" fill="#0B86D1" opacity="0.025" rx="3"/><rect x="76" y="364" width="64" height="64" fill="#F7B041" opacity="0.146" rx="3"/><rect x="148" y="364" width="64" height="64" fill="#0B86D1" opacity="0.128" rx="3"/><rect x="220" y="364" width="64" height="64" fill="#F7B041" opacity="0.008" rx="3"/><rect x="292" y="364" width="64" height="64" fill="#F7B041" opacity="0.057" rx="3"/><rect x="364" y="364" width="64" height="64" fill="#F7B041" opacity="0.056" rx="3"/><rect x="436" y="364" width="64" height="64" fill="#F7B041" opacity="0.045" rx="3"/><rect x="508" y="364" width="64" height="64" fill="#F7B041" opacity="0.027" rx="3"/><rect x="580" y="364" width="64" height="64" fill="#F7B041" opacity="0.063" rx="3"/><rect x="724" y="364" width="64" height="64" fill="#F7B041" opacity="0.007" rx="3"/><rect x="796" y="364" width="64" height="64" fill="#F7B041" opacity="0.004" rx="3"/><rect x="4" y="436" width="64" height="64" fill="#0B86D1" opacity="0.114" rx="3"/><rect x="76" y="436" width="64" height="64" fill="#0B86D1" opacity="0.140" rx="3"/><rect x="148" y="436" width="64" height="64" fill="#0B86D1" opacity="0.043" rx="3"/><rect x="292" y="436" width="64" height="64" fill="#0B86D1" opacity="0.079" rx="3"/><rect x="436" y="436" width="64" height="64" fill="#F7B041" opacity="0.056" rx="3"/><rect x="508" y="436" width="64" height="64" fill="#0B86D1" opacity="0.004" rx="3"/><rect x="580" y="436" width="64" height="64" fill="#0B86D1" opacity="0.108" rx="3"/><rect x="652" y="436" width="64" height="64" fill="#0B86D1" opacity="0.107" rx="3"/><rect x="724" y="436" width="64" height="64" fill="#F7B041" opacity="0.075" rx="3"/><rect x="868" y="436" width="64" height="64" fill="#0B86D1" opacity="0.048" rx="3"/><rect x="940" y="436" width="64" height="64" fill="#0B86D1" opacity="0.083" rx="3"/><rect x="4" y="508" width="64" height="64" fill="#0B86D1" opacity="0.006" rx="3"/><rect x="76" y="508" width="64" height="64" fill="#0B86D1" opacity="0.068" rx="3"/><rect x="148" y="508" width="64" height="64" fill="#0B86D1" opacity="0.039" rx="3"/><rect x="220" y="508" width="64" height="64" fill="#F7B041" opacity="0.146" rx="3"/><rect x="292" y="508" width="64" height="64" fill="#F7B041" opacity="0.079" rx="3"/><rect x="364" y="508" width="64" height="64" fill="#0B86D1" opacity="0.040" rx="3"/><rect x="436" y="508" width="64" height="64" fill="#0B86D1" opacity="0.070" rx="3"/><rect x="508" y="508" width="64" height="64" fill="#0B86D1" opacity="0.105" rx="3"/><rect x="580" y="508" width="64" height="64" fill="#0B86D1" opacity="0.024" rx="3"/><rect x="652" y="508" width="64" height="64" fill="#0B86D1" opacity="0.011" rx="3"/><rect x="796" y="508" width="64" height="64" fill="#F7B041" opacity="0.077" rx="3"/><rect x="940" y="508" width="64" height="64" fill="#0B86D1" opacity="0.069" rx="3"/><rect x="1012" y="508" width="64" height="64" fill="#F7B041" opacity="0.069" rx="3"/><rect x="4" y="580" width="64" height="64" fill="#F7B041" opacity="0.146" rx="3"/><rect x="76" y="580" width="64" height="64" fill="#0B86D1" opacity="0.075" rx="3"/><rect x="148" y="580" width="64" height="64" fill="#0B86D1" opacity="0.052" rx="3"/><rect x="220" y="580" width="64" height="64" fill="#0B86D1" opacity="0.037" rx="3"/><rect x="508" y="580" width="64" height="64" fill="#0B86D1" opacity="0.008" rx="3"/><rect x="580" y="580" width="64" height="64" fill="#0B86D1" opacity="0.018" rx="3"/><rect x="652" y="580" width="64" height="64" fill="#F7B041" opacity="0.067" rx="3"/><rect x="940" y="580" width="64" height="64" fill="#0B86D1" opacity="0.040" rx="3"/><rect x="1012" y="580" width="64" height="64" fill="#F7B041" opacity="0.023" rx="3"/><rect x="4" y="652" width="64" height="64" fill="#0B86D1" opacity="0.087" rx="3"/><rect x="148" y="652" width="64" height="64" fill="#F7B041" opacity="0.064" rx="3"/><rect x="220" y="652" width="64" height="64" fill="#F7B041" opacity="0.079" rx="3"/><rect x="292" y="652" width="64" height="64" fill="#F7B041" opacity="0.131" rx="3"/><rect x="364" y="652" width="64" height="64" fill="#F7B041" opacity="0.033" rx="3"/><rect x="436" y="652" width="64" height="64" fill="#0B86D1" opacity="0.047" rx="3"/><rect x="580" y="652" width="64" height="64" fill="#0B86D1" opacity="0.005" rx="3"/><rect x="940" y="652" width="64" height="64" fill="#0B86D1" opacity="0.067" rx="3"/><rect x="148" y="724" width="64" height="64" fill="#0B86D1" opacity="0.088" rx="3"/><rect x="220" y="724" width="64" height="64" fill="#F7B041" opacity="0.063" rx="3"/><rect x="508" y="724" width="64" height="64" fill="#0B86D1" opacity="0.033" rx="3"/><rect x="580" y="724" width="64" height="64" fill="#F7B041" opacity="0.063" rx="3"/><rect x="868" y="724" width="64" height="64" fill="#F7B041" opacity="0.057" rx="3"/><rect x="1012" y="724" width="64" height="64" fill="#F7B041" opacity="0.046" rx="3"/><rect x="220" y="796" width="64" height="64" fill="#F7B041" opacity="0.070" rx="3"/><rect x="364" y="796" width="64" height="64" fill="#F7B041" opacity="0.018" rx="3"/><rect x="508" y="796" width="64" height="64" fill="#0B86D1" opacity="0.021" rx="3"/><rect x="724" y="796" width="64" height="64" fill="#F7B041" opacity="0.022" rx="3"/><rect x="76" y="868" width="64" height="64" fill="#F7B041" opacity="0.050" rx="3"/><rect x="148" y="868" width="64" height="64" fill="#F7B041" opacity="0.074" rx="3"/><rect x="292" y="868" width="64" height="64" fill="#0B86D1" opacity="0.040" rx="3"/><rect x="436" y="868" width="64" height="64" fill="#0B86D1" opacity="0.016" rx="3"/><rect x="652" y="868" width="64" height="64" fill="#F7B041" opacity="0.074" rx="3"/><rect x="724" y="868" width="64" height="64" fill="#F7B041" opacity="0.014" rx="3"/><rect x="148" y="940" width="64" height="64" fill="#F7B041" opacity="0.055" rx="3"/><rect x="220" y="940" width="64" height="64" fill="#0B86D1" opacity="0.061" rx="3"/><rect x="580" y="940" width="64" height="64" fill="#0B86D1" opacity="0.072" rx="3"/><rect x="4" y="1012" width="64" height="64" fill="#F7B041" opacity="0.049" rx="3"/><rect x="76" y="1012" width="64" height="64" fill="#F7B041" opacity="0.036" rx="3"/><rect x="148" y="1012" width="64" height="64" fill="#F7B041" opacity="0.016" rx="3"/><rect x="364" y="1012" width="64" height="64" fill="#F7B041" opacity="0.069" rx="3"/><rect x="436" y="1012" width="64" height="64" fill="#F7B041" opacity="0.012" rx="3"/><rect x="580" y="1012" width="64" height="64" fill="#0B86D1" opacity="0.015" rx="3"/><rect x="940" y="1012" width="64" height="64" fill="#F7B041" opacity="0.024" rx="3"/><rect x="220" y="1084" width="64" height="64" fill="#0B86D1" opacity="0.043" rx="3"/><rect x="292" y="1084" width="64" height="64" fill="#0B86D1" opacity="0.068" rx="3"/><rect x="436" y="1084" width="64" height="64" fill="#0B86D1" opacity="0.010" rx="3"/><rect x="580" y="1084" width="64" height="64" fill="#0B86D1" opacity="0.019" rx="3"/><rect x="652" y="1084" width="64" height="64" fill="#0B86D1" opacity="0.034" rx="3"/><rect x="76" y="1156" width="64" height="64" fill="#0B86D1" opacity="0.053" rx="3"/><rect x="220" y="1156" width="64" height="64" fill="#F7B041" opacity="0.011" rx="3"/><rect x="292" y="1156" width="64" height="64" fill="#F7B041" opacity="0.062" rx="3"/><rect x="508" y="1156" width="64" height="64" fill="#F7B041" opacity="0.054" rx="3"/><rect x="940" y="1156" width="64" height="64" fill="#0B86D1" opacity="0.015" rx="3"/><rect x="76" y="1228" width="64" height="64" fill="#F7B041" opacity="0.051" rx="3"/><rect x="724" y="1228" width="64" height="64" fill="#F7B041" opacity="0.007" rx="3"/><rect x="292" y="1300" width="64" height="64" fill="#0B86D1" opacity="0.038" rx="3"/><rect x="436" y="1300" width="64" height="64" fill="#0B86D1" opacity="0.008" rx="3"/></g><g stroke="#FFFFFF" stroke-width="1" opacity="0.03"><line x1="216" y1="0" x2="216" y2="1350"/><line x1="432" y1="0" x2="432" y2="1350"/><line x1="648" y1="0" x2="648" y2="1350"/><line x1="864" y1="0" x2="864" y2="1350"/><line x1="0" y1="225" x2="1080" y2="225"/><line x1="0" y1="450" x2="1080" y2="450"/><line x1="0" y1="675" x2="1080" y2="675"/><line x1="0" y1="900" x2="1080" y2="900"/><line x1="0" y1="1125" x2="1080" y2="1125"/></g></svg>