<svg class="bgsvg" viewBox="0 0 1080 1350" preserveAspectRatio="xMidYMid slice" xmlns="http://www.w3.org/2000/svg"><rect width="1080" height="1350" fill="#0A0B10"/><defs>
  <radialGradient id="glowTL_g9026" cx="6%" cy="4%" r="78%"><stop offset="0%" stop-color="rgba(247,176,65,0.56)"/><stop offset="32%" stop-color="rgba(247,176,65,0.18)"/><stop offset="72%" stop-color="rgba(247,176,65,0)"/></radialGradient>
  <radialGradient id="glowBR_g9026" cx="97%" cy="98%" r="58%"><stop offset="0%" stop-color="rgba(11,134,209,0.43)"/><stop offset="40%" stop-color="rgba(11,134,209,0.13)"/><stop offset="78%" stop-color="rgba(11,134,209,0)"/></radialGradient>
  <radialGradient id="center_g9026" cx="50%" cy="48%" r="66%"><stop offset="0%" stop-color="rgba(11,134,209,0.16)"/><stop offset="62%" stop-color="rgba(247,176,65,0.04)"/><stop offset="100%" stop-color="rgba(0,0,0,0)"/></radialGradient>
  <linearGradient id="diag_g9026" x1="0" y1="0" x2="1" y2="1"><stop offset="0%" stop-color="#F7B041"/><stop offset="100%" stop-color="#0B86D1"/></linearGradient>
  <filter id="soft_g9026"><feGaussianBlur stdDeviation="24"/></filter>
  <filter id="blur_g9026"><feGaussianBlur stdDeviation="54"/></filter>
  <pattern id="tinygrid_g9026" width="54" height="54" patternUnits="userSpaceOnUse"><path d="M54 0H0V54" fill="none" stroke="rgba(255,255,255,.06)" stroke-width="1"/></pattern>
  <pattern id="dots_g9026" width="34" height="34" patternUnits="userSpaceOnUse"><circle cx="2" cy="2" r="1.6" fill="#F7B041" opacity=".26"/></pattern>
</defs><rect width="1080" height="1350" fill="#0A0B10"/><rect width="1080" height="1350" fill="url(#glowBR_g9026)"/><g opacity=".82"><path d="M0 0H360L190 1350H0Z" fill="#F7B041" opacity=".10"/><path d="M650 0H1080V270L780 445L1080 625V1350H910L650 0Z" fill="#0B86D1" opacity=".08"/><rect x="112" y="158" width="256" height="118" rx="22" fill="none" stroke="#F7B041" opacity=".24"/><rect x="720" y="844" width="252" height="310" rx="36" fill="none" stroke="#0B86D1" opacity=".22"/><rect x="470" y="88" width="7" height="240" fill="#0B86D1" opacity=".08" transform="rotate(24 470 88)"/><rect x="488" y="119" width="7" height="240" fill="#F7B041" opacity=".08" transform="rotate(24 488 119)"/><rect x="506" y="150" width="7" height="240" fill="#0B86D1" opacity=".08" transform="rotate(24 506 150)"/><rect x="524" y="181" width="7" height="240" fill="#F7B041" opacity=".08" transform="rotate(24 524 181)"/><rect x="542" y="212" width="7" height="240" fill="#0B86D1" opacity=".08" transform="rotate(24 542 212)"/><rect x="560" y="243" width="7" height="240" fill="#F7B041" opacity=".08" transform="rotate(24 560 243)"/><rect x="578" y="274" width="7" height="240" fill="#0B86D1" opacity=".08" transform="rotate(24 578 274)"/><rect x="596" y="305" width="7" height="240" fill="#F7B041" opacity=".08" transform="rotate(24 596 305)"/><rect x="614" y="336" width="7" height="240" fill="#0B86D1" opacity=".08" transform="rotate(24 614 336)"/><rect x="632" y="367" width="7" height="240" fill="#F7B041" opacity=".08" transform="rotate(24 632 367)"/><rect x="650" y="398" width="7" height="240" fill="#0B86D1" opacity=".08" transform="rotate(24 650 398)"/><rect x="668" y="429" width="7" height="240" fill="#F7B041" opacity=".08" transform="rotate(24 668 429)"/><rect x="686" y="460" width="7" height="240" fill="#0B86D1" opacity=".08" transform="rotate(24 686 460)"/><rect x="704" y="491" width="7" height="240" fill="#F7B041" opacity=".08" transform="rotate(24 704 491)"/><rect x="722" y="522" width="7" height="240" fill="#0B86D1" opacity=".08" transform="rotate(24 722 522)"/><rect x="740" y="553" width="7" height="240" fill="#F7B041" opacity=".08" transform="rotate(24 740 553)"/><rect x="758" y="584" width="7" height="240" fill="#0B86D1" opacity=".08" transform="rotate(24 758 584)"/><rect x="776" y="615" width="7" height="240" fill="#F7B041" opacity=".08" transform="rotate(24 776 615)"/></g><g stroke="#FFFFFF" stroke-width="1" opacity="0.025"><line x1="216" y1="0" x2="216" y2="1350"/><line x1="432" y1="0" x2="432" y2="1350"/><line x1="648" y1="0" x2="648" y2="1350"/><line x1="864" y1="0" x2="864" y2="1350"/><line x1="0" y1="225" x2="1080" y2="225"/><line x1="0" y1="450" x2="1080" y2="450"/><line x1="0" y1="675" x2="1080" y2="675"/><line x1="0" y1="900" x2="1080" y2="900"/><line x1="0" y1="1125" x2="1080" y2="1125"/></g></svg>