<svg class="bgsvg" viewBox="0 0 1080 1350" preserveAspectRatio="xMidYMid slice" xmlns="http://www.w3.org/2000/svg"><rect width="1080" height="1350" fill="#0A0B10"/><defs>
  <radialGradient id="glowTL_g9024" cx="6%" cy="4%" r="78%"><stop offset="0%" stop-color="rgba(247,176,65,0.56)"/><stop offset="32%" stop-color="rgba(247,176,65,0.18)"/><stop offset="72%" stop-color="rgba(247,176,65,0)"/></radialGradient>
  <radialGradient id="glowBR_g9024" cx="97%" cy="98%" r="58%"><stop offset="0%" stop-color="rgba(11,134,209,0.43)"/><stop offset="40%" stop-color="rgba(11,134,209,0.13)"/><stop offset="78%" stop-color="rgba(11,134,209,0)"/></radialGradient>
  <radialGradient id="center_g9024" cx="50%" cy="48%" r="66%"><stop offset="0%" stop-color="rgba(11,134,209,0.16)"/><stop offset="62%" stop-color="rgba(247,176,65,0.04)"/><stop offset="100%" stop-color="rgba(0,0,0,0)"/></radialGradient>
  <linearGradient id="diag_g9024" x1="0" y1="0" x2="1" y2="1"><stop offset="0%" stop-color="#F7B041"/><stop offset="100%" stop-color="#0B86D1"/></linearGradient>
  <filter id="soft_g9024"><feGaussianBlur stdDeviation="24"/></filter>
  <filter id="blur_g9024"><feGaussianBlur stdDeviation="54"/></filter>
  <pattern id="tinygrid_g9024" width="54" height="54" patternUnits="userSpaceOnUse"><path d="M54 0H0V54" fill="none" stroke="rgba(255,255,255,.06)" stroke-width="1"/></pattern>
  <pattern id="dots_g9024" width="34" height="34" patternUnits="userSpaceOnUse"><circle cx="2" cy="2" r="1.6" fill="#F7B041" opacity=".26"/></pattern>
</defs><rect width="1080" height="1350" fill="#0A0B10"/><rect width="1080" height="1350" fill="url(#center_g9024)"/><circle cx="-80" cy="190" r="620" fill="url(#glowTL_g9024)"/><circle cx="-70" cy="190" r="430" fill="none" stroke="#F7B041" stroke-width="2" opacity=".26"/><circle cx="-70" cy="190" r="320" fill="none" stroke="#0B86D1" stroke-width="1.4" opacity=".18"/><g stroke="#F7B041" opacity=".33" stroke-width="2"><line x1="52" y1="120" x2="128" y2="120"/><line x1="910" y1="1130" x2="972" y2="1130"/><line x1="52" y1="178" x2="128" y2="178"/><line x1="910" y1="1149" x2="972" y2="1149"/><line x1="52" y1="236" x2="128" y2="236"/><line x1="910" y1="1168" x2="972" y2="1168"/><line x1="52" y1="294" x2="128" y2="294"/><line x1="910" y1="1187" x2="972" y2="1187"/><line x1="52" y1="352" x2="128" y2="352"/><line x1="910" y1="1206" x2="972" y2="1206"/><line x1="52" y1="410" x2="128" y2="410"/><line x1="910" y1="1225" x2="972" y2="1225"/><line x1="52" y1="468" x2="128" y2="468"/><line x1="910" y1="1244" x2="972" y2="1244"/><line x1="52" y1="526" x2="128" y2="526"/><line x1="910" y1="1263" x2="972" y2="1263"/></g><path d="M690 0 L1080 0 L1080 410 Q920 350 750 400 Z" fill="#0B86D1" opacity=".06"/><rect width="1080" height="1350" fill="url(#tinygrid_g9024)" opacity=".55"/></svg>