<svg class="bgsvg" viewBox="0 0 1080 1350" preserveAspectRatio="xMidYMid slice" xmlns="http://www.w3.org/2000/svg"><rect width="1080" height="1350" fill="#0A0B10"/><defs>
  <radialGradient id="glowTL_g9021" cx="6%" cy="4%" r="78%"><stop offset="0%" stop-color="rgba(247,176,65,0.56)"/><stop offset="32%" stop-color="rgba(247,176,65,0.18)"/><stop offset="72%" stop-color="rgba(247,176,65,0)"/></radialGradient>
  <radialGradient id="glowBR_g9021" cx="97%" cy="98%" r="58%"><stop offset="0%" stop-color="rgba(11,134,209,0.43)"/><stop offset="40%" stop-color="rgba(11,134,209,0.13)"/><stop offset="78%" stop-color="rgba(11,134,209,0)"/></radialGradient>
  <radialGradient id="center_g9021" cx="50%" cy="48%" r="66%"><stop offset="0%" stop-color="rgba(11,134,209,0.16)"/><stop offset="62%" stop-color="rgba(247,176,65,0.04)"/><stop offset="100%" stop-color="rgba(0,0,0,0)"/></radialGradient>
  <linearGradient id="diag_g9021" x1="0" y1="0" x2="1" y2="1"><stop offset="0%" stop-color="#F7B041"/><stop offset="100%" stop-color="#0B86D1"/></linearGradient>
  <filter id="soft_g9021"><feGaussianBlur stdDeviation="24"/></filter>
  <filter id="blur_g9021"><feGaussianBlur stdDeviation="54"/></filter>
  <pattern id="tinygrid_g9021" width="54" height="54" patternUnits="userSpaceOnUse"><path d="M54 0H0V54" fill="none" stroke="rgba(255,255,255,.06)" stroke-width="1"/></pattern>
  <pattern id="dots_g9021" width="34" height="34" patternUnits="userSpaceOnUse"><circle cx="2" cy="2" r="1.6" fill="#F7B041" opacity=".26"/></pattern>
</defs><rect width="1080" height="1350" fill="url(#glowTL_g9021)"/><g><path d="M58.88 0 L29.44000000000001 50.991575774827744 L-29.439999999999987 50.99157577482775 L-58.88 7.210720353379615e-15 L-29.440000000000026 -50.99157577482774 L29.44000000000001 -50.991575774827744 Z" fill="none" stroke="#0B86D1" stroke-width="1.3" opacity="0.07816006231862568"/><path d="M154.88 55.42562584220407 L125.44000000000001 106.41720161703182 L66.56000000000002 106.41720161703182 L37.12 55.42562584220408 L66.55999999999997 4.434050067376333 L125.44000000000001 4.434050067376326 Z" fill="none" stroke="#F7B041" stroke-width="1.3" opacity="0.13398233216601707"/><path d="M250.88 0 L221.44 50.991575774827744 L162.56 50.99157577482775 L133.12 7.210720353379615e-15 L162.55999999999997 -50.99157577482774 L221.44 -50.991575774827744 Z" fill="none" stroke="#F7B041" stroke-width="1.3" opacity="0.11213997145809355"/><path d="M346.88 55.42562584220407 L317.44 106.41720161703182 L258.56 106.41720161703182 L229.12 55.42562584220408 L258.55999999999995 4.434050067376333 L317.44 4.434050067376326 Z" fill="none" stroke="#F7B041" stroke-width="1.3" opacity="0.11099929570140252"/><path d="M442.88 0 L413.44 50.991575774827744 L354.56 50.99157577482775 L325.12 7.210720353379615e-15 L354.55999999999995 -50.99157577482774 L413.44 -50.991575774827744 Z" fill="none" stroke="#F7B041" stroke-width="1.3" opacity="0.05177531847557321"/><path d="M58.88 110.85125168440814 L29.44000000000001 161.84282745923588 L-29.439999999999987 161.84282745923588 L-58.88 110.85125168440815 L-29.440000000000026 59.8596759095804 L29.44000000000001 59.859675909580396 Z" fill="none" stroke="#F7B041" stroke-width="1.3" opacity="0.10987305554991801"/><path d="M154.88 166.27687752661222 L125.44000000000001 217.26845330143996 L66.56000000000002 217.26845330144 L37.12 166.27687752661222 L66.55999999999997 115.28530175178449 L125.44000000000001 115.28530175178449 Z" fill="none" stroke="#F7B041" stroke-width="1.3" opacity="0.16537311640714147"/><path d="M250.88 110.85125168440814 L221.44 161.84282745923588 L162.56 161.84282745923588 L133.12 110.85125168440815 L162.55999999999997 59.8596759095804 L221.44 59.859675909580396 Z" fill="none" stroke="#F7B041" stroke-width="1.3" opacity="0.1684202546385884"/><path d="M346.88 166.27687752661222 L317.44 217.26845330143996 L258.56 217.26845330144 L229.12 166.27687752661222 L258.55999999999995 115.28530175178449 L317.44 115.28530175178449 Z" fill="none" stroke="#F7B041" stroke-width="1.3" opacity="0.13099410194221323"/><path d="M442.88 110.85125168440814 L413.44 161.84282745923588 L354.56 161.84282745923588 L325.12 110.85125168440815 L354.55999999999995 59.8596759095804 L413.44 59.859675909580396 Z" fill="none" stroke="#0B86D1" stroke-width="1.3" opacity="0.07651537782086089"/><path d="M538.88 166.27687752661222 L509.44 217.26845330143996 L450.56 217.26845330144 L421.12 166.27687752661222 L450.55999999999995 115.28530175178449 L509.44 115.28530175178449 Z" fill="none" stroke="#F7B041" stroke-width="1.3" opacity="0.027659162521996405"/><path d="M58.88 221.70250336881628 L29.44000000000001 272.69407914364405 L-29.439999999999987 272.69407914364405 L-58.88 221.70250336881628 L-29.440000000000026 170.71092759398854 L29.44000000000001 170.71092759398854 Z" fill="none" stroke="#F7B041" stroke-width="1.3" opacity="0.10766177597315553"/><path d="M154.88 277.12812921102034 L125.44000000000001 328.1197049858481 L66.56000000000002 328.1197049858481 L37.12 277.12812921102034 L66.55999999999997 226.1365534361926 L125.44000000000001 226.1365534361926 Z" fill="none" stroke="#F7B041" stroke-width="1.3" opacity="0.12813000996740567"/><path d="M250.88 221.70250336881628 L221.44 272.69407914364405 L162.56 272.69407914364405 L133.12 221.70250336881628 L162.55999999999997 170.71092759398854 L221.44 170.71092759398854 Z" fill="none" stroke="#F7B041" stroke-width="1.3" opacity="0.16257324730069211"/><path d="M346.88 277.12812921102034 L317.44 328.1197049858481 L258.56 328.1197049858481 L229.12 277.12812921102034 L258.55999999999995 226.1365534361926 L317.44 226.1365534361926 Z" fill="none" stroke="#0B86D1" stroke-width="1.3" opacity="0.10657576135341809"/><path d="M442.88 221.70250336881628 L413.44 272.69407914364405 L354.56 272.69407914364405 L325.12 221.70250336881628 L354.55999999999995 170.71092759398854 L413.44 170.71092759398854 Z" fill="none" stroke="#F7B041" stroke-width="1.3" opacity="0.0748923127252035"/><path d="M58.88 332.55375505322445 L29.44000000000001 383.5453308280522 L-29.439999999999987 383.5453308280522 L-58.88 332.55375505322445 L-29.440000000000026 281.5621792783967 L29.44000000000001 281.5621792783967 Z" fill="none" stroke="#F7B041" stroke-width="1.3" opacity="0.07329003624113914"/><path d="M154.88 387.9793808954285 L125.44000000000001 438.97095667025627 L66.56000000000002 438.97095667025627 L37.12 387.9793808954285 L66.55999999999997 336.9878051206008 L125.44000000000001 336.98780512060074 Z" fill="none" stroke="#F7B041" stroke-width="1.3" opacity="0.0724964484179613"/><path d="M250.88 332.55375505322445 L221.44 383.5453308280522 L162.56 383.5453308280522 L133.12 332.55375505322445 L162.55999999999997 281.5621792783967 L221.44 281.5621792783967 Z" fill="none" stroke="#0B86D1" stroke-width="1.3" opacity="0.10550222692065557"/><path d="M346.88 387.9793808954285 L317.44 438.97095667025627 L258.56 438.97095667025627 L229.12 387.9793808954285 L258.55999999999995 336.9878051206008 L317.44 336.98780512060074 Z" fill="none" stroke="#F7B041" stroke-width="1.3" opacity="0.05921666090960234"/><path d="M442.88 332.55375505322445 L413.44 383.5453308280522 L354.56 383.5453308280522 L325.12 332.55375505322445 L354.55999999999995 281.5621792783967 L413.44 281.5621792783967 Z" fill="none" stroke="#F7B041" stroke-width="1.3" opacity="0.04774691886668303"/><path d="M58.88 443.40500673763256 L29.44000000000001 494.3965825124603 L-29.439999999999987 494.3965825124603 L-58.88 443.40500673763256 L-29.440000000000026 392.4134309628048 L29.44000000000001 392.4134309628048 Z" fill="none" stroke="#F7B041" stroke-width="1.3" opacity="0.024757117080525914"/><path d="M250.88 443.40500673763256 L221.44 494.3965825124603 L162.56 494.3965825124603 L133.12 443.40500673763256 L162.55999999999997 392.4134309628048 L221.44 392.4134309628048 Z" fill="none" stroke="#F7B041" stroke-width="1.3" opacity="0.046427599435601874"/></g></svg>