<svg class="bgsvg" viewBox="0 0 1080 1350" preserveAspectRatio="xMidYMid slice" xmlns="http://www.w3.org/2000/svg"><rect width="1080" height="1350" fill="#0A0B10"/><defs>
  <radialGradient id="glowTL_g9025" cx="6%" cy="4%" r="78%"><stop offset="0%" stop-color="rgba(247,176,65,0.56)"/><stop offset="32%" stop-color="rgba(247,176,65,0.18)"/><stop offset="72%" stop-color="rgba(247,176,65,0)"/></radialGradient>
  <radialGradient id="glowBR_g9025" cx="97%" cy="98%" r="58%"><stop offset="0%" stop-color="rgba(11,134,209,0.43)"/><stop offset="40%" stop-color="rgba(11,134,209,0.13)"/><stop offset="78%" stop-color="rgba(11,134,209,0)"/></radialGradient>
  <radialGradient id="center_g9025" cx="50%" cy="48%" r="66%"><stop offset="0%" stop-color="rgba(11,134,209,0.16)"/><stop offset="62%" stop-color="rgba(247,176,65,0.04)"/><stop offset="100%" stop-color="rgba(0,0,0,0)"/></radialGradient>
  <linearGradient id="diag_g9025" x1="0" y1="0" x2="1" y2="1"><stop offset="0%" stop-color="#F7B041"/><stop offset="100%" stop-color="#0B86D1"/></linearGradient>
  <filter id="soft_g9025"><feGaussianBlur stdDeviation="24"/></filter>
  <filter id="blur_g9025"><feGaussianBlur stdDeviation="54"/></filter>
  <pattern id="tinygrid_g9025" width="54" height="54" patternUnits="userSpaceOnUse"><path d="M54 0H0V54" fill="none" stroke="rgba(255,255,255,.06)" stroke-width="1"/></pattern>
  <pattern id="dots_g9025" width="34" height="34" patternUnits="userSpaceOnUse"><circle cx="2" cy="2" r="1.6" fill="#F7B041" opacity=".26"/></pattern>
</defs><rect width="1080" height="1350" fill="#0A0B10"/><rect width="1080" height="1350" fill="url(#glowTL_g9025)"/><rect x="107.7" y="586.0" width="6.6" height="6.6" rx="1.313726043847262" fill="#F7B041" opacity="0.148"/><rect x="165.1" y="767.7" width="27.6" height="27.6" rx="4" fill="#F7B041" opacity="0.058"/><rect x="272.2" y="496.3" width="8.0" height="8.0" rx="1.5934780123613208" fill="#F7B041" opacity="0.046"/><rect x="845.4" y="483.7" width="5.3" height="5.3" rx="1.0597867965976648" fill="#F7B041" opacity="0.087"/><rect x="888.8" y="210.2" width="28.7" height="28.7" rx="4" fill="#0B86D1" opacity="0.084"/><rect x="938.5" y="293.0" width="20.2" height="20.2" rx="4" fill="#F7B041" opacity="0.100"/><rect x="964.4" y="711.1" width="28.4" height="28.4" rx="4" fill="#F7B041" opacity="0.106"/><rect x="124.9" y="1171.2" width="11.6" height="11.6" rx="2.3156311041282636" fill="#F7B041" opacity="0.103"/><rect x="298.0" y="445.9" width="19.8" height="19.8" rx="3.9587274565169253" fill="#0B86D1" opacity="0.196"/><rect x="905.9" y="418.9" width="21.1" height="21.1" rx="4" fill="#F7B041" opacity="0.121"/><rect x="137.2" y="947.1" width="12.0" height="12.0" rx="2.403438759503625" fill="#0B86D1" opacity="0.099"/><rect x="77.4" y="350.1" width="8.7" height="8.7" rx="1.7431774619702147" fill="#F7B041" opacity="0.072"/><rect x="178.4" y="142.1" width="24.0" height="24.0" rx="4" fill="#F7B041" opacity="0.169"/><rect x="984.8" y="498.7" width="21.7" height="21.7" rx="4" fill="#F7B041" opacity="0.151"/><rect x="947.9" y="1200.1" width="17.4" height="17.4" rx="3.4700286876736346" fill="#F7B041" opacity="0.062"/><rect x="264.5" y="289.3" width="9.1" height="9.1" rx="1.8288121704146325" fill="#F7B041" opacity="0.179"/><rect x="166.8" y="930.8" width="26.2" height="26.2" rx="4" fill="#F7B041" opacity="0.114"/><rect x="997.6" y="1112.4" width="22.2" height="22.2" rx="4" fill="#F7B041" opacity="0.124"/><rect x="203.3" y="776.7" width="27.8" height="27.8" rx="4" fill="#F7B041" opacity="0.111"/><rect x="256.5" y="800.4" width="17.5" height="17.5" rx="3.502339936467978" fill="#F7B041" opacity="0.077"/><rect x="978.6" y="1192.4" width="5.9" height="5.9" rx="1.1741676331377437" fill="#F7B041" opacity="0.087"/><rect x="857.3" y="863.4" width="17.2" height="17.2" rx="3.4457437526647676" fill="#F7B041" opacity="0.147"/><rect x="920.3" y="1187.1" width="18.6" height="18.6" rx="3.710390664409097" fill="#F7B041" opacity="0.116"/><rect x="242.3" y="971.2" width="15.4" height="15.4" rx="3.088769913692386" fill="#F7B041" opacity="0.162"/><rect x="296.9" y="684.4" width="16.3" height="16.3" rx="3.252566910838972" fill="#F7B041" opacity="0.054"/><rect x="850.8" y="1093.2" width="11.0" height="11.0" rx="2.2068555837529042" fill="#F7B041" opacity="0.041"/><rect x="942.4" y="515.2" width="24.8" height="24.8" rx="4" fill="#0B86D1" opacity="0.164"/><rect x="304.6" y="977.8" width="20.4" height="20.4" rx="4" fill="#0B86D1" opacity="0.202"/><rect x="211.0" y="750.7" width="19.4" height="19.4" rx="3.8836931242065944" fill="#0B86D1" opacity="0.084"/><rect x="839.1" y="101.0" width="16.4" height="16.4" rx="3.2833253237806845" fill="#F7B041" opacity="0.167"/><rect x="823.7" y="967.7" width="15.9" height="15.9" rx="3.1781471262584198" fill="#F7B041" opacity="0.097"/><rect x="140.7" y="716.3" width="18.4" height="18.4" rx="3.682052804288479" fill="#F7B041" opacity="0.122"/><rect x="955.5" y="1003.6" width="18.4" height="18.4" rx="3.685661698638304" fill="#F7B041" opacity="0.162"/><rect x="127.7" y="796.1" width="9.6" height="9.6" rx="1.9177320484620204" fill="#F7B041" opacity="0.157"/><rect x="902.1" y="997.4" width="15.5" height="15.5" rx="3.109933472662202" fill="#F7B041" opacity="0.203"/><rect x="198.9" y="1039.1" width="27.0" height="27.0" rx="4" fill="#F7B041" opacity="0.087"/><rect x="94.2" y="830.1" width="17.7" height="17.7" rx="3.548911668057047" fill="#0B86D1" opacity="0.069"/><rect x="166.7" y="645.3" width="28.9" height="28.9" rx="4" fill="#F7B041" opacity="0.064"/><rect x="142.3" y="329.7" width="29.0" height="29.0" rx="4" fill="#F7B041" opacity="0.169"/><rect x="134.9" y="820.6" width="21.7" height="21.7" rx="4" fill="#F7B041" opacity="0.160"/><rect x="83.4" y="888.7" width="10.5" height="10.5" rx="2.1042289739028686" fill="#F7B041" opacity="0.053"/><rect x="872.9" y="660.5" width="5.2" height="5.2" rx="1.0365673065355827" fill="#F7B041" opacity="0.128"/><rect x="321.0" y="1071.1" width="26.3" height="26.3" rx="4" fill="#F7B041" opacity="0.094"/><rect x="201.6" y="190.2" width="21.4" height="21.4" rx="4" fill="#0B86D1" opacity="0.121"/><rect x="818.3" y="1127.2" width="27.9" height="27.9" rx="4" fill="#0B86D1" opacity="0.193"/><rect x="251.5" y="747.1" width="12.3" height="12.3" rx="2.4648666388657254" fill="#F7B041" opacity="0.202"/><rect x="215.7" y="1158.4" width="8.1" height="8.1" rx="1.6269210818349018" fill="#F7B041" opacity="0.138"/><rect x="940.4" y="136.5" width="12.8" height="12.8" rx="2.5605382449741185" fill="#F7B041" opacity="0.111"/><rect x="73.8" y="185.1" width="18.8" height="18.8" rx="3.756762982698513" fill="#F7B041" opacity="0.122"/><rect x="118.9" y="700.2" width="5.6" height="5.6" rx="1.1254261017429765" fill="#F7B041" opacity="0.125"/><rect x="888.4" y="584.7" width="27.2" height="27.2" rx="4" fill="#F7B041" opacity="0.100"/><rect x="310.7" y="904.5" width="9.5" height="9.5" rx="1.8901889805170655" fill="#F7B041" opacity="0.151"/><rect x="897.7" y="1086.9" width="9.3" height="9.3" rx="1.8625005726062231" fill="#F7B041" opacity="0.058"/><rect x="88.3" y="430.6" width="26.7" height="26.7" rx="4" fill="#F7B041" opacity="0.148"/><rect x="865.9" y="868.9" width="13.7" height="13.7" rx="2.7482463844810834" fill="#F7B041" opacity="0.162"/><rect x="185.0" y="312.8" width="12.9" height="12.9" rx="2.5874518878699524" fill="#F7B041" opacity="0.083"/><rect x="966.4" y="556.5" width="9.4" height="9.4" rx="1.8832950596154179" fill="#F7B041" opacity="0.051"/><rect x="914.3" y="460.8" width="25.4" height="25.4" rx="4" fill="#F7B041" opacity="0.144"/><rect x="164.4" y="652.9" width="12.1" height="12.1" rx="2.426255989738859" fill="#0B86D1" opacity="0.036"/><rect x="965.6" y="182.4" width="17.0" height="17.0" rx="3.393978406113563" fill="#F7B041" opacity="0.167"/><rect x="896.7" y="787.6" width="23.3" height="23.3" rx="4" fill="#F7B041" opacity="0.142"/><rect x="53.1" y="767.7" width="21.4" height="21.4" rx="4" fill="#F7B041" opacity="0.175"/><rect x="290.8" y="438.4" width="7.2" height="7.2" rx="1.443169594017402" fill="#F7B041" opacity="0.137"/><rect x="991.6" y="123.9" width="19.5" height="19.5" rx="3.902405054728689" fill="#F7B041" opacity="0.133"/><rect x="790.6" y="1019.6" width="18.6" height="18.6" rx="3.7297494901017054" fill="#F7B041" opacity="0.090"/><rect x="262.5" y="730.9" width="12.0" height="12.0" rx="2.399405861552528" fill="#F7B041" opacity="0.058"/><rect x="168.0" y="988.3" width="6.6" height="6.6" rx="1.3257085801687598" fill="#F7B041" opacity="0.186"/><rect x="799.0" y="1011.4" width="7.7" height="7.7" rx="1.5494102480585736" fill="#F7B041" opacity="0.156"/><rect x="157.8" y="877.8" width="25.4" height="25.4" rx="4" fill="#0B86D1" opacity="0.152"/><rect x="730.9" y="200.5" width="17.1" height="17.1" rx="3.4150170814315874" fill="#F7B041" opacity="0.101"/><rect x="872.4" y="1024.6" width="14.5" height="14.5" rx="2.8996980675960415" fill="#0B86D1" opacity="0.145"/><rect x="840.7" y="547.5" width="18.4" height="18.4" rx="3.6791757596094055" fill="#F7B041" opacity="0.169"/><rect x="758.8" y="1075.9" width="10.4" height="10.4" rx="2.08699760487629" fill="#F7B041" opacity="0.109"/><rect x="253.3" y="347.6" width="9.9" height="9.9" rx="1.9895278458434753" fill="#F7B041" opacity="0.103"/><rect x="732.5" y="194.5" width="22.9" height="22.9" rx="4" fill="#F7B041" opacity="0.104"/><rect x="49.1" y="627.5" width="12.3" height="12.3" rx="2.4577478415601646" fill="#F7B041" opacity="0.126"/><rect x="57.4" y="663.7" width="18.8" height="18.8" rx="3.7679899228587703" fill="#F7B041" opacity="0.193"/><rect x="888.0" y="274.5" width="28.9" height="28.9" rx="4" fill="#F7B041" opacity="0.182"/><rect x="902.2" y="135.1" width="8.1" height="8.1" rx="1.6155251982694148" fill="#F7B041" opacity="0.079"/><rect x="758.1" y="1150.8" width="26.2" height="26.2" rx="4" fill="#F7B041" opacity="0.166"/><rect x="321.6" y="339.8" width="26.5" height="26.5" rx="4" fill="#F7B041" opacity="0.061"/><rect x="942.6" y="820.6" width="25.7" height="25.7" rx="4" fill="#F7B041" opacity="0.076"/><rect x="72.8" y="399.9" width="7.5" height="7.5" rx="1.4978051187925996" fill="#F7B041" opacity="0.140"/><rect x="250.4" y="1067.6" width="16.8" height="16.8" rx="3.367307664066231" fill="#F7B041" opacity="0.137"/><rect x="930.4" y="789.0" width="16.0" height="16.0" rx="3.2012401591060873" fill="#F7B041" opacity="0.161"/><rect x="869.2" y="1064.1" width="22.2" height="22.2" rx="4" fill="#F7B041" opacity="0.092"/><rect x="870.6" y="696.8" width="26.4" height="26.4" rx="4" fill="#F7B041" opacity="0.170"/><rect x="936.6" y="365.4" width="9.1" height="9.1" rx="1.8108214858969776" fill="#0B86D1" opacity="0.086"/><rect x="128.6" y="694.4" width="16.0" height="16.0" rx="3.208269692495591" fill="#F7B041" opacity="0.120"/><rect x="40.2" y="290.5" width="25.0" height="25.0" rx="4" fill="#F7B041" opacity="0.070"/><rect x="898.5" y="301.4" width="28.4" height="28.4" rx="4" fill="#F7B041" opacity="0.036"/><rect x="135.2" y="968.7" width="21.9" height="21.9" rx="4" fill="#F7B041" opacity="0.047"/><rect x="43.2" y="782.0" width="8.4" height="8.4" rx="1.671725273445121" fill="#0B86D1" opacity="0.182"/><rect x="145.9" y="319.9" width="16.0" height="16.0" rx="3.191356040067671" fill="#F7B041" opacity="0.131"/><rect x="233.4" y="975.7" width="18.0" height="18.0" rx="3.5921548855454457" fill="#F7B041" opacity="0.045"/><rect x="804.2" y="1039.2" width="8.1" height="8.1" rx="1.6263923647936398" fill="#F7B041" opacity="0.048"/><rect x="981.7" y="785.9" width="13.1" height="13.1" rx="2.628658486171001" fill="#F7B041" opacity="0.104"/><rect x="895.0" y="147.0" width="20.7" height="20.7" rx="4" fill="#F7B041" opacity="0.181"/><rect x="887.6" y="446.8" width="8.8" height="8.8" rx="1.7506414416947598" fill="#F7B041" opacity="0.164"/><rect x="51.5" y="995.8" width="21.3" height="21.3" rx="4" fill="#F7B041" opacity="0.071"/><rect x="282.3" y="824.1" width="20.6" height="20.6" rx="4" fill="#F7B041" opacity="0.127"/><rect x="1001.4" y="555.7" width="5.1" height="5.1" rx="1.028978157056951" fill="#0B86D1" opacity="0.137"/><rect x="828.6" y="843.3" width="15.3" height="15.3" rx="3.056513596538694" fill="#F7B041" opacity="0.101"/><rect x="252.7" y="151.8" width="7.1" height="7.1" rx="1.4294831754777038" fill="#F7B041" opacity="0.127"/><rect x="988.7" y="352.7" width="18.8" height="18.8" rx="3.7657832158570104" fill="#F7B041" opacity="0.065"/><rect x="267.9" y="517.1" width="16.8" height="16.8" rx="3.3522146235928947" fill="#F7B041" opacity="0.128"/><rect x="213.7" y="137.1" width="19.5" height="19.5" rx="3.9061585916700583" fill="#F7B041" opacity="0.035"/><rect x="891.4" y="962.2" width="22.1" height="22.1" rx="4" fill="#0B86D1" opacity="0.072"/><rect x="1007.0" y="460.2" width="10.8" height="10.8" rx="2.159149170461646" fill="#F7B041" opacity="0.185"/><rect x="138.9" y="880.3" width="10.4" height="10.4" rx="2.0802181248926646" fill="#F7B041" opacity="0.155"/><rect x="900.1" y="703.9" width="20.5" height="20.5" rx="4" fill="#F7B041" opacity="0.151"/><rect x="212.8" y="1088.1" width="24.5" height="24.5" rx="4" fill="#F7B041" opacity="0.104"/><rect x="814.9" y="323.6" width="8.2" height="8.2" rx="1.6322061064803073" fill="#F7B041" opacity="0.126"/><rect x="63.8" y="852.0" width="15.2" height="15.2" rx="3.0345289239820694" fill="#F7B041" opacity="0.197"/><rect x="295.0" y="913.9" width="17.2" height="17.2" rx="3.4412382137222397" fill="#F7B041" opacity="0.158"/><rect x="54.4" y="205.8" width="19.1" height="19.1" rx="3.8152674688097408" fill="#F7B041" opacity="0.189"/><rect x="921.7" y="265.9" width="12.8" height="12.8" rx="2.559338331948658" fill="#0B86D1" opacity="0.142"/><rect x="818.5" y="1018.7" width="25.1" height="25.1" rx="4" fill="#F7B041" opacity="0.154"/><rect x="53.5" y="1044.1" width="23.0" height="23.0" rx="4" fill="#F7B041" opacity="0.134"/><rect x="978.5" y="1043.9" width="27.5" height="27.5" rx="4" fill="#F7B041" opacity="0.165"/><rect x="112.5" y="1034.8" width="24.0" height="24.0" rx="4" fill="#F7B041" opacity="0.052"/><rect x="930.6" y="888.0" width="14.5" height="14.5" rx="2.896254540372759" fill="#F7B041" opacity="0.061"/><rect x="204.8" y="831.1" width="25.4" height="25.4" rx="4" fill="#F7B041" opacity="0.145"/><rect x="992.2" y="333.2" width="19.3" height="19.3" rx="3.869633199120701" fill="#F7B041" opacity="0.110"/><rect x="184.2" y="377.0" width="26.4" height="26.4" rx="4" fill="#F7B041" opacity="0.189"/><rect x="327.4" y="126.8" width="16.1" height="16.1" rx="3.2189963649115514" fill="#F7B041" opacity="0.182"/><rect x="284.2" y="522.9" width="14.2" height="14.2" rx="2.8474563607235703" fill="#F7B041" opacity="0.204"/><rect x="69.5" y="495.4" width="25.3" height="25.3" rx="4" fill="#0B86D1" opacity="0.201"/><rect x="75.6" y="1086.9" width="27.1" height="27.1" rx="4" fill="#F7B041" opacity="0.162"/><rect x="848.6" y="1154.4" width="23.3" height="23.3" rx="4" fill="#F7B041" opacity="0.188"/><rect x="784.5" y="1069.3" width="16.8" height="16.8" rx="3.3622304927381834" fill="#F7B041" opacity="0.195"/><rect x="903.5" y="959.1" width="19.9" height="19.9" rx="3.979921914534607" fill="#F7B041" opacity="0.179"/><rect x="970.4" y="935.6" width="15.3" height="15.3" rx="3.0502714166651814" fill="#F7B041" opacity="0.107"/><rect x="996.8" y="935.2" width="15.5" height="15.5" rx="3.091418648740006" fill="#F7B041" opacity="0.088"/><rect x="820.1" y="739.4" width="27.0" height="27.0" rx="4" fill="#0B86D1" opacity="0.086"/><rect x="268.1" y="522.5" width="8.5" height="8.5" rx="1.694219780291533" fill="#F7B041" opacity="0.155"/><rect x="203.7" y="1204.5" width="17.0" height="17.0" rx="3.390144349257529" fill="#F7B041" opacity="0.188"/><rect x="288.1" y="1102.6" width="27.0" height="27.0" rx="4" fill="#0B86D1" opacity="0.050"/><rect x="189.4" y="480.1" width="12.8" height="12.8" rx="2.553548050650185" fill="#0B86D1" opacity="0.153"/><rect x="144.9" y="1114.2" width="17.6" height="17.6" rx="3.52099495051475" fill="#F7B041" opacity="0.119"/><rect x="767.4" y="179.8" width="9.0" height="9.0" rx="1.7926167968626214" fill="#F7B041" opacity="0.091"/><rect x="117.5" y="146.4" width="20.3" height="20.3" rx="4" fill="#F7B041" opacity="0.161"/><rect x="988.1" y="671.0" width="5.9" height="5.9" rx="1.1783584595557108" fill="#F7B041" opacity="0.060"/><rect x="896.9" y="836.2" width="25.9" height="25.9" rx="4" fill="#0B86D1" opacity="0.126"/><rect x="77.6" y="381.2" width="7.6" height="7.6" rx="1.5242089273986448" fill="#F7B041" opacity="0.045"/><rect x="264.8" y="1091.4" width="19.1" height="19.1" rx="3.8225347532064355" fill="#F7B041" opacity="0.101"/><rect x="191.4" y="760.4" width="7.6" height="7.6" rx="1.5205099108258775" fill="#F7B041" opacity="0.173"/><rect x="46.9" y="115.6" width="8.0" height="8.0" rx="1.5969078424372283" fill="#F7B041" opacity="0.137"/><rect x="929.7" y="251.0" width="22.9" height="22.9" rx="4" fill="#F7B041" opacity="0.054"/><rect x="188.8" y="155.7" width="20.4" height="20.4" rx="4" fill="#F7B041" opacity="0.143"/><rect x="925.8" y="685.4" width="8.0" height="8.0" rx="1.592897796906949" fill="#0B86D1" opacity="0.053"/><rect x="1006.6" y="229.5" width="9.4" height="9.4" rx="1.8738674883143362" fill="#0B86D1" opacity="0.170"/><rect x="264.5" y="153.2" width="6.4" height="6.4" rx="1.2832213879950445" fill="#F7B041" opacity="0.121"/><rect x="774.2" y="131.7" width="28.8" height="28.8" rx="4" fill="#F7B041" opacity="0.197"/><rect x="978.0" y="178.6" width="18.1" height="18.1" rx="3.613422299648366" fill="#F7B041" opacity="0.118"/><rect x="900.2" y="892.9" width="12.2" height="12.2" rx="2.449904633243524" fill="#F7B041" opacity="0.157"/><rect x="869.3" y="121.9" width="6.3" height="6.3" rx="1.267592746143971" fill="#F7B041" opacity="0.073"/><rect x="64.1" y="907.9" width="28.6" height="28.6" rx="4" fill="#F7B041" opacity="0.171"/><rect x="936.9" y="388.7" width="11.5" height="11.5" rx="2.2974990850768515" fill="#0B86D1" opacity="0.066"/><rect x="51.1" y="1015.0" width="13.0" height="13.0" rx="2.607888031754591" fill="#F7B041" opacity="0.122"/><rect x="971.9" y="865.5" width="9.4" height="9.4" rx="1.8708307270290474" fill="#0B86D1" opacity="0.100"/><rect x="902.3" y="374.1" width="12.7" height="12.7" rx="2.545273972277192" fill="#F7B041" opacity="0.082"/><rect x="179.4" y="1160.1" width="5.2" height="5.2" rx="1.045758628866523" fill="#F7B041" opacity="0.110"/><rect x="93.5" y="683.2" width="9.3" height="9.3" rx="1.8656471256472391" fill="#0B86D1" opacity="0.131"/><rect x="89.4" y="1117.0" width="5.8" height="5.8" rx="1.1540569306137305" fill="#F7B041" opacity="0.157"/><rect x="242.8" y="467.0" width="23.1" height="23.1" rx="4" fill="#F7B041" opacity="0.137"/><rect x="830.3" y="728.8" width="7.5" height="7.5" rx="1.5041706087552806" fill="#0B86D1" opacity="0.112"/><rect x="273.4" y="228.5" width="10.0" height="10.0" rx="2.00803694771977" fill="#F7B041" opacity="0.135"/><rect x="333.6" y="1133.9" width="27.7" height="27.7" rx="4" fill="#F7B041" opacity="0.168"/><rect x="778.2" y="189.7" width="26.2" height="26.2" rx="4" fill="#F7B041" opacity="0.199"/><rect x="979.5" y="383.7" width="17.8" height="17.8" rx="3.5513074886758385" fill="#0B86D1" opacity="0.202"/><rect x="947.4" y="650.5" width="5.1" height="5.1" rx="1.026796913159451" fill="#F7B041" opacity="0.169"/><rect x="140.0" y="1179.0" width="24.7" height="24.7" rx="4" fill="#F7B041" opacity="0.188"/><rect x="881.1" y="1055.9" width="18.0" height="18.0" rx="3.594520951525551" fill="#F7B041" opacity="0.083"/><rect x="962.6" y="1139.3" width="18.6" height="18.6" rx="3.7149969113594845" fill="#F7B041" opacity="0.050"/><rect x="824.0" y="1170.3" width="12.7" height="12.7" rx="2.542892456773153" fill="#F7B041" opacity="0.072"/><rect x="824.6" y="991.8" width="22.6" height="22.6" rx="4" fill="#F7B041" opacity="0.110"/><rect x="818.1" y="275.5" width="21.3" height="21.3" rx="4" fill="#F7B041" opacity="0.155"/><rect x="182.5" y="378.5" width="25.7" height="25.7" rx="4" fill="#F7B041" opacity="0.166"/><rect x="55.3" y="290.8" width="21.9" height="21.9" rx="4" fill="#F7B041" opacity="0.114"/><rect x="945.0" y="129.7" width="5.2" height="5.2" rx="1.032765275255202" fill="#F7B041" opacity="0.089"/><rect x="244.2" y="931.1" width="15.5" height="15.5" rx="3.097105790161111" fill="#0B86D1" opacity="0.118"/><rect x="947.7" y="604.0" width="10.2" height="10.2" rx="2.0439626698586917" fill="#0B86D1" opacity="0.122"/><rect x="828.9" y="771.7" width="24.7" height="24.7" rx="4" fill="#F7B041" opacity="0.161"/><rect x="174.8" y="926.0" width="13.7" height="13.7" rx="2.7374443062289826" fill="#F7B041" opacity="0.147"/><rect x="905.6" y="885.2" width="20.7" height="20.7" rx="4" fill="#F7B041" opacity="0.199"/><rect x="148.2" y="1037.6" width="16.0" height="16.0" rx="3.195720673629884" fill="#F7B041" opacity="0.119"/><rect x="56.4" y="316.8" width="5.9" height="5.9" rx="1.1741571904039743" fill="#F7B041" opacity="0.125"/><rect x="218.8" y="387.9" width="26.3" height="26.3" rx="4" fill="#F7B041" opacity="0.100"/><rect x="57.8" y="941.1" width="27.9" height="27.9" rx="4" fill="#F7B041" opacity="0.132"/><rect x="752.5" y="1127.3" width="23.5" height="23.5" rx="4" fill="#F7B041" opacity="0.168"/><rect width="1080" height="1350" fill="url(#tinygrid_g9025)" opacity=".36"/></svg>