<svg class="bgsvg" viewBox="0 0 1080 1350" preserveAspectRatio="xMidYMid slice" xmlns="http://www.w3.org/2000/svg"><rect width="1080" height="1350" fill="#0A0B10"/><defs>
  <radialGradient id="glowTL_g9027" cx="6%" cy="4%" r="78%"><stop offset="0%" stop-color="rgba(247,176,65,0.56)"/><stop offset="32%" stop-color="rgba(247,176,65,0.18)"/><stop offset="72%" stop-color="rgba(247,176,65,0)"/></radialGradient>
  <radialGradient id="glowBR_g9027" cx="97%" cy="98%" r="58%"><stop offset="0%" stop-color="rgba(11,134,209,0.43)"/><stop offset="40%" stop-color="rgba(11,134,209,0.13)"/><stop offset="78%" stop-color="rgba(11,134,209,0)"/></radialGradient>
  <radialGradient id="center_g9027" cx="50%" cy="48%" r="66%"><stop offset="0%" stop-color="rgba(11,134,209,0.16)"/><stop offset="62%" stop-color="rgba(247,176,65,0.04)"/><stop offset="100%" stop-color="rgba(0,0,0,0)"/></radialGradient>
  <linearGradient id="diag_g9027" x1="0" y1="0" x2="1" y2="1"><stop offset="0%" stop-color="#F7B041"/><stop offset="100%" stop-color="#0B86D1"/></linearGradient>
  <filter id="soft_g9027"><feGaussianBlur stdDeviation="24"/></filter>
  <filter id="blur_g9027"><feGaussianBlur stdDeviation="54"/></filter>
  <pattern id="tinygrid_g9027" width="54" height="54" patternUnits="userSpaceOnUse"><path d="M54 0H0V54" fill="none" stroke="rgba(255,255,255,.06)" stroke-width="1"/></pattern>
  <pattern id="dots_g9027" width="34" height="34" patternUnits="userSpaceOnUse"><circle cx="2" cy="2" r="1.6" fill="#F7B041" opacity=".26"/></pattern>
</defs><rect width="1080" height="1350" fill="#0A0B10"/><rect width="1080" height="1350" fill="url(#glowTL_g9027)"/><g transform="translate(194 704) skewY(-8)"><rect x="0" y="0" width="640" height="38" rx="6" fill="#0B86D1" opacity="0.08"/><line x1="20" y1="19" x2="610" y2="19" stroke="#fff" opacity=".06"/><rect x="18" y="48" width="640" height="38" rx="6" fill="#F7B041" opacity="0.094"/><line x1="38" y1="67" x2="628" y2="67" stroke="#fff" opacity=".06"/><rect x="36" y="96" width="640" height="38" rx="6" fill="#F7B041" opacity="0.108"/><line x1="56" y1="115" x2="646" y2="115" stroke="#fff" opacity=".06"/><rect x="54" y="144" width="640" height="38" rx="6" fill="#0B86D1" opacity="0.122"/><line x1="74" y1="163" x2="664" y2="163" stroke="#fff" opacity=".06"/><rect x="72" y="192" width="640" height="38" rx="6" fill="#F7B041" opacity="0.136"/><line x1="92" y1="211" x2="682" y2="211" stroke="#fff" opacity=".06"/><rect x="90" y="240" width="640" height="38" rx="6" fill="#F7B041" opacity="0.15000000000000002"/><line x1="110" y1="259" x2="700" y2="259" stroke="#fff" opacity=".06"/><rect x="108" y="288" width="640" height="38" rx="6" fill="#0B86D1" opacity="0.164"/><line x1="128" y1="307" x2="718" y2="307" stroke="#fff" opacity=".06"/><rect x="126" y="336" width="640" height="38" rx="6" fill="#F7B041" opacity="0.178"/><line x1="146" y1="355" x2="736" y2="355" stroke="#fff" opacity=".06"/><rect x="144" y="384" width="640" height="38" rx="6" fill="#F7B041" opacity="0.192"/><line x1="164" y1="403" x2="754" y2="403" stroke="#fff" opacity=".06"/></g><path d="M0 990 C250 890 440 1010 700 920 S1020 805 1080 900 V1350 H0Z" fill="#F7B041" opacity=".06"/><g stroke="#FFFFFF" stroke-width="1" opacity="0.025"><line x1="216" y1="0" x2="216" y2="1350"/><line x1="432" y1="0" x2="432" y2="1350"/><line x1="648" y1="0" x2="648" y2="1350"/><line x1="864" y1="0" x2="864" y2="1350"/><line x1="0" y1="225" x2="1080" y2="225"/><line x1="0" y1="450" x2="1080" y2="450"/><line x1="0" y1="675" x2="1080" y2="675"/><line x1="0" y1="900" x2="1080" y2="900"/><line x1="0" y1="1125" x2="1080" y2="1125"/></g></svg>