<svg class="bgsvg" viewBox="0 0 1080 1350" preserveAspectRatio="xMidYMid slice" xmlns="http://www.w3.org/2000/svg"><rect width="1080" height="1350" fill="#0A0B10"/><defs>
  <radialGradient id="glowTL_g9028" cx="6%" cy="4%" r="78%"><stop offset="0%" stop-color="rgba(247,176,65,0.56)"/><stop offset="32%" stop-color="rgba(247,176,65,0.18)"/><stop offset="72%" stop-color="rgba(247,176,65,0)"/></radialGradient>
  <radialGradient id="glowBR_g9028" cx="97%" cy="98%" r="58%"><stop offset="0%" stop-color="rgba(11,134,209,0.43)"/><stop offset="40%" stop-color="rgba(11,134,209,0.13)"/><stop offset="78%" stop-color="rgba(11,134,209,0)"/></radialGradient>
  <radialGradient id="center_g9028" cx="50%" cy="48%" r="66%"><stop offset="0%" stop-color="rgba(11,134,209,0.16)"/><stop offset="62%" stop-color="rgba(247,176,65,0.04)"/><stop offset="100%" stop-color="rgba(0,0,0,0)"/></radialGradient>
  <linearGradient id="diag_g9028" x1="0" y1="0" x2="1" y2="1"><stop offset="0%" stop-color="#F7B041"/><stop offset="100%" stop-color="#0B86D1"/></linearGradient>
  <filter id="soft_g9028"><feGaussianBlur stdDeviation="24"/></filter>
  <filter id="blur_g9028"><feGaussianBlur stdDeviation="54"/></filter>
  <pattern id="tinygrid_g9028" width="54" height="54" patternUnits="userSpaceOnUse"><path d="M54 0H0V54" fill="none" stroke="rgba(255,255,255,.06)" stroke-width="1"/></pattern>
  <pattern id="dots_g9028" width="34" height="34" patternUnits="userSpaceOnUse"><circle cx="2" cy="2" r="1.6" fill="#F7B041" opacity=".26"/></pattern>
</defs><rect width="1080" height="1350" fill="#0A0B10"/><rect width="1080" height="1350" fill="url(#glowTL_g9028)"/><g fill="none" stroke-linecap="round"><path d="M-80 240 L-80 219.7 L0 240.0 L80 260.3 L160 275.0 L240 280.0 L320 273.8 L400 258.3 L480 237.7 L560 217.7 L640 203.9 L720 200.2 L800 207.5 L880 223.8 L960 244.7 L1040 264.2 L1120 277.0" stroke="#F7B041" stroke-width="6" opacity="0.34"/><path d="M-80 278 L-80 296.0 L0 311.7 L80 318.0 L160 313.2 L240 298.6 L320 278.3 L400 257.9 L480 243.1 L560 238.0 L640 244.0 L720 259.4 L800 280.0 L880 300.0 L960 313.9 L1040 317.9 L1120 310.7" stroke="#0B86D1" stroke-width="2" opacity="0.16"/><path d="M-80 316 L-80 355.8 L0 352.4 L80 338.9 L160 319.0 L240 298.3 L320 282.5 L400 276.0 L480 280.7 L560 295.1 L640 315.3 L720 335.8 L800 350.7 L880 356.0 L960 350.2 L1040 334.9 L1120 314.3" stroke="#0B86D1" stroke-width="2" opacity="0.16"/><path d="M-80 354 L-80 379.0 L0 359.6 L80 338.7 L160 322.1 L240 314.3 L320 317.5 L400 330.9 L480 350.7 L560 371.4 L640 387.3 L720 393.9 L800 389.5 L880 375.2 L960 355.0 L1040 334.5 L1120 319.5" stroke="#F7B041" stroke-width="2" opacity="0.16"/><path d="M-80 392 L-80 379.2 L0 361.7 L80 352.6 L160 354.5 L240 366.7 L320 386.0 L400 407.0 L480 423.7 L560 431.7 L640 428.6 L720 415.4 L800 395.7 L880 374.9 L960 358.9 L1040 352.1 L1120 356.4" stroke="#0B86D1" stroke-width="6" opacity="0.34"/><path d="M-80 430 L-80 391.2 L0 391.6 L80 402.7 L160 421.4 L240 442.5 L320 460.1 L400 469.3 L480 467.6 L560 455.5 L640 436.3 L720 415.3 L800 398.5 L880 390.3 L960 393.2 L1040 406.3 L1120 426.0" stroke="#0B86D1" stroke-width="2" opacity="0.16"/><path d="M-80 468 L-80 438.8 L0 456.8 L80 477.9 L160 496.2 L240 506.7 L320 506.4 L400 495.5 L480 476.9 L560 455.9 L640 438.2 L720 428.8 L800 430.3 L880 442.2 L960 461.4 L1040 482.4 L1120 499.3" stroke="#F7B041" stroke-width="2" opacity="0.16"/><path d="M-80 506 L-80 513.3 L0 532.3 L80 544.0 L160 545.1 L240 535.4 L320 517.5 L400 496.4 L480 478.0 L560 467.4 L640 467.5 L720 478.3 L800 496.8 L880 517.8 L960 535.6 L1040 545.2 L1120 543.8" stroke="#0B86D1" stroke-width="2" opacity="0.16"/><path d="M-80 544 L-80 581.0 L0 583.6 L80 575.1 L160 558.0 L240 537.0 L320 518.0 L400 506.1 L480 504.8 L560 514.4 L640 532.2 L720 553.3 L800 571.8 L880 582.5 L960 582.6 L1040 572.0 L1120 553.6" stroke="#0B86D1" stroke-width="6" opacity="0.34"/><path d="M-80 582 L-80 614.7 L0 598.5 L80 577.7 L160 558.1 L240 545.1 L320 542.4 L400 550.7 L480 567.7 L560 588.6 L640 607.8 L720 619.7 L800 621.2 L880 611.8 L960 594.1 L1040 573.1 L1120 554.5" stroke="#F7B041" stroke-width="2" opacity="0.16"/><path d="M-80 620 L-80 618.3 L0 598.2 L80 584.2 L160 580.1 L240 587.1 L320 603.2 L400 624.0 L480 643.7 L560 656.8 L640 659.7 L720 651.5 L800 634.6 L880 613.7 L960 594.5 L1040 582.4 L1120 580.7" stroke="#0B86D1" stroke-width="2" opacity="0.16"/><path d="M-80 658 L-80 623.5 L0 618.0 L80 623.6 L160 638.8 L240 659.3 L320 679.5 L400 693.7 L480 697.9 L560 691.1 L640 675.1 L720 654.3 L800 634.6 L880 621.3 L960 618.3 L1040 626.3 L1120 643.1" stroke="#0B86D1" stroke-width="2" opacity="0.16"/><path d="M-80 696 L-80 660.4 L0 674.5 L80 694.7 L160 715.2 L240 730.4 L320 736.0 L400 730.5 L480 715.5 L560 695.0 L640 674.8 L720 660.5 L800 656.1 L880 662.7 L960 678.6 L1040 699.3 L1120 719.1" stroke="#F7B041" stroke-width="6" opacity="0.34"/><path d="M-80 734 L-80 730.0 L0 750.8 L80 766.9 L160 773.9 L240 769.8 L320 755.7 L400 735.7 L480 715.1 L560 699.8 L640 694.0 L720 699.3 L800 714.3 L880 734.7 L960 754.9 L1040 769.3 L1120 774.0" stroke="#0B86D1" stroke-width="2" opacity="0.16"/><path d="M-80 772 L-80 803.3 L0 811.6 L80 808.9 L160 795.9 L240 776.3 L320 755.5 L400 739.3 L480 732.1 L560 736.1 L640 750.0 L720 770.0 L800 790.6 L880 806.0 L960 812.0 L1040 806.9 L1120 792.0" stroke="#0B86D1" stroke-width="2" opacity="0.16"/><path d="M-80 810 L-80 847.8 L0 836.0 L80 816.9 L160 796.0 L240 778.9 L320 770.4 L400 773.0 L480 785.8 L560 805.4 L640 826.2 L720 842.5 L800 849.8 L880 846.1 L960 832.3 L1040 812.3 L1120 791.7" stroke="#F7B041" stroke-width="2" opacity="0.16"/></g><g stroke="#FFFFFF" stroke-width="1" opacity="0.018"><line x1="216" y1="0" x2="216" y2="1350"/><line x1="432" y1="0" x2="432" y2="1350"/><line x1="648" y1="0" x2="648" y2="1350"/><line x1="864" y1="0" x2="864" y2="1350"/><line x1="0" y1="225" x2="1080" y2="225"/><line x1="0" y1="450" x2="1080" y2="450"/><line x1="0" y1="675" x2="1080" y2="675"/><line x1="0" y1="900" x2="1080" y2="900"/><line x1="0" y1="1125" x2="1080" y2="1125"/></g></svg>