<svg class="bgsvg" viewBox="0 0 1080 1350" preserveAspectRatio="xMidYMid slice" xmlns="http://www.w3.org/2000/svg"><rect width="1080" height="1350" fill="#0A0B10"/><defs>
  <radialGradient id="glowTL_g9022" cx="6%" cy="4%" r="78%"><stop offset="0%" stop-color="rgba(247,176,65,0.56)"/><stop offset="32%" stop-color="rgba(247,176,65,0.18)"/><stop offset="72%" stop-color="rgba(247,176,65,0)"/></radialGradient>
  <radialGradient id="glowBR_g9022" cx="97%" cy="98%" r="58%"><stop offset="0%" stop-color="rgba(11,134,209,0.43)"/><stop offset="40%" stop-color="rgba(11,134,209,0.13)"/><stop offset="78%" stop-color="rgba(11,134,209,0)"/></radialGradient>
  <radialGradient id="center_g9022" cx="50%" cy="48%" r="66%"><stop offset="0%" stop-color="rgba(11,134,209,0.16)"/><stop offset="62%" stop-color="rgba(247,176,65,0.04)"/><stop offset="100%" stop-color="rgba(0,0,0,0)"/></radialGradient>
  <linearGradient id="diag_g9022" x1="0" y1="0" x2="1" y2="1"><stop offset="0%" stop-color="#F7B041"/><stop offset="100%" stop-color="#0B86D1"/></linearGradient>
  <filter id="soft_g9022"><feGaussianBlur stdDeviation="24"/></filter>
  <filter id="blur_g9022"><feGaussianBlur stdDeviation="54"/></filter>
  <pattern id="tinygrid_g9022" width="54" height="54" patternUnits="userSpaceOnUse"><path d="M54 0H0V54" fill="none" stroke="rgba(255,255,255,.06)" stroke-width="1"/></pattern>
  <pattern id="dots_g9022" width="34" height="34" patternUnits="userSpaceOnUse"><circle cx="2" cy="2" r="1.6" fill="#F7B041" opacity=".26"/></pattern>
</defs><rect width="1080" height="1350" fill="url(#glowTL_g9022)"/><defs><linearGradient id="fade_g9022" x1="0" y1="1350" x2="0" y2="500" gradientUnits="userSpaceOnUse"><stop offset="0" stop-color="#fff" stop-opacity="1"/><stop offset="0.5" stop-color="#fff" stop-opacity="0.5"/><stop offset="1" stop-color="#fff" stop-opacity="0"/></linearGradient><mask id="fadeM_g9022"><rect x="0" y="500" width="1080" height="850" fill="url(#fade_g9022)"/></mask></defs><g mask="url(#fadeM_g9022)"><g stroke="#F7B041" stroke-width="1.2" stroke-opacity="0.38"><line x1="-3060" y1="1350" x2="540" y2="500"/><line x1="-2910" y1="1350" x2="540" y2="500"/><line x1="-2760" y1="1350" x2="540" y2="500"/><line x1="-2610" y1="1350" x2="540" y2="500"/><line x1="-2460" y1="1350" x2="540" y2="500"/><line x1="-2310" y1="1350" x2="540" y2="500"/><line x1="-2160" y1="1350" x2="540" y2="500"/><line x1="-2010" y1="1350" x2="540" y2="500"/><line x1="-1860" y1="1350" x2="540" y2="500"/><line x1="-1710" y1="1350" x2="540" y2="500"/><line x1="-1560" y1="1350" x2="540" y2="500"/><line x1="-1410" y1="1350" x2="540" y2="500"/><line x1="-1260" y1="1350" x2="540" y2="500"/><line x1="-1110" y1="1350" x2="540" y2="500"/><line x1="-960" y1="1350" x2="540" y2="500"/><line x1="-810" y1="1350" x2="540" y2="500"/><line x1="-660" y1="1350" x2="540" y2="500"/><line x1="-510" y1="1350" x2="540" y2="500"/><line x1="-360" y1="1350" x2="540" y2="500"/><line x1="-210" y1="1350" x2="540" y2="500"/><line x1="-60" y1="1350" x2="540" y2="500"/><line x1="90" y1="1350" x2="540" y2="500"/><line x1="240" y1="1350" x2="540" y2="500"/><line x1="390" y1="1350" x2="540" y2="500"/><line x1="540" y1="1350" x2="540" y2="500"/><line x1="690" y1="1350" x2="540" y2="500"/><line x1="840" y1="1350" x2="540" y2="500"/><line x1="990" y1="1350" x2="540" y2="500"/><line x1="1140" y1="1350" x2="540" y2="500"/><line x1="1290" y1="1350" x2="540" y2="500"/><line x1="1440" y1="1350" x2="540" y2="500"/><line x1="1590" y1="1350" x2="540" y2="500"/><line x1="1740" y1="1350" x2="540" y2="500"/><line x1="1890" y1="1350" x2="540" y2="500"/><line x1="2040" y1="1350" x2="540" y2="500"/><line x1="2190" y1="1350" x2="540" y2="500"/><line x1="2340" y1="1350" x2="540" y2="500"/><line x1="2490" y1="1350" x2="540" y2="500"/><line x1="2640" y1="1350" x2="540" y2="500"/><line x1="2790" y1="1350" x2="540" y2="500"/><line x1="2940" y1="1350" x2="540" y2="500"/><line x1="3090" y1="1350" x2="540" y2="500"/><line x1="3240" y1="1350" x2="540" y2="500"/><line x1="3390" y1="1350" x2="540" y2="500"/><line x1="3540" y1="1350" x2="540" y2="500"/><line x1="3690" y1="1350" x2="540" y2="500"/><line x1="3840" y1="1350" x2="540" y2="500"/><line x1="3990" y1="1350" x2="540" y2="500"/><line x1="4140" y1="1350" x2="540" y2="500"/></g><g stroke-width="1.2"><line x1="0" y1="500.94444444444446" x2="1080" y2="500.94444444444446" stroke="#F7B041" stroke-opacity="0.094"/><line x1="0" y1="503.77777777777777" x2="1080" y2="503.77777777777777" stroke="#F7B041" stroke-opacity="0.108"/><line x1="0" y1="508.5" x2="1080" y2="508.5" stroke="#F7B041" stroke-opacity="0.122"/><line x1="0" y1="515.1111111111111" x2="1080" y2="515.1111111111111" stroke="#0B86D1" stroke-opacity="0.136"/><line x1="0" y1="523.6111111111111" x2="1080" y2="523.6111111111111" stroke="#F7B041" stroke-opacity="0.150"/><line x1="0" y1="534" x2="1080" y2="534" stroke="#F7B041" stroke-opacity="0.164"/><line x1="0" y1="546.2777777777778" x2="1080" y2="546.2777777777778" stroke="#F7B041" stroke-opacity="0.178"/><line x1="0" y1="560.4444444444445" x2="1080" y2="560.4444444444445" stroke="#0B86D1" stroke-opacity="0.192"/><line x1="0" y1="576.5" x2="1080" y2="576.5" stroke="#F7B041" stroke-opacity="0.206"/><line x1="0" y1="594.4444444444445" x2="1080" y2="594.4444444444445" stroke="#F7B041" stroke-opacity="0.220"/><line x1="0" y1="614.2777777777777" x2="1080" y2="614.2777777777777" stroke="#F7B041" stroke-opacity="0.234"/><line x1="0" y1="636" x2="1080" y2="636" stroke="#0B86D1" stroke-opacity="0.248"/><line x1="0" y1="659.6111111111111" x2="1080" y2="659.6111111111111" stroke="#F7B041" stroke-opacity="0.262"/><line x1="0" y1="685.1111111111111" x2="1080" y2="685.1111111111111" stroke="#F7B041" stroke-opacity="0.276"/><line x1="0" y1="712.5" x2="1080" y2="712.5" stroke="#F7B041" stroke-opacity="0.290"/><line x1="0" y1="741.7777777777778" x2="1080" y2="741.7777777777778" stroke="#0B86D1" stroke-opacity="0.304"/><line x1="0" y1="772.9444444444443" x2="1080" y2="772.9444444444443" stroke="#F7B041" stroke-opacity="0.318"/><line x1="0" y1="806" x2="1080" y2="806" stroke="#F7B041" stroke-opacity="0.332"/><line x1="0" y1="840.9444444444443" x2="1080" y2="840.9444444444443" stroke="#F7B041" stroke-opacity="0.346"/><line x1="0" y1="877.7777777777778" x2="1080" y2="877.7777777777778" stroke="#0B86D1" stroke-opacity="0.360"/><line x1="0" y1="916.5" x2="1080" y2="916.5" stroke="#F7B041" stroke-opacity="0.374"/><line x1="0" y1="957.1111111111111" x2="1080" y2="957.1111111111111" stroke="#F7B041" stroke-opacity="0.388"/><line x1="0" y1="999.6111111111111" x2="1080" y2="999.6111111111111" stroke="#F7B041" stroke-opacity="0.402"/><line x1="0" y1="1044" x2="1080" y2="1044" stroke="#0B86D1" stroke-opacity="0.416"/><line x1="0" y1="1090.2777777777778" x2="1080" y2="1090.2777777777778" stroke="#F7B041" stroke-opacity="0.430"/><line x1="0" y1="1138.4444444444443" x2="1080" y2="1138.4444444444443" stroke="#F7B041" stroke-opacity="0.444"/><line x1="0" y1="1188.5" x2="1080" y2="1188.5" stroke="#F7B041" stroke-opacity="0.458"/><line x1="0" y1="1240.4444444444443" x2="1080" y2="1240.4444444444443" stroke="#0B86D1" stroke-opacity="0.472"/><line x1="0" y1="1294.2777777777778" x2="1080" y2="1294.2777777777778" stroke="#F7B041" stroke-opacity="0.486"/></g></g><rect x="0" y="0" width="1080" height="500" fill="url(#glowTL_g9022)"/></svg>