<svg class="bgsvg" viewBox="0 0 1080 1350" preserveAspectRatio="xMidYMid slice" xmlns="http://www.w3.org/2000/svg"><rect width="1080" height="1350" fill="#0A0B10"/><defs><radialGradient id="brg9035" cx="90%" cy="8%" r="75%"><stop offset="0%" stop-color="rgba(247,176,65,0.42)"/><stop offset="38%" stop-color="rgba(247,176,65,0.12)"/><stop offset="80%" stop-color="rgba(247,176,65,0)"/></radialGradient></defs><rect width="1080" height="1350" fill="url(#brg9035)"/><rect x="-20" y="880" width="150" height="430" rx="8" fill="#F7B041" fill-opacity="0.042" stroke="#F7B041" stroke-opacity="0.3" stroke-width="1.6"/><line x1="-12" y1="914" x2="122" y2="914" stroke="#F7B041" stroke-opacity="0.150" stroke-width="1"/><line x1="-12" y1="948" x2="122" y2="948" stroke="#F7B041" stroke-opacity="0.150" stroke-width="1"/><line x1="-12" y1="982" x2="122" y2="982" stroke="#F7B041" stroke-opacity="0.150" stroke-width="1"/><line x1="-12" y1="1016" x2="122" y2="1016" stroke="#F7B041" stroke-opacity="0.150" stroke-width="1"/><line x1="-12" y1="1050" x2="122" y2="1050" stroke="#F7B041" stroke-opacity="0.150" stroke-width="1"/><line x1="-12" y1="1084" x2="122" y2="1084" stroke="#F7B041" stroke-opacity="0.150" stroke-width="1"/><line x1="-12" y1="1118" x2="122" y2="1118" stroke="#F7B041" stroke-opacity="0.150" stroke-width="1"/><line x1="-12" y1="1152" x2="122" y2="1152" stroke="#F7B041" stroke-opacity="0.150" stroke-width="1"/><line x1="-12" y1="1186" x2="122" y2="1186" stroke="#F7B041" stroke-opacity="0.150" stroke-width="1"/><line x1="-12" y1="1220" x2="122" y2="1220" stroke="#F7B041" stroke-opacity="0.150" stroke-width="1"/><line x1="-12" y1="1254" x2="122" y2="1254" stroke="#F7B041" stroke-opacity="0.150" stroke-width="1"/><circle cx="114" cy="1067" r="3.4" fill="#F7B041" opacity="0.73"/><circle cx="114" cy="1101" r="3.4" fill="#F7B041" opacity="0.36"/><circle cx="114" cy="1271" r="3.4" fill="#F7B041" opacity="0.62"/><rect x="168" y="880" width="150" height="430" rx="8" fill="#F7B041" fill-opacity="0.042" stroke="#F7B041" stroke-opacity="0.3" stroke-width="1.6"/><line x1="176" y1="914" x2="310" y2="914" stroke="#F7B041" stroke-opacity="0.150" stroke-width="1"/><line x1="176" y1="948" x2="310" y2="948" stroke="#F7B041" stroke-opacity="0.150" stroke-width="1"/><line x1="176" y1="982" x2="310" y2="982" stroke="#F7B041" stroke-opacity="0.150" stroke-width="1"/><line x1="176" y1="1016" x2="310" y2="1016" stroke="#F7B041" stroke-opacity="0.150" stroke-width="1"/><line x1="176" y1="1050" x2="310" y2="1050" stroke="#F7B041" stroke-opacity="0.150" stroke-width="1"/><line x1="176" y1="1084" x2="310" y2="1084" stroke="#F7B041" stroke-opacity="0.150" stroke-width="1"/><line x1="176" y1="1118" x2="310" y2="1118" stroke="#F7B041" stroke-opacity="0.150" stroke-width="1"/><line x1="176" y1="1152" x2="310" y2="1152" stroke="#F7B041" stroke-opacity="0.150" stroke-width="1"/><line x1="176" y1="1186" x2="310" y2="1186" stroke="#F7B041" stroke-opacity="0.150" stroke-width="1"/><line x1="176" y1="1220" x2="310" y2="1220" stroke="#F7B041" stroke-opacity="0.150" stroke-width="1"/><line x1="176" y1="1254" x2="310" y2="1254" stroke="#F7B041" stroke-opacity="0.150" stroke-width="1"/><circle cx="302" cy="931" r="3.4" fill="#F7B041" opacity="0.59"/><circle cx="302" cy="965" r="3.4" fill="#F7B041" opacity="0.42"/><circle cx="302" cy="1135" r="3.4" fill="#F7B041" opacity="0.57"/><rect x="356" y="880" width="150" height="430" rx="8" fill="#F7B041" fill-opacity="0.042" stroke="#F7B041" stroke-opacity="0.3" stroke-width="1.6"/><line x1="364" y1="914" x2="498" y2="914" stroke="#F7B041" stroke-opacity="0.150" stroke-width="1"/><line x1="364" y1="948" x2="498" y2="948" stroke="#F7B041" stroke-opacity="0.150" stroke-width="1"/><line x1="364" y1="982" x2="498" y2="982" stroke="#F7B041" stroke-opacity="0.150" stroke-width="1"/><line x1="364" y1="1016" x2="498" y2="1016" stroke="#F7B041" stroke-opacity="0.150" stroke-width="1"/><line x1="364" y1="1050" x2="498" y2="1050" stroke="#F7B041" stroke-opacity="0.150" stroke-width="1"/><line x1="364" y1="1084" x2="498" y2="1084" stroke="#F7B041" stroke-opacity="0.150" stroke-width="1"/><line x1="364" y1="1118" x2="498" y2="1118" stroke="#F7B041" stroke-opacity="0.150" stroke-width="1"/><line x1="364" y1="1152" x2="498" y2="1152" stroke="#F7B041" stroke-opacity="0.150" stroke-width="1"/><line x1="364" y1="1186" x2="498" y2="1186" stroke="#F7B041" stroke-opacity="0.150" stroke-width="1"/><line x1="364" y1="1220" x2="498" y2="1220" stroke="#F7B041" stroke-opacity="0.150" stroke-width="1"/><line x1="364" y1="1254" x2="498" y2="1254" stroke="#F7B041" stroke-opacity="0.150" stroke-width="1"/><circle cx="490" cy="897" r="3.4" fill="#F7B041" opacity="0.47"/><circle cx="490" cy="1033" r="3.4" fill="#F7B041" opacity="0.50"/><rect x="544" y="880" width="150" height="430" rx="8" fill="#F7B041" fill-opacity="0.042" stroke="#F7B041" stroke-opacity="0.3" stroke-width="1.6"/><line x1="552" y1="914" x2="686" y2="914" stroke="#F7B041" stroke-opacity="0.150" stroke-width="1"/><line x1="552" y1="948" x2="686" y2="948" stroke="#F7B041" stroke-opacity="0.150" stroke-width="1"/><line x1="552" y1="982" x2="686" y2="982" stroke="#F7B041" stroke-opacity="0.150" stroke-width="1"/><line x1="552" y1="1016" x2="686" y2="1016" stroke="#F7B041" stroke-opacity="0.150" stroke-width="1"/><line x1="552" y1="1050" x2="686" y2="1050" stroke="#F7B041" stroke-opacity="0.150" stroke-width="1"/><line x1="552" y1="1084" x2="686" y2="1084" stroke="#F7B041" stroke-opacity="0.150" stroke-width="1"/><line x1="552" y1="1118" x2="686" y2="1118" stroke="#F7B041" stroke-opacity="0.150" stroke-width="1"/><line x1="552" y1="1152" x2="686" y2="1152" stroke="#F7B041" stroke-opacity="0.150" stroke-width="1"/><line x1="552" y1="1186" x2="686" y2="1186" stroke="#F7B041" stroke-opacity="0.150" stroke-width="1"/><line x1="552" y1="1220" x2="686" y2="1220" stroke="#F7B041" stroke-opacity="0.150" stroke-width="1"/><line x1="552" y1="1254" x2="686" y2="1254" stroke="#F7B041" stroke-opacity="0.150" stroke-width="1"/><circle cx="678" cy="897" r="3.4" fill="#F7B041" opacity="0.37"/><rect x="732" y="880" width="150" height="430" rx="8" fill="#F7B041" fill-opacity="0.042" stroke="#F7B041" stroke-opacity="0.3" stroke-width="1.6"/><line x1="740" y1="914" x2="874" y2="914" stroke="#F7B041" stroke-opacity="0.150" stroke-width="1"/><line x1="740" y1="948" x2="874" y2="948" stroke="#F7B041" stroke-opacity="0.150" stroke-width="1"/><line x1="740" y1="982" x2="874" y2="982" stroke="#F7B041" stroke-opacity="0.150" stroke-width="1"/><line x1="740" y1="1016" x2="874" y2="1016" stroke="#F7B041" stroke-opacity="0.150" stroke-width="1"/><line x1="740" y1="1050" x2="874" y2="1050" stroke="#F7B041" stroke-opacity="0.150" stroke-width="1"/><line x1="740" y1="1084" x2="874" y2="1084" stroke="#F7B041" stroke-opacity="0.150" stroke-width="1"/><line x1="740" y1="1118" x2="874" y2="1118" stroke="#F7B041" stroke-opacity="0.150" stroke-width="1"/><line x1="740" y1="1152" x2="874" y2="1152" stroke="#F7B041" stroke-opacity="0.150" stroke-width="1"/><line x1="740" y1="1186" x2="874" y2="1186" stroke="#F7B041" stroke-opacity="0.150" stroke-width="1"/><line x1="740" y1="1220" x2="874" y2="1220" stroke="#F7B041" stroke-opacity="0.150" stroke-width="1"/><line x1="740" y1="1254" x2="874" y2="1254" stroke="#F7B041" stroke-opacity="0.150" stroke-width="1"/><rect x="920" y="880" width="150" height="430" rx="8" fill="#F7B041" fill-opacity="0.042" stroke="#F7B041" stroke-opacity="0.3" stroke-width="1.6"/><line x1="928" y1="914" x2="1062" y2="914" stroke="#F7B041" stroke-opacity="0.150" stroke-width="1"/><line x1="928" y1="948" x2="1062" y2="948" stroke="#F7B041" stroke-opacity="0.150" stroke-width="1"/><line x1="928" y1="982" x2="1062" y2="982" stroke="#F7B041" stroke-opacity="0.150" stroke-width="1"/><line x1="928" y1="1016" x2="1062" y2="1016" stroke="#F7B041" stroke-opacity="0.150" stroke-width="1"/><line x1="928" y1="1050" x2="1062" y2="1050" stroke="#F7B041" stroke-opacity="0.150" stroke-width="1"/><line x1="928" y1="1084" x2="1062" y2="1084" stroke="#F7B041" stroke-opacity="0.150" stroke-width="1"/><line x1="928" y1="1118" x2="1062" y2="1118" stroke="#F7B041" stroke-opacity="0.150" stroke-width="1"/><line x1="928" y1="1152" x2="1062" y2="1152" stroke="#F7B041" stroke-opacity="0.150" stroke-width="1"/><line x1="928" y1="1186" x2="1062" y2="1186" stroke="#F7B041" stroke-opacity="0.150" stroke-width="1"/><line x1="928" y1="1220" x2="1062" y2="1220" stroke="#F7B041" stroke-opacity="0.150" stroke-width="1"/><line x1="928" y1="1254" x2="1062" y2="1254" stroke="#F7B041" stroke-opacity="0.150" stroke-width="1"/><rect x="1108" y="880" width="150" height="430" rx="8" fill="#F7B041" fill-opacity="0.042" stroke="#F7B041" stroke-opacity="0.3" stroke-width="1.6"/><line x1="1116" y1="914" x2="1250" y2="914" stroke="#F7B041" stroke-opacity="0.150" stroke-width="1"/><line x1="1116" y1="948" x2="1250" y2="948" stroke="#F7B041" stroke-opacity="0.150" stroke-width="1"/><line x1="1116" y1="982" x2="1250" y2="982" stroke="#F7B041" stroke-opacity="0.150" stroke-width="1"/><line x1="1116" y1="1016" x2="1250" y2="1016" stroke="#F7B041" stroke-opacity="0.150" stroke-width="1"/><line x1="1116" y1="1050" x2="1250" y2="1050" stroke="#F7B041" stroke-opacity="0.150" stroke-width="1"/><line x1="1116" y1="1084" x2="1250" y2="1084" stroke="#F7B041" stroke-opacity="0.150" stroke-width="1"/><line x1="1116" y1="1118" x2="1250" y2="1118" stroke="#F7B041" stroke-opacity="0.150" stroke-width="1"/><line x1="1116" y1="1152" x2="1250" y2="1152" stroke="#F7B041" stroke-opacity="0.150" stroke-width="1"/><line x1="1116" y1="1186" x2="1250" y2="1186" stroke="#F7B041" stroke-opacity="0.150" stroke-width="1"/><line x1="1116" y1="1220" x2="1250" y2="1220" stroke="#F7B041" stroke-opacity="0.150" stroke-width="1"/><line x1="1116" y1="1254" x2="1250" y2="1254" stroke="#F7B041" stroke-opacity="0.150" stroke-width="1"/><circle cx="1242" cy="897" r="3.4" fill="#F7B041" opacity="0.80"/><circle cx="1242" cy="931" r="3.4" fill="#F7B041" opacity="0.79"/><circle cx="1242" cy="1169" r="3.4" fill="#F7B041" opacity="0.55"/><line x1="0" y1="1310" x2="1080" y2="1310" stroke="#F7B041" stroke-opacity="0.180" stroke-width="1.2"/><rect x="13" y="560" width="106" height="300" rx="8" fill="#F7B041" fill-opacity="0.024" stroke="#F7B041" stroke-opacity="0.17" stroke-width="1.6"/><line x1="21" y1="594" x2="111" y2="594" stroke="#F7B041" stroke-opacity="0.085" stroke-width="1"/><line x1="21" y1="628" x2="111" y2="628" stroke="#F7B041" stroke-opacity="0.085" stroke-width="1"/><line x1="21" y1="662" x2="111" y2="662" stroke="#F7B041" stroke-opacity="0.085" stroke-width="1"/><line x1="21" y1="696" x2="111" y2="696" stroke="#F7B041" stroke-opacity="0.085" stroke-width="1"/><line x1="21" y1="730" x2="111" y2="730" stroke="#F7B041" stroke-opacity="0.085" stroke-width="1"/><line x1="21" y1="764" x2="111" y2="764" stroke="#F7B041" stroke-opacity="0.085" stroke-width="1"/><line x1="21" y1="798" x2="111" y2="798" stroke="#F7B041" stroke-opacity="0.085" stroke-width="1"/><rect x="146" y="560" width="106" height="300" rx="8" fill="#F7B041" fill-opacity="0.024" stroke="#F7B041" stroke-opacity="0.17" stroke-width="1.6"/><line x1="154" y1="594" x2="244" y2="594" stroke="#F7B041" stroke-opacity="0.085" stroke-width="1"/><line x1="154" y1="628" x2="244" y2="628" stroke="#F7B041" stroke-opacity="0.085" stroke-width="1"/><line x1="154" y1="662" x2="244" y2="662" stroke="#F7B041" stroke-opacity="0.085" stroke-width="1"/><line x1="154" y1="696" x2="244" y2="696" stroke="#F7B041" stroke-opacity="0.085" stroke-width="1"/><line x1="154" y1="730" x2="244" y2="730" stroke="#F7B041" stroke-opacity="0.085" stroke-width="1"/><line x1="154" y1="764" x2="244" y2="764" stroke="#F7B041" stroke-opacity="0.085" stroke-width="1"/><line x1="154" y1="798" x2="244" y2="798" stroke="#F7B041" stroke-opacity="0.085" stroke-width="1"/><circle cx="236" cy="577" r="3.4" fill="#F7B041" opacity="0.76"/><rect x="279" y="560" width="106" height="300" rx="8" fill="#F7B041" fill-opacity="0.024" stroke="#F7B041" stroke-opacity="0.17" stroke-width="1.6"/><line x1="287" y1="594" x2="377" y2="594" stroke="#F7B041" stroke-opacity="0.085" stroke-width="1"/><line x1="287" y1="628" x2="377" y2="628" stroke="#F7B041" stroke-opacity="0.085" stroke-width="1"/><line x1="287" y1="662" x2="377" y2="662" stroke="#F7B041" stroke-opacity="0.085" stroke-width="1"/><line x1="287" y1="696" x2="377" y2="696" stroke="#F7B041" stroke-opacity="0.085" stroke-width="1"/><line x1="287" y1="730" x2="377" y2="730" stroke="#F7B041" stroke-opacity="0.085" stroke-width="1"/><line x1="287" y1="764" x2="377" y2="764" stroke="#F7B041" stroke-opacity="0.085" stroke-width="1"/><line x1="287" y1="798" x2="377" y2="798" stroke="#F7B041" stroke-opacity="0.085" stroke-width="1"/><circle cx="369" cy="577" r="3.4" fill="#F7B041" opacity="0.38"/><circle cx="369" cy="713" r="3.4" fill="#F7B041" opacity="0.39"/><circle cx="369" cy="815" r="3.4" fill="#F7B041" opacity="0.55"/><rect x="412" y="560" width="106" height="300" rx="8" fill="#F7B041" fill-opacity="0.024" stroke="#F7B041" stroke-opacity="0.17" stroke-width="1.6"/><line x1="420" y1="594" x2="510" y2="594" stroke="#F7B041" stroke-opacity="0.085" stroke-width="1"/><line x1="420" y1="628" x2="510" y2="628" stroke="#F7B041" stroke-opacity="0.085" stroke-width="1"/><line x1="420" y1="662" x2="510" y2="662" stroke="#F7B041" stroke-opacity="0.085" stroke-width="1"/><line x1="420" y1="696" x2="510" y2="696" stroke="#F7B041" stroke-opacity="0.085" stroke-width="1"/><line x1="420" y1="730" x2="510" y2="730" stroke="#F7B041" stroke-opacity="0.085" stroke-width="1"/><line x1="420" y1="764" x2="510" y2="764" stroke="#F7B041" stroke-opacity="0.085" stroke-width="1"/><line x1="420" y1="798" x2="510" y2="798" stroke="#F7B041" stroke-opacity="0.085" stroke-width="1"/><rect x="545" y="560" width="106" height="300" rx="8" fill="#F7B041" fill-opacity="0.024" stroke="#F7B041" stroke-opacity="0.17" stroke-width="1.6"/><line x1="553" y1="594" x2="643" y2="594" stroke="#F7B041" stroke-opacity="0.085" stroke-width="1"/><line x1="553" y1="628" x2="643" y2="628" stroke="#F7B041" stroke-opacity="0.085" stroke-width="1"/><line x1="553" y1="662" x2="643" y2="662" stroke="#F7B041" stroke-opacity="0.085" stroke-width="1"/><line x1="553" y1="696" x2="643" y2="696" stroke="#F7B041" stroke-opacity="0.085" stroke-width="1"/><line x1="553" y1="730" x2="643" y2="730" stroke="#F7B041" stroke-opacity="0.085" stroke-width="1"/><line x1="553" y1="764" x2="643" y2="764" stroke="#F7B041" stroke-opacity="0.085" stroke-width="1"/><line x1="553" y1="798" x2="643" y2="798" stroke="#F7B041" stroke-opacity="0.085" stroke-width="1"/><rect x="678" y="560" width="106" height="300" rx="8" fill="#F7B041" fill-opacity="0.024" stroke="#F7B041" stroke-opacity="0.17" stroke-width="1.6"/><line x1="686" y1="594" x2="776" y2="594" stroke="#F7B041" stroke-opacity="0.085" stroke-width="1"/><line x1="686" y1="628" x2="776" y2="628" stroke="#F7B041" stroke-opacity="0.085" stroke-width="1"/><line x1="686" y1="662" x2="776" y2="662" stroke="#F7B041" stroke-opacity="0.085" stroke-width="1"/><line x1="686" y1="696" x2="776" y2="696" stroke="#F7B041" stroke-opacity="0.085" stroke-width="1"/><line x1="686" y1="730" x2="776" y2="730" stroke="#F7B041" stroke-opacity="0.085" stroke-width="1"/><line x1="686" y1="764" x2="776" y2="764" stroke="#F7B041" stroke-opacity="0.085" stroke-width="1"/><line x1="686" y1="798" x2="776" y2="798" stroke="#F7B041" stroke-opacity="0.085" stroke-width="1"/><rect x="811" y="560" width="106" height="300" rx="8" fill="#F7B041" fill-opacity="0.024" stroke="#F7B041" stroke-opacity="0.17" stroke-width="1.6"/><line x1="819" y1="594" x2="909" y2="594" stroke="#F7B041" stroke-opacity="0.085" stroke-width="1"/><line x1="819" y1="628" x2="909" y2="628" stroke="#F7B041" stroke-opacity="0.085" stroke-width="1"/><line x1="819" y1="662" x2="909" y2="662" stroke="#F7B041" stroke-opacity="0.085" stroke-width="1"/><line x1="819" y1="696" x2="909" y2="696" stroke="#F7B041" stroke-opacity="0.085" stroke-width="1"/><line x1="819" y1="730" x2="909" y2="730" stroke="#F7B041" stroke-opacity="0.085" stroke-width="1"/><line x1="819" y1="764" x2="909" y2="764" stroke="#F7B041" stroke-opacity="0.085" stroke-width="1"/><line x1="819" y1="798" x2="909" y2="798" stroke="#F7B041" stroke-opacity="0.085" stroke-width="1"/><circle cx="901" cy="577" r="3.4" fill="#F7B041" opacity="0.53"/><circle cx="901" cy="679" r="3.4" fill="#F7B041" opacity="0.46"/><rect x="944" y="560" width="106" height="300" rx="8" fill="#F7B041" fill-opacity="0.024" stroke="#F7B041" stroke-opacity="0.17" stroke-width="1.6"/><line x1="952" y1="594" x2="1042" y2="594" stroke="#F7B041" stroke-opacity="0.085" stroke-width="1"/><line x1="952" y1="628" x2="1042" y2="628" stroke="#F7B041" stroke-opacity="0.085" stroke-width="1"/><line x1="952" y1="662" x2="1042" y2="662" stroke="#F7B041" stroke-opacity="0.085" stroke-width="1"/><line x1="952" y1="696" x2="1042" y2="696" stroke="#F7B041" stroke-opacity="0.085" stroke-width="1"/><line x1="952" y1="730" x2="1042" y2="730" stroke="#F7B041" stroke-opacity="0.085" stroke-width="1"/><line x1="952" y1="764" x2="1042" y2="764" stroke="#F7B041" stroke-opacity="0.085" stroke-width="1"/><line x1="952" y1="798" x2="1042" y2="798" stroke="#F7B041" stroke-opacity="0.085" stroke-width="1"/><circle cx="1034" cy="679" r="3.4" fill="#F7B041" opacity="0.44"/><rect x="1077" y="560" width="106" height="300" rx="8" fill="#F7B041" fill-opacity="0.024" stroke="#F7B041" stroke-opacity="0.17" stroke-width="1.6"/><line x1="1085" y1="594" x2="1175" y2="594" stroke="#F7B041" stroke-opacity="0.085" stroke-width="1"/><line x1="1085" y1="628" x2="1175" y2="628" stroke="#F7B041" stroke-opacity="0.085" stroke-width="1"/><line x1="1085" y1="662" x2="1175" y2="662" stroke="#F7B041" stroke-opacity="0.085" stroke-width="1"/><line x1="1085" y1="696" x2="1175" y2="696" stroke="#F7B041" stroke-opacity="0.085" stroke-width="1"/><line x1="1085" y1="730" x2="1175" y2="730" stroke="#F7B041" stroke-opacity="0.085" stroke-width="1"/><line x1="1085" y1="764" x2="1175" y2="764" stroke="#F7B041" stroke-opacity="0.085" stroke-width="1"/><line x1="1085" y1="798" x2="1175" y2="798" stroke="#F7B041" stroke-opacity="0.085" stroke-width="1"/><circle cx="1167" cy="577" r="3.4" fill="#F7B041" opacity="0.50"/><circle cx="1167" cy="815" r="3.4" fill="#F7B041" opacity="0.42"/><line x1="0" y1="860" x2="1080" y2="860" stroke="#F7B041" stroke-opacity="0.102" stroke-width="1.2"/><rect x="46" y="350" width="74" height="205" rx="8" fill="#F7B041" fill-opacity="0.013" stroke="#F7B041" stroke-opacity="0.09" stroke-width="1.6"/><line x1="54" y1="384" x2="112" y2="384" stroke="#F7B041" stroke-opacity="0.045" stroke-width="1"/><line x1="54" y1="418" x2="112" y2="418" stroke="#F7B041" stroke-opacity="0.045" stroke-width="1"/><line x1="54" y1="452" x2="112" y2="452" stroke="#F7B041" stroke-opacity="0.045" stroke-width="1"/><line x1="54" y1="486" x2="112" y2="486" stroke="#F7B041" stroke-opacity="0.045" stroke-width="1"/><line x1="54" y1="520" x2="112" y2="520" stroke="#F7B041" stroke-opacity="0.045" stroke-width="1"/><circle cx="104" cy="401" r="3.4" fill="#F7B041" opacity="0.70"/><rect x="139" y="350" width="74" height="205" rx="8" fill="#F7B041" fill-opacity="0.013" stroke="#F7B041" stroke-opacity="0.09" stroke-width="1.6"/><line x1="147" y1="384" x2="205" y2="384" stroke="#F7B041" stroke-opacity="0.045" stroke-width="1"/><line x1="147" y1="418" x2="205" y2="418" stroke="#F7B041" stroke-opacity="0.045" stroke-width="1"/><line x1="147" y1="452" x2="205" y2="452" stroke="#F7B041" stroke-opacity="0.045" stroke-width="1"/><line x1="147" y1="486" x2="205" y2="486" stroke="#F7B041" stroke-opacity="0.045" stroke-width="1"/><line x1="147" y1="520" x2="205" y2="520" stroke="#F7B041" stroke-opacity="0.045" stroke-width="1"/><circle cx="197" cy="503" r="3.4" fill="#F7B041" opacity="0.76"/><rect x="232" y="350" width="74" height="205" rx="8" fill="#F7B041" fill-opacity="0.013" stroke="#F7B041" stroke-opacity="0.09" stroke-width="1.6"/><line x1="240" y1="384" x2="298" y2="384" stroke="#F7B041" stroke-opacity="0.045" stroke-width="1"/><line x1="240" y1="418" x2="298" y2="418" stroke="#F7B041" stroke-opacity="0.045" stroke-width="1"/><line x1="240" y1="452" x2="298" y2="452" stroke="#F7B041" stroke-opacity="0.045" stroke-width="1"/><line x1="240" y1="486" x2="298" y2="486" stroke="#F7B041" stroke-opacity="0.045" stroke-width="1"/><line x1="240" y1="520" x2="298" y2="520" stroke="#F7B041" stroke-opacity="0.045" stroke-width="1"/><circle cx="290" cy="435" r="3.4" fill="#F7B041" opacity="0.61"/><rect x="325" y="350" width="74" height="205" rx="8" fill="#F7B041" fill-opacity="0.013" stroke="#F7B041" stroke-opacity="0.09" stroke-width="1.6"/><line x1="333" y1="384" x2="391" y2="384" stroke="#F7B041" stroke-opacity="0.045" stroke-width="1"/><line x1="333" y1="418" x2="391" y2="418" stroke="#F7B041" stroke-opacity="0.045" stroke-width="1"/><line x1="333" y1="452" x2="391" y2="452" stroke="#F7B041" stroke-opacity="0.045" stroke-width="1"/><line x1="333" y1="486" x2="391" y2="486" stroke="#F7B041" stroke-opacity="0.045" stroke-width="1"/><line x1="333" y1="520" x2="391" y2="520" stroke="#F7B041" stroke-opacity="0.045" stroke-width="1"/><circle cx="383" cy="469" r="3.4" fill="#F7B041" opacity="0.69"/><rect x="418" y="350" width="74" height="205" rx="8" fill="#F7B041" fill-opacity="0.013" stroke="#F7B041" stroke-opacity="0.09" stroke-width="1.6"/><line x1="426" y1="384" x2="484" y2="384" stroke="#F7B041" stroke-opacity="0.045" stroke-width="1"/><line x1="426" y1="418" x2="484" y2="418" stroke="#F7B041" stroke-opacity="0.045" stroke-width="1"/><line x1="426" y1="452" x2="484" y2="452" stroke="#F7B041" stroke-opacity="0.045" stroke-width="1"/><line x1="426" y1="486" x2="484" y2="486" stroke="#F7B041" stroke-opacity="0.045" stroke-width="1"/><line x1="426" y1="520" x2="484" y2="520" stroke="#F7B041" stroke-opacity="0.045" stroke-width="1"/><circle cx="476" cy="401" r="3.4" fill="#F7B041" opacity="0.78"/><circle cx="476" cy="469" r="3.4" fill="#F7B041" opacity="0.77"/><rect x="511" y="350" width="74" height="205" rx="8" fill="#F7B041" fill-opacity="0.013" stroke="#F7B041" stroke-opacity="0.09" stroke-width="1.6"/><line x1="519" y1="384" x2="577" y2="384" stroke="#F7B041" stroke-opacity="0.045" stroke-width="1"/><line x1="519" y1="418" x2="577" y2="418" stroke="#F7B041" stroke-opacity="0.045" stroke-width="1"/><line x1="519" y1="452" x2="577" y2="452" stroke="#F7B041" stroke-opacity="0.045" stroke-width="1"/><line x1="519" y1="486" x2="577" y2="486" stroke="#F7B041" stroke-opacity="0.045" stroke-width="1"/><line x1="519" y1="520" x2="577" y2="520" stroke="#F7B041" stroke-opacity="0.045" stroke-width="1"/><rect x="604" y="350" width="74" height="205" rx="8" fill="#F7B041" fill-opacity="0.013" stroke="#F7B041" stroke-opacity="0.09" stroke-width="1.6"/><line x1="612" y1="384" x2="670" y2="384" stroke="#F7B041" stroke-opacity="0.045" stroke-width="1"/><line x1="612" y1="418" x2="670" y2="418" stroke="#F7B041" stroke-opacity="0.045" stroke-width="1"/><line x1="612" y1="452" x2="670" y2="452" stroke="#F7B041" stroke-opacity="0.045" stroke-width="1"/><line x1="612" y1="486" x2="670" y2="486" stroke="#F7B041" stroke-opacity="0.045" stroke-width="1"/><line x1="612" y1="520" x2="670" y2="520" stroke="#F7B041" stroke-opacity="0.045" stroke-width="1"/><circle cx="662" cy="503" r="3.4" fill="#F7B041" opacity="0.50"/><rect x="697" y="350" width="74" height="205" rx="8" fill="#F7B041" fill-opacity="0.013" stroke="#F7B041" stroke-opacity="0.09" stroke-width="1.6"/><line x1="705" y1="384" x2="763" y2="384" stroke="#F7B041" stroke-opacity="0.045" stroke-width="1"/><line x1="705" y1="418" x2="763" y2="418" stroke="#F7B041" stroke-opacity="0.045" stroke-width="1"/><line x1="705" y1="452" x2="763" y2="452" stroke="#F7B041" stroke-opacity="0.045" stroke-width="1"/><line x1="705" y1="486" x2="763" y2="486" stroke="#F7B041" stroke-opacity="0.045" stroke-width="1"/><line x1="705" y1="520" x2="763" y2="520" stroke="#F7B041" stroke-opacity="0.045" stroke-width="1"/><circle cx="755" cy="367" r="3.4" fill="#F7B041" opacity="0.75"/><rect x="790" y="350" width="74" height="205" rx="8" fill="#F7B041" fill-opacity="0.013" stroke="#F7B041" stroke-opacity="0.09" stroke-width="1.6"/><line x1="798" y1="384" x2="856" y2="384" stroke="#F7B041" stroke-opacity="0.045" stroke-width="1"/><line x1="798" y1="418" x2="856" y2="418" stroke="#F7B041" stroke-opacity="0.045" stroke-width="1"/><line x1="798" y1="452" x2="856" y2="452" stroke="#F7B041" stroke-opacity="0.045" stroke-width="1"/><line x1="798" y1="486" x2="856" y2="486" stroke="#F7B041" stroke-opacity="0.045" stroke-width="1"/><line x1="798" y1="520" x2="856" y2="520" stroke="#F7B041" stroke-opacity="0.045" stroke-width="1"/><circle cx="848" cy="503" r="3.4" fill="#F7B041" opacity="0.78"/><rect x="883" y="350" width="74" height="205" rx="8" fill="#F7B041" fill-opacity="0.013" stroke="#F7B041" stroke-opacity="0.09" stroke-width="1.6"/><line x1="891" y1="384" x2="949" y2="384" stroke="#F7B041" stroke-opacity="0.045" stroke-width="1"/><line x1="891" y1="418" x2="949" y2="418" stroke="#F7B041" stroke-opacity="0.045" stroke-width="1"/><line x1="891" y1="452" x2="949" y2="452" stroke="#F7B041" stroke-opacity="0.045" stroke-width="1"/><line x1="891" y1="486" x2="949" y2="486" stroke="#F7B041" stroke-opacity="0.045" stroke-width="1"/><line x1="891" y1="520" x2="949" y2="520" stroke="#F7B041" stroke-opacity="0.045" stroke-width="1"/><circle cx="941" cy="435" r="3.4" fill="#F7B041" opacity="0.48"/><rect x="976" y="350" width="74" height="205" rx="8" fill="#F7B041" fill-opacity="0.013" stroke="#F7B041" stroke-opacity="0.09" stroke-width="1.6"/><line x1="984" y1="384" x2="1042" y2="384" stroke="#F7B041" stroke-opacity="0.045" stroke-width="1"/><line x1="984" y1="418" x2="1042" y2="418" stroke="#F7B041" stroke-opacity="0.045" stroke-width="1"/><line x1="984" y1="452" x2="1042" y2="452" stroke="#F7B041" stroke-opacity="0.045" stroke-width="1"/><line x1="984" y1="486" x2="1042" y2="486" stroke="#F7B041" stroke-opacity="0.045" stroke-width="1"/><line x1="984" y1="520" x2="1042" y2="520" stroke="#F7B041" stroke-opacity="0.045" stroke-width="1"/><circle cx="1034" cy="367" r="3.4" fill="#F7B041" opacity="0.37"/><circle cx="1034" cy="469" r="3.4" fill="#F7B041" opacity="0.76"/><rect x="1069" y="350" width="74" height="205" rx="8" fill="#F7B041" fill-opacity="0.013" stroke="#F7B041" stroke-opacity="0.09" stroke-width="1.6"/><line x1="1077" y1="384" x2="1135" y2="384" stroke="#F7B041" stroke-opacity="0.045" stroke-width="1"/><line x1="1077" y1="418" x2="1135" y2="418" stroke="#F7B041" stroke-opacity="0.045" stroke-width="1"/><line x1="1077" y1="452" x2="1135" y2="452" stroke="#F7B041" stroke-opacity="0.045" stroke-width="1"/><line x1="1077" y1="486" x2="1135" y2="486" stroke="#F7B041" stroke-opacity="0.045" stroke-width="1"/><line x1="1077" y1="520" x2="1135" y2="520" stroke="#F7B041" stroke-opacity="0.045" stroke-width="1"/><circle cx="1127" cy="503" r="3.4" fill="#F7B041" opacity="0.54"/><circle cx="1127" cy="537" r="3.4" fill="#F7B041" opacity="0.77"/><line x1="0" y1="555" x2="1080" y2="555" stroke="#F7B041" stroke-opacity="0.054" stroke-width="1.2"/><g stroke="#FFFFFF" stroke-width="1" opacity="0.02"><line x1="216" y1="0" x2="216" y2="1350"/><line x1="432" y1="0" x2="432" y2="1350"/><line x1="648" y1="0" x2="648" y2="1350"/><line x1="864" y1="0" x2="864" y2="1350"/><line x1="0" y1="225" x2="1080" y2="225"/><line x1="0" y1="450" x2="1080" y2="450"/><line x1="0" y1="675" x2="1080" y2="675"/><line x1="0" y1="900" x2="1080" y2="900"/><line x1="0" y1="1125" x2="1080" y2="1125"/></g></svg>