<svg class="bgsvg" viewBox="0 0 1080 1350" preserveAspectRatio="xMidYMid slice" xmlns="http://www.w3.org/2000/svg"><rect width="1080" height="1350" fill="#0A0B10"/><defs><radialGradient id="tlg9036" cx="8%" cy="6%" r="76%"><stop offset="0%" stop-color="rgba(247,176,65,0.44)"/><stop offset="36%" stop-color="rgba(247,176,65,0.12)"/><stop offset="80%" stop-color="rgba(247,176,65,0)"/></radialGradient></defs><rect width="1080" height="1350" fill="url(#tlg9036)"/><rect x="-40" y="1010" width="1160" height="150" rx="10" fill="#0B86D1" fill-opacity=".05" stroke="#0B86D1" stroke-opacity=".22" stroke-width="1.8"/><rect x="60" y="946" width="960" height="44" rx="7" fill="#F7B041" fill-opacity=".06" stroke="#F7B041" stroke-opacity=".26" stroke-width="1.6"/><rect x="330" y="802" width="420" height="124" rx="9" fill="#F7B041" fill-opacity=".09" stroke="#F7B041" stroke-opacity=".3" stroke-width="1.8"/><rect x="96" y="802" width="188" height="24" rx="5" fill="#0B86D1" fill-opacity=".07" stroke="#0B86D1" stroke-opacity=".26" stroke-width="1.4"/><rect x="96" y="833" width="188" height="24" rx="5" fill="#0B86D1" fill-opacity=".07" stroke="#0B86D1" stroke-opacity=".26" stroke-width="1.4"/><rect x="96" y="864" width="188" height="24" rx="5" fill="#0B86D1" fill-opacity=".07" stroke="#0B86D1" stroke-opacity=".26" stroke-width="1.4"/><rect x="96" y="895" width="188" height="24" rx="5" fill="#0B86D1" fill-opacity=".07" stroke="#0B86D1" stroke-opacity=".26" stroke-width="1.4"/><rect x="796" y="802" width="188" height="24" rx="5" fill="#0B86D1" fill-opacity=".07" stroke="#0B86D1" stroke-opacity=".26" stroke-width="1.4"/><rect x="796" y="833" width="188" height="24" rx="5" fill="#0B86D1" fill-opacity=".07" stroke="#0B86D1" stroke-opacity=".26" stroke-width="1.4"/><rect x="796" y="864" width="188" height="24" rx="5" fill="#0B86D1" fill-opacity=".07" stroke="#0B86D1" stroke-opacity=".26" stroke-width="1.4"/><rect x="796" y="895" width="188" height="24" rx="5" fill="#0B86D1" fill-opacity=".07" stroke="#0B86D1" stroke-opacity=".26" stroke-width="1.4"/><circle cx="78" cy="1000" r="3" fill="#F7B041" opacity=".2"/><circle cx="104" cy="1000" r="3" fill="#F7B041" opacity=".2"/><circle cx="104" cy="936" r="2.4" fill="#0B86D1" opacity=".18"/><circle cx="130" cy="1000" r="3" fill="#F7B041" opacity=".2"/><circle cx="130" cy="936" r="2.4" fill="#0B86D1" opacity=".18"/><circle cx="156" cy="1000" r="3" fill="#F7B041" opacity=".2"/><circle cx="156" cy="936" r="2.4" fill="#0B86D1" opacity=".18"/><circle cx="182" cy="1000" r="3" fill="#F7B041" opacity=".2"/><circle cx="182" cy="936" r="2.4" fill="#0B86D1" opacity=".18"/><circle cx="208" cy="1000" r="3" fill="#F7B041" opacity=".2"/><circle cx="208" cy="936" r="2.4" fill="#0B86D1" opacity=".18"/><circle cx="234" cy="1000" r="3" fill="#F7B041" opacity=".2"/><circle cx="234" cy="936" r="2.4" fill="#0B86D1" opacity=".18"/><circle cx="260" cy="1000" r="3" fill="#F7B041" opacity=".2"/><circle cx="260" cy="936" r="2.4" fill="#0B86D1" opacity=".18"/><circle cx="286" cy="1000" r="3" fill="#F7B041" opacity=".2"/><circle cx="286" cy="936" r="2.4" fill="#0B86D1" opacity=".18"/><circle cx="312" cy="1000" r="3" fill="#F7B041" opacity=".2"/><circle cx="312" cy="936" r="2.4" fill="#0B86D1" opacity=".18"/><circle cx="338" cy="1000" r="3" fill="#F7B041" opacity=".2"/><circle cx="338" cy="936" r="2.4" fill="#0B86D1" opacity=".18"/><circle cx="364" cy="1000" r="3" fill="#F7B041" opacity=".2"/><circle cx="364" cy="936" r="2.4" fill="#0B86D1" opacity=".18"/><circle cx="390" cy="1000" r="3" fill="#F7B041" opacity=".2"/><circle cx="390" cy="936" r="2.4" fill="#0B86D1" opacity=".18"/><circle cx="416" cy="1000" r="3" fill="#F7B041" opacity=".2"/><circle cx="416" cy="936" r="2.4" fill="#0B86D1" opacity=".18"/><circle cx="442" cy="1000" r="3" fill="#F7B041" opacity=".2"/><circle cx="442" cy="936" r="2.4" fill="#0B86D1" opacity=".18"/><circle cx="468" cy="1000" r="3" fill="#F7B041" opacity=".2"/><circle cx="468" cy="936" r="2.4" fill="#0B86D1" opacity=".18"/><circle cx="494" cy="1000" r="3" fill="#F7B041" opacity=".2"/><circle cx="494" cy="936" r="2.4" fill="#0B86D1" opacity=".18"/><circle cx="520" cy="1000" r="3" fill="#F7B041" opacity=".2"/><circle cx="520" cy="936" r="2.4" fill="#0B86D1" opacity=".18"/><circle cx="546" cy="1000" r="3" fill="#F7B041" opacity=".2"/><circle cx="546" cy="936" r="2.4" fill="#0B86D1" opacity=".18"/><circle cx="572" cy="1000" r="3" fill="#F7B041" opacity=".2"/><circle cx="572" cy="936" r="2.4" fill="#0B86D1" opacity=".18"/><circle cx="598" cy="1000" r="3" fill="#F7B041" opacity=".2"/><circle cx="598" cy="936" r="2.4" fill="#0B86D1" opacity=".18"/><circle cx="624" cy="1000" r="3" fill="#F7B041" opacity=".2"/><circle cx="624" cy="936" r="2.4" fill="#0B86D1" opacity=".18"/><circle cx="650" cy="1000" r="3" fill="#F7B041" opacity=".2"/><circle cx="650" cy="936" r="2.4" fill="#0B86D1" opacity=".18"/><circle cx="676" cy="1000" r="3" fill="#F7B041" opacity=".2"/><circle cx="676" cy="936" r="2.4" fill="#0B86D1" opacity=".18"/><circle cx="702" cy="1000" r="3" fill="#F7B041" opacity=".2"/><circle cx="702" cy="936" r="2.4" fill="#0B86D1" opacity=".18"/><circle cx="728" cy="1000" r="3" fill="#F7B041" opacity=".2"/><circle cx="728" cy="936" r="2.4" fill="#0B86D1" opacity=".18"/><circle cx="754" cy="1000" r="3" fill="#F7B041" opacity=".2"/><circle cx="754" cy="936" r="2.4" fill="#0B86D1" opacity=".18"/><circle cx="780" cy="1000" r="3" fill="#F7B041" opacity=".2"/><circle cx="780" cy="936" r="2.4" fill="#0B86D1" opacity=".18"/><circle cx="806" cy="1000" r="3" fill="#F7B041" opacity=".2"/><circle cx="806" cy="936" r="2.4" fill="#0B86D1" opacity=".18"/><circle cx="832" cy="1000" r="3" fill="#F7B041" opacity=".2"/><circle cx="832" cy="936" r="2.4" fill="#0B86D1" opacity=".18"/><circle cx="858" cy="1000" r="3" fill="#F7B041" opacity=".2"/><circle cx="858" cy="936" r="2.4" fill="#0B86D1" opacity=".18"/><circle cx="884" cy="1000" r="3" fill="#F7B041" opacity=".2"/><circle cx="884" cy="936" r="2.4" fill="#0B86D1" opacity=".18"/><circle cx="910" cy="1000" r="3" fill="#F7B041" opacity=".2"/><circle cx="910" cy="936" r="2.4" fill="#0B86D1" opacity=".18"/><circle cx="936" cy="1000" r="3" fill="#F7B041" opacity=".2"/><circle cx="936" cy="936" r="2.4" fill="#0B86D1" opacity=".18"/><circle cx="962" cy="1000" r="3" fill="#F7B041" opacity=".2"/><circle cx="962" cy="936" r="2.4" fill="#0B86D1" opacity=".18"/><circle cx="988" cy="1000" r="3" fill="#F7B041" opacity=".2"/><line x1="110" y1="946" x2="110" y2="990" stroke="#F7B041" stroke-opacity=".14" stroke-width="2"/><line x1="168" y1="946" x2="168" y2="990" stroke="#F7B041" stroke-opacity=".14" stroke-width="2"/><line x1="226" y1="946" x2="226" y2="990" stroke="#F7B041" stroke-opacity=".14" stroke-width="2"/><line x1="284" y1="946" x2="284" y2="990" stroke="#F7B041" stroke-opacity=".14" stroke-width="2"/><line x1="342" y1="946" x2="342" y2="990" stroke="#F7B041" stroke-opacity=".14" stroke-width="2"/><line x1="400" y1="946" x2="400" y2="990" stroke="#F7B041" stroke-opacity=".14" stroke-width="2"/><line x1="458" y1="946" x2="458" y2="990" stroke="#F7B041" stroke-opacity=".14" stroke-width="2"/><line x1="516" y1="946" x2="516" y2="990" stroke="#F7B041" stroke-opacity=".14" stroke-width="2"/><line x1="574" y1="946" x2="574" y2="990" stroke="#F7B041" stroke-opacity=".14" stroke-width="2"/><line x1="632" y1="946" x2="632" y2="990" stroke="#F7B041" stroke-opacity=".14" stroke-width="2"/><line x1="690" y1="946" x2="690" y2="990" stroke="#F7B041" stroke-opacity=".14" stroke-width="2"/><line x1="748" y1="946" x2="748" y2="990" stroke="#F7B041" stroke-opacity=".14" stroke-width="2"/><line x1="806" y1="946" x2="806" y2="990" stroke="#F7B041" stroke-opacity=".14" stroke-width="2"/><line x1="864" y1="946" x2="864" y2="990" stroke="#F7B041" stroke-opacity=".14" stroke-width="2"/><line x1="922" y1="946" x2="922" y2="990" stroke="#F7B041" stroke-opacity=".14" stroke-width="2"/><line x1="131" y1="1036" x2="1031" y2="1036" stroke="#0B86D1" stroke-opacity="0.136" stroke-width="1.4"/><line x1="36" y1="1060" x2="904" y2="1060" stroke="#0B86D1" stroke-opacity="0.120" stroke-width="1.4"/><line x1="89" y1="1084" x2="931" y2="1084" stroke="#0B86D1" stroke-opacity="0.103" stroke-width="1.4"/><line x1="121" y1="1108" x2="925" y2="1108" stroke="#0B86D1" stroke-opacity="0.079" stroke-width="1.4"/><line x1="69" y1="1132" x2="988" y2="1132" stroke="#0B86D1" stroke-opacity="0.123" stroke-width="1.4"/><g stroke="#FFFFFF" stroke-width="1" opacity="0.02"><line x1="216" y1="0" x2="216" y2="1350"/><line x1="432" y1="0" x2="432" y2="1350"/><line x1="648" y1="0" x2="648" y2="1350"/><line x1="864" y1="0" x2="864" y2="1350"/><line x1="0" y1="225" x2="1080" y2="225"/><line x1="0" y1="450" x2="1080" y2="450"/><line x1="0" y1="675" x2="1080" y2="675"/><line x1="0" y1="900" x2="1080" y2="900"/><line x1="0" y1="1125" x2="1080" y2="1125"/></g></svg>