<svg class="bgsvg" viewBox="0 0 1080 1350" preserveAspectRatio="xMidYMid slice" xmlns="http://www.w3.org/2000/svg"><rect width="1080" height="1350" fill="#0A0B10"/><defs><radialGradient id="tlg9032" cx="4%" cy="3%" r="78%"><stop offset="0%" stop-color="rgba(247,176,65,0.58)"/><stop offset="34%" stop-color="rgba(247,176,65,0.16)"/><stop offset="78%" stop-color="rgba(247,176,65,0)"/></radialGradient><radialGradient id="brg9032" cx="96%" cy="97%" r="58%"><stop offset="0%" stop-color="rgba(11,134,209,0.42)"/><stop offset="38%" stop-color="rgba(11,134,209,0.13)"/><stop offset="78%" stop-color="rgba(11,134,209,0)"/></radialGradient></defs><rect width="1080" height="1350" fill="url(#tlg9032)"/><g fill="none"><path d="M-60 280 C240 210 450 510 1140 270" stroke="#F7B041" stroke-width="4" opacity="0.28"/><path d="M-60 336 C240 240 450 504 1140 308" stroke="#0B86D1" stroke-width="1.6" opacity="0.14"/><path d="M-60 392 C240 270 450 498 1140 346" stroke="#F7B041" stroke-width="1.6" opacity="0.14"/><path d="M-60 448 C240 300 450 492 1140 384" stroke="#0B86D1" stroke-width="1.6" opacity="0.14"/><path d="M-60 504 C240 330 450 486 1140 422" stroke="#F7B041" stroke-width="4" opacity="0.28"/><path d="M-60 560 C240 360 450 480 1140 460" stroke="#0B86D1" stroke-width="1.6" opacity="0.14"/><path d="M-60 616 C240 390 450 474 1140 498" stroke="#F7B041" stroke-width="1.6" opacity="0.14"/><path d="M-60 672 C240 420 450 468 1140 536" stroke="#0B86D1" stroke-width="1.6" opacity="0.14"/><path d="M-60 728 C240 450 450 462 1140 574" stroke="#F7B041" stroke-width="4" opacity="0.28"/><path d="M-60 784 C240 480 450 456 1140 612" stroke="#0B86D1" stroke-width="1.6" opacity="0.14"/><path d="M-60 840 C240 510 450 450 1140 650" stroke="#F7B041" stroke-width="1.6" opacity="0.14"/><path d="M-60 896 C240 540 450 444 1140 688" stroke="#0B86D1" stroke-width="1.6" opacity="0.14"/><path d="M-60 952 C240 570 450 438 1140 726" stroke="#F7B041" stroke-width="4" opacity="0.28"/></g><g stroke="#FFFFFF" stroke-width="1" opacity="0.02"><line x1="216" y1="0" x2="216" y2="1350"/><line x1="432" y1="0" x2="432" y2="1350"/><line x1="648" y1="0" x2="648" y2="1350"/><line x1="864" y1="0" x2="864" y2="1350"/><line x1="0" y1="225" x2="1080" y2="225"/><line x1="0" y1="450" x2="1080" y2="450"/><line x1="0" y1="675" x2="1080" y2="675"/><line x1="0" y1="900" x2="1080" y2="900"/><line x1="0" y1="1125" x2="1080" y2="1125"/></g></svg>