<svg class="bgsvg" viewBox="0 0 1080 1350" preserveAspectRatio="xMidYMid slice" xmlns="http://www.w3.org/2000/svg"><rect width="1080" height="1350" fill="#0A0B10"/><defs>
  <radialGradient id="glowTL_g9030" cx="6%" cy="4%" r="78%"><stop offset="0%" stop-color="rgba(247,176,65,0.56)"/><stop offset="32%" stop-color="rgba(247,176,65,0.18)"/><stop offset="72%" stop-color="rgba(247,176,65,0)"/></radialGradient>
  <radialGradient id="glowBR_g9030" cx="97%" cy="98%" r="58%"><stop offset="0%" stop-color="rgba(11,134,209,0.43)"/><stop offset="40%" stop-color="rgba(11,134,209,0.13)"/><stop offset="78%" stop-color="rgba(11,134,209,0)"/></radialGradient>
  <radialGradient id="center_g9030" cx="50%" cy="48%" r="66%"><stop offset="0%" stop-color="rgba(11,134,209,0.16)"/><stop offset="62%" stop-color="rgba(247,176,65,0.04)"/><stop offset="100%" stop-color="rgba(0,0,0,0)"/></radialGradient>
  <linearGradient id="diag_g9030" x1="0" y1="0" x2="1" y2="1"><stop offset="0%" stop-color="#F7B041"/><stop offset="100%" stop-color="#0B86D1"/></linearGradient>
  <filter id="soft_g9030"><feGaussianBlur stdDeviation="24"/></filter>
  <filter id="blur_g9030"><feGaussianBlur stdDeviation="54"/></filter>
  <pattern id="tinygrid_g9030" width="54" height="54" patternUnits="userSpaceOnUse"><path d="M54 0H0V54" fill="none" stroke="rgba(255,255,255,.06)" stroke-width="1"/></pattern>
  <pattern id="dots_g9030" width="34" height="34" patternUnits="userSpaceOnUse"><circle cx="2" cy="2" r="1.6" fill="#F7B041" opacity=".26"/></pattern>
</defs><rect width="1080" height="1350" fill="#0A0B10"/><rect width="1080" height="1350" fill="url(#glowBR_g9030)"/><g transform="translate(-40 620)" fill="none" stroke-width="1.4"><path d="M0 0 L0 12.0 L40 18.1 L80 19.3 L120 17.0 L160 13.7 L200 11.3 L240 10.7 L280 11.1 L320 10.7 L360 7.5 L400 0.4 L440 -9.9 L480 -21.2 L520 -30.1 L560 -33.4 L600 -29.3 L640 -18.2 L680 -2.8 L720 13.2 L760 25.5 L800 31.4 L840 30.1 L880 23.1 L920 13.2 L960 3.7 L1000 -3.1 L1040 -6.5 L1080 -7.5 L1120 -8.0 L1160 -9.7" stroke="#0B86D1" opacity="0.180"/><path d="M0 42 L0 69.5 L40 72.6 L80 69.1 L120 61.1 L160 51.9 L200 44.1 L240 39.2 L280 37.2 L320 36.4 L360 34.9 L400 31.5 L440 26.2 L480 20.8 L520 17.8 L560 19.6 L600 27.3 L640 40.1 L680 55.2 L720 68.6 L760 76.7 L800 77.2 L840 69.9 L880 57.2 L920 42.7 L960 30.2 L1000 22.5 L1040 20.2 L1080 22.4 L1120 26.6 L1160 30.6" stroke="#F7B041" opacity="0.174"/><path d="M0 84 L0 119.7 L40 117.1 L80 107.7 L120 94.3 L160 80.6 L200 70.2 L240 64.8 L280 64.4 L320 67.1 L360 70.7 L400 73.1 L440 73.7 L480 73.4 L520 74.2 L560 77.9 L600 85.4 L640 95.8 L680 106.8 L720 114.8 L760 117.0 L800 111.7 L840 99.8 L880 83.9 L920 68.3 L960 56.8 L1000 52.0 L1040 54.4 L1080 62.3 L1120 72.5 L1160 81.9" stroke="#F7B041" opacity="0.168"/><path d="M0 126 L0 158.7 L40 150.6 L80 136.7 L120 120.5 L160 106.2 L200 97.2 L240 95.2 L280 99.7 L320 108.3 L360 117.7 L400 125.4 L440 129.9 L480 131.6 L520 132.3 L560 133.8 L600 137.3 L640 142.5 L680 147.5 L720 149.8 L760 147.1 L800 138.6 L840 125.3 L880 110.3 L920 97.6 L960 90.6 L1000 91.5 L1040 99.9 L1080 113.2 L1120 127.8 L1160 139.8" stroke="#0B86D1" opacity="0.162"/><path d="M0 168 L0 188.0 L40 177.1 L80 162.3 L120 147.4 L160 136.3 L200 132.1 L240 135.9 L280 146.3 L320 160.2 L360 173.6 L400 183.5 L440 188.1 L480 187.8 L520 184.6 L560 180.9 L600 178.5 L640 177.8 L680 178.0 L720 176.8 L760 172.7 L800 164.8 L840 154.3 L880 143.8 L920 136.6 L960 135.6 L1000 142.0 L1040 154.8 L1080 170.9 L1120 186.2 L1160 196.7" stroke="#F7B041" opacity="0.156"/><path d="M0 210 L0 213.6 L40 203.7 L80 192.1 L120 181.9 L160 176.5 L200 178.3 L240 187.5 L280 202.0 L320 218.2 L360 231.9 L400 239.9 L440 240.8 L480 235.3 L520 226.2 L560 216.7 L600 209.3 L640 205.1 L680 203.6 L720 203.0 L760 201.4 L800 197.9 L840 192.9 L880 188.3 L920 186.7 L960 190.3 L1000 199.6 L1040 213.3 L1080 228.1 L1120 240.0 L1160 245.8" stroke="#F7B041" opacity="0.150"/><path d="M0 252 L0 243.1 L40 237.9 L80 231.9 L120 227.6 L160 227.7 L200 233.8 L240 245.4 L280 260.4 L320 274.9 L360 284.9 L400 287.8 L440 282.8 L480 271.5 L520 257.4 L560 244.1 L600 234.9 L640 231.1 L680 232.0 L720 235.7 L760 239.6 L800 242.0 L840 242.7 L880 242.7 L920 244.2 L960 248.8 L1000 257.0 L1040 267.5 L1080 277.5 L1120 283.8 L1160 283.6" stroke="#0B86D1" opacity="0.144"/><path d="M0 294 L0 282.4 L40 283.1 L80 282.7 L120 282.8 L160 285.6 L200 292.2 L240 302.2 L280 313.7 L320 323.2 L360 327.5 L400 324.5 L440 314.3 L480 299.2 L520 283.1 L560 270.0 L600 263.1 L640 263.4 L680 269.8 L720 279.3 L760 288.9 L800 296.1 L840 299.9 L880 301.2 L920 301.7 L960 303.2 L1000 306.8 L1040 311.6 L1080 315.7 L1120 316.6 L1160 312.1" stroke="#F7B041" opacity="0.138"/><path d="M0 336 L0 332.8 L40 338.0 L80 340.4 L120 341.2 L160 342.6 L200 345.8 L240 351.0 L280 356.6 L320 360.2 L360 359.2 L400 352.3 L440 340.1 L480 325.0 L520 311.1 L560 302.0 L600 300.4 L640 306.6 L680 318.7 L720 333.1 L760 346.1 L800 354.6 L840 357.6 L880 355.9 L920 351.9 L960 347.9 L1000 345.5 L1040 344.8 L1080 344.5 L1120 342.7 L1160 337.7" stroke="#F7B041" opacity="0.132"/><path d="M0 378 L0 390.4 L40 396.5 L80 397.6 L120 395.2 L160 391.7 L200 389.2 L240 388.5 L280 388.8 L320 388.3 L360 385.1 L400 378.1 L440 367.8 L480 356.7 L520 347.9 L560 344.8 L600 349.0 L640 360.1 L680 375.6 L720 391.6 L760 403.8 L800 409.6 L840 408.2 L880 401.0 L920 391.0 L960 381.4 L1000 374.5 L1040 371.1 L1080 370.1 L1120 369.7 L1160 368.1" stroke="#0B86D1" opacity="0.126"/><path d="M0 420 L0 447.8 L40 450.8 L80 447.1 L120 439.0 L160 429.6 L200 421.7 L240 416.8 L280 414.8 L320 414.0 L360 412.7 L400 409.4 L440 404.2 L480 398.9 L520 396.0 L560 397.9 L600 405.7 L640 418.5 L680 433.5 L720 446.9 L760 454.8 L800 455.1 L840 447.7 L880 434.9 L920 420.4 L960 407.8 L1000 400.1 L1040 397.9 L1080 400.2 L1120 404.6 L1160 408.7" stroke="#F7B041" opacity="0.120"/><path d="M0 462 L0 497.7 L40 495.1 L80 485.5 L120 471.9 L160 458.2 L200 447.8 L240 442.5 L280 442.1 L320 445.0 L360 448.7 L400 451.2 L440 452.0 L480 451.8 L520 452.6 L560 456.3 L600 463.7 L640 474.1 L680 484.9 L720 492.8 L760 494.8 L800 489.4 L840 477.4 L880 461.5 L920 445.9 L960 434.5 L1000 429.8 L1040 432.4 L1080 440.4 L1120 450.7 L1160 460.3" stroke="#F7B041" opacity="0.114"/><path d="M0 504 L0 536.5 L40 528.3 L80 514.4 L120 498.1 L160 483.8 L200 474.9 L240 473.1 L280 477.7 L320 486.4 L360 496.0 L400 503.7 L440 508.3 L480 510.0 L520 510.7 L560 512.1 L600 515.4 L640 520.4 L680 525.3 L720 527.5 L760 524.8 L800 516.2 L840 502.9 L880 488.0 L920 475.4 L960 468.6 L1000 469.6 L1040 478.1 L1080 491.5 L1120 506.1 L1160 518.2" stroke="#0B86D1" opacity="0.108"/><path d="M0 546 L0 565.7 L40 554.7 L80 539.9 L120 525.1 L160 514.1 L200 510.1 L240 514.0 L280 524.6 L320 538.5 L360 552.0 L400 561.9 L440 566.5 L480 566.1 L520 562.8 L560 558.9 L600 556.3 L640 555.6 L680 555.6 L720 554.4 L760 550.3 L800 542.5 L840 532.1 L880 521.7 L920 514.7 L960 513.8 L1000 520.4 L1040 533.2 L1080 549.3 L1120 564.5 L1160 575.0" stroke="#F7B041" opacity="0.102"/><path d="M0 588 L0 591.2 L40 581.4 L80 569.9 L120 559.9 L160 554.6 L200 556.5 L240 565.8 L280 580.4 L320 596.6 L360 610.3 L400 618.2 L440 618.9 L480 613.3 L520 604.1 L560 594.4 L600 586.9 L640 582.7 L680 581.2 L720 580.7 L760 579.2 L800 575.8 L840 571.0 L880 566.5 L920 565.1 L960 568.7 L1000 578.0 L1040 591.7 L1080 606.4 L1120 618.2 L1160 623.8" stroke="#F7B041" opacity="0.096"/><path d="M0 630 L0 620.9 L40 615.8 L80 610.0 L120 605.8 L160 606.1 L200 612.1 L240 623.8 L280 638.7 L320 653.1 L360 663.1 L400 665.8 L440 660.7 L480 649.3 L520 635.0 L560 621.7 L600 612.5 L640 608.8 L680 609.8 L720 613.6 L760 617.6 L800 620.2 L840 621.0 L880 621.1 L920 622.6 L960 627.2 L1000 635.3 L1040 645.6 L1080 655.6 L1120 661.7 L1160 661.3" stroke="#0B86D1" opacity="0.090"/><path d="M0 672 L0 660.5 L40 661.4 L80 661.0 L120 661.2 L160 664.0 L200 670.5 L240 680.5 L280 691.8 L320 701.2 L360 705.3 L400 702.2 L440 691.9 L480 676.8 L520 660.7 L560 647.7 L600 640.9 L640 641.3 L680 647.8 L720 657.5 L760 667.2 L800 674.5 L840 678.3 L880 679.6 L920 680.0 L960 681.4 L1000 684.8 L1040 689.5 L1080 693.5 L1120 694.2 L1160 689.7" stroke="#F7B041" opacity="0.084"/><path d="M0 714 L0 711.2 L40 716.4 L80 718.8 L120 719.6 L160 720.9 L200 724.0 L240 729.0 L280 734.5 L320 738.0 L360 736.9 L400 729.9 L440 717.7 L480 702.7 L520 688.8 L560 679.9 L600 678.4 L640 684.8 L680 697.0 L720 711.5 L760 724.5 L800 732.9 L840 735.9 L880 734.1 L920 730.0 L960 725.8 L1000 723.2 L1040 722.5 L1080 722.2 L1120 720.3 L1160 715.4" stroke="#F7B041" opacity="0.078"/></g><g fill="#F7B041" opacity=".12"><circle cx="128" cy="1010" r="5"/><circle cx="220" cy="1077.3176787846317" r="9"/><circle cx="312" cy="1082.7437941460546" r="13"/><circle cx="404" cy="1021.2896006447894" r="5"/><circle cx="496" cy="949.4558003753657" r="9"/><circle cx="588" cy="933.2860580269489" r="13"/><circle cx="680" cy="987.6467601440859" r="5"/><circle cx="772" cy="1062.558927897503" r="9"/><circle cx="864" cy="1089.1486597298706" r="13"/></g></svg>