<svg class="bgsvg" viewBox="0 0 1080 1350" preserveAspectRatio="xMidYMid slice" xmlns="http://www.w3.org/2000/svg"><rect width="1080" height="1350" fill="#0A0B10"/><defs><radialGradient id="tlg9033" cx="4%" cy="3%" r="78%"><stop offset="0%" stop-color="rgba(247,176,65,0.58)"/><stop offset="34%" stop-color="rgba(247,176,65,0.16)"/><stop offset="78%" stop-color="rgba(247,176,65,0)"/></radialGradient><radialGradient id="brg9033" cx="96%" cy="97%" r="58%"><stop offset="0%" stop-color="rgba(11,134,209,0.42)"/><stop offset="38%" stop-color="rgba(11,134,209,0.13)"/><stop offset="78%" stop-color="rgba(11,134,209,0)"/></radialGradient></defs><rect width="1080" height="1350" fill="url(#brg9033)"/><rect x="70" y="520" width="60" height="36" fill="none" stroke="#0B86D1" opacity="0.08"/><rect x="188" y="520" width="82" height="48" fill="none" stroke="#F7B041" opacity="0.12"/><rect x="306" y="520" width="104" height="60" fill="none" stroke="#F7B041" opacity="0.16"/><rect x="424" y="520" width="60" height="72" fill="none" stroke="#F7B041" opacity="0.20"/><rect x="542" y="520" width="82" height="36" fill="none" stroke="#F7B041" opacity="0.08"/><rect x="660" y="520" width="104" height="48" fill="none" stroke="#0B86D1" opacity="0.12"/><rect x="778" y="520" width="60" height="60" fill="none" stroke="#F7B041" opacity="0.16"/><rect x="896" y="520" width="82" height="72" fill="none" stroke="#F7B041" opacity="0.20"/><rect x="70" y="602" width="104" height="36" fill="none" stroke="#F7B041" opacity="0.08"/><rect x="188" y="602" width="60" height="48" fill="none" stroke="#F7B041" opacity="0.12"/><rect x="306" y="602" width="82" height="60" fill="none" stroke="#0B86D1" opacity="0.16"/><rect x="424" y="602" width="104" height="72" fill="none" stroke="#F7B041" opacity="0.20"/><rect x="542" y="602" width="60" height="36" fill="none" stroke="#F7B041" opacity="0.08"/><rect x="660" y="602" width="82" height="48" fill="none" stroke="#F7B041" opacity="0.12"/><rect x="778" y="602" width="104" height="60" fill="none" stroke="#F7B041" opacity="0.16"/><rect x="896" y="602" width="60" height="72" fill="none" stroke="#0B86D1" opacity="0.20"/><rect x="70" y="684" width="82" height="36" fill="none" stroke="#F7B041" opacity="0.08"/><rect x="188" y="684" width="104" height="48" fill="none" stroke="#F7B041" opacity="0.12"/><rect x="306" y="684" width="60" height="60" fill="none" stroke="#F7B041" opacity="0.16"/><rect x="424" y="684" width="82" height="72" fill="none" stroke="#F7B041" opacity="0.20"/><rect x="542" y="684" width="104" height="36" fill="none" stroke="#0B86D1" opacity="0.08"/><rect x="660" y="684" width="60" height="48" fill="none" stroke="#F7B041" opacity="0.12"/><rect x="778" y="684" width="82" height="60" fill="none" stroke="#F7B041" opacity="0.16"/><rect x="896" y="684" width="104" height="72" fill="none" stroke="#F7B041" opacity="0.20"/><rect x="70" y="766" width="60" height="36" fill="none" stroke="#F7B041" opacity="0.08"/><rect x="188" y="766" width="82" height="48" fill="none" stroke="#0B86D1" opacity="0.12"/><rect x="306" y="766" width="104" height="60" fill="none" stroke="#F7B041" opacity="0.16"/><rect x="424" y="766" width="60" height="72" fill="none" stroke="#F7B041" opacity="0.20"/><rect x="542" y="766" width="82" height="36" fill="none" stroke="#F7B041" opacity="0.08"/><rect x="660" y="766" width="104" height="48" fill="none" stroke="#F7B041" opacity="0.12"/><rect x="778" y="766" width="60" height="60" fill="none" stroke="#0B86D1" opacity="0.16"/><rect x="896" y="766" width="82" height="72" fill="none" stroke="#F7B041" opacity="0.20"/><rect x="70" y="848" width="104" height="36" fill="none" stroke="#F7B041" opacity="0.08"/><rect x="188" y="848" width="60" height="48" fill="none" stroke="#F7B041" opacity="0.12"/><rect x="306" y="848" width="82" height="60" fill="none" stroke="#F7B041" opacity="0.16"/><rect x="424" y="848" width="104" height="72" fill="none" stroke="#0B86D1" opacity="0.20"/><rect x="542" y="848" width="60" height="36" fill="none" stroke="#F7B041" opacity="0.08"/><rect x="660" y="848" width="82" height="48" fill="none" stroke="#F7B041" opacity="0.12"/><rect x="778" y="848" width="104" height="60" fill="none" stroke="#F7B041" opacity="0.16"/><rect x="896" y="848" width="60" height="72" fill="none" stroke="#F7B041" opacity="0.20"/><rect x="70" y="930" width="82" height="36" fill="none" stroke="#0B86D1" opacity="0.08"/><rect x="188" y="930" width="104" height="48" fill="none" stroke="#F7B041" opacity="0.12"/><rect x="306" y="930" width="60" height="60" fill="none" stroke="#F7B041" opacity="0.16"/><rect x="424" y="930" width="82" height="72" fill="none" stroke="#F7B041" opacity="0.20"/><rect x="542" y="930" width="104" height="36" fill="none" stroke="#F7B041" opacity="0.08"/><rect x="660" y="930" width="60" height="48" fill="none" stroke="#0B86D1" opacity="0.12"/><rect x="778" y="930" width="82" height="60" fill="none" stroke="#F7B041" opacity="0.16"/><rect x="896" y="930" width="104" height="72" fill="none" stroke="#F7B041" opacity="0.20"/><rect x="70" y="1012" width="60" height="36" fill="none" stroke="#F7B041" opacity="0.08"/><rect x="188" y="1012" width="82" height="48" fill="none" stroke="#F7B041" opacity="0.12"/><rect x="306" y="1012" width="104" height="60" fill="none" stroke="#0B86D1" opacity="0.16"/><rect x="424" y="1012" width="60" height="72" fill="none" stroke="#F7B041" opacity="0.20"/><rect x="542" y="1012" width="82" height="36" fill="none" stroke="#F7B041" opacity="0.08"/><rect x="660" y="1012" width="104" height="48" fill="none" stroke="#F7B041" opacity="0.12"/><rect x="778" y="1012" width="60" height="60" fill="none" stroke="#F7B041" opacity="0.16"/><rect x="896" y="1012" width="82" height="72" fill="none" stroke="#0B86D1" opacity="0.20"/><g stroke="#FFFFFF" stroke-width="1" opacity="0.025"><line x1="216" y1="0" x2="216" y2="1350"/><line x1="432" y1="0" x2="432" y2="1350"/><line x1="648" y1="0" x2="648" y2="1350"/><line x1="864" y1="0" x2="864" y2="1350"/><line x1="0" y1="225" x2="1080" y2="225"/><line x1="0" y1="450" x2="1080" y2="450"/><line x1="0" y1="675" x2="1080" y2="675"/><line x1="0" y1="900" x2="1080" y2="900"/><line x1="0" y1="1125" x2="1080" y2="1125"/></g></svg>