<svg class="bgsvg" viewBox="0 0 1080 1350" preserveAspectRatio="xMidYMid slice" xmlns="http://www.w3.org/2000/svg"><rect width="1080" height="1350" fill="#0A0B10"/><defs><radialGradient id="tlg9034" cx="6%" cy="5%" r="80%"><stop offset="0%" stop-color="rgba(247,176,65,0.5)"/><stop offset="36%" stop-color="rgba(247,176,65,0.14)"/><stop offset="80%" stop-color="rgba(247,176,65,0)"/></radialGradient></defs><rect width="1080" height="1350" fill="url(#tlg9034)"/><rect x="90" y="200" width="900" height="950" rx="22" fill="#F7B041" fill-opacity=".014" stroke="#F7B041" stroke-opacity=".22" stroke-width="2.4"/><rect x="116" y="183" width="20" height="10" rx="2" fill="#F7B041" opacity="0.17"/><rect x="116" y="1157" width="20" height="10" rx="2" fill="#F7B041" opacity="0.20"/><rect x="160" y="183" width="20" height="10" rx="2" fill="#F7B041" opacity="0.17"/><rect x="160" y="1157" width="20" height="10" rx="2" fill="#F7B041" opacity="0.17"/><rect x="204" y="183" width="20" height="10" rx="2" fill="#F7B041" opacity="0.10"/><rect x="204" y="1157" width="20" height="10" rx="2" fill="#F7B041" opacity="0.18"/><rect x="248" y="183" width="20" height="10" rx="2" fill="#F7B041" opacity="0.14"/><rect x="248" y="1157" width="20" height="10" rx="2" fill="#F7B041" opacity="0.16"/><rect x="292" y="183" width="20" height="10" rx="2" fill="#F7B041" opacity="0.19"/><rect x="292" y="1157" width="20" height="10" rx="2" fill="#F7B041" opacity="0.23"/><rect x="336" y="183" width="20" height="10" rx="2" fill="#F7B041" opacity="0.23"/><rect x="336" y="1157" width="20" height="10" rx="2" fill="#F7B041" opacity="0.21"/><rect x="380" y="183" width="20" height="10" rx="2" fill="#F7B041" opacity="0.23"/><rect x="380" y="1157" width="20" height="10" rx="2" fill="#F7B041" opacity="0.09"/><rect x="424" y="183" width="20" height="10" rx="2" fill="#F7B041" opacity="0.17"/><rect x="424" y="1157" width="20" height="10" rx="2" fill="#F7B041" opacity="0.20"/><rect x="468" y="183" width="20" height="10" rx="2" fill="#F7B041" opacity="0.18"/><rect x="468" y="1157" width="20" height="10" rx="2" fill="#F7B041" opacity="0.09"/><rect x="512" y="183" width="20" height="10" rx="2" fill="#F7B041" opacity="0.22"/><rect x="512" y="1157" width="20" height="10" rx="2" fill="#F7B041" opacity="0.18"/><rect x="556" y="183" width="20" height="10" rx="2" fill="#F7B041" opacity="0.23"/><rect x="556" y="1157" width="20" height="10" rx="2" fill="#F7B041" opacity="0.20"/><rect x="600" y="183" width="20" height="10" rx="2" fill="#F7B041" opacity="0.22"/><rect x="600" y="1157" width="20" height="10" rx="2" fill="#F7B041" opacity="0.11"/><rect x="644" y="183" width="20" height="10" rx="2" fill="#F7B041" opacity="0.13"/><rect x="644" y="1157" width="20" height="10" rx="2" fill="#F7B041" opacity="0.22"/><rect x="688" y="183" width="20" height="10" rx="2" fill="#F7B041" opacity="0.13"/><rect x="688" y="1157" width="20" height="10" rx="2" fill="#F7B041" opacity="0.16"/><rect x="732" y="183" width="20" height="10" rx="2" fill="#F7B041" opacity="0.20"/><rect x="732" y="1157" width="20" height="10" rx="2" fill="#F7B041" opacity="0.18"/><rect x="776" y="183" width="20" height="10" rx="2" fill="#F7B041" opacity="0.21"/><rect x="776" y="1157" width="20" height="10" rx="2" fill="#F7B041" opacity="0.18"/><rect x="820" y="183" width="20" height="10" rx="2" fill="#F7B041" opacity="0.18"/><rect x="820" y="1157" width="20" height="10" rx="2" fill="#F7B041" opacity="0.20"/><rect x="864" y="183" width="20" height="10" rx="2" fill="#F7B041" opacity="0.16"/><rect x="864" y="1157" width="20" height="10" rx="2" fill="#F7B041" opacity="0.22"/><rect x="908" y="183" width="20" height="10" rx="2" fill="#F7B041" opacity="0.21"/><rect x="908" y="1157" width="20" height="10" rx="2" fill="#F7B041" opacity="0.21"/><rect x="73" y="226" width="10" height="20" rx="2" fill="#F7B041" opacity="0.18"/><rect x="997" y="226" width="10" height="20" rx="2" fill="#F7B041" opacity="0.22"/><rect x="73" y="274" width="10" height="20" rx="2" fill="#F7B041" opacity="0.16"/><rect x="997" y="274" width="10" height="20" rx="2" fill="#F7B041" opacity="0.20"/><rect x="73" y="322" width="10" height="20" rx="2" fill="#F7B041" opacity="0.20"/><rect x="997" y="322" width="10" height="20" rx="2" fill="#F7B041" opacity="0.20"/><rect x="73" y="370" width="10" height="20" rx="2" fill="#F7B041" opacity="0.10"/><rect x="997" y="370" width="10" height="20" rx="2" fill="#F7B041" opacity="0.11"/><rect x="73" y="418" width="10" height="20" rx="2" fill="#F7B041" opacity="0.13"/><rect x="997" y="418" width="10" height="20" rx="2" fill="#F7B041" opacity="0.21"/><rect x="73" y="466" width="10" height="20" rx="2" fill="#F7B041" opacity="0.14"/><rect x="997" y="466" width="10" height="20" rx="2" fill="#F7B041" opacity="0.21"/><rect x="73" y="514" width="10" height="20" rx="2" fill="#F7B041" opacity="0.12"/><rect x="997" y="514" width="10" height="20" rx="2" fill="#F7B041" opacity="0.15"/><rect x="73" y="562" width="10" height="20" rx="2" fill="#F7B041" opacity="0.16"/><rect x="997" y="562" width="10" height="20" rx="2" fill="#F7B041" opacity="0.21"/><rect x="73" y="610" width="10" height="20" rx="2" fill="#F7B041" opacity="0.11"/><rect x="997" y="610" width="10" height="20" rx="2" fill="#F7B041" opacity="0.23"/><rect x="73" y="658" width="10" height="20" rx="2" fill="#F7B041" opacity="0.23"/><rect x="997" y="658" width="10" height="20" rx="2" fill="#F7B041" opacity="0.16"/><rect x="73" y="706" width="10" height="20" rx="2" fill="#F7B041" opacity="0.10"/><rect x="997" y="706" width="10" height="20" rx="2" fill="#F7B041" opacity="0.19"/><rect x="73" y="754" width="10" height="20" rx="2" fill="#F7B041" opacity="0.18"/><rect x="997" y="754" width="10" height="20" rx="2" fill="#F7B041" opacity="0.24"/><rect x="73" y="802" width="10" height="20" rx="2" fill="#F7B041" opacity="0.19"/><rect x="997" y="802" width="10" height="20" rx="2" fill="#F7B041" opacity="0.21"/><rect x="73" y="850" width="10" height="20" rx="2" fill="#F7B041" opacity="0.16"/><rect x="997" y="850" width="10" height="20" rx="2" fill="#F7B041" opacity="0.24"/><rect x="73" y="898" width="10" height="20" rx="2" fill="#F7B041" opacity="0.21"/><rect x="997" y="898" width="10" height="20" rx="2" fill="#F7B041" opacity="0.20"/><rect x="73" y="946" width="10" height="20" rx="2" fill="#F7B041" opacity="0.21"/><rect x="997" y="946" width="10" height="20" rx="2" fill="#F7B041" opacity="0.17"/><rect x="73" y="994" width="10" height="20" rx="2" fill="#F7B041" opacity="0.16"/><rect x="997" y="994" width="10" height="20" rx="2" fill="#F7B041" opacity="0.18"/><rect x="73" y="1042" width="10" height="20" rx="2" fill="#F7B041" opacity="0.18"/><rect x="997" y="1042" width="10" height="20" rx="2" fill="#F7B041" opacity="0.10"/><rect x="73" y="1090" width="10" height="20" rx="2" fill="#F7B041" opacity="0.12"/><rect x="997" y="1090" width="10" height="20" rx="2" fill="#F7B041" opacity="0.12"/><rect x="124.0" y="234.0" width="153.6" height="163.6" rx="10" fill="#F7B041" fill-opacity="0.050" stroke="#F7B041" stroke-opacity="0.12" stroke-width="1.2"/><rect x="293.6" y="234.0" width="153.6" height="163.6" rx="10" fill="#F7B041" fill-opacity="0.046" stroke="#F7B041" stroke-opacity="0.12" stroke-width="1.2"/><rect x="307.6" y="248.0" width="56" height="8" rx="4" fill="#F7B041" opacity=".14"/><rect x="463.2" y="234.0" width="153.6" height="163.6" rx="10" fill="#F7B041" fill-opacity="0.041" stroke="#F7B041" stroke-opacity="0.12" stroke-width="1.2"/><rect x="632.8" y="234.0" width="153.6" height="163.6" rx="10" fill="#F7B041" fill-opacity="0.020" stroke="#F7B041" stroke-opacity="0.12" stroke-width="1.2"/><rect x="802.4" y="234.0" width="153.6" height="163.6" rx="10" fill="#F7B041" fill-opacity="0.052" stroke="#F7B041" stroke-opacity="0.12" stroke-width="1.2"/><rect x="124.0" y="413.6" width="153.6" height="163.6" rx="10" fill="#F7B041" fill-opacity="0.1" stroke="#F7B041" stroke-opacity="0.34" stroke-width="1.2"/><rect x="293.6" y="413.6" width="153.6" height="163.6" rx="10" fill="#F7B041" fill-opacity="0.054" stroke="#F7B041" stroke-opacity="0.12" stroke-width="1.2"/><rect x="463.2" y="413.6" width="153.6" height="163.6" rx="10" fill="#F7B041" fill-opacity="0.028" stroke="#F7B041" stroke-opacity="0.12" stroke-width="1.2"/><rect x="477.2" y="427.6" width="67" height="8" rx="4" fill="#F7B041" opacity=".14"/><rect x="632.8" y="413.6" width="153.6" height="163.6" rx="10" fill="#F7B041" fill-opacity="0.035" stroke="#F7B041" stroke-opacity="0.12" stroke-width="1.2"/><rect x="802.4" y="413.6" width="153.6" height="163.6" rx="10" fill="#F7B041" fill-opacity="0.046" stroke="#F7B041" stroke-opacity="0.12" stroke-width="1.2"/><rect x="124.0" y="593.2" width="153.6" height="163.6" rx="10" fill="#F7B041" fill-opacity="0.048" stroke="#F7B041" stroke-opacity="0.12" stroke-width="1.2"/><rect x="138.0" y="607.2" width="39" height="8" rx="4" fill="#F7B041" opacity=".14"/><rect x="293.6" y="593.2" width="153.6" height="163.6" rx="10" fill="#F7B041" fill-opacity="0.055" stroke="#F7B041" stroke-opacity="0.12" stroke-width="1.2"/><rect x="307.6" y="607.2" width="49" height="8" rx="4" fill="#F7B041" opacity=".14"/><rect x="463.2" y="593.2" width="153.6" height="163.6" rx="10" fill="#F7B041" fill-opacity="0.028" stroke="#F7B041" stroke-opacity="0.12" stroke-width="1.2"/><rect x="632.8" y="593.2" width="153.6" height="163.6" rx="10" fill="#F7B041" fill-opacity="0.045" stroke="#F7B041" stroke-opacity="0.12" stroke-width="1.2"/><rect x="802.4" y="593.2" width="153.6" height="163.6" rx="10" fill="#F7B041" fill-opacity="0.023" stroke="#F7B041" stroke-opacity="0.12" stroke-width="1.2"/><rect x="124.0" y="772.8" width="153.6" height="163.6" rx="10" fill="#F7B041" fill-opacity="0.1" stroke="#F7B041" stroke-opacity="0.34" stroke-width="1.2"/><rect x="138.0" y="786.8" width="105" height="8" rx="4" fill="#F7B041" opacity=".14"/><rect x="293.6" y="772.8" width="153.6" height="163.6" rx="10" fill="#F7B041" fill-opacity="0.1" stroke="#F7B041" stroke-opacity="0.34" stroke-width="1.2"/><rect x="463.2" y="772.8" width="153.6" height="163.6" rx="10" fill="#F7B041" fill-opacity="0.1" stroke="#F7B041" stroke-opacity="0.34" stroke-width="1.2"/><rect x="632.8" y="772.8" width="153.6" height="163.6" rx="10" fill="#F7B041" fill-opacity="0.1" stroke="#F7B041" stroke-opacity="0.34" stroke-width="1.2"/><rect x="802.4" y="772.8" width="153.6" height="163.6" rx="10" fill="#F7B041" fill-opacity="0.034" stroke="#F7B041" stroke-opacity="0.12" stroke-width="1.2"/><rect x="124.0" y="952.4" width="153.6" height="163.6" rx="10" fill="#F7B041" fill-opacity="0.021" stroke="#F7B041" stroke-opacity="0.12" stroke-width="1.2"/><rect x="138.0" y="966.4" width="60" height="8" rx="4" fill="#F7B041" opacity=".14"/><rect x="293.6" y="952.4" width="153.6" height="163.6" rx="10" fill="#F7B041" fill-opacity="0.025" stroke="#F7B041" stroke-opacity="0.12" stroke-width="1.2"/><rect x="463.2" y="952.4" width="153.6" height="163.6" rx="10" fill="#F7B041" fill-opacity="0.1" stroke="#F7B041" stroke-opacity="0.34" stroke-width="1.2"/><rect x="632.8" y="952.4" width="153.6" height="163.6" rx="10" fill="#F7B041" fill-opacity="0.026" stroke="#F7B041" stroke-opacity="0.12" stroke-width="1.2"/><rect x="802.4" y="952.4" width="153.6" height="163.6" rx="10" fill="#F7B041" fill-opacity="0.036" stroke="#F7B041" stroke-opacity="0.12" stroke-width="1.2"/><rect x="816.4" y="966.4" width="49" height="8" rx="4" fill="#F7B041" opacity=".14"/><g stroke="#FFFFFF" stroke-width="1" opacity="0.02"><line x1="216" y1="0" x2="216" y2="1350"/><line x1="432" y1="0" x2="432" y2="1350"/><line x1="648" y1="0" x2="648" y2="1350"/><line x1="864" y1="0" x2="864" y2="1350"/><line x1="0" y1="225" x2="1080" y2="225"/><line x1="0" y1="450" x2="1080" y2="450"/><line x1="0" y1="675" x2="1080" y2="675"/><line x1="0" y1="900" x2="1080" y2="900"/><line x1="0" y1="1125" x2="1080" y2="1125"/></g></svg>