<svg class="bgsvg" viewBox="0 0 1080 1350" preserveAspectRatio="xMidYMid slice" xmlns="http://www.w3.org/2000/svg"><rect width="1080" height="1350" fill="#0A0B10"/><defs><radialGradient id="tlg9031" cx="4%" cy="3%" r="78%"><stop offset="0%" stop-color="rgba(247,176,65,0.58)"/><stop offset="34%" stop-color="rgba(247,176,65,0.16)"/><stop offset="78%" stop-color="rgba(247,176,65,0)"/></radialGradient><radialGradient id="brg9031" cx="96%" cy="97%" r="58%"><stop offset="0%" stop-color="rgba(11,134,209,0.42)"/><stop offset="38%" stop-color="rgba(11,134,209,0.13)"/><stop offset="78%" stop-color="rgba(11,134,209,0)"/></radialGradient></defs><rect width="1080" height="1350" fill="url(#brg9031)"/><circle cx="424.1" cy="623.8" r="2.77" fill="#F7B041" opacity="0.337"/><circle cx="752.8" cy="690.5" r="4.06" fill="#F7B041" opacity="0.402"/><circle cx="110.0" cy="679.3" r="2.06" fill="#F7B041" opacity="0.175"/><circle cx="882.6" cy="605.6" r="2.81" fill="#F7B041" opacity="0.450"/><circle cx="781.9" cy="766.3" r="1.70" fill="#F7B041" opacity="0.255"/><circle cx="817.7" cy="566.7" r="3.04" fill="#F7B041" opacity="0.292"/><circle cx="793.8" cy="708.5" r="3.20" fill="#F7B041" opacity="0.293"/><circle cx="449.2" cy="573.0" r="2.04" fill="#0B86D1" opacity="0.388"/><circle cx="168.3" cy="700.2" r="3.67" fill="#F7B041" opacity="0.100"/><circle cx="868.7" cy="596.4" r="1.71" fill="#F7B041" opacity="0.309"/><circle cx="902.6" cy="577.9" r="2.11" fill="#F7B041" opacity="0.199"/><circle cx="774.9" cy="649.9" r="3.22" fill="#F7B041" opacity="0.123"/><circle cx="595.2" cy="660.5" r="4.88" fill="#F7B041" opacity="0.326"/><circle cx="224.0" cy="749.3" r="2.79" fill="#F7B041" opacity="0.127"/><circle cx="394.1" cy="637.2" r="3.65" fill="#F7B041" opacity="0.315"/><circle cx="670.4" cy="784.1" r="4.18" fill="#F7B041" opacity="0.248"/><circle cx="817.7" cy="630.0" r="1.96" fill="#F7B041" opacity="0.278"/><circle cx="942.8" cy="529.9" r="1.86" fill="#F7B041" opacity="0.355"/><circle cx="49.0" cy="704.1" r="4.61" fill="#F7B041" opacity="0.369"/><circle cx="478.8" cy="638.1" r="1.60" fill="#F7B041" opacity="0.305"/><circle cx="680.0" cy="750.9" r="3.08" fill="#F7B041" opacity="0.473"/><circle cx="134.2" cy="681.2" r="4.96" fill="#F7B041" opacity="0.482"/><circle cx="200.0" cy="629.0" r="3.24" fill="#F7B041" opacity="0.118"/><circle cx="147.8" cy="730.2" r="1.96" fill="#F7B041" opacity="0.367"/><circle cx="155.3" cy="657.3" r="1.86" fill="#F7B041" opacity="0.411"/><circle cx="715.4" cy="805.3" r="2.35" fill="#0B86D1" opacity="0.101"/><circle cx="239.0" cy="747.4" r="3.23" fill="#0B86D1" opacity="0.110"/><circle cx="471.3" cy="646.5" r="4.38" fill="#F7B041" opacity="0.214"/><circle cx="454.4" cy="624.4" r="1.82" fill="#F7B041" opacity="0.347"/><circle cx="676.9" cy="803.4" r="4.83" fill="#F7B041" opacity="0.142"/><circle cx="469.8" cy="602.5" r="2.56" fill="#F7B041" opacity="0.271"/><circle cx="91.8" cy="623.5" r="2.24" fill="#F7B041" opacity="0.460"/><circle cx="806.2" cy="567.6" r="4.17" fill="#F7B041" opacity="0.442"/><circle cx="20.6" cy="673.6" r="2.42" fill="#F7B041" opacity="0.157"/><circle cx="588.4" cy="550.3" r="2.50" fill="#F7B041" opacity="0.076"/><circle cx="566.3" cy="661.3" r="3.70" fill="#F7B041" opacity="0.445"/><circle cx="985.9" cy="632.8" r="4.90" fill="#F7B041" opacity="0.474"/><circle cx="8.4" cy="623.7" r="1.79" fill="#F7B041" opacity="0.350"/><circle cx="137.4" cy="668.8" r="1.14" fill="#F7B041" opacity="0.380"/><circle cx="747.1" cy="649.8" r="4.17" fill="#F7B041" opacity="0.404"/><circle cx="494.2" cy="635.9" r="3.73" fill="#F7B041" opacity="0.459"/><circle cx="948.2" cy="619.2" r="4.02" fill="#F7B041" opacity="0.410"/><circle cx="75.8" cy="616.7" r="4.60" fill="#F7B041" opacity="0.399"/><circle cx="878.9" cy="555.7" r="4.80" fill="#F7B041" opacity="0.416"/><circle cx="682.2" cy="681.9" r="1.01" fill="#F7B041" opacity="0.117"/><circle cx="693.3" cy="796.1" r="1.34" fill="#F7B041" opacity="0.266"/><circle cx="552.7" cy="509.4" r="2.42" fill="#F7B041" opacity="0.191"/><circle cx="365.6" cy="579.4" r="4.12" fill="#F7B041" opacity="0.483"/><circle cx="186.6" cy="773.5" r="3.15" fill="#F7B041" opacity="0.253"/><circle cx="623.3" cy="757.0" r="4.35" fill="#F7B041" opacity="0.487"/><circle cx="1045.4" cy="587.0" r="2.36" fill="#F7B041" opacity="0.235"/><circle cx="426.4" cy="514.6" r="2.66" fill="#0B86D1" opacity="0.357"/><circle cx="229.2" cy="713.6" r="2.56" fill="#0B86D1" opacity="0.423"/><circle cx="222.8" cy="694.0" r="4.24" fill="#0B86D1" opacity="0.116"/><circle cx="648.8" cy="639.6" r="4.87" fill="#0B86D1" opacity="0.294"/><circle cx="456.0" cy="455.6" r="2.00" fill="#F7B041" opacity="0.289"/><circle cx="965.6" cy="600.1" r="2.79" fill="#F7B041" opacity="0.372"/><circle cx="523.8" cy="533.9" r="3.70" fill="#F7B041" opacity="0.343"/><circle cx="899.0" cy="530.9" r="2.62" fill="#F7B041" opacity="0.259"/><circle cx="927.5" cy="537.3" r="3.87" fill="#F7B041" opacity="0.280"/><circle cx="576.6" cy="561.9" r="4.78" fill="#F7B041" opacity="0.234"/><circle cx="230.9" cy="727.5" r="2.96" fill="#F7B041" opacity="0.277"/><circle cx="816.9" cy="613.8" r="3.41" fill="#F7B041" opacity="0.340"/><circle cx="32.4" cy="646.9" r="4.76" fill="#F7B041" opacity="0.488"/><circle cx="427.8" cy="524.2" r="2.98" fill="#F7B041" opacity="0.472"/><circle cx="1014.3" cy="584.1" r="4.55" fill="#F7B041" opacity="0.146"/><circle cx="54.2" cy="760.8" r="3.70" fill="#F7B041" opacity="0.163"/><circle cx="678.7" cy="628.5" r="1.78" fill="#F7B041" opacity="0.133"/><circle cx="450.8" cy="615.7" r="1.11" fill="#F7B041" opacity="0.125"/><circle cx="927.7" cy="639.0" r="1.41" fill="#F7B041" opacity="0.070"/><circle cx="368.9" cy="625.3" r="1.10" fill="#F7B041" opacity="0.215"/><circle cx="458.7" cy="616.4" r="3.10" fill="#F7B041" opacity="0.313"/><circle cx="490.9" cy="613.6" r="2.51" fill="#F7B041" opacity="0.424"/><circle cx="539.0" cy="622.4" r="1.83" fill="#0B86D1" opacity="0.292"/><circle cx="250.9" cy="603.4" r="3.22" fill="#F7B041" opacity="0.369"/><circle cx="108.6" cy="704.4" r="4.85" fill="#F7B041" opacity="0.290"/><circle cx="955.6" cy="458.5" r="2.74" fill="#0B86D1" opacity="0.372"/><circle cx="189.8" cy="686.4" r="1.83" fill="#F7B041" opacity="0.462"/><circle cx="467.2" cy="459.9" r="3.01" fill="#F7B041" opacity="0.406"/><circle cx="371.9" cy="531.9" r="1.55" fill="#F7B041" opacity="0.427"/><circle cx="688.0" cy="614.7" r="1.34" fill="#F7B041" opacity="0.393"/><circle cx="550.6" cy="566.5" r="4.53" fill="#F7B041" opacity="0.285"/><circle cx="764.7" cy="614.9" r="4.13" fill="#F7B041" opacity="0.413"/><circle cx="648.8" cy="788.7" r="2.32" fill="#F7B041" opacity="0.289"/><circle cx="1060.0" cy="476.3" r="2.52" fill="#F7B041" opacity="0.416"/><circle cx="549.2" cy="556.8" r="3.04" fill="#F7B041" opacity="0.183"/><circle cx="642.1" cy="581.0" r="4.44" fill="#0B86D1" opacity="0.297"/><circle cx="122.1" cy="800.5" r="1.66" fill="#F7B041" opacity="0.256"/><circle cx="709.3" cy="745.1" r="3.60" fill="#F7B041" opacity="0.323"/><circle cx="1058.0" cy="540.8" r="4.52" fill="#F7B041" opacity="0.281"/><circle cx="88.0" cy="756.4" r="3.04" fill="#F7B041" opacity="0.296"/><circle cx="163.5" cy="703.2" r="3.09" fill="#0B86D1" opacity="0.421"/><circle cx="174.2" cy="796.4" r="3.02" fill="#F7B041" opacity="0.251"/><circle cx="318.9" cy="594.0" r="1.86" fill="#F7B041" opacity="0.374"/><circle cx="776.7" cy="605.2" r="1.27" fill="#F7B041" opacity="0.258"/><circle cx="610.3" cy="741.9" r="2.56" fill="#F7B041" opacity="0.277"/><circle cx="311.7" cy="658.2" r="4.78" fill="#0B86D1" opacity="0.488"/><circle cx="830.5" cy="613.3" r="4.62" fill="#F7B041" opacity="0.228"/><circle cx="919.0" cy="663.6" r="4.68" fill="#F7B041" opacity="0.178"/><circle cx="55.6" cy="594.0" r="3.81" fill="#F7B041" opacity="0.316"/><circle cx="252.2" cy="545.3" r="4.92" fill="#0B86D1" opacity="0.354"/><circle cx="176.3" cy="626.1" r="1.79" fill="#0B86D1" opacity="0.125"/><circle cx="999.5" cy="500.0" r="2.68" fill="#F7B041" opacity="0.417"/><circle cx="843.5" cy="678.2" r="2.67" fill="#F7B041" opacity="0.454"/><circle cx="915.4" cy="615.9" r="3.23" fill="#F7B041" opacity="0.187"/><circle cx="100.0" cy="591.4" r="1.88" fill="#0B86D1" opacity="0.410"/><circle cx="97.8" cy="747.4" r="2.76" fill="#F7B041" opacity="0.099"/><circle cx="290.8" cy="530.3" r="2.32" fill="#0B86D1" opacity="0.373"/><circle cx="942.5" cy="528.1" r="3.57" fill="#F7B041" opacity="0.188"/><circle cx="364.2" cy="451.9" r="4.98" fill="#F7B041" opacity="0.125"/><circle cx="564.2" cy="563.7" r="2.04" fill="#F7B041" opacity="0.285"/><circle cx="687.6" cy="691.2" r="2.76" fill="#F7B041" opacity="0.271"/><circle cx="248.0" cy="650.8" r="3.92" fill="#F7B041" opacity="0.446"/><circle cx="360.8" cy="647.1" r="2.23" fill="#F7B041" opacity="0.437"/><circle cx="209.6" cy="604.8" r="2.98" fill="#F7B041" opacity="0.150"/><circle cx="698.9" cy="695.2" r="4.25" fill="#F7B041" opacity="0.183"/><circle cx="746.3" cy="617.3" r="1.86" fill="#F7B041" opacity="0.288"/><circle cx="388.9" cy="513.0" r="3.43" fill="#F7B041" opacity="0.140"/><circle cx="37.1" cy="687.5" r="2.06" fill="#0B86D1" opacity="0.095"/><circle cx="177.8" cy="766.8" r="2.16" fill="#F7B041" opacity="0.362"/><circle cx="556.7" cy="609.5" r="2.32" fill="#F7B041" opacity="0.250"/><circle cx="186.6" cy="683.4" r="2.21" fill="#F7B041" opacity="0.465"/><circle cx="736.7" cy="741.6" r="4.31" fill="#F7B041" opacity="0.244"/><circle cx="993.4" cy="491.7" r="2.90" fill="#0B86D1" opacity="0.230"/><circle cx="942.7" cy="465.5" r="3.33" fill="#F7B041" opacity="0.391"/><circle cx="136.1" cy="646.3" r="1.40" fill="#F7B041" opacity="0.409"/><circle cx="311.9" cy="631.3" r="2.25" fill="#F7B041" opacity="0.481"/><circle cx="785.6" cy="579.6" r="4.31" fill="#F7B041" opacity="0.296"/><circle cx="147.4" cy="779.3" r="4.74" fill="#F7B041" opacity="0.137"/><circle cx="25.0" cy="549.2" r="2.11" fill="#F7B041" opacity="0.446"/><circle cx="76.5" cy="740.5" r="2.55" fill="#F7B041" opacity="0.341"/><circle cx="587.1" cy="659.6" r="4.38" fill="#0B86D1" opacity="0.149"/><circle cx="402.2" cy="638.3" r="1.53" fill="#F7B041" opacity="0.315"/><circle cx="244.6" cy="738.2" r="1.14" fill="#F7B041" opacity="0.225"/><circle cx="612.5" cy="690.8" r="4.53" fill="#0B86D1" opacity="0.093"/><circle cx="5.2" cy="590.0" r="3.48" fill="#0B86D1" opacity="0.465"/><circle cx="651.3" cy="758.0" r="4.73" fill="#F7B041" opacity="0.158"/><circle cx="849.5" cy="582.6" r="2.26" fill="#F7B041" opacity="0.359"/><circle cx="867.7" cy="620.0" r="4.10" fill="#F7B041" opacity="0.271"/><circle cx="366.7" cy="557.6" r="2.02" fill="#0B86D1" opacity="0.273"/><circle cx="726.9" cy="759.7" r="1.57" fill="#0B86D1" opacity="0.246"/><circle cx="656.7" cy="699.3" r="3.83" fill="#F7B041" opacity="0.430"/><circle cx="882.5" cy="662.8" r="1.17" fill="#F7B041" opacity="0.365"/><circle cx="855.0" cy="588.7" r="4.80" fill="#F7B041" opacity="0.131"/><circle cx="859.6" cy="619.7" r="3.82" fill="#F7B041" opacity="0.168"/><circle cx="989.7" cy="584.9" r="2.59" fill="#0B86D1" opacity="0.139"/><circle cx="264.6" cy="574.6" r="2.03" fill="#0B86D1" opacity="0.429"/><circle cx="1024.1" cy="520.2" r="3.94" fill="#F7B041" opacity="0.157"/><circle cx="118.6" cy="641.1" r="2.04" fill="#F7B041" opacity="0.405"/><circle cx="586.8" cy="689.8" r="1.76" fill="#F7B041" opacity="0.160"/><circle cx="1002.9" cy="486.6" r="4.95" fill="#F7B041" opacity="0.240"/><circle cx="658.8" cy="652.8" r="1.52" fill="#F7B041" opacity="0.418"/><circle cx="885.0" cy="516.3" r="4.55" fill="#F7B041" opacity="0.357"/><circle cx="857.7" cy="618.7" r="1.48" fill="#F7B041" opacity="0.165"/><circle cx="797.5" cy="608.8" r="2.32" fill="#F7B041" opacity="0.393"/><circle cx="105.5" cy="617.0" r="2.00" fill="#F7B041" opacity="0.380"/><circle cx="814.4" cy="584.8" r="1.06" fill="#0B86D1" opacity="0.130"/><circle cx="987.4" cy="481.6" r="1.78" fill="#0B86D1" opacity="0.445"/><circle cx="77.1" cy="742.1" r="1.59" fill="#F7B041" opacity="0.160"/><circle cx="143.0" cy="632.7" r="1.49" fill="#F7B041" opacity="0.101"/><circle cx="451.2" cy="483.1" r="3.60" fill="#0B86D1" opacity="0.333"/><circle cx="453.2" cy="587.6" r="1.82" fill="#F7B041" opacity="0.200"/><circle cx="781.9" cy="654.4" r="4.45" fill="#F7B041" opacity="0.092"/><circle cx="737.6" cy="639.4" r="1.89" fill="#F7B041" opacity="0.077"/><circle cx="930.0" cy="566.7" r="2.66" fill="#0B86D1" opacity="0.117"/><circle cx="872.1" cy="635.9" r="4.00" fill="#F7B041" opacity="0.374"/><circle cx="102.8" cy="693.2" r="4.39" fill="#F7B041" opacity="0.192"/><circle cx="452.0" cy="637.7" r="2.97" fill="#F7B041" opacity="0.121"/><circle cx="1029.3" cy="530.0" r="1.35" fill="#0B86D1" opacity="0.125"/><circle cx="445.3" cy="453.6" r="4.32" fill="#F7B041" opacity="0.136"/><circle cx="994.3" cy="614.4" r="4.15" fill="#0B86D1" opacity="0.156"/><circle cx="711.9" cy="702.6" r="2.53" fill="#0B86D1" opacity="0.261"/><circle cx="949.6" cy="507.8" r="3.37" fill="#F7B041" opacity="0.286"/><circle cx="456.6" cy="510.4" r="3.74" fill="#F7B041" opacity="0.116"/><circle cx="1072.5" cy="606.1" r="3.15" fill="#F7B041" opacity="0.297"/><circle cx="1040.9" cy="533.4" r="3.58" fill="#F7B041" opacity="0.474"/><circle cx="1022.6" cy="566.8" r="3.58" fill="#0B86D1" opacity="0.162"/><circle cx="352.2" cy="519.0" r="4.06" fill="#F7B041" opacity="0.458"/><circle cx="616.1" cy="669.7" r="2.46" fill="#F7B041" opacity="0.195"/><circle cx="806.0" cy="585.7" r="4.69" fill="#F7B041" opacity="0.357"/><circle cx="24.6" cy="539.6" r="3.07" fill="#F7B041" opacity="0.406"/><circle cx="317.4" cy="512.5" r="4.73" fill="#F7B041" opacity="0.290"/><circle cx="460.6" cy="584.6" r="3.35" fill="#F7B041" opacity="0.190"/><circle cx="605.8" cy="560.5" r="2.58" fill="#F7B041" opacity="0.374"/><circle cx="198.3" cy="616.2" r="3.43" fill="#F7B041" opacity="0.224"/><circle cx="298.6" cy="709.3" r="2.38" fill="#F7B041" opacity="0.313"/><circle cx="804.8" cy="719.3" r="1.02" fill="#F7B041" opacity="0.462"/><circle cx="1022.6" cy="551.8" r="4.90" fill="#F7B041" opacity="0.112"/><circle cx="438.8" cy="519.3" r="4.10" fill="#F7B041" opacity="0.107"/><circle cx="887.0" cy="561.8" r="3.51" fill="#F7B041" opacity="0.209"/><circle cx="338.7" cy="584.1" r="3.55" fill="#F7B041" opacity="0.076"/><circle cx="1051.4" cy="641.0" r="4.41" fill="#0B86D1" opacity="0.438"/><circle cx="406.4" cy="548.6" r="3.64" fill="#F7B041" opacity="0.315"/><circle cx="949.8" cy="455.2" r="1.87" fill="#F7B041" opacity="0.334"/><circle cx="772.6" cy="696.0" r="3.60" fill="#F7B041" opacity="0.188"/><circle cx="946.1" cy="538.1" r="2.54" fill="#F7B041" opacity="0.162"/><circle cx="801.6" cy="716.2" r="2.61" fill="#0B86D1" opacity="0.397"/><circle cx="127.8" cy="799.6" r="1.19" fill="#0B86D1" opacity="0.452"/><circle cx="517.3" cy="556.8" r="3.04" fill="#F7B041" opacity="0.147"/><circle cx="456.5" cy="447.7" r="3.39" fill="#F7B041" opacity="0.175"/><circle cx="426.8" cy="533.7" r="3.04" fill="#F7B041" opacity="0.090"/><circle cx="544.2" cy="695.7" r="4.75" fill="#F7B041" opacity="0.134"/><circle cx="412.6" cy="594.0" r="3.88" fill="#F7B041" opacity="0.132"/><circle cx="976.5" cy="634.0" r="4.27" fill="#F7B041" opacity="0.432"/><circle cx="648.4" cy="782.2" r="4.15" fill="#F7B041" opacity="0.372"/><circle cx="182.9" cy="635.9" r="2.37" fill="#0B86D1" opacity="0.108"/><circle cx="396.5" cy="595.4" r="3.79" fill="#F7B041" opacity="0.107"/><circle cx="956.4" cy="497.5" r="1.78" fill="#F7B041" opacity="0.435"/><circle cx="63.8" cy="581.4" r="3.25" fill="#F7B041" opacity="0.194"/><circle cx="902.8" cy="647.3" r="2.41" fill="#F7B041" opacity="0.130"/><circle cx="832.2" cy="704.2" r="3.53" fill="#F7B041" opacity="0.129"/><circle cx="120.7" cy="769.6" r="1.62" fill="#F7B041" opacity="0.126"/><circle cx="248.7" cy="622.0" r="3.53" fill="#F7B041" opacity="0.458"/><circle cx="324.2" cy="521.6" r="1.31" fill="#0B86D1" opacity="0.452"/><circle cx="883.0" cy="625.0" r="2.59" fill="#F7B041" opacity="0.404"/><circle cx="223.3" cy="710.2" r="5.00" fill="#F7B041" opacity="0.316"/><circle cx="527.4" cy="551.3" r="3.67" fill="#F7B041" opacity="0.486"/><circle cx="816.0" cy="603.9" r="4.23" fill="#F7B041" opacity="0.139"/><circle cx="634.7" cy="743.9" r="4.43" fill="#0B86D1" opacity="0.441"/><circle cx="61.9" cy="668.1" r="1.90" fill="#F7B041" opacity="0.164"/><circle cx="1021.9" cy="599.2" r="4.94" fill="#F7B041" opacity="0.438"/><circle cx="1038.3" cy="617.2" r="3.41" fill="#F7B041" opacity="0.353"/><circle cx="975.0" cy="540.7" r="1.46" fill="#F7B041" opacity="0.129"/><circle cx="24.1" cy="650.4" r="2.15" fill="#F7B041" opacity="0.299"/><circle cx="23.1" cy="616.6" r="4.72" fill="#F7B041" opacity="0.171"/><circle cx="569.0" cy="604.1" r="1.67" fill="#F7B041" opacity="0.208"/><circle cx="907.9" cy="579.5" r="3.28" fill="#0B86D1" opacity="0.186"/><circle cx="385.9" cy="563.7" r="4.35" fill="#F7B041" opacity="0.075"/><circle cx="79.8" cy="738.5" r="2.25" fill="#F7B041" opacity="0.227"/><circle cx="890.2" cy="487.3" r="1.87" fill="#0B86D1" opacity="0.214"/><circle cx="894.9" cy="636.3" r="4.33" fill="#F7B041" opacity="0.396"/><circle cx="535.6" cy="489.2" r="3.80" fill="#F7B041" opacity="0.258"/><circle cx="748.3" cy="666.0" r="3.28" fill="#F7B041" opacity="0.273"/><circle cx="322.9" cy="617.7" r="3.57" fill="#F7B041" opacity="0.312"/><circle cx="559.9" cy="619.7" r="4.36" fill="#F7B041" opacity="0.427"/><circle cx="84.7" cy="626.0" r="1.45" fill="#F7B041" opacity="0.283"/><circle cx="497.8" cy="495.8" r="3.67" fill="#F7B041" opacity="0.469"/><circle cx="203.8" cy="627.6" r="1.70" fill="#F7B041" opacity="0.156"/><circle cx="968.9" cy="539.7" r="3.95" fill="#F7B041" opacity="0.195"/><circle cx="937.0" cy="487.2" r="4.92" fill="#F7B041" opacity="0.334"/><circle cx="296.7" cy="527.1" r="4.47" fill="#F7B041" opacity="0.461"/><circle cx="995.1" cy="490.3" r="2.72" fill="#F7B041" opacity="0.183"/><circle cx="363.1" cy="542.4" r="2.54" fill="#F7B041" opacity="0.135"/><circle cx="1018.6" cy="489.5" r="1.64" fill="#F7B041" opacity="0.098"/><circle cx="592.3" cy="605.5" r="4.57" fill="#F7B041" opacity="0.425"/><circle cx="760.3" cy="686.5" r="2.82" fill="#F7B041" opacity="0.443"/><circle cx="574.7" cy="673.9" r="3.04" fill="#F7B041" opacity="0.247"/><circle cx="880.5" cy="672.8" r="1.24" fill="#F7B041" opacity="0.469"/><circle cx="950.3" cy="449.2" r="1.56" fill="#F7B041" opacity="0.318"/><circle cx="76.1" cy="785.6" r="1.71" fill="#F7B041" opacity="0.114"/><circle cx="585.4" cy="707.0" r="4.62" fill="#F7B041" opacity="0.167"/><circle cx="375.0" cy="650.6" r="1.15" fill="#F7B041" opacity="0.261"/><circle cx="6.8" cy="715.4" r="4.60" fill="#F7B041" opacity="0.306"/><circle cx="434.4" cy="459.1" r="2.61" fill="#F7B041" opacity="0.356"/><circle cx="396.2" cy="528.1" r="1.72" fill="#0B86D1" opacity="0.170"/><circle cx="678.9" cy="756.4" r="2.65" fill="#F7B041" opacity="0.285"/><circle cx="138.5" cy="646.2" r="4.26" fill="#F7B041" opacity="0.414"/><circle cx="744.0" cy="730.3" r="1.96" fill="#F7B041" opacity="0.208"/><circle cx="848.7" cy="564.2" r="4.84" fill="#0B86D1" opacity="0.124"/><circle cx="204.5" cy="707.9" r="1.15" fill="#F7B041" opacity="0.364"/><circle cx="1004.5" cy="629.0" r="4.99" fill="#F7B041" opacity="0.469"/><circle cx="47.0" cy="598.0" r="1.50" fill="#F7B041" opacity="0.131"/><circle cx="426.1" cy="596.5" r="3.18" fill="#0B86D1" opacity="0.280"/><circle cx="210.6" cy="628.2" r="4.06" fill="#F7B041" opacity="0.139"/><circle cx="944.9" cy="616.5" r="3.15" fill="#F7B041" opacity="0.270"/><circle cx="797.0" cy="590.5" r="4.08" fill="#0B86D1" opacity="0.185"/><circle cx="55.1" cy="654.4" r="2.67" fill="#F7B041" opacity="0.280"/><circle cx="555.3" cy="651.9" r="2.12" fill="#F7B041" opacity="0.394"/><circle cx="649.4" cy="645.6" r="2.25" fill="#0B86D1" opacity="0.442"/><circle cx="836.8" cy="715.0" r="4.01" fill="#F7B041" opacity="0.096"/><circle cx="195.7" cy="715.7" r="1.56" fill="#F7B041" opacity="0.074"/><circle cx="862.7" cy="691.1" r="1.33" fill="#F7B041" opacity="0.421"/><circle cx="541.7" cy="506.8" r="2.44" fill="#F7B041" opacity="0.324"/><circle cx="282.4" cy="534.5" r="3.38" fill="#F7B041" opacity="0.156"/><circle cx="700.7" cy="655.8" r="2.87" fill="#0B86D1" opacity="0.173"/><circle cx="1044.7" cy="470.7" r="3.51" fill="#0B86D1" opacity="0.099"/><circle cx="873.5" cy="515.1" r="1.90" fill="#F7B041" opacity="0.279"/><circle cx="108.3" cy="672.1" r="2.88" fill="#F7B041" opacity="0.358"/><circle cx="152.4" cy="637.2" r="4.15" fill="#F7B041" opacity="0.088"/><circle cx="790.9" cy="641.7" r="4.57" fill="#0B86D1" opacity="0.356"/><circle cx="831.5" cy="549.6" r="4.93" fill="#F7B041" opacity="0.368"/><circle cx="824.3" cy="714.7" r="4.78" fill="#F7B041" opacity="0.271"/><circle cx="296.7" cy="594.2" r="1.73" fill="#0B86D1" opacity="0.168"/><circle cx="67.7" cy="678.3" r="4.59" fill="#0B86D1" opacity="0.369"/><circle cx="793.4" cy="608.4" r="4.68" fill="#F7B041" opacity="0.471"/><circle cx="177.4" cy="646.9" r="2.55" fill="#0B86D1" opacity="0.200"/><circle cx="944.4" cy="539.7" r="3.80" fill="#0B86D1" opacity="0.424"/><circle cx="777.8" cy="751.9" r="4.63" fill="#F7B041" opacity="0.084"/><circle cx="256.3" cy="653.0" r="1.23" fill="#F7B041" opacity="0.304"/><circle cx="967.9" cy="516.6" r="4.79" fill="#F7B041" opacity="0.072"/><circle cx="137.9" cy="607.5" r="3.68" fill="#F7B041" opacity="0.097"/><circle cx="283.9" cy="568.7" r="2.59" fill="#F7B041" opacity="0.345"/><circle cx="432.3" cy="626.3" r="4.84" fill="#F7B041" opacity="0.415"/><circle cx="375.3" cy="547.2" r="1.85" fill="#F7B041" opacity="0.128"/><circle cx="613.6" cy="657.8" r="1.55" fill="#F7B041" opacity="0.145"/><circle cx="167.1" cy="641.8" r="4.87" fill="#0B86D1" opacity="0.144"/><circle cx="254.8" cy="584.8" r="3.25" fill="#F7B041" opacity="0.313"/><circle cx="501.7" cy="552.8" r="4.90" fill="#0B86D1" opacity="0.090"/><circle cx="99.2" cy="778.1" r="4.01" fill="#F7B041" opacity="0.456"/><circle cx="941.4" cy="489.5" r="4.13" fill="#F7B041" opacity="0.328"/><circle cx="731.4" cy="649.1" r="4.75" fill="#F7B041" opacity="0.479"/><circle cx="189.0" cy="618.5" r="3.91" fill="#F7B041" opacity="0.268"/><circle cx="495.1" cy="485.3" r="3.60" fill="#0B86D1" opacity="0.473"/><circle cx="157.6" cy="734.3" r="2.15" fill="#F7B041" opacity="0.453"/><circle cx="446.3" cy="450.1" r="1.92" fill="#F7B041" opacity="0.412"/><circle cx="797.1" cy="650.7" r="4.09" fill="#F7B041" opacity="0.196"/><circle cx="1059.0" cy="615.2" r="1.95" fill="#0B86D1" opacity="0.263"/><circle cx="797.9" cy="726.6" r="1.77" fill="#F7B041" opacity="0.410"/><circle cx="927.5" cy="494.4" r="1.77" fill="#0B86D1" opacity="0.104"/><circle cx="579.8" cy="568.2" r="1.42" fill="#0B86D1" opacity="0.165"/><circle cx="384.5" cy="492.4" r="4.43" fill="#F7B041" opacity="0.459"/><circle cx="412.4" cy="595.9" r="1.10" fill="#F7B041" opacity="0.477"/><circle cx="902.7" cy="611.9" r="1.18" fill="#F7B041" opacity="0.242"/><circle cx="85.4" cy="738.0" r="2.72" fill="#F7B041" opacity="0.200"/><circle cx="910.6" cy="530.7" r="3.97" fill="#F7B041" opacity="0.398"/><circle cx="840.3" cy="659.7" r="3.95" fill="#F7B041" opacity="0.277"/><circle cx="858.5" cy="655.2" r="3.34" fill="#F7B041" opacity="0.337"/><circle cx="239.0" cy="667.5" r="1.01" fill="#F7B041" opacity="0.375"/><circle cx="253.6" cy="553.1" r="4.20" fill="#F7B041" opacity="0.232"/><circle cx="867.2" cy="610.0" r="1.64" fill="#F7B041" opacity="0.153"/><circle cx="707.5" cy="759.6" r="4.17" fill="#F7B041" opacity="0.367"/><circle cx="952.7" cy="620.0" r="1.52" fill="#F7B041" opacity="0.150"/><circle cx="360.5" cy="654.0" r="1.26" fill="#F7B041" opacity="0.258"/><circle cx="320.7" cy="499.0" r="2.13" fill="#F7B041" opacity="0.210"/><circle cx="636.7" cy="686.3" r="2.33" fill="#F7B041" opacity="0.311"/><circle cx="821.5" cy="744.9" r="3.00" fill="#F7B041" opacity="0.426"/><circle cx="951.8" cy="578.6" r="4.50" fill="#0B86D1" opacity="0.080"/><circle cx="95.3" cy="666.5" r="3.72" fill="#F7B041" opacity="0.318"/><circle cx="363.1" cy="487.7" r="3.77" fill="#F7B041" opacity="0.434"/><circle cx="891.6" cy="636.5" r="3.97" fill="#F7B041" opacity="0.344"/><circle cx="155.0" cy="678.2" r="1.59" fill="#F7B041" opacity="0.312"/><circle cx="150.5" cy="773.0" r="3.13" fill="#0B86D1" opacity="0.311"/><circle cx="929.3" cy="597.3" r="4.63" fill="#F7B041" opacity="0.250"/><circle cx="636.6" cy="626.5" r="4.31" fill="#F7B041" opacity="0.260"/><circle cx="656.7" cy="681.1" r="2.14" fill="#F7B041" opacity="0.393"/><circle cx="1030.5" cy="482.1" r="1.31" fill="#F7B041" opacity="0.116"/><circle cx="484.7" cy="515.2" r="1.24" fill="#F7B041" opacity="0.098"/><circle cx="471.1" cy="460.5" r="1.87" fill="#F7B041" opacity="0.222"/><circle cx="533.7" cy="485.7" r="3.29" fill="#F7B041" opacity="0.484"/><circle cx="692.0" cy="692.4" r="2.78" fill="#0B86D1" opacity="0.082"/><circle cx="606.1" cy="609.2" r="1.03" fill="#F7B041" opacity="0.095"/><circle cx="556.0" cy="535.6" r="4.67" fill="#0B86D1" opacity="0.127"/><circle cx="31.5" cy="747.1" r="1.44" fill="#F7B041" opacity="0.377"/><circle cx="287.2" cy="695.6" r="1.72" fill="#0B86D1" opacity="0.211"/><circle cx="22.2" cy="652.2" r="1.27" fill="#F7B041" opacity="0.184"/><circle cx="1043.8" cy="585.1" r="4.12" fill="#F7B041" opacity="0.315"/><circle cx="750.6" cy="645.9" r="3.59" fill="#F7B041" opacity="0.244"/><circle cx="427.5" cy="507.4" r="4.83" fill="#F7B041" opacity="0.438"/><circle cx="395.8" cy="475.0" r="3.31" fill="#0B86D1" opacity="0.470"/><circle cx="540.3" cy="642.5" r="4.04" fill="#F7B041" opacity="0.194"/><circle cx="969.5" cy="636.5" r="4.53" fill="#F7B041" opacity="0.148"/><circle cx="1038.1" cy="469.2" r="2.03" fill="#0B86D1" opacity="0.455"/><circle cx="489.5" cy="504.3" r="3.20" fill="#F7B041" opacity="0.297"/><circle cx="630.0" cy="765.9" r="4.81" fill="#F7B041" opacity="0.138"/><circle cx="822.9" cy="670.6" r="1.12" fill="#F7B041" opacity="0.402"/><circle cx="905.4" cy="547.0" r="1.04" fill="#F7B041" opacity="0.183"/><circle cx="668.1" cy="746.0" r="4.57" fill="#F7B041" opacity="0.094"/><circle cx="821.7" cy="648.8" r="3.36" fill="#F7B041" opacity="0.283"/><circle cx="6.8" cy="536.0" r="4.11" fill="#0B86D1" opacity="0.340"/><circle cx="849.6" cy="551.3" r="2.91" fill="#F7B041" opacity="0.422"/><circle cx="1.5" cy="714.0" r="4.45" fill="#0B86D1" opacity="0.456"/><circle cx="940.5" cy="535.9" r="2.56" fill="#0B86D1" opacity="0.405"/><circle cx="107.0" cy="685.2" r="4.71" fill="#0B86D1" opacity="0.311"/><circle cx="684.3" cy="764.7" r="4.60" fill="#0B86D1" opacity="0.391"/><circle cx="904.9" cy="474.8" r="3.88" fill="#F7B041" opacity="0.165"/><circle cx="185.4" cy="775.4" r="4.45" fill="#F7B041" opacity="0.162"/><circle cx="162.5" cy="646.5" r="2.29" fill="#0B86D1" opacity="0.471"/><circle cx="914.5" cy="641.4" r="3.59" fill="#F7B041" opacity="0.282"/><circle cx="877.8" cy="669.6" r="4.27" fill="#F7B041" opacity="0.445"/><circle cx="695.8" cy="707.3" r="3.05" fill="#0B86D1" opacity="0.342"/><circle cx="262.4" cy="659.4" r="4.44" fill="#F7B041" opacity="0.133"/><circle cx="954.9" cy="438.1" r="4.72" fill="#0B86D1" opacity="0.302"/><circle cx="858.3" cy="535.9" r="3.06" fill="#0B86D1" opacity="0.141"/><circle cx="1067.6" cy="526.5" r="1.19" fill="#F7B041" opacity="0.383"/><circle cx="165.5" cy="628.0" r="3.81" fill="#F7B041" opacity="0.282"/><circle cx="1041.9" cy="522.4" r="2.14" fill="#F7B041" opacity="0.333"/><circle cx="575.4" cy="698.3" r="3.74" fill="#F7B041" opacity="0.232"/><circle cx="82.9" cy="751.8" r="4.90" fill="#F7B041" opacity="0.168"/><circle cx="722.5" cy="614.5" r="4.93" fill="#F7B041" opacity="0.199"/><circle cx="158.4" cy="773.1" r="2.58" fill="#F7B041" opacity="0.286"/><circle cx="155.8" cy="625.5" r="3.86" fill="#F7B041" opacity="0.075"/><circle cx="951.6" cy="632.4" r="2.04" fill="#F7B041" opacity="0.316"/><circle cx="1029.8" cy="511.4" r="3.42" fill="#0B86D1" opacity="0.259"/><circle cx="925.6" cy="537.9" r="4.97" fill="#F7B041" opacity="0.462"/><circle cx="507.0" cy="535.1" r="1.97" fill="#0B86D1" opacity="0.212"/><circle cx="150.9" cy="616.1" r="4.66" fill="#F7B041" opacity="0.347"/><circle cx="713.9" cy="638.2" r="4.84" fill="#F7B041" opacity="0.381"/><circle cx="283.2" cy="563.7" r="4.39" fill="#F7B041" opacity="0.101"/><circle cx="673.6" cy="753.2" r="1.25" fill="#F7B041" opacity="0.233"/><circle cx="300.9" cy="690.6" r="3.64" fill="#F7B041" opacity="0.090"/><circle cx="817.0" cy="579.9" r="3.54" fill="#F7B041" opacity="0.081"/><circle cx="128.8" cy="627.6" r="1.57" fill="#F7B041" opacity="0.358"/><circle cx="348.8" cy="479.7" r="4.59" fill="#0B86D1" opacity="0.424"/><circle cx="381.9" cy="640.6" r="1.21" fill="#0B86D1" opacity="0.130"/><circle cx="261.9" cy="680.2" r="2.73" fill="#F7B041" opacity="0.347"/><circle cx="1079.3" cy="617.6" r="3.81" fill="#F7B041" opacity="0.438"/><circle cx="877.3" cy="558.6" r="1.07" fill="#F7B041" opacity="0.117"/><circle cx="30.4" cy="571.5" r="3.85" fill="#0B86D1" opacity="0.152"/><circle cx="266.0" cy="641.2" r="2.22" fill="#F7B041" opacity="0.456"/><circle cx="26.7" cy="634.6" r="4.56" fill="#F7B041" opacity="0.072"/><circle cx="513.8" cy="633.4" r="4.46" fill="#F7B041" opacity="0.421"/><circle cx="921.6" cy="615.1" r="3.27" fill="#0B86D1" opacity="0.436"/><circle cx="184.5" cy="751.2" r="1.03" fill="#0B86D1" opacity="0.249"/><circle cx="548.9" cy="537.3" r="1.59" fill="#F7B041" opacity="0.187"/><circle cx="489.6" cy="639.1" r="1.82" fill="#F7B041" opacity="0.241"/><circle cx="394.4" cy="581.6" r="1.86" fill="#F7B041" opacity="0.109"/><circle cx="930.5" cy="547.1" r="3.24" fill="#0B86D1" opacity="0.360"/><circle cx="147.5" cy="602.4" r="2.90" fill="#F7B041" opacity="0.078"/><circle cx="914.4" cy="482.4" r="2.67" fill="#F7B041" opacity="0.223"/><circle cx="825.9" cy="628.9" r="4.26" fill="#F7B041" opacity="0.132"/><circle cx="1073.6" cy="606.8" r="4.37" fill="#F7B041" opacity="0.186"/><circle cx="636.3" cy="678.8" r="2.42" fill="#F7B041" opacity="0.339"/><circle cx="365.9" cy="591.2" r="4.84" fill="#0B86D1" opacity="0.361"/><circle cx="212.7" cy="718.1" r="1.68" fill="#F7B041" opacity="0.225"/><circle cx="144.1" cy="729.8" r="4.58" fill="#F7B041" opacity="0.188"/><circle cx="789.4" cy="715.4" r="4.44" fill="#0B86D1" opacity="0.414"/><circle cx="331.4" cy="535.4" r="1.72" fill="#F7B041" opacity="0.240"/><circle cx="965.6" cy="531.0" r="4.36" fill="#0B86D1" opacity="0.435"/><circle cx="183.8" cy="670.9" r="4.09" fill="#F7B041" opacity="0.106"/><circle cx="833.8" cy="622.0" r="1.09" fill="#F7B041" opacity="0.253"/><g stroke="#FFFFFF" stroke-width="1" opacity="0.02"><line x1="216" y1="0" x2="216" y2="1350"/><line x1="432" y1="0" x2="432" y2="1350"/><line x1="648" y1="0" x2="648" y2="1350"/><line x1="864" y1="0" x2="864" y2="1350"/><line x1="0" y1="225" x2="1080" y2="225"/><line x1="0" y1="450" x2="1080" y2="450"/><line x1="0" y1="675" x2="1080" y2="675"/><line x1="0" y1="900" x2="1080" y2="900"/><line x1="0" y1="1125" x2="1080" y2="1125"/></g></svg>