<?xml version="1.0" encoding="utf-8"?>
<!-- Generator: Adobe Illustrator 25.2.3, SVG Export Plug-In . SVG Version: 6.00 Build 0)  -->
<svg version="1.1"
	 id="svg2" xmlns:cc="http://creativecommons.org/ns#" xmlns:dc="http://purl.org/dc/elements/1.1/" xmlns:rdf="http://www.w3.org/1999/02/22-rdf-syntax-ns#" xmlns:svg="http://www.w3.org/2000/svg"
	 xmlns="http://www.w3.org/2000/svg" xmlns:xlink="http://www.w3.org/1999/xlink" x="0px" y="0px" viewBox="0 0 1122.5 262"
	 style="enable-background:new 0 0 1122.5 262;" xml:space="preserve">
<style type="text/css">
	.st0{fill:#FFFFFF;}
</style>
<g>
	<g id="g12" transform="translate(124.8394,275.5049)">
		<path id="path14" class="st0" d="M41.6-114.5L-71.7-97v-113.3l113.3,17.7V-114.5z M-108.6-225.7v167.5l236,31.7v-236L-108.6-225.7
			z"/>
	</g>
	<g id="g18">
		<path id="path24" class="st0" d="M649.5,248.1h7.7v-45.4h-7.7V248.1z M589.4,226.5h22.3v-4.6h-22.3v-14.6h25.6v-4.6h-33.4v45.4
			h33.4l3.6-4.6h-29.2L589.4,226.5L589.4,226.5z M536.1,222.3c-3.9,1.9-9.2,1.7-11.3,1.7l-4,0v-16.7h8.1c6,0,12.2,1.9,12.2,8
			C541.1,218.2,539,220.9,536.1,222.3 M540,204.1c-3.5-1.2-6.2-1.4-9.9-1.4H513v45.4h7.8v-19.3h3.1c4.9,0,11.9-0.2,17.4-2.8
			c5.3-2.5,8.1-6.8,8.1-10.9C549.4,211.4,546.7,206.5,540,204.1 M467.7,248.1h7.7v-45.4h-7.7V248.1z M398.5,230.6l9.6-18.9
			c0.4-0.8,0.6-1.1,1.1-2.4c0.6,1.5,0.7,1.7,1,2.4l9.1,18.9H398.5z M406,202.7l-24.2,45.4h7.8l6.6-12.9h25.3l6.4,12.9h8.5l-23-45.4
			L406,202.7L406,202.7z M317.3,207.3h19v40.8h7.7v-40.8h19v-4.6h-45.7L317.3,207.3L317.3,207.3z"/>
		<g id="g26" transform="translate(602.627,283.3564)">
			<path id="path28" class="st0" d="M200.9-132.8L200.9-132.8L200.9-132.8c-6.4,3.9-12,5-20.8,5c-6.4,0-10.8-3.2-12-8.1
				c-0.6-2.4-0.6-5.1-0.6-10.3v-54.6h-24.2v65.3c0.2,5.5,0.3,12.9,7.2,18.7c3.5,3,10.1,5.8,20.4,5.8c6.8,0,15.7-2.7,25.8-10.5
				l4.1-3.1v11.8h23.5v-88.4h-23.5V-132.8z M6.1-201.4l-23.8,46.3l-23.5-46.3h-26.3l-10.9,88.3h25.9l5.1-53.1l27.2,53.1h4.9
				L12.2-166l4.8,52.9h26.5l-11.4-88.3L6.1-201.4L6.1-201.4z M-138-130.3c-15.2,0-24.2-11.6-24.3-27c0.1-15.9,9.6-27.3,24.3-27.3
				c14.9,0,23.9,11.5,24,27.7C-114-144.4-121.4-130.3-138-130.3 M-138-203.6c-32.5,0-52.5,20.5-52.5,46.3c0,26.5,19.9,46.3,53,46.4
				c33.2-0.1,51.7-22.5,51.7-46.9C-85.8-182.5-105.1-203.5-138-203.6 M102.4-166.8c-2.9,2.3-6.7,2.5-9.2,2.5H84v-18.8h9.3
				c7.1,0.1,12.5,2.8,12.5,9.4C105.7-170.9,104.6-168.5,102.4-166.8 M99.5-201.4H57.2v88.3H84v-34.1h10.9
				c7.2-0.1,23.6-0.3,32.9-12.5c3.1-4.1,4.9-9.5,4.9-14.9C132.6-192.5,116.5-201.3,99.5-201.4 M356.7-132.5v-16.4h31.2V-168h-31.2
				v-14.1h36.4v-19.3h-63.1v88.3h58.9l0.4-0.5l14.2-18.9L356.7-132.5L356.7-132.5L356.7-132.5z M237.1-181.9h26.8v68.9h26.8V-182
				l26.5,0v-19.4h-80.1L237.1-181.9L237.1-181.9z M497.5-115l-31.7-44.2l31.4-42.2h-30L451.3-179l-15.6-22.4h-30.1l31.1,42.6
				l-33.6,45.7h29.5l18.4-25.6l17.7,25.7h30.3L497.5-115z M-224.2-129c-21.3,0-33.2-12.4-33.3-28.3c0-15.1,11.2-27.7,31.3-27.7
				c10.8,0,18.3,4.4,21.6,6.3l1.8,1v-22.1l-0.9-0.2c-6.4-1.7-14.6-3.6-25.4-3.6c-36.8,0.1-56.2,22.5-56.2,47.3
				c0.1,25.5,20.5,45.4,54.5,45.4c10.4,0,16.5-1.5,19.9-2.4l0.5-0.1l0.2-0.4l13.3-21l-3.3,1.3C-207.7-130.6-215.9-129-224.2-129"/>
		</g>
	</g>
</g>
</svg>
