<svg viewBox="0 0 1080 1350" width="1080" height="1350" xmlns="http://www.w3.org/2000/svg">
  <defs><linearGradient id="grad-1" x1="0" y1="0.5" x2="1" y2="0.5"><stop offset="0%" stop-color="rgb(247, 176, 65)"/><stop offset="100%" stop-color="rgb(11, 134, 209)"/></linearGradient><linearGradient id="grad-2" x1="0.15" y1="0.15" x2="0.85" y2="0.85"><stop offset="0%" stop-color="rgb(27, 36, 51)"/><stop offset="100%" stop-color="rgb(8, 11, 18)"/></linearGradient></defs>
  <rect x="75.59" y="1193.44" width="308.21" height="70.2" rx="35.1" fill="url(#grad-1)"/>
  <rect x="642.16" y="144.94" width="362.25" height="706.62" rx="14.02" fill="url(#grad-2)" stroke="rgba(255, 255, 255, 0.11)" stroke-width="1"/>
  <rect x="642.16" y="908.78" width="362.25" height="354.85" rx="16.02" fill="rgba(9, 11, 18, 0.72)" stroke="rgba(255, 255, 255, 0.11)" stroke-width="1"/>
  <g class="sample-fill" transform="translate(643.16,909.79) scale(0.86,1.31)"><g stroke="rgba(255,255,255,.10)"><path d="M38 38V228H390"></path><path d="M38 78H390M38 118H390M38 158H390M38 198H390"></path></g><g fill="#F7B041" opacity=".78"><rect x="64" y="164" width="34" height="64" rx="5"></rect><rect x="114" y="112" width="34" height="116" rx="5"></rect><rect x="164" y="138" width="34" height="90" rx="5"></rect><rect x="214" y="72" width="34" height="156" rx="5"></rect><rect x="264" y="96" width="34" height="132" rx="5"></rect><rect x="314" y="54" width="34" height="174" rx="5"></rect></g><path d="M62 175 C110 150 120 118 168 126 S246 80 292 94 330 60 366 68" stroke="#0B86D1" stroke-width="5" fill="none" stroke-linecap="round"></path></g>
  <rect data-slot="image-1" data-accepts="image" data-label="IMAGE" data-role="image" x="642.16" y="144.94" width="362.25" height="706.62" rx="16" fill="none" stroke="#3A4A5F" stroke-opacity="0.35" stroke-dasharray="12 9"/>
  <rect data-slot="chart-1" data-accepts="chart" data-label="CHART" data-role="chart" x="642.16" y="908.78" width="362.25" height="354.85" rx="16" fill="none" stroke="#3A4A5F" stroke-opacity="0.35" stroke-dasharray="12 9"/>
  <text id="field:eyebrow" data-field="eyebrow" data-role="eyebrow" data-maxlen="29" x="75.59" y="114.91" text-anchor="start" style="font-family:'Outfit','Inter',sans-serif;font-size:35.69px;font-weight:850;text-transform:uppercase;letter-spacing:1.5px;fill:rgb(247, 176, 65)" data-w="520" data-minfont="25"><tspan x="75.59" y="114.91">Datacenter</tspan></text>
  <text id="field:headline" data-field="headline" data-role="headline" data-maxlen="36" data-minfont="34" data-maxfont="96" x="75.59" y="215.72" text-anchor="start" style="font-family:'Grift','Outfit',sans-serif;font-size:71.39px;font-weight:790;fill:rgb(255, 255, 255)" data-w="520"><tspan x="75.59" y="215.72">Power is now the </tspan><tspan x="75.59" y="287.81">limiter</tspan></text>
  <text id="field:subhead" data-field="subhead" data-role="subhead" data-maxlen="146" x="75.59" y="372.87" text-anchor="start" style="font-family:'Outfit','Inter',sans-serif;font-size:41.1px;font-weight:470;fill:rgb(203, 209, 222)" data-w="520" data-minfont="27" data-maxlines="4"><tspan x="75.59" y="372.87">Vertical split with media or </tspan><tspan x="75.59" y="430">chart module on the right.</tspan></text>
  <text id="field:label-1" data-field="label-1" data-role="label" data-maxlen="19" x="104.1" y="1234.33" text-anchor="start" style="font-family:'Outfit','Inter',sans-serif;font-size:33.53px;font-weight:850;fill:rgb(9, 16, 26)" data-w="259" data-minfont="23"><tspan x="104.1" y="1234.33">Read the model</tspan></text>
  <text class="ov-logo" data-role="logo" x="788.27" y="94.45" style="font-family:Outfit,Inter,sans-serif;font-weight:760;font-size:41.1px;letter-spacing:-0.03em"><tspan fill="rgb(11, 134, 209)">semi</tspan><tspan fill="rgb(247, 176, 65)">analysis</tspan></text>
</svg>