<svg viewBox="0 0 1080 1350" width="1080" height="1350" xmlns="http://www.w3.org/2000/svg">
  <rect x="540" y="374.77" width="1" height="62.72" fill="rgba(255, 255, 255, 0.55)"/>
  <rect x="252.08" y="379.09" width="287.92" height="54.08" rx="5.01" fill="rgb(11, 134, 209)"/>
  <rect x="540" y="379.09" width="411.39" height="54.08" fill="rgb(247, 176, 65)"/>
  <rect x="540" y="521.7" width="1" height="62.72" fill="rgba(255, 255, 255, 0.55)"/>
  <rect x="214.93" y="526.01" width="325.07" height="54.08" rx="5.01" fill="rgb(11, 134, 209)"/>
  <rect x="540" y="526.01" width="411.39" height="54.08" fill="rgb(247, 176, 65)"/>
  <rect x="540" y="668.62" width="1" height="62.72" fill="rgba(255, 255, 255, 0.55)"/>
  <rect x="284.59" y="672.93" width="255.41" height="54.08" rx="5.01" fill="rgb(11, 134, 209)"/>
  <rect x="540" y="672.93" width="362.23" height="54.08" fill="rgb(247, 176, 65)"/>
  <rect x="540" y="815.54" width="1" height="62.72" fill="rgba(255, 255, 255, 0.55)"/>
  <rect x="317.09" y="819.86" width="222.91" height="54.08" rx="5.01" fill="rgb(11, 134, 209)"/>
  <rect x="540" y="819.86" width="408.66" height="54.08" fill="rgb(247, 176, 65)"/>
  <rect x="540" y="962.46" width="1" height="62.72" fill="rgba(255, 255, 255, 0.55)"/>
  <rect x="354.25" y="966.78" width="185.75" height="54.08" rx="5.01" fill="rgb(11, 134, 209)"/>
  <rect x="540" y="966.78" width="329.72" height="54.08" fill="rgb(247, 176, 65)"/>
  <rect x="540" y="1109.38" width="1" height="62.72" fill="rgba(255, 255, 255, 0.55)"/>
  <rect x="233.5" y="1113.7" width="306.51" height="54.08" rx="5.01" fill="rgb(11, 134, 209)"/>
  <rect x="540" y="1113.7" width="371.52" height="54.08" fill="rgb(247, 176, 65)"/>
  <rect data-slot="content" data-accepts="module" data-label="Content" data-role="body" x="63.59" y="224.1" width="952.81" height="1062.34" rx="16" fill="none" stroke="#3A4A5F" stroke-opacity="0.35" stroke-dasharray="12 9"/>
  <text id="field:eyebrow" data-field="eyebrow" data-role="eyebrow" data-maxlen="32" x="75.59" y="104.12" text-anchor="start" style="font-family:'Outfit','Inter',sans-serif;font-size:35.69px;font-weight:850;text-transform:uppercase;letter-spacing:1.5px;fill:rgb(247, 176, 65)" data-w="929" data-minfont="25"><tspan x="75.59" y="104.12">Supply versus demand</tspan></text>
  <text id="field:headline" data-field="headline" data-role="headline" data-maxlen="34" data-minfont="34" data-maxfont="96" x="75.59" y="195.21" text-anchor="start" style="font-family:'Grift','Outfit',sans-serif;font-size:58.41px;font-weight:790;fill:rgb(255, 255, 255)" data-w="817"><tspan x="75.59" y="195.21">Where the 2026 gap is widest</tspan></text>
  <text id="field:label-1" data-field="label-1" data-role="label" data-maxlen="8" x="75.59" y="259.46" text-anchor="start" style="font-family:'Outfit','Inter',sans-serif;font-size:29.2px;font-weight:850;text-transform:uppercase;letter-spacing:1.5px;fill:rgb(11, 134, 209)" data-w="134" data-minfont="20"><tspan x="75.59" y="259.46">SUPPLY</tspan></text>
  <text id="field:label-2" data-field="label-2" data-role="label" data-maxlen="8" x="848.48" y="259.46" text-anchor="start" style="font-family:'Outfit','Inter',sans-serif;font-size:29.2px;font-weight:850;text-transform:uppercase;letter-spacing:1.5px;fill:rgb(247, 176, 65)" data-w="156" data-minfont="20"><tspan x="848.48" y="259.46">DEMAND</tspan></text>
  <text id="field:body-1" data-field="body-1" data-role="body" data-maxlen="82" x="540" y="343.61" text-anchor="middle" style="font-family:'Outfit','Inter',sans-serif;font-size:34.61px;font-weight:780;fill:rgb(255, 255, 255)" data-w="948" data-minfont="21" data-maxlines="1"><tspan x="540" y="343.61">CoWoS-L</tspan></text>
  <text id="field:stat-1" data-field="stat-1" data-role="stat" data-maxlen="4" x="199.06" y="413.07" text-anchor="start" style="font-family:'Grift','Outfit',sans-serif;font-size:32.45px;font-weight:800;fill:rgb(11, 134, 209)" data-w="42" data-minfont="14"><tspan x="199.06" y="413.07">62</tspan></text>
  <text id="field:stat-2" data-field="stat-2" data-role="stat" data-maxlen="4" x="965.32" y="413.07" text-anchor="start" style="font-family:'Grift','Outfit',sans-serif;font-size:32.45px;font-weight:800;fill:rgb(247, 176, 65)" data-w="44" data-minfont="14"><tspan x="965.32" y="413.07">95</tspan></text>
  <text id="field:body-2" data-field="body-2" data-role="body" data-maxlen="21" x="540" y="490.53" text-anchor="middle" style="font-family:'Outfit','Inter',sans-serif;font-size:34.61px;font-weight:780;fill:rgb(255, 255, 255)" data-w="242" data-minfont="21" data-maxlines="1"><tspan x="540" y="490.53">HBM3E stacks</tspan></text>
  <text id="field:stat-3" data-field="stat-3" data-role="stat" data-maxlen="4" x="161.91" y="559.99" text-anchor="start" style="font-family:'Grift','Outfit',sans-serif;font-size:32.45px;font-weight:800;fill:rgb(11, 134, 209)" data-w="43" data-minfont="14"><tspan x="161.91" y="559.99">70</tspan></text>
  <text id="field:stat-4" data-field="stat-4" data-role="stat" data-maxlen="4" x="965.32" y="559.99" text-anchor="start" style="font-family:'Grift','Outfit',sans-serif;font-size:32.45px;font-weight:800;fill:rgb(247, 176, 65)" data-w="42" data-minfont="14"><tspan x="965.32" y="559.99">92</tspan></text>
  <text id="field:body-3" data-field="body-3" data-role="body" data-maxlen="82" x="540" y="637.45" text-anchor="middle" style="font-family:'Outfit','Inter',sans-serif;font-size:34.61px;font-weight:780;fill:rgb(255, 255, 255)" data-w="948" data-minfont="21" data-maxlines="1"><tspan x="540" y="637.45">N2 wafers</tspan></text>
  <text id="field:stat-5" data-field="stat-5" data-role="stat" data-maxlen="4" x="231.57" y="706.91" text-anchor="start" style="font-family:'Grift','Outfit',sans-serif;font-size:32.45px;font-weight:800;fill:rgb(11, 134, 209)" data-w="44" data-minfont="14"><tspan x="231.57" y="706.91">55</tspan></text>
  <text id="field:stat-6" data-field="stat-6" data-role="stat" data-maxlen="4" x="916.17" y="706.91" text-anchor="start" style="font-family:'Grift','Outfit',sans-serif;font-size:32.45px;font-weight:800;fill:rgb(247, 176, 65)" data-w="89" data-minfont="14"><tspan x="916.17" y="706.91">78</tspan></text>
  <text id="field:body-4" data-field="body-4" data-role="body" data-maxlen="17" x="540" y="784.37" text-anchor="middle" style="font-family:'Outfit','Inter',sans-serif;font-size:34.61px;font-weight:780;fill:rgb(255, 255, 255)" data-w="201" data-minfont="21" data-maxlines="1"><tspan x="540" y="784.37">Rack power</tspan></text>
  <text id="field:stat-7" data-field="stat-7" data-role="stat" data-maxlen="4" x="264.07" y="853.83" text-anchor="start" style="font-family:'Grift','Outfit',sans-serif;font-size:32.45px;font-weight:800;fill:rgb(11, 134, 209)" data-w="46" data-minfont="14"><tspan x="264.07" y="853.83">48</tspan></text>
  <text id="field:stat-8" data-field="stat-8" data-role="stat" data-maxlen="4" x="962.6" y="853.83" text-anchor="start" style="font-family:'Grift','Outfit',sans-serif;font-size:32.45px;font-weight:800;fill:rgb(247, 176, 65)" data-w="47" data-minfont="14"><tspan x="962.6" y="853.83">88</tspan></text>
  <text id="field:body-5" data-field="body-5" data-role="body" data-maxlen="82" x="540" y="931.29" text-anchor="middle" style="font-family:'Outfit','Inter',sans-serif;font-size:34.61px;font-weight:780;fill:rgb(255, 255, 255)" data-w="948" data-minfont="21" data-maxlines="1"><tspan x="540" y="931.29">Optical I/O</tspan></text>
  <text id="field:stat-9" data-field="stat-9" data-role="stat" data-maxlen="4" x="301.23" y="1000.75" text-anchor="start" style="font-family:'Grift','Outfit',sans-serif;font-size:32.45px;font-weight:800;fill:rgb(11, 134, 209)" data-w="47" data-minfont="14"><tspan x="301.23" y="1000.75">40</tspan></text>
  <text id="field:stat-10" data-field="stat-10" data-role="stat" data-maxlen="4" x="883.65" y="1000.75" text-anchor="start" style="font-family:'Grift','Outfit',sans-serif;font-size:32.45px;font-weight:800;fill:rgb(247, 176, 65)" data-w="122" data-minfont="14"><tspan x="883.65" y="1000.75">71</tspan></text>
  <text id="field:body-6" data-field="body-6" data-role="body" data-maxlen="82" x="540" y="1078.21" text-anchor="middle" style="font-family:'Outfit','Inter',sans-serif;font-size:34.61px;font-weight:780;fill:rgb(255, 255, 255)" data-w="948" data-minfont="21" data-maxlines="1"><tspan x="540" y="1078.21">Substrates</tspan></text>
  <text id="field:stat-11" data-field="stat-11" data-role="stat" data-maxlen="4" x="180.48" y="1147.67" text-anchor="start" style="font-family:'Grift','Outfit',sans-serif;font-size:32.45px;font-weight:800;fill:rgb(11, 134, 209)" data-w="43" data-minfont="14"><tspan x="180.48" y="1147.67">66</tspan></text>
  <text id="field:stat-12" data-field="stat-12" data-role="stat" data-maxlen="4" x="925.45" y="1147.67" text-anchor="start" style="font-family:'Grift','Outfit',sans-serif;font-size:32.45px;font-weight:800;fill:rgb(247, 176, 65)" data-w="80" data-minfont="14"><tspan x="925.45" y="1147.67">80</tspan></text>
  <text id="field:footer-1" data-field="footer-1" data-role="footer" data-maxlen="48" x="540" y="1256.92" text-anchor="middle" style="font-family:'Outfit','Inter',sans-serif;font-size:29.2px;font-weight:790;text-transform:uppercase;letter-spacing:1.5px;fill:rgb(137, 146, 165)" data-w="929" data-minfont="20"><tspan x="540" y="1256.92">INDEXED TO PEAK DEMAND = 100</tspan></text>
  <g class="ov-logo" data-role="logo" transform="translate(933.68,60.75) scale(0.78,0.77)"><path fill="#0d86d1" d="M1.1,75.92c1.17,2.98,2.61,5.71,5.01,8.02l21.61,22.67c3.38,3.11,7.5,5.04,12.16,5.04h31.14c4.76,0,8.99-2.04,12.35-5.3l21.4-22.4c2.34-2.45,4-5.14,5.02-8.26-.03,5.03-1.18,10.17-4.57,14.02l-22.89,25.93c-2.81,3.19-7.05,5.05-11.27,5.05h-31.44c-4.47,0-8.64-2.13-11.57-5.44l-22.39-25.3c-3.05-3.97-4.88-8.7-4.56-14.02Z"/>
  <g>
    <g>
      <path fill="#f7b041" d="M38.11,109.96c-3.13,0-6.08-1.19-8.3-3.35l-24.5-23.86c-2.22-2.16-3.44-5.03-3.44-8.08v-33.74c0-3.05,1.22-5.92,3.44-8.08L29.81,9c2.22-2.16,5.16-3.35,8.3-3.35h34.65c3.13,0,6.08,1.19,8.3,3.35l24.5,23.86c2.22,2.16,3.44,5.03,3.44,8.08v33.74c0,3.05-1.22,5.92-3.44,8.08l-24.5,23.86c-2.22,2.16-5.16,3.35-8.3,3.35h-34.65Z"/>
      <path fill="#ffffff" d="M72.76,6.65c2.86,0,5.55,1.08,7.57,3.05l24.5,23.86c2.02,1.97,3.14,4.59,3.14,7.37v33.74c0,2.79-1.11,5.4-3.14,7.37l-24.5,23.86c-2.02,1.97-4.71,3.05-7.57,3.05h-34.65c-2.86,0-5.55-1.08-7.57-3.05l-24.5-23.86c-2.02-1.97-3.14-4.59-3.14-7.37v-33.74c0-2.79,1.11-5.4,3.14-7.37L30.53,9.71c2.02-1.97,4.71-3.05,7.57-3.05h34.65M72.76,4.66h-34.65c-3.38,0-6.63,1.31-9.02,3.64L4.58,32.15c-2.39,2.33-3.74,5.49-3.74,8.79v33.74c0,3.3,1.34,6.46,3.74,8.79l23.94,23.83c2.39,2.33,5.96,4.22,9.35,4.22h35.01c3.38,0,7.53-2.39,9.92-4.72l23.49-23.33c2.39-2.33,3.74-5.49,3.74-8.79v-33.74c0-3.3-1.34-6.46-3.74-8.79l-24.5-23.86c-2.39-2.33-5.64-3.64-9.02-3.64h0Z"/>
    </g>
    <g>
      <path fill="#ffffff" d="M32,60.64c0,.94-.78,1.69-1.74,1.69s-1.74-.76-1.74-1.69.78-1.69,1.74-1.69,1.74.76,1.74,1.69Z"/>
      <path fill="#0b86d1" d="M32,60.64h-.56c0,.32-.13.6-.34.81-.21.21-.51.34-.83.34-.33,0-.62-.13-.83-.34-.21-.21-.34-.49-.34-.81,0-.32.13-.6.34-.81.21-.21.51-.34.83-.34.33,0,.62.13.83.34.21.21.34.49.34.81h1.12c0-.62-.26-1.18-.67-1.58-.41-.4-.99-.66-1.63-.66-.63,0-1.21.25-1.63.66-.42.4-.67.97-.67,1.58,0,.62.26,1.18.67,1.58.41.4.99.66,1.63.66.63,0,1.21-.25,1.63-.66.42-.4.67-.97.67-1.58h-.56Z"/>
      <path fill="#ffffff" d="M27.83,43.54c0,.94-.78,1.69-1.74,1.69s-1.74-.76-1.74-1.69.78-1.69,1.74-1.69,1.74.76,1.74,1.69Z"/>
      <path fill="#0b86d1" d="M27.83,43.54h-.56c0,.32-.13.6-.34.81-.21.21-.51.34-.83.34-.33,0-.62-.13-.83-.34-.21-.21-.34-.49-.34-.81,0-.32.13-.6.34-.81.21-.21.51-.34.83-.34.33,0,.62.13.83.34.21.21.34.49.34.81h1.12c0-.62-.26-1.18-.67-1.58-.41-.4-.99-.66-1.63-.66-.63,0-1.21.25-1.63.66-.42.4-.67.97-.67,1.58,0,.62.26,1.18.67,1.58.41.4.99.66,1.63.66.63,0,1.21-.25,1.63-.66.42-.4.67-.97.67-1.58h-.56Z"/>
      <path fill="#ffffff" d="M26.52,51.41c0,.94-.78,1.69-1.74,1.69s-1.74-.76-1.74-1.69.78-1.69,1.74-1.69,1.74.76,1.74,1.69Z"/>
      <path fill="#0b86d1" d="M26.52,51.41h-.56c0,.32-.13.6-.34.81-.21.21-.51.34-.83.34-.33,0-.62-.13-.83-.34-.21-.21-.34-.49-.34-.81,0-.32.13-.6.34-.81.21-.21.51-.34.83-.34.33,0,.62.13.83.34.21.21.34.49.34.81h1.12c0-.62-.26-1.18-.67-1.58-.41-.4-.99-.66-1.63-.66-.63,0-1.21.25-1.63.66-.42.4-.67.97-.67,1.58,0,.62.26,1.18.67,1.58.41.4.99.66,1.63.66.63,0,1.21-.25,1.63-.66.42-.4.67-.97.67-1.58h-.56Z"/>
      <path fill="#ffffff" d="M39.13,61.06c0,.94-.78,1.69-1.74,1.69s-1.74-.76-1.74-1.69.78-1.69,1.74-1.69,1.74.76,1.74,1.69Z"/>
      <path fill="#0b86d1" d="M39.13,61.06h-.56c0,.32-.13.6-.34.81-.21.21-.51.34-.83.34-.33,0-.62-.13-.83-.34-.21-.21-.34-.49-.34-.81,0-.32.13-.6.34-.81.21-.21.51-.34.83-.34.33,0,.62.13.83.34.21.21.34.49.34.81h1.12c0-.62-.26-1.18-.67-1.58-.41-.4-.99-.66-1.63-.66-.63,0-1.21.25-1.63.66-.42.4-.67.97-.67,1.58,0,.62.26,1.18.67,1.58.41.4.99.66,1.63.66.63,0,1.21-.25,1.63-.66.42-.4.67-.97.67-1.58h-.56Z"/>
      <path fill="#ffffff" d="M33.22,29.06c0,.94-.78,1.69-1.74,1.69s-1.74-.76-1.74-1.69.78-1.69,1.74-1.69,1.74.76,1.74,1.69Z"/>
      <path fill="#0b86d1" d="M33.22,29.06h-.56c0,.32-.13.6-.34.81-.21.21-.51.34-.83.34-.33,0-.62-.13-.83-.34-.21-.21-.34-.49-.34-.81,0-.32.13-.6.34-.81.21-.21.51-.34.83-.34.33,0,.62.13.83.34.21.21.34.49.34.81h1.12c0-.62-.26-1.18-.67-1.58-.41-.4-.99-.66-1.63-.66-.63,0-1.21.25-1.63.66-.42.4-.67.97-.67,1.58,0,.62.26,1.18.67,1.58.41.4.99.66,1.63.66.63,0,1.21-.25,1.63-.66.42-.4.67-.97.67-1.58h-.56Z"/>
      <path fill="#ffffff" d="M41.3,18.23c0,.94-.78,1.69-1.74,1.69s-1.74-.76-1.74-1.69.78-1.69,1.74-1.69,1.74.76,1.74,1.69Z"/>
      <path fill="#0b86d1" d="M41.3,18.23h-.56c0,.32-.13.6-.34.81-.21.21-.51.34-.83.34-.33,0-.62-.13-.83-.34-.21-.21-.34-.49-.34-.81,0-.32.13-.6.34-.81.21-.21.51-.34.83-.34.33,0,.62.13.83.34.21.21.34.49.34.81h1.12c0-.62-.26-1.18-.67-1.58-.41-.4-.99-.66-1.63-.66-.63,0-1.21.25-1.63.66-.42.4-.67.97-.67,1.58,0,.62.26,1.18.67,1.58.41.4.99.66,1.63.66.63,0,1.21-.25,1.63-.66.42-.4.67-.97.67-1.58h-.56Z"/>
      <path fill="#ffffff" d="M53.21,18.9c0,.94-.78,1.69-1.74,1.69s-1.74-.76-1.74-1.69.78-1.69,1.74-1.69,1.74.76,1.74,1.69Z"/>
      <path fill="#0b86d1" d="M53.21,18.9h-.56c0,.32-.13.6-.34.81-.21.21-.51.34-.83.34-.33,0-.62-.13-.83-.34-.21-.21-.34-.49-.34-.81,0-.32.13-.6.34-.81.21-.21.51-.34.83-.34.33,0,.62.13.83.34.21.21.34.49.34.81h1.12c0-.62-.26-1.18-.67-1.58-.41-.4-.99-.66-1.63-.66-.63,0-1.21.25-1.63.66-.42.4-.67.97-.67,1.58,0,.62.26,1.18.67,1.58.41.4.99.66,1.63.66.63,0,1.21-.25,1.63-.66.42-.4.67-.97.67-1.58h-.56Z"/>
      <ellipse fill="#ffffff" cx="59.91" cy="11.03" rx="1.74" ry="1.69"/>
      <path fill="#0b86d1" d="M61.65,11.03h-.56c0,.32-.13.6-.34.81-.21.21-.51.34-.83.34-.33,0-.62-.13-.83-.34-.21-.21-.34-.49-.34-.81,0-.32.13-.6.34-.81.21-.21.51-.34.83-.34.33,0,.62.13.83.34.21.21.34.49.34.81h1.12c0-.62-.26-1.18-.67-1.58-.41-.4-.99-.66-1.63-.66-.63,0-1.21.25-1.63.66-.42.4-.67.97-.67,1.58,0,.62.26,1.18.67,1.58.41.4.99.66,1.63.66.63,0,1.21-.25,1.63-.66.42-.4.67-.97.67-1.58h-.56Z"/>
      <path fill="#ffffff" d="M61.56,33.55c0,.94-.78,1.69-1.74,1.69s-1.74-.76-1.74-1.69.78-1.69,1.74-1.69,1.74.76,1.74,1.69Z"/>
      <path fill="#0b86d1" d="M61.56,33.55h-.56c0,.32-.13.6-.34.81-.21.21-.51.34-.83.34-.33,0-.62-.13-.83-.34-.21-.21-.34-.49-.34-.81,0-.32.13-.6.34-.81.21-.21.51-.34.83-.34.33,0,.62.13.83.34.21.21.34.49.34.81h1.12c0-.62-.26-1.18-.67-1.58-.41-.4-.99-.66-1.63-.66-.63,0-1.21.25-1.63.66-.42.4-.67.97-.67,1.58,0,.62.26,1.18.67,1.58.41.4.99.66,1.63.66.63,0,1.21-.25,1.63-.66.42-.4.67-.97.67-1.58h-.56Z"/>
      <path fill="#ffffff" d="M64.6,17.29c0,.94-.78,1.69-1.74,1.69s-1.74-.76-1.74-1.69.78-1.69,1.74-1.69,1.74.76,1.74,1.69Z"/>
      <path fill="#0b86d1" d="M64.6,17.29h-.56c0,.32-.13.6-.34.81-.21.21-.51.34-.83.34-.33,0-.62-.13-.83-.34-.21-.21-.34-.49-.34-.81,0-.32.13-.6.34-.81.21-.21.51-.34.83-.34.33,0,.62.13.83.34.21.21.34.49.34.81h1.12c0-.62-.26-1.18-.67-1.58-.41-.4-.99-.66-1.63-.66-.63,0-1.21.25-1.63.66-.42.4-.67.97-.67,1.58,0,.62.26,1.18.67,1.58.41.4.99.66,1.63.66.63,0,1.21-.25,1.63-.66.42-.4.67-.97.67-1.58h-.56Z"/>
      <path fill="#ffffff" d="M56.34,26.95c0,.94-.78,1.69-1.74,1.69s-1.74-.76-1.74-1.69.78-1.69,1.74-1.69,1.74.76,1.74,1.69Z"/>
      <path fill="#0b86d1" d="M56.34,26.95h-.56c0,.32-.13.6-.34.81-.21.21-.51.34-.83.34-.33,0-.62-.13-.83-.34-.21-.21-.34-.49-.34-.81,0-.32.13-.6.34-.81.21-.21.51-.34.83-.34.33,0,.62.13.83.34.21.21.34.49.34.81h1.12c0-.62-.26-1.18-.67-1.58-.41-.4-.99-.66-1.63-.66-.63,0-1.21.25-1.63.66-.42.4-.67.97-.67,1.58,0,.62.26,1.18.67,1.58.41.4.99.66,1.63.66.63,0,1.21-.25,1.63-.66.42-.4.67-.97.67-1.58h-.56Z"/>
      <ellipse fill="#ffffff" cx="37.39" cy="31.86" rx="1.74" ry="1.69"/>
      <path fill="#0b86d1" d="M39.13,31.86h-.56c0,.32-.13.6-.34.81-.21.21-.51.34-.83.34-.33,0-.62-.13-.83-.34-.21-.21-.34-.49-.34-.81,0-.32.13-.6.34-.81.21-.21.51-.34.83-.34.33,0,.62.13.83.34.21.21.34.49.34.81h1.12c0-.62-.26-1.18-.67-1.58-.41-.4-.99-.66-1.63-.66-.63,0-1.21.25-1.63.66-.42.4-.67.97-.67,1.58,0,.62.26,1.18.67,1.58.41.4.99.66,1.63.66.63,0,1.21-.25,1.63-.66.42-.4.67-.97.67-1.58h-.56Z"/>
      <path fill="#ffffff" d="M45.22,35.75c0,.94-.78,1.69-1.74,1.69s-1.74-.76-1.74-1.69.78-1.69,1.74-1.69,1.74.76,1.74,1.69Z"/>
      <path fill="#0b86d1" d="M45.22,35.75h-.56c0,.32-.13.6-.34.81-.21.21-.51.34-.83.34-.33,0-.62-.13-.83-.34-.21-.21-.34-.49-.34-.81,0-.32.13-.6.34-.81.21-.21.51-.34.83-.34.33,0,.62.13.83.34.21.21.34.49.34.81h1.12c0-.62-.26-1.18-.67-1.58-.41-.4-.99-.66-1.63-.66-.63,0-1.21.25-1.63.66-.42.4-.67.97-.67,1.58,0,.62.26,1.18.67,1.58.41.4.99.66,1.63.66.63,0,1.21-.25,1.63-.66.42-.4.67-.97.67-1.58h-.56Z"/>
      <path fill="#ffffff" d="M26.09,34.06c0,.94-.78,1.69-1.74,1.69s-1.74-.76-1.74-1.69.78-1.69,1.74-1.69,1.74.76,1.74,1.69Z"/>
      <path fill="#0b86d1" d="M26.09,34.06h-.56c0,.32-.13.6-.34.81-.21.21-.51.34-.83.34-.33,0-.62-.13-.83-.34-.21-.21-.34-.49-.34-.81,0-.32.13-.6.34-.81.21-.21.51-.34.83-.34.33,0,.62.13.83.34.21.21.34.49.34.81h1.12c0-.62-.26-1.18-.67-1.58-.41-.4-.99-.66-1.63-.66-.63,0-1.21.25-1.63.66-.42.4-.67.97-.67,1.58,0,.62.26,1.18.67,1.58.41.4.99.66,1.63.66.63,0,1.21-.25,1.63-.66.42-.4.67-.97.67-1.58h-.56Z"/>
      <path fill="#ffffff" d="M47.39,45.23c0,.94-.78,1.69-1.74,1.69s-1.74-.76-1.74-1.69.78-1.69,1.74-1.69,1.74.76,1.74,1.69Z"/>
      <path fill="#0b86d1" d="M47.39,45.23h-.56c0,.32-.13.6-.34.81-.21.21-.51.34-.83.34-.33,0-.62-.13-.83-.34-.21-.21-.34-.49-.34-.81,0-.32.13-.6.34-.81.21-.21.51-.34.83-.34.33,0,.62.13.83.34.21.21.34.49.34.81h1.12c0-.62-.26-1.18-.67-1.58-.41-.4-.99-.66-1.63-.66-.63,0-1.21.25-1.63.66-.42.4-.67.97-.67,1.58,0,.62.26,1.18.67,1.58.41.4.99.66,1.63.66.63,0,1.21-.25,1.63-.66.42-.4.67-.97.67-1.58h-.56Z"/>
      <path fill="#ffffff" d="M79.32,60.96c0,.94.78,1.69,1.74,1.69s1.74-.76,1.74-1.69-.78-1.69-1.74-1.69-1.74.76-1.74,1.69Z"/>
      <path fill="#0b86d1" d="M79.32,60.96h-.56c0,.62.26,1.18.67,1.58.41.4.99.66,1.63.66.63,0,1.21-.25,1.63-.66.42-.4.67-.97.67-1.58,0-.62-.26-1.18-.67-1.58-.41-.4-.99-.66-1.63-.66-.63,0-1.21.25-1.63.66-.42.4-.67.97-.67,1.58h1.12c0-.32.13-.6.34-.81.21-.21.51-.34.83-.34.33,0,.62.13.83.34.21.21.34.49.34.81,0,.32-.13.6-.34.81-.21.21-.51.34-.83.34-.33,0-.62-.13-.83-.34-.21-.21-.34-.49-.34-.81h-.56Z"/>
      <path fill="#ffffff" d="M83.04,43.54c0,.94.78,1.69,1.74,1.69s1.74-.76,1.74-1.69-.78-1.69-1.74-1.69-1.74.76-1.74,1.69Z"/>
      <path fill="#0b86d1" d="M83.04,43.54h-.56c0,.62.26,1.18.67,1.58.41.4.99.66,1.63.66.63,0,1.21-.25,1.63-.66.42-.4.67-.97.67-1.58,0-.62-.26-1.18-.67-1.58-.41-.4-.99-.66-1.63-.66-.63,0-1.21.25-1.63.66-.42.4-.67.97-.67,1.58h1.12c0-.32.13-.6.34-.81.21-.21.51-.34.83-.34.33,0,.62.13.83.34.21.21.34.49.34.81,0,.32-.13.6-.34.81-.21.21-.51.34-.83.34-.33,0-.62-.13-.83-.34-.21-.21-.34-.49-.34-.81h-.56Z"/>
      <path fill="#ffffff" d="M84.57,51.42c0,.94.78,1.69,1.74,1.69s1.74-.76,1.74-1.69-.78-1.69-1.74-1.69-1.74.76-1.74,1.69Z"/>
      <path fill="#0b86d1" d="M84.57,51.42h-.56c0,.62.26,1.18.67,1.58.41.4.99.66,1.63.66.63,0,1.21-.25,1.63-.66.42-.4.67-.97.67-1.58,0-.62-.26-1.18-.67-1.58-.41-.4-.99-.66-1.63-.66-.63,0-1.21.25-1.63.66-.42.4-.67.97-.67,1.58h1.12c0-.32.13-.6.34-.81.21-.21.51-.34.83-.34.33,0,.62.13.83.34.21.21.34.49.34.81,0,.32-.13.6-.34.81-.21.21-.51.34-.83.34-.33,0-.62-.13-.83-.34-.21-.21-.34-.49-.34-.81h-.56Z"/>
      <path fill="#ffffff" d="M71.82,61.74c0,.94.78,1.69,1.74,1.69s1.74-.76,1.74-1.69-.78-1.69-1.74-1.69-1.74.76-1.74,1.69Z"/>
      <path fill="#0b86d1" d="M71.82,61.74h-.56c0,.62.26,1.18.67,1.58.41.4.99.66,1.63.66.63,0,1.21-.25,1.63-.66.42-.4.67-.97.67-1.58,0-.62-.26-1.18-.67-1.58-.41-.4-.99-.66-1.63-.66-.63,0-1.21.25-1.63.66-.42.4-.67.97-.67,1.58h1.12c0-.32.13-.6.34-.81.21-.21.51-.34.83-.34.33,0,.62.13.83.34.21.21.34.49.34.81,0,.32-.13.6-.34.81-.21.21-.51.34-.83.34-.33,0-.62-.13-.83-.34-.21-.21-.34-.49-.34-.81h-.56Z"/>
      <path fill="#ffffff" d="M77.65,30.33c0,.94.78,1.69,1.74,1.69s1.74-.76,1.74-1.69-.78-1.69-1.74-1.69-1.74.76-1.74,1.69Z"/>
      <path fill="#0b86d1" d="M77.65,30.33h-.56c0,.62.26,1.18.67,1.58.41.4.99.66,1.63.66.63,0,1.21-.25,1.63-.66.42-.4.67-.97.67-1.58,0-.62-.26-1.18-.67-1.58-.41-.4-.99-.66-1.63-.66-.63,0-1.21.25-1.63.66-.42.4-.67.97-.67,1.58h1.12c0-.32.13-.6.34-.81.21-.21.51-.34.83-.34.33,0,.62.13.83.34.21.21.34.49.34.81,0,.32-.13.6-.34.81-.21.21-.51.34-.83.34-.33,0-.62-.13-.83-.34-.21-.21-.34-.49-.34-.81h-.56Z"/>
      <path fill="#ffffff" d="M70.17,18.23c0,.94.78,1.69,1.74,1.69s1.74-.76,1.74-1.69-.78-1.69-1.74-1.69-1.74.76-1.74,1.69Z"/>
      <path fill="#0b86d1" d="M70.17,18.23h-.56c0,.62.26,1.18.67,1.58.41.4.99.66,1.63.66.63,0,1.21-.25,1.63-.66.42-.4.67-.97.67-1.58,0-.62-.26-1.18-.67-1.58-.41-.4-.99-.66-1.63-.66-.63,0-1.21.25-1.63.66-.42.4-.67.97-.67,1.58h1.12c0-.32.13-.6.34-.81.21-.21.51-.34.83-.34.33,0,.62.13.83.34.21.21.34.49.34.81,0,.32-.13.6-.34.81-.21.21-.51.34-.83.34-.33,0-.62-.13-.83-.34-.21-.21-.34-.49-.34-.81h-.56Z"/>
      <path fill="#ffffff" d="M72.19,31.95c0,.94.78,1.69,1.74,1.69s1.74-.76,1.74-1.69-.78-1.69-1.74-1.69-1.74.76-1.74,1.69Z"/>
      <path fill="#0b86d1" d="M72.19,31.95h-.56c0,.62.26,1.18.67,1.58.41.4.99.66,1.63.66.63,0,1.21-.25,1.63-.66.42-.4.67-.97.67-1.58,0-.62-.26-1.18-.67-1.58-.41-.4-.99-.66-1.63-.66-.63,0-1.21.25-1.63.66-.42.4-.67.97-.67,1.58h1.12c0-.32.13-.6.34-.81.21-.21.51-.34.83-.34.33,0,.62.13.83.34.21.21.34.49.34.81,0,.32-.13.6-.34.81-.21.21-.51.34-.83.34-.33,0-.62-.13-.83-.34-.21-.21-.34-.49-.34-.81h-.56Z"/>
      <path fill="#ffffff" d="M66.33,35.98c0,.94.78,1.69,1.74,1.69s1.74-.76,1.74-1.69-.78-1.69-1.74-1.69-1.74.76-1.74,1.69Z"/>
      <path fill="#0b86d1" d="M66.33,35.98h-.56c0,.62.26,1.18.67,1.58.41.4.99.66,1.63.66.63,0,1.21-.25,1.63-.66.42-.4.67-.97.67-1.58,0-.62-.26-1.18-.67-1.58-.41-.4-.99-.66-1.63-.66-.63,0-1.21.25-1.63.66-.42.4-.67.97-.67,1.58h1.12c0-.32.13-.6.34-.81.21-.21.51-.34.83-.34.33,0,.62.13.83.34.21.21.34.49.34.81,0,.32-.13.6-.34.81-.21.21-.51.34-.83.34-.33,0-.62-.13-.83-.34-.21-.21-.34-.49-.34-.81h-.56Z"/>
      <path fill="#ffffff" d="M84.77,34.82c0,.94.78,1.69,1.74,1.69s1.74-.76,1.74-1.69-.78-1.69-1.74-1.69-1.74.76-1.74,1.69Z"/>
      <path fill="#0b86d1" d="M84.77,34.82h-.56c0,.62.26,1.18.67,1.58.41.4.99.66,1.63.66.63,0,1.21-.25,1.63-.66.42-.4.67-.97.67-1.58,0-.62-.26-1.18-.67-1.58-.41-.4-.99-.66-1.63-.66-.63,0-1.21.25-1.63.66-.42.4-.67.97-.67,1.58h1.12c0-.32.13-.6.34-.81.21-.21.51-.34.83-.34.33,0,.62.13.83.34.21.21.34.49.34.81,0,.32-.13.6-.34.81-.21.21-.51.34-.83.34-.33,0-.62-.13-.83-.34-.21-.21-.34-.49-.34-.81h-.56Z"/>
      <path fill="#ffffff" d="M63.47,45.91c0,.94.78,1.69,1.74,1.69s1.74-.76,1.74-1.69-.78-1.69-1.74-1.69-1.74.76-1.74,1.69Z"/>
      <path fill="#0b86d1" d="M63.47,45.91h-.56c0,.62.26,1.18.67,1.58.41.4.99.66,1.63.66.63,0,1.21-.25,1.63-.66.42-.4.67-.97.67-1.58,0-.62-.26-1.18-.67-1.58-.41-.4-.99-.66-1.63-.66-.63,0-1.21.25-1.63.66-.42.4-.67.97-.67,1.58h1.12c0-.32.13-.6.34-.81.21-.21.51-.34.83-.34.33,0,.62.13.83.34.21.21.34.49.34.81,0,.32-.13.6-.34.81-.21.21-.51.34-.83.34-.33,0-.62-.13-.83-.34-.21-.21-.34-.49-.34-.81h-.56Z"/>
      <polygon fill="#ffffff" points="42.26 85.1 42.26 58.11 35.15 51.19 34.05 52.27 40.69 58.74 40.69 85.1 42.26 85.1"/>
      <polygon fill="#ffffff" points="70.78 85.1 70.78 58.74 77.42 52.27 76.32 51.19 69.21 58.11 69.21 85.1 70.78 85.1"/>
      <polygon fill="#ffffff" points="73.32 31.9 73.65 45.81 80.05 39.59 80.57 39.08 79.46 38 73.84 43.48 65.04 52.05 65.04 85.1 66.6 85.1 66.6 52.68 74.95 44.56 80.57 39.08 79.46 38 78.94 38.51 75.13 42.22 74.88 31.86 73.32 31.9 73.32 31.9"/>
      <polygon fill="#ffffff" points="78.66 29.87 78.06 41.33 86.96 35.51 86.09 34.24 79.78 38.37 80.22 29.94 78.66 29.87"/>
      <polygon fill="#ffffff" points="71.93 25.63 63.65 25.23 63.65 17.29 62.08 17.29 62.08 26.68 71.86 27.15 71.93 25.63"/>
      <polygon fill="#ffffff" points="47.13 32.96 47.13 24.24 52.01 19.48 50.91 18.4 45.56 23.6 45.56 32.96 47.13 32.96 47.13 32.96"/>
      <polygon fill="#ffffff" points="54.69 85.19 54.69 39.99 40.35 26.02 40.35 18.14 38.78 18.14 38.78 26.65 53.13 40.62 53.13 85.19 54.69 85.19"/>
      <polygon fill="#ffffff" points="52.09 38.41 60.69 27.69 60.69 11.03 59.13 11.03 59.13 27.16 50.85 37.47 52.09 38.41"/>
      <polygon fill="#ffffff" points="58.34 85.19 58.34 40.62 72.69 26.65 72.69 18.14 71.12 18.14 71.12 26.02 56.78 39.99 56.78 85.19 58.34 85.19"/>
      <polygon fill="#ffffff" points="74.86 85.1 74.86 68.57 77.23 66.02 81.74 61.16 80.58 60.14 76.07 65 73.3 67.99 73.3 85.1 74.86 85.1"/>
      <polygon fill="#ffffff" points="50.52 85.1 50.52 45.03 46.87 41.47 43.73 38.42 44.2 35.71 42.65 35.46 42.05 38.94 45.76 42.55 48.95 45.66 48.95 85.1 50.52 85.1"/>
      <polygon fill="#ffffff" points="30.65 29.14 31.09 37.57 24.78 33.44 23.91 34.71 32.82 40.53 32.22 29.06 30.65 29.14 30.65 29.14"/>
      <polygon fill="#ffffff" points="38.17 85.1 38.17 67.99 35.4 65 30.89 60.14 29.73 61.16 34.24 66.02 36.61 68.57 36.61 85.1 38.17 85.1"/>
      <polygon fill="#ffffff" points="62.52 85.1 62.52 45.66 65.71 42.55 69.42 38.94 68.82 35.46 67.27 35.71 67.74 38.42 64.61 41.47 60.95 45.03 60.95 85.1 62.52 85.1"/>
      <rect fill="#0092ff" x="41.42" y="87.22" width="28.02" height="4.02" rx="1.01" ry="1.01"/>
      <rect fill="#3babff" x="43.02" y="91.94" width="24.83" height="4.02" rx="1.01" ry="1.01"/>
      <rect fill="#73c3ff" x="44.56" y="96.65" width="21.75" height="4.02" rx="1.01" ry="1.01"/>
      <rect fill="#a6d5ff" x="48.07" y="101.37" width="14.73" height="4.02" rx="1.01" ry="1.01"/>
    </g>
  </g></g>
</svg>