<svg viewBox="0 0 1080 1350" width="1080" height="1350" xmlns="http://www.w3.org/2000/svg">
  <defs><clipPath id="wafer-clip"><circle cx="344.94" cy="709.54" r="226.5"/></clipPath></defs><g clip-path="url(#wafer-clip)"><rect x="118.69" y="483.37" width="26.14" height="26.13" rx="2" fill="rgb(247, 176, 65)"/>
  <rect x="171.98" y="483.37" width="26.16" height="26.13" rx="2" fill="rgb(247, 176, 65)"/>
  <rect x="225.28" y="483.37" width="26.14" height="26.13" rx="2" fill="rgb(247, 176, 65)"/>
  <rect x="278.56" y="483.37" width="26.16" height="26.13" rx="2" fill="rgb(247, 176, 65)"/>
  <rect x="331.87" y="483.37" width="26.14" height="26.13" rx="2" fill="rgb(46, 173, 142)"/>
  <rect x="385.15" y="483.37" width="26.16" height="26.13" rx="2" fill="rgb(247, 176, 65)"/>
  <rect x="438.45" y="483.37" width="26.14" height="26.13" rx="2" fill="rgb(247, 176, 65)"/>
  <rect x="491.74" y="483.37" width="26.16" height="26.13" rx="2" fill="rgb(247, 176, 65)"/>
  <rect x="545.04" y="483.37" width="26.14" height="26.13" rx="2" fill="rgb(247, 176, 65)"/>
  <rect x="118.69" y="536.64" width="26.14" height="26.15" rx="2" fill="rgb(247, 176, 65)"/>
  <rect x="171.98" y="536.64" width="26.16" height="26.15" rx="2" fill="rgb(247, 176, 65)"/>
  <rect x="225.28" y="536.64" width="26.14" height="26.15" rx="2" fill="rgb(46, 173, 142)"/>
  <rect x="278.56" y="536.64" width="26.16" height="26.15" rx="2" fill="rgb(46, 173, 142)"/>
  <rect x="331.87" y="536.64" width="26.14" height="26.15" rx="2" fill="rgb(46, 173, 142)"/>
  <rect x="385.15" y="536.64" width="26.16" height="26.15" rx="2" fill="rgb(46, 173, 142)"/>
  <rect x="438.45" y="536.64" width="26.14" height="26.15" rx="2" fill="rgb(46, 173, 142)"/>
  <rect x="491.74" y="536.64" width="26.16" height="26.15" rx="2" fill="rgb(247, 176, 65)"/>
  <rect x="545.04" y="536.64" width="26.14" height="26.15" rx="2" fill="rgb(247, 176, 65)"/>
  <rect x="118.69" y="589.92" width="26.14" height="26.13" rx="2" fill="rgb(247, 176, 65)"/>
  <rect x="171.98" y="589.92" width="26.16" height="26.13" rx="2" fill="rgb(46, 173, 142)"/>
  <rect x="225.28" y="589.92" width="26.14" height="26.13" rx="2" fill="rgb(46, 173, 142)"/>
  <rect x="278.56" y="589.92" width="26.16" height="26.13" rx="2" fill="rgb(46, 173, 142)"/>
  <rect x="331.87" y="589.92" width="26.14" height="26.13" rx="2" fill="rgb(224, 99, 71)"/>
  <rect x="385.15" y="589.92" width="26.16" height="26.13" rx="2" fill="rgb(46, 173, 142)"/>
  <rect x="438.45" y="589.92" width="26.14" height="26.13" rx="2" fill="rgb(46, 173, 142)"/>
  <rect x="491.74" y="589.92" width="26.16" height="26.13" rx="2" fill="rgb(46, 173, 142)"/>
  <rect x="545.04" y="589.92" width="26.14" height="26.13" rx="2" fill="rgb(247, 176, 65)"/>
  <rect x="118.69" y="643.19" width="26.14" height="26.15" rx="2" fill="rgb(46, 173, 142)"/>
  <rect x="171.98" y="643.19" width="26.16" height="26.15" rx="2" fill="rgb(46, 173, 142)"/>
  <rect x="225.28" y="643.19" width="26.14" height="26.15" rx="2" fill="rgb(46, 173, 142)"/>
  <rect x="278.56" y="643.19" width="26.16" height="26.15" rx="2" fill="rgb(46, 173, 142)"/>
  <rect x="331.87" y="643.19" width="26.14" height="26.15" rx="2" fill="rgb(46, 173, 142)"/>
  <rect x="385.15" y="643.19" width="26.16" height="26.15" rx="2" fill="rgb(46, 173, 142)"/>
  <rect x="438.45" y="643.19" width="26.14" height="26.15" rx="2" fill="rgb(46, 173, 142)"/>
  <rect x="491.74" y="643.19" width="26.16" height="26.15" rx="2" fill="rgb(224, 99, 71)"/>
  <rect x="545.04" y="643.19" width="26.14" height="26.15" rx="2" fill="rgb(46, 173, 142)"/>
  <rect x="118.69" y="696.47" width="26.14" height="26.13" rx="2" fill="rgb(46, 173, 142)"/>
  <rect x="171.98" y="696.47" width="26.16" height="26.13" rx="2" fill="rgb(46, 173, 142)"/>
  <rect x="225.28" y="696.47" width="26.14" height="26.13" rx="2" fill="rgb(46, 173, 142)"/>
  <rect x="278.56" y="696.47" width="26.16" height="26.13" rx="2" fill="rgb(224, 99, 71)"/>
  <rect x="331.87" y="696.47" width="26.14" height="26.13" rx="2" fill="rgb(46, 173, 142)"/>
  <rect x="385.15" y="696.47" width="26.16" height="26.13" rx="2" fill="rgb(46, 173, 142)"/>
  <rect x="438.45" y="696.47" width="26.14" height="26.13" rx="2" fill="rgb(46, 173, 142)"/>
  <rect x="491.74" y="696.47" width="26.16" height="26.13" rx="2" fill="rgb(46, 173, 142)"/>
  <rect x="545.04" y="696.47" width="26.14" height="26.13" rx="2" fill="rgb(46, 173, 142)"/>
  <rect x="118.69" y="749.74" width="26.14" height="26.15" rx="2" fill="rgb(46, 173, 142)"/>
  <rect x="171.98" y="749.74" width="26.16" height="26.15" rx="2" fill="rgb(224, 99, 71)"/>
  <rect x="225.28" y="749.74" width="26.14" height="26.15" rx="2" fill="rgb(46, 173, 142)"/>
  <rect x="278.56" y="749.74" width="26.16" height="26.15" rx="2" fill="rgb(46, 173, 142)"/>
  <rect x="331.87" y="749.74" width="26.14" height="26.15" rx="2" fill="rgb(46, 173, 142)"/>
  <rect x="385.15" y="749.74" width="26.16" height="26.15" rx="2" fill="rgb(46, 173, 142)"/>
  <rect x="438.45" y="749.74" width="26.14" height="26.15" rx="2" fill="rgb(46, 173, 142)"/>
  <rect x="491.74" y="749.74" width="26.16" height="26.15" rx="2" fill="rgb(46, 173, 142)"/>
  <rect x="545.04" y="749.74" width="26.14" height="26.15" rx="2" fill="rgb(46, 173, 142)"/>
  <rect x="118.69" y="803.02" width="26.14" height="26.13" rx="2" fill="rgb(247, 176, 65)"/>
  <rect x="171.98" y="803.02" width="26.16" height="26.13" rx="2" fill="rgb(46, 173, 142)"/>
  <rect x="225.28" y="803.02" width="26.14" height="26.13" rx="2" fill="rgb(46, 173, 142)"/>
  <rect x="278.56" y="803.02" width="26.16" height="26.13" rx="2" fill="rgb(46, 173, 142)"/>
  <rect x="331.87" y="803.02" width="26.14" height="26.13" rx="2" fill="rgb(46, 173, 142)"/>
  <rect x="385.15" y="803.02" width="26.16" height="26.13" rx="2" fill="rgb(46, 173, 142)"/>
  <rect x="438.45" y="803.02" width="26.14" height="26.13" rx="2" fill="rgb(224, 99, 71)"/>
  <rect x="491.74" y="803.02" width="26.16" height="26.13" rx="2" fill="rgb(46, 173, 142)"/>
  <rect x="545.04" y="803.02" width="26.14" height="26.13" rx="2" fill="rgb(247, 176, 65)"/>
  <rect x="118.69" y="856.28" width="26.14" height="26.15" rx="2" fill="rgb(247, 176, 65)"/>
  <rect x="171.98" y="856.28" width="26.16" height="26.15" rx="2" fill="rgb(247, 176, 65)"/>
  <rect x="225.28" y="856.28" width="26.14" height="26.15" rx="2" fill="rgb(46, 173, 142)"/>
  <rect x="278.56" y="856.28" width="26.16" height="26.15" rx="2" fill="rgb(46, 173, 142)"/>
  <rect x="331.87" y="856.28" width="26.14" height="26.15" rx="2" fill="rgb(46, 173, 142)"/>
  <rect x="385.15" y="856.28" width="26.16" height="26.15" rx="2" fill="rgb(46, 173, 142)"/>
  <rect x="438.45" y="856.28" width="26.14" height="26.15" rx="2" fill="rgb(46, 173, 142)"/>
  <rect x="491.74" y="856.28" width="26.16" height="26.15" rx="2" fill="rgb(247, 176, 65)"/>
  <rect x="545.04" y="856.28" width="26.14" height="26.15" rx="2" fill="rgb(247, 176, 65)"/>
  <rect x="118.69" y="909.57" width="26.14" height="26.13" rx="2" fill="rgb(247, 176, 65)"/>
  <rect x="171.98" y="909.57" width="26.16" height="26.13" rx="2" fill="rgb(247, 176, 65)"/>
  <rect x="225.28" y="909.57" width="26.14" height="26.13" rx="2" fill="rgb(247, 176, 65)"/>
  <rect x="278.56" y="909.57" width="26.16" height="26.13" rx="2" fill="rgb(46, 173, 142)"/>
  <rect x="331.87" y="909.57" width="26.14" height="26.13" rx="2" fill="rgb(46, 173, 142)"/>
  <rect x="385.15" y="909.57" width="26.16" height="26.13" rx="2" fill="rgb(46, 173, 142)"/>
  <rect x="438.45" y="909.57" width="26.14" height="26.13" rx="2" fill="rgb(247, 176, 65)"/>
  <rect x="491.74" y="909.57" width="26.16" height="26.13" rx="2" fill="rgb(247, 176, 65)"/>
  <rect x="545.04" y="909.57" width="26.14" height="26.13" rx="2" fill="rgb(247, 176, 65)"/></g>
  <rect x="660.72" y="267.4" width="390.1" height="294.77" rx="14.02" fill="rgba(9, 11, 18, 0.68)" stroke="rgba(255, 255, 255, 0.094)" stroke-width="1"/>
  <circle cx="703.09" cy="317.85" r="14.06" fill="rgb(46, 173, 142)"/>
  <rect x="660.72" y="615.21" width="390.1" height="294.77" rx="14.02" fill="rgba(9, 11, 18, 0.68)" stroke="rgba(255, 255, 255, 0.094)" stroke-width="1"/>
  <circle cx="703.09" cy="665.67" r="14.06" fill="rgb(247, 176, 65)"/>
  <rect x="660.72" y="963.02" width="390.1" height="294.77" rx="14.02" fill="rgba(9, 11, 18, 0.68)" stroke="rgba(255, 255, 255, 0.094)" stroke-width="1"/>
  <circle cx="703.09" cy="1013.48" r="14.06" fill="rgb(224, 99, 71)"/>
  <g class="sample-fill" transform="translate(75.59,440.29) scale(5.39,5.39)"><circle cx="50" cy="50" r="49" fill="rgba(255,255,255,.04)" stroke="rgba(255,255,255,.2)" stroke-width="0.8"></circle></g>
  <g class="sample-fill" transform="translate(75.59,440.29) scale(5.39,5.39)"><line x1="38" y1="98.5" x2="62" y2="98.5" stroke="rgba(255,255,255,.55)" stroke-width="1.6" stroke-linecap="round"></line></g>
  <rect data-slot="content" data-accepts="module" data-label="Content" data-role="body" x="63.59" y="283.69" width="970.93" height="1036.52" rx="16" fill="none" stroke="#3A4A5F" stroke-opacity="0.35" stroke-dasharray="12 9"/>
  <text id="field:eyebrow" data-field="eyebrow" data-role="eyebrow" data-maxlen="32" x="75.59" y="104.12" text-anchor="start" style="font-family:'Outfit','Inter',sans-serif;font-size:35.69px;font-weight:850;text-transform:uppercase;letter-spacing:1.5px;fill:rgb(247, 176, 65)" data-w="929" data-minfont="25"><tspan x="75.59" y="104.12">Foundry economics</tspan></text>
  <text id="field:headline" data-field="headline" data-role="headline" data-maxlen="37" data-minfont="34" data-maxfont="96" x="75.59" y="195.21" text-anchor="start" style="font-family:'Grift','Outfit',sans-serif;font-size:58.41px;font-weight:790;fill:rgb(255, 255, 255)" data-w="892"><tspan x="75.59" y="195.21">N3E yield and defect density</tspan></text>
  <text id="field:label-1" data-field="label-1" data-role="label" data-maxlen="10" x="733.83" y="319.05" text-anchor="start" style="font-family:'Outfit','Inter',sans-serif;font-size:29.2px;font-weight:790;text-transform:uppercase;letter-spacing:1.5px;fill:rgb(230, 234, 242)" data-w="289" data-minfont="20"><tspan x="733.83" y="319.05">Yield %</tspan></text>
  <text id="field:label-2" data-field="label-2" data-role="label" data-maxlen="5" x="689.03" y="436.17" text-anchor="start" style="font-family:'Outfit','Inter',sans-serif;font-size:99.51px;font-weight:850;fill:rgb(247, 176, 65)" data-w="193" data-minfont="70"><tspan x="689.03" y="436.17">79%</tspan></text>
  <text id="field:label-3" data-field="label-3" data-role="label" data-maxlen="32" x="689.03" y="476.48" text-anchor="start" style="font-family:'Outfit','Inter',sans-serif;font-size:29.2px;font-weight:790;text-transform:uppercase;letter-spacing:1.5px;fill:rgb(137, 146, 165)" data-w="333" data-minfont="20"><tspan x="689.03" y="476.48">good die over </tspan><tspan x="689.03" y="517.36">total</tspan></text>
  <text id="field:label-4" data-field="label-4" data-role="label" data-maxlen="12" x="733.83" y="666.86" text-anchor="start" style="font-family:'Outfit','Inter',sans-serif;font-size:29.2px;font-weight:790;text-transform:uppercase;letter-spacing:1.5px;fill:rgb(230, 234, 242)" data-w="289" data-minfont="20"><tspan x="733.83" y="666.86">Edge loss</tspan></text>
  <text id="field:label-5" data-field="label-5" data-role="label" data-maxlen="4" x="689.03" y="783.98" text-anchor="start" style="font-family:'Outfit','Inter',sans-serif;font-size:99.51px;font-weight:850;fill:rgb(247, 176, 65)" data-w="316" data-minfont="70"><tspan x="689.03" y="783.98">26</tspan></text>
  <text id="field:label-6" data-field="label-6" data-role="label" data-maxlen="32" x="689.03" y="824.3" text-anchor="start" style="font-family:'Outfit','Inter',sans-serif;font-size:29.2px;font-weight:790;text-transform:uppercase;letter-spacing:1.5px;fill:rgb(137, 146, 165)" data-w="333" data-minfont="20"><tspan x="689.03" y="824.3">ring trim per </tspan><tspan x="689.03" y="865.17">wafer</tspan></text>
  <text id="field:label-7" data-field="label-7" data-role="label" data-maxlen="24" x="733.83" y="1015.67" text-anchor="start" style="font-family:'Outfit','Inter',sans-serif;font-size:29.2px;font-weight:790;text-transform:uppercase;letter-spacing:1.5px;fill:rgb(230, 234, 242)" data-w="289" data-minfont="20"><tspan x="733.83" y="1015.67">Defect </tspan><tspan x="733.83" y="1056.55">density</tspan></text>
  <text id="field:body-1" data-field="body-1" data-role="body" data-maxlen="12" x="689.03" y="1172.67" text-anchor="start" style="font-family:'Outfit','Inter',sans-serif;font-size:99.51px;font-weight:850;fill:rgb(247, 176, 65)" data-w="234" data-minfont="62" data-maxlines="1"><tspan x="689.03" y="1172.67">0.09</tspan></text>
  <text id="field:footer-1" data-field="footer-1" data-role="footer" data-maxlen="16" x="689.03" y="1211.98" text-anchor="start" style="font-family:'Outfit','Inter',sans-serif;font-size:29.2px;font-weight:790;text-transform:uppercase;letter-spacing:1.5px;fill:rgb(137, 146, 165)" data-w="333" data-minfont="20"><tspan x="689.03" y="1211.98">D0 per cm2</tspan></text>
  <text id="field:footer-2" data-field="footer-2" data-role="footer" data-maxlen="56" x="75.59" y="1290.69" text-anchor="start" style="font-family:'Outfit','Inter',sans-serif;font-size:29.2px;font-weight:790;text-transform:uppercase;letter-spacing:1.5px;fill:rgb(137, 146, 165)" data-w="929" data-minfont="20"><tspan x="75.59" y="1290.69">SEMIANALYSIS · N3E · 300MM RETICLE</tspan></text>
</svg>