<svg viewBox="0 0 1080 1350" width="1080" height="1350" xmlns="http://www.w3.org/2000/svg">
  <defs><linearGradient id="grad-1" x1="0.5" y1="0" x2="0.5" y2="1"><stop offset="0%" stop-color="rgba(7, 9, 16, 0)"/><stop offset="30%" stop-color="rgba(7, 9, 16, 0.7)"/><stop offset="100%" stop-color="rgba(7, 9, 16, 0.92)"/></linearGradient></defs>
  <g class="sample-fill" transform="translate(0,0) scale(10.8,10.8)"><g stroke="#0B86D1" stroke-width=".3" opacity=".07"><line x1="5" y1="0" x2="5" y2="125"></line><line x1="0" y1="6.25" x2="100" y2="6.25"></line><line x1="10" y1="0" x2="10" y2="125"></line><line x1="0" y1="12.5" x2="100" y2="12.5"></line><line x1="15" y1="0" x2="15" y2="125"></line><line x1="0" y1="18.75" x2="100" y2="18.75"></line><line x1="20" y1="0" x2="20" y2="125"></line><line x1="0" y1="25" x2="100" y2="25"></line><line x1="25" y1="0" x2="25" y2="125"></line><line x1="0" y1="31.25" x2="100" y2="31.25"></line><line x1="30" y1="0" x2="30" y2="125"></line><line x1="0" y1="37.5" x2="100" y2="37.5"></line><line x1="35" y1="0" x2="35" y2="125"></line><line x1="0" y1="43.75" x2="100" y2="43.75"></line><line x1="40" y1="0" x2="40" y2="125"></line><line x1="0" y1="50" x2="100" y2="50"></line><line x1="45" y1="0" x2="45" y2="125"></line><line x1="0" y1="56.25" x2="100" y2="56.25"></line><line x1="50" y1="0" x2="50" y2="125"></line><line x1="0" y1="62.5" x2="100" y2="62.5"></line><line x1="55" y1="0" x2="55" y2="125"></line><line x1="0" y1="68.75" x2="100" y2="68.75"></line><line x1="60" y1="0" x2="60" y2="125"></line><line x1="0" y1="75" x2="100" y2="75"></line><line x1="65" y1="0" x2="65" y2="125"></line><line x1="0" y1="81.25" x2="100" y2="81.25"></line><line x1="70" y1="0" x2="70" y2="125"></line><line x1="0" y1="87.5" x2="100" y2="87.5"></line><line x1="75" y1="0" x2="75" y2="125"></line><line x1="0" y1="93.75" x2="100" y2="93.75"></line><line x1="80" y1="0" x2="80" y2="125"></line><line x1="0" y1="100" x2="100" y2="100"></line><line x1="85" y1="0" x2="85" y2="125"></line><line x1="0" y1="106.25" x2="100" y2="106.25"></line><line x1="90" y1="0" x2="90" y2="125"></line><line x1="0" y1="112.5" x2="100" y2="112.5"></line><line x1="95" y1="0" x2="95" y2="125"></line><line x1="0" y1="118.75" x2="100" y2="118.75"></line></g><g stroke="#0B86D1" stroke-width=".4" opacity=".14"><line x1="10" y1="0" x2="10" y2="125"></line><line x1="0" y1="12.5" x2="100" y2="12.5"></line><line x1="20" y1="0" x2="20" y2="125"></line><line x1="0" y1="25" x2="100" y2="25"></line><line x1="30" y1="0" x2="30" y2="125"></line><line x1="0" y1="37.5" x2="100" y2="37.5"></line><line x1="40" y1="0" x2="40" y2="125"></line><line x1="0" y1="50" x2="100" y2="50"></line><line x1="50" y1="0" x2="50" y2="125"></line><line x1="0" y1="62.5" x2="100" y2="62.5"></line><line x1="60" y1="0" x2="60" y2="125"></line><line x1="0" y1="75" x2="100" y2="75"></line><line x1="70" y1="0" x2="70" y2="125"></line><line x1="0" y1="87.5" x2="100" y2="87.5"></line><line x1="80" y1="0" x2="80" y2="125"></line><line x1="0" y1="100" x2="100" y2="100"></line><line x1="90" y1="0" x2="90" y2="125"></line><line x1="0" y1="112.5" x2="100" y2="112.5"></line></g><path d="M3 3h5M3 3v5" stroke="#0B86D1" stroke-width=".6" opacity=".55" fill="none"></path><path d="M97 3h-5M97 3v5" stroke="#0B86D1" stroke-width=".6" opacity=".55" fill="none"></path><path d="M3 60h5M3 60v-5" stroke="#0B86D1" stroke-width=".6" opacity=".55" fill="none"></path><path d="M97 60h-5M97 60v-5" stroke="#0B86D1" stroke-width=".6" opacity=".55" fill="none"></path><g opacity=".9"><rect x="21" y="18" width="58" height="5.5" fill="rgba(11,134,209,.06)" stroke="#0B86D1" stroke-width=".55"></rect><rect x="29" y="26" width="42" height="4.5" fill="rgba(11,134,209,.06)" stroke="#0B86D1" stroke-width=".55"></rect><rect x="21" y="33" width="58" height="3.5" fill="rgba(11,134,209,.06)" stroke="#0B86D1" stroke-width=".55"></rect><rect x="14" y="39" width="72" height="7" fill="rgba(11,134,209,.06)" stroke="#0B86D1" stroke-width=".55"></rect><circle cx="20" cy="47.6" r="1.25" fill="none" stroke="#0B86D1" stroke-width=".5"></circle><circle cx="26" cy="47.6" r="1.25" fill="none" stroke="#0B86D1" stroke-width=".5"></circle><circle cx="32" cy="47.6" r="1.25" fill="none" stroke="#0B86D1" stroke-width=".5"></circle><circle cx="38" cy="47.6" r="1.25" fill="none" stroke="#0B86D1" stroke-width=".5"></circle><circle cx="44" cy="47.6" r="1.25" fill="none" stroke="#0B86D1" stroke-width=".5"></circle><circle cx="50" cy="47.6" r="1.25" fill="none" stroke="#0B86D1" stroke-width=".5"></circle><circle cx="56" cy="47.6" r="1.25" fill="none" stroke="#0B86D1" stroke-width=".5"></circle><circle cx="62" cy="47.6" r="1.25" fill="none" stroke="#0B86D1" stroke-width=".5"></circle><circle cx="68" cy="47.6" r="1.25" fill="none" stroke="#0B86D1" stroke-width=".5"></circle><circle cx="74" cy="47.6" r="1.25" fill="none" stroke="#0B86D1" stroke-width=".5"></circle><circle cx="80" cy="47.6" r="1.25" fill="none" stroke="#0B86D1" stroke-width=".5"></circle><path d="M79 20.75H90" stroke="#0B86D1" stroke-width=".35" opacity=".5"></path><path d="M71 28.25H90" stroke="#0B86D1" stroke-width=".35" opacity=".5"></path><path d="M79 34.75H90" stroke="#0B86D1" stroke-width=".35" opacity=".5"></path><path d="M86 42.5H90" stroke="#0B86D1" stroke-width=".35" opacity=".5"></path></g><g stroke="#0B86D1" stroke-width=".45" opacity=".8"><path d="M11 18v28M9 18h4M9 46h4"></path><path d="M11 20l1.3 2.2h-2.6zM11 44l1.3-2.2h-2.6z" fill="#0B86D1" stroke="none"></path></g><g stroke="#0B86D1" stroke-width=".45" opacity=".8"><path d="M14 52h72M14 50v4M86 50v4"></path><path d="M16 52l-2.2 1.3v-2.6zM84 52l2.2 1.3v-2.6z" fill="#0B86D1" stroke="none"></path></g></g>
  <rect x="0" y="648.01" width="1080" height="701.99" fill="url(#grad-1)"/>
  <rect x="86.39" y="1159.34" width="907.21" height="1" fill="rgba(255, 255, 255, 0.13)"/>
  <rect data-slot="content" data-accepts="module" data-label="Content" data-role="body" x="34.9" y="200.71" width="994.76" height="1053.3" rx="16" fill="none" stroke="#3A4A5F" stroke-opacity="0.35" stroke-dasharray="12 9"/>
  <text id="field:body-1" data-field="body-1" data-role="body" data-maxlen="16" x="978.64" y="229.99" text-anchor="start" style="font-family:'Outfit','Inter',sans-serif;font-size:21.6px;font-weight:400;opacity:0.77;fill:rgb(255, 255, 255)" data-w="41" data-minfont="14" data-maxlines="3"><tspan x="978.64" y="229.99">LID</tspan></text>
  <text id="field:body-2" data-field="body-2" data-role="body" data-maxlen="12" x="978.64" y="310.99" text-anchor="start" style="font-family:'Outfit','Inter',sans-serif;font-size:21.6px;font-weight:400;opacity:0.77;fill:rgb(255, 255, 255)" data-w="42" data-minfont="14" data-maxlines="2"><tspan x="978.64" y="310.99">DIE</tspan></text>
  <text id="field:body-3" data-field="body-3" data-role="body" data-maxlen="17" x="978.64" y="381.19" text-anchor="start" style="font-family:'Outfit','Inter',sans-serif;font-size:21.6px;font-weight:400;opacity:0.77;fill:rgb(255, 255, 255)" data-w="42" data-minfont="14" data-maxlines="3"><tspan x="978.64" y="381.19">INT</tspan></text>
  <text id="field:body-4" data-field="body-4" data-role="body" data-maxlen="19" x="978.64" y="464.89" text-anchor="start" style="font-family:'Outfit','Inter',sans-serif;font-size:21.6px;font-weight:400;opacity:0.77;fill:rgb(255, 255, 255)" data-w="48" data-minfont="14" data-maxlines="3"><tspan x="978.64" y="464.89">SUB</tspan></text>
  <text id="field:body-5" data-field="body-5" data-role="body" data-maxlen="120" x="46.9" y="414.67" text-anchor="start" transform="rotate(-90 46.9 414.67)" style="font-family:'Outfit','Inter',sans-serif;font-size:23.76px;font-weight:400;opacity:0.85;fill:rgb(255, 255, 255)" data-w="959" data-minfont="15" data-maxlines="1"><tspan x="46.9" y="414.67">Z 3.85 mm</tspan></text>
  <text id="field:body-6" data-field="body-6" data-role="body" data-maxlen="31" x="411.23" y="603.94" text-anchor="start" style="font-family:'Outfit','Inter',sans-serif;font-size:23.76px;font-weight:400;opacity:0.85;fill:rgb(255, 255, 255)" data-w="246" data-minfont="15" data-maxlines="1"><tspan x="411.23" y="603.94">PACKAGE 68 x 68 mm</tspan></text>
  <text id="field:eyebrow" data-field="eyebrow" data-role="eyebrow" data-maxlen="32" x="86.39" y="640.77" text-anchor="start" style="font-family:'Outfit','Inter',sans-serif;font-size:35.69px;font-weight:850;text-transform:uppercase;letter-spacing:1.5px;fill:rgb(247, 176, 65)" data-w="907" data-minfont="25"><tspan x="86.39" y="640.77">Package cross section</tspan></text>
  <text id="field:headline" data-field="headline" data-role="headline" data-maxlen="58" data-minfont="34" data-maxfont="96" x="86.39" y="771.27" text-anchor="start" style="font-family:'Grift','Outfit',sans-serif;font-size:110.32px;font-weight:790;fill:rgb(255, 255, 255)" data-w="871"><tspan x="86.39" y="771.27">How a modern </tspan><tspan x="86.39" y="882.68">accelerator is </tspan><tspan x="86.39" y="994.1">stacked</tspan></text>
  <text id="field:label-1" data-field="label-1" data-role="label" data-maxlen="51" x="86.39" y="1096.5" text-anchor="start" style="font-family:'Outfit','Inter',sans-serif;font-size:29.2px;font-weight:790;text-transform:uppercase;letter-spacing:1.5px;fill:rgb(11, 134, 209)" data-w="907" data-minfont="20"><tspan x="86.39" y="1096.5">SECTION A-A · NOT TO SCALE · REV 2026.2</tspan></text>
  <text id="field:footer-1" data-field="footer-1" data-role="footer" data-maxlen="56" x="86.39" y="1224.5" text-anchor="start" style="font-family:'Outfit','Inter',sans-serif;font-size:29.2px;font-weight:790;text-transform:uppercase;letter-spacing:1.5px;fill:rgb(137, 146, 165)" data-w="907" data-minfont="20"><tspan x="86.39" y="1224.5">SEMIANALYSIS · ADVANCED PACKAGING</tspan></text>
</svg>