<svg viewBox="0 0 1080 1350" width="1080" height="1350" xmlns="http://www.w3.org/2000/svg">
  <defs><linearGradient id="grad-1" x1="0.5" y1="0" x2="0.5" y2="1"><stop offset="30%" stop-color="rgba(0, 0, 0, 0)"/><stop offset="40%" stop-color="rgba(0, 0, 0, 0)"/><stop offset="74%" stop-color="rgba(0, 0, 0, 0.26)"/><stop offset="100%" stop-color="rgba(0, 0, 0, 0.66)"/></linearGradient></defs>
  <g class="sample-fill" transform="translate(0,0) scale(10.8,13.5)"><defs><filter id="g0-dsGlow" x="-60%" y="-60%" width="220%" height="220%"><feGaussianBlur stdDeviation="1.1" result="b"></feGaussianBlur><feMerge><feMergeNode in="b"></feMergeNode><feMergeNode in="SourceGraphic"></feMergeNode></feMerge></filter></defs><rect x="6" y="6.5" width="88" height="61" rx="3" fill="rgba(255,255,255,.015)" stroke="rgba(255,255,255,.14)" stroke-width="0.5"></rect><rect x="13" y="13.5" width="74" height="47" rx="1.5" fill="none" stroke="rgba(255,255,255,.08)" stroke-width="0.4"></rect><rect x="18" y="10" width="1.5" height="3" rx="0.5" fill="rgba(255,255,255,0.42)"></rect><rect x="20.5" y="10" width="1.5" height="3" rx="0.5" fill="rgba(255,255,255,0.18)"></rect><rect x="23" y="10" width="1.5" height="3" rx="0.5" fill="rgba(255,255,255,0.18)"></rect><rect x="25.5" y="10" width="1.5" height="3" rx="0.5" fill="rgba(255,255,255,0.42)"></rect><rect x="28" y="10" width="1.5" height="3" rx="0.5" fill="rgba(255,255,255,0.18)"></rect><rect x="30.5" y="10" width="1.5" height="3" rx="0.5" fill="rgba(255,255,255,0.18)"></rect><rect x="33" y="10" width="1.5" height="3" rx="0.5" fill="rgba(255,255,255,0.42)"></rect><rect x="35.5" y="10" width="1.5" height="3" rx="0.5" fill="rgba(255,255,255,0.18)"></rect><rect x="38" y="10" width="1.5" height="3" rx="0.5" fill="rgba(255,255,255,0.18)"></rect><rect x="40.5" y="10" width="1.5" height="3" rx="0.5" fill="rgba(255,255,255,0.42)"></rect><rect x="43" y="10" width="1.5" height="3" rx="0.5" fill="rgba(255,255,255,0.18)"></rect><rect x="45.5" y="10" width="1.5" height="3" rx="0.5" fill="rgba(255,255,255,0.18)"></rect><rect x="48" y="10" width="1.5" height="3" rx="0.5" fill="rgba(255,255,255,0.42)"></rect><rect x="50.5" y="10" width="1.5" height="3" rx="0.5" fill="rgba(255,255,255,0.18)"></rect><rect x="53" y="10" width="1.5" height="3" rx="0.5" fill="rgba(255,255,255,0.18)"></rect><rect x="55.5" y="10" width="1.5" height="3" rx="0.5" fill="rgba(255,255,255,0.42)"></rect><rect x="58" y="10" width="1.5" height="3" rx="0.5" fill="rgba(255,255,255,0.18)"></rect><rect x="60.5" y="10" width="1.5" height="3" rx="0.5" fill="rgba(255,255,255,0.18)"></rect><rect x="63" y="10" width="1.5" height="3" rx="0.5" fill="rgba(255,255,255,0.42)"></rect><rect x="65.5" y="10" width="1.5" height="3" rx="0.5" fill="rgba(255,255,255,0.18)"></rect><rect x="68" y="10" width="1.5" height="3" rx="0.5" fill="rgba(255,255,255,0.18)"></rect><rect x="70.5" y="10" width="1.5" height="3" rx="0.5" fill="rgba(255,255,255,0.42)"></rect><rect x="73" y="10" width="1.5" height="3" rx="0.5" fill="rgba(255,255,255,0.18)"></rect><rect x="75.5" y="10" width="1.5" height="3" rx="0.5" fill="rgba(255,255,255,0.18)"></rect><rect x="78" y="10" width="1.5" height="3" rx="0.5" fill="rgba(255,255,255,0.42)"></rect><rect x="80.5" y="10" width="1.5" height="3" rx="0.5" fill="rgba(255,255,255,0.18)"></rect><rect x="18" y="60.5" width="1.5" height="3" rx="0.5" fill="rgba(255,255,255,0.18)"></rect><rect x="20.5" y="60.5" width="1.5" height="3" rx="0.5" fill="rgba(255,255,255,0.42)"></rect><rect x="23" y="60.5" width="1.5" height="3" rx="0.5" fill="rgba(255,255,255,0.18)"></rect><rect x="25.5" y="60.5" width="1.5" height="3" rx="0.5" fill="rgba(255,255,255,0.18)"></rect><rect x="28" y="60.5" width="1.5" height="3" rx="0.5" fill="rgba(255,255,255,0.42)"></rect><rect x="30.5" y="60.5" width="1.5" height="3" rx="0.5" fill="rgba(255,255,255,0.18)"></rect><rect x="33" y="60.5" width="1.5" height="3" rx="0.5" fill="rgba(255,255,255,0.18)"></rect><rect x="35.5" y="60.5" width="1.5" height="3" rx="0.5" fill="rgba(255,255,255,0.42)"></rect><rect x="38" y="60.5" width="1.5" height="3" rx="0.5" fill="rgba(255,255,255,0.18)"></rect><rect x="40.5" y="60.5" width="1.5" height="3" rx="0.5" fill="rgba(255,255,255,0.18)"></rect><rect x="43" y="60.5" width="1.5" height="3" rx="0.5" fill="rgba(255,255,255,0.42)"></rect><rect x="45.5" y="60.5" width="1.5" height="3" rx="0.5" fill="rgba(255,255,255,0.18)"></rect><rect x="48" y="60.5" width="1.5" height="3" rx="0.5" fill="rgba(255,255,255,0.18)"></rect><rect x="50.5" y="60.5" width="1.5" height="3" rx="0.5" fill="rgba(255,255,255,0.42)"></rect><rect x="53" y="60.5" width="1.5" height="3" rx="0.5" fill="rgba(255,255,255,0.18)"></rect><rect x="55.5" y="60.5" width="1.5" height="3" rx="0.5" fill="rgba(255,255,255,0.18)"></rect><rect x="58" y="60.5" width="1.5" height="3" rx="0.5" fill="rgba(255,255,255,0.42)"></rect><rect x="60.5" y="60.5" width="1.5" height="3" rx="0.5" fill="rgba(255,255,255,0.18)"></rect><rect x="63" y="60.5" width="1.5" height="3" rx="0.5" fill="rgba(255,255,255,0.18)"></rect><rect x="65.5" y="60.5" width="1.5" height="3" rx="0.5" fill="rgba(255,255,255,0.42)"></rect><rect x="68" y="60.5" width="1.5" height="3" rx="0.5" fill="rgba(255,255,255,0.18)"></rect><rect x="70.5" y="60.5" width="1.5" height="3" rx="0.5" fill="rgba(255,255,255,0.18)"></rect><rect x="73" y="60.5" width="1.5" height="3" rx="0.5" fill="rgba(255,255,255,0.42)"></rect><rect x="75.5" y="60.5" width="1.5" height="3" rx="0.5" fill="rgba(255,255,255,0.18)"></rect><rect x="78" y="60.5" width="1.5" height="3" rx="0.5" fill="rgba(255,255,255,0.18)"></rect><rect x="80.5" y="60.5" width="1.5" height="3" rx="0.5" fill="rgba(255,255,255,0.42)"></rect><rect x="9.5" y="16" width="3" height="1.5" rx="0.5" fill="rgba(255,255,255,0.36)"></rect><rect x="9.5" y="19.4" width="3" height="1.5" rx="0.5" fill="rgba(255,255,255,0.14)"></rect><rect x="9.5" y="22.8" width="3" height="1.5" rx="0.5" fill="rgba(255,255,255,0.14)"></rect><rect x="9.5" y="26.2" width="3" height="1.5" rx="0.5" fill="rgba(255,255,255,0.36)"></rect><rect x="9.5" y="29.6" width="3" height="1.5" rx="0.5" fill="rgba(255,255,255,0.14)"></rect><rect x="9.5" y="33" width="3" height="1.5" rx="0.5" fill="rgba(255,255,255,0.14)"></rect><rect x="9.5" y="36.4" width="3" height="1.5" rx="0.5" fill="rgba(255,255,255,0.36)"></rect><rect x="9.5" y="39.8" width="3" height="1.5" rx="0.5" fill="rgba(255,255,255,0.14)"></rect><rect x="9.5" y="43.2" width="3" height="1.5" rx="0.5" fill="rgba(255,255,255,0.14)"></rect><rect x="9.5" y="46.599999999999994" width="3" height="1.5" rx="0.5" fill="rgba(255,255,255,0.36)"></rect><rect x="9.5" y="50" width="3" height="1.5" rx="0.5" fill="rgba(255,255,255,0.14)"></rect><rect x="9.5" y="53.4" width="3" height="1.5" rx="0.5" fill="rgba(255,255,255,0.14)"></rect><rect x="9.5" y="56.8" width="3" height="1.5" rx="0.5" fill="rgba(255,255,255,0.36)"></rect><rect x="87.5" y="16" width="3" height="1.5" rx="0.5" fill="rgba(255,255,255,0.14)"></rect><rect x="87.5" y="19.4" width="3" height="1.5" rx="0.5" fill="rgba(255,255,255,0.14)"></rect><rect x="87.5" y="22.8" width="3" height="1.5" rx="0.5" fill="rgba(255,255,255,0.36)"></rect><rect x="87.5" y="26.2" width="3" height="1.5" rx="0.5" fill="rgba(255,255,255,0.14)"></rect><rect x="87.5" y="29.6" width="3" height="1.5" rx="0.5" fill="rgba(255,255,255,0.14)"></rect><rect x="87.5" y="33" width="3" height="1.5" rx="0.5" fill="rgba(255,255,255,0.36)"></rect><rect x="87.5" y="36.4" width="3" height="1.5" rx="0.5" fill="rgba(255,255,255,0.14)"></rect><rect x="87.5" y="39.8" width="3" height="1.5" rx="0.5" fill="rgba(255,255,255,0.14)"></rect><rect x="87.5" y="43.2" width="3" height="1.5" rx="0.5" fill="rgba(255,255,255,0.36)"></rect><rect x="87.5" y="46.599999999999994" width="3" height="1.5" rx="0.5" fill="rgba(255,255,255,0.14)"></rect><rect x="87.5" y="50" width="3" height="1.5" rx="0.5" fill="rgba(255,255,255,0.14)"></rect><rect x="87.5" y="53.4" width="3" height="1.5" rx="0.5" fill="rgba(255,255,255,0.36)"></rect><rect x="87.5" y="56.8" width="3" height="1.5" rx="0.5" fill="rgba(255,255,255,0.14)"></rect><g><rect x="25.00" y="17.00" width="2.28" height="2.67" rx="0.5" fill="#F7B041" opacity="0.69" filter="url(#g0-dsGlow)"></rect><rect x="27.94" y="17.00" width="2.28" height="2.67" rx="0.5" fill="#F7B041" opacity="0.27"></rect><rect x="30.88" y="17.00" width="2.28" height="2.67" rx="0.5" fill="#F7B041" opacity="0.30"></rect><rect x="33.82" y="17.00" width="2.28" height="2.67" rx="0.5" fill="#F7B041" opacity="0.59"></rect><rect x="36.76" y="17.00" width="2.28" height="2.67" rx="0.5" fill="#F7B041" opacity="0.56"></rect><rect x="39.71" y="17.00" width="2.28" height="2.67" rx="0.5" fill="#F7B041" opacity="0.30"></rect><rect x="42.65" y="17.00" width="2.28" height="2.67" rx="0.5" fill="#F7B041" opacity="0.25"></rect><rect x="45.59" y="17.00" width="2.28" height="2.67" rx="0.5" fill="#F7B041" opacity="0.61"></rect><rect x="48.53" y="17.00" width="2.28" height="2.67" rx="0.5" fill="#F7B041" opacity="0.73" filter="url(#g0-dsGlow)"></rect><rect x="51.47" y="17.00" width="2.28" height="2.67" rx="0.5" fill="#F7B041" opacity="0.23"></rect><rect x="54.41" y="17.00" width="2.28" height="2.67" rx="0.5" fill="#F7B041" opacity="0.49"></rect><rect x="57.35" y="17.00" width="2.28" height="2.67" rx="0.5" fill="#F7B041" opacity="0.78" filter="url(#g0-dsGlow)"></rect><rect x="60.29" y="17.00" width="2.28" height="2.67" rx="0.5" fill="#F7B041" opacity="0.66"></rect><rect x="63.24" y="17.00" width="2.28" height="2.67" rx="0.5" fill="#F7B041" opacity="0.47"></rect><rect x="66.18" y="17.00" width="2.28" height="2.67" rx="0.5" fill="#F7B041" opacity="0.74" filter="url(#g0-dsGlow)"></rect><rect x="69.12" y="17.00" width="2.28" height="2.67" rx="0.5" fill="#F7B041" opacity="0.42"></rect><rect x="72.06" y="17.00" width="2.28" height="2.67" rx="0.5" fill="#F7B041" opacity="0.77" filter="url(#g0-dsGlow)"></rect><rect x="75.00" y="17.00" width="2.28" height="2.67" rx="0.5" fill="#F7B041" opacity="0.63"></rect><rect x="25.00" y="20.64" width="2.28" height="2.67" rx="0.5" fill="#F7B041" opacity="0.54"></rect><rect x="27.94" y="20.64" width="2.28" height="2.67" rx="0.5" fill="#F7B041" opacity="0.47"></rect><rect x="30.88" y="20.64" width="2.28" height="2.67" rx="0.5" fill="#F7B041" opacity="0.54"></rect><rect x="33.82" y="20.64" width="2.28" height="2.67" rx="0.5" fill="#F7B041" opacity="0.27"></rect><rect x="36.76" y="20.64" width="2.28" height="2.67" rx="0.5" fill="#F7B041" opacity="0.66"></rect><rect x="39.71" y="20.64" width="2.28" height="2.67" rx="0.5" fill="#F7B041" opacity="0.63"></rect><rect x="42.65" y="20.64" width="2.28" height="2.67" rx="0.5" fill="#F7B041" opacity="0.20"></rect><rect x="45.59" y="20.64" width="2.28" height="2.67" rx="0.5" fill="#F7B041" opacity="0.76" filter="url(#g0-dsGlow)"></rect><rect x="48.53" y="20.64" width="2.28" height="2.67" rx="0.5" fill="#F7B041" opacity="0.69" filter="url(#g0-dsGlow)"></rect><rect x="51.47" y="20.64" width="2.28" height="2.67" rx="0.5" fill="#F7B041" opacity="0.39"></rect><rect x="54.41" y="20.64" width="2.28" height="2.67" rx="0.5" fill="#F7B041" opacity="0.44"></rect><rect x="57.35" y="20.64" width="2.28" height="2.67" rx="0.5" fill="#F7B041" opacity="0.42"></rect><rect x="60.29" y="20.64" width="2.28" height="2.67" rx="0.5" fill="#F7B041" opacity="0.53"></rect><rect x="63.24" y="20.64" width="2.28" height="2.67" rx="0.5" fill="#F7B041" opacity="0.37"></rect><rect x="66.18" y="20.64" width="2.28" height="2.67" rx="0.5" fill="#F7B041" opacity="0.26"></rect><rect x="69.12" y="20.64" width="2.28" height="2.67" rx="0.5" fill="#F7B041" opacity="0.43"></rect><rect x="72.06" y="20.64" width="2.28" height="2.67" rx="0.5" fill="#F7B041" opacity="0.39"></rect><rect x="75.00" y="20.64" width="2.28" height="2.67" rx="0.5" fill="#F7B041" opacity="0.47"></rect><rect x="25.00" y="24.27" width="2.28" height="2.67" rx="0.5" fill="#F7B041" opacity="0.49"></rect><rect x="27.94" y="24.27" width="2.28" height="2.67" rx="0.5" fill="#F7B041" opacity="0.45"></rect><rect x="30.88" y="24.27" width="2.28" height="2.67" rx="0.5" fill="#F7B041" opacity="0.33"></rect><rect x="33.82" y="24.27" width="2.28" height="2.67" rx="0.5" fill="#F7B041" opacity="0.64"></rect><rect x="36.76" y="24.27" width="2.28" height="2.67" rx="0.5" fill="#F7B041" opacity="0.42"></rect><rect x="39.71" y="24.27" width="2.28" height="2.67" rx="0.5" fill="#F7B041" opacity="0.48"></rect><rect x="42.65" y="24.27" width="2.28" height="2.67" rx="0.5" fill="#F7B041" opacity="0.43"></rect><rect x="45.59" y="24.27" width="2.28" height="2.67" rx="0.5" fill="#F7B041" opacity="0.26"></rect><rect x="48.53" y="24.27" width="2.28" height="2.67" rx="0.5" fill="#F7B041" opacity="0.73" filter="url(#g0-dsGlow)"></rect><rect x="51.47" y="24.27" width="2.28" height="2.67" rx="0.5" fill="#F7B041" opacity="0.61"></rect><rect x="54.41" y="24.27" width="2.28" height="2.67" rx="0.5" fill="#F7B041" opacity="0.72" filter="url(#g0-dsGlow)"></rect><rect x="57.35" y="24.27" width="2.28" height="2.67" rx="0.5" fill="#F7B041" opacity="0.58"></rect><rect x="60.29" y="24.27" width="2.28" height="2.67" rx="0.5" fill="#F7B041" opacity="0.55"></rect><rect x="63.24" y="24.27" width="2.28" height="2.67" rx="0.5" fill="#F7B041" opacity="0.34"></rect><rect x="66.18" y="24.27" width="2.28" height="2.67" rx="0.5" fill="#F7B041" opacity="0.50"></rect><rect x="69.12" y="24.27" width="2.28" height="2.67" rx="0.5" fill="#F7B041" opacity="0.21"></rect><rect x="72.06" y="24.27" width="2.28" height="2.67" rx="0.5" fill="#F7B041" opacity="0.36"></rect><rect x="75.00" y="24.27" width="2.28" height="2.67" rx="0.5" fill="#F7B041" opacity="0.27"></rect><rect x="25.00" y="27.91" width="2.28" height="2.67" rx="0.5" fill="#F7B041" opacity="0.69" filter="url(#g0-dsGlow)"></rect><rect x="27.94" y="27.91" width="2.28" height="2.67" rx="0.5" fill="#F7B041" opacity="0.34"></rect><rect x="30.88" y="27.91" width="2.28" height="2.67" rx="0.5" fill="#F7B041" opacity="0.31"></rect><rect x="33.82" y="27.91" width="2.28" height="2.67" rx="0.5" fill="#F7B041" opacity="0.22"></rect><rect x="36.76" y="27.91" width="2.28" height="2.67" rx="0.5" fill="#F7B041" opacity="0.73" filter="url(#g0-dsGlow)"></rect><rect x="39.71" y="27.91" width="2.28" height="2.67" rx="0.5" fill="#F7B041" opacity="0.18"></rect><rect x="42.65" y="27.91" width="2.28" height="2.67" rx="0.5" fill="#F7B041" opacity="0.61"></rect><rect x="45.59" y="27.91" width="2.28" height="2.67" rx="0.5" fill="#F7B041" opacity="0.30"></rect><rect x="48.53" y="27.91" width="2.28" height="2.67" rx="0.5" fill="#F7B041" opacity="0.66"></rect><rect x="51.47" y="27.91" width="2.28" height="2.67" rx="0.5" fill="#F7B041" opacity="0.54"></rect><rect x="54.41" y="27.91" width="2.28" height="2.67" rx="0.5" fill="#F7B041" opacity="0.61"></rect><rect x="57.35" y="27.91" width="2.28" height="2.67" rx="0.5" fill="#F7B041" opacity="0.24"></rect><rect x="60.29" y="27.91" width="2.28" height="2.67" rx="0.5" fill="#F7B041" opacity="0.67"></rect><rect x="63.24" y="27.91" width="2.28" height="2.67" rx="0.5" fill="#F7B041" opacity="0.72" filter="url(#g0-dsGlow)"></rect><rect x="66.18" y="27.91" width="2.28" height="2.67" rx="0.5" fill="#F7B041" opacity="0.58"></rect><rect x="69.12" y="27.91" width="2.28" height="2.67" rx="0.5" fill="#F7B041" opacity="0.41"></rect><rect x="72.06" y="27.91" width="2.28" height="2.67" rx="0.5" fill="#F7B041" opacity="0.74" filter="url(#g0-dsGlow)"></rect><rect x="75.00" y="27.91" width="2.28" height="2.67" rx="0.5" fill="#F7B041" opacity="0.64"></rect><rect x="25.00" y="31.55" width="2.28" height="2.67" rx="0.5" fill="#F7B041" opacity="0.75" filter="url(#g0-dsGlow)"></rect><rect x="27.94" y="31.55" width="2.28" height="2.67" rx="0.5" fill="#F7B041" opacity="0.57"></rect><rect x="30.88" y="31.55" width="2.28" height="2.67" rx="0.5" fill="#F7B041" opacity="0.33"></rect><rect x="33.82" y="31.55" width="2.28" height="2.67" rx="0.5" fill="#F7B041" opacity="0.35"></rect><rect x="36.76" y="31.55" width="2.28" height="2.67" rx="0.5" fill="#F7B041" opacity="0.52"></rect><rect x="39.71" y="31.55" width="2.28" height="2.67" rx="0.5" fill="#F7B041" opacity="0.51"></rect><rect x="42.65" y="31.55" width="2.28" height="2.67" rx="0.5" fill="#F7B041" opacity="0.45"></rect><rect x="45.59" y="31.55" width="2.28" height="2.67" rx="0.5" fill="#F7B041" opacity="0.47"></rect><rect x="48.53" y="31.55" width="2.28" height="2.67" rx="0.5" fill="#F7B041" opacity="0.44"></rect><rect x="51.47" y="31.55" width="2.28" height="2.67" rx="0.5" fill="#F7B041" opacity="0.58"></rect><rect x="54.41" y="31.55" width="2.28" height="2.67" rx="0.5" fill="#F7B041" opacity="0.48"></rect><rect x="57.35" y="31.55" width="2.28" height="2.67" rx="0.5" fill="#F7B041" opacity="0.76" filter="url(#g0-dsGlow)"></rect><rect x="60.29" y="31.55" width="2.28" height="2.67" rx="0.5" fill="#F7B041" opacity="0.31"></rect><rect x="63.24" y="31.55" width="2.28" height="2.67" rx="0.5" fill="#F7B041" opacity="0.46"></rect><rect x="66.18" y="31.55" width="2.28" height="2.67" rx="0.5" fill="#F7B041" opacity="0.73" filter="url(#g0-dsGlow)"></rect><rect x="69.12" y="31.55" width="2.28" height="2.67" rx="0.5" fill="#F7B041" opacity="0.75" filter="url(#g0-dsGlow)"></rect><rect x="72.06" y="31.55" width="2.28" height="2.67" rx="0.5" fill="#F7B041" opacity="0.26"></rect><rect x="75.00" y="31.55" width="2.28" height="2.67" rx="0.5" fill="#F7B041" opacity="0.65"></rect><rect x="25.00" y="35.18" width="2.28" height="2.67" rx="0.5" fill="#F7B041" opacity="0.65"></rect><rect x="27.94" y="35.18" width="2.28" height="2.67" rx="0.5" fill="#F7B041" opacity="0.45"></rect><rect x="30.88" y="35.18" width="2.28" height="2.67" rx="0.5" fill="#F7B041" opacity="0.51"></rect><rect x="33.82" y="35.18" width="2.28" height="2.67" rx="0.5" fill="#F7B041" opacity="0.68" filter="url(#g0-dsGlow)"></rect><rect x="36.76" y="35.18" width="2.28" height="2.67" rx="0.5" fill="#F7B041" opacity="0.66"></rect><rect x="39.71" y="35.18" width="2.28" height="2.67" rx="0.5" fill="#F7B041" opacity="0.38"></rect><rect x="42.65" y="35.18" width="2.28" height="2.67" rx="0.5" fill="#F7B041" opacity="0.51"></rect><rect x="45.59" y="35.18" width="2.28" height="2.67" rx="0.5" fill="#F7B041" opacity="0.30"></rect><rect x="48.53" y="35.18" width="2.28" height="2.67" rx="0.5" fill="#F7B041" opacity="0.39"></rect><rect x="51.47" y="35.18" width="2.28" height="2.67" rx="0.5" fill="#F7B041" opacity="0.19"></rect><rect x="54.41" y="35.18" width="2.28" height="2.67" rx="0.5" fill="#F7B041" opacity="0.40"></rect><rect x="57.35" y="35.18" width="2.28" height="2.67" rx="0.5" fill="#F7B041" opacity="0.25"></rect><rect x="60.29" y="35.18" width="2.28" height="2.67" rx="0.5" fill="#F7B041" opacity="0.38"></rect><rect x="63.24" y="35.18" width="2.28" height="2.67" rx="0.5" fill="#F7B041" opacity="0.38"></rect><rect x="66.18" y="35.18" width="2.28" height="2.67" rx="0.5" fill="#F7B041" opacity="0.56"></rect><rect x="69.12" y="35.18" width="2.28" height="2.67" rx="0.5" fill="#F7B041" opacity="0.51"></rect><rect x="72.06" y="35.18" width="2.28" height="2.67" rx="0.5" fill="#F7B041" opacity="0.41"></rect><rect x="75.00" y="35.18" width="2.28" height="2.67" rx="0.5" fill="#F7B041" opacity="0.39"></rect><rect x="25.00" y="38.82" width="2.28" height="2.67" rx="0.5" fill="#F7B041" opacity="0.37"></rect><rect x="27.94" y="38.82" width="2.28" height="2.67" rx="0.5" fill="#F7B041" opacity="0.48"></rect><rect x="30.88" y="38.82" width="2.28" height="2.67" rx="0.5" fill="#F7B041" opacity="0.56"></rect><rect x="33.82" y="38.82" width="2.28" height="2.67" rx="0.5" fill="#F7B041" opacity="0.50"></rect><rect x="36.76" y="38.82" width="2.28" height="2.67" rx="0.5" fill="#F7B041" opacity="0.78" filter="url(#g0-dsGlow)"></rect><rect x="39.71" y="38.82" width="2.28" height="2.67" rx="0.5" fill="#F7B041" opacity="0.31"></rect><rect x="42.65" y="38.82" width="2.28" height="2.67" rx="0.5" fill="#F7B041" opacity="0.41"></rect><rect x="45.59" y="38.82" width="2.28" height="2.67" rx="0.5" fill="#F7B041" opacity="0.73" filter="url(#g0-dsGlow)"></rect><rect x="48.53" y="38.82" width="2.28" height="2.67" rx="0.5" fill="#F7B041" opacity="0.54"></rect><rect x="51.47" y="38.82" width="2.28" height="2.67" rx="0.5" fill="#F7B041" opacity="0.54"></rect><rect x="54.41" y="38.82" width="2.28" height="2.67" rx="0.5" fill="#F7B041" opacity="0.38"></rect><rect x="57.35" y="38.82" width="2.28" height="2.67" rx="0.5" fill="#F7B041" opacity="0.60"></rect><rect x="60.29" y="38.82" width="2.28" height="2.67" rx="0.5" fill="#F7B041" opacity="0.40"></rect><rect x="63.24" y="38.82" width="2.28" height="2.67" rx="0.5" fill="#F7B041" opacity="0.54"></rect><rect x="66.18" y="38.82" width="2.28" height="2.67" rx="0.5" fill="#F7B041" opacity="0.73" filter="url(#g0-dsGlow)"></rect><rect x="69.12" y="38.82" width="2.28" height="2.67" rx="0.5" fill="#F7B041" opacity="0.48"></rect><rect x="72.06" y="38.82" width="2.28" height="2.67" rx="0.5" fill="#F7B041" opacity="0.39"></rect><rect x="75.00" y="38.82" width="2.28" height="2.67" rx="0.5" fill="#F7B041" opacity="0.28"></rect><rect x="25.00" y="42.45" width="2.28" height="2.67" rx="0.5" fill="#F7B041" opacity="0.39"></rect><rect x="27.94" y="42.45" width="2.28" height="2.67" rx="0.5" fill="#F7B041" opacity="0.73" filter="url(#g0-dsGlow)"></rect><rect x="30.88" y="42.45" width="2.28" height="2.67" rx="0.5" fill="#F7B041" opacity="0.72" filter="url(#g0-dsGlow)"></rect><rect x="33.82" y="42.45" width="2.28" height="2.67" rx="0.5" fill="#F7B041" opacity="0.75" filter="url(#g0-dsGlow)"></rect><rect x="36.76" y="42.45" width="2.28" height="2.67" rx="0.5" fill="#F7B041" opacity="0.65"></rect><rect x="39.71" y="42.45" width="2.28" height="2.67" rx="0.5" fill="#F7B041" opacity="0.28"></rect><rect x="42.65" y="42.45" width="2.28" height="2.67" rx="0.5" fill="#F7B041" opacity="0.77" filter="url(#g0-dsGlow)"></rect><rect x="45.59" y="42.45" width="2.28" height="2.67" rx="0.5" fill="#F7B041" opacity="0.72" filter="url(#g0-dsGlow)"></rect><rect x="48.53" y="42.45" width="2.28" height="2.67" rx="0.5" fill="#F7B041" opacity="0.51"></rect><rect x="51.47" y="42.45" width="2.28" height="2.67" rx="0.5" fill="#F7B041" opacity="0.73" filter="url(#g0-dsGlow)"></rect><rect x="54.41" y="42.45" width="2.28" height="2.67" rx="0.5" fill="#F7B041" opacity="0.27"></rect><rect x="57.35" y="42.45" width="2.28" height="2.67" rx="0.5" fill="#F7B041" opacity="0.24"></rect><rect x="60.29" y="42.45" width="2.28" height="2.67" rx="0.5" fill="#F7B041" opacity="0.39"></rect><rect x="63.24" y="42.45" width="2.28" height="2.67" rx="0.5" fill="#F7B041" opacity="0.73" filter="url(#g0-dsGlow)"></rect><rect x="66.18" y="42.45" width="2.28" height="2.67" rx="0.5" fill="#F7B041" opacity="0.33"></rect><rect x="69.12" y="42.45" width="2.28" height="2.67" rx="0.5" fill="#F7B041" opacity="0.31"></rect><rect x="72.06" y="42.45" width="2.28" height="2.67" rx="0.5" fill="#F7B041" opacity="0.22"></rect><rect x="75.00" y="42.45" width="2.28" height="2.67" rx="0.5" fill="#F7B041" opacity="0.73" filter="url(#g0-dsGlow)"></rect><rect x="25.00" y="46.09" width="2.28" height="2.67" rx="0.5" fill="#F7B041" opacity="0.46"></rect><rect x="27.94" y="46.09" width="2.28" height="2.67" rx="0.5" fill="#F7B041" opacity="0.61"></rect><rect x="30.88" y="46.09" width="2.28" height="2.67" rx="0.5" fill="#F7B041" opacity="0.51"></rect><rect x="33.82" y="46.09" width="2.28" height="2.67" rx="0.5" fill="#F7B041" opacity="0.76" filter="url(#g0-dsGlow)"></rect><rect x="36.76" y="46.09" width="2.28" height="2.67" rx="0.5" fill="#F7B041" opacity="0.75" filter="url(#g0-dsGlow)"></rect><rect x="39.71" y="46.09" width="2.28" height="2.67" rx="0.5" fill="#F7B041" opacity="0.24"></rect><rect x="42.65" y="46.09" width="2.28" height="2.67" rx="0.5" fill="#F7B041" opacity="0.37"></rect><rect x="45.59" y="46.09" width="2.28" height="2.67" rx="0.5" fill="#F7B041" opacity="0.62"></rect><rect x="48.53" y="46.09" width="2.28" height="2.67" rx="0.5" fill="#F7B041" opacity="0.54"></rect><rect x="51.47" y="46.09" width="2.28" height="2.67" rx="0.5" fill="#F7B041" opacity="0.53"></rect><rect x="54.41" y="46.09" width="2.28" height="2.67" rx="0.5" fill="#F7B041" opacity="0.20"></rect><rect x="57.35" y="46.09" width="2.28" height="2.67" rx="0.5" fill="#F7B041" opacity="0.29"></rect><rect x="60.29" y="46.09" width="2.28" height="2.67" rx="0.5" fill="#F7B041" opacity="0.59"></rect><rect x="63.24" y="46.09" width="2.28" height="2.67" rx="0.5" fill="#F7B041" opacity="0.20"></rect><rect x="66.18" y="46.09" width="2.28" height="2.67" rx="0.5" fill="#F7B041" opacity="0.36"></rect><rect x="69.12" y="46.09" width="2.28" height="2.67" rx="0.5" fill="#F7B041" opacity="0.31"></rect><rect x="72.06" y="46.09" width="2.28" height="2.67" rx="0.5" fill="#F7B041" opacity="0.68" filter="url(#g0-dsGlow)"></rect><rect x="75.00" y="46.09" width="2.28" height="2.67" rx="0.5" fill="#F7B041" opacity="0.47"></rect><rect x="25.00" y="49.73" width="2.28" height="2.67" rx="0.5" fill="#F7B041" opacity="0.24"></rect><rect x="27.94" y="49.73" width="2.28" height="2.67" rx="0.5" fill="#F7B041" opacity="0.49"></rect><rect x="30.88" y="49.73" width="2.28" height="2.67" rx="0.5" fill="#F7B041" opacity="0.70" filter="url(#g0-dsGlow)"></rect><rect x="33.82" y="49.73" width="2.28" height="2.67" rx="0.5" fill="#F7B041" opacity="0.51"></rect><rect x="36.76" y="49.73" width="2.28" height="2.67" rx="0.5" fill="#F7B041" opacity="0.42"></rect><rect x="39.71" y="49.73" width="2.28" height="2.67" rx="0.5" fill="#F7B041" opacity="0.67"></rect><rect x="42.65" y="49.73" width="2.28" height="2.67" rx="0.5" fill="#F7B041" opacity="0.53"></rect><rect x="45.59" y="49.73" width="2.28" height="2.67" rx="0.5" fill="#F7B041" opacity="0.58"></rect><rect x="48.53" y="49.73" width="2.28" height="2.67" rx="0.5" fill="#F7B041" opacity="0.24"></rect><rect x="51.47" y="49.73" width="2.28" height="2.67" rx="0.5" fill="#F7B041" opacity="0.39"></rect><rect x="54.41" y="49.73" width="2.28" height="2.67" rx="0.5" fill="#F7B041" opacity="0.57"></rect><rect x="57.35" y="49.73" width="2.28" height="2.67" rx="0.5" fill="#F7B041" opacity="0.38"></rect><rect x="60.29" y="49.73" width="2.28" height="2.67" rx="0.5" fill="#F7B041" opacity="0.22"></rect><rect x="63.24" y="49.73" width="2.28" height="2.67" rx="0.5" fill="#F7B041" opacity="0.74" filter="url(#g0-dsGlow)"></rect><rect x="66.18" y="49.73" width="2.28" height="2.67" rx="0.5" fill="#F7B041" opacity="0.68" filter="url(#g0-dsGlow)"></rect><rect x="69.12" y="49.73" width="2.28" height="2.67" rx="0.5" fill="#F7B041" opacity="0.41"></rect><rect x="72.06" y="49.73" width="2.28" height="2.67" rx="0.5" fill="#F7B041" opacity="0.29"></rect><rect x="75.00" y="49.73" width="2.28" height="2.67" rx="0.5" fill="#F7B041" opacity="0.54"></rect><rect x="25.00" y="53.36" width="2.28" height="2.67" rx="0.5" fill="#F7B041" opacity="0.74" filter="url(#g0-dsGlow)"></rect><rect x="27.94" y="53.36" width="2.28" height="2.67" rx="0.5" fill="#F7B041" opacity="0.57"></rect><rect x="30.88" y="53.36" width="2.28" height="2.67" rx="0.5" fill="#F7B041" opacity="0.54"></rect><rect x="33.82" y="53.36" width="2.28" height="2.67" rx="0.5" fill="#F7B041" opacity="0.20"></rect><rect x="36.76" y="53.36" width="2.28" height="2.67" rx="0.5" fill="#F7B041" opacity="0.73" filter="url(#g0-dsGlow)"></rect><rect x="39.71" y="53.36" width="2.28" height="2.67" rx="0.5" fill="#F7B041" opacity="0.69" filter="url(#g0-dsGlow)"></rect><rect x="42.65" y="53.36" width="2.28" height="2.67" rx="0.5" fill="#F7B041" opacity="0.65"></rect><rect x="45.59" y="53.36" width="2.28" height="2.67" rx="0.5" fill="#F7B041" opacity="0.66"></rect><rect x="48.53" y="53.36" width="2.28" height="2.67" rx="0.5" fill="#F7B041" opacity="0.45"></rect><rect x="51.47" y="53.36" width="2.28" height="2.67" rx="0.5" fill="#F7B041" opacity="0.69" filter="url(#g0-dsGlow)"></rect><rect x="54.41" y="53.36" width="2.28" height="2.67" rx="0.5" fill="#F7B041" opacity="0.44"></rect><rect x="57.35" y="53.36" width="2.28" height="2.67" rx="0.5" fill="#F7B041" opacity="0.57"></rect><rect x="60.29" y="53.36" width="2.28" height="2.67" rx="0.5" fill="#F7B041" opacity="0.64"></rect><rect x="63.24" y="53.36" width="2.28" height="2.67" rx="0.5" fill="#F7B041" opacity="0.28"></rect><rect x="66.18" y="53.36" width="2.28" height="2.67" rx="0.5" fill="#F7B041" opacity="0.53"></rect><rect x="69.12" y="53.36" width="2.28" height="2.67" rx="0.5" fill="#F7B041" opacity="0.60"></rect><rect x="72.06" y="53.36" width="2.28" height="2.67" rx="0.5" fill="#F7B041" opacity="0.73" filter="url(#g0-dsGlow)"></rect><rect x="75.00" y="53.36" width="2.28" height="2.67" rx="0.5" fill="#F7B041" opacity="0.19"></rect><rect x="25.00" y="57.00" width="2.28" height="2.67" rx="0.5" fill="#F7B041" opacity="0.60"></rect><rect x="27.94" y="57.00" width="2.28" height="2.67" rx="0.5" fill="#F7B041" opacity="0.20"></rect><rect x="30.88" y="57.00" width="2.28" height="2.67" rx="0.5" fill="#F7B041" opacity="0.32"></rect><rect x="33.82" y="57.00" width="2.28" height="2.67" rx="0.5" fill="#F7B041" opacity="0.64"></rect><rect x="36.76" y="57.00" width="2.28" height="2.67" rx="0.5" fill="#F7B041" opacity="0.32"></rect><rect x="39.71" y="57.00" width="2.28" height="2.67" rx="0.5" fill="#F7B041" opacity="0.56"></rect><rect x="42.65" y="57.00" width="2.28" height="2.67" rx="0.5" fill="#F7B041" opacity="0.27"></rect><rect x="45.59" y="57.00" width="2.28" height="2.67" rx="0.5" fill="#F7B041" opacity="0.71" filter="url(#g0-dsGlow)"></rect><rect x="48.53" y="57.00" width="2.28" height="2.67" rx="0.5" fill="#F7B041" opacity="0.34"></rect><rect x="51.47" y="57.00" width="2.28" height="2.67" rx="0.5" fill="#F7B041" opacity="0.58"></rect><rect x="54.41" y="57.00" width="2.28" height="2.67" rx="0.5" fill="#F7B041" opacity="0.57"></rect><rect x="57.35" y="57.00" width="2.28" height="2.67" rx="0.5" fill="#F7B041" opacity="0.52"></rect><rect x="60.29" y="57.00" width="2.28" height="2.67" rx="0.5" fill="#F7B041" opacity="0.59"></rect><rect x="63.24" y="57.00" width="2.28" height="2.67" rx="0.5" fill="#F7B041" opacity="0.25"></rect><rect x="66.18" y="57.00" width="2.28" height="2.67" rx="0.5" fill="#F7B041" opacity="0.50"></rect><rect x="69.12" y="57.00" width="2.28" height="2.67" rx="0.5" fill="#F7B041" opacity="0.46"></rect><rect x="72.06" y="57.00" width="2.28" height="2.67" rx="0.5" fill="#F7B041" opacity="0.32"></rect><rect x="75.00" y="57.00" width="2.28" height="2.67" rx="0.5" fill="#F7B041" opacity="0.78" filter="url(#g0-dsGlow)"></rect></g><rect x="10" y="18" width="12" height="5.2" rx="0.8" fill="#0B86D1" opacity="0.36"></rect><rect x="10" y="24.6" width="12" height="5.2" rx="0.8" fill="#0B86D1" opacity="0.45"></rect><rect x="10" y="31.2" width="12" height="5.2" rx="0.8" fill="#0B86D1" opacity="0.54" filter="url(#g0-dsGlow)"></rect><rect x="10" y="37.8" width="12" height="5.2" rx="0.8" fill="#0B86D1" opacity="0.63"></rect><rect x="10" y="44.4" width="12" height="5.2" rx="0.8" fill="#0B86D1" opacity="0.72"></rect><rect x="10" y="51" width="12" height="5.2" rx="0.8" fill="#0B86D1" opacity="0.81"></rect><rect x="78" y="18" width="12" height="5.2" rx="0.8" fill="#0B86D1" opacity="0.36"></rect><rect x="78" y="24.6" width="12" height="5.2" rx="0.8" fill="#0B86D1" opacity="0.45"></rect><rect x="78" y="31.2" width="12" height="5.2" rx="0.8" fill="#0B86D1" opacity="0.54" filter="url(#g0-dsGlow)"></rect><rect x="78" y="37.8" width="12" height="5.2" rx="0.8" fill="#0B86D1" opacity="0.63"></rect><rect x="78" y="44.4" width="12" height="5.2" rx="0.8" fill="#0B86D1" opacity="0.72"></rect><rect x="78" y="51" width="12" height="5.2" rx="0.8" fill="#0B86D1" opacity="0.81"></rect><line x1="41" y1="13.5" x2="41" y2="60.5" stroke="rgba(255,255,255,.10)" stroke-width="0.4"></line><line x1="59" y1="13.5" x2="59" y2="60.5" stroke="rgba(255,255,255,.10)" stroke-width="0.4"></line><line x1="13" y1="37" x2="87" y2="37" stroke="rgba(255,255,255,.10)" stroke-width="0.4"></line></g>
  <rect x="0" y="0" width="1080" height="1350" fill="url(#grad-1)"/>
  <rect x="75.59" y="804" width="928.81" height="451.5" rx="16.02" fill="rgba(9, 11, 18, 0.68)" stroke="rgba(255, 255, 255, 0.094)" stroke-width="1"/>
  <rect x="141.39" y="1143.44" width="21.63" height="21.63" rx="2" fill="rgb(247, 176, 65)"/>
  <rect x="477.13" y="1143.44" width="21.63" height="21.63" rx="2" fill="rgb(11, 134, 209)"/>
  <rect x="783.55" y="1143.44" width="21.63" height="21.63" rx="2" fill="rgba(255, 255, 255, 0.6)"/>
  <rect data-slot="content" data-accepts="module" data-label="Content" data-role="body" x="129.39" y="1101.38" width="821.23" height="105.75" rx="16" fill="none" stroke="#3A4A5F" stroke-opacity="0.35" stroke-dasharray="12 9"/>
  <text id="field:eyebrow" data-field="eyebrow" data-role="eyebrow" data-maxlen="32" x="141.39" y="892.93" text-anchor="start" style="font-family:'Outfit','Inter',sans-serif;font-size:35.69px;font-weight:850;text-transform:uppercase;letter-spacing:1.5px;fill:rgb(247, 176, 65)" data-w="797" data-minfont="25"><tspan x="141.39" y="892.93">Silicon</tspan></text>
  <text id="field:headline" data-field="headline" data-role="headline" data-maxlen="51" data-minfont="34" data-maxfont="96" x="141.39" y="982.47" text-anchor="start" style="font-family:'Grift','Outfit',sans-serif;font-size:71.39px;font-weight:790;fill:rgb(255, 255, 255)" data-w="749"><tspan x="141.39" y="982.47">Inside a flagship </tspan><tspan x="141.39" y="1054.56">accelerator die</tspan></text>
  <text id="field:label-1" data-field="label-1" data-role="label" data-maxlen="24" x="169.03" y="1137.74" text-anchor="start" style="font-family:'Outfit','Inter',sans-serif;font-size:29.2px;font-weight:790;text-transform:uppercase;letter-spacing:1.5px;fill:rgb(137, 146, 165)" data-w="252" data-minfont="20"><tspan x="169.03" y="1137.74">Compute </tspan><tspan x="169.03" y="1178.62">array</tspan></text>
  <text id="field:label-2" data-field="label-2" data-role="label" data-maxlen="24" x="504.78" y="1137.74" text-anchor="start" style="font-family:'Outfit','Inter',sans-serif;font-size:29.2px;font-weight:790;text-transform:uppercase;letter-spacing:1.5px;fill:rgb(137, 146, 165)" data-w="223" data-minfont="20"><tspan x="504.78" y="1137.74">HBM3E </tspan><tspan x="504.78" y="1178.62">stacks</tspan></text>
  <text id="field:label-3" data-field="label-3" data-role="label" data-maxlen="16" x="811.19" y="1137.74" text-anchor="start" style="font-family:'Outfit','Inter',sans-serif;font-size:29.2px;font-weight:790;text-transform:uppercase;letter-spacing:1.5px;fill:rgb(137, 146, 165)" data-w="127" data-minfont="20"><tspan x="811.19" y="1137.74">I/O </tspan><tspan x="811.19" y="1178.62">ring</tspan></text>
</svg>