<svg viewBox="0 0 1080 1350" width="1080" height="1350" xmlns="http://www.w3.org/2000/svg">
  <defs><linearGradient id="grad-1" x1="0.5" y1="0" x2="0.5" y2="1"><stop offset="32%" stop-color="rgba(3, 6, 12, 0)"/><stop offset="34%" stop-color="rgba(3, 6, 12, 0)"/><stop offset="66%" stop-color="rgba(3, 6, 12, 0.55)"/><stop offset="100%" stop-color="rgba(3, 6, 12, 0.9)"/></linearGradient><linearGradient id="grad-2" x1="0" y1="0.5" x2="1" y2="0.5"><stop offset="0%" stop-color="rgb(247, 176, 65)"/><stop offset="100%" stop-color="rgb(11, 134, 209)"/></linearGradient></defs>
  <g class="sample-fill" transform="translate(0,0) scale(10.8,10.8)"><defs><filter id="g0-cglow" x="-40%" y="-40%" width="180%" height="180%"><feGaussianBlur stdDeviation="3.2"></feGaussianBlur></filter></defs><path d="M64.0 30.1C65.4 30.3 66.4 32.4 68.0 33.1C69.5 33.9 72.6 33.6 73.1 34.7C73.7 35.9 71.2 38.2 71.3 40.0C71.4 41.8 74.2 44.4 73.7 45.6C73.2 46.8 69.9 46.7 68.3 47.4C66.7 48.1 65.4 50.0 64.0 49.9C62.6 49.8 61.8 47.5 60.0 46.9C58.3 46.2 54.3 47.1 53.7 45.9C53.2 44.8 56.5 41.9 56.7 40.0C56.9 38.1 54.4 36.1 54.9 34.7C55.3 33.4 57.9 32.8 59.4 32.0C60.9 31.2 62.6 29.9 64.0 30.1Z" fill="#E06347" opacity=".28" filter="url(#g0-cglow)"></path><path d="M64.0 -14.0C71.8 -13.0 77.3 -1.6 85.6 2.6C93.9 6.8 110.9 5.0 113.9 11.2C116.9 17.4 103.1 30.1 103.6 40.0C104.1 49.9 119.7 63.8 117.0 70.6C114.3 77.4 96.2 76.6 87.4 80.5C78.6 84.4 71.5 94.5 64.0 94.0C56.5 93.5 51.8 81.0 42.4 77.4C33.0 73.8 10.9 78.6 7.9 72.4C4.9 66.2 23.4 50.2 24.4 40.0C25.4 29.8 11.7 18.5 14.1 11.2C16.5 3.9 30.5 0.6 38.8 -3.6C47.1 -7.8 56.2 -15.0 64.0 -14.0Z" fill="none" stroke="#0B86D1" stroke-width="0.90" stroke-linejoin="round" opacity="0.40"></path><path d="M64.0 -7.3C70.8 -6.3 75.6 3.6 82.9 7.3C90.2 10.9 105.0 9.3 107.6 14.8C110.3 20.3 98.2 31.3 98.7 40.0C99.1 48.7 112.7 60.9 110.4 66.8C108.0 72.7 92.2 72.1 84.5 75.5C76.7 78.9 70.6 87.7 64.0 87.3C57.4 86.8 53.3 75.9 45.1 72.7C36.9 69.6 17.5 73.8 14.9 68.4C12.3 62.9 28.4 48.9 29.4 40.0C30.3 31.1 18.3 21.2 20.4 14.8C22.5 8.4 34.7 5.5 41.9 1.8C49.2 -1.9 57.2 -8.2 64.0 -7.3Z" fill="none" stroke="#0B86D1" stroke-width="1.06" stroke-linejoin="round" opacity="0.46"></path><path d="M64.0 -0.8C69.9 -0.0 74.0 8.6 80.3 11.7C86.6 14.9 99.4 13.5 101.7 18.2C104.0 23.0 93.5 32.5 93.9 40.0C94.3 47.5 106.1 58.0 104.0 63.1C102.0 68.2 88.4 67.7 81.7 70.6C75.0 73.6 69.7 81.2 64.0 80.8C58.3 80.4 54.7 71.0 47.7 68.3C40.6 65.5 23.9 69.2 21.6 64.5C19.3 59.8 33.3 47.7 34.1 40.0C34.9 32.3 24.5 23.7 26.3 18.2C28.1 12.7 38.7 10.2 45.0 7.0C51.2 3.8 58.1 -1.6 64.0 -0.8Z" fill="none" stroke="#0B86D1" stroke-width="1.22" stroke-linejoin="round" opacity="0.52"></path><path d="M64.0 5.2C69.0 5.9 72.6 13.2 77.9 15.9C83.3 18.6 94.2 17.4 96.1 21.4C98.1 25.5 89.2 33.6 89.5 40.0C89.9 46.4 99.9 55.4 98.2 59.7C96.4 64.1 84.8 63.6 79.1 66.1C73.4 68.6 68.8 75.1 64.0 74.8C59.2 74.5 56.1 66.4 50.1 64.1C44.1 61.8 29.8 64.9 27.8 60.9C25.9 56.9 37.8 46.6 38.5 40.0C39.1 33.4 30.3 26.1 31.9 21.4C33.4 16.8 42.4 14.6 47.8 11.9C53.1 9.2 59.0 4.5 64.0 5.2Z" fill="none" stroke="#F7B041" stroke-width="1.38" stroke-linejoin="round" opacity="0.58"></path><path d="M64.0 10.8C68.2 11.3 71.2 17.5 75.7 19.7C80.2 22.0 89.4 21.0 91.0 24.4C92.6 27.8 85.2 34.6 85.5 40.0C85.7 45.4 94.2 52.9 92.7 56.6C91.2 60.2 81.5 59.8 76.7 62.0C71.9 64.1 68.1 69.5 64.0 69.3C59.9 69.0 57.4 62.2 52.3 60.3C47.2 58.3 35.2 60.9 33.6 57.6C32.0 54.2 42.0 45.5 42.5 40.0C43.1 34.5 35.7 28.3 37.0 24.4C38.3 20.5 45.8 18.6 50.3 16.4C54.9 14.1 59.8 10.2 64.0 10.8Z" fill="none" stroke="#F7B041" stroke-width="1.54" stroke-linejoin="round" opacity="0.64"></path><path d="M64.0 16.0C67.5 16.5 69.9 21.5 73.6 23.4C77.3 25.2 84.8 24.4 86.2 27.2C87.5 30.0 81.4 35.6 81.6 40.0C81.8 44.4 88.8 50.6 87.6 53.6C86.4 56.6 78.3 56.3 74.4 58.0C70.5 59.7 67.3 64.2 64.0 64.0C60.7 63.8 58.6 58.2 54.4 56.6C50.2 55.0 40.4 57.2 39.1 54.4C37.7 51.6 45.9 44.5 46.4 40.0C46.9 35.5 40.8 30.4 41.8 27.2C42.9 24.0 49.1 22.5 52.8 20.6C56.5 18.7 60.5 15.5 64.0 16.0Z" fill="none" stroke="#F7B041" stroke-width="1.70" stroke-linejoin="round" opacity="0.70"></path><path d="M64.0 20.8C66.8 21.2 68.7 25.2 71.7 26.7C74.6 28.2 80.7 27.5 81.7 29.8C82.8 32.0 77.9 36.5 78.1 40.0C78.3 43.5 83.8 48.5 82.8 50.9C81.9 53.3 75.5 53.0 72.3 54.4C69.2 55.8 66.7 59.4 64.0 59.2C61.3 59.0 59.6 54.6 56.3 53.3C53.0 52.0 45.1 53.7 44.0 51.5C43.0 49.3 49.6 43.6 49.9 40.0C50.3 36.4 45.4 32.3 46.3 29.8C47.1 27.2 52.1 26.0 55.0 24.5C58.0 23.0 61.2 20.4 64.0 20.8Z" fill="none" stroke="#F7B041" stroke-width="1.86" stroke-linejoin="round" opacity="0.76"></path><path d="M64.0 25.3C66.1 25.6 67.6 28.7 69.9 29.8C72.1 31.0 76.8 30.5 77.6 32.2C78.4 33.9 74.6 37.3 74.8 40.0C74.9 42.7 79.2 46.5 78.4 48.3C77.7 50.2 72.8 50.0 70.4 51.0C68.0 52.1 66.0 54.8 64.0 54.7C62.0 54.6 60.7 51.2 58.1 50.2C55.6 49.2 49.5 50.5 48.7 48.8C47.9 47.1 52.9 42.8 53.2 40.0C53.5 37.2 49.8 34.1 50.4 32.2C51.1 30.2 54.9 29.3 57.1 28.1C59.4 27.0 61.9 25.0 64.0 25.3Z" fill="none" stroke="#F7B041" stroke-width="2.02" stroke-linejoin="round" opacity="0.82"></path><path d="M64.0 30.1C65.4 30.3 66.4 32.4 68.0 33.1C69.5 33.9 72.6 33.6 73.1 34.7C73.7 35.9 71.2 38.2 71.3 40.0C71.4 41.8 74.2 44.4 73.7 45.6C73.2 46.8 69.9 46.7 68.3 47.4C66.7 48.1 65.4 50.0 64.0 49.9C62.6 49.8 61.8 47.5 60.0 46.9C58.3 46.2 54.3 47.1 53.7 45.9C53.2 44.8 56.5 41.9 56.7 40.0C56.9 38.1 54.4 36.1 54.9 34.7C55.3 33.4 57.9 32.8 59.4 32.0C60.9 31.2 62.6 29.9 64.0 30.1Z" fill="none" stroke="#E06347" stroke-width="2.18" stroke-linejoin="round" opacity="0.88"></path><circle cx="64" cy="40" r="1.4" fill="#fff"></circle></g>
  <rect x="0" y="0" width="1080" height="1350" fill="url(#grad-1)"/>
  <rect x="86.39" y="959.23" width="235.87" height="3" fill="url(#grad-2)"/>
  <rect data-slot="content" data-accepts="module" data-label="Content" data-role="body" x="74.39" y="1182.38" width="931.21" height="64.87" rx="16" fill="none" stroke="#3A4A5F" stroke-opacity="0.35" stroke-dasharray="12 9"/>
  <text id="field:eyebrow" data-field="eyebrow" data-role="eyebrow" data-maxlen="32" x="86.39" y="638.28" text-anchor="start" style="font-family:'Outfit','Inter',sans-serif;font-size:35.69px;font-weight:850;text-transform:uppercase;letter-spacing:1.5px;fill:rgb(247, 176, 65)" data-w="907" data-minfont="25"><tspan x="86.39" y="638.28">Design frontier</tspan></text>
  <text id="field:headline" data-field="headline" data-role="headline" data-maxlen="36" data-minfont="34" data-maxfont="96" x="86.39" y="764.24" text-anchor="start" style="font-family:'Grift','Outfit',sans-serif;font-size:110.32px;font-weight:790;fill:rgb(255, 255, 255)" data-w="817"><tspan x="86.39" y="764.24">Mapping the </tspan><tspan x="86.39" y="875.66">thermal envelope</tspan></text>
  <text id="field:subhead" data-field="subhead" data-role="subhead" data-maxlen="141" x="86.39" y="1051.53" text-anchor="start" style="font-family:'Outfit','Inter',sans-serif;font-size:41.1px;font-weight:470;fill:rgb(203, 209, 222)" data-w="671" data-minfont="27" data-maxlines="3"><tspan x="86.39" y="1051.53">Each ring is a watt of headroom </tspan><tspan x="86.39" y="1108.66">before the rack throttles.</tspan></text>
  <text id="field:footer-1" data-field="footer-1" data-role="footer" data-maxlen="56" x="86.39" y="1217.74" text-anchor="start" style="font-family:'Outfit','Inter',sans-serif;font-size:29.2px;font-weight:790;text-transform:uppercase;letter-spacing:1.5px;fill:rgb(137, 146, 165)" data-w="907" data-minfont="20"><tspan x="86.39" y="1217.74">SEMIANALYSIS.COM · THERMAL FIELD</tspan></text>
</svg>