<svg viewBox="0 0 1080 1350" width="1080" height="1350" xmlns="http://www.w3.org/2000/svg">
  <defs><linearGradient id="grad-1" x1="0.5" y1="0" x2="0.5" y2="1"><stop offset="0%" stop-color="rgba(6, 10, 20, 0.08)"/><stop offset="40%" stop-color="rgba(6, 10, 20, 0.2)"/><stop offset="78%" stop-color="rgba(6, 10, 20, 0.82)"/></linearGradient></defs>
  <g class="sample-fill" transform="translate(0,0) scale(10,10)"><defs><filter id="g0-lch-g" x="-20%" y="-20%" width="140%" height="140%"><feGaussianBlur stdDeviation="0.7"></feGaussianBlur></filter></defs><g fill="none" stroke="rgba(255,255,255,.055)" stroke-width="0.5"><path d="M2 8 H106"></path><path d="M2 23 H106"></path><path d="M2 38 H106"></path><path d="M2 53 H106"></path><path d="M2 68 H106"></path><path d="M2 83 H106"></path><path d="M2 98 H106"></path><path d="M2 113 H106"></path><path d="M2 128 H106"></path><path d="M8 2 V133"></path><path d="M21 2 V133"></path><path d="M34 2 V133"></path><path d="M47 2 V133"></path><path d="M60 2 V133"></path><path d="M73 2 V133"></path><path d="M86 2 V133"></path><path d="M99 2 V133"></path></g><g fill="none" stroke="#F7B041" stroke-width="1.15" stroke-linecap="round" stroke-linejoin="round" filter="url(#g0-lch-g)" opacity=".92"><path d="M0 0 L20 0 L20 14 L40 14 L40 30 L64 30"></path><path d="M0 6 L10 6 L10 40 L34 40 L34 58"></path><path d="M6 0 L6 22 L28 22 L28 14"></path><path d="M0 12 L16 12 L16 40"></path><path d="M40 14 L40 4"></path></g><g fill="none" stroke="#0B86D1" stroke-width="1.05" stroke-linecap="round" stroke-linejoin="round" opacity=".9"><path d="M64 30 L90 30 L90 52 L78 52"></path><path d="M52 4 L52 10 L64 10 L64 9"></path><path d="M34 58 L46 58 L46 26"></path><path d="M64 30 L64 9"></path></g><circle cx="28" cy="14" r="2.6" fill="#F7B041" stroke="#06121f" stroke-width="0.6"></circle><circle cx="28" cy="14" r="1" fill="#06121f"></circle><circle cx="64" cy="30" r="2.6" fill="#0B86D1" stroke="#06121f" stroke-width="0.6"></circle><circle cx="64" cy="30" r="1" fill="#06121f"></circle><circle cx="90" cy="30" r="2.6" fill="#F7B041" stroke="#06121f" stroke-width="0.6"></circle><circle cx="90" cy="30" r="1" fill="#06121f"></circle><circle cx="46" cy="26" r="2.6" fill="#0B86D1" stroke="#06121f" stroke-width="0.6"></circle><circle cx="46" cy="26" r="1" fill="#06121f"></circle><circle cx="16" cy="40" r="2.6" fill="#F7B041" stroke="#06121f" stroke-width="0.6"></circle><circle cx="16" cy="40" r="1" fill="#06121f"></circle><circle cx="78" cy="52" r="2.6" fill="#0B86D1" stroke="#06121f" stroke-width="0.6"></circle><circle cx="78" cy="52" r="1" fill="#06121f"></circle><circle cx="40" cy="14" r="2.6" fill="#F7B041" stroke="#06121f" stroke-width="0.6"></circle><circle cx="40" cy="14" r="1" fill="#06121f"></circle><circle cx="34" cy="58" r="2.6" fill="#0B86D1" stroke="#06121f" stroke-width="0.6"></circle><circle cx="34" cy="58" r="1" fill="#06121f"></circle></g>
  <rect x="0" y="0" width="1080" height="1350" fill="url(#grad-1)"/>
  <rect x="64.79" y="483.28" width="950.42" height="778.98" rx="18.03" fill="rgba(9, 11, 18, 0.68)" stroke="rgba(255, 255, 255, 0.094)" stroke-width="1"/>
  <rect x="130.59" y="1104.21" width="818.83" height="1" fill="rgba(255, 255, 255, 0.13)"/>
  <circle cx="145.73" cy="1170.65" r="15.14" fill="rgb(247, 176, 65)"/>
  <circle cx="197.66" cy="1170.65" r="15.14" fill="rgb(11, 134, 209)"/>
  <rect data-slot="content" data-accepts="module" data-label="Content" data-role="body" x="594.44" y="1138.22" width="366.98" height="64.87" rx="16" fill="none" stroke="#3A4A5F" stroke-opacity="0.35" stroke-dasharray="12 9"/>
  <text id="field:eyebrow" data-field="eyebrow" data-role="eyebrow" data-maxlen="32" x="130.59" y="583" text-anchor="start" style="font-family:'Outfit','Inter',sans-serif;font-size:35.69px;font-weight:850;text-transform:uppercase;letter-spacing:1.5px;fill:rgb(247, 176, 65)" data-w="819" data-minfont="25"><tspan x="130.59" y="583">PCB substrate</tspan></text>
  <text id="field:headline" data-field="headline" data-role="headline" data-maxlen="35" data-minfont="34" data-maxfont="96" x="130.59" y="706.31" text-anchor="start" style="font-family:'Grift','Outfit',sans-serif;font-size:110.32px;font-weight:790;fill:rgb(255, 255, 255)" data-w="786"><tspan x="130.59" y="706.31">Where the signal </tspan><tspan x="130.59" y="817.73">actually lives</tspan></text>
  <text id="field:subhead" data-field="subhead" data-role="subhead" data-maxlen="152" x="130.59" y="918.6" text-anchor="start" style="font-family:'Outfit','Inter',sans-serif;font-size:41.1px;font-weight:470;fill:rgb(203, 209, 222)" data-w="721" data-minfont="27" data-maxlines="3"><tspan x="130.59" y="918.6">Advanced packaging routes power and </tspan><tspan x="130.59" y="975.73">data through the interposer, not the </tspan><tspan x="130.59" y="1032.86">die.</tspan></text>
  <text id="field:footer-1" data-field="footer-1" data-role="footer" data-maxlen="23" x="606.44" y="1173.58" text-anchor="start" style="font-family:'Outfit','Inter',sans-serif;font-size:29.2px;font-weight:790;text-transform:uppercase;letter-spacing:1.5px;fill:rgb(137, 146, 165)" data-w="343" data-minfont="20"><tspan x="606.44" y="1173.58">SEMIANALYSIS.COM</tspan></text>
</svg>