<svg viewBox="0 0 1080 1350" width="1080" height="1350" xmlns="http://www.w3.org/2000/svg">
  <rect x="214.91" y="468.77" width="650.16" height="650.06" rx="16.02" fill="rgba(9, 11, 18, 0.68)" stroke="rgba(255, 255, 255, 0.094)" stroke-width="1"/>
  <rect x="248.37" y="502.21" width="49.58" height="49.56" rx="3" fill="rgba(255, 255, 255, 0.07)"/>
  <rect x="307.68" y="502.21" width="49.58" height="49.56" rx="3" fill="rgba(255, 255, 255, 0.07)"/>
  <rect x="366.99" y="502.21" width="49.58" height="49.56" rx="3" fill="rgba(255, 255, 255, 0.07)"/>
  <rect x="426.31" y="502.21" width="49.58" height="49.56" rx="3" fill="rgba(255, 255, 255, 0.07)"/>
  <rect x="485.62" y="502.21" width="49.58" height="49.56" rx="3" fill="rgba(255, 255, 255, 0.07)"/>
  <rect x="544.93" y="502.21" width="49.58" height="49.56" rx="3" fill="rgba(255, 255, 255, 0.07)"/>
  <rect x="604.24" y="502.21" width="49.58" height="49.56" rx="3" fill="rgba(255, 255, 255, 0.07)"/>
  <rect x="663.56" y="502.21" width="49.58" height="49.56" rx="3" fill="rgba(255, 255, 255, 0.07)"/>
  <rect x="722.87" y="502.21" width="49.58" height="49.56" rx="3" fill="rgba(255, 255, 255, 0.07)"/>
  <rect x="782.18" y="502.21" width="49.58" height="49.56" rx="3" fill="rgba(255, 255, 255, 0.07)"/>
  <rect x="248.37" y="561.5" width="49.58" height="49.56" rx="3" fill="rgba(255, 255, 255, 0.07)"/>
  <rect x="307.68" y="561.5" width="49.58" height="49.56" rx="3" fill="rgba(255, 255, 255, 0.07)"/>
  <rect x="366.99" y="561.5" width="49.58" height="49.56" rx="3" fill="rgba(255, 255, 255, 0.07)"/>
  <rect x="426.31" y="561.5" width="49.58" height="49.56" rx="3" fill="rgba(255, 255, 255, 0.07)"/>
  <rect x="485.62" y="561.5" width="49.58" height="49.56" rx="3" fill="rgba(255, 255, 255, 0.07)"/>
  <rect x="544.93" y="561.5" width="49.58" height="49.56" rx="3" fill="rgba(255, 255, 255, 0.07)"/>
  <rect x="604.24" y="561.5" width="49.58" height="49.56" rx="3" fill="rgba(255, 255, 255, 0.07)"/>
  <rect x="663.56" y="561.5" width="49.58" height="49.56" rx="3" fill="rgba(255, 255, 255, 0.07)"/>
  <rect x="722.87" y="561.5" width="49.58" height="49.56" rx="3" fill="rgba(255, 255, 255, 0.07)"/>
  <rect x="782.18" y="561.5" width="49.58" height="49.56" rx="3" fill="rgba(255, 255, 255, 0.07)"/>
  <rect x="248.37" y="620.79" width="49.58" height="49.56" rx="3" fill="rgb(247, 176, 65)"/>
  <rect x="307.68" y="620.79" width="49.58" height="49.56" rx="3" fill="rgb(247, 176, 65)"/>
  <rect x="366.99" y="620.79" width="49.58" height="49.56" rx="3" fill="rgb(247, 176, 65)"/>
  <rect x="426.31" y="620.79" width="49.58" height="49.56" rx="3" fill="rgb(247, 176, 65)"/>
  <rect x="485.62" y="620.79" width="49.58" height="49.56" rx="3" fill="rgb(247, 176, 65)"/>
  <rect x="544.93" y="620.79" width="49.58" height="49.56" rx="3" fill="rgb(247, 176, 65)"/>
  <rect x="604.24" y="620.79" width="49.58" height="49.56" rx="3" fill="rgb(247, 176, 65)"/>
  <rect x="663.56" y="620.79" width="49.58" height="49.56" rx="3" fill="rgb(247, 176, 65)"/>
  <rect x="722.87" y="620.79" width="49.58" height="49.56" rx="3" fill="rgba(255, 255, 255, 0.07)"/>
  <rect x="782.18" y="620.79" width="49.58" height="49.56" rx="3" fill="rgba(255, 255, 255, 0.07)"/>
  <rect x="248.37" y="680.09" width="49.58" height="49.56" rx="3" fill="rgb(247, 176, 65)"/>
  <rect x="307.68" y="680.09" width="49.58" height="49.56" rx="3" fill="rgb(247, 176, 65)"/>
  <rect x="366.99" y="680.09" width="49.58" height="49.56" rx="3" fill="rgb(247, 176, 65)"/>
  <rect x="426.31" y="680.09" width="49.58" height="49.56" rx="3" fill="rgb(247, 176, 65)"/>
  <rect x="485.62" y="680.09" width="49.58" height="49.56" rx="3" fill="rgb(247, 176, 65)"/>
  <rect x="544.93" y="680.09" width="49.58" height="49.56" rx="3" fill="rgb(247, 176, 65)"/>
  <rect x="604.24" y="680.09" width="49.58" height="49.56" rx="3" fill="rgb(247, 176, 65)"/>
  <rect x="663.56" y="680.09" width="49.58" height="49.56" rx="3" fill="rgb(247, 176, 65)"/>
  <rect x="722.87" y="680.09" width="49.58" height="49.56" rx="3" fill="rgb(247, 176, 65)"/>
  <rect x="782.18" y="680.09" width="49.58" height="49.56" rx="3" fill="rgb(247, 176, 65)"/>
  <rect x="248.37" y="739.38" width="49.58" height="49.56" rx="3" fill="rgb(247, 176, 65)"/>
  <rect x="307.68" y="739.38" width="49.58" height="49.56" rx="3" fill="rgb(247, 176, 65)"/>
  <rect x="366.99" y="739.38" width="49.58" height="49.56" rx="3" fill="rgb(247, 176, 65)"/>
  <rect x="426.31" y="739.38" width="49.58" height="49.56" rx="3" fill="rgb(247, 176, 65)"/>
  <rect x="485.62" y="739.38" width="49.58" height="49.56" rx="3" fill="rgb(247, 176, 65)"/>
  <rect x="544.93" y="739.38" width="49.58" height="49.56" rx="3" fill="rgb(247, 176, 65)"/>
  <rect x="604.24" y="739.38" width="49.58" height="49.56" rx="3" fill="rgb(247, 176, 65)"/>
  <rect x="663.56" y="739.38" width="49.58" height="49.56" rx="3" fill="rgb(247, 176, 65)"/>
  <rect x="722.87" y="739.38" width="49.58" height="49.56" rx="3" fill="rgb(247, 176, 65)"/>
  <rect x="782.18" y="739.38" width="49.58" height="49.56" rx="3" fill="rgb(247, 176, 65)"/>
  <rect x="248.37" y="798.67" width="49.58" height="49.56" rx="3" fill="rgb(247, 176, 65)"/>
  <rect x="307.68" y="798.67" width="49.58" height="49.56" rx="3" fill="rgb(247, 176, 65)"/>
  <rect x="366.99" y="798.67" width="49.58" height="49.56" rx="3" fill="rgb(247, 176, 65)"/>
  <rect x="426.31" y="798.67" width="49.58" height="49.56" rx="3" fill="rgb(247, 176, 65)"/>
  <rect x="485.62" y="798.67" width="49.58" height="49.56" rx="3" fill="rgb(247, 176, 65)"/>
  <rect x="544.93" y="798.67" width="49.58" height="49.56" rx="3" fill="rgb(247, 176, 65)"/>
  <rect x="604.24" y="798.67" width="49.58" height="49.56" rx="3" fill="rgb(247, 176, 65)"/>
  <rect x="663.56" y="798.67" width="49.58" height="49.56" rx="3" fill="rgb(247, 176, 65)"/>
  <rect x="722.87" y="798.67" width="49.58" height="49.56" rx="3" fill="rgb(247, 176, 65)"/>
  <rect x="782.18" y="798.67" width="49.58" height="49.56" rx="3" fill="rgb(247, 176, 65)"/>
  <rect x="248.37" y="857.96" width="49.58" height="49.56" rx="3" fill="rgb(247, 176, 65)"/>
  <rect x="307.68" y="857.96" width="49.58" height="49.56" rx="3" fill="rgb(247, 176, 65)"/>
  <rect x="366.99" y="857.96" width="49.58" height="49.56" rx="3" fill="rgb(247, 176, 65)"/>
  <rect x="426.31" y="857.96" width="49.58" height="49.56" rx="3" fill="rgb(247, 176, 65)"/>
  <rect x="485.62" y="857.96" width="49.58" height="49.56" rx="3" fill="rgb(247, 176, 65)"/>
  <rect x="544.93" y="857.96" width="49.58" height="49.56" rx="3" fill="rgb(247, 176, 65)"/>
  <rect x="604.24" y="857.96" width="49.58" height="49.56" rx="3" fill="rgb(247, 176, 65)"/>
  <rect x="663.56" y="857.96" width="49.58" height="49.56" rx="3" fill="rgb(247, 176, 65)"/>
  <rect x="722.87" y="857.96" width="49.58" height="49.56" rx="3" fill="rgb(247, 176, 65)"/>
  <rect x="782.18" y="857.96" width="49.58" height="49.56" rx="3" fill="rgb(247, 176, 65)"/>
  <rect x="248.37" y="917.25" width="49.58" height="49.56" rx="3" fill="rgb(247, 176, 65)"/>
  <rect x="307.68" y="917.25" width="49.58" height="49.56" rx="3" fill="rgb(247, 176, 65)"/>
  <rect x="366.99" y="917.25" width="49.58" height="49.56" rx="3" fill="rgb(247, 176, 65)"/>
  <rect x="426.31" y="917.25" width="49.58" height="49.56" rx="3" fill="rgb(247, 176, 65)"/>
  <rect x="485.62" y="917.25" width="49.58" height="49.56" rx="3" fill="rgb(247, 176, 65)"/>
  <rect x="544.93" y="917.25" width="49.58" height="49.56" rx="3" fill="rgb(247, 176, 65)"/>
  <rect x="604.24" y="917.25" width="49.58" height="49.56" rx="3" fill="rgb(247, 176, 65)"/>
  <rect x="663.56" y="917.25" width="49.58" height="49.56" rx="3" fill="rgb(247, 176, 65)"/>
  <rect x="722.87" y="917.25" width="49.58" height="49.56" rx="3" fill="rgb(247, 176, 65)"/>
  <rect x="782.18" y="917.25" width="49.58" height="49.56" rx="3" fill="rgb(247, 176, 65)"/>
  <rect x="248.37" y="976.54" width="49.58" height="49.56" rx="3" fill="rgb(247, 176, 65)"/>
  <rect x="307.68" y="976.54" width="49.58" height="49.56" rx="3" fill="rgb(247, 176, 65)"/>
  <rect x="366.99" y="976.54" width="49.58" height="49.56" rx="3" fill="rgb(247, 176, 65)"/>
  <rect x="426.31" y="976.54" width="49.58" height="49.56" rx="3" fill="rgb(247, 176, 65)"/>
  <rect x="485.62" y="976.54" width="49.58" height="49.56" rx="3" fill="rgb(247, 176, 65)"/>
  <rect x="544.93" y="976.54" width="49.58" height="49.56" rx="3" fill="rgb(247, 176, 65)"/>
  <rect x="604.24" y="976.54" width="49.58" height="49.56" rx="3" fill="rgb(247, 176, 65)"/>
  <rect x="663.56" y="976.54" width="49.58" height="49.56" rx="3" fill="rgb(247, 176, 65)"/>
  <rect x="722.87" y="976.54" width="49.58" height="49.56" rx="3" fill="rgb(247, 176, 65)"/>
  <rect x="782.18" y="976.54" width="49.58" height="49.56" rx="3" fill="rgb(247, 176, 65)"/>
  <rect x="248.37" y="1035.83" width="49.58" height="49.56" rx="3" fill="rgb(247, 176, 65)"/>
  <rect x="307.68" y="1035.83" width="49.58" height="49.56" rx="3" fill="rgb(247, 176, 65)"/>
  <rect x="366.99" y="1035.83" width="49.58" height="49.56" rx="3" fill="rgb(247, 176, 65)"/>
  <rect x="426.31" y="1035.83" width="49.58" height="49.56" rx="3" fill="rgb(247, 176, 65)"/>
  <rect x="485.62" y="1035.83" width="49.58" height="49.56" rx="3" fill="rgb(247, 176, 65)"/>
  <rect x="544.93" y="1035.83" width="49.58" height="49.56" rx="3" fill="rgb(247, 176, 65)"/>
  <rect x="604.24" y="1035.83" width="49.58" height="49.56" rx="3" fill="rgb(247, 176, 65)"/>
  <rect x="663.56" y="1035.83" width="49.58" height="49.56" rx="3" fill="rgb(247, 176, 65)"/>
  <rect x="722.87" y="1035.83" width="49.58" height="49.56" rx="3" fill="rgb(247, 176, 65)"/>
  <rect x="782.18" y="1035.83" width="49.58" height="49.56" rx="3" fill="rgb(247, 176, 65)"/>
  <rect x="75.59" y="1240.84" width="28.13" height="28.12" rx="4.01" fill="rgb(247, 176, 65)"/>
  <rect x="473.17" y="1240.84" width="28.13" height="28.12" rx="4.01" fill="rgba(255, 255, 255, 0.14)"/>
  <rect data-slot="content" data-accepts="module" data-label="Content" data-role="body" x="63.59" y="42.74" width="967.94" height="1432.7" rx="16" fill="none" stroke="#3A4A5F" stroke-opacity="0.35" stroke-dasharray="12 9"/>
  
  
  <text id="field:eyebrow" data-field="eyebrow" data-role="eyebrow" data-maxlen="31" x="75.59" y="198.73" text-anchor="start" style="font-family:'Outfit','Inter',sans-serif;font-size:35.69px;font-weight:850;text-transform:uppercase;letter-spacing:1.5px;fill:rgb(247, 176, 65)" data-w="557" data-minfont="25"><tspan x="75.59" y="198.73">Utilization</tspan></text>
  <text id="field:headline" data-field="headline" data-role="headline" data-maxlen="69" data-minfont="34" data-maxfont="96" x="75.59" y="274.63" text-anchor="start" style="font-family:'Grift','Outfit',sans-serif;font-size:58.41px;font-weight:790;fill:rgb(255, 255, 255)" data-w="545"><tspan x="75.59" y="274.63">CoWoS-L lines </tspan><tspan x="75.59" y="333.61">running at 78 percent </tspan><tspan x="75.59" y="392.58">of installed capacity</tspan></text>
  <text id="field:stat-3" data-field="stat-3" data-role="stat" data-maxlen="5" x="1004.41" y="222.66" text-anchor="end" style="font-family:'Grift','Outfit',sans-serif;font-size:183.87px;font-weight:850;fill:rgb(247, 176, 65)" data-w="368" data-minfont="77"><tspan x="1004.41" y="222.66">78%</tspan></text>
  <text id="field:label-1" data-field="label-1" data-role="label" data-maxlen="64" x="1004.41" y="269.71" text-anchor="end" style="font-family:'Outfit','Inter',sans-serif;font-size:29.2px;font-weight:790;text-transform:uppercase;letter-spacing:1.5px;fill:rgb(137, 146, 165)" data-w="242" data-minfont="20"><tspan x="1004.41" y="269.71">of installed </tspan><tspan x="1004.41" y="310.58">CoWoS-L </tspan><tspan x="1004.41" y="351.46">capacity in </tspan><tspan x="1004.41" y="392.33">use</tspan></text>
  <text id="field:footer-1" data-field="footer-1" data-role="footer" data-maxlen="20" x="125.36" y="1257.83" text-anchor="start" style="font-family:'Outfit','Inter',sans-serif;font-size:29.2px;font-weight:790;text-transform:uppercase;letter-spacing:1.5px;fill:rgb(230, 234, 242)" data-w="288" data-minfont="20"><tspan x="125.36" y="1257.83">In use · 78 lines</tspan></text>
  <text id="field:footer-2" data-field="footer-2" data-role="footer" data-maxlen="32" x="522.94" y="1257.83" text-anchor="start" style="font-family:'Outfit','Inter',sans-serif;font-size:29.2px;font-weight:790;text-transform:uppercase;letter-spacing:1.5px;fill:rgb(230, 234, 242)" data-w="468" data-minfont="20"><tspan x="522.94" y="1257.83">Idle headroom · 22 lines</tspan></text>
  <text id="field:footer-3" data-field="footer-3" data-role="footer" data-maxlen="96" x="75.59" y="1406.05" text-anchor="start" style="font-family:'Outfit','Inter',sans-serif;font-size:29.2px;font-weight:790;text-transform:uppercase;letter-spacing:1.5px;fill:rgb(137, 146, 165)" data-w="929" data-minfont="20"><tspan x="75.59" y="1406.05">SEMIANALYSIS · 1 SQUARE = 1 PERCENT OF FLEET · </tspan><tspan x="75.59" y="1446.92">CALENDAR Q2</tspan></text>
  <text id="field:logo" data-field="logo" data-role="logo" x="788.27" y="94.45" style="font-family:Outfit,Inter,sans-serif;font-weight:760;font-size:41.1px;letter-spacing:-0.03em"><tspan fill="rgb(11, 134, 209)">semi</tspan><tspan fill="rgb(247, 176, 65)">analysis</tspan></text>
</svg>