<svg viewBox="0 0 1080 1350" width="1080" height="1350" xmlns="http://www.w3.org/2000/svg">
  <rect x="86.39" y="327.31" width="907.21" height="1003.13" rx="16.02" fill="rgba(9, 11, 18, 0.68)" stroke="rgba(255, 255, 255, 0.094)" stroke-width="1"/>
  <rect x="128.21" y="1045.33" width="823.59" height="1" fill="rgba(255, 255, 255, 0.13)"/>
  <rect x="128.21" y="1117.33" width="32.45" height="32.44" rx="3" fill="rgb(247, 176, 65)"/>
  <rect x="560.59" y="1117.33" width="32.45" height="32.44" rx="3" fill="rgb(11, 134, 209)"/>
  <rect x="128.21" y="1225.72" width="32.45" height="32.44" rx="3" fill="rgb(46, 173, 142)"/>
  <rect x="560.59" y="1225.72" width="32.45" height="32.44" rx="3" fill="rgb(224, 99, 71)"/>
  <g class="sample-fill" transform="translate(128.21,378.19) scale(8.24,10.44)"><line x1="0" y1="29" x2="100" y2="29" stroke="rgba(255,255,255,.14)" stroke-width=".3" stroke-dasharray="1.4 1.4"></line><path d="M0.0,18.2C2.3,17.9 9.3,17.2 14.0,16.7C18.7,16.1 23.3,15.5 28.0,14.9C32.7,14.2 37.3,13.5 42.0,12.8C46.7,12.0 51.3,11.1 56.0,10.4C60.7,9.6 65.3,9.0 70.0,8.3C74.7,7.6 79.0,6.9 84.0,6.2C89.0,5.5 97.3,4.4 100.0,4.1L100.0,31.7C97.3,31.5 89.0,30.7 84.0,30.2C79.0,29.7 74.7,29.2 70.0,28.7C65.3,28.2 60.7,27.6 56.0,27.2C51.3,26.7 46.7,26.3 42.0,26.0C37.3,25.6 32.7,25.3 28.0,25.1C23.3,24.8 18.7,24.6 14.0,24.5C9.3,24.3 2.3,24.2 0.0,24.2Z" fill="#F7B041" fill-opacity=".92" stroke="rgba(6,12,20,.55)" stroke-width=".4"></path><path d="M0.0,24.2C2.3,24.2 9.3,24.3 14.0,24.5C18.7,24.6 23.3,24.8 28.0,25.1C32.7,25.3 37.3,25.6 42.0,26.0C46.7,26.3 51.3,26.7 56.0,27.2C60.7,27.6 65.3,28.2 70.0,28.7C74.7,29.2 79.0,29.7 84.0,30.2C89.0,30.7 97.3,31.5 100.0,31.7L100.0,41.9C97.3,41.6 89.0,40.5 84.0,39.8C79.0,39.1 74.7,38.4 70.0,37.7C65.3,37.0 60.7,36.3 56.0,35.6C51.3,35.0 46.7,34.5 42.0,33.8C37.3,33.2 32.7,32.4 28.0,31.7C23.3,31.1 18.7,30.4 14.0,29.9C9.3,29.5 2.3,29.2 0.0,29.0Z" fill="#0B86D1" fill-opacity=".82" stroke="rgba(6,12,20,.55)" stroke-width=".4"></path><path d="M0.0,29.0C2.3,29.2 9.3,29.5 14.0,29.9C18.7,30.4 23.3,31.1 28.0,31.7C32.7,32.4 37.3,33.2 42.0,33.8C46.7,34.5 51.3,35.0 56.0,35.6C60.7,36.3 65.3,37.0 70.0,37.7C74.7,38.4 79.0,39.1 84.0,39.8C89.0,40.5 97.3,41.6 100.0,41.9L100.0,45.5C97.3,45.3 89.0,44.5 84.0,44.0C79.0,43.5 74.7,43.0 70.0,42.5C65.3,42.0 60.7,41.5 56.0,41.0C51.3,40.6 46.7,40.3 42.0,39.8C37.3,39.4 32.7,38.8 28.0,38.3C23.3,37.9 18.7,37.5 14.0,37.1C9.3,36.8 2.3,36.4 0.0,36.2Z" fill="#2EAD8E" fill-opacity=".78" stroke="rgba(6,12,20,.55)" stroke-width=".4"></path><path d="M0.0,36.2C2.3,36.4 9.3,36.8 14.0,37.1C18.7,37.5 23.3,37.9 28.0,38.3C32.7,38.8 37.3,39.4 42.0,39.8C46.7,40.3 51.3,40.6 56.0,41.0C60.7,41.5 65.3,42.0 70.0,42.5C74.7,43.0 79.0,43.5 84.0,44.0C89.0,44.5 97.3,45.3 100.0,45.5L100.0,53.9C97.3,53.6 89.0,52.5 84.0,51.8C79.0,51.1 74.7,50.4 70.0,49.7C65.3,49.0 60.7,48.4 56.0,47.6C51.3,46.9 46.7,46.0 42.0,45.2C37.3,44.5 32.7,43.8 28.0,43.1C23.3,42.5 18.7,41.9 14.0,41.3C9.3,40.8 2.3,40.1 0.0,39.8Z" fill="#E06347" fill-opacity=".78" stroke="rgba(6,12,20,.55)" stroke-width=".4"></path></g>
  <rect data-slot="content" data-accepts="module" data-label="Content" data-role="body" x="74.39" y="992.46" width="931.21" height="477.06" rx="16" fill="none" stroke="#3A4A5F" stroke-opacity="0.35" stroke-dasharray="12 9"/>
  <text id="field:eyebrow" data-field="eyebrow" data-role="eyebrow" data-maxlen="32" x="86.39" y="120.31" text-anchor="start" style="font-family:'Outfit','Inter',sans-serif;font-size:35.69px;font-weight:850;text-transform:uppercase;letter-spacing:1.5px;fill:rgb(247, 176, 65)" data-w="907" data-minfont="25"><tspan x="86.39" y="120.31">Composition over time</tspan></text>
  <text id="field:headline" data-field="headline" data-role="headline" data-maxlen="70" data-minfont="34" data-maxfont="96" x="86.39" y="206.75" text-anchor="start" style="font-family:'Grift','Outfit',sans-serif;font-size:58.41px;font-weight:790;fill:rgb(255, 255, 255)" data-w="835"><tspan x="86.39" y="206.75">How AI accelerator package cost </tspan><tspan x="86.39" y="265.72">shifts toward HBM</tspan></text>
  <text id="field:label-1" data-field="label-1" data-role="label" data-maxlen="4" x="128.21" y="1027.82" text-anchor="start" style="font-family:'Outfit','Inter',sans-serif;font-size:29.2px;font-weight:790;text-transform:uppercase;letter-spacing:1.5px;fill:rgb(137, 146, 165)" data-w="41" data-minfont="20"><tspan x="128.21" y="1027.82">22</tspan></text>
  <text id="field:label-2" data-field="label-2" data-role="label" data-maxlen="4" x="312.81" y="1027.82" text-anchor="start" style="font-family:'Outfit','Inter',sans-serif;font-size:29.2px;font-weight:790;text-transform:uppercase;letter-spacing:1.5px;fill:rgb(137, 146, 165)" data-w="41" data-minfont="20"><tspan x="312.81" y="1027.82">23</tspan></text>
  <text id="field:label-3" data-field="label-3" data-role="label" data-maxlen="4" x="497.44" y="1027.82" text-anchor="start" style="font-family:'Outfit','Inter',sans-serif;font-size:29.2px;font-weight:790;text-transform:uppercase;letter-spacing:1.5px;fill:rgb(137, 146, 165)" data-w="41" data-minfont="20"><tspan x="497.44" y="1027.82">24</tspan></text>
  <text id="field:label-4" data-field="label-4" data-role="label" data-maxlen="5" x="682.04" y="1027.82" text-anchor="start" style="font-family:'Outfit','Inter',sans-serif;font-size:29.2px;font-weight:790;text-transform:uppercase;letter-spacing:1.5px;fill:rgb(137, 146, 165)" data-w="63" data-minfont="20"><tspan x="682.04" y="1027.82">25E</tspan></text>
  <text id="field:label-5" data-field="label-5" data-role="label" data-maxlen="5" x="888.47" y="1027.82" text-anchor="start" style="font-family:'Outfit','Inter',sans-serif;font-size:29.2px;font-weight:790;text-transform:uppercase;letter-spacing:1.5px;fill:rgb(137, 146, 165)" data-w="63" data-minfont="20"><tspan x="888.47" y="1027.82">26E</tspan></text>
  <text id="field:body-1" data-field="body-1" data-role="body" data-maxlen="34" x="180.21" y="1136.14" text-anchor="start" style="font-family:'Outfit','Inter',sans-serif;font-size:34.61px;font-weight:640;fill:rgb(230, 234, 242)" data-w="197" data-minfont="21" data-maxlines="2"><tspan x="180.21" y="1136.14">HBM stacks</tspan></text>
  <text id="field:body-2" data-field="body-2" data-role="body" data-maxlen="15" x="454.39" y="1136.14" text-anchor="start" style="font-family:'Outfit','Inter',sans-serif;font-size:34.61px;font-weight:850;fill:rgb(255, 255, 255)" data-w="92" data-minfont="21" data-maxlines="2"><tspan x="454.39" y="1136.14">55%</tspan></text>
  <text id="field:body-3" data-field="body-3" data-role="body" data-maxlen="31" x="612.59" y="1114.06" text-anchor="start" style="font-family:'Outfit','Inter',sans-serif;font-size:34.61px;font-weight:640;fill:rgb(230, 234, 242)" data-w="178" data-minfont="21" data-maxlines="2"><tspan x="612.59" y="1114.06">CoWoS </tspan><tspan x="612.59" y="1164.25">interposer</tspan></text>
  <text id="field:body-4" data-field="body-4" data-role="body" data-maxlen="20" x="886.77" y="1136.14" text-anchor="start" style="font-family:'Outfit','Inter',sans-serif;font-size:34.61px;font-weight:850;fill:rgb(255, 255, 255)" data-w="119" data-minfont="21" data-maxlines="2"><tspan x="886.77" y="1136.14">20%</tspan></text>
  <text id="field:body-5" data-field="body-5" data-role="body" data-maxlen="24" x="180.21" y="1244.54" text-anchor="start" style="font-family:'Outfit','Inter',sans-serif;font-size:34.61px;font-weight:640;fill:rgb(230, 234, 242)" data-w="280" data-minfont="21" data-maxlines="1"><tspan x="180.21" y="1244.54">Logic die</tspan></text>
  <text id="field:body-6" data-field="body-6" data-role="body" data-maxlen="12" x="474.82" y="1244.54" text-anchor="start" style="font-family:'Outfit','Inter',sans-serif;font-size:34.61px;font-weight:850;fill:rgb(255, 255, 255)" data-w="71" data-minfont="21" data-maxlines="1"><tspan x="474.82" y="1244.54">7%</tspan></text>
  <text id="field:body-7" data-field="body-7" data-role="body" data-maxlen="35" x="612.59" y="1222.46" text-anchor="start" style="font-family:'Outfit','Inter',sans-serif;font-size:34.61px;font-weight:640;fill:rgb(230, 234, 242)" data-w="201" data-minfont="21" data-maxlines="2"><tspan x="612.59" y="1222.46">Substrate + </tspan><tspan x="612.59" y="1272.64">assembly</tspan></text>
  <text id="field:body-8" data-field="body-8" data-role="body" data-maxlen="12" x="886.77" y="1244.54" text-anchor="start" style="font-family:'Outfit','Inter',sans-serif;font-size:34.61px;font-weight:850;fill:rgb(255, 255, 255)" data-w="119" data-minfont="21" data-maxlines="1"><tspan x="886.77" y="1244.54">18%</tspan></text>
  <text id="field:footer-1" data-field="footer-1" data-role="footer" data-maxlen="88" x="86.39" y="1302" text-anchor="start" style="font-family:'Outfit','Inter',sans-serif;font-size:29.2px;font-weight:790;text-transform:uppercase;letter-spacing:1.5px;fill:rgb(137, 146, 165)" data-w="727" data-minfont="20"><tspan x="86.39" y="1302">SHARE OF AI ACCELERATOR PACKAGE COST · </tspan><tspan x="86.39" y="1338">CENTERED STREAM</tspan></text>
  <g class="ov-logo" data-role="logo" transform="translate(933.68,60.75) scale(0.78,0.77)"><path fill="#0d86d1" d="M1.1,75.92c1.17,2.98,2.61,5.71,5.01,8.02l21.61,22.67c3.38,3.11,7.5,5.04,12.16,5.04h31.14c4.76,0,8.99-2.04,12.35-5.3l21.4-22.4c2.34-2.45,4-5.14,5.02-8.26-.03,5.03-1.18,10.17-4.57,14.02l-22.89,25.93c-2.81,3.19-7.05,5.05-11.27,5.05h-31.44c-4.47,0-8.64-2.13-11.57-5.44l-22.39-25.3c-3.05-3.97-4.88-8.7-4.56-14.02Z"/>
  <g>
    <g>
      <path fill="#f7b041" d="M38.11,109.96c-3.13,0-6.08-1.19-8.3-3.35l-24.5-23.86c-2.22-2.16-3.44-5.03-3.44-8.08v-33.74c0-3.05,1.22-5.92,3.44-8.08L29.81,9c2.22-2.16,5.16-3.35,8.3-3.35h34.65c3.13,0,6.08,1.19,8.3,3.35l24.5,23.86c2.22,2.16,3.44,5.03,3.44,8.08v33.74c0,3.05-1.22,5.92-3.44,8.08l-24.5,23.86c-2.22,2.16-5.16,3.35-8.3,3.35h-34.65Z"/>
      <path fill="#ffffff" d="M72.76,6.65c2.86,0,5.55,1.08,7.57,3.05l24.5,23.86c2.02,1.97,3.14,4.59,3.14,7.37v33.74c0,2.79-1.11,5.4-3.14,7.37l-24.5,23.86c-2.02,1.97-4.71,3.05-7.57,3.05h-34.65c-2.86,0-5.55-1.08-7.57-3.05l-24.5-23.86c-2.02-1.97-3.14-4.59-3.14-7.37v-33.74c0-2.79,1.11-5.4,3.14-7.37L30.53,9.71c2.02-1.97,4.71-3.05,7.57-3.05h34.65M72.76,4.66h-34.65c-3.38,0-6.63,1.31-9.02,3.64L4.58,32.15c-2.39,2.33-3.74,5.49-3.74,8.79v33.74c0,3.3,1.34,6.46,3.74,8.79l23.94,23.83c2.39,2.33,5.96,4.22,9.35,4.22h35.01c3.38,0,7.53-2.39,9.92-4.72l23.49-23.33c2.39-2.33,3.74-5.49,3.74-8.79v-33.74c0-3.3-1.34-6.46-3.74-8.79l-24.5-23.86c-2.39-2.33-5.64-3.64-9.02-3.64h0Z"/>
    </g>
    <g>
      <path fill="#ffffff" d="M32,60.64c0,.94-.78,1.69-1.74,1.69s-1.74-.76-1.74-1.69.78-1.69,1.74-1.69,1.74.76,1.74,1.69Z"/>
      <path fill="#0b86d1" d="M32,60.64h-.56c0,.32-.13.6-.34.81-.21.21-.51.34-.83.34-.33,0-.62-.13-.83-.34-.21-.21-.34-.49-.34-.81,0-.32.13-.6.34-.81.21-.21.51-.34.83-.34.33,0,.62.13.83.34.21.21.34.49.34.81h1.12c0-.62-.26-1.18-.67-1.58-.41-.4-.99-.66-1.63-.66-.63,0-1.21.25-1.63.66-.42.4-.67.97-.67,1.58,0,.62.26,1.18.67,1.58.41.4.99.66,1.63.66.63,0,1.21-.25,1.63-.66.42-.4.67-.97.67-1.58h-.56Z"/>
      <path fill="#ffffff" d="M27.83,43.54c0,.94-.78,1.69-1.74,1.69s-1.74-.76-1.74-1.69.78-1.69,1.74-1.69,1.74.76,1.74,1.69Z"/>
      <path fill="#0b86d1" d="M27.83,43.54h-.56c0,.32-.13.6-.34.81-.21.21-.51.34-.83.34-.33,0-.62-.13-.83-.34-.21-.21-.34-.49-.34-.81,0-.32.13-.6.34-.81.21-.21.51-.34.83-.34.33,0,.62.13.83.34.21.21.34.49.34.81h1.12c0-.62-.26-1.18-.67-1.58-.41-.4-.99-.66-1.63-.66-.63,0-1.21.25-1.63.66-.42.4-.67.97-.67,1.58,0,.62.26,1.18.67,1.58.41.4.99.66,1.63.66.63,0,1.21-.25,1.63-.66.42-.4.67-.97.67-1.58h-.56Z"/>
      <path fill="#ffffff" d="M26.52,51.41c0,.94-.78,1.69-1.74,1.69s-1.74-.76-1.74-1.69.78-1.69,1.74-1.69,1.74.76,1.74,1.69Z"/>
      <path fill="#0b86d1" d="M26.52,51.41h-.56c0,.32-.13.6-.34.81-.21.21-.51.34-.83.34-.33,0-.62-.13-.83-.34-.21-.21-.34-.49-.34-.81,0-.32.13-.6.34-.81.21-.21.51-.34.83-.34.33,0,.62.13.83.34.21.21.34.49.34.81h1.12c0-.62-.26-1.18-.67-1.58-.41-.4-.99-.66-1.63-.66-.63,0-1.21.25-1.63.66-.42.4-.67.97-.67,1.58,0,.62.26,1.18.67,1.58.41.4.99.66,1.63.66.63,0,1.21-.25,1.63-.66.42-.4.67-.97.67-1.58h-.56Z"/>
      <path fill="#ffffff" d="M39.13,61.06c0,.94-.78,1.69-1.74,1.69s-1.74-.76-1.74-1.69.78-1.69,1.74-1.69,1.74.76,1.74,1.69Z"/>
      <path fill="#0b86d1" d="M39.13,61.06h-.56c0,.32-.13.6-.34.81-.21.21-.51.34-.83.34-.33,0-.62-.13-.83-.34-.21-.21-.34-.49-.34-.81,0-.32.13-.6.34-.81.21-.21.51-.34.83-.34.33,0,.62.13.83.34.21.21.34.49.34.81h1.12c0-.62-.26-1.18-.67-1.58-.41-.4-.99-.66-1.63-.66-.63,0-1.21.25-1.63.66-.42.4-.67.97-.67,1.58,0,.62.26,1.18.67,1.58.41.4.99.66,1.63.66.63,0,1.21-.25,1.63-.66.42-.4.67-.97.67-1.58h-.56Z"/>
      <path fill="#ffffff" d="M33.22,29.06c0,.94-.78,1.69-1.74,1.69s-1.74-.76-1.74-1.69.78-1.69,1.74-1.69,1.74.76,1.74,1.69Z"/>
      <path fill="#0b86d1" d="M33.22,29.06h-.56c0,.32-.13.6-.34.81-.21.21-.51.34-.83.34-.33,0-.62-.13-.83-.34-.21-.21-.34-.49-.34-.81,0-.32.13-.6.34-.81.21-.21.51-.34.83-.34.33,0,.62.13.83.34.21.21.34.49.34.81h1.12c0-.62-.26-1.18-.67-1.58-.41-.4-.99-.66-1.63-.66-.63,0-1.21.25-1.63.66-.42.4-.67.97-.67,1.58,0,.62.26,1.18.67,1.58.41.4.99.66,1.63.66.63,0,1.21-.25,1.63-.66.42-.4.67-.97.67-1.58h-.56Z"/>
      <path fill="#ffffff" d="M41.3,18.23c0,.94-.78,1.69-1.74,1.69s-1.74-.76-1.74-1.69.78-1.69,1.74-1.69,1.74.76,1.74,1.69Z"/>
      <path fill="#0b86d1" d="M41.3,18.23h-.56c0,.32-.13.6-.34.81-.21.21-.51.34-.83.34-.33,0-.62-.13-.83-.34-.21-.21-.34-.49-.34-.81,0-.32.13-.6.34-.81.21-.21.51-.34.83-.34.33,0,.62.13.83.34.21.21.34.49.34.81h1.12c0-.62-.26-1.18-.67-1.58-.41-.4-.99-.66-1.63-.66-.63,0-1.21.25-1.63.66-.42.4-.67.97-.67,1.58,0,.62.26,1.18.67,1.58.41.4.99.66,1.63.66.63,0,1.21-.25,1.63-.66.42-.4.67-.97.67-1.58h-.56Z"/>
      <path fill="#ffffff" d="M53.21,18.9c0,.94-.78,1.69-1.74,1.69s-1.74-.76-1.74-1.69.78-1.69,1.74-1.69,1.74.76,1.74,1.69Z"/>
      <path fill="#0b86d1" d="M53.21,18.9h-.56c0,.32-.13.6-.34.81-.21.21-.51.34-.83.34-.33,0-.62-.13-.83-.34-.21-.21-.34-.49-.34-.81,0-.32.13-.6.34-.81.21-.21.51-.34.83-.34.33,0,.62.13.83.34.21.21.34.49.34.81h1.12c0-.62-.26-1.18-.67-1.58-.41-.4-.99-.66-1.63-.66-.63,0-1.21.25-1.63.66-.42.4-.67.97-.67,1.58,0,.62.26,1.18.67,1.58.41.4.99.66,1.63.66.63,0,1.21-.25,1.63-.66.42-.4.67-.97.67-1.58h-.56Z"/>
      <ellipse fill="#ffffff" cx="59.91" cy="11.03" rx="1.74" ry="1.69"/>
      <path fill="#0b86d1" d="M61.65,11.03h-.56c0,.32-.13.6-.34.81-.21.21-.51.34-.83.34-.33,0-.62-.13-.83-.34-.21-.21-.34-.49-.34-.81,0-.32.13-.6.34-.81.21-.21.51-.34.83-.34.33,0,.62.13.83.34.21.21.34.49.34.81h1.12c0-.62-.26-1.18-.67-1.58-.41-.4-.99-.66-1.63-.66-.63,0-1.21.25-1.63.66-.42.4-.67.97-.67,1.58,0,.62.26,1.18.67,1.58.41.4.99.66,1.63.66.63,0,1.21-.25,1.63-.66.42-.4.67-.97.67-1.58h-.56Z"/>
      <path fill="#ffffff" d="M61.56,33.55c0,.94-.78,1.69-1.74,1.69s-1.74-.76-1.74-1.69.78-1.69,1.74-1.69,1.74.76,1.74,1.69Z"/>
      <path fill="#0b86d1" d="M61.56,33.55h-.56c0,.32-.13.6-.34.81-.21.21-.51.34-.83.34-.33,0-.62-.13-.83-.34-.21-.21-.34-.49-.34-.81,0-.32.13-.6.34-.81.21-.21.51-.34.83-.34.33,0,.62.13.83.34.21.21.34.49.34.81h1.12c0-.62-.26-1.18-.67-1.58-.41-.4-.99-.66-1.63-.66-.63,0-1.21.25-1.63.66-.42.4-.67.97-.67,1.58,0,.62.26,1.18.67,1.58.41.4.99.66,1.63.66.63,0,1.21-.25,1.63-.66.42-.4.67-.97.67-1.58h-.56Z"/>
      <path fill="#ffffff" d="M64.6,17.29c0,.94-.78,1.69-1.74,1.69s-1.74-.76-1.74-1.69.78-1.69,1.74-1.69,1.74.76,1.74,1.69Z"/>
      <path fill="#0b86d1" d="M64.6,17.29h-.56c0,.32-.13.6-.34.81-.21.21-.51.34-.83.34-.33,0-.62-.13-.83-.34-.21-.21-.34-.49-.34-.81,0-.32.13-.6.34-.81.21-.21.51-.34.83-.34.33,0,.62.13.83.34.21.21.34.49.34.81h1.12c0-.62-.26-1.18-.67-1.58-.41-.4-.99-.66-1.63-.66-.63,0-1.21.25-1.63.66-.42.4-.67.97-.67,1.58,0,.62.26,1.18.67,1.58.41.4.99.66,1.63.66.63,0,1.21-.25,1.63-.66.42-.4.67-.97.67-1.58h-.56Z"/>
      <path fill="#ffffff" d="M56.34,26.95c0,.94-.78,1.69-1.74,1.69s-1.74-.76-1.74-1.69.78-1.69,1.74-1.69,1.74.76,1.74,1.69Z"/>
      <path fill="#0b86d1" d="M56.34,26.95h-.56c0,.32-.13.6-.34.81-.21.21-.51.34-.83.34-.33,0-.62-.13-.83-.34-.21-.21-.34-.49-.34-.81,0-.32.13-.6.34-.81.21-.21.51-.34.83-.34.33,0,.62.13.83.34.21.21.34.49.34.81h1.12c0-.62-.26-1.18-.67-1.58-.41-.4-.99-.66-1.63-.66-.63,0-1.21.25-1.63.66-.42.4-.67.97-.67,1.58,0,.62.26,1.18.67,1.58.41.4.99.66,1.63.66.63,0,1.21-.25,1.63-.66.42-.4.67-.97.67-1.58h-.56Z"/>
      <ellipse fill="#ffffff" cx="37.39" cy="31.86" rx="1.74" ry="1.69"/>
      <path fill="#0b86d1" d="M39.13,31.86h-.56c0,.32-.13.6-.34.81-.21.21-.51.34-.83.34-.33,0-.62-.13-.83-.34-.21-.21-.34-.49-.34-.81,0-.32.13-.6.34-.81.21-.21.51-.34.83-.34.33,0,.62.13.83.34.21.21.34.49.34.81h1.12c0-.62-.26-1.18-.67-1.58-.41-.4-.99-.66-1.63-.66-.63,0-1.21.25-1.63.66-.42.4-.67.97-.67,1.58,0,.62.26,1.18.67,1.58.41.4.99.66,1.63.66.63,0,1.21-.25,1.63-.66.42-.4.67-.97.67-1.58h-.56Z"/>
      <path fill="#ffffff" d="M45.22,35.75c0,.94-.78,1.69-1.74,1.69s-1.74-.76-1.74-1.69.78-1.69,1.74-1.69,1.74.76,1.74,1.69Z"/>
      <path fill="#0b86d1" d="M45.22,35.75h-.56c0,.32-.13.6-.34.81-.21.21-.51.34-.83.34-.33,0-.62-.13-.83-.34-.21-.21-.34-.49-.34-.81,0-.32.13-.6.34-.81.21-.21.51-.34.83-.34.33,0,.62.13.83.34.21.21.34.49.34.81h1.12c0-.62-.26-1.18-.67-1.58-.41-.4-.99-.66-1.63-.66-.63,0-1.21.25-1.63.66-.42.4-.67.97-.67,1.58,0,.62.26,1.18.67,1.58.41.4.99.66,1.63.66.63,0,1.21-.25,1.63-.66.42-.4.67-.97.67-1.58h-.56Z"/>
      <path fill="#ffffff" d="M26.09,34.06c0,.94-.78,1.69-1.74,1.69s-1.74-.76-1.74-1.69.78-1.69,1.74-1.69,1.74.76,1.74,1.69Z"/>
      <path fill="#0b86d1" d="M26.09,34.06h-.56c0,.32-.13.6-.34.81-.21.21-.51.34-.83.34-.33,0-.62-.13-.83-.34-.21-.21-.34-.49-.34-.81,0-.32.13-.6.34-.81.21-.21.51-.34.83-.34.33,0,.62.13.83.34.21.21.34.49.34.81h1.12c0-.62-.26-1.18-.67-1.58-.41-.4-.99-.66-1.63-.66-.63,0-1.21.25-1.63.66-.42.4-.67.97-.67,1.58,0,.62.26,1.18.67,1.58.41.4.99.66,1.63.66.63,0,1.21-.25,1.63-.66.42-.4.67-.97.67-1.58h-.56Z"/>
      <path fill="#ffffff" d="M47.39,45.23c0,.94-.78,1.69-1.74,1.69s-1.74-.76-1.74-1.69.78-1.69,1.74-1.69,1.74.76,1.74,1.69Z"/>
      <path fill="#0b86d1" d="M47.39,45.23h-.56c0,.32-.13.6-.34.81-.21.21-.51.34-.83.34-.33,0-.62-.13-.83-.34-.21-.21-.34-.49-.34-.81,0-.32.13-.6.34-.81.21-.21.51-.34.83-.34.33,0,.62.13.83.34.21.21.34.49.34.81h1.12c0-.62-.26-1.18-.67-1.58-.41-.4-.99-.66-1.63-.66-.63,0-1.21.25-1.63.66-.42.4-.67.97-.67,1.58,0,.62.26,1.18.67,1.58.41.4.99.66,1.63.66.63,0,1.21-.25,1.63-.66.42-.4.67-.97.67-1.58h-.56Z"/>
      <path fill="#ffffff" d="M79.32,60.96c0,.94.78,1.69,1.74,1.69s1.74-.76,1.74-1.69-.78-1.69-1.74-1.69-1.74.76-1.74,1.69Z"/>
      <path fill="#0b86d1" d="M79.32,60.96h-.56c0,.62.26,1.18.67,1.58.41.4.99.66,1.63.66.63,0,1.21-.25,1.63-.66.42-.4.67-.97.67-1.58,0-.62-.26-1.18-.67-1.58-.41-.4-.99-.66-1.63-.66-.63,0-1.21.25-1.63.66-.42.4-.67.97-.67,1.58h1.12c0-.32.13-.6.34-.81.21-.21.51-.34.83-.34.33,0,.62.13.83.34.21.21.34.49.34.81,0,.32-.13.6-.34.81-.21.21-.51.34-.83.34-.33,0-.62-.13-.83-.34-.21-.21-.34-.49-.34-.81h-.56Z"/>
      <path fill="#ffffff" d="M83.04,43.54c0,.94.78,1.69,1.74,1.69s1.74-.76,1.74-1.69-.78-1.69-1.74-1.69-1.74.76-1.74,1.69Z"/>
      <path fill="#0b86d1" d="M83.04,43.54h-.56c0,.62.26,1.18.67,1.58.41.4.99.66,1.63.66.63,0,1.21-.25,1.63-.66.42-.4.67-.97.67-1.58,0-.62-.26-1.18-.67-1.58-.41-.4-.99-.66-1.63-.66-.63,0-1.21.25-1.63.66-.42.4-.67.97-.67,1.58h1.12c0-.32.13-.6.34-.81.21-.21.51-.34.83-.34.33,0,.62.13.83.34.21.21.34.49.34.81,0,.32-.13.6-.34.81-.21.21-.51.34-.83.34-.33,0-.62-.13-.83-.34-.21-.21-.34-.49-.34-.81h-.56Z"/>
      <path fill="#ffffff" d="M84.57,51.42c0,.94.78,1.69,1.74,1.69s1.74-.76,1.74-1.69-.78-1.69-1.74-1.69-1.74.76-1.74,1.69Z"/>
      <path fill="#0b86d1" d="M84.57,51.42h-.56c0,.62.26,1.18.67,1.58.41.4.99.66,1.63.66.63,0,1.21-.25,1.63-.66.42-.4.67-.97.67-1.58,0-.62-.26-1.18-.67-1.58-.41-.4-.99-.66-1.63-.66-.63,0-1.21.25-1.63.66-.42.4-.67.97-.67,1.58h1.12c0-.32.13-.6.34-.81.21-.21.51-.34.83-.34.33,0,.62.13.83.34.21.21.34.49.34.81,0,.32-.13.6-.34.81-.21.21-.51.34-.83.34-.33,0-.62-.13-.83-.34-.21-.21-.34-.49-.34-.81h-.56Z"/>
      <path fill="#ffffff" d="M71.82,61.74c0,.94.78,1.69,1.74,1.69s1.74-.76,1.74-1.69-.78-1.69-1.74-1.69-1.74.76-1.74,1.69Z"/>
      <path fill="#0b86d1" d="M71.82,61.74h-.56c0,.62.26,1.18.67,1.58.41.4.99.66,1.63.66.63,0,1.21-.25,1.63-.66.42-.4.67-.97.67-1.58,0-.62-.26-1.18-.67-1.58-.41-.4-.99-.66-1.63-.66-.63,0-1.21.25-1.63.66-.42.4-.67.97-.67,1.58h1.12c0-.32.13-.6.34-.81.21-.21.51-.34.83-.34.33,0,.62.13.83.34.21.21.34.49.34.81,0,.32-.13.6-.34.81-.21.21-.51.34-.83.34-.33,0-.62-.13-.83-.34-.21-.21-.34-.49-.34-.81h-.56Z"/>
      <path fill="#ffffff" d="M77.65,30.33c0,.94.78,1.69,1.74,1.69s1.74-.76,1.74-1.69-.78-1.69-1.74-1.69-1.74.76-1.74,1.69Z"/>
      <path fill="#0b86d1" d="M77.65,30.33h-.56c0,.62.26,1.18.67,1.58.41.4.99.66,1.63.66.63,0,1.21-.25,1.63-.66.42-.4.67-.97.67-1.58,0-.62-.26-1.18-.67-1.58-.41-.4-.99-.66-1.63-.66-.63,0-1.21.25-1.63.66-.42.4-.67.97-.67,1.58h1.12c0-.32.13-.6.34-.81.21-.21.51-.34.83-.34.33,0,.62.13.83.34.21.21.34.49.34.81,0,.32-.13.6-.34.81-.21.21-.51.34-.83.34-.33,0-.62-.13-.83-.34-.21-.21-.34-.49-.34-.81h-.56Z"/>
      <path fill="#ffffff" d="M70.17,18.23c0,.94.78,1.69,1.74,1.69s1.74-.76,1.74-1.69-.78-1.69-1.74-1.69-1.74.76-1.74,1.69Z"/>
      <path fill="#0b86d1" d="M70.17,18.23h-.56c0,.62.26,1.18.67,1.58.41.4.99.66,1.63.66.63,0,1.21-.25,1.63-.66.42-.4.67-.97.67-1.58,0-.62-.26-1.18-.67-1.58-.41-.4-.99-.66-1.63-.66-.63,0-1.21.25-1.63.66-.42.4-.67.97-.67,1.58h1.12c0-.32.13-.6.34-.81.21-.21.51-.34.83-.34.33,0,.62.13.83.34.21.21.34.49.34.81,0,.32-.13.6-.34.81-.21.21-.51.34-.83.34-.33,0-.62-.13-.83-.34-.21-.21-.34-.49-.34-.81h-.56Z"/>
      <path fill="#ffffff" d="M72.19,31.95c0,.94.78,1.69,1.74,1.69s1.74-.76,1.74-1.69-.78-1.69-1.74-1.69-1.74.76-1.74,1.69Z"/>
      <path fill="#0b86d1" d="M72.19,31.95h-.56c0,.62.26,1.18.67,1.58.41.4.99.66,1.63.66.63,0,1.21-.25,1.63-.66.42-.4.67-.97.67-1.58,0-.62-.26-1.18-.67-1.58-.41-.4-.99-.66-1.63-.66-.63,0-1.21.25-1.63.66-.42.4-.67.97-.67,1.58h1.12c0-.32.13-.6.34-.81.21-.21.51-.34.83-.34.33,0,.62.13.83.34.21.21.34.49.34.81,0,.32-.13.6-.34.81-.21.21-.51.34-.83.34-.33,0-.62-.13-.83-.34-.21-.21-.34-.49-.34-.81h-.56Z"/>
      <path fill="#ffffff" d="M66.33,35.98c0,.94.78,1.69,1.74,1.69s1.74-.76,1.74-1.69-.78-1.69-1.74-1.69-1.74.76-1.74,1.69Z"/>
      <path fill="#0b86d1" d="M66.33,35.98h-.56c0,.62.26,1.18.67,1.58.41.4.99.66,1.63.66.63,0,1.21-.25,1.63-.66.42-.4.67-.97.67-1.58,0-.62-.26-1.18-.67-1.58-.41-.4-.99-.66-1.63-.66-.63,0-1.21.25-1.63.66-.42.4-.67.97-.67,1.58h1.12c0-.32.13-.6.34-.81.21-.21.51-.34.83-.34.33,0,.62.13.83.34.21.21.34.49.34.81,0,.32-.13.6-.34.81-.21.21-.51.34-.83.34-.33,0-.62-.13-.83-.34-.21-.21-.34-.49-.34-.81h-.56Z"/>
      <path fill="#ffffff" d="M84.77,34.82c0,.94.78,1.69,1.74,1.69s1.74-.76,1.74-1.69-.78-1.69-1.74-1.69-1.74.76-1.74,1.69Z"/>
      <path fill="#0b86d1" d="M84.77,34.82h-.56c0,.62.26,1.18.67,1.58.41.4.99.66,1.63.66.63,0,1.21-.25,1.63-.66.42-.4.67-.97.67-1.58,0-.62-.26-1.18-.67-1.58-.41-.4-.99-.66-1.63-.66-.63,0-1.21.25-1.63.66-.42.4-.67.97-.67,1.58h1.12c0-.32.13-.6.34-.81.21-.21.51-.34.83-.34.33,0,.62.13.83.34.21.21.34.49.34.81,0,.32-.13.6-.34.81-.21.21-.51.34-.83.34-.33,0-.62-.13-.83-.34-.21-.21-.34-.49-.34-.81h-.56Z"/>
      <path fill="#ffffff" d="M63.47,45.91c0,.94.78,1.69,1.74,1.69s1.74-.76,1.74-1.69-.78-1.69-1.74-1.69-1.74.76-1.74,1.69Z"/>
      <path fill="#0b86d1" d="M63.47,45.91h-.56c0,.62.26,1.18.67,1.58.41.4.99.66,1.63.66.63,0,1.21-.25,1.63-.66.42-.4.67-.97.67-1.58,0-.62-.26-1.18-.67-1.58-.41-.4-.99-.66-1.63-.66-.63,0-1.21.25-1.63.66-.42.4-.67.97-.67,1.58h1.12c0-.32.13-.6.34-.81.21-.21.51-.34.83-.34.33,0,.62.13.83.34.21.21.34.49.34.81,0,.32-.13.6-.34.81-.21.21-.51.34-.83.34-.33,0-.62-.13-.83-.34-.21-.21-.34-.49-.34-.81h-.56Z"/>
      <polygon fill="#ffffff" points="42.26 85.1 42.26 58.11 35.15 51.19 34.05 52.27 40.69 58.74 40.69 85.1 42.26 85.1"/>
      <polygon fill="#ffffff" points="70.78 85.1 70.78 58.74 77.42 52.27 76.32 51.19 69.21 58.11 69.21 85.1 70.78 85.1"/>
      <polygon fill="#ffffff" points="73.32 31.9 73.65 45.81 80.05 39.59 80.57 39.08 79.46 38 73.84 43.48 65.04 52.05 65.04 85.1 66.6 85.1 66.6 52.68 74.95 44.56 80.57 39.08 79.46 38 78.94 38.51 75.13 42.22 74.88 31.86 73.32 31.9 73.32 31.9"/>
      <polygon fill="#ffffff" points="78.66 29.87 78.06 41.33 86.96 35.51 86.09 34.24 79.78 38.37 80.22 29.94 78.66 29.87"/>
      <polygon fill="#ffffff" points="71.93 25.63 63.65 25.23 63.65 17.29 62.08 17.29 62.08 26.68 71.86 27.15 71.93 25.63"/>
      <polygon fill="#ffffff" points="47.13 32.96 47.13 24.24 52.01 19.48 50.91 18.4 45.56 23.6 45.56 32.96 47.13 32.96 47.13 32.96"/>
      <polygon fill="#ffffff" points="54.69 85.19 54.69 39.99 40.35 26.02 40.35 18.14 38.78 18.14 38.78 26.65 53.13 40.62 53.13 85.19 54.69 85.19"/>
      <polygon fill="#ffffff" points="52.09 38.41 60.69 27.69 60.69 11.03 59.13 11.03 59.13 27.16 50.85 37.47 52.09 38.41"/>
      <polygon fill="#ffffff" points="58.34 85.19 58.34 40.62 72.69 26.65 72.69 18.14 71.12 18.14 71.12 26.02 56.78 39.99 56.78 85.19 58.34 85.19"/>
      <polygon fill="#ffffff" points="74.86 85.1 74.86 68.57 77.23 66.02 81.74 61.16 80.58 60.14 76.07 65 73.3 67.99 73.3 85.1 74.86 85.1"/>
      <polygon fill="#ffffff" points="50.52 85.1 50.52 45.03 46.87 41.47 43.73 38.42 44.2 35.71 42.65 35.46 42.05 38.94 45.76 42.55 48.95 45.66 48.95 85.1 50.52 85.1"/>
      <polygon fill="#ffffff" points="30.65 29.14 31.09 37.57 24.78 33.44 23.91 34.71 32.82 40.53 32.22 29.06 30.65 29.14 30.65 29.14"/>
      <polygon fill="#ffffff" points="38.17 85.1 38.17 67.99 35.4 65 30.89 60.14 29.73 61.16 34.24 66.02 36.61 68.57 36.61 85.1 38.17 85.1"/>
      <polygon fill="#ffffff" points="62.52 85.1 62.52 45.66 65.71 42.55 69.42 38.94 68.82 35.46 67.27 35.71 67.74 38.42 64.61 41.47 60.95 45.03 60.95 85.1 62.52 85.1"/>
      <rect fill="#0092ff" x="41.42" y="87.22" width="28.02" height="4.02" rx="1.01" ry="1.01"/>
      <rect fill="#3babff" x="43.02" y="91.94" width="24.83" height="4.02" rx="1.01" ry="1.01"/>
      <rect fill="#73c3ff" x="44.56" y="96.65" width="21.75" height="4.02" rx="1.01" ry="1.01"/>
      <rect fill="#a6d5ff" x="48.07" y="101.37" width="14.73" height="4.02" rx="1.01" ry="1.01"/>
    </g>
  </g></g>
</svg>