<?xml version="1.0" encoding="utf-8"?>
<!-- Generator: Adobe Adobe Illustrator 29.2.0, SVG Export Plug-In . SVG Version: 6.00 Build 0)  -->
<svg version="1.1" id="Layer_1" xmlns="http://www.w3.org/2000/svg" xmlns:xlink="http://www.w3.org/1999/xlink" x="0px" y="0px"
	 viewBox="0 0 504.81 126.42" style="enable-background:new 0 0 504.81 126.42;" xml:space="preserve">
<style type="text/css">
	.st0{stroke:#FFFFFF;stroke-miterlimit:10;}
	.st1{fill:#2EAD8E;}
	.st2{fill:#444647;}
	.st3{fill:#F7B041;}
	.st4{fill:#0D86D1;}
	.st5{fill:#FFFFFF;}
	.st6{fill:#0B86D1;}
	.st7{fill:#0092FF;}
	.st8{fill:#3BABFF;}
	.st9{fill:#73C3FF;}
	.st10{fill:#A6D5FF;}
	.st11{fill:none;}
	.st12{opacity:0.32;}
	.st13{fill:#999999;}
	.st14{fill:#3C3C3A;}
	.st15{fill-rule:evenodd;clip-rule:evenodd;fill:#3C3C3A;}
	.st16{clip-path:url(#SVGID_00000121961744395912879700000002081927367000413855_);}
	.st17{fill:none;stroke:#F7B041;stroke-miterlimit:10;}
	.st18{fill:#3D3D3D;}
	.st19{fill:#1A84C6;}
	.st20{fill:#E8A830;}
	.st21{fill:none;stroke:#FFFFFF;stroke-width:2.5;stroke-miterlimit:10;}
	.st22{fill:none;stroke:#FFFFFF;stroke-width:2.25;stroke-miterlimit:10;}
	.st23{fill:none;stroke:#FFFFFF;stroke-width:2;stroke-miterlimit:10;}
	.st24{fill:none;stroke:#FFFFFF;stroke-width:1.75;stroke-miterlimit:10;}
	.st25{fill:none;stroke:#FFFFFF;stroke-width:1.5;stroke-miterlimit:10;}
	.st26{fill:none;stroke:#FFFFFF;stroke-width:1.25;stroke-miterlimit:10;}
	.st27{fill:none;stroke:#FFFFFF;stroke-miterlimit:10;}
	.st28{fill:none;stroke:#FFFFFF;stroke-width:0.75;stroke-miterlimit:10;}
	.st29{fill:none;stroke:#FFFFFF;stroke-width:0.5;stroke-miterlimit:10;}
	.st30{fill:none;stroke:#FFFFFF;stroke-width:0.25;stroke-miterlimit:10;}
	.st31{fill:none;stroke:#FFFFFF;stroke-width:6;stroke-miterlimit:10;}
	.st32{fill:none;stroke:#FFFFFF;stroke-width:5;stroke-miterlimit:10;}
	.st33{fill:none;stroke:#FFFFFF;stroke-width:4;stroke-miterlimit:10;}
	.st34{fill:none;stroke:#FFFFFF;stroke-width:3;stroke-miterlimit:10;}
	.st35{fill:#43B599;stroke:#FFFFFF;stroke-width:6;stroke-miterlimit:10;}
	.st36{fill:#58BDA5;stroke:#FFFFFF;stroke-width:5;stroke-miterlimit:10;}
	.st37{fill:#6DC6B0;stroke:#FFFFFF;stroke-width:4;stroke-miterlimit:10;}
	.st38{fill:#82CEBB;stroke:#FFFFFF;stroke-width:3;stroke-miterlimit:10;}
	.st39{fill:#97D6C7;stroke:#FFFFFF;stroke-width:2;stroke-miterlimit:10;}
	.st40{fill:#ABDED2;stroke:#FFFFFF;stroke-miterlimit:10;}
	.st41{fill:#C0E6DD;stroke:#FFFFFF;stroke-miterlimit:10;}
	.st42{fill:#D5EFE8;stroke:#FFFFFF;stroke-width:0.75;stroke-miterlimit:10;}
	.st43{fill:#EAF7F4;stroke:#FFFFFF;stroke-width:0.5;stroke-miterlimit:10;}
	.st44{fill:#2EAD8E;stroke:#FFFFFF;stroke-width:0.25;stroke-miterlimit:10;}
	.st45{fill:none;stroke:#FFFFFF;stroke-width:7;stroke-miterlimit:10;}
	.st46{fill:none;stroke:#FFFFFF;stroke-width:10;stroke-miterlimit:10;}
	.st47{opacity:0.45;}
	.st48{opacity:0.2;fill:#FFFFFF;}
	.st49{opacity:0.35;fill:#FFFFFF;}
	.st50{opacity:0.5;fill:#FFFFFF;}
	.st51{opacity:0.6;fill:#FFFFFF;}
	.st52{fill:#FEFEFD;}
	.st53{fill:#F6B042;}
</style>
<g>
	<path class="st4" d="M3.82,73.91c1.17,2.98,2.61,5.71,5.01,8.02l21.61,22.67c3.38,3.11,7.5,5.04,12.16,5.04l31.14-0.01
		c4.76,0,8.99-2.03,12.35-5.29l21.4-22.4c2.34-2.45,4-5.14,5.02-8.26c-0.03,5.03-1.18,10.17-4.57,14.02l-22.89,25.93
		c-2.81,3.19-7.05,5.05-11.27,5.05l-31.44,0c-4.47,0-8.64-2.13-11.57-5.44L8.38,87.94C5.33,83.96,3.5,79.23,3.82,73.91z"/>
	<g>
		<g>
			<path class="st3" d="M40.83,107.95c-3.13,0-6.08-1.19-8.3-3.35L8.03,80.75c-2.22-2.16-3.44-5.03-3.44-8.08V38.93
				c0-3.05,1.22-5.92,3.44-8.08L32.53,7c2.22-2.16,5.16-3.35,8.3-3.35h34.65c3.13,0,6.08,1.19,8.3,3.35l24.5,23.86
				c2.22,2.16,3.44,5.03,3.44,8.08v33.74c0,3.05-1.22,5.92-3.44,8.08l-24.5,23.86c-2.22,2.16-5.16,3.35-8.3,3.35H40.83z"/>
			<path class="st5" d="M75.48,4.65c2.86,0,5.55,1.08,7.57,3.05l24.5,23.86c2.02,1.97,3.14,4.59,3.14,7.37v33.74
				c0,2.79-1.11,5.4-3.14,7.37l-24.5,23.86c-2.02,1.97-4.71,3.05-7.57,3.05H40.83c-2.86,0-5.55-1.08-7.57-3.05L8.75,80.04
				c-2.02-1.97-3.14-4.59-3.14-7.37V38.93c0-2.79,1.11-5.4,3.14-7.37L33.25,7.7c2.02-1.97,4.71-3.05,7.57-3.05H75.48 M75.48,2.65
				H40.83c-3.38,0-6.63,1.31-9.02,3.64L7.3,30.15c-2.39,2.33-3.74,5.49-3.74,8.79v33.74c0,3.3,1.34,6.46,3.74,8.79l23.94,23.83
				c2.39,2.33,5.96,4.22,9.35,4.22H75.6c3.38,0,7.53-2.39,9.92-4.72L109,81.46c2.39-2.33,3.74-5.49,3.74-8.79V38.93
				c0-3.3-1.34-6.46-3.74-8.79L84.5,6.29C82.11,3.96,78.86,2.65,75.48,2.65L75.48,2.65z"/>
		</g>
		<g>
			<path class="st5" d="M34.72,58.63c0,0.94-0.78,1.69-1.74,1.69c-0.96,0-1.74-0.76-1.74-1.69c0-0.94,0.78-1.69,1.74-1.69
				C33.94,56.94,34.72,57.7,34.72,58.63z"/>
			<path class="st6" d="M34.72,58.63h-0.56c0,0.32-0.13,0.6-0.34,0.81c-0.21,0.21-0.51,0.34-0.83,0.34c-0.33,0-0.62-0.13-0.83-0.34
				c-0.21-0.21-0.34-0.49-0.34-0.81c0-0.32,0.13-0.6,0.34-0.81c0.21-0.21,0.51-0.34,0.83-0.34c0.33,0,0.62,0.13,0.83,0.34
				c0.21,0.21,0.34,0.49,0.34,0.81H34.72h0.56c0-0.62-0.26-1.18-0.67-1.58c-0.41-0.4-0.99-0.66-1.63-0.66
				c-0.63,0-1.21,0.25-1.63,0.66c-0.42,0.4-0.67,0.97-0.67,1.58c0,0.62,0.26,1.18,0.67,1.58c0.41,0.4,0.99,0.66,1.63,0.66
				c0.63,0,1.21-0.25,1.63-0.66c0.42-0.4,0.67-0.97,0.67-1.58H34.72z"/>
			<path class="st5" d="M30.55,41.53c0,0.94-0.78,1.69-1.74,1.69c-0.96,0-1.74-0.76-1.74-1.69c0-0.94,0.78-1.69,1.74-1.69
				C29.77,39.84,30.55,40.6,30.55,41.53z"/>
			<path class="st6" d="M30.55,41.53h-0.56c0,0.32-0.13,0.6-0.34,0.81c-0.21,0.21-0.51,0.34-0.83,0.34c-0.33,0-0.62-0.13-0.83-0.34
				c-0.21-0.21-0.34-0.49-0.34-0.81c0-0.32,0.13-0.6,0.34-0.81c0.21-0.21,0.51-0.34,0.83-0.34c0.33,0,0.62,0.13,0.83,0.34
				c0.21,0.21,0.34,0.49,0.34,0.81H30.55h0.56c0-0.62-0.26-1.18-0.67-1.58c-0.41-0.4-0.99-0.66-1.63-0.66
				c-0.63,0-1.21,0.25-1.63,0.66c-0.42,0.4-0.67,0.97-0.67,1.58c0,0.62,0.26,1.18,0.67,1.58c0.41,0.4,0.99,0.66,1.63,0.66
				c0.63,0,1.21-0.25,1.63-0.66c0.42-0.4,0.67-0.97,0.67-1.58H30.55z"/>
			<path class="st5" d="M29.24,49.41c0,0.94-0.78,1.69-1.74,1.69c-0.96,0-1.74-0.76-1.74-1.69c0-0.94,0.78-1.69,1.74-1.69
				C28.46,47.71,29.24,48.47,29.24,49.41z"/>
			<path class="st6" d="M29.24,49.41h-0.56c0,0.32-0.13,0.6-0.34,0.81c-0.21,0.21-0.51,0.34-0.83,0.34c-0.33,0-0.62-0.13-0.83-0.34
				c-0.21-0.21-0.34-0.49-0.34-0.81c0-0.32,0.13-0.6,0.34-0.81c0.21-0.21,0.51-0.34,0.83-0.34c0.33,0,0.62,0.13,0.83,0.34
				c0.21,0.21,0.34,0.49,0.34,0.81H29.24h0.56c0-0.62-0.26-1.18-0.67-1.58c-0.41-0.4-0.99-0.66-1.63-0.66
				c-0.63,0-1.21,0.25-1.63,0.66c-0.42,0.4-0.67,0.97-0.67,1.58c0,0.62,0.26,1.18,0.67,1.58c0.41,0.4,0.99,0.66,1.63,0.66
				c0.63,0,1.21-0.25,1.63-0.66c0.42-0.4,0.67-0.97,0.67-1.58H29.24z"/>
			<path class="st5" d="M41.85,59.06c0,0.94-0.78,1.69-1.74,1.69s-1.74-0.76-1.74-1.69c0-0.94,0.78-1.69,1.74-1.69
				S41.85,58.12,41.85,59.06z"/>
			<path class="st6" d="M41.85,59.06h-0.56c0,0.32-0.13,0.6-0.34,0.81c-0.21,0.21-0.51,0.34-0.83,0.34c-0.33,0-0.62-0.13-0.83-0.34
				c-0.21-0.21-0.34-0.49-0.34-0.81c0-0.32,0.13-0.6,0.34-0.81c0.21-0.21,0.51-0.34,0.83-0.34c0.33,0,0.62,0.13,0.83,0.34
				c0.21,0.21,0.34,0.49,0.34,0.81H41.85h0.56c0-0.62-0.26-1.18-0.67-1.58c-0.41-0.4-0.99-0.66-1.63-0.66
				c-0.63,0-1.21,0.25-1.63,0.66c-0.42,0.4-0.67,0.97-0.67,1.58c0,0.62,0.26,1.18,0.67,1.58c0.41,0.4,0.99,0.66,1.63,0.66
				c0.63,0,1.21-0.25,1.63-0.66c0.42-0.4,0.67-0.97,0.67-1.58H41.85z"/>
			<path class="st5" d="M35.94,27.06c0,0.94-0.78,1.69-1.74,1.69c-0.96,0-1.74-0.76-1.74-1.69c0-0.94,0.78-1.69,1.74-1.69
				C35.16,25.36,35.94,26.12,35.94,27.06z"/>
			<path class="st6" d="M35.94,27.06h-0.56c0,0.32-0.13,0.6-0.34,0.81c-0.21,0.21-0.51,0.34-0.83,0.34c-0.33,0-0.62-0.13-0.83-0.34
				c-0.21-0.21-0.34-0.49-0.34-0.81c0-0.32,0.13-0.6,0.34-0.81c0.21-0.21,0.51-0.34,0.83-0.34c0.33,0,0.62,0.13,0.83,0.34
				c0.21,0.21,0.34,0.49,0.34,0.81H35.94h0.56c0-0.62-0.26-1.18-0.67-1.58c-0.41-0.4-0.99-0.66-1.63-0.66
				c-0.63,0-1.21,0.25-1.63,0.66c-0.42,0.4-0.67,0.97-0.67,1.58c0,0.62,0.26,1.18,0.67,1.58c0.41,0.4,0.99,0.66,1.63,0.66
				c0.63,0,1.21-0.25,1.63-0.66c0.42-0.4,0.67-0.97,0.67-1.58H35.94z"/>
			<path class="st5" d="M44.02,16.22c0,0.94-0.78,1.69-1.74,1.69c-0.96,0-1.74-0.76-1.74-1.69c0-0.94,0.78-1.69,1.74-1.69
				C43.24,14.53,44.02,15.29,44.02,16.22z"/>
			<path class="st6" d="M44.02,16.22h-0.56c0,0.32-0.13,0.6-0.34,0.81c-0.21,0.21-0.51,0.34-0.83,0.34c-0.33,0-0.62-0.13-0.83-0.34
				c-0.21-0.21-0.34-0.49-0.34-0.81c0-0.32,0.13-0.6,0.34-0.81c0.21-0.21,0.51-0.34,0.83-0.34c0.33,0,0.62,0.13,0.83,0.34
				c0.21,0.21,0.34,0.49,0.34,0.81H44.02h0.56c0-0.62-0.26-1.18-0.67-1.58c-0.41-0.4-0.99-0.66-1.63-0.66
				c-0.63,0-1.21,0.25-1.63,0.66c-0.42,0.4-0.67,0.97-0.67,1.58c0,0.62,0.26,1.18,0.67,1.58c0.41,0.4,0.99,0.66,1.63,0.66
				c0.63,0,1.21-0.25,1.63-0.66c0.42-0.4,0.67-0.97,0.67-1.58H44.02z"/>
			<path class="st5" d="M55.93,16.9c0,0.94-0.78,1.69-1.74,1.69c-0.96,0-1.74-0.76-1.74-1.69c0-0.94,0.78-1.69,1.74-1.69
				C55.16,15.2,55.93,15.96,55.93,16.9z"/>
			<path class="st6" d="M55.93,16.9h-0.56c0,0.32-0.13,0.6-0.34,0.81c-0.21,0.21-0.51,0.34-0.83,0.34c-0.33,0-0.62-0.13-0.83-0.34
				c-0.21-0.21-0.34-0.49-0.34-0.81c0-0.32,0.13-0.6,0.34-0.81c0.21-0.21,0.51-0.34,0.83-0.34c0.33,0,0.62,0.13,0.83,0.34
				c0.21,0.21,0.34,0.49,0.34,0.81H55.93h0.56c0-0.62-0.26-1.18-0.67-1.58c-0.41-0.4-0.99-0.66-1.63-0.66
				c-0.63,0-1.21,0.25-1.63,0.66c-0.42,0.4-0.67,0.97-0.67,1.58c0,0.62,0.26,1.18,0.67,1.58c0.41,0.4,0.99,0.66,1.63,0.66
				c0.63,0,1.21-0.25,1.63-0.66c0.42-0.4,0.67-0.97,0.67-1.58H55.93z"/>
			<ellipse class="st5" cx="62.63" cy="9.02" rx="1.74" ry="1.69"/>
			<path class="st6" d="M64.37,9.02h-0.56c0,0.32-0.13,0.6-0.34,0.81c-0.21,0.21-0.51,0.34-0.83,0.34c-0.33,0-0.62-0.13-0.83-0.34
				c-0.21-0.21-0.34-0.49-0.34-0.81c0-0.32,0.13-0.6,0.34-0.81c0.21-0.21,0.51-0.34,0.83-0.34c0.33,0,0.62,0.13,0.83,0.34
				c0.21,0.21,0.34,0.49,0.34,0.81H64.37h0.56c0-0.62-0.26-1.18-0.67-1.58c-0.41-0.4-0.99-0.66-1.63-0.66
				C62,6.78,61.42,7.04,61,7.44c-0.42,0.4-0.67,0.97-0.67,1.58c0,0.62,0.26,1.18,0.67,1.58c0.41,0.4,0.99,0.66,1.63,0.66
				c0.63,0,1.21-0.25,1.63-0.66c0.42-0.4,0.67-0.97,0.67-1.58H64.37z"/>
			<path class="st5" d="M64.28,31.54c0,0.94-0.78,1.69-1.74,1.69c-0.96,0-1.74-0.76-1.74-1.69c0-0.94,0.78-1.69,1.74-1.69
				C63.5,29.85,64.28,30.61,64.28,31.54z"/>
			<path class="st6" d="M64.28,31.54h-0.56c0,0.32-0.13,0.6-0.34,0.81c-0.21,0.21-0.51,0.34-0.83,0.34c-0.33,0-0.62-0.13-0.83-0.34
				c-0.21-0.21-0.34-0.49-0.34-0.81c0-0.32,0.13-0.6,0.34-0.81c0.21-0.21,0.51-0.34,0.83-0.34c0.33,0,0.62,0.13,0.83,0.34
				c0.21,0.21,0.34,0.49,0.34,0.81H64.28h0.56c0-0.62-0.26-1.18-0.67-1.58c-0.41-0.4-0.99-0.66-1.63-0.66
				c-0.63,0-1.21,0.25-1.63,0.66c-0.42,0.4-0.67,0.97-0.67,1.58c0,0.62,0.26,1.18,0.67,1.58c0.41,0.4,0.99,0.66,1.63,0.66
				c0.63,0,1.21-0.25,1.63-0.66c0.42-0.4,0.67-0.97,0.67-1.58H64.28z"/>
			<path class="st5" d="M67.32,15.29c0,0.94-0.78,1.69-1.74,1.69c-0.96,0-1.74-0.76-1.74-1.69c0-0.94,0.78-1.69,1.74-1.69
				C66.55,13.6,67.32,14.35,67.32,15.29z"/>
			<path class="st6" d="M67.32,15.29h-0.56c0,0.32-0.13,0.6-0.34,0.81c-0.21,0.21-0.51,0.34-0.83,0.34c-0.33,0-0.62-0.13-0.83-0.34
				c-0.21-0.21-0.34-0.49-0.34-0.81c0-0.32,0.13-0.6,0.34-0.81c0.21-0.21,0.51-0.34,0.83-0.34c0.33,0,0.62,0.13,0.83,0.34
				c0.21,0.21,0.34,0.49,0.34,0.81H67.32h0.56c0-0.62-0.26-1.18-0.67-1.58c-0.41-0.4-0.99-0.66-1.63-0.66
				c-0.63,0-1.21,0.25-1.63,0.66c-0.42,0.4-0.67,0.97-0.67,1.58c0,0.62,0.26,1.18,0.67,1.58c0.41,0.4,0.99,0.66,1.63,0.66
				c0.63,0,1.21-0.25,1.63-0.66c0.42-0.4,0.67-0.97,0.67-1.58H67.32z"/>
			<path class="st5" d="M59.06,24.94c0,0.94-0.78,1.69-1.74,1.69c-0.96,0-1.74-0.76-1.74-1.69c0-0.94,0.78-1.69,1.74-1.69
				C58.29,23.25,59.06,24,59.06,24.94z"/>
			<path class="st6" d="M59.06,24.94H58.5c0,0.32-0.13,0.6-0.34,0.81c-0.21,0.21-0.51,0.34-0.83,0.34c-0.33,0-0.62-0.13-0.83-0.34
				c-0.21-0.21-0.34-0.49-0.34-0.81c0-0.32,0.13-0.6,0.34-0.81c0.21-0.21,0.51-0.34,0.83-0.34c0.33,0,0.62,0.13,0.83,0.34
				c0.21,0.21,0.34,0.49,0.34,0.81H59.06h0.56c0-0.62-0.26-1.18-0.67-1.58c-0.41-0.4-0.99-0.66-1.63-0.66
				c-0.63,0-1.21,0.25-1.63,0.66c-0.42,0.4-0.67,0.97-0.67,1.58c0,0.62,0.26,1.18,0.67,1.58c0.41,0.4,0.99,0.66,1.63,0.66
				c0.63,0,1.21-0.25,1.63-0.66c0.42-0.4,0.67-0.97,0.67-1.58H59.06z"/>
			<ellipse class="st5" cx="40.11" cy="29.85" rx="1.74" ry="1.69"/>
			<path class="st6" d="M41.85,29.85h-0.56c0,0.32-0.13,0.6-0.34,0.81C40.73,30.87,40.44,31,40.11,31c-0.33,0-0.62-0.13-0.83-0.34
				c-0.21-0.21-0.34-0.49-0.34-0.81c0-0.32,0.13-0.6,0.34-0.81c0.21-0.21,0.51-0.34,0.83-0.34c0.33,0,0.62,0.13,0.83,0.34
				c0.21,0.21,0.34,0.49,0.34,0.81H41.85h0.56c0-0.62-0.26-1.18-0.67-1.58c-0.41-0.4-0.99-0.66-1.63-0.66
				c-0.63,0-1.21,0.25-1.63,0.66c-0.42,0.4-0.67,0.97-0.67,1.58c0,0.62,0.26,1.18,0.67,1.58c0.41,0.4,0.99,0.66,1.63,0.66
				c0.63,0,1.21-0.25,1.63-0.66c0.42-0.4,0.67-0.97,0.67-1.58H41.85z"/>
			<path class="st5" d="M47.94,33.74c0,0.94-0.78,1.69-1.74,1.69s-1.74-0.76-1.74-1.69c0-0.94,0.78-1.69,1.74-1.69
				S47.94,32.81,47.94,33.74z"/>
			<path class="st6" d="M47.94,33.74h-0.56c0,0.32-0.13,0.6-0.34,0.81c-0.21,0.21-0.51,0.34-0.83,0.34c-0.33,0-0.62-0.13-0.83-0.34
				c-0.21-0.21-0.34-0.49-0.34-0.81c0-0.32,0.13-0.6,0.34-0.81c0.21-0.21,0.51-0.34,0.83-0.34c0.33,0,0.62,0.13,0.83,0.34
				c0.21,0.21,0.34,0.49,0.34,0.81H47.94h0.56c0-0.62-0.26-1.18-0.67-1.58c-0.41-0.4-0.99-0.66-1.63-0.66
				c-0.63,0-1.21,0.25-1.63,0.66c-0.42,0.4-0.67,0.97-0.67,1.58c0,0.62,0.26,1.18,0.67,1.58c0.41,0.4,0.99,0.66,1.63,0.66
				c0.63,0,1.21-0.25,1.63-0.66c0.42-0.4,0.67-0.97,0.67-1.58H47.94z"/>
			<path class="st5" d="M28.81,32.05c0,0.94-0.78,1.69-1.74,1.69c-0.96,0-1.74-0.76-1.74-1.69c0-0.94,0.78-1.69,1.74-1.69
				C28.03,30.36,28.81,31.12,28.81,32.05z"/>
			<path class="st6" d="M28.81,32.05h-0.56c0,0.32-0.13,0.6-0.34,0.81c-0.21,0.21-0.51,0.34-0.83,0.34c-0.33,0-0.62-0.13-0.83-0.34
				c-0.21-0.21-0.34-0.49-0.34-0.81c0-0.32,0.13-0.6,0.34-0.81c0.21-0.21,0.51-0.34,0.83-0.34c0.33,0,0.62,0.13,0.83,0.34
				c0.21,0.21,0.34,0.49,0.34,0.81H28.81h0.56c0-0.62-0.26-1.18-0.67-1.58c-0.41-0.4-0.99-0.66-1.63-0.66
				c-0.63,0-1.21,0.25-1.63,0.66c-0.42,0.4-0.67,0.97-0.67,1.58c0,0.62,0.26,1.18,0.67,1.58c0.41,0.4,0.99,0.66,1.63,0.66
				c0.63,0,1.21-0.25,1.63-0.66c0.42-0.4,0.67-0.97,0.67-1.58H28.81z"/>
			<path class="st5" d="M50.11,43.23c0,0.94-0.78,1.69-1.74,1.69c-0.96,0-1.74-0.76-1.74-1.69c0-0.94,0.78-1.69,1.74-1.69
				C49.33,41.53,50.11,42.29,50.11,43.23z"/>
			<path class="st6" d="M50.11,43.23h-0.56c0,0.32-0.13,0.6-0.34,0.81c-0.21,0.21-0.51,0.34-0.83,0.34c-0.33,0-0.62-0.13-0.83-0.34
				c-0.21-0.21-0.34-0.49-0.34-0.81c0-0.32,0.13-0.6,0.34-0.81c0.21-0.21,0.51-0.34,0.83-0.34c0.33,0,0.62,0.13,0.83,0.34
				c0.21,0.21,0.34,0.49,0.34,0.81H50.11h0.56c0-0.62-0.26-1.18-0.67-1.58c-0.41-0.4-0.99-0.66-1.63-0.66
				c-0.63,0-1.21,0.25-1.63,0.66c-0.42,0.4-0.67,0.97-0.67,1.58c0,0.62,0.26,1.18,0.67,1.58c0.41,0.4,0.99,0.66,1.63,0.66
				c0.63,0,1.21-0.25,1.63-0.66c0.42-0.4,0.67-0.97,0.67-1.58H50.11z"/>
			<path class="st5" d="M82.04,58.95c0,0.94,0.78,1.69,1.74,1.69s1.74-0.76,1.74-1.69c0-0.94-0.78-1.69-1.74-1.69
				S82.04,58.02,82.04,58.95z"/>
			<path class="st6" d="M82.04,58.95h-0.56c0,0.62,0.26,1.18,0.67,1.58c0.41,0.4,0.99,0.66,1.63,0.66c0.63,0,1.21-0.25,1.63-0.66
				c0.42-0.4,0.67-0.97,0.67-1.58c0-0.62-0.26-1.18-0.67-1.58c-0.41-0.4-0.99-0.66-1.63-0.66c-0.63,0-1.21,0.25-1.63,0.66
				c-0.42,0.4-0.67,0.97-0.67,1.58H82.04h0.56c0-0.32,0.13-0.6,0.34-0.81c0.21-0.21,0.51-0.34,0.83-0.34c0.33,0,0.62,0.13,0.83,0.34
				c0.21,0.21,0.34,0.49,0.34,0.81c0,0.32-0.13,0.6-0.34,0.81c-0.21,0.21-0.51,0.34-0.83,0.34c-0.33,0-0.62-0.13-0.83-0.34
				c-0.21-0.21-0.34-0.49-0.34-0.81H82.04z"/>
			<path class="st5" d="M85.76,41.53c0,0.94,0.78,1.69,1.74,1.69c0.96,0,1.74-0.76,1.74-1.69c0-0.94-0.78-1.69-1.74-1.69
				C86.53,39.84,85.76,40.6,85.76,41.53z"/>
			<path class="st6" d="M85.76,41.53h-0.56c0,0.62,0.26,1.18,0.67,1.58c0.41,0.4,0.99,0.66,1.63,0.66c0.63,0,1.21-0.25,1.63-0.66
				c0.42-0.4,0.67-0.97,0.67-1.58c0-0.62-0.26-1.18-0.67-1.58c-0.41-0.4-0.99-0.66-1.63-0.66c-0.63,0-1.21,0.25-1.63,0.66
				c-0.42,0.4-0.67,0.97-0.67,1.58H85.76h0.56c0-0.32,0.13-0.6,0.34-0.81c0.21-0.21,0.51-0.34,0.83-0.34c0.33,0,0.62,0.13,0.83,0.34
				c0.21,0.21,0.34,0.49,0.34,0.81c0,0.32-0.13,0.6-0.34,0.81c-0.21,0.21-0.51,0.34-0.83,0.34c-0.33,0-0.62-0.13-0.83-0.34
				c-0.21-0.21-0.34-0.49-0.34-0.81H85.76z"/>
			<path class="st5" d="M87.29,49.42c0,0.94,0.78,1.69,1.74,1.69c0.96,0,1.74-0.76,1.74-1.69c0-0.94-0.78-1.69-1.74-1.69
				C88.07,47.73,87.29,48.48,87.29,49.42z"/>
			<path class="st6" d="M87.29,49.42h-0.56c0,0.62,0.26,1.18,0.67,1.58c0.41,0.4,0.99,0.66,1.63,0.66c0.63,0,1.21-0.25,1.63-0.66
				c0.42-0.4,0.67-0.97,0.67-1.58c0-0.62-0.26-1.18-0.67-1.58c-0.41-0.4-0.99-0.66-1.63-0.66c-0.63,0-1.21,0.25-1.63,0.66
				c-0.42,0.4-0.67,0.97-0.67,1.58H87.29h0.56c0-0.32,0.13-0.6,0.34-0.81c0.21-0.21,0.51-0.34,0.83-0.34c0.33,0,0.62,0.13,0.83,0.34
				c0.21,0.21,0.34,0.49,0.34,0.81c0,0.32-0.13,0.6-0.34,0.81c-0.21,0.21-0.51,0.34-0.83,0.34c-0.33,0-0.62-0.13-0.83-0.34
				c-0.21-0.21-0.34-0.49-0.34-0.81H87.29z"/>
			<path class="st5" d="M74.54,59.73c0,0.94,0.78,1.69,1.74,1.69c0.96,0,1.74-0.76,1.74-1.69c0-0.94-0.78-1.69-1.74-1.69
				C75.32,58.04,74.54,58.8,74.54,59.73z"/>
			<path class="st6" d="M74.54,59.73h-0.56c0,0.62,0.26,1.18,0.67,1.58c0.41,0.4,0.99,0.66,1.63,0.66c0.63,0,1.21-0.25,1.63-0.66
				c0.42-0.4,0.67-0.97,0.67-1.58c0-0.62-0.26-1.18-0.67-1.58c-0.41-0.4-0.99-0.66-1.63-0.66c-0.63,0-1.21,0.25-1.63,0.66
				c-0.42,0.4-0.67,0.97-0.67,1.58H74.54h0.56c0-0.32,0.13-0.6,0.34-0.81c0.21-0.21,0.51-0.34,0.83-0.34c0.33,0,0.62,0.13,0.83,0.34
				c0.21,0.21,0.34,0.49,0.34,0.81c0,0.32-0.13,0.6-0.34,0.81c-0.21,0.21-0.51,0.34-0.83,0.34c-0.33,0-0.62-0.13-0.83-0.34
				c-0.21-0.21-0.34-0.49-0.34-0.81H74.54z"/>
			<path class="st5" d="M80.37,28.33c0,0.94,0.78,1.69,1.74,1.69c0.96,0,1.74-0.76,1.74-1.69c0-0.94-0.78-1.69-1.74-1.69
				C81.14,26.63,80.37,27.39,80.37,28.33z"/>
			<path class="st6" d="M80.37,28.33H79.8c0,0.62,0.26,1.18,0.67,1.58c0.41,0.4,0.99,0.66,1.63,0.66c0.63,0,1.21-0.25,1.63-0.66
				c0.42-0.4,0.67-0.97,0.67-1.58c0-0.62-0.26-1.18-0.67-1.58c-0.41-0.4-0.99-0.66-1.63-0.66c-0.63,0-1.21,0.25-1.63,0.66
				c-0.42,0.4-0.67,0.97-0.67,1.58H80.37h0.56c0-0.32,0.13-0.6,0.34-0.81c0.21-0.21,0.51-0.34,0.83-0.34c0.33,0,0.62,0.13,0.83,0.34
				c0.21,0.21,0.34,0.49,0.34,0.81c0,0.32-0.13,0.6-0.34,0.81c-0.21,0.21-0.51,0.34-0.83,0.34c-0.33,0-0.62-0.13-0.83-0.34
				c-0.21-0.21-0.34-0.49-0.34-0.81H80.37z"/>
			<path class="st5" d="M72.89,16.22c0,0.94,0.78,1.69,1.74,1.69c0.96,0,1.74-0.76,1.74-1.69c0-0.94-0.78-1.69-1.74-1.69
				C73.67,14.53,72.89,15.29,72.89,16.22z"/>
			<path class="st6" d="M72.89,16.22h-0.56c0,0.62,0.26,1.18,0.67,1.58c0.41,0.4,0.99,0.66,1.63,0.66c0.63,0,1.21-0.25,1.63-0.66
				c0.42-0.4,0.67-0.97,0.67-1.58c0-0.62-0.26-1.18-0.67-1.58c-0.41-0.4-0.99-0.66-1.63-0.66c-0.63,0-1.21,0.25-1.63,0.66
				c-0.42,0.4-0.67,0.97-0.67,1.58H72.89h0.56c0-0.32,0.13-0.6,0.34-0.81c0.21-0.21,0.51-0.34,0.83-0.34c0.33,0,0.62,0.13,0.83,0.34
				c0.21,0.21,0.34,0.49,0.34,0.81c0,0.32-0.13,0.6-0.34,0.81c-0.21,0.21-0.51,0.34-0.83,0.34c-0.33,0-0.62-0.13-0.83-0.34
				c-0.21-0.21-0.34-0.49-0.34-0.81H72.89z"/>
			<path class="st5" d="M74.91,29.95c0,0.94,0.78,1.69,1.74,1.69c0.96,0,1.74-0.76,1.74-1.69c0-0.94-0.78-1.69-1.74-1.69
				C75.69,28.25,74.91,29.01,74.91,29.95z"/>
			<path class="st6" d="M74.91,29.95h-0.56c0,0.62,0.26,1.18,0.67,1.58c0.41,0.4,0.99,0.66,1.63,0.66c0.63,0,1.21-0.25,1.63-0.66
				c0.42-0.4,0.67-0.97,0.67-1.58c0-0.62-0.26-1.18-0.67-1.58c-0.41-0.4-0.99-0.66-1.63-0.66c-0.63,0-1.21,0.25-1.63,0.66
				c-0.42,0.4-0.67,0.97-0.67,1.58H74.91h0.56c0-0.32,0.13-0.6,0.34-0.81c0.21-0.21,0.51-0.34,0.83-0.34c0.33,0,0.62,0.13,0.83,0.34
				c0.21,0.21,0.34,0.49,0.34,0.81c0,0.32-0.13,0.6-0.34,0.81c-0.21,0.21-0.51,0.34-0.83,0.34c-0.33,0-0.62-0.13-0.83-0.34
				c-0.21-0.21-0.34-0.49-0.34-0.81H74.91z"/>
			<path class="st5" d="M69.05,33.98c0,0.94,0.78,1.69,1.74,1.69c0.96,0,1.74-0.76,1.74-1.69c0-0.94-0.78-1.69-1.74-1.69
				C69.83,32.29,69.05,33.04,69.05,33.98z"/>
			<path class="st6" d="M69.05,33.98h-0.56c0,0.62,0.26,1.18,0.67,1.58c0.41,0.4,0.99,0.66,1.63,0.66c0.63,0,1.21-0.25,1.63-0.66
				c0.42-0.4,0.67-0.97,0.67-1.58c0-0.62-0.26-1.18-0.67-1.58c-0.41-0.4-0.99-0.66-1.63-0.66c-0.63,0-1.21,0.25-1.63,0.66
				c-0.42,0.4-0.67,0.97-0.67,1.58H69.05h0.56c0-0.32,0.13-0.6,0.34-0.81c0.21-0.21,0.51-0.34,0.83-0.34c0.33,0,0.62,0.13,0.83,0.34
				c0.21,0.21,0.34,0.49,0.34,0.81c0,0.32-0.13,0.6-0.34,0.81c-0.21,0.21-0.51,0.34-0.83,0.34c-0.33,0-0.62-0.13-0.83-0.34
				c-0.21-0.21-0.34-0.49-0.34-0.81H69.05z"/>
			<path class="st5" d="M87.49,32.81c0,0.94,0.78,1.69,1.74,1.69c0.96,0,1.74-0.76,1.74-1.69c0-0.94-0.78-1.69-1.74-1.69
				C88.27,31.12,87.49,31.88,87.49,32.81z"/>
			<path class="st6" d="M87.49,32.81h-0.56c0,0.62,0.26,1.18,0.67,1.58c0.41,0.4,0.99,0.66,1.63,0.66c0.63,0,1.21-0.25,1.63-0.66
				c0.42-0.4,0.67-0.97,0.67-1.58c0-0.62-0.26-1.18-0.67-1.58c-0.41-0.4-0.99-0.66-1.63-0.66c-0.63,0-1.21,0.25-1.63,0.66
				c-0.42,0.4-0.67,0.97-0.67,1.58H87.49h0.56c0-0.32,0.13-0.6,0.34-0.81c0.21-0.21,0.51-0.34,0.83-0.34c0.33,0,0.62,0.13,0.83,0.34
				c0.21,0.21,0.34,0.49,0.34,0.81c0,0.32-0.13,0.6-0.34,0.81c-0.21,0.21-0.51,0.34-0.83,0.34c-0.33,0-0.62-0.13-0.83-0.34
				c-0.21-0.21-0.34-0.49-0.34-0.81H87.49z"/>
			<path class="st5" d="M66.19,43.9c0,0.94,0.78,1.69,1.74,1.69c0.96,0,1.74-0.76,1.74-1.69c0-0.94-0.78-1.69-1.74-1.69
				C66.97,42.21,66.19,42.97,66.19,43.9z"/>
			<path class="st6" d="M66.19,43.9h-0.56c0,0.62,0.26,1.18,0.67,1.58c0.41,0.4,0.99,0.66,1.63,0.66c0.63,0,1.21-0.25,1.63-0.66
				c0.42-0.4,0.67-0.97,0.67-1.58c0-0.62-0.26-1.18-0.67-1.58c-0.41-0.4-0.99-0.66-1.63-0.66c-0.63,0-1.21,0.25-1.63,0.66
				c-0.42,0.4-0.67,0.97-0.67,1.58H66.19h0.56c0-0.32,0.13-0.6,0.34-0.81c0.21-0.21,0.51-0.34,0.83-0.34c0.33,0,0.62,0.13,0.83,0.34
				c0.21,0.21,0.34,0.49,0.34,0.81c0,0.32-0.13,0.6-0.34,0.81c-0.21,0.21-0.51,0.34-0.83,0.34c-0.33,0-0.62-0.13-0.83-0.34
				c-0.21-0.21-0.34-0.49-0.34-0.81H66.19z"/>
			<polygon class="st5" points="49.07,24.94 49.07,25.12 57.35,25.12 57.35,24.76 49.07,24.76 49.07,25.12 49.07,24.94 49.07,25.12 
				57.35,25.12 57.35,24.76 49.07,24.76 49.07,25.12 			"/>
			<polygon class="st5" points="67.24,31.54 67.24,31.36 62.62,31.36 62.62,31.73 67.24,31.73 67.24,31.36 67.24,31.54 67.24,31.36 
				62.62,31.36 62.62,31.73 67.24,31.73 67.24,31.36 			"/>
			<polygon class="st5" points="44.98,83.1 44.98,56.11 37.87,49.19 36.77,50.27 43.41,56.74 43.41,83.1 			"/>
			<polygon class="st5" points="44.98,83.1 45.17,83.1 45.17,56.03 37.87,48.93 36.5,50.27 43.23,56.81 43.23,83.28 45.17,83.28 
				45.17,83.1 44.98,83.1 44.98,82.92 43.6,82.92 43.6,56.66 37.03,50.27 37.87,49.45 44.79,56.18 44.79,83.1 44.98,83.1 
				44.98,82.92 			"/>
			<polygon class="st5" points="73.5,83.1 73.5,56.74 80.14,50.27 79.04,49.19 71.93,56.11 71.93,83.1 			"/>
			<polygon class="st5" points="73.5,83.1 73.68,83.1 73.68,56.81 80.41,50.27 79.04,48.93 71.74,56.03 71.74,83.28 73.68,83.28 
				73.68,83.1 73.5,83.1 73.5,82.92 72.12,82.92 72.12,56.18 79.04,49.45 79.88,50.27 73.31,56.66 73.31,83.1 73.5,83.1 73.5,82.92 
							"/>
			<polyline class="st5" points="68.71,43.56 68.71,40.01 67.15,40.01 67.15,43.56 			"/>
			<polygon class="st5" points="68.9,43.56 68.9,39.83 66.96,39.83 66.96,43.56 67.34,43.56 67.34,40.19 68.53,40.19 68.53,43.56 
				68.9,43.56 			"/>
			<polygon class="st5" points="76.04,29.89 76.37,43.81 82.77,37.58 83.29,37.07 82.18,36 76.56,41.47 67.76,50.04 67.76,83.1 
				69.32,83.1 69.32,50.67 77.67,42.55 83.29,37.07 82.18,36 81.66,36.5 77.85,40.21 77.6,29.86 76.04,29.89 			"/>
			<polygon class="st5" points="76.04,29.89 75.85,29.9 76.2,44.24 82.9,37.71 83.55,37.07 82.18,35.74 76.43,41.34 67.57,49.97 
				67.57,83.28 69.51,83.28 69.51,50.75 77.8,42.68 83.55,37.07 82.18,35.74 81.53,36.37 78.03,39.78 77.79,29.67 76.03,29.71 
				76.04,29.89 76.23,29.89 76.23,29.89 76.04,29.89 75.85,29.9 76.04,29.89 75.85,29.89 75.85,29.89 75.85,30.08 77.42,30.04 
				77.68,40.64 81.8,36.63 82.18,36.26 83.02,37.07 77.53,42.42 69.14,50.6 69.14,82.92 67.95,82.92 67.95,50.12 76.69,41.6 
				82.18,36.26 83.02,37.07 82.64,37.45 76.55,43.38 76.23,29.89 75.85,29.89 			"/>
			<polygon class="st5" points="81.38,27.86 80.78,39.33 89.68,33.5 88.81,32.24 82.5,36.36 82.94,27.94 			"/>
			<polygon class="st5" points="81.38,27.86 81.19,27.85 80.57,39.68 89.94,33.55 88.86,31.99 82.71,36.01 83.14,27.76 81.2,27.67 
				81.19,27.85 81.38,27.86 81.37,28.04 82.74,28.11 82.3,36.72 88.76,32.49 89.42,33.45 80.99,38.97 81.57,27.87 81.38,27.86 
				81.37,28.04 			"/>
			<polyline class="st5" points="75.48,60.08 77.77,64.9 79.19,64.26 76.9,59.44 			"/>
			<polygon class="st5" points="75.31,60.15 77.67,65.14 79.43,64.35 77.07,59.36 76.73,59.52 78.94,64.17 77.86,64.66 75.65,60 
				75.31,60.15 			"/>
			<polyline class="st5" points="79.17,50.48 89.43,50.12 89.38,48.59 79.11,48.96 			"/>
			<polygon class="st5" points="79.17,50.66 89.63,50.29 89.56,48.4 79.1,48.78 79.12,49.14 89.2,48.78 89.24,49.94 79.16,50.3 
				79.17,50.66 			"/>
			<polygon class="st5" points="83.88,49.68 84.6,49.98 88.24,41.81 86.81,41.2 83.16,49.38 84.6,49.98 83.88,49.68 84.6,49.98 
				88.24,41.81 86.81,41.2 83.16,49.38 84.6,49.98 			"/>
			<polygon class="st5" points="83.88,49.68 83.81,49.85 84.7,50.22 88.49,41.72 86.71,40.96 82.92,49.47 84.52,50.15 84.67,49.82 
				83.96,49.51 83.81,49.85 84.7,50.22 88.49,41.72 86.71,40.96 82.92,49.47 84.52,50.15 84.67,49.82 83.96,49.51 83.81,49.85 
				83.88,49.68 83.81,49.85 84.52,50.15 84.67,49.82 83.41,49.28 86.91,41.44 88,41.91 84.5,49.74 83.96,49.51 83.81,49.85 
				84.52,50.15 84.67,49.82 83.41,49.28 86.91,41.44 88,41.91 84.5,49.74 83.96,49.51 83.81,49.85 			"/>
			<polygon class="st5" points="67.24,31.54 67.24,30.78 62.62,30.78 62.62,32.3 67.24,32.3 67.24,30.78 67.24,31.54 67.24,30.78 
				62.62,30.78 62.62,32.3 67.24,32.3 67.24,30.78 			"/>
			<polygon class="st5" points="67.24,31.54 67.42,31.54 67.42,30.6 62.43,30.6 62.43,32.49 67.42,32.49 67.42,30.78 67.05,30.78 
				67.05,31.54 67.42,31.54 67.42,30.6 62.43,30.6 62.43,32.49 67.42,32.49 67.42,30.78 67.05,30.78 67.05,31.54 67.42,31.54 
				67.24,31.54 67.42,31.54 67.42,30.78 67.05,30.78 67.05,32.12 62.81,32.12 62.81,30.96 67.05,30.96 67.05,31.54 67.42,31.54 
				67.42,30.78 67.05,30.78 67.05,32.12 62.81,32.12 62.81,30.96 67.05,30.96 67.05,31.54 67.42,31.54 			"/>
			<polygon class="st5" points="74.66,23.62 66.37,23.22 66.37,15.29 64.8,15.29 64.8,24.67 74.58,25.14 			"/>
			<polygon class="st5" points="74.66,23.62 74.66,23.44 66.55,23.05 66.55,15.11 64.62,15.11 64.62,24.84 74.76,25.33 74.85,23.45 
				74.66,23.44 74.66,23.62 74.47,23.61 74.4,24.95 64.99,24.5 64.99,15.47 66.18,15.47 66.18,23.39 74.65,23.8 74.66,23.62 
				74.47,23.61 			"/>
			<polygon class="st5" points="49.85,30.95 49.85,22.23 54.73,17.47 53.63,16.4 48.28,21.6 48.28,30.95 49.85,30.95 			"/>
			<polygon class="st5" points="49.85,30.95 50.04,30.95 50.04,22.31 55,17.47 53.63,16.14 48.1,21.52 48.1,31.13 49.85,31.13 
				49.85,30.77 49.85,30.77 49.85,30.95 50.04,30.95 49.85,30.95 49.85,31.13 49.85,31.13 49.85,30.77 48.47,30.77 48.47,21.67 
				53.63,16.65 54.47,17.47 49.66,22.15 49.66,31.13 49.85,31.13 			"/>
			<polygon class="st5" points="57.41,83.18 57.41,37.98 43.07,24.01 43.07,16.14 41.5,16.14 41.5,24.64 55.85,38.61 55.85,83.18 
							"/>
			<polygon class="st5" points="57.41,83.18 57.6,83.18 57.6,37.91 43.25,23.94 43.25,15.95 41.31,15.95 41.31,24.72 55.66,38.69 
				55.66,83.37 57.6,83.37 57.6,83.18 57.41,83.18 57.41,83 56.03,83 56.03,38.54 41.69,24.57 41.69,16.32 42.88,16.32 42.88,24.09 
				57.23,38.06 57.23,83.18 57.41,83.18 57.41,83 			"/>
			<polygon class="st5" points="54.81,36.4 63.41,25.68 63.41,9.02 61.85,9.02 61.85,25.16 53.57,35.47 			"/>
			<polygon class="st5" points="54.81,36.4 54.95,36.52 63.6,25.74 63.6,8.84 61.66,8.84 61.66,25.09 53.31,35.5 54.84,36.66 
				54.95,36.52 54.81,36.4 54.92,36.26 53.84,35.44 62.03,25.22 62.03,9.21 63.22,9.21 63.22,25.62 54.66,36.29 54.81,36.4 
				54.92,36.26 			"/>
			<polygon class="st5" points="61.06,83.18 61.06,38.61 75.41,24.64 75.41,16.14 73.84,16.14 73.84,24.01 59.5,37.98 59.5,83.18 
							"/>
			<polygon class="st5" points="61.06,83.18 61.25,83.18 61.25,38.69 75.6,24.72 75.6,15.95 73.66,15.95 73.66,23.94 59.31,37.91 
				59.31,83.37 61.25,83.37 61.25,83.18 61.06,83.18 61.06,83 59.69,83 59.69,38.06 74.03,24.09 74.03,16.32 75.22,16.32 
				75.22,24.57 60.88,38.54 60.88,83.18 61.06,83.18 61.06,83 			"/>
			<polygon class="st5" points="77.58,83.1 77.58,66.57 79.95,64.02 84.46,59.15 83.3,58.13 78.79,63 76.02,65.98 76.02,83.1 			"/>
			<polygon class="st5" points="77.58,83.1 77.77,83.1 77.77,66.64 80.09,64.14 84.73,59.14 83.29,57.87 78.65,62.87 75.83,65.91 
				75.83,83.28 77.77,83.28 77.77,83.1 77.58,83.1 77.58,82.92 76.21,82.92 76.21,66.05 78.93,63.12 83.31,58.39 84.2,59.16 
				79.81,63.9 77.4,66.5 77.4,83.1 77.58,83.1 77.58,82.92 			"/>
			<polygon class="st5" points="53.24,83.1 53.24,43.03 49.59,39.47 46.45,36.41 46.92,33.71 45.37,33.45 44.77,36.93 48.48,40.55 
				51.67,43.66 51.67,83.1 			"/>
			<polygon class="st5" points="53.24,83.1 53.43,83.1 53.43,42.95 49.72,39.34 46.65,36.35 47.13,33.56 45.22,33.24 44.57,37 
				48.35,40.68 51.49,43.73 51.49,83.28 53.43,83.28 53.43,83.1 53.24,83.1 53.24,82.92 51.86,82.92 51.86,43.58 48.61,40.42 
				44.97,36.87 45.53,33.66 46.7,33.86 46.25,36.48 49.45,39.6 53.05,43.1 53.05,83.1 53.24,83.1 53.24,82.92 			"/>
			<polyline class="st5" points="49.15,42.89 49.15,39.33 47.59,39.33 47.59,42.89 			"/>
			<polygon class="st5" points="49.34,42.89 49.34,39.15 47.4,39.15 47.4,42.89 47.77,42.89 47.77,39.51 48.97,39.51 48.97,42.89 
				49.34,42.89 			"/>
			<path class="st5" d="M49.15,50.04l-8.56-8.34l0.28-11.81l-1.38-0.03c-0.06,0.04-0.13,0.07-0.19,0.1l-0.25,10.25l-3.81-3.71
				l-0.46-0.44L34.73,36v0l-1.11,1.08l4.25,4.14l2.66,2.59v0l7.05,6.86V83.1h1.57L49.15,50.04z"/>
			<path class="st5" d="M49.15,50.04l0.13-0.13l-8.51-8.28l0.29-11.91l-1.62-0.04L39.4,29.7c-0.06,0.03-0.12,0.07-0.19,0.1
				l-0.09,0.05l-0.24,9.93l-3.5-3.41l-0.46-0.44l-0.06-0.06L34.73,36h0.19v0v-0.44l-1.56,1.52l4.39,4.27l2.98,2.9v0l6.68,6.5v32.53
				h1.94l0-33.31l-0.05-0.05L49.15,50.04h-0.19l0,32.87h-1.19V50.6l-7.42-7.23v0l-2.34-2.28l-4.12-4.01l0.97-0.95L34.73,36h-0.19v0
				v0.08l0.12,0.12l0.46,0.44l4.12,4.01l0.26-10.67l-0.19,0l0.09,0.16c0.06-0.03,0.13-0.07,0.19-0.11l-0.09-0.16l0,0.18l1.19,0.03
				L40.4,41.78l8.62,8.39L49.15,50.04h-0.19H49.15z"/>
			<polygon class="st5" points="33.37,27.13 33.81,35.56 27.5,31.44 26.63,32.7 35.54,38.52 34.94,27.06 33.37,27.13 			"/>
			<polygon class="st5" points="33.37,27.13 33.19,27.14 33.61,35.21 27.45,31.18 26.37,32.75 35.74,38.88 35.11,26.87 33.36,26.95 
				33.37,27.13 33.56,27.13 33.56,27.13 33.37,27.13 33.19,27.14 33.37,27.13 33.19,27.13 33.19,27.13 33.19,27.33 34.76,27.25 
				35.33,38.17 26.89,32.65 27.55,31.69 34.02,35.92 33.56,27.12 33.19,27.13 			"/>
			<polyline class="st5" points="37.79,49 27.52,48.64 27.47,50.16 37.73,50.53 			"/>
			<polygon class="st5" points="37.8,48.82 27.34,48.45 27.27,50.34 37.73,50.71 37.74,50.34 27.66,49.99 27.7,48.83 37.78,49.19 
				37.8,48.82 			"/>
			<polygon class="st5" points="32.43,49.73 33.15,49.42 29.51,41.25 28.07,41.86 31.72,50.03 33.15,49.42 32.43,49.73 33.15,49.42 
				29.51,41.25 28.07,41.86 31.72,50.03 33.15,49.42 			"/>
			<polygon class="st5" points="32.43,49.73 32.51,49.89 33.4,49.52 29.6,41.01 27.83,41.76 31.62,50.27 33.23,49.59 33.08,49.26 
				32.36,49.56 32.51,49.89 33.4,49.52 29.6,41.01 27.83,41.76 31.62,50.27 33.23,49.59 33.08,49.26 32.36,49.56 32.51,49.89 
				32.43,49.73 32.51,49.89 33.23,49.59 33.08,49.26 31.81,49.79 28.32,41.95 29.41,41.49 32.91,49.33 32.36,49.56 32.51,49.89 
				33.23,49.59 33.08,49.26 31.81,49.79 28.32,41.95 29.41,41.49 32.91,49.33 32.36,49.56 32.51,49.89 			"/>
			<polyline class="st5" points="39.41,58.73 37.13,63.55 38.55,64.19 40.84,59.37 			"/>
			<polygon class="st5" points="39.24,58.65 36.88,63.64 38.64,64.43 41.01,59.44 40.67,59.29 38.46,63.95 37.38,63.46 39.58,58.8 
				39.24,58.65 			"/>
			<polygon class="st5" points="40.89,83.1 40.89,65.98 38.12,63 33.61,58.13 32.45,59.15 36.96,64.02 39.33,66.57 39.33,83.1 			
				"/>
			<polygon class="st5" points="40.89,83.1 41.08,83.1 41.08,65.91 38.26,62.87 33.62,57.87 32.18,59.14 36.82,64.14 39.14,66.64 
				39.14,83.28 41.08,83.28 41.08,83.1 40.89,83.1 40.89,82.92 39.52,82.92 39.52,66.5 37.1,63.9 32.71,59.16 33.6,58.39 
				37.98,63.12 40.71,66.05 40.71,83.1 40.89,83.1 40.89,82.92 			"/>
			<polygon class="st5" points="49.07,24.94 49.07,25.7 57.35,25.7 57.35,24.18 49.07,24.18 49.07,25.7 49.07,24.94 49.07,25.7 
				57.35,25.7 57.35,24.18 49.07,24.18 49.07,25.7 			"/>
			<polygon class="st5" points="49.07,24.94 48.88,24.94 48.88,25.88 57.54,25.88 57.54,24 48.88,24 48.88,25.7 49.25,25.7 
				49.25,24.94 48.88,24.94 48.88,25.88 57.54,25.88 57.54,24 48.88,24 48.88,25.7 49.25,25.7 49.25,24.94 48.88,24.94 49.07,24.94 
				48.88,24.94 48.88,25.7 49.25,25.7 49.25,24.36 57.16,24.36 57.16,25.52 49.25,25.52 49.25,24.94 48.88,24.94 48.88,25.7 
				49.25,25.7 49.25,24.36 57.16,24.36 57.16,25.52 49.25,25.52 49.25,24.94 48.88,24.94 			"/>
			<polygon class="st5" points="65.24,83.1 65.24,43.66 68.43,40.55 72.14,36.93 71.54,33.45 69.99,33.71 70.46,36.41 67.33,39.47 
				63.67,43.03 63.67,83.1 			"/>
			<polygon class="st5" points="65.24,83.1 65.42,83.1 65.42,43.73 68.56,40.68 72.34,37 71.69,33.24 69.78,33.56 70.26,36.35 
				67.19,39.34 63.49,42.95 63.49,83.28 65.42,83.28 65.42,83.1 65.24,83.1 65.24,82.92 63.86,82.92 63.86,43.1 67.46,39.6 
				70.66,36.48 70.21,33.86 71.38,33.66 71.94,36.87 68.3,40.42 65.05,43.58 65.05,83.1 65.24,83.1 65.24,82.92 			"/>
			<path class="st7" d="M71.15,89.23H45.16c-0.56,0-1.01-0.45-1.01-1.01v-1.99c0-0.56,0.45-1.01,1.01-1.01h25.99
				c0.56,0,1.01,0.45,1.01,1.01v1.99C72.16,88.78,71.71,89.23,71.15,89.23z"/>
			<path class="st8" d="M69.55,93.95h-22.8c-0.56,0-1.01-0.45-1.01-1.01v-1.99c0-0.56,0.45-1.01,1.01-1.01h22.8
				c0.56,0,1.01,0.45,1.01,1.01v1.99C70.56,93.5,70.11,93.95,69.55,93.95z"/>
			<path class="st9" d="M68.01,98.67H48.29c-0.56,0-1.01-0.45-1.01-1.01v-1.99c0-0.56,0.45-1.01,1.01-1.01h19.72
				c0.56,0,1.01,0.45,1.01,1.01v1.99C69.02,98.21,68.57,98.67,68.01,98.67z"/>
			<path class="st10" d="M64.5,103.39H51.8c-0.56,0-1.01-0.45-1.01-1.01v-1.99c0-0.56,0.45-1.01,1.01-1.01h12.7
				c0.56,0,1.01,0.45,1.01,1.01v1.99C65.51,102.93,65.06,103.39,64.5,103.39z"/>
		</g>
	</g>
</g>
<g>
	<path class="st6" d="M153.1,57.21c1.47,0.49,2.82,0.99,4.04,1.5c1.23,0.51,2.29,1.13,3.21,1.84c0.91,0.71,1.63,1.57,2.14,2.57
		c0.51,1,0.77,2.2,0.77,3.58v0.07c0,3.39-1.13,6.04-3.38,7.96c-2.25,1.92-5.4,2.87-9.46,2.87c-2.54,0-5.04-0.44-7.49-1.31
		c-2.45-0.88-4.75-2.12-6.89-3.74l-0.07-0.07l0.07-0.07l4.55-7.18l0.07,0.07c1.34,1.43,2.85,2.51,4.55,3.24
		c1.69,0.74,3.5,1.1,5.42,1.1c2.63,0,3.94-0.84,3.94-2.53c0-0.8-0.42-1.4-1.27-1.8c-0.85-0.4-1.85-0.78-3.01-1.13
		c-0.22-0.09-0.43-0.14-0.64-0.17c-0.2-0.02-0.41-0.08-0.64-0.17c-1.34-0.36-2.67-0.74-4.01-1.17c-1.34-0.42-2.54-1-3.61-1.73
		c-1.07-0.73-1.95-1.67-2.64-2.8c-0.69-1.13-1.04-2.59-1.04-4.37v-0.13c0-1.56,0.29-2.98,0.87-4.27c0.58-1.29,1.4-2.4,2.47-3.33
		c1.07-0.93,2.36-1.66,3.88-2.17c1.51-0.51,3.19-0.77,5.01-0.77c2.14,0,4.3,0.32,6.48,0.97c2.18,0.65,4.21,1.59,6.08,2.84v0.13
		l-4.08,7.42l-0.07-0.07c-1.03-1.02-2.3-1.84-3.81-2.44c-1.52-0.6-3.12-0.9-4.81-0.9c-0.31,0-0.67,0.02-1.07,0.07
		c-0.4,0.04-0.77,0.16-1.1,0.33c-0.33,0.18-0.61,0.41-0.84,0.7c-0.22,0.29-0.33,0.7-0.33,1.24c0,0.4,0.18,0.77,0.53,1.1
		c0.36,0.33,0.81,0.65,1.37,0.94c0.56,0.29,1.18,0.57,1.87,0.84c0.69,0.27,1.37,0.51,2.04,0.74c0.13,0,0.28,0.02,0.43,0.07
		C152.82,57.12,152.97,57.17,153.1,57.21z"/>
	<path class="st6" d="M183.32,43.11c2.36,0,4.59,0.46,6.69,1.37c2.09,0.91,3.92,2.15,5.48,3.71c1.56,1.56,2.8,3.39,3.71,5.48
		c0.91,2.1,1.37,4.35,1.37,6.75c0,1.29-0.13,2.54-0.4,3.74l-0.07,0.13h-16.98l-4.28-6.82h12.7c-0.62-1.87-1.66-3.41-3.11-4.61
		c-1.45-1.2-3.15-1.81-5.11-1.81c-1.2,0-2.34,0.24-3.41,0.73c-1.07,0.49-2,1.14-2.77,1.96c-0.78,0.82-1.39,1.8-1.84,2.93
		c-0.45,1.13-0.67,2.36-0.67,3.7c0,1.02,0.2,2.08,0.6,3.16c0.4,1.09,0.98,2.08,1.74,2.96c0.76,0.89,1.67,1.63,2.74,2.23
		c1.07,0.6,2.27,0.9,3.61,0.9c1.2,0,2.31-0.17,3.31-0.5c1-0.33,1.95-1.08,2.84-2.24l0.07-0.07l0.13,0.07l7.75,3.41l-0.13,0.14
		c-1.6,2.25-3.64,4-6.12,5.26c-2.47,1.26-5.09,1.89-7.86,1.89c-2.41,0-4.67-0.45-6.79-1.34c-2.12-0.89-3.96-2.12-5.52-3.68
		c-1.56-1.56-2.8-3.39-3.71-5.48c-0.91-2.09-1.37-4.32-1.37-6.69c0-2.41,0.46-4.66,1.37-6.75c0.91-2.09,2.15-3.92,3.71-5.48
		c1.56-1.56,3.4-2.8,5.52-3.71C178.65,43.57,180.91,43.11,183.32,43.11z"/>
	<path class="st6" d="M203.91,43.64h8.89v33.43h-8.89V43.64z M240.14,43.11c2.09,0,3.87,0.41,5.31,1.24
		c1.45,0.83,2.62,1.91,3.51,3.24c0.89,1.34,1.54,2.84,1.94,4.51s0.6,3.35,0.6,5.05v19.92h-8.89l0.07-19.98
		c0-0.71-0.13-1.38-0.4-2.01c-0.27-0.63-0.64-1.18-1.1-1.68c-0.47-0.49-1.03-0.88-1.67-1.17c-0.65-0.29-1.33-0.44-2.04-0.44
		c-1.47,0-2.72,0.53-3.74,1.58c-1.03,1.05-1.54,2.29-1.54,3.72v19.98h-8.89V57.09c0-0.71-0.13-1.38-0.4-2.01
		c-0.27-0.63-0.65-1.18-1.14-1.68c-0.49-0.49-1.06-0.87-1.7-1.14c-0.65-0.27-1.37-0.4-2.17-0.4c-0.04,0-0.25-0.33-0.6-0.99
		c-0.36-0.66-0.76-1.39-1.2-2.19c-0.49-0.93-1.09-1.99-1.8-3.18l0.07-0.13c1.92-1.5,4.03-2.26,6.35-2.26c2.5,0,4.52,0.55,6.08,1.66
		c1.56,1.11,2.76,2.48,3.61,4.11c0.18-0.31,0.36-0.57,0.53-0.8c1.25-1.64,2.66-2.87,4.25-3.71
		C236.75,43.53,238.41,43.11,240.14,43.11z"/>
	<path class="st6" d="M255.52,30.27h8.89v7.82h-8.89V30.27z M255.52,77.07V43.64h8.89v33.43H255.52z"/>
	<path class="st3" d="M304.32,43.64v33.43h-8.76V60.31c0-1.3-0.25-2.5-0.74-3.62c-0.49-1.12-1.17-2.1-2.04-2.95
		c-0.87-0.85-1.87-1.51-3.01-1.98c-1.14-0.47-2.33-0.7-3.58-0.7c-1.29,0-2.5,0.25-3.61,0.74c-1.11,0.49-2.11,1.15-2.97,1.98
		c-0.87,0.83-1.55,1.81-2.04,2.95c-0.49,1.14-0.74,2.36-0.74,3.66c0,1.25,0.24,2.44,0.74,3.56c0.49,1.12,1.17,2.1,2.04,2.95
		c0.87,0.85,1.86,1.52,2.97,2.01c1.11,0.49,2.32,0.74,3.61,0.74c1.38,0,2.56-0.24,3.54-0.74h0.07v0.13l3.34,5.95l-0.07,0.07
		c-2.18,1.69-4.88,2.54-8.09,2.54c-2.36,0-4.59-0.45-6.69-1.34c-2.1-0.89-3.92-2.12-5.48-3.68c-1.56-1.56-2.8-3.39-3.71-5.48
		c-0.91-2.09-1.37-4.32-1.37-6.69c0-2.41,0.46-4.66,1.37-6.75c0.91-2.09,2.15-3.92,3.71-5.48c1.56-1.56,3.39-2.8,5.48-3.71
		c2.09-0.91,4.32-1.37,6.69-1.37c2.32,0,4.35,0.43,6.08,1.29c1.74,0.86,3.23,2.11,4.48,3.74v-4.5H304.32z"/>
	<path class="st3" d="M309,43.64h9.09v33.43H309V43.64z M339.89,47.52c1.11,1.38,1.92,3.12,2.41,5.21c0.49,2.1,0.74,4.68,0.74,7.75
		v16.58h-9.09V60.45c0-1.25-0.03-2.45-0.1-3.59c-0.07-1.14-0.3-2.14-0.7-3.02c-0.4-0.87-1.05-1.55-1.94-2.04
		c-0.89-0.49-2.16-0.74-3.81-0.74c-1.56,0-3.01,0.33-4.35,1v0.07l-0.07-0.07l-3.28-5.78l0.07-0.07c2.32-2.08,5.21-3.12,8.69-3.12
		C333.8,43.11,337.61,44.58,339.89,47.52z"/>
	<path class="st3" d="M382.61,43.64v33.43h-8.76V60.31c0-1.3-0.25-2.5-0.74-3.62c-0.49-1.12-1.17-2.1-2.04-2.95
		c-0.87-0.85-1.87-1.51-3.01-1.98c-1.14-0.47-2.33-0.7-3.58-0.7c-1.29,0-2.5,0.25-3.61,0.74c-1.11,0.49-2.11,1.15-2.97,1.98
		c-0.87,0.83-1.55,1.81-2.04,2.95c-0.49,1.14-0.74,2.36-0.74,3.66c0,1.25,0.24,2.44,0.74,3.56c0.49,1.12,1.17,2.1,2.04,2.95
		c0.87,0.85,1.86,1.52,2.97,2.01c1.11,0.49,2.32,0.74,3.61,0.74c1.38,0,2.56-0.24,3.54-0.74h0.07v0.13l3.34,5.95l-0.07,0.07
		c-2.18,1.69-4.88,2.54-8.09,2.54c-2.36,0-4.59-0.45-6.69-1.34c-2.1-0.89-3.92-2.12-5.48-3.68c-1.56-1.56-2.8-3.39-3.71-5.48
		c-0.91-2.09-1.37-4.32-1.37-6.69c0-2.41,0.46-4.66,1.37-6.75c0.91-2.09,2.15-3.92,3.71-5.48c1.56-1.56,3.39-2.8,5.48-3.71
		c2.09-0.91,4.32-1.37,6.69-1.37c2.32,0,4.35,0.43,6.08,1.29c1.74,0.86,3.23,2.11,4.48,3.74v-4.5H382.61z"/>
	<path class="st3" d="M396.18,30.27v46.8h-8.89l0.07-46.8H396.18z"/>
	<path class="st3" d="M410.55,72.52l-11.7-28.88h9.56v0.07l8.62,24.27L410.55,72.52z M436.15,43.64l-0.07,0.13
		c-0.76,2.05-1.49,4.04-2.21,5.98c-0.71,1.94-1.38,3.76-2.01,5.45c-2.23,6.24-4.22,11.6-5.98,16.08c-1.76,4.48-3.64,8.12-5.65,10.93
		c-2.01,2.9-4.27,4.99-6.79,6.28c-2.52,1.29-5.67,1.94-9.46,1.94h-0.13v-9.09H404c1.16,0,2.19-0.04,3.11-0.13
		c0.91-0.09,1.75-0.28,2.51-0.57c0.76-0.29,1.46-0.69,2.11-1.2c0.65-0.51,1.26-1.19,1.84-2.04c0.58-0.8,1.16-1.78,1.74-2.94
		c0.58-1.16,1.18-2.54,1.8-4.14c0.62-1.6,1.31-3.46,2.07-5.58c0.76-2.12,1.6-4.51,2.54-7.19c0.71-2.01,1.47-4.14,2.27-6.42
		c0.8-2.27,1.67-4.75,2.61-7.42v-0.07H436.15z"/>
	<path class="st3" d="M451.8,57.21c1.47,0.49,2.82,0.99,4.04,1.5c1.23,0.51,2.29,1.13,3.21,1.84c0.91,0.71,1.63,1.57,2.14,2.57
		c0.51,1,0.77,2.2,0.77,3.58v0.07c0,3.39-1.13,6.04-3.38,7.96c-2.25,1.92-5.4,2.87-9.46,2.87c-2.54,0-5.04-0.44-7.49-1.31
		c-2.45-0.88-4.75-2.12-6.89-3.74l-0.07-0.07l0.07-0.07l4.55-7.18l0.07,0.07c1.34,1.43,2.85,2.51,4.55,3.24
		c1.69,0.74,3.5,1.1,5.42,1.1c2.63,0,3.94-0.84,3.94-2.53c0-0.8-0.42-1.4-1.27-1.8c-0.85-0.4-1.85-0.78-3.01-1.13
		c-0.22-0.09-0.43-0.14-0.64-0.17c-0.2-0.02-0.41-0.08-0.64-0.17c-1.34-0.36-2.67-0.74-4.01-1.17c-1.34-0.42-2.54-1-3.61-1.73
		c-1.07-0.73-1.95-1.67-2.64-2.8c-0.69-1.13-1.04-2.59-1.04-4.37v-0.13c0-1.56,0.29-2.98,0.87-4.27c0.58-1.29,1.4-2.4,2.47-3.33
		c1.07-0.93,2.36-1.66,3.88-2.17c1.51-0.51,3.19-0.77,5.01-0.77c2.14,0,4.3,0.32,6.48,0.97c2.18,0.65,4.21,1.59,6.08,2.84v0.13
		l-4.08,7.42l-0.07-0.07c-1.03-1.02-2.3-1.84-3.81-2.44c-1.52-0.6-3.12-0.9-4.81-0.9c-0.31,0-0.67,0.02-1.07,0.07
		c-0.4,0.04-0.77,0.16-1.1,0.33c-0.33,0.18-0.61,0.41-0.84,0.7c-0.22,0.29-0.33,0.7-0.33,1.24c0,0.4,0.18,0.77,0.53,1.1
		c0.36,0.33,0.81,0.65,1.37,0.94c0.56,0.29,1.18,0.57,1.87,0.84c0.69,0.27,1.37,0.51,2.04,0.74c0.13,0,0.28,0.02,0.43,0.07
		C451.52,57.12,451.66,57.17,451.8,57.21z"/>
	<path class="st3" d="M465.3,30.27h8.89v7.82h-8.89V30.27z M465.3,77.07V43.64h8.89v33.43H465.3z"/>
	<path class="st3" d="M494.65,57.21c1.47,0.49,2.82,0.99,4.04,1.5c1.23,0.51,2.3,1.13,3.21,1.84c0.91,0.71,1.63,1.57,2.14,2.57
		c0.51,1,0.77,2.2,0.77,3.58v0.07c0,3.39-1.13,6.04-3.38,7.96c-2.25,1.92-5.4,2.87-9.46,2.87c-2.54,0-5.04-0.44-7.49-1.31
		c-2.45-0.88-4.75-2.12-6.89-3.74l-0.07-0.07l0.07-0.07l4.55-7.18l0.07,0.07c1.34,1.43,2.85,2.51,4.55,3.24
		c1.69,0.74,3.5,1.1,5.42,1.1c2.63,0,3.94-0.84,3.94-2.53c0-0.8-0.42-1.4-1.27-1.8c-0.85-0.4-1.85-0.78-3.01-1.13
		c-0.22-0.09-0.43-0.14-0.64-0.17c-0.2-0.02-0.41-0.08-0.64-0.17c-1.34-0.36-2.67-0.74-4.01-1.17c-1.34-0.42-2.54-1-3.61-1.73
		c-1.07-0.73-1.95-1.67-2.64-2.8c-0.69-1.13-1.04-2.59-1.04-4.37v-0.13c0-1.56,0.29-2.98,0.87-4.27c0.58-1.29,1.4-2.4,2.47-3.33
		c1.07-0.93,2.36-1.66,3.88-2.17c1.51-0.51,3.19-0.77,5.01-0.77c2.14,0,4.3,0.32,6.48,0.97c2.18,0.65,4.21,1.59,6.08,2.84v0.13
		L500,54.47l-0.07-0.07c-1.03-1.02-2.3-1.84-3.81-2.44c-1.52-0.6-3.12-0.9-4.81-0.9c-0.31,0-0.67,0.02-1.07,0.07
		c-0.4,0.04-0.77,0.16-1.1,0.33c-0.33,0.18-0.61,0.41-0.84,0.7c-0.22,0.29-0.33,0.7-0.33,1.24c0,0.4,0.18,0.77,0.53,1.1
		c0.36,0.33,0.81,0.65,1.37,0.94c0.56,0.29,1.18,0.57,1.87,0.84c0.69,0.27,1.37,0.51,2.04,0.74c0.13,0,0.28,0.02,0.43,0.07
		C494.37,57.12,494.52,57.17,494.65,57.21z"/>
</g>
<g>
	<polygon class="st3" points="281.87,90.62 257.34,115.15 242.25,115.15 266.78,90.62 	"/>
</g>
<g>
	<g>
		<line class="st11" x1="300.98" y1="90.62" x2="276.47" y2="115.15"/>
	</g>
	<g>
		<polygon class="st6" points="308.53,90.62 284.02,115.15 268.93,115.15 293.44,90.62 		"/>
	</g>
</g>
<g>
	<g>
		<polygon class="st6" points="367.14,5.36 342.72,29.79 327.62,29.79 352.05,5.36 		"/>
	</g>
</g>
<g>
	<polygon class="st3" points="393.97,5.36 369.54,29.79 354.44,29.79 378.87,5.36 	"/>
</g>
</svg>
