<?xml version="1.0" encoding="UTF-8"?>
<svg id="Layer_1" xmlns="http://www.w3.org/2000/svg" version="1.1" viewBox="0 0 290.53 172.53"><defs><style>.st0{fill:#73c3ff}.st1{fill:#3babff}.st2{fill:#0d86d1}.st3{fill:#0b86d1}.st4{fill:#fff}.st5{fill:#0092ff}.st6{fill:#a6d5ff}.st7{fill:#f7b041}</style></defs><g><path class="st2" d="M89.12,74.35c1.17,2.98,2.61,5.71,5.01,8.02l21.61,22.67c3.38,3.11,7.5,5.04,12.16,5.04h31.14c4.76,0,8.99-2.04,12.35-5.3l21.4-22.4c2.34-2.45,4-5.14,5.02-8.26-.03,5.03-1.18,10.17-4.57,14.02l-22.89,25.93c-2.81,3.19-7.05,5.05-11.27,5.05h-31.44c-4.47,0-8.64-2.13-11.57-5.44l-22.39-25.3c-3.05-3.97-4.88-8.7-4.56-14.02Z"/><g><g><path class="st7" d="M126.13,108.38c-3.13,0-6.08-1.19-8.3-3.35l-24.5-23.86c-2.22-2.16-3.44-5.03-3.44-8.08v-33.74c0-3.05,1.22-5.92,3.44-8.08l24.5-23.86c2.22-2.16,5.16-3.35,8.3-3.35h34.65c3.13,0,6.08,1.19,8.3,3.35l24.5,23.86c2.22,2.16,3.44,5.03,3.44,8.08v33.74c0,3.05-1.22,5.92-3.44,8.08l-24.5,23.86c-2.22,2.16-5.16,3.35-8.3,3.35h-34.65Z"/><path class="st4" d="M160.78,5.08c2.86,0,5.55,1.08,7.57,3.05l24.5,23.86c2.02,1.97,3.14,4.59,3.14,7.37v33.74c0,2.79-1.11,5.4-3.14,7.37l-24.5,23.86c-2.02,1.97-4.71,3.05-7.57,3.05h-34.65c-2.86,0-5.55-1.08-7.57-3.05l-24.5-23.86c-2.02-1.97-3.14-4.59-3.14-7.37v-33.74c0-2.79,1.11-5.4,3.14-7.37l24.5-23.86c2.02-1.97,4.71-3.05,7.57-3.05h34.65"/></g></g></g><g><path class="st3" d="M13.48,146.11c1.16.39,2.22.78,3.19,1.18.97.4,1.81.89,2.53,1.45.72.56,1.28,1.24,1.69,2.03.4.79.61,1.73.61,2.82v.05c0,2.67-.89,4.76-2.66,6.27-1.77,1.51-4.26,2.26-7.45,2.26-2,0-3.97-.35-5.9-1.04-1.93-.69-3.74-1.67-5.42-2.95l-.05-.05.05-.05,3.58-5.65.05.05c1.05,1.12,2.25,1.97,3.58,2.55,1.33.58,2.76.87,4.27.87,2.07,0,3.11-.66,3.11-2,0-.63-.33-1.1-1-1.42-.67-.32-1.46-.61-2.37-.89-.18-.07-.34-.11-.5-.13-.16-.02-.33-.06-.5-.13-1.05-.28-2.11-.59-3.16-.92-1.05-.33-2-.79-2.84-1.37-.84-.58-1.54-1.31-2.08-2.21-.54-.89-.82-2.04-.82-3.44v-.1c0-1.23.23-2.35.68-3.36.46-1.02,1.11-1.89,1.95-2.63.84-.74,1.86-1.3,3.05-1.71,1.19-.4,2.51-.6,3.95-.6,1.69,0,3.39.26,5.11.76,1.72.51,3.32,1.26,4.79,2.24v.11l-3.21,5.85-.05-.05c-.81-.81-1.81-1.45-3-1.92-1.19-.47-2.46-.71-3.79-.71-.25,0-.53.02-.84.05-.32.04-.61.12-.87.26-.26.14-.48.33-.66.55-.18.23-.26.55-.26.97,0,.32.14.61.42.87.28.26.64.51,1.08.74.44.23.93.45,1.47.66.54.21,1.08.4,1.61.58.11,0,.22.02.34.05.12.04.24.07.34.11Z"/><path class="st3" d="M37.28,135c1.86,0,3.62.36,5.27,1.08,1.65.72,3.09,1.69,4.32,2.92,1.23,1.23,2.2,2.67,2.92,4.32.72,1.65,1.08,3.42,1.08,5.32,0,1.02-.11,2-.32,2.95l-.05.11h-13.38l-3.37-5.37h10.01c-.49-1.47-1.31-2.69-2.45-3.63-1.14-.95-2.48-1.42-4.03-1.42-.95,0-1.84.19-2.69.58-.84.39-1.57.9-2.19,1.55-.61.65-1.1,1.42-1.45,2.31-.35.89-.53,1.86-.53,2.91,0,.8.16,1.64.47,2.49.32.86.77,1.64,1.37,2.34.6.7,1.32,1.29,2.16,1.76s1.79.71,2.84.71c.95,0,1.82-.13,2.61-.39.79-.26,1.54-.85,2.24-1.76l.05-.05.11.05,6.11,2.69-.11.11c-1.26,1.77-2.87,3.15-4.82,4.14-1.95.99-4.01,1.49-6.19,1.49-1.9,0-3.68-.35-5.35-1.05-1.67-.7-3.12-1.67-4.34-2.9-1.23-1.23-2.2-2.67-2.92-4.32-.72-1.65-1.08-3.41-1.08-5.27s.36-3.67,1.08-5.32c.72-1.65,1.69-3.09,2.92-4.32s2.68-2.2,4.34-2.92c1.67-.72,3.45-1.08,5.35-1.08Z"/><path class="st7" d="M132.6,135.42v26.33h-6.9v-13.2c0-1.02-.19-1.97-.58-2.85-.39-.88-.92-1.65-1.61-2.32-.68-.67-1.47-1.19-2.37-1.56s-1.84-.55-2.82-.55-1.97.19-2.84.58c-.88.39-1.66.91-2.34,1.56-.68.65-1.22,1.43-1.61,2.33-.39.9-.58,1.86-.58,2.88s.19,1.92.58,2.8c.39.88.92,1.66,1.61,2.33.68.67,1.47,1.2,2.34,1.59.88.39,1.83.58,2.84.58,1.09,0,2.02-.19,2.79-.58h.05v.11l2.63,4.69-.05.05c-1.72,1.33-3.84,2-6.37,2-1.86,0-3.62-.35-5.27-1.05-1.65-.7-3.09-1.67-4.32-2.9-1.23-1.23-2.2-2.67-2.92-4.32-.72-1.65-1.08-3.41-1.08-5.27s.36-3.67,1.08-5.32c.72-1.65,1.69-3.09,2.92-4.32s2.67-2.2,4.32-2.92c1.65-.72,3.41-1.08,5.27-1.08s3.42.34,4.79,1.02c1.37.68,2.55,1.66,3.53,2.95v-3.55h6.9Z"/><path class="st7" d="M204.96,124.89v36.86h-7l.05-36.86h6.95Z"/><path class="st7" d="M259.41,124.89h7v6.16h-7v-6.16ZM259.41,161.75v-26.33h7v26.33h-7Z"/></g></svg>
