<?xml version="1.0" encoding="UTF-8"?>
<svg id="Layer_1" xmlns="http://www.w3.org/2000/svg" version="1.1" viewBox="0 0 290.53 172.53">
  <defs>
    <style>
      .st0{fill:#73c3ff}.st1{fill:#3babff}.st2{fill:#0d86d1}.st3{fill:#0b86d1}.st4{fill:#fff}.st5{fill:#0092ff}.st6{fill:#a6d5ff}.st7{fill:#f7b041}
    </style>
  </defs>
  <g>
    <path class="st2" d="M89.12,74.35c1.17,2.98,2.61,5.71,5.01,8.02l21.61,22.67c3.38,3.11,7.5,5.04,12.16,5.04h31.14c4.76,0,8.99-2.04,12.35-5.3l21.4-22.4c2.34-2.45,4-5.14,5.02-8.26-.03,5.03-1.18,10.17-4.57,14.02l-22.89,25.93c-2.81,3.19-7.05,5.05-11.27,5.05h-31.44c-4.47,0-8.64-2.13-11.57-5.44l-22.39-25.3c-3.05-3.97-4.88-8.7-4.56-14.02Z"/>
    <g>
      <g>
        <path class="st7" d="M126.13,108.38c-3.13,0-6.08-1.19-8.3-3.35l-24.5-23.86c-2.22-2.16-3.44-5.03-3.44-8.08v-33.74c0-3.05,1.22-5.92,3.44-8.08l24.5-23.86c2.22-2.16,5.16-3.35,8.3-3.35h34.65c3.13,0,6.08,1.19,8.3,3.35l24.5,23.86c2.22,2.16,3.44,5.03,3.44,8.08v33.74c0,3.05-1.22,5.92-3.44,8.08l-24.5,23.86c-2.22,2.16-5.16,3.35-8.3,3.35h-34.65Z"/>
        <path class="st4" d="M160.78,5.08c2.86,0,5.55,1.08,7.57,3.05l24.5,23.86c2.02,1.97,3.14,4.59,3.14,7.37v33.74c0,2.79-1.11,5.4-3.14,7.37l-24.5,23.86c-2.02,1.97-4.71,3.05-7.57,3.05h-34.65c-2.86,0-5.55-1.08-7.57-3.05l-24.5-23.86c-2.02-1.97-3.14-4.59-3.14-7.37v-33.74c0-2.79,1.11-5.4,3.14-7.37l24.5-23.86c2.02-1.97,4.71-3.05,7.57-3.05h34.65"/>
      </g>
    </g>
  </g>
</svg>
