<?xml version="1.0" encoding="UTF-8"?>
<svg id="Layer_1" xmlns="http://www.w3.org/2000/svg" version="1.1" viewBox="0 0 368.82 119.02">
  <defs>
    <style>
      .st0 { fill: none; }
      .st1 { fill: #0b86d1; }
      .st2 { fill: #f7b041; }
    </style>
  </defs>
  <polygon class="st1" points="231.15 4.94 206.73 29.37 191.63 29.37 216.06 4.94 231.15 4.94"/>
  <g>
    <g>
      <path class="st1" d="M17.11,56.8c1.47.49,2.82.99,4.04,1.5,1.23.51,2.29,1.13,3.21,1.84.91.71,1.63,1.57,2.14,2.57.51,1,.77,2.2.77,3.58v.07c0,3.39-1.13,6.04-3.38,7.96-2.25,1.92-5.4,2.87-9.46,2.87-2.54,0-5.04-.44-7.49-1.31-2.45-.88-4.75-2.12-6.89-3.74l-.07-.07.07-.07,4.55-7.18.07.07c1.34,1.43,2.85,2.51,4.55,3.24,1.69.74,3.5,1.1,5.42,1.1,2.63,0,3.94-.84,3.94-2.53,0-.8-.42-1.4-1.27-1.8-.85-.4-1.85-.78-3.01-1.13-.22-.09-.43-.14-.64-.17-.2-.02-.41-.08-.64-.17-1.34-.36-2.67-.74-4.01-1.17-1.34-.42-2.54-1-3.61-1.73-1.07-.73-1.95-1.67-2.64-2.8-.69-1.13-1.04-2.59-1.04-4.37v-.13c0-1.56.29-2.98.87-4.27.58-1.29,1.4-2.4,2.47-3.33,1.07-.93,2.36-1.66,3.88-2.17,1.51-.51,3.19-.77,5.01-.77,2.14,0,4.3.32,6.48.97,2.18.65,4.21,1.59,6.08,2.84v.13l-4.08,7.42-.07-.07c-1.03-1.02-2.3-1.84-3.81-2.44-1.52-.6-3.12-.9-4.81-.9-.31,0-.67.02-1.07.07-.4.04-.77.16-1.1.33-.33.18-.61.41-.84.7-.22.29-.33.7-.33,1.24,0,.4.18.77.53,1.1.36.33.81.65,1.37.94.56.29,1.18.57,1.87.84.69.27,1.37.51,2.04.74.13,0,.28.02.43.07.16.04.3.09.43.13Z"/>
      <path class="st1" d="M47.33,42.69c2.36,0,4.59.46,6.69,1.37,2.09.91,3.92,2.15,5.48,3.71,1.56,1.56,2.8,3.39,3.71,5.48.91,2.1,1.37,4.35,1.37,6.75,0,1.29-.13,2.54-.4,3.74l-.07.13h-16.98l-4.28-6.82h12.7c-.62-1.87-1.66-3.41-3.11-4.61-1.45-1.2-3.15-1.81-5.11-1.81-1.2,0-2.34.24-3.41.73-1.07.49-2,1.14-2.77,1.96-.78.82-1.39,1.8-1.84,2.93-.45,1.13-.67,2.36-.67,3.7,0,1.02.2,2.08.6,3.16.4,1.09.98,2.08,1.74,2.96.76.89,1.67,1.63,2.74,2.23s2.27.9,3.61.9c1.2,0,2.31-.17,3.31-.5,1-.33,1.95-1.08,2.84-2.24l.07-.07.13.07,7.75,3.41-.13.14c-1.6,2.25-3.64,4-6.12,5.26-2.47,1.26-5.09,1.89-7.86,1.89-2.41,0-4.67-.45-6.79-1.34-2.12-.89-3.96-2.12-5.52-3.68-1.56-1.56-2.8-3.39-3.71-5.48-.91-2.09-1.37-4.32-1.37-6.69s.46-4.66,1.37-6.75c.91-2.09,2.15-3.92,3.71-5.48s3.4-2.8,5.52-3.71c2.12-.91,4.38-1.37,6.79-1.37Z"/>
      <path class="st1" d="M67.92,43.23h8.89v33.43h-8.89v-33.43ZM104.16,42.69c2.09,0,3.87.41,5.31,1.24,1.45.83,2.62,1.91,3.51,3.24.89,1.34,1.54,2.84,1.94,4.51s.6,3.35.6,5.05v19.92h-8.89l.07-19.98c0-.71-.13-1.38-.4-2.01-.27-.63-.64-1.18-1.1-1.68-.47-.49-1.03-.88-1.67-1.17-.65-.29-1.33-.44-2.04-.44-1.47,0-2.72.53-3.74,1.58-1.03,1.05-1.54,2.29-1.54,3.72v19.98h-8.89v-19.98c0-.71-.13-1.38-.4-2.01-.27-.63-.65-1.18-1.14-1.68-.49-.49-1.06-.87-1.7-1.14-.65-.27-1.37-.4-2.17-.4-.04,0-.25-.33-.6-.99-.36-.66-.76-1.39-1.2-2.19-.49-.93-1.09-1.99-1.8-3.18l.07-.13c1.92-1.5,4.03-2.26,6.35-2.26,2.5,0,4.52.55,6.08,1.66,1.56,1.11,2.76,2.48,3.61,4.11.18-.31.36-.57.53-.8,1.25-1.64,2.66-2.87,4.25-3.71,1.58-.84,3.24-1.26,4.98-1.26Z"/>
      <path class="st1" d="M119.53,29.86h8.89v7.82h-8.89v-7.82ZM119.53,76.65v-33.43h8.89v33.43h-8.89Z"/>
      <path class="st2" d="M168.33,43.23v33.43h-8.76v-16.76c0-1.3-.25-2.5-.74-3.62-.49-1.12-1.17-2.1-2.04-2.95-.87-.85-1.87-1.51-3.01-1.98s-2.33-.7-3.58-.7-2.5.25-3.61.74c-1.11.49-2.11,1.15-2.97,1.98-.87.83-1.55,1.81-2.04,2.95-.49,1.14-.74,2.36-.74,3.66s.24,2.44.74,3.56c.49,1.12,1.17,2.1,2.04,2.95.87.85,1.86,1.52,2.97,2.01,1.11.49,2.32.74,3.61.74,1.38,0,2.56-.24,3.54-.74h.07v.13l3.34,5.95-.07.07c-2.18,1.69-4.88,2.54-8.09,2.54-2.36,0-4.59-.45-6.69-1.34-2.1-.89-3.92-2.12-5.48-3.68-1.56-1.56-2.8-3.39-3.71-5.48-.91-2.09-1.37-4.32-1.37-6.69s.46-4.66,1.37-6.75c.91-2.09,2.15-3.92,3.71-5.48s3.39-2.8,5.48-3.71c2.09-.91,4.32-1.37,6.69-1.37s4.35.43,6.08,1.29c1.74.86,3.23,2.11,4.48,3.74v-4.5h8.76Z"/>
      <path class="st2" d="M173.01,43.23h9.09v33.43h-9.09v-33.43ZM203.9,47.1c1.11,1.38,1.92,3.12,2.41,5.21.49,2.1.74,4.68.74,7.75v16.58h-9.09v-16.62c0-1.25-.03-2.45-.1-3.59-.07-1.14-.3-2.14-.7-3.02-.4-.87-1.05-1.55-1.94-2.04-.89-.49-2.16-.74-3.81-.74-1.56,0-3.01.33-4.35,1v.07l-.07-.07-3.28-5.78.07-.07c2.32-2.08,5.21-3.12,8.69-3.12,5.35,0,9.16,1.47,11.43,4.41Z"/>
      <path class="st2" d="M246.62,43.23v33.43h-8.76v-16.76c0-1.3-.25-2.5-.74-3.62-.49-1.12-1.17-2.1-2.04-2.95-.87-.85-1.87-1.51-3.01-1.98s-2.33-.7-3.58-.7-2.5.25-3.61.74c-1.11.49-2.11,1.15-2.97,1.98-.87.83-1.55,1.81-2.04,2.95-.49,1.14-.74,2.36-.74,3.66s.24,2.44.74,3.56c.49,1.12,1.17,2.1,2.04,2.95.87.85,1.86,1.52,2.97,2.01,1.11.49,2.32.74,3.61.74,1.38,0,2.56-.24,3.54-.74h.07v.13l3.34,5.95-.07.07c-2.18,1.69-4.88,2.54-8.09,2.54-2.36,0-4.59-.45-6.69-1.34-2.1-.89-3.92-2.12-5.48-3.68-1.56-1.56-2.8-3.39-3.71-5.48-.91-2.09-1.37-4.32-1.37-6.69s.46-4.66,1.37-6.75c.91-2.09,2.15-3.92,3.71-5.48s3.39-2.8,5.48-3.71c2.09-.91,4.32-1.37,6.69-1.37s4.35.43,6.08,1.29c1.74.86,3.23,2.11,4.48,3.74v-4.5h8.76Z"/>
      <path class="st2" d="M260.19,29.86v46.8h-8.89l.07-46.8h8.82Z"/>
      <path class="st2" d="M274.56,72.11l-11.7-28.88h9.56v.07l8.62,24.27-6.48,4.55ZM300.17,43.23l-.07.13c-.76,2.05-1.49,4.04-2.21,5.98-.71,1.94-1.38,3.76-2.01,5.45-2.23,6.24-4.22,11.6-5.98,16.08-1.76,4.48-3.64,8.12-5.65,10.93-2.01,2.9-4.27,4.99-6.79,6.28-2.52,1.29-5.67,1.94-9.46,1.94h-.13v-9.09h.13c1.16,0,2.19-.04,3.11-.13.91-.09,1.75-.28,2.51-.57.76-.29,1.46-.69,2.11-1.2.65-.51,1.26-1.19,1.84-2.04.58-.8,1.16-1.78,1.74-2.94.58-1.16,1.18-2.54,1.8-4.14.62-1.6,1.31-3.46,2.07-5.58.76-2.12,1.6-4.51,2.54-7.19.71-2.01,1.47-4.14,2.27-6.42.8-2.27,1.67-4.75,2.61-7.42v-.07h9.56Z"/>
      <path class="st2" d="M315.81,56.8c1.47.49,2.82.99,4.04,1.5,1.23.51,2.29,1.13,3.21,1.84.91.71,1.63,1.57,2.14,2.57.51,1,.77,2.2.77,3.58v.07c0,3.39-1.13,6.04-3.38,7.96-2.25,1.92-5.4,2.87-9.46,2.87-2.54,0-5.04-.44-7.49-1.31-2.45-.88-4.75-2.12-6.89-3.74l-.07-.07.07-.07,4.55-7.18.07.07c1.34,1.43,2.85,2.51,4.55,3.24,1.69.74,3.5,1.1,5.42,1.1,2.63,0,3.94-.84,3.94-2.53,0-.8-.42-1.4-1.27-1.8-.85-.4-1.85-.78-3.01-1.13-.22-.09-.43-.14-.64-.17-.2-.02-.41-.08-.64-.17-1.34-.36-2.67-.74-4.01-1.17-1.34-.42-2.54-1-3.61-1.73-1.07-.73-1.95-1.67-2.64-2.8-.69-1.13-1.04-2.59-1.04-4.37v-.13c0-1.56.29-2.98.87-4.27.58-1.29,1.4-2.4,2.47-3.33,1.07-.93,2.36-1.66,3.88-2.17,1.51-.51,3.19-.77,5.01-.77,2.14,0,4.3.32,6.48.97,2.18.65,4.21,1.59,6.08,2.84v.13l-4.08,7.42-.07-.07c-1.03-1.02-2.3-1.84-3.81-2.44-1.52-.6-3.12-.9-4.81-.9-.31,0-.67.02-1.07.07-.4.04-.77.16-1.1.33-.33.18-.61.41-.84.7-.22.29-.33.7-.33,1.24,0,.4.18.77.53,1.1.36.33.81.65,1.37.94.56.29,1.18.57,1.87.84.69.27,1.37.51,2.04.74.13,0,.28.02.43.07.16.04.3.09.43.13Z"/>
      <path class="st2" d="M329.31,29.86h8.89v7.82h-8.89v-7.82ZM329.31,76.65v-33.43h8.89v33.43h-8.89Z"/>
      <path class="st2" d="M358.66,56.8c1.47.49,2.82.99,4.04,1.5,1.23.51,2.29,1.13,3.21,1.84.91.71,1.63,1.57,2.14,2.57.51,1,.77,2.2.77,3.58v.07c0,3.39-1.13,6.04-3.38,7.96-2.25,1.92-5.4,2.87-9.46,2.87-2.54,0-5.04-.44-7.49-1.31-2.45-.88-4.75-2.12-6.89-3.74l-.07-.07.07-.07,4.55-7.18.07.07c1.34,1.43,2.85,2.51,4.55,3.24,1.69.74,3.5,1.1,5.42,1.1,2.63,0,3.94-.84,3.94-2.53,0-.8-.42-1.4-1.27-1.8-.85-.4-1.85-.78-3.01-1.13-.22-.09-.43-.14-.64-.17-.2-.02-.41-.08-.64-.17-1.34-.36-2.67-.74-4.01-1.17-1.34-.42-2.54-1-3.61-1.73-1.07-.73-1.95-1.67-2.64-2.8-.69-1.13-1.04-2.59-1.04-4.37v-.13c0-1.56.29-2.98.87-4.27.58-1.29,1.4-2.4,2.47-3.33,1.07-.93,2.36-1.66,3.88-2.17,1.51-.51,3.19-.77,5.01-.77,2.14,0,4.3.32,6.48.97,2.18.65,4.21,1.59,6.08,2.84v.13l-4.08,7.42-.07-.07c-1.03-1.02-2.3-1.84-3.81-2.44-1.52-.6-3.12-.9-4.81-.9-.31,0-.67.02-1.07.07-.4.04-.77.16-1.1.33-.33.18-.61.41-.84.7-.22.29-.33.7-.33,1.24,0,.4.18.77.53,1.1.36.33.81.65,1.37.94.56.29,1.18.57,1.87.84.69.27,1.37.51,2.04.74.13,0,.28.02.43.07.16.04.3.09.43.13Z"/>
    </g>
    <polygon class="st2" points="145.88 90.21 121.35 114.73 106.27 114.73 130.79 90.21 145.88 90.21"/>
    <polygon class="st1" points="172.54 90.21 148.03 114.73 132.94 114.73 157.45 90.21 172.54 90.21"/>
    <polygon class="st2" points="257.98 4.94 233.55 29.37 218.45 29.37 242.88 4.94 257.98 4.94"/>
  </g>
</svg>
